<svg xmlns="http://www.w3.org/2000/svg" width="400.0" height="360.3" viewBox="0 0 400.0 360.3">
<rect width="400.0" height="360.3" fill="white"/>
<circle cx="84.49" cy="292.76" r="13.34" fill="#cccccc" stroke="#000000" stroke-width="1.00"/>
<circle cx="272.80" cy="158.89" r="13.34" fill="#cccccc" stroke="#000000" stroke-width="1.00"/>
<circle cx="124.52" cy="223.42" r="13.34" fill="#cccccc" stroke="#000000" stroke-width="1.00"/>
<circle cx="316.29" cy="338.98" r="13.34" fill="#cccccc" stroke="#000000" stroke-width="1.00"/>
<circle cx="164.55" cy="107.87" r="13.34" fill="#cccccc" stroke="#000000" stroke-width="1.00"/>
<circle cx="219.29" cy="59.40" r="13.34" fill="#cccccc" stroke="#000000" stroke-width="1.00"/>
<circle cx="191.24" cy="338.98" r="13.34" fill="#cccccc" stroke="#000000" stroke-width="1.00"/>
<circle cx="230.71" cy="228.85" r="13.34" fill="#cccccc" stroke="#000000" stroke-width="1.00"/>
<circle cx="289.61" cy="338.98" r="13.34" fill="#cccccc" stroke="#000000" stroke-width="1.00"/>
<circle cx="231.23" cy="129.51" r="13.34" fill="#cccccc" stroke="#000000" stroke-width="1.00"/>
<circle cx="31.12" cy="338.98" r="13.34" fill="#cccccc" stroke="#000000" stroke-width="1.00"/>
<circle cx="164.55" cy="292.76" r="13.34" fill="#cccccc" stroke="#000000" stroke-width="1.00"/>
<circle cx="206.05" cy="36.21" r="13.34" fill="#cccccc" stroke="#000000" stroke-width="1.00"/>
<circle cx="111.18" cy="338.98" r="13.34" fill="#cccccc" stroke="#000000" stroke-width="1.00"/>
<circle cx="284.04" cy="228.85" r="13.34" fill="#cccccc" stroke="#000000" stroke-width="1.00"/>
<circle cx="177.90" cy="269.65" r="13.34" fill="#cccccc" stroke="#000000" stroke-width="1.00"/>
<circle cx="191.24" cy="246.54" r="13.34" fill="#cccccc" stroke="#000000" stroke-width="1.00"/>
<circle cx="302.95" cy="315.87" r="13.34" fill="#cccccc" stroke="#000000" stroke-width="1.00"/>
<circle cx="257.87" cy="131.12" r="13.34" fill="#cccccc" stroke="#000000" stroke-width="1.00"/>
<circle cx="84.49" cy="246.54" r="13.34" fill="#cccccc" stroke="#000000" stroke-width="1.00"/>
<circle cx="191.24" cy="292.76" r="13.34" fill="#cccccc" stroke="#000000" stroke-width="1.00"/>
<circle cx="244.57" cy="106.39" r="13.34" fill="#cccccc" stroke="#000000" stroke-width="1.00"/>
<circle cx="151.21" cy="269.65" r="13.34" fill="#cccccc" stroke="#000000" stroke-width="1.00"/>
<circle cx="137.87" cy="246.54" r="13.34" fill="#cccccc" stroke="#000000" stroke-width="1.00"/>
<circle cx="57.80" cy="292.76" r="13.34" fill="#cccccc" stroke="#000000" stroke-width="1.00"/>
<circle cx="151.21" cy="177.20" r="13.34" fill="#cccccc" stroke="#000000" stroke-width="1.00"/>
<circle cx="267.11" cy="278.40" r="13.34" fill="#cccccc" stroke="#000000" stroke-width="1.00"/>
<circle cx="217.88" cy="106.26" r="13.34" fill="#cccccc" stroke="#000000" stroke-width="1.00"/>
<circle cx="204.58" cy="177.20" r="13.34" fill="#cccccc" stroke="#000000" stroke-width="1.00"/>
<circle cx="369.67" cy="338.98" r="13.34" fill="#cccccc" stroke="#000000" stroke-width="1.00"/>
<circle cx="137.87" cy="338.98" r="13.34" fill="#cccccc" stroke="#000000" stroke-width="1.00"/>
<circle cx="244.61" cy="338.98" r="13.34" fill="#cccccc" stroke="#000000" stroke-width="1.00"/>
<circle cx="151.21" cy="223.42" r="13.34" fill="#cccccc" stroke="#000000" stroke-width="1.00"/>
<circle cx="231.27" cy="315.87" r="13.34" fill="#cccccc" stroke="#000000" stroke-width="1.00"/>
<circle cx="280.45" cy="255.29" r="13.34" fill="#cccccc" stroke="#000000" stroke-width="1.00"/>
<circle cx="177.90" cy="177.20" r="13.34" fill="#cccccc" stroke="#000000" stroke-width="1.00"/>
<circle cx="231.27" cy="177.21" r="13.34" fill="#cccccc" stroke="#000000" stroke-width="1.00"/>
<circle cx="343.00" cy="292.77" r="13.34" fill="#cccccc" stroke="#000000" stroke-width="1.00"/>
<circle cx="71.15" cy="315.87" r="13.34" fill="#cccccc" stroke="#000000" stroke-width="1.00"/>
<circle cx="316.32" cy="292.72" r="13.34" fill="#cccccc" stroke="#000000" stroke-width="1.00"/>
<circle cx="257.38" cy="227.79" r="13.34" fill="#cccccc" stroke="#000000" stroke-width="1.00"/>
<circle cx="71.15" cy="269.65" r="13.34" fill="#cccccc" stroke="#000000" stroke-width="1.00"/>
<circle cx="204.58" cy="223.42" r="13.34" fill="#cccccc" stroke="#000000" stroke-width="1.00"/>
<circle cx="137.87" cy="154.09" r="13.34" fill="#cccccc" stroke="#000000" stroke-width="1.00"/>
<circle cx="111.18" cy="246.54" r="13.34" fill="#cccccc" stroke="#000000" stroke-width="1.00"/>
<circle cx="164.55" cy="200.31" r="13.34" fill="#cccccc" stroke="#000000" stroke-width="1.00"/>
<circle cx="111.18" cy="292.76" r="13.34" fill="#cccccc" stroke="#000000" stroke-width="1.00"/>
<circle cx="204.58" cy="315.87" r="13.34" fill="#cccccc" stroke="#000000" stroke-width="1.00"/>
<circle cx="227.08" cy="255.29" r="13.34" fill="#cccccc" stroke="#000000" stroke-width="1.00"/>
<circle cx="218.31" cy="200.54" r="13.34" fill="#cccccc" stroke="#000000" stroke-width="1.00"/>
<circle cx="164.55" cy="154.09" r="13.34" fill="#cccccc" stroke="#000000" stroke-width="1.00"/>
<circle cx="267.11" cy="324.63" r="13.34" fill="#cccccc" stroke="#000000" stroke-width="1.00"/>
<circle cx="240.42" cy="278.40" r="13.34" fill="#cccccc" stroke="#000000" stroke-width="1.00"/>
<circle cx="97.84" cy="223.42" r="13.34" fill="#cccccc" stroke="#000000" stroke-width="1.00"/>
<circle cx="218.02" cy="154.03" r="13.34" fill="#cccccc" stroke="#000000" stroke-width="1.00"/>
<circle cx="57.80" cy="338.98" r="13.34" fill="#cccccc" stroke="#000000" stroke-width="1.00"/>
<circle cx="124.52" cy="269.65" r="13.34" fill="#cccccc" stroke="#000000" stroke-width="1.00"/>
<circle cx="271.41" cy="205.09" r="13.34" fill="#cccccc" stroke="#000000" stroke-width="1.00"/>
<circle cx="253.76" cy="254.61" r="13.34" fill="#cccccc" stroke="#000000" stroke-width="1.00"/>
<circle cx="137.87" cy="200.31" r="13.34" fill="#cccccc" stroke="#000000" stroke-width="1.00"/>
<circle cx="293.80" cy="278.40" r="13.34" fill="#cccccc" stroke="#000000" stroke-width="1.00"/>
<circle cx="253.77" cy="301.51" r="13.34" fill="#cccccc" stroke="#000000" stroke-width="1.00"/>
<circle cx="217.93" cy="338.98" r="13.34" fill="#cccccc" stroke="#000000" stroke-width="1.00"/>
<circle cx="204.58" cy="269.65" r="13.34" fill="#cccccc" stroke="#000000" stroke-width="1.00"/>
<circle cx="191.24" cy="154.09" r="13.34" fill="#cccccc" stroke="#000000" stroke-width="1.00"/>
<circle cx="192.60" cy="59.28" r="13.34" fill="#cccccc" stroke="#000000" stroke-width="1.00"/>
<circle cx="204.58" cy="130.98" r="13.34" fill="#cccccc" stroke="#000000" stroke-width="1.00"/>
<circle cx="310.73" cy="229.40" r="13.34" fill="#cccccc" stroke="#000000" stroke-width="1.00"/>
<circle cx="97.84" cy="315.87" r="13.34" fill="#cccccc" stroke="#000000" stroke-width="1.00"/>
<circle cx="177.90" cy="130.98" r="13.34" fill="#cccccc" stroke="#000000" stroke-width="1.00"/>
<circle cx="231.33" cy="83.22" r="13.34" fill="#cccccc" stroke="#000000" stroke-width="1.00"/>
<circle cx="258.51" cy="181.43" r="13.34" fill="#cccccc" stroke="#000000" stroke-width="1.00"/>
<circle cx="331.79" cy="268.56" r="13.34" fill="#cccccc" stroke="#000000" stroke-width="1.00"/>
<circle cx="124.52" cy="177.20" r="13.34" fill="#cccccc" stroke="#000000" stroke-width="1.00"/>
<circle cx="285.44" cy="182.39" r="13.34" fill="#cccccc" stroke="#000000" stroke-width="1.00"/>
<circle cx="177.90" cy="84.76" r="13.34" fill="#cccccc" stroke="#000000" stroke-width="1.00"/>
<circle cx="298.08" cy="205.90" r="13.34" fill="#cccccc" stroke="#000000" stroke-width="1.00"/>
<circle cx="84.49" cy="338.98" r="13.34" fill="#cccccc" stroke="#000000" stroke-width="1.00"/>
<circle cx="329.64" cy="315.87" r="13.34" fill="#cccccc" stroke="#000000" stroke-width="1.00"/>
<circle cx="177.90" cy="223.42" r="13.34" fill="#cccccc" stroke="#000000" stroke-width="1.00"/>
<circle cx="342.98" cy="338.98" r="13.34" fill="#cccccc" stroke="#000000" stroke-width="1.00"/>
<circle cx="151.21" cy="315.87" r="13.34" fill="#cccccc" stroke="#000000" stroke-width="1.00"/>
<circle cx="111.18" cy="200.31" r="13.34" fill="#cccccc" stroke="#000000" stroke-width="1.00"/>
<circle cx="308.25" cy="255.97" r="13.34" fill="#cccccc" stroke="#000000" stroke-width="1.00"/>
<circle cx="124.52" cy="315.87" r="13.34" fill="#cccccc" stroke="#000000" stroke-width="1.00"/>
<circle cx="244.73" cy="204.29" r="13.34" fill="#cccccc" stroke="#000000" stroke-width="1.00"/>
<circle cx="137.87" cy="292.76" r="13.34" fill="#cccccc" stroke="#000000" stroke-width="1.00"/>
<circle cx="280.45" cy="301.51" r="13.34" fill="#cccccc" stroke="#000000" stroke-width="1.00"/>
<circle cx="191.24" cy="200.31" r="13.34" fill="#cccccc" stroke="#000000" stroke-width="1.00"/>
<circle cx="164.55" cy="338.98" r="13.34" fill="#cccccc" stroke="#000000" stroke-width="1.00"/>
<circle cx="204.53" cy="83.15" r="13.34" fill="#cccccc" stroke="#000000" stroke-width="1.00"/>
<circle cx="357.02" cy="315.48" r="13.34" fill="#cccccc" stroke="#000000" stroke-width="1.00"/>
<circle cx="246.37" cy="155.21" r="13.34" fill="#cccccc" stroke="#000000" stroke-width="1.00"/>
<circle cx="217.93" cy="292.76" r="13.34" fill="#cccccc" stroke="#000000" stroke-width="1.00"/>
<circle cx="97.84" cy="269.65" r="13.34" fill="#cccccc" stroke="#000000" stroke-width="1.00"/>
<circle cx="151.21" cy="130.98" r="13.34" fill="#cccccc" stroke="#000000" stroke-width="1.00"/>
<circle cx="177.90" cy="315.87" r="13.34" fill="#cccccc" stroke="#000000" stroke-width="1.00"/>
<circle cx="164.55" cy="246.54" r="13.34" fill="#cccccc" stroke="#000000" stroke-width="1.00"/>
<circle cx="44.46" cy="315.87" r="13.34" fill="#cccccc" stroke="#000000" stroke-width="1.00"/>
<circle cx="191.24" cy="107.87" r="13.34" fill="#cccccc" stroke="#000000" stroke-width="1.00"/>
<polygon points="8.01,352.33 391.99,352.33 206.80,8.01" fill="none" stroke="#000000" stroke-width="1.40"/>
</svg>