<svg xmlns="http://www.w3.org/2000/svg" width="400.0" height="382.7" viewBox="0 0 400.0 382.7">
<rect width="400.0" height="382.7" fill="white"/>
<circle cx="227.85" cy="121.69" r="26.40" fill="#cccccc" stroke="#000000" stroke-width="1.00"/>
<circle cx="186.83" cy="255.23" r="26.40" fill="#cccccc" stroke="#000000" stroke-width="1.00"/>
<circle cx="263.26" cy="239.80" r="26.40" fill="#cccccc" stroke="#000000" stroke-width="1.00"/>
<circle cx="242.46" cy="340.44" r="26.40" fill="#cccccc" stroke="#000000" stroke-width="1.00"/>
<circle cx="103.16" cy="292.17" r="26.40" fill="#cccccc" stroke="#000000" stroke-width="1.00"/>
<circle cx="226.46" cy="290.12" r="26.40" fill="#cccccc" stroke="#000000" stroke-width="1.00"/>
<circle cx="332.06" cy="290.12" r="26.40" fill="#cccccc" stroke="#000000" stroke-width="1.00"/>
<circle cx="124.55" cy="340.44" r="26.40" fill="#cccccc" stroke="#000000" stroke-width="1.00"/>
<circle cx="134.34" cy="249.55" r="26.40" fill="#cccccc" stroke="#000000" stroke-width="1.00"/>
<circle cx="280.33" cy="127.44" r="26.40" fill="#cccccc" stroke="#000000" stroke-width="1.00"/>
<circle cx="189.66" cy="340.44" r="26.40" fill="#cccccc" stroke="#000000" stroke-width="1.00"/>
<circle cx="259.53" cy="78.37" r="26.40" fill="#cccccc" stroke="#000000" stroke-width="1.00"/>
<circle cx="316.06" cy="239.80" r="26.40" fill="#cccccc" stroke="#000000" stroke-width="1.00"/>
<circle cx="67.91" cy="340.37" r="26.40" fill="#cccccc" stroke="#000000" stroke-width="1.00"/>
<circle cx="250.58" cy="171.06" r="26.40" fill="#cccccc" stroke="#000000" stroke-width="1.00"/>
<circle cx="165.51" cy="206.93" r="26.40" fill="#cccccc" stroke="#000000" stroke-width="1.00"/>
<circle cx="279.26" cy="290.12" r="26.40" fill="#cccccc" stroke="#000000" stroke-width="1.00"/>
<circle cx="218.00" cy="212.61" r="26.40" fill="#cccccc" stroke="#000000" stroke-width="1.00"/>
<circle cx="196.68" cy="164.31" r="26.40" fill="#cccccc" stroke="#000000" stroke-width="1.00"/>
<circle cx="295.26" cy="340.44" r="26.40" fill="#cccccc" stroke="#000000" stroke-width="1.00"/>
<circle cx="300.06" cy="189.49" r="26.40" fill="#cccccc" stroke="#000000" stroke-width="1.00"/>
<circle cx="348.06" cy="340.44" r="26.40" fill="#cccccc" stroke="#000000" stroke-width="1.00"/>
<circle cx="157.10" cy="298.87" r="26.40" fill="#cccccc" stroke="#000000" stroke-width="1.00"/>
<polygon points="15.84,366.84 384.16,366.84 272.55,15.84" fill="none" stroke="#000000" stroke-width="1.40"/>
</svg>