<svg xmlns="http://www.w3.org/2000/svg" width="720.0" height="690.4" viewBox="0 0 720.0 690.4">
<defs><clipPath id="inside"><polygon points="45.138,645.255 674.862,645.255 484.042,45.138"/></clipPath></defs>
<rect width="720.0" height="690.4" fill="white"/>
<circle cx="407.608" cy="226.108" r="45.138" fill="#e8a598" fill-opacity="0.65" stroke="#7b241c" stroke-width="1" clip-path="url(#inside)"/>
<circle cx="407.608" cy="226.108" r="1.4" fill="#7b241c"/>
<circle cx="337.482" cy="454.429" r="45.138" fill="#e8a598" fill-opacity="0.65" stroke="#7b241c" stroke-width="1" clip-path="url(#inside)"/>
<circle cx="337.482" cy="454.429" r="1.4" fill="#7b241c"/>
<circle cx="468.158" cy="428.054" r="45.138" fill="#e8a598" fill-opacity="0.65" stroke="#7b241c" stroke-width="1" clip-path="url(#inside)"/>
<circle cx="468.158" cy="428.054" r="1.4" fill="#7b241c"/>
<circle cx="432.593" cy="600.117" r="45.138" fill="#e8a598" fill-opacity="0.65" stroke="#7b241c" stroke-width="1" clip-path="url(#inside)"/>
<circle cx="432.593" cy="600.117" r="1.4" fill="#7b241c"/>
<circle cx="194.439" cy="517.577" r="45.138" fill="#e8a598" fill-opacity="0.65" stroke="#7b241c" stroke-width="1" clip-path="url(#inside)"/>
<circle cx="194.439" cy="517.577" r="1.4" fill="#7b241c"/>
<circle cx="405.238" cy="514.086" r="45.138" fill="#e8a598" fill-opacity="0.65" stroke="#7b241c" stroke-width="1" clip-path="url(#inside)"/>
<circle cx="405.238" cy="514.086" r="1.4" fill="#7b241c"/>
<circle cx="585.789" cy="514.086" r="45.138" fill="#e8a598" fill-opacity="0.65" stroke="#7b241c" stroke-width="1" clip-path="url(#inside)"/>
<circle cx="585.789" cy="514.086" r="1.4" fill="#7b241c"/>
<circle cx="231.002" cy="600.117" r="45.138" fill="#e8a598" fill-opacity="0.65" stroke="#7b241c" stroke-width="1" clip-path="url(#inside)"/>
<circle cx="231.002" cy="600.117" r="1.4" fill="#7b241c"/>
<circle cx="247.731" cy="444.710" r="45.138" fill="#e8a598" fill-opacity="0.65" stroke="#7b241c" stroke-width="1" clip-path="url(#inside)"/>
<circle cx="247.731" cy="444.710" r="1.4" fill="#7b241c"/>
<circle cx="497.347" cy="235.941" r="45.138" fill="#e8a598" fill-opacity="0.65" stroke="#7b241c" stroke-width="1" clip-path="url(#inside)"/>
<circle cx="497.347" cy="235.941" r="1.4" fill="#7b241c"/>
<circle cx="342.317" cy="600.117" r="45.138" fill="#e8a598" fill-opacity="0.65" stroke="#7b241c" stroke-width="1" clip-path="url(#inside)"/>
<circle cx="342.317" cy="600.117" r="1.4" fill="#7b241c"/>
<circle cx="461.771" cy="152.053" r="45.138" fill="#e8a598" fill-opacity="0.65" stroke="#7b241c" stroke-width="1" clip-path="url(#inside)"/>
<circle cx="461.771" cy="152.053" r="1.4" fill="#7b241c"/>
<circle cx="558.434" cy="428.054" r="45.138" fill="#e8a598" fill-opacity="0.65" stroke="#7b241c" stroke-width="1" clip-path="url(#inside)"/>
<circle cx="558.434" cy="428.054" r="1.4" fill="#7b241c"/>
<circle cx="134.159" cy="599.997" r="45.138" fill="#e8a598" fill-opacity="0.65" stroke="#7b241c" stroke-width="1" clip-path="url(#inside)"/>
<circle cx="134.159" cy="599.997" r="1.4" fill="#7b241c"/>
<circle cx="446.477" cy="310.520" r="45.138" fill="#e8a598" fill-opacity="0.65" stroke="#7b241c" stroke-width="1" clip-path="url(#inside)"/>
<circle cx="446.477" cy="310.520" r="1.4" fill="#7b241c"/>
<circle cx="301.024" cy="371.843" r="45.138" fill="#e8a598" fill-opacity="0.65" stroke="#7b241c" stroke-width="1" clip-path="url(#inside)"/>
<circle cx="301.024" cy="371.843" r="1.4" fill="#7b241c"/>
<circle cx="495.513" cy="514.086" r="45.138" fill="#e8a598" fill-opacity="0.65" stroke="#7b241c" stroke-width="1" clip-path="url(#inside)"/>
<circle cx="495.513" cy="514.086" r="1.4" fill="#7b241c"/>
<circle cx="390.775" cy="381.562" r="45.138" fill="#e8a598" fill-opacity="0.65" stroke="#7b241c" stroke-width="1" clip-path="url(#inside)"/>
<circle cx="390.775" cy="381.562" r="1.4" fill="#7b241c"/>
<circle cx="354.316" cy="298.975" r="45.138" fill="#e8a598" fill-opacity="0.65" stroke="#7b241c" stroke-width="1" clip-path="url(#inside)"/>
<circle cx="354.316" cy="298.975" r="1.4" fill="#7b241c"/>
<circle cx="522.869" cy="600.117" r="45.138" fill="#e8a598" fill-opacity="0.65" stroke="#7b241c" stroke-width="1" clip-path="url(#inside)"/>
<circle cx="522.869" cy="600.117" r="1.4" fill="#7b241c"/>
<circle cx="531.078" cy="342.023" r="45.138" fill="#e8a598" fill-opacity="0.65" stroke="#7b241c" stroke-width="1" clip-path="url(#inside)"/>
<circle cx="531.078" cy="342.023" r="1.4" fill="#7b241c"/>
<circle cx="613.145" cy="600.117" r="45.138" fill="#e8a598" fill-opacity="0.65" stroke="#7b241c" stroke-width="1" clip-path="url(#inside)"/>
<circle cx="613.145" cy="600.117" r="1.4" fill="#7b241c"/>
<circle cx="286.660" cy="529.040" r="45.138" fill="#e8a598" fill-opacity="0.65" stroke="#7b241c" stroke-width="1" clip-path="url(#inside)"/>
<circle cx="286.660" cy="529.040" r="1.4" fill="#7b241c"/>
<path d="M 485.488,36.279 L 680.417,649.317 L 37.134,649.317 L 485.488,36.279 Z M 674.862,645.255 L 484.042,45.138 L 45.138,645.255 L 674.862,645.255 Z" fill="#000000" fill-rule="evenodd"/>
<text x="6" y="16" font-family="sans-serif" font-size="13" fill="#222">circles in arbitrary triangle  n=23  area=92.74138</text>
</svg>