<svg xmlns="http://www.w3.org/2000/svg" width="445.3" height="720.0" viewBox="0 0 445.3 720.0">
<defs><clipPath id="inside"><polygon points="34.971,685.029 410.282,685.029 410.282,34.971"/></clipPath></defs>
<rect width="445.3" height="720.0" fill="white"/>
<circle cx="95.543" cy="650.058" r="34.971" fill="#e8a598" fill-opacity="0.65" stroke="#7b241c" stroke-width="1" clip-path="url(#inside)"/>
<circle cx="95.543" cy="650.058" r="1.4" fill="#7b241c"/>
<circle cx="165.485" cy="650.058" r="34.971" fill="#e8a598" fill-opacity="0.65" stroke="#7b241c" stroke-width="1" clip-path="url(#inside)"/>
<circle cx="165.485" cy="650.058" r="1.4" fill="#7b241c"/>
<circle cx="235.427" cy="650.058" r="34.971" fill="#e8a598" fill-opacity="0.65" stroke="#7b241c" stroke-width="1" clip-path="url(#inside)"/>
<circle cx="235.427" cy="650.058" r="1.4" fill="#7b241c"/>
<circle cx="305.369" cy="650.058" r="34.971" fill="#e8a598" fill-opacity="0.65" stroke="#7b241c" stroke-width="1" clip-path="url(#inside)"/>
<circle cx="305.369" cy="650.058" r="1.4" fill="#7b241c"/>
<circle cx="375.311" cy="650.058" r="34.971" fill="#e8a598" fill-opacity="0.65" stroke="#7b241c" stroke-width="1" clip-path="url(#inside)"/>
<circle cx="375.311" cy="650.058" r="1.4" fill="#7b241c"/>
<circle cx="130.514" cy="589.486" r="34.971" fill="#e8a598" fill-opacity="0.65" stroke="#7b241c" stroke-width="1" clip-path="url(#inside)"/>
<circle cx="130.514" cy="589.486" r="1.4" fill="#7b241c"/>
<circle cx="200.456" cy="589.486" r="34.971" fill="#e8a598" fill-opacity="0.65" stroke="#7b241c" stroke-width="1" clip-path="url(#inside)"/>
<circle cx="200.456" cy="589.486" r="1.4" fill="#7b241c"/>
<circle cx="270.398" cy="589.486" r="34.971" fill="#e8a598" fill-opacity="0.65" stroke="#7b241c" stroke-width="1" clip-path="url(#inside)"/>
<circle cx="270.398" cy="589.486" r="1.4" fill="#7b241c"/>
<circle cx="340.340" cy="589.486" r="34.971" fill="#e8a598" fill-opacity="0.65" stroke="#7b241c" stroke-width="1" clip-path="url(#inside)"/>
<circle cx="340.340" cy="589.486" r="1.4" fill="#7b241c"/>
<circle cx="165.485" cy="528.915" r="34.971" fill="#e8a598" fill-opacity="0.65" stroke="#7b241c" stroke-width="1" clip-path="url(#inside)"/>
<circle cx="165.485" cy="528.915" r="1.4" fill="#7b241c"/>
<circle cx="235.427" cy="528.915" r="34.971" fill="#e8a598" fill-opacity="0.65" stroke="#7b241c" stroke-width="1" clip-path="url(#inside)"/>
<circle cx="235.427" cy="528.915" r="1.4" fill="#7b241c"/>
<circle cx="305.369" cy="528.915" r="34.971" fill="#e8a598" fill-opacity="0.65" stroke="#7b241c" stroke-width="1" clip-path="url(#inside)"/>
<circle cx="305.369" cy="528.915" r="1.4" fill="#7b241c"/>
<circle cx="375.311" cy="528.915" r="34.971" fill="#e8a598" fill-opacity="0.65" stroke="#7b241c" stroke-width="1" clip-path="url(#inside)"/>
<circle cx="375.311" cy="528.915" r="1.4" fill="#7b241c"/>
<circle cx="200.456" cy="468.343" r="34.971" fill="#e8a598" fill-opacity="0.65" stroke="#7b241c" stroke-width="1" clip-path="url(#inside)"/>
<circle cx="200.456" cy="468.343" r="1.4" fill="#7b241c"/>
<circle cx="270.398" cy="468.343" r="34.971" fill="#e8a598" fill-opacity="0.65" stroke="#7b241c" stroke-width="1" clip-path="url(#inside)"/>
<circle cx="270.398" cy="468.343" r="1.4" fill="#7b241c"/>
<circle cx="340.340" cy="468.343" r="34.971" fill="#e8a598" fill-opacity="0.65" stroke="#7b241c" stroke-width="1" clip-path="url(#inside)"/>
<circle cx="340.340" cy="468.343" r="1.4" fill="#7b241c"/>
<circle cx="235.427" cy="407.771" r="34.971" fill="#e8a598" fill-opacity="0.65" stroke="#7b241c" stroke-width="1" clip-path="url(#inside)"/>
<circle cx="235.427" cy="407.771" r="1.4" fill="#7b241c"/>
<circle cx="305.369" cy="407.771" r="34.971" fill="#e8a598" fill-opacity="0.65" stroke="#7b241c" stroke-width="1" clip-path="url(#inside)"/>
<circle cx="305.369" cy="407.771" r="1.4" fill="#7b241c"/>
<circle cx="375.311" cy="407.771" r="34.971" fill="#e8a598" fill-opacity="0.65" stroke="#7b241c" stroke-width="1" clip-path="url(#inside)"/>
<circle cx="375.311" cy="407.771" r="1.4" fill="#7b241c"/>
<circle cx="270.398" cy="347.200" r="34.971" fill="#e8a598" fill-opacity="0.65" stroke="#7b241c" stroke-width="1" clip-path="url(#inside)"/>
<circle cx="270.398" cy="347.200" r="1.4" fill="#7b241c"/>
<circle cx="340.340" cy="347.200" r="34.971" fill="#e8a598" fill-opacity="0.65" stroke="#7b241c" stroke-width="1" clip-path="url(#inside)"/>
<circle cx="340.340" cy="347.200" r="1.4" fill="#7b241c"/>
<circle cx="305.369" cy="286.628" r="34.971" fill="#e8a598" fill-opacity="0.65" stroke="#7b241c" stroke-width="1" clip-path="url(#inside)"/>
<circle cx="305.369" cy="286.628" r="1.4" fill="#7b241c"/>
<circle cx="375.311" cy="286.628" r="34.971" fill="#e8a598" fill-opacity="0.65" stroke="#7b241c" stroke-width="1" clip-path="url(#inside)"/>
<circle cx="375.311" cy="286.628" r="1.4" fill="#7b241c"/>
<circle cx="340.340" cy="226.056" r="34.971" fill="#e8a598" fill-opacity="0.65" stroke="#7b241c" stroke-width="1" clip-path="url(#inside)"/>
<circle cx="340.340" cy="226.056" r="1.4" fill="#7b241c"/>
<circle cx="375.311" cy="165.485" r="34.971" fill="#e8a598" fill-opacity="0.65" stroke="#7b241c" stroke-width="1" clip-path="url(#inside)"/>
<circle cx="375.311" cy="165.485" r="1.4" fill="#7b241c"/>
<path d="M 413.430,23.225 L 413.430,688.176 L 29.520,688.176 L 413.430,23.225 Z M 410.282,685.029 L 410.282,34.971 L 34.971,685.029 L 410.282,685.029 Z" fill="#000000" fill-rule="evenodd"/>
<text x="6" y="16" font-family="sans-serif" font-size="13" fill="#222">circles in arbitrary triangle  n=25  area=99.74613</text>
</svg>