<svg xmlns="http://www.w3.org/2000/svg" width="720.0" height="616.9" viewBox="0 0 720.0 616.9">
<rect width="720.0" height="616.9" fill="white"/>
<polygon points="40.789,576.099 679.211,576.099 349.851,40.789 40.789,576.099" fill="none" stroke="#000000" stroke-width="2"/>
<circle cx="233.806" cy="323.363" r="40.789" fill="#e8a598" fill-opacity="0.65" stroke="#7b241c" stroke-width="1"/>
<circle cx="233.806" cy="323.363" r="1.4" fill="#7b241c"/>
<circle cx="193.017" cy="394.012" r="40.789" fill="#e8a598" fill-opacity="0.65" stroke="#7b241c" stroke-width="1"/>
<circle cx="193.017" cy="394.012" r="1.4" fill="#7b241c"/>
<circle cx="274.595" cy="252.714" r="40.789" fill="#e8a598" fill-opacity="0.65" stroke="#7b241c" stroke-width="1"/>
<circle cx="274.595" cy="252.714" r="1.4" fill="#7b241c"/>
<circle cx="437.752" cy="535.310" r="40.789" fill="#e8a598" fill-opacity="0.65" stroke="#7b241c" stroke-width="1"/>
<circle cx="437.752" cy="535.310" r="1.4" fill="#7b241c"/>
<circle cx="233.806" cy="464.661" r="40.789" fill="#e8a598" fill-opacity="0.65" stroke="#7b241c" stroke-width="1"/>
<circle cx="233.806" cy="464.661" r="1.4" fill="#7b241c"/>
<circle cx="519.331" cy="394.084" r="40.789" fill="#e8a598" fill-opacity="0.65" stroke="#7b241c" stroke-width="1"/>
<circle cx="519.331" cy="394.084" r="1.4" fill="#7b241c"/>
<circle cx="337.621" cy="200.918" r="40.789" fill="#e8a598" fill-opacity="0.65" stroke="#7b241c" stroke-width="1"/>
<circle cx="337.621" cy="200.918" r="1.4" fill="#7b241c"/>
<circle cx="437.752" cy="394.012" r="40.789" fill="#e8a598" fill-opacity="0.65" stroke="#7b241c" stroke-width="1"/>
<circle cx="437.752" cy="394.012" r="1.4" fill="#7b241c"/>
<circle cx="523.251" cy="535.310" r="40.789" fill="#e8a598" fill-opacity="0.65" stroke="#7b241c" stroke-width="1"/>
<circle cx="523.251" cy="535.310" r="1.4" fill="#7b241c"/>
<circle cx="356.174" cy="394.012" r="40.789" fill="#e8a598" fill-opacity="0.65" stroke="#7b241c" stroke-width="1"/>
<circle cx="356.174" cy="394.012" r="1.4" fill="#7b241c"/>
<circle cx="193.017" cy="535.310" r="40.789" fill="#e8a598" fill-opacity="0.65" stroke="#7b241c" stroke-width="1"/>
<circle cx="193.017" cy="535.310" r="1.4" fill="#7b241c"/>
<circle cx="274.595" cy="535.310" r="40.789" fill="#e8a598" fill-opacity="0.65" stroke="#7b241c" stroke-width="1"/>
<circle cx="274.595" cy="535.310" r="1.4" fill="#7b241c"/>
<circle cx="474.463" cy="321.160" r="40.789" fill="#e8a598" fill-opacity="0.65" stroke="#7b241c" stroke-width="1"/>
<circle cx="474.463" cy="321.160" r="1.4" fill="#7b241c"/>
<circle cx="350.965" cy="120.438" r="40.789" fill="#e8a598" fill-opacity="0.65" stroke="#7b241c" stroke-width="1"/>
<circle cx="350.965" cy="120.438" r="1.4" fill="#7b241c"/>
<circle cx="562.080" cy="463.565" r="40.789" fill="#e8a598" fill-opacity="0.65" stroke="#7b241c" stroke-width="1"/>
<circle cx="562.080" cy="463.565" r="1.4" fill="#7b241c"/>
<circle cx="356.174" cy="535.310" r="40.789" fill="#e8a598" fill-opacity="0.65" stroke="#7b241c" stroke-width="1"/>
<circle cx="356.174" cy="535.310" r="1.4" fill="#7b241c"/>
<circle cx="415.475" cy="225.287" r="40.789" fill="#e8a598" fill-opacity="0.65" stroke="#7b241c" stroke-width="1"/>
<circle cx="415.475" cy="225.287" r="1.4" fill="#7b241c"/>
<circle cx="111.438" cy="535.310" r="40.789" fill="#e8a598" fill-opacity="0.65" stroke="#7b241c" stroke-width="1"/>
<circle cx="111.438" cy="535.310" r="1.4" fill="#7b241c"/>
<circle cx="152.228" cy="464.661" r="40.789" fill="#e8a598" fill-opacity="0.65" stroke="#7b241c" stroke-width="1"/>
<circle cx="152.228" cy="464.661" r="1.4" fill="#7b241c"/>
<circle cx="396.963" cy="464.661" r="40.789" fill="#e8a598" fill-opacity="0.65" stroke="#7b241c" stroke-width="1"/>
<circle cx="396.963" cy="464.661" r="1.4" fill="#7b241c"/>
<circle cx="315.385" cy="323.363" r="40.789" fill="#e8a598" fill-opacity="0.65" stroke="#7b241c" stroke-width="1"/>
<circle cx="315.385" cy="323.363" r="1.4" fill="#7b241c"/>
<circle cx="480.502" cy="465.829" r="40.789" fill="#e8a598" fill-opacity="0.65" stroke="#7b241c" stroke-width="1"/>
<circle cx="480.502" cy="465.829" r="1.4" fill="#7b241c"/>
<circle cx="394.673" cy="304.169" r="40.789" fill="#e8a598" fill-opacity="0.65" stroke="#7b241c" stroke-width="1"/>
<circle cx="394.673" cy="304.169" r="1.4" fill="#7b241c"/>
<circle cx="274.595" cy="394.012" r="40.789" fill="#e8a598" fill-opacity="0.65" stroke="#7b241c" stroke-width="1"/>
<circle cx="274.595" cy="394.012" r="1.4" fill="#7b241c"/>
<circle cx="315.385" cy="464.661" r="40.789" fill="#e8a598" fill-opacity="0.65" stroke="#7b241c" stroke-width="1"/>
<circle cx="315.385" cy="464.661" r="1.4" fill="#7b241c"/>
<circle cx="605.479" cy="534.135" r="40.789" fill="#e8a598" fill-opacity="0.65" stroke="#7b241c" stroke-width="1"/>
<circle cx="605.479" cy="534.135" r="1.4" fill="#7b241c"/>
<text x="6" y="16" font-family="sans-serif" font-size="13" fill="#222">circles in arbitrary triangle  n=26  area=102.70487</text>
</svg>