<svg xmlns="http://www.w3.org/2000/svg" width="400.0" height="340.0" viewBox="0 0 400.0 340.0">
<rect width="400.0" height="340.0" fill="white"/>
<circle cx="126.56" cy="178.68" r="23.74" fill="#cccccc" stroke="#000000" stroke-width="1.00"/>
<circle cx="102.83" cy="219.79" r="23.74" fill="#cccccc" stroke="#000000" stroke-width="1.00"/>
<circle cx="150.30" cy="137.57" r="23.74" fill="#cccccc" stroke="#000000" stroke-width="1.00"/>
<circle cx="245.25" cy="302.02" r="23.74" fill="#cccccc" stroke="#000000" stroke-width="1.00"/>
<circle cx="126.56" cy="260.91" r="23.74" fill="#cccccc" stroke="#000000" stroke-width="1.00"/>
<circle cx="292.72" cy="219.83" r="23.74" fill="#cccccc" stroke="#000000" stroke-width="1.00"/>
<circle cx="186.98" cy="107.43" r="23.74" fill="#cccccc" stroke="#000000" stroke-width="1.00"/>
<circle cx="245.25" cy="219.79" r="23.74" fill="#cccccc" stroke="#000000" stroke-width="1.00"/>
<circle cx="295.00" cy="302.02" r="23.74" fill="#cccccc" stroke="#000000" stroke-width="1.00"/>
<circle cx="197.77" cy="219.79" r="23.74" fill="#cccccc" stroke="#000000" stroke-width="1.00"/>
<circle cx="102.83" cy="302.02" r="23.74" fill="#cccccc" stroke="#000000" stroke-width="1.00"/>
<circle cx="150.30" cy="302.02" r="23.74" fill="#cccccc" stroke="#000000" stroke-width="1.00"/>
<circle cx="266.61" cy="177.40" r="23.74" fill="#cccccc" stroke="#000000" stroke-width="1.00"/>
<circle cx="194.74" cy="60.59" r="23.74" fill="#cccccc" stroke="#000000" stroke-width="1.00"/>
<circle cx="317.60" cy="260.27" r="23.74" fill="#cccccc" stroke="#000000" stroke-width="1.00"/>
<circle cx="197.77" cy="302.02" r="23.74" fill="#cccccc" stroke="#000000" stroke-width="1.00"/>
<circle cx="232.28" cy="121.61" r="23.74" fill="#cccccc" stroke="#000000" stroke-width="1.00"/>
<circle cx="55.35" cy="302.02" r="23.74" fill="#cccccc" stroke="#000000" stroke-width="1.00"/>
<circle cx="79.09" cy="260.91" r="23.74" fill="#cccccc" stroke="#000000" stroke-width="1.00"/>
<circle cx="221.51" cy="260.91" r="23.74" fill="#cccccc" stroke="#000000" stroke-width="1.00"/>
<circle cx="174.04" cy="178.68" r="23.74" fill="#cccccc" stroke="#000000" stroke-width="1.00"/>
<circle cx="270.12" cy="261.59" r="23.74" fill="#cccccc" stroke="#000000" stroke-width="1.00"/>
<circle cx="220.18" cy="167.51" r="23.74" fill="#cccccc" stroke="#000000" stroke-width="1.00"/>
<circle cx="150.30" cy="219.79" r="23.74" fill="#cccccc" stroke="#000000" stroke-width="1.00"/>
<circle cx="174.04" cy="260.91" r="23.74" fill="#cccccc" stroke="#000000" stroke-width="1.00"/>
<circle cx="342.85" cy="301.33" r="23.74" fill="#cccccc" stroke="#000000" stroke-width="1.00"/>
<polygon points="14.24,325.75 385.76,325.75 194.09,14.24" fill="none" stroke="#000000" stroke-width="1.40"/>
</svg>