<svg xmlns="http://www.w3.org/2000/svg" width="720.0" height="624.0" viewBox="0 0 720.0 624.0">
<defs><clipPath id="inside"><polygon points="38.992,585.038 681.008,585.038 445.334,38.992"/></clipPath>
<mask id="outside"><rect width="720.0" height="624.0" fill="white"/><polygon points="38.992,585.038 681.008,585.038 445.334,38.992" fill="black"/></mask></defs>
<rect width="720.0" height="624.0" fill="white"/>
<circle cx="543.727" cy="546.046" r="38.992" fill="#e8a598" fill-opacity="0.65" stroke="#7b241c" stroke-width="1" clip-path="url(#inside)"/>
<circle cx="543.727" cy="546.046" r="1.4" fill="#7b241c"/>
<circle cx="296.630" cy="304.135" r="38.992" fill="#e8a598" fill-opacity="0.65" stroke="#7b241c" stroke-width="1" clip-path="url(#inside)"/>
<circle cx="296.630" cy="304.135" r="1.4" fill="#7b241c"/>
<circle cx="250.074" cy="366.697" r="38.992" fill="#e8a598" fill-opacity="0.65" stroke="#7b241c" stroke-width="1" clip-path="url(#inside)"/>
<circle cx="250.074" cy="366.697" r="1.4" fill="#7b241c"/>
<circle cx="389.741" cy="179.012" r="38.992" fill="#e8a598" fill-opacity="0.65" stroke="#7b241c" stroke-width="1" clip-path="url(#inside)"/>
<circle cx="389.741" cy="179.012" r="1.4" fill="#7b241c"/>
<circle cx="621.711" cy="546.046" r="38.992" fill="#e8a598" fill-opacity="0.65" stroke="#7b241c" stroke-width="1" clip-path="url(#inside)"/>
<circle cx="621.711" cy="546.046" r="1.4" fill="#7b241c"/>
<circle cx="343.186" cy="241.574" r="38.992" fill="#e8a598" fill-opacity="0.65" stroke="#7b241c" stroke-width="1" clip-path="url(#inside)"/>
<circle cx="343.186" cy="241.574" r="1.4" fill="#7b241c"/>
<circle cx="358.434" cy="447.334" r="38.992" fill="#e8a598" fill-opacity="0.65" stroke="#7b241c" stroke-width="1" clip-path="url(#inside)"/>
<circle cx="358.434" cy="447.334" r="1.4" fill="#7b241c"/>
<circle cx="436.297" cy="116.450" r="38.992" fill="#e8a598" fill-opacity="0.65" stroke="#7b241c" stroke-width="1" clip-path="url(#inside)"/>
<circle cx="436.297" cy="116.450" r="1.4" fill="#7b241c"/>
<circle cx="482.448" cy="393.810" r="38.992" fill="#e8a598" fill-opacity="0.65" stroke="#7b241c" stroke-width="1" clip-path="url(#inside)"/>
<circle cx="482.448" cy="393.810" r="1.4" fill="#7b241c"/>
<circle cx="327.532" cy="375.735" r="38.992" fill="#e8a598" fill-opacity="0.65" stroke="#7b241c" stroke-width="1" clip-path="url(#inside)"/>
<circle cx="327.532" cy="375.735" r="1.4" fill="#7b241c"/>
<circle cx="529.004" cy="331.248" r="38.992" fill="#e8a598" fill-opacity="0.65" stroke="#7b241c" stroke-width="1" clip-path="url(#inside)"/>
<circle cx="529.004" cy="331.248" r="1.4" fill="#7b241c"/>
<circle cx="320.061" cy="515.223" r="38.992" fill="#e8a598" fill-opacity="0.65" stroke="#7b241c" stroke-width="1" clip-path="url(#inside)"/>
<circle cx="320.061" cy="515.223" r="1.4" fill="#7b241c"/>
<circle cx="590.809" cy="474.447" r="38.992" fill="#e8a598" fill-opacity="0.65" stroke="#7b241c" stroke-width="1" clip-path="url(#inside)"/>
<circle cx="590.809" cy="474.447" r="1.4" fill="#7b241c"/>
<circle cx="451.546" cy="322.210" r="38.992" fill="#e8a598" fill-opacity="0.65" stroke="#7b241c" stroke-width="1" clip-path="url(#inside)"/>
<circle cx="451.546" cy="322.210" r="1.4" fill="#7b241c"/>
<circle cx="248.427" cy="546.046" r="38.992" fill="#e8a598" fill-opacity="0.65" stroke="#7b241c" stroke-width="1" clip-path="url(#inside)"/>
<circle cx="248.427" cy="546.046" r="1.4" fill="#7b241c"/>
<circle cx="374.088" cy="313.173" r="38.992" fill="#e8a598" fill-opacity="0.65" stroke="#7b241c" stroke-width="1" clip-path="url(#inside)"/>
<circle cx="374.088" cy="313.173" r="1.4" fill="#7b241c"/>
<circle cx="404.990" cy="384.772" r="38.992" fill="#e8a598" fill-opacity="0.65" stroke="#7b241c" stroke-width="1" clip-path="url(#inside)"/>
<circle cx="404.990" cy="384.772" r="1.4" fill="#7b241c"/>
<circle cx="498.102" cy="259.649" r="38.992" fill="#e8a598" fill-opacity="0.65" stroke="#7b241c" stroke-width="1" clip-path="url(#inside)"/>
<circle cx="498.102" cy="259.649" r="1.4" fill="#7b241c"/>
<circle cx="203.518" cy="429.259" r="38.992" fill="#e8a598" fill-opacity="0.65" stroke="#7b241c" stroke-width="1" clip-path="url(#inside)"/>
<circle cx="203.518" cy="429.259" r="1.4" fill="#7b241c"/>
<circle cx="280.976" cy="438.297" r="38.992" fill="#e8a598" fill-opacity="0.65" stroke="#7b241c" stroke-width="1" clip-path="url(#inside)"/>
<circle cx="280.976" cy="438.297" r="1.4" fill="#7b241c"/>
<circle cx="467.711" cy="528.642" r="38.992" fill="#e8a598" fill-opacity="0.65" stroke="#7b241c" stroke-width="1" clip-path="url(#inside)"/>
<circle cx="467.711" cy="528.642" r="1.4" fill="#7b241c"/>
<circle cx="420.644" cy="250.611" r="38.992" fill="#e8a598" fill-opacity="0.65" stroke="#7b241c" stroke-width="1" clip-path="url(#inside)"/>
<circle cx="420.644" cy="250.611" r="1.4" fill="#7b241c"/>
<circle cx="467.199" cy="188.049" r="38.992" fill="#e8a598" fill-opacity="0.65" stroke="#7b241c" stroke-width="1" clip-path="url(#inside)"/>
<circle cx="467.199" cy="188.049" r="1.4" fill="#7b241c"/>
<circle cx="513.351" cy="465.409" r="38.992" fill="#e8a598" fill-opacity="0.65" stroke="#7b241c" stroke-width="1" clip-path="url(#inside)"/>
<circle cx="513.351" cy="465.409" r="1.4" fill="#7b241c"/>
<circle cx="435.752" cy="457.508" r="38.992" fill="#e8a598" fill-opacity="0.65" stroke="#7b241c" stroke-width="1" clip-path="url(#inside)"/>
<circle cx="435.752" cy="457.508" r="1.4" fill="#7b241c"/>
<circle cx="391.694" cy="546.046" r="38.992" fill="#e8a598" fill-opacity="0.65" stroke="#7b241c" stroke-width="1" clip-path="url(#inside)"/>
<circle cx="391.694" cy="546.046" r="1.4" fill="#7b241c"/>
<circle cx="116.611" cy="546.046" r="38.992" fill="#e8a598" fill-opacity="0.65" stroke="#7b241c" stroke-width="1" clip-path="url(#inside)"/>
<circle cx="116.611" cy="546.046" r="1.4" fill="#7b241c"/>
<circle cx="559.906" cy="402.847" r="38.992" fill="#e8a598" fill-opacity="0.65" stroke="#7b241c" stroke-width="1" clip-path="url(#inside)"/>
<circle cx="559.906" cy="402.847" r="1.4" fill="#7b241c"/>
<circle cx="182.519" cy="504.362" r="38.992" fill="#e8a598" fill-opacity="0.65" stroke="#7b241c" stroke-width="1" clip-path="url(#inside)"/>
<circle cx="182.519" cy="504.362" r="1.4" fill="#7b241c"/>
<polygon points="38.992,585.038 681.008,585.038 445.334,38.992" fill="none" stroke="#000000" stroke-width="3" mask="url(#outside)"/>
<text x="6" y="16" font-family="sans-serif" font-size="13" fill="#222">circles in arbitrary triangle  n=29  area=115.29224</text>
</svg>