<svg xmlns="http://www.w3.org/2000/svg" width="720.0" height="544.5" viewBox="0 0 720.0 544.5">
<rect width="720.0" height="544.5" fill="white"/>
<polygon points="35.902,508.565 684.098,508.565 411.206,35.902 35.902,508.565" fill="none" stroke="#000000" stroke-width="2"/>
<circle cx="370.601" cy="161.744" r="35.902" fill="#e8a598" fill-opacity="0.65" stroke="#7b241c" stroke-width="1"/>
<circle cx="370.601" cy="161.744" r="1.4" fill="#7b241c"/>
<circle cx="442.405" cy="161.744" r="35.902" fill="#e8a598" fill-opacity="0.65" stroke="#7b241c" stroke-width="1"/>
<circle cx="442.405" cy="161.744" r="1.4" fill="#7b241c"/>
<circle cx="442.405" cy="410.479" r="35.902" fill="#e8a598" fill-opacity="0.65" stroke="#7b241c" stroke-width="1"/>
<circle cx="442.405" cy="410.479" r="1.4" fill="#7b241c"/>
<circle cx="262.896" cy="472.663" r="35.902" fill="#e8a598" fill-opacity="0.65" stroke="#7b241c" stroke-width="1"/>
<circle cx="262.896" cy="472.663" r="1.4" fill="#7b241c"/>
<circle cx="370.601" cy="410.479" r="35.902" fill="#e8a598" fill-opacity="0.65" stroke="#7b241c" stroke-width="1"/>
<circle cx="370.601" cy="410.479" r="1.4" fill="#7b241c"/>
<circle cx="586.012" cy="410.479" r="35.902" fill="#e8a598" fill-opacity="0.65" stroke="#7b241c" stroke-width="1"/>
<circle cx="586.012" cy="410.479" r="1.4" fill="#7b241c"/>
<circle cx="298.797" cy="410.479" r="35.902" fill="#e8a598" fill-opacity="0.65" stroke="#7b241c" stroke-width="1"/>
<circle cx="298.797" cy="410.479" r="1.4" fill="#7b241c"/>
<circle cx="318.172" cy="210.805" r="35.902" fill="#e8a598" fill-opacity="0.65" stroke="#7b241c" stroke-width="1"/>
<circle cx="318.172" cy="210.805" r="1.4" fill="#7b241c"/>
<circle cx="621.914" cy="472.663" r="35.902" fill="#e8a598" fill-opacity="0.65" stroke="#7b241c" stroke-width="1"/>
<circle cx="621.914" cy="472.663" r="1.4" fill="#7b241c"/>
<circle cx="478.307" cy="348.296" r="35.902" fill="#e8a598" fill-opacity="0.65" stroke="#7b241c" stroke-width="1"/>
<circle cx="478.307" cy="348.296" r="1.4" fill="#7b241c"/>
<circle cx="334.699" cy="472.663" r="35.902" fill="#e8a598" fill-opacity="0.65" stroke="#7b241c" stroke-width="1"/>
<circle cx="334.699" cy="472.663" r="1.4" fill="#7b241c"/>
<circle cx="370.601" cy="286.112" r="35.902" fill="#e8a598" fill-opacity="0.65" stroke="#7b241c" stroke-width="1"/>
<circle cx="370.601" cy="286.112" r="1.4" fill="#7b241c"/>
<circle cx="514.209" cy="286.112" r="35.902" fill="#e8a598" fill-opacity="0.65" stroke="#7b241c" stroke-width="1"/>
<circle cx="514.209" cy="286.112" r="1.4" fill="#7b241c"/>
<circle cx="478.307" cy="472.663" r="35.902" fill="#e8a598" fill-opacity="0.65" stroke="#7b241c" stroke-width="1"/>
<circle cx="478.307" cy="472.663" r="1.4" fill="#7b241c"/>
<circle cx="406.503" cy="348.296" r="35.902" fill="#e8a598" fill-opacity="0.65" stroke="#7b241c" stroke-width="1"/>
<circle cx="406.503" cy="348.296" r="1.4" fill="#7b241c"/>
<circle cx="550.111" cy="472.663" r="35.902" fill="#e8a598" fill-opacity="0.65" stroke="#7b241c" stroke-width="1"/>
<circle cx="550.111" cy="472.663" r="1.4" fill="#7b241c"/>
<circle cx="113.932" cy="472.663" r="35.902" fill="#e8a598" fill-opacity="0.65" stroke="#7b241c" stroke-width="1"/>
<circle cx="113.932" cy="472.663" r="1.4" fill="#7b241c"/>
<circle cx="550.111" cy="348.296" r="35.902" fill="#e8a598" fill-opacity="0.65" stroke="#7b241c" stroke-width="1"/>
<circle cx="550.111" cy="348.296" r="1.4" fill="#7b241c"/>
<circle cx="406.503" cy="99.560" r="35.902" fill="#e8a598" fill-opacity="0.65" stroke="#7b241c" stroke-width="1"/>
<circle cx="406.503" cy="99.560" r="1.4" fill="#7b241c"/>
<circle cx="406.503" cy="472.663" r="35.902" fill="#e8a598" fill-opacity="0.65" stroke="#7b241c" stroke-width="1"/>
<circle cx="406.503" cy="472.663" r="1.4" fill="#7b241c"/>
<circle cx="231.305" cy="385.974" r="35.902" fill="#e8a598" fill-opacity="0.65" stroke="#7b241c" stroke-width="1"/>
<circle cx="231.305" cy="385.974" r="1.4" fill="#7b241c"/>
<circle cx="235.978" cy="314.322" r="35.902" fill="#e8a598" fill-opacity="0.65" stroke="#7b241c" stroke-width="1"/>
<circle cx="235.978" cy="314.322" r="1.4" fill="#7b241c"/>
<circle cx="299.056" cy="280.018" r="35.902" fill="#e8a598" fill-opacity="0.65" stroke="#7b241c" stroke-width="1"/>
<circle cx="299.056" cy="280.018" r="1.4" fill="#7b241c"/>
<circle cx="406.503" cy="223.928" r="35.902" fill="#e8a598" fill-opacity="0.65" stroke="#7b241c" stroke-width="1"/>
<circle cx="406.503" cy="223.928" r="1.4" fill="#7b241c"/>
<circle cx="442.405" cy="286.112" r="35.902" fill="#e8a598" fill-opacity="0.65" stroke="#7b241c" stroke-width="1"/>
<circle cx="442.405" cy="286.112" r="1.4" fill="#7b241c"/>
<circle cx="514.209" cy="410.479" r="35.902" fill="#e8a598" fill-opacity="0.65" stroke="#7b241c" stroke-width="1"/>
<circle cx="514.209" cy="410.479" r="1.4" fill="#7b241c"/>
<circle cx="162.577" cy="406.764" r="35.902" fill="#e8a598" fill-opacity="0.65" stroke="#7b241c" stroke-width="1"/>
<circle cx="162.577" cy="406.764" r="1.4" fill="#7b241c"/>
<circle cx="329.845" cy="345.346" r="35.902" fill="#e8a598" fill-opacity="0.65" stroke="#7b241c" stroke-width="1"/>
<circle cx="329.845" cy="345.346" r="1.4" fill="#7b241c"/>
<circle cx="478.307" cy="223.928" r="35.902" fill="#e8a598" fill-opacity="0.65" stroke="#7b241c" stroke-width="1"/>
<circle cx="478.307" cy="223.928" r="1.4" fill="#7b241c"/>
<circle cx="191.092" cy="472.663" r="35.902" fill="#e8a598" fill-opacity="0.65" stroke="#7b241c" stroke-width="1"/>
<circle cx="191.092" cy="472.663" r="1.4" fill="#7b241c"/>
<text x="6" y="16" font-family="sans-serif" font-size="13" fill="#222">circles in arbitrary triangle  n=30  area=118.84862</text>
</svg>