<svg xmlns="http://www.w3.org/2000/svg" width="400.0" height="298.4" viewBox="0 0 400.0 298.4">
<rect width="400.0" height="298.4" fill="white"/>
<circle cx="206.13" cy="85.28" r="20.77" fill="#cccccc" stroke="#000000" stroke-width="1.00"/>
<circle cx="247.68" cy="85.28" r="20.77" fill="#cccccc" stroke="#000000" stroke-width="1.00"/>
<circle cx="247.68" cy="229.21" r="20.77" fill="#cccccc" stroke="#000000" stroke-width="1.00"/>
<circle cx="143.81" cy="265.19" r="20.77" fill="#cccccc" stroke="#000000" stroke-width="1.00"/>
<circle cx="206.13" cy="229.21" r="20.77" fill="#cccccc" stroke="#000000" stroke-width="1.00"/>
<circle cx="330.78" cy="229.21" r="20.77" fill="#cccccc" stroke="#000000" stroke-width="1.00"/>
<circle cx="164.59" cy="229.21" r="20.77" fill="#cccccc" stroke="#000000" stroke-width="1.00"/>
<circle cx="175.80" cy="113.67" r="20.77" fill="#cccccc" stroke="#000000" stroke-width="1.00"/>
<circle cx="351.55" cy="265.19" r="20.77" fill="#cccccc" stroke="#000000" stroke-width="1.00"/>
<circle cx="268.46" cy="193.23" r="20.77" fill="#cccccc" stroke="#000000" stroke-width="1.00"/>
<circle cx="185.36" cy="265.19" r="20.77" fill="#cccccc" stroke="#000000" stroke-width="1.00"/>
<circle cx="206.13" cy="157.25" r="20.77" fill="#cccccc" stroke="#000000" stroke-width="1.00"/>
<circle cx="289.23" cy="157.25" r="20.77" fill="#cccccc" stroke="#000000" stroke-width="1.00"/>
<circle cx="268.46" cy="265.19" r="20.77" fill="#cccccc" stroke="#000000" stroke-width="1.00"/>
<circle cx="226.91" cy="193.23" r="20.77" fill="#cccccc" stroke="#000000" stroke-width="1.00"/>
<circle cx="310.01" cy="265.19" r="20.77" fill="#cccccc" stroke="#000000" stroke-width="1.00"/>
<circle cx="57.62" cy="265.19" r="20.77" fill="#cccccc" stroke="#000000" stroke-width="1.00"/>
<circle cx="310.01" cy="193.23" r="20.77" fill="#cccccc" stroke="#000000" stroke-width="1.00"/>
<circle cx="226.91" cy="49.30" r="20.77" fill="#cccccc" stroke="#000000" stroke-width="1.00"/>
<circle cx="226.91" cy="265.19" r="20.77" fill="#cccccc" stroke="#000000" stroke-width="1.00"/>
<circle cx="125.53" cy="215.03" r="20.77" fill="#cccccc" stroke="#000000" stroke-width="1.00"/>
<circle cx="128.24" cy="173.57" r="20.77" fill="#cccccc" stroke="#000000" stroke-width="1.00"/>
<circle cx="164.74" cy="153.72" r="20.77" fill="#cccccc" stroke="#000000" stroke-width="1.00"/>
<circle cx="226.91" cy="121.26" r="20.77" fill="#cccccc" stroke="#000000" stroke-width="1.00"/>
<circle cx="247.68" cy="157.25" r="20.77" fill="#cccccc" stroke="#000000" stroke-width="1.00"/>
<circle cx="289.23" cy="229.21" r="20.77" fill="#cccccc" stroke="#000000" stroke-width="1.00"/>
<circle cx="85.76" cy="227.06" r="20.77" fill="#cccccc" stroke="#000000" stroke-width="1.00"/>
<circle cx="182.55" cy="191.52" r="20.77" fill="#cccccc" stroke="#000000" stroke-width="1.00"/>
<circle cx="268.46" cy="121.26" r="20.77" fill="#cccccc" stroke="#000000" stroke-width="1.00"/>
<circle cx="102.26" cy="265.19" r="20.77" fill="#cccccc" stroke="#000000" stroke-width="1.00"/>
<polygon points="12.46,285.97 387.54,285.97 229.63,12.46" fill="none" stroke="#000000" stroke-width="1.40"/>
</svg>