<svg xmlns="http://www.w3.org/2000/svg" width="400.0" height="345.4" viewBox="0 0 400.0 345.4">
<rect width="400.0" height="345.4" fill="white"/>
<circle cx="274.04" cy="273.08" r="21.68" fill="#cccccc" stroke="#000000" stroke-width="1.00"/>
<circle cx="219.17" cy="201.17" r="21.68" fill="#cccccc" stroke="#000000" stroke-width="1.00"/>
<circle cx="186.16" cy="91.30" r="21.68" fill="#cccccc" stroke="#000000" stroke-width="1.00"/>
<circle cx="89.76" cy="214.38" r="21.68" fill="#cccccc" stroke="#000000" stroke-width="1.00"/>
<circle cx="143.03" cy="95.70" r="21.68" fill="#cccccc" stroke="#000000" stroke-width="1.00"/>
<circle cx="317.40" cy="273.08" r="21.68" fill="#cccccc" stroke="#000000" stroke-width="1.00"/>
<circle cx="176.03" cy="205.57" r="21.68" fill="#cccccc" stroke="#000000" stroke-width="1.00"/>
<circle cx="236.92" cy="161.61" r="21.68" fill="#cccccc" stroke="#000000" stroke-width="1.00"/>
<circle cx="168.41" cy="130.86" r="21.68" fill="#cccccc" stroke="#000000" stroke-width="1.00"/>
<circle cx="127.06" cy="310.75" r="21.68" fill="#cccccc" stroke="#000000" stroke-width="1.00"/>
<circle cx="115.08" cy="258.88" r="21.68" fill="#cccccc" stroke="#000000" stroke-width="1.00"/>
<circle cx="72.00" cy="253.94" r="21.68" fill="#cccccc" stroke="#000000" stroke-width="1.00"/>
<circle cx="46.50" cy="310.75" r="21.68" fill="#cccccc" stroke="#000000" stroke-width="1.00"/>
<circle cx="201.02" cy="310.75" r="21.68" fill="#cccccc" stroke="#000000" stroke-width="1.00"/>
<circle cx="158.28" cy="245.13" r="21.68" fill="#cccccc" stroke="#000000" stroke-width="1.00"/>
<circle cx="340.81" cy="309.58" r="21.68" fill="#cccccc" stroke="#000000" stroke-width="1.00"/>
<circle cx="226.80" cy="275.89" r="21.68" fill="#cccccc" stroke="#000000" stroke-width="1.00"/>
<circle cx="107.51" cy="174.82" r="21.68" fill="#cccccc" stroke="#000000" stroke-width="1.00"/>
<circle cx="287.69" cy="231.92" r="21.68" fill="#cccccc" stroke="#000000" stroke-width="1.00"/>
<circle cx="160.78" cy="56.14" r="21.68" fill="#cccccc" stroke="#000000" stroke-width="1.00"/>
<circle cx="150.65" cy="170.42" r="21.68" fill="#cccccc" stroke="#000000" stroke-width="1.00"/>
<circle cx="252.57" cy="310.75" r="21.68" fill="#cccccc" stroke="#000000" stroke-width="1.00"/>
<circle cx="164.04" cy="288.11" r="21.68" fill="#cccccc" stroke="#000000" stroke-width="1.00"/>
<circle cx="201.41" cy="240.73" r="21.68" fill="#cccccc" stroke="#000000" stroke-width="1.00"/>
<circle cx="193.79" cy="166.02" r="21.68" fill="#cccccc" stroke="#000000" stroke-width="1.00"/>
<circle cx="86.78" cy="294.70" r="21.68" fill="#cccccc" stroke="#000000" stroke-width="1.00"/>
<circle cx="132.90" cy="209.98" r="21.68" fill="#cccccc" stroke="#000000" stroke-width="1.00"/>
<circle cx="211.54" cy="126.46" r="21.68" fill="#cccccc" stroke="#000000" stroke-width="1.00"/>
<circle cx="244.55" cy="236.33" r="21.68" fill="#cccccc" stroke="#000000" stroke-width="1.00"/>
<circle cx="262.31" cy="196.77" r="21.68" fill="#cccccc" stroke="#000000" stroke-width="1.00"/>
<circle cx="125.27" cy="135.26" r="21.68" fill="#cccccc" stroke="#000000" stroke-width="1.00"/>
<circle cx="295.93" cy="310.75" r="21.68" fill="#cccccc" stroke="#000000" stroke-width="1.00"/>
<polygon points="13.01,332.44 386.99,332.44 156.38,13.01" fill="none" stroke="#000000" stroke-width="1.40"/>
</svg>