<svg xmlns="http://www.w3.org/2000/svg" width="720.0" height="625.9" viewBox="0 0 720.0 625.9">
<defs><clipPath id="inside"><polygon points="37.403,588.476 682.597,588.476 284.743,37.403"/></clipPath>
<mask id="outside"><rect width="720.0" height="625.9" fill="white"/><polygon points="37.403,588.476 682.597,588.476 284.743,37.403" fill="black"/></mask></defs>
<rect width="720.0" height="625.9" fill="white"/>
<circle cx="487.734" cy="486.081" r="37.403" fill="#e8a598" fill-opacity="0.65" stroke="#7b241c" stroke-width="1" clip-path="url(#inside)"/>
<circle cx="487.734" cy="486.081" r="1.4" fill="#7b241c"/>
<circle cx="393.070" cy="362.022" r="37.403" fill="#e8a598" fill-opacity="0.65" stroke="#7b241c" stroke-width="1" clip-path="url(#inside)"/>
<circle cx="393.070" cy="362.022" r="1.4" fill="#7b241c"/>
<circle cx="336.126" cy="172.473" r="37.403" fill="#e8a598" fill-opacity="0.65" stroke="#7b241c" stroke-width="1" clip-path="url(#inside)"/>
<circle cx="336.126" cy="172.473" r="1.4" fill="#7b241c"/>
<circle cx="169.813" cy="384.809" r="37.403" fill="#e8a598" fill-opacity="0.65" stroke="#7b241c" stroke-width="1" clip-path="url(#inside)"/>
<circle cx="169.813" cy="384.809" r="1.4" fill="#7b241c"/>
<circle cx="261.707" cy="180.069" r="37.403" fill="#e8a598" fill-opacity="0.65" stroke="#7b241c" stroke-width="1" clip-path="url(#inside)"/>
<circle cx="261.707" cy="180.069" r="1.4" fill="#7b241c"/>
<circle cx="562.540" cy="486.081" r="37.403" fill="#e8a598" fill-opacity="0.65" stroke="#7b241c" stroke-width="1" clip-path="url(#inside)"/>
<circle cx="562.540" cy="486.081" r="1.4" fill="#7b241c"/>
<circle cx="318.651" cy="369.617" r="37.403" fill="#e8a598" fill-opacity="0.65" stroke="#7b241c" stroke-width="1" clip-path="url(#inside)"/>
<circle cx="318.651" cy="369.617" r="1.4" fill="#7b241c"/>
<circle cx="423.702" cy="293.775" r="37.403" fill="#e8a598" fill-opacity="0.65" stroke="#7b241c" stroke-width="1" clip-path="url(#inside)"/>
<circle cx="423.702" cy="293.775" r="1.4" fill="#7b241c"/>
<circle cx="305.495" cy="240.720" r="37.403" fill="#e8a598" fill-opacity="0.65" stroke="#7b241c" stroke-width="1" clip-path="url(#inside)"/>
<circle cx="305.495" cy="240.720" r="1.4" fill="#7b241c"/>
<circle cx="234.171" cy="551.073" r="37.403" fill="#e8a598" fill-opacity="0.65" stroke="#7b241c" stroke-width="1" clip-path="url(#inside)"/>
<circle cx="234.171" cy="551.073" r="1.4" fill="#7b241c"/>
<circle cx="213.501" cy="461.572" r="37.403" fill="#e8a598" fill-opacity="0.65" stroke="#7b241c" stroke-width="1" clip-path="url(#inside)"/>
<circle cx="213.501" cy="461.572" r="1.4" fill="#7b241c"/>
<circle cx="139.182" cy="453.056" r="37.403" fill="#e8a598" fill-opacity="0.65" stroke="#7b241c" stroke-width="1" clip-path="url(#inside)"/>
<circle cx="139.182" cy="453.056" r="1.4" fill="#7b241c"/>
<circle cx="95.188" cy="551.073" r="37.403" fill="#e8a598" fill-opacity="0.65" stroke="#7b241c" stroke-width="1" clip-path="url(#inside)"/>
<circle cx="95.188" cy="551.073" r="1.4" fill="#7b241c"/>
<circle cx="361.759" cy="551.073" r="37.403" fill="#e8a598" fill-opacity="0.65" stroke="#7b241c" stroke-width="1" clip-path="url(#inside)"/>
<circle cx="361.759" cy="551.073" r="1.4" fill="#7b241c"/>
<circle cx="288.020" cy="437.864" r="37.403" fill="#e8a598" fill-opacity="0.65" stroke="#7b241c" stroke-width="1" clip-path="url(#inside)"/>
<circle cx="288.020" cy="437.864" r="1.4" fill="#7b241c"/>
<circle cx="602.918" cy="549.053" r="37.403" fill="#e8a598" fill-opacity="0.65" stroke="#7b241c" stroke-width="1" clip-path="url(#inside)"/>
<circle cx="602.918" cy="549.053" r="1.4" fill="#7b241c"/>
<circle cx="406.227" cy="490.919" r="37.403" fill="#e8a598" fill-opacity="0.65" stroke="#7b241c" stroke-width="1" clip-path="url(#inside)"/>
<circle cx="406.227" cy="490.919" r="1.4" fill="#7b241c"/>
<circle cx="200.444" cy="316.562" r="37.403" fill="#e8a598" fill-opacity="0.65" stroke="#7b241c" stroke-width="1" clip-path="url(#inside)"/>
<circle cx="200.444" cy="316.562" r="1.4" fill="#7b241c"/>
<circle cx="511.277" cy="415.077" r="37.403" fill="#e8a598" fill-opacity="0.65" stroke="#7b241c" stroke-width="1" clip-path="url(#inside)"/>
<circle cx="511.277" cy="415.077" r="1.4" fill="#7b241c"/>
<circle cx="292.339" cy="111.822" r="37.403" fill="#e8a598" fill-opacity="0.65" stroke="#7b241c" stroke-width="1" clip-path="url(#inside)"/>
<circle cx="292.339" cy="111.822" r="1.4" fill="#7b241c"/>
<circle cx="274.863" cy="308.966" r="37.403" fill="#e8a598" fill-opacity="0.65" stroke="#7b241c" stroke-width="1" clip-path="url(#inside)"/>
<circle cx="274.863" cy="308.966" r="1.4" fill="#7b241c"/>
<circle cx="450.695" cy="551.073" r="37.403" fill="#e8a598" fill-opacity="0.65" stroke="#7b241c" stroke-width="1" clip-path="url(#inside)"/>
<circle cx="450.695" cy="551.073" r="1.4" fill="#7b241c"/>
<circle cx="297.965" cy="512.006" r="37.403" fill="#e8a598" fill-opacity="0.65" stroke="#7b241c" stroke-width="1" clip-path="url(#inside)"/>
<circle cx="297.965" cy="512.006" r="1.4" fill="#7b241c"/>
<circle cx="362.439" cy="430.268" r="37.403" fill="#e8a598" fill-opacity="0.65" stroke="#7b241c" stroke-width="1" clip-path="url(#inside)"/>
<circle cx="362.439" cy="430.268" r="1.4" fill="#7b241c"/>
<circle cx="349.283" cy="301.371" r="37.403" fill="#e8a598" fill-opacity="0.65" stroke="#7b241c" stroke-width="1" clip-path="url(#inside)"/>
<circle cx="349.283" cy="301.371" r="1.4" fill="#7b241c"/>
<circle cx="164.680" cy="523.382" r="37.403" fill="#e8a598" fill-opacity="0.65" stroke="#7b241c" stroke-width="1" clip-path="url(#inside)"/>
<circle cx="164.680" cy="523.382" r="1.4" fill="#7b241c"/>
<circle cx="244.232" cy="377.213" r="37.403" fill="#e8a598" fill-opacity="0.65" stroke="#7b241c" stroke-width="1" clip-path="url(#inside)"/>
<circle cx="244.232" cy="377.213" r="1.4" fill="#7b241c"/>
<circle cx="379.914" cy="233.124" r="37.403" fill="#e8a598" fill-opacity="0.65" stroke="#7b241c" stroke-width="1" clip-path="url(#inside)"/>
<circle cx="379.914" cy="233.124" r="1.4" fill="#7b241c"/>
<circle cx="436.858" cy="422.672" r="37.403" fill="#e8a598" fill-opacity="0.65" stroke="#7b241c" stroke-width="1" clip-path="url(#inside)"/>
<circle cx="436.858" cy="422.672" r="1.4" fill="#7b241c"/>
<circle cx="467.489" cy="354.426" r="37.403" fill="#e8a598" fill-opacity="0.65" stroke="#7b241c" stroke-width="1" clip-path="url(#inside)"/>
<circle cx="467.489" cy="354.426" r="1.4" fill="#7b241c"/>
<circle cx="231.076" cy="248.315" r="37.403" fill="#e8a598" fill-opacity="0.65" stroke="#7b241c" stroke-width="1" clip-path="url(#inside)"/>
<circle cx="231.076" cy="248.315" r="1.4" fill="#7b241c"/>
<circle cx="525.500" cy="551.073" r="37.403" fill="#e8a598" fill-opacity="0.65" stroke="#7b241c" stroke-width="1" clip-path="url(#inside)"/>
<circle cx="525.500" cy="551.073" r="1.4" fill="#7b241c"/>
<polygon points="37.403,588.476 682.597,588.476 284.743,37.403" fill="none" stroke="#000000" stroke-width="3" mask="url(#outside)"/>
<text x="6" y="16" font-family="sans-serif" font-size="13" fill="#222">circles in arbitrary triangle  n=32  area=127.07490</text>
</svg>