<svg xmlns="http://www.w3.org/2000/svg" width="400.0" height="329.5" viewBox="0 0 400.0 329.5">
<rect width="400.0" height="329.5" fill="white"/>
<circle cx="175.04" cy="295.90" r="21.01" fill="#cccccc" stroke="#000000" stroke-width="1.00"/>
<circle cx="112.02" cy="186.74" r="21.01" fill="#cccccc" stroke="#000000" stroke-width="1.00"/>
<circle cx="189.41" cy="52.69" r="21.01" fill="#cccccc" stroke="#000000" stroke-width="1.00"/>
<circle cx="196.05" cy="259.52" r="21.01" fill="#cccccc" stroke="#000000" stroke-width="1.00"/>
<circle cx="91.01" cy="295.90" r="21.01" fill="#cccccc" stroke="#000000" stroke-width="1.00"/>
<circle cx="300.99" cy="223.22" r="21.01" fill="#cccccc" stroke="#000000" stroke-width="1.00"/>
<circle cx="48.99" cy="295.90" r="21.01" fill="#cccccc" stroke="#000000" stroke-width="1.00"/>
<circle cx="282.06" cy="260.73" r="21.01" fill="#cccccc" stroke="#000000" stroke-width="1.00"/>
<circle cx="168.41" cy="89.07" r="21.01" fill="#cccccc" stroke="#000000" stroke-width="1.00"/>
<circle cx="191.35" cy="167.43" r="21.01" fill="#cccccc" stroke="#000000" stroke-width="1.00"/>
<circle cx="250.87" cy="146.62" r="21.01" fill="#cccccc" stroke="#000000" stroke-width="1.00"/>
<circle cx="273.88" cy="181.78" r="21.01" fill="#cccccc" stroke="#000000" stroke-width="1.00"/>
<circle cx="212.34" cy="129.86" r="21.01" fill="#cccccc" stroke="#000000" stroke-width="1.00"/>
<circle cx="230.28" cy="183.25" r="21.01" fill="#cccccc" stroke="#000000" stroke-width="1.00"/>
<circle cx="259.08" cy="295.90" r="21.01" fill="#cccccc" stroke="#000000" stroke-width="1.00"/>
<circle cx="170.34" cy="131.04" r="21.01" fill="#cccccc" stroke="#000000" stroke-width="1.00"/>
<circle cx="154.03" cy="186.74" r="21.01" fill="#cccccc" stroke="#000000" stroke-width="1.00"/>
<circle cx="324.01" cy="258.41" r="21.01" fill="#cccccc" stroke="#000000" stroke-width="1.00"/>
<circle cx="259.03" cy="221.09" r="21.01" fill="#cccccc" stroke="#000000" stroke-width="1.00"/>
<circle cx="70.00" cy="259.52" r="21.01" fill="#cccccc" stroke="#000000" stroke-width="1.00"/>
<circle cx="347.24" cy="295.58" r="21.01" fill="#cccccc" stroke="#000000" stroke-width="1.00"/>
<circle cx="217.06" cy="295.90" r="21.01" fill="#cccccc" stroke="#000000" stroke-width="1.00"/>
<circle cx="238.43" cy="259.31" r="21.01" fill="#cccccc" stroke="#000000" stroke-width="1.00"/>
<circle cx="212.42" cy="87.85" r="21.01" fill="#cccccc" stroke="#000000" stroke-width="1.00"/>
<circle cx="175.04" cy="223.13" r="21.01" fill="#cccccc" stroke="#000000" stroke-width="1.00"/>
<circle cx="305.05" cy="295.90" r="21.01" fill="#cccccc" stroke="#000000" stroke-width="1.00"/>
<circle cx="133.03" cy="295.90" r="21.01" fill="#cccccc" stroke="#000000" stroke-width="1.00"/>
<circle cx="112.02" cy="259.52" r="21.01" fill="#cccccc" stroke="#000000" stroke-width="1.00"/>
<circle cx="154.03" cy="259.52" r="21.01" fill="#cccccc" stroke="#000000" stroke-width="1.00"/>
<circle cx="133.03" cy="150.35" r="21.01" fill="#cccccc" stroke="#000000" stroke-width="1.00"/>
<circle cx="133.03" cy="223.13" r="21.01" fill="#cccccc" stroke="#000000" stroke-width="1.00"/>
<circle cx="217.06" cy="223.13" r="21.01" fill="#cccccc" stroke="#000000" stroke-width="1.00"/>
<circle cx="91.01" cy="223.13" r="21.01" fill="#cccccc" stroke="#000000" stroke-width="1.00"/>
<polygon points="12.61,316.91 387.39,316.91 188.30,12.61" fill="none" stroke="#000000" stroke-width="1.40"/>
</svg>