<svg xmlns="http://www.w3.org/2000/svg" width="720.0" height="614.8" viewBox="0 0 720.0 614.8">
<defs><clipPath id="inside"><polygon points="36.496,578.276 683.504,578.276 360.000,36.496"/></clipPath>
<mask id="outside"><rect width="720.0" height="614.8" fill="white"/><polygon points="36.496,578.276 683.504,578.276 360.000,36.496" fill="black"/></mask></defs>
<rect width="720.0" height="614.8" fill="white"/>
<circle cx="373.344" cy="179.446" r="36.496" fill="#e8a598" fill-opacity="0.65" stroke="#7b241c" stroke-width="1" clip-path="url(#inside)"/>
<circle cx="373.344" cy="179.446" r="1.4" fill="#7b241c"/>
<circle cx="432.988" cy="352.161" r="36.496" fill="#e8a598" fill-opacity="0.65" stroke="#7b241c" stroke-width="1" clip-path="url(#inside)"/>
<circle cx="432.988" cy="352.161" r="1.4" fill="#7b241c"/>
<circle cx="543.401" cy="414.831" r="36.496" fill="#e8a598" fill-opacity="0.65" stroke="#7b241c" stroke-width="1" clip-path="url(#inside)"/>
<circle cx="543.401" cy="414.831" r="1.4" fill="#7b241c"/>
<circle cx="323.496" cy="541.780" r="36.496" fill="#e8a598" fill-opacity="0.65" stroke="#7b241c" stroke-width="1" clip-path="url(#inside)"/>
<circle cx="323.496" cy="541.780" r="1.4" fill="#7b241c"/>
<circle cx="508.310" cy="478.835" r="36.496" fill="#e8a598" fill-opacity="0.65" stroke="#7b241c" stroke-width="1" clip-path="url(#inside)"/>
<circle cx="508.310" cy="478.835" r="1.4" fill="#7b241c"/>
<circle cx="545.267" cy="541.780" r="36.496" fill="#e8a598" fill-opacity="0.65" stroke="#7b241c" stroke-width="1" clip-path="url(#inside)"/>
<circle cx="545.267" cy="541.780" r="1.4" fill="#7b241c"/>
<circle cx="430.190" cy="225.233" r="36.496" fill="#e8a598" fill-opacity="0.65" stroke="#7b241c" stroke-width="1" clip-path="url(#inside)"/>
<circle cx="430.190" cy="225.233" r="1.4" fill="#7b241c"/>
<circle cx="174.729" cy="541.780" r="36.496" fill="#e8a598" fill-opacity="0.65" stroke="#7b241c" stroke-width="1" clip-path="url(#inside)"/>
<circle cx="174.729" cy="541.780" r="1.4" fill="#7b241c"/>
<circle cx="471.354" cy="541.780" r="36.496" fill="#e8a598" fill-opacity="0.65" stroke="#7b241c" stroke-width="1" clip-path="url(#inside)"/>
<circle cx="471.354" cy="541.780" r="1.4" fill="#7b241c"/>
<circle cx="287.020" cy="352.148" r="36.496" fill="#e8a598" fill-opacity="0.65" stroke="#7b241c" stroke-width="1" clip-path="url(#inside)"/>
<circle cx="287.020" cy="352.148" r="1.4" fill="#7b241c"/>
<circle cx="249.579" cy="415.897" r="36.496" fill="#e8a598" fill-opacity="0.65" stroke="#7b241c" stroke-width="1" clip-path="url(#inside)"/>
<circle cx="249.579" cy="415.897" r="1.4" fill="#7b241c"/>
<circle cx="286.075" cy="479.110" r="36.496" fill="#e8a598" fill-opacity="0.65" stroke="#7b241c" stroke-width="1" clip-path="url(#inside)"/>
<circle cx="286.075" cy="479.110" r="1.4" fill="#7b241c"/>
<circle cx="394.627" cy="288.976" r="36.496" fill="#e8a598" fill-opacity="0.65" stroke="#7b241c" stroke-width="1" clip-path="url(#inside)"/>
<circle cx="394.627" cy="288.976" r="1.4" fill="#7b241c"/>
<circle cx="211.691" cy="478.839" r="36.496" fill="#e8a598" fill-opacity="0.65" stroke="#7b241c" stroke-width="1" clip-path="url(#inside)"/>
<circle cx="211.691" cy="478.839" r="1.4" fill="#7b241c"/>
<circle cx="396.488" cy="541.780" r="36.496" fill="#e8a598" fill-opacity="0.65" stroke="#7b241c" stroke-width="1" clip-path="url(#inside)"/>
<circle cx="396.488" cy="541.780" r="1.4" fill="#7b241c"/>
<circle cx="323.637" cy="271.994" r="36.496" fill="#e8a598" fill-opacity="0.65" stroke="#7b241c" stroke-width="1" clip-path="url(#inside)"/>
<circle cx="323.637" cy="271.994" r="1.4" fill="#7b241c"/>
<circle cx="618.259" cy="541.743" r="36.496" fill="#e8a598" fill-opacity="0.65" stroke="#7b241c" stroke-width="1" clip-path="url(#inside)"/>
<circle cx="618.259" cy="541.743" r="1.4" fill="#7b241c"/>
<circle cx="100.864" cy="541.731" r="36.496" fill="#e8a598" fill-opacity="0.65" stroke="#7b241c" stroke-width="1" clip-path="url(#inside)"/>
<circle cx="100.864" cy="541.731" r="1.4" fill="#7b241c"/>
<circle cx="433.921" cy="479.117" r="36.496" fill="#e8a598" fill-opacity="0.65" stroke="#7b241c" stroke-width="1" clip-path="url(#inside)"/>
<circle cx="433.921" cy="479.117" r="1.4" fill="#7b241c"/>
<circle cx="303.839" cy="201.738" r="36.496" fill="#e8a598" fill-opacity="0.65" stroke="#7b241c" stroke-width="1" clip-path="url(#inside)"/>
<circle cx="303.839" cy="201.738" r="1.4" fill="#7b241c"/>
<circle cx="360.004" cy="353.234" r="36.496" fill="#e8a598" fill-opacity="0.65" stroke="#7b241c" stroke-width="1" clip-path="url(#inside)"/>
<circle cx="360.004" cy="353.234" r="1.4" fill="#7b241c"/>
<circle cx="470.417" cy="415.904" r="36.496" fill="#e8a598" fill-opacity="0.65" stroke="#7b241c" stroke-width="1" clip-path="url(#inside)"/>
<circle cx="470.417" cy="415.904" r="1.4" fill="#7b241c"/>
<circle cx="359.992" cy="478.567" r="36.496" fill="#e8a598" fill-opacity="0.65" stroke="#7b241c" stroke-width="1" clip-path="url(#inside)"/>
<circle cx="359.992" cy="478.567" r="1.4" fill="#7b241c"/>
<circle cx="360.000" cy="107.684" r="36.496" fill="#e8a598" fill-opacity="0.65" stroke="#7b241c" stroke-width="1" clip-path="url(#inside)"/>
<circle cx="360.000" cy="107.684" r="1.4" fill="#7b241c"/>
<circle cx="248.654" cy="541.780" r="36.496" fill="#e8a598" fill-opacity="0.65" stroke="#7b241c" stroke-width="1" clip-path="url(#inside)"/>
<circle cx="248.654" cy="541.780" r="1.4" fill="#7b241c"/>
<circle cx="467.611" cy="287.903" r="36.496" fill="#e8a598" fill-opacity="0.65" stroke="#7b241c" stroke-width="1" clip-path="url(#inside)"/>
<circle cx="467.611" cy="287.903" r="1.4" fill="#7b241c"/>
<circle cx="252.397" cy="287.889" r="36.496" fill="#e8a598" fill-opacity="0.65" stroke="#7b241c" stroke-width="1" clip-path="url(#inside)"/>
<circle cx="252.397" cy="287.889" r="1.4" fill="#7b241c"/>
<circle cx="581.301" cy="478.302" r="36.496" fill="#e8a598" fill-opacity="0.65" stroke="#7b241c" stroke-width="1" clip-path="url(#inside)"/>
<circle cx="581.301" cy="478.302" r="1.4" fill="#7b241c"/>
<circle cx="176.594" cy="414.838" r="36.496" fill="#e8a598" fill-opacity="0.65" stroke="#7b241c" stroke-width="1" clip-path="url(#inside)"/>
<circle cx="176.594" cy="414.838" r="1.4" fill="#7b241c"/>
<circle cx="397.425" cy="415.904" r="36.496" fill="#e8a598" fill-opacity="0.65" stroke="#7b241c" stroke-width="1" clip-path="url(#inside)"/>
<circle cx="397.425" cy="415.904" r="1.4" fill="#7b241c"/>
<circle cx="322.571" cy="415.897" r="36.496" fill="#e8a598" fill-opacity="0.65" stroke="#7b241c" stroke-width="1" clip-path="url(#inside)"/>
<circle cx="322.571" cy="415.897" r="1.4" fill="#7b241c"/>
<circle cx="505.980" cy="352.161" r="36.496" fill="#e8a598" fill-opacity="0.65" stroke="#7b241c" stroke-width="1" clip-path="url(#inside)"/>
<circle cx="505.980" cy="352.161" r="1.4" fill="#7b241c"/>
<circle cx="138.701" cy="478.299" r="36.496" fill="#e8a598" fill-opacity="0.65" stroke="#7b241c" stroke-width="1" clip-path="url(#inside)"/>
<circle cx="138.701" cy="478.299" r="1.4" fill="#7b241c"/>
<circle cx="214.027" cy="352.148" r="36.496" fill="#e8a598" fill-opacity="0.65" stroke="#7b241c" stroke-width="1" clip-path="url(#inside)"/>
<circle cx="214.027" cy="352.148" r="1.4" fill="#7b241c"/>
<polygon points="36.496,578.276 683.504,578.276 360.000,36.496" fill="none" stroke="#000000" stroke-width="3" mask="url(#outside)"/>
<text x="6" y="16" font-family="sans-serif" font-size="13" fill="#222">circles in arbitrary triangle  n=34  area=131.58592</text>
</svg>