<svg xmlns="http://www.w3.org/2000/svg" width="720.0" height="440.9" viewBox="0 0 720.0 440.9">
<defs><clipPath id="inside"><polygon points="29.510,411.410 690.490,411.410 250.000,29.510"/></clipPath></defs>
<rect width="720.0" height="440.9" fill="white"/>
<circle cx="375.720" cy="381.900" r="29.510" fill="#e8a598" fill-opacity="0.65" stroke="#7b241c" stroke-width="1" clip-path="url(#inside)"/>
<circle cx="375.720" cy="381.900" r="1.4" fill="#7b241c"/>
<circle cx="228.171" cy="126.338" r="29.510" fill="#e8a598" fill-opacity="0.65" stroke="#7b241c" stroke-width="1" clip-path="url(#inside)"/>
<circle cx="228.171" cy="126.338" r="1.4" fill="#7b241c"/>
<circle cx="346.273" cy="228.527" r="29.510" fill="#e8a598" fill-opacity="0.65" stroke="#7b241c" stroke-width="1" clip-path="url(#inside)"/>
<circle cx="346.273" cy="228.527" r="1.4" fill="#7b241c"/>
<circle cx="611.405" cy="381.900" r="29.510" fill="#e8a598" fill-opacity="0.65" stroke="#7b241c" stroke-width="1" clip-path="url(#inside)"/>
<circle cx="611.405" cy="381.900" r="1.4" fill="#7b241c"/>
<circle cx="257.681" cy="75.226" r="29.510" fill="#e8a598" fill-opacity="0.65" stroke="#7b241c" stroke-width="1" clip-path="url(#inside)"/>
<circle cx="257.681" cy="75.226" r="1.4" fill="#7b241c"/>
<circle cx="198.661" cy="279.675" r="29.510" fill="#e8a598" fill-opacity="0.65" stroke="#7b241c" stroke-width="1" clip-path="url(#inside)"/>
<circle cx="198.661" cy="279.675" r="1.4" fill="#7b241c"/>
<circle cx="375.720" cy="279.675" r="29.510" fill="#e8a598" fill-opacity="0.65" stroke="#7b241c" stroke-width="1" clip-path="url(#inside)"/>
<circle cx="375.720" cy="279.675" r="1.4" fill="#7b241c"/>
<circle cx="464.463" cy="330.912" r="29.510" fill="#e8a598" fill-opacity="0.65" stroke="#7b241c" stroke-width="1" clip-path="url(#inside)"/>
<circle cx="464.463" cy="330.912" r="1.4" fill="#7b241c"/>
<circle cx="405.441" cy="330.665" r="29.510" fill="#e8a598" fill-opacity="0.65" stroke="#7b241c" stroke-width="1" clip-path="url(#inside)"/>
<circle cx="405.441" cy="330.665" r="1.4" fill="#7b241c"/>
<circle cx="419.693" cy="215.688" r="29.510" fill="#e8a598" fill-opacity="0.65" stroke="#7b241c" stroke-width="1" clip-path="url(#inside)"/>
<circle cx="419.693" cy="215.688" r="1.4" fill="#7b241c"/>
<circle cx="228.171" cy="330.788" r="29.510" fill="#e8a598" fill-opacity="0.65" stroke="#7b241c" stroke-width="1" clip-path="url(#inside)"/>
<circle cx="228.171" cy="330.788" r="1.4" fill="#7b241c"/>
<circle cx="346.210" cy="330.788" r="29.510" fill="#e8a598" fill-opacity="0.65" stroke="#7b241c" stroke-width="1" clip-path="url(#inside)"/>
<circle cx="346.210" cy="330.788" r="1.4" fill="#7b241c"/>
<circle cx="494.186" cy="381.900" r="29.510" fill="#e8a598" fill-opacity="0.65" stroke="#7b241c" stroke-width="1" clip-path="url(#inside)"/>
<circle cx="494.186" cy="381.900" r="1.4" fill="#7b241c"/>
<circle cx="257.681" cy="381.900" r="29.510" fill="#e8a598" fill-opacity="0.65" stroke="#7b241c" stroke-width="1" clip-path="url(#inside)"/>
<circle cx="257.681" cy="381.900" r="1.4" fill="#7b241c"/>
<circle cx="316.701" cy="279.675" r="29.510" fill="#e8a598" fill-opacity="0.65" stroke="#7b241c" stroke-width="1" clip-path="url(#inside)"/>
<circle cx="316.701" cy="279.675" r="1.4" fill="#7b241c"/>
<circle cx="302.274" cy="113.887" r="29.510" fill="#e8a598" fill-opacity="0.65" stroke="#7b241c" stroke-width="1" clip-path="url(#inside)"/>
<circle cx="302.274" cy="113.887" r="1.4" fill="#7b241c"/>
<circle cx="287.253" cy="228.527" r="29.510" fill="#e8a598" fill-opacity="0.65" stroke="#7b241c" stroke-width="1" clip-path="url(#inside)"/>
<circle cx="287.253" cy="228.527" r="1.4" fill="#7b241c"/>
<circle cx="434.740" cy="381.900" r="29.510" fill="#e8a598" fill-opacity="0.65" stroke="#7b241c" stroke-width="1" clip-path="url(#inside)"/>
<circle cx="434.740" cy="381.900" r="1.4" fill="#7b241c"/>
<circle cx="228.171" cy="228.563" r="29.510" fill="#e8a598" fill-opacity="0.65" stroke="#7b241c" stroke-width="1" clip-path="url(#inside)"/>
<circle cx="228.171" cy="228.563" r="1.4" fill="#7b241c"/>
<circle cx="257.681" cy="279.675" r="29.510" fill="#e8a598" fill-opacity="0.65" stroke="#7b241c" stroke-width="1" clip-path="url(#inside)"/>
<circle cx="257.681" cy="279.675" r="1.4" fill="#7b241c"/>
<circle cx="537.610" cy="317.921" r="29.510" fill="#e8a598" fill-opacity="0.65" stroke="#7b241c" stroke-width="1" clip-path="url(#inside)"/>
<circle cx="537.610" cy="317.921" r="1.4" fill="#7b241c"/>
<circle cx="493.017" cy="279.259" r="29.510" fill="#e8a598" fill-opacity="0.65" stroke="#7b241c" stroke-width="1" clip-path="url(#inside)"/>
<circle cx="493.017" cy="279.259" r="1.4" fill="#7b241c"/>
<circle cx="552.795" cy="374.953" r="29.510" fill="#e8a598" fill-opacity="0.65" stroke="#7b241c" stroke-width="1" clip-path="url(#inside)"/>
<circle cx="552.795" cy="374.953" r="1.4" fill="#7b241c"/>
<circle cx="257.681" cy="177.450" r="29.510" fill="#e8a598" fill-opacity="0.65" stroke="#7b241c" stroke-width="1" clip-path="url(#inside)"/>
<circle cx="257.681" cy="177.450" r="1.4" fill="#7b241c"/>
<circle cx="375.100" cy="177.026" r="29.510" fill="#e8a598" fill-opacity="0.65" stroke="#7b241c" stroke-width="1" clip-path="url(#inside)"/>
<circle cx="375.100" cy="177.026" r="1.4" fill="#7b241c"/>
<circle cx="169.152" cy="330.788" r="29.510" fill="#e8a598" fill-opacity="0.65" stroke="#7b241c" stroke-width="1" clip-path="url(#inside)"/>
<circle cx="169.152" cy="330.788" r="1.4" fill="#7b241c"/>
<circle cx="139.642" cy="279.675" r="29.510" fill="#e8a598" fill-opacity="0.65" stroke="#7b241c" stroke-width="1" clip-path="url(#inside)"/>
<circle cx="139.642" cy="279.675" r="1.4" fill="#7b241c"/>
<circle cx="139.642" cy="381.900" r="29.510" fill="#e8a598" fill-opacity="0.65" stroke="#7b241c" stroke-width="1" clip-path="url(#inside)"/>
<circle cx="139.642" cy="381.900" r="1.4" fill="#7b241c"/>
<circle cx="316.701" cy="381.900" r="29.510" fill="#e8a598" fill-opacity="0.65" stroke="#7b241c" stroke-width="1" clip-path="url(#inside)"/>
<circle cx="316.701" cy="381.900" r="1.4" fill="#7b241c"/>
<circle cx="80.622" cy="381.900" r="29.510" fill="#e8a598" fill-opacity="0.65" stroke="#7b241c" stroke-width="1" clip-path="url(#inside)"/>
<circle cx="80.622" cy="381.900" r="1.4" fill="#7b241c"/>
<circle cx="198.661" cy="177.450" r="29.510" fill="#e8a598" fill-opacity="0.65" stroke="#7b241c" stroke-width="1" clip-path="url(#inside)"/>
<circle cx="198.661" cy="177.450" r="1.4" fill="#7b241c"/>
<circle cx="110.132" cy="330.788" r="29.510" fill="#e8a598" fill-opacity="0.65" stroke="#7b241c" stroke-width="1" clip-path="url(#inside)"/>
<circle cx="110.132" cy="330.788" r="1.4" fill="#7b241c"/>
<circle cx="434.345" cy="272.860" r="29.510" fill="#e8a598" fill-opacity="0.65" stroke="#7b241c" stroke-width="1" clip-path="url(#inside)"/>
<circle cx="434.345" cy="272.860" r="1.4" fill="#7b241c"/>
<circle cx="316.369" cy="171.199" r="29.510" fill="#e8a598" fill-opacity="0.65" stroke="#7b241c" stroke-width="1" clip-path="url(#inside)"/>
<circle cx="316.369" cy="171.199" r="1.4" fill="#7b241c"/>
<circle cx="287.191" cy="330.788" r="29.510" fill="#e8a598" fill-opacity="0.65" stroke="#7b241c" stroke-width="1" clip-path="url(#inside)"/>
<circle cx="287.191" cy="330.788" r="1.4" fill="#7b241c"/>
<circle cx="198.661" cy="381.900" r="29.510" fill="#e8a598" fill-opacity="0.65" stroke="#7b241c" stroke-width="1" clip-path="url(#inside)"/>
<circle cx="198.661" cy="381.900" r="1.4" fill="#7b241c"/>
<circle cx="169.152" cy="228.563" r="29.510" fill="#e8a598" fill-opacity="0.65" stroke="#7b241c" stroke-width="1" clip-path="url(#inside)"/>
<circle cx="169.152" cy="228.563" r="1.4" fill="#7b241c"/>
<path d="M 249.309,25.395 L 697.608,414.066 L 24.910,414.066 L 249.309,25.395 Z M 690.490,411.410 L 250.000,29.510 L 29.510,411.410 L 690.490,411.410 Z" fill="#000000" fill-rule="evenodd"/>
<text x="6" y="16" font-family="sans-serif" font-size="13" fill="#222">circles in arbitrary triangle  n=37  area=144.93603</text>
</svg>