<svg xmlns="http://www.w3.org/2000/svg" width="720.0" height="718.7" viewBox="0 0 720.0 718.7">
<rect width="720.0" height="718.7" fill="white"/>
<polygon points="37.416,681.324 682.584,681.324 310.823,37.416 37.416,681.324" fill="none" stroke="#000000" stroke-width="2"/>
<circle cx="393.281" cy="643.908" r="37.416" fill="#e8a598" fill-opacity="0.65" stroke="#7b241c" stroke-width="1"/>
<circle cx="393.281" cy="643.908" r="1.4" fill="#7b241c"/>
<circle cx="355.865" cy="319.875" r="37.416" fill="#e8a598" fill-opacity="0.65" stroke="#7b241c" stroke-width="1"/>
<circle cx="355.865" cy="319.875" r="1.4" fill="#7b241c"/>
<circle cx="243.617" cy="643.908" r="37.416" fill="#e8a598" fill-opacity="0.65" stroke="#7b241c" stroke-width="1"/>
<circle cx="243.617" cy="643.908" r="1.4" fill="#7b241c"/>
<circle cx="242.937" cy="513.898" r="37.416" fill="#e8a598" fill-opacity="0.65" stroke="#7b241c" stroke-width="1"/>
<circle cx="242.937" cy="513.898" r="1.4" fill="#7b241c"/>
<circle cx="318.449" cy="643.908" r="37.416" fill="#e8a598" fill-opacity="0.65" stroke="#7b241c" stroke-width="1"/>
<circle cx="318.449" cy="643.908" r="1.4" fill="#7b241c"/>
<circle cx="296.114" cy="274.824" r="37.416" fill="#e8a598" fill-opacity="0.65" stroke="#7b241c" stroke-width="1"/>
<circle cx="296.114" cy="274.824" r="1.4" fill="#7b241c"/>
<circle cx="235.116" cy="390.399" r="37.416" fill="#e8a598" fill-opacity="0.65" stroke="#7b241c" stroke-width="1"/>
<circle cx="235.116" cy="390.399" r="1.4" fill="#7b241c"/>
<circle cx="318.449" cy="514.295" r="37.416" fill="#e8a598" fill-opacity="0.65" stroke="#7b241c" stroke-width="1"/>
<circle cx="318.449" cy="514.295" r="1.4" fill="#7b241c"/>
<circle cx="314.590" cy="382.297" r="37.416" fill="#e8a598" fill-opacity="0.65" stroke="#7b241c" stroke-width="1"/>
<circle cx="314.590" cy="382.297" r="1.4" fill="#7b241c"/>
<circle cx="505.529" cy="449.488" r="37.416" fill="#e8a598" fill-opacity="0.65" stroke="#7b241c" stroke-width="1"/>
<circle cx="505.529" cy="449.488" r="1.4" fill="#7b241c"/>
<circle cx="167.751" cy="514.903" r="37.416" fill="#e8a598" fill-opacity="0.65" stroke="#7b241c" stroke-width="1"/>
<circle cx="167.751" cy="514.903" r="1.4" fill="#7b241c"/>
<circle cx="580.361" cy="579.101" r="37.416" fill="#e8a598" fill-opacity="0.65" stroke="#7b241c" stroke-width="1"/>
<circle cx="580.361" cy="579.101" r="1.4" fill="#7b241c"/>
<circle cx="430.697" cy="449.488" r="37.416" fill="#e8a598" fill-opacity="0.65" stroke="#7b241c" stroke-width="1"/>
<circle cx="430.697" cy="449.488" r="1.4" fill="#7b241c"/>
<circle cx="393.281" cy="514.295" r="37.416" fill="#e8a598" fill-opacity="0.65" stroke="#7b241c" stroke-width="1"/>
<circle cx="393.281" cy="514.295" r="1.4" fill="#7b241c"/>
<circle cx="168.785" cy="643.908" r="37.416" fill="#e8a598" fill-opacity="0.65" stroke="#7b241c" stroke-width="1"/>
<circle cx="168.785" cy="643.908" r="1.4" fill="#7b241c"/>
<circle cx="617.777" cy="643.908" r="37.416" fill="#e8a598" fill-opacity="0.65" stroke="#7b241c" stroke-width="1"/>
<circle cx="617.777" cy="643.908" r="1.4" fill="#7b241c"/>
<circle cx="123.199" cy="575.028" r="37.416" fill="#e8a598" fill-opacity="0.65" stroke="#7b241c" stroke-width="1"/>
<circle cx="123.199" cy="575.028" r="1.4" fill="#7b241c"/>
<circle cx="355.865" cy="190.262" r="37.416" fill="#e8a598" fill-opacity="0.65" stroke="#7b241c" stroke-width="1"/>
<circle cx="355.865" cy="190.262" r="1.4" fill="#7b241c"/>
<circle cx="317.883" cy="124.481" r="37.416" fill="#e8a598" fill-opacity="0.65" stroke="#7b241c" stroke-width="1"/>
<circle cx="317.883" cy="124.481" r="1.4" fill="#7b241c"/>
<circle cx="505.529" cy="579.101" r="37.416" fill="#e8a598" fill-opacity="0.65" stroke="#7b241c" stroke-width="1"/>
<circle cx="505.529" cy="579.101" r="1.4" fill="#7b241c"/>
<circle cx="542.945" cy="514.295" r="37.416" fill="#e8a598" fill-opacity="0.65" stroke="#7b241c" stroke-width="1"/>
<circle cx="542.945" cy="514.295" r="1.4" fill="#7b241c"/>
<circle cx="430.697" cy="319.875" r="37.416" fill="#e8a598" fill-opacity="0.65" stroke="#7b241c" stroke-width="1"/>
<circle cx="430.697" cy="319.875" r="1.4" fill="#7b241c"/>
<circle cx="355.865" cy="579.101" r="37.416" fill="#e8a598" fill-opacity="0.65" stroke="#7b241c" stroke-width="1"/>
<circle cx="355.865" cy="579.101" r="1.4" fill="#7b241c"/>
<circle cx="430.697" cy="579.101" r="37.416" fill="#e8a598" fill-opacity="0.65" stroke="#7b241c" stroke-width="1"/>
<circle cx="430.697" cy="579.101" r="1.4" fill="#7b241c"/>
<circle cx="542.945" cy="643.908" r="37.416" fill="#e8a598" fill-opacity="0.65" stroke="#7b241c" stroke-width="1"/>
<circle cx="542.945" cy="643.908" r="1.4" fill="#7b241c"/>
<circle cx="93.952" cy="643.908" r="37.416" fill="#e8a598" fill-opacity="0.65" stroke="#7b241c" stroke-width="1"/>
<circle cx="93.952" cy="643.908" r="1.4" fill="#7b241c"/>
<circle cx="281.860" cy="201.361" r="37.416" fill="#e8a598" fill-opacity="0.65" stroke="#7b241c" stroke-width="1"/>
<circle cx="281.860" cy="201.361" r="1.4" fill="#7b241c"/>
<circle cx="180.070" cy="441.092" r="37.416" fill="#e8a598" fill-opacity="0.65" stroke="#7b241c" stroke-width="1"/>
<circle cx="180.070" cy="441.092" r="1.4" fill="#7b241c"/>
<circle cx="468.113" cy="514.295" r="37.416" fill="#e8a598" fill-opacity="0.65" stroke="#7b241c" stroke-width="1"/>
<circle cx="468.113" cy="514.295" r="1.4" fill="#7b241c"/>
<circle cx="281.033" cy="579.101" r="37.416" fill="#e8a598" fill-opacity="0.65" stroke="#7b241c" stroke-width="1"/>
<circle cx="281.033" cy="579.101" r="1.4" fill="#7b241c"/>
<circle cx="233.359" cy="315.588" r="37.416" fill="#e8a598" fill-opacity="0.65" stroke="#7b241c" stroke-width="1"/>
<circle cx="233.359" cy="315.588" r="1.4" fill="#7b241c"/>
<circle cx="281.033" cy="449.488" r="37.416" fill="#e8a598" fill-opacity="0.65" stroke="#7b241c" stroke-width="1"/>
<circle cx="281.033" cy="449.488" r="1.4" fill="#7b241c"/>
<circle cx="206.201" cy="579.101" r="37.416" fill="#e8a598" fill-opacity="0.65" stroke="#7b241c" stroke-width="1"/>
<circle cx="206.201" cy="579.101" r="1.4" fill="#7b241c"/>
<circle cx="393.281" cy="384.682" r="37.416" fill="#e8a598" fill-opacity="0.65" stroke="#7b241c" stroke-width="1"/>
<circle cx="393.281" cy="384.682" r="1.4" fill="#7b241c"/>
<circle cx="393.281" cy="255.069" r="37.416" fill="#e8a598" fill-opacity="0.65" stroke="#7b241c" stroke-width="1"/>
<circle cx="393.281" cy="255.069" r="1.4" fill="#7b241c"/>
<circle cx="355.865" cy="449.488" r="37.416" fill="#e8a598" fill-opacity="0.65" stroke="#7b241c" stroke-width="1"/>
<circle cx="355.865" cy="449.488" r="1.4" fill="#7b241c"/>
<circle cx="468.113" cy="643.908" r="37.416" fill="#e8a598" fill-opacity="0.65" stroke="#7b241c" stroke-width="1"/>
<circle cx="468.113" cy="643.908" r="1.4" fill="#7b241c"/>
<circle cx="468.113" cy="384.682" r="37.416" fill="#e8a598" fill-opacity="0.65" stroke="#7b241c" stroke-width="1"/>
<circle cx="468.113" cy="384.682" r="1.4" fill="#7b241c"/>
<text x="6" y="16" font-family="sans-serif" font-size="13" fill="#222">circles in arbitrary triangle  n=38  area=148.37141</text>
</svg>