<svg xmlns="http://www.w3.org/2000/svg" width="400.0" height="399.3" viewBox="0 0 400.0 399.3">
<rect width="400.0" height="399.3" fill="white"/>
<circle cx="219.29" cy="364.57" r="21.69" fill="#cccccc" stroke="#000000" stroke-width="1.00"/>
<circle cx="197.60" cy="176.74" r="21.69" fill="#cccccc" stroke="#000000" stroke-width="1.00"/>
<circle cx="132.54" cy="364.57" r="21.69" fill="#cccccc" stroke="#000000" stroke-width="1.00"/>
<circle cx="132.14" cy="289.21" r="21.69" fill="#cccccc" stroke="#000000" stroke-width="1.00"/>
<circle cx="175.91" cy="364.57" r="21.69" fill="#cccccc" stroke="#000000" stroke-width="1.00"/>
<circle cx="162.97" cy="150.63" r="21.69" fill="#cccccc" stroke="#000000" stroke-width="1.00"/>
<circle cx="127.61" cy="217.62" r="21.69" fill="#cccccc" stroke="#000000" stroke-width="1.00"/>
<circle cx="175.91" cy="289.44" r="21.69" fill="#cccccc" stroke="#000000" stroke-width="1.00"/>
<circle cx="173.68" cy="212.92" r="21.69" fill="#cccccc" stroke="#000000" stroke-width="1.00"/>
<circle cx="284.36" cy="251.87" r="21.69" fill="#cccccc" stroke="#000000" stroke-width="1.00"/>
<circle cx="88.56" cy="289.79" r="21.69" fill="#cccccc" stroke="#000000" stroke-width="1.00"/>
<circle cx="327.73" cy="327.00" r="21.69" fill="#cccccc" stroke="#000000" stroke-width="1.00"/>
<circle cx="240.98" cy="251.87" r="21.69" fill="#cccccc" stroke="#000000" stroke-width="1.00"/>
<circle cx="219.29" cy="289.44" r="21.69" fill="#cccccc" stroke="#000000" stroke-width="1.00"/>
<circle cx="89.16" cy="364.57" r="21.69" fill="#cccccc" stroke="#000000" stroke-width="1.00"/>
<circle cx="349.42" cy="364.57" r="21.69" fill="#cccccc" stroke="#000000" stroke-width="1.00"/>
<circle cx="62.74" cy="324.64" r="21.69" fill="#cccccc" stroke="#000000" stroke-width="1.00"/>
<circle cx="197.60" cy="101.61" r="21.69" fill="#cccccc" stroke="#000000" stroke-width="1.00"/>
<circle cx="175.59" cy="63.48" r="21.69" fill="#cccccc" stroke="#000000" stroke-width="1.00"/>
<circle cx="284.36" cy="327.00" r="21.69" fill="#cccccc" stroke="#000000" stroke-width="1.00"/>
<circle cx="306.04" cy="289.44" r="21.69" fill="#cccccc" stroke="#000000" stroke-width="1.00"/>
<circle cx="240.98" cy="176.74" r="21.69" fill="#cccccc" stroke="#000000" stroke-width="1.00"/>
<circle cx="197.60" cy="327.00" r="21.69" fill="#cccccc" stroke="#000000" stroke-width="1.00"/>
<circle cx="240.98" cy="327.00" r="21.69" fill="#cccccc" stroke="#000000" stroke-width="1.00"/>
<circle cx="306.04" cy="364.57" r="21.69" fill="#cccccc" stroke="#000000" stroke-width="1.00"/>
<circle cx="45.78" cy="364.57" r="21.69" fill="#cccccc" stroke="#000000" stroke-width="1.00"/>
<circle cx="154.71" cy="108.04" r="21.69" fill="#cccccc" stroke="#000000" stroke-width="1.00"/>
<circle cx="95.70" cy="247.01" r="21.69" fill="#cccccc" stroke="#000000" stroke-width="1.00"/>
<circle cx="262.67" cy="289.44" r="21.69" fill="#cccccc" stroke="#000000" stroke-width="1.00"/>
<circle cx="154.23" cy="327.00" r="21.69" fill="#cccccc" stroke="#000000" stroke-width="1.00"/>
<circle cx="126.59" cy="174.26" r="21.69" fill="#cccccc" stroke="#000000" stroke-width="1.00"/>
<circle cx="154.23" cy="251.87" r="21.69" fill="#cccccc" stroke="#000000" stroke-width="1.00"/>
<circle cx="110.85" cy="327.00" r="21.69" fill="#cccccc" stroke="#000000" stroke-width="1.00"/>
<circle cx="219.29" cy="214.31" r="21.69" fill="#cccccc" stroke="#000000" stroke-width="1.00"/>
<circle cx="219.29" cy="139.18" r="21.69" fill="#cccccc" stroke="#000000" stroke-width="1.00"/>
<circle cx="197.60" cy="251.87" r="21.69" fill="#cccccc" stroke="#000000" stroke-width="1.00"/>
<circle cx="262.67" cy="364.57" r="21.69" fill="#cccccc" stroke="#000000" stroke-width="1.00"/>
<circle cx="262.67" cy="214.31" r="21.69" fill="#cccccc" stroke="#000000" stroke-width="1.00"/>
<polygon points="13.01,386.26 386.99,386.26 171.49,13.01" fill="none" stroke="#000000" stroke-width="1.40"/>
</svg>