<svg xmlns="http://www.w3.org/2000/svg" width="390.6" height="400.0" viewBox="0 0 390.6 400.0">
<rect width="390.6" height="400.0" fill="white"/>
<circle cx="198.04" cy="329.29" r="21.22" fill="#cccccc" stroke="#000000" stroke-width="1.00"/>
<circle cx="49.49" cy="366.05" r="21.22" fill="#cccccc" stroke="#000000" stroke-width="1.00"/>
<circle cx="176.82" cy="145.51" r="21.22" fill="#cccccc" stroke="#000000" stroke-width="1.00"/>
<circle cx="261.70" cy="292.53" r="21.22" fill="#cccccc" stroke="#000000" stroke-width="1.00"/>
<circle cx="70.71" cy="329.29" r="21.22" fill="#cccccc" stroke="#000000" stroke-width="1.00"/>
<circle cx="260.69" cy="149.97" r="21.22" fill="#cccccc" stroke="#000000" stroke-width="1.00"/>
<circle cx="286.63" cy="215.22" r="21.22" fill="#cccccc" stroke="#000000" stroke-width="1.00"/>
<circle cx="91.93" cy="292.53" r="21.22" fill="#cccccc" stroke="#000000" stroke-width="1.00"/>
<circle cx="113.15" cy="255.78" r="21.22" fill="#cccccc" stroke="#000000" stroke-width="1.00"/>
<circle cx="261.70" cy="366.05" r="21.22" fill="#cccccc" stroke="#000000" stroke-width="1.00"/>
<circle cx="176.82" cy="366.05" r="21.22" fill="#cccccc" stroke="#000000" stroke-width="1.00"/>
<circle cx="224.84" cy="66.58" r="21.22" fill="#cccccc" stroke="#000000" stroke-width="1.00"/>
<circle cx="346.59" cy="366.05" r="21.22" fill="#cccccc" stroke="#000000" stroke-width="1.00"/>
<circle cx="200.93" cy="180.74" r="21.22" fill="#cccccc" stroke="#000000" stroke-width="1.00"/>
<circle cx="155.60" cy="182.26" r="21.22" fill="#cccccc" stroke="#000000" stroke-width="1.00"/>
<circle cx="91.93" cy="366.05" r="21.22" fill="#cccccc" stroke="#000000" stroke-width="1.00"/>
<circle cx="134.38" cy="366.05" r="21.22" fill="#cccccc" stroke="#000000" stroke-width="1.00"/>
<circle cx="219.26" cy="292.53" r="21.22" fill="#cccccc" stroke="#000000" stroke-width="1.00"/>
<circle cx="155.60" cy="255.78" r="21.22" fill="#cccccc" stroke="#000000" stroke-width="1.00"/>
<circle cx="219.26" cy="219.02" r="21.22" fill="#cccccc" stroke="#000000" stroke-width="1.00"/>
<circle cx="155.60" cy="329.29" r="21.22" fill="#cccccc" stroke="#000000" stroke-width="1.00"/>
<circle cx="219.08" cy="141.61" r="21.22" fill="#cccccc" stroke="#000000" stroke-width="1.00"/>
<circle cx="251.49" cy="191.41" r="21.22" fill="#cccccc" stroke="#000000" stroke-width="1.00"/>
<circle cx="219.26" cy="366.05" r="21.22" fill="#cccccc" stroke="#000000" stroke-width="1.00"/>
<circle cx="113.15" cy="329.29" r="21.22" fill="#cccccc" stroke="#000000" stroke-width="1.00"/>
<circle cx="242.76" cy="254.55" r="21.22" fill="#cccccc" stroke="#000000" stroke-width="1.00"/>
<circle cx="134.38" cy="219.02" r="21.22" fill="#cccccc" stroke="#000000" stroke-width="1.00"/>
<circle cx="325.37" cy="329.29" r="21.22" fill="#cccccc" stroke="#000000" stroke-width="1.00"/>
<circle cx="176.82" cy="292.53" r="21.22" fill="#cccccc" stroke="#000000" stroke-width="1.00"/>
<circle cx="243.59" cy="106.96" r="21.22" fill="#cccccc" stroke="#000000" stroke-width="1.00"/>
<circle cx="285.88" cy="257.65" r="21.22" fill="#cccccc" stroke="#000000" stroke-width="1.00"/>
<circle cx="198.04" cy="255.78" r="21.22" fill="#cccccc" stroke="#000000" stroke-width="1.00"/>
<circle cx="201.33" cy="103.05" r="21.22" fill="#cccccc" stroke="#000000" stroke-width="1.00"/>
<circle cx="304.15" cy="366.05" r="21.22" fill="#cccccc" stroke="#000000" stroke-width="1.00"/>
<circle cx="315.56" cy="287.99" r="21.22" fill="#cccccc" stroke="#000000" stroke-width="1.00"/>
<circle cx="176.82" cy="219.02" r="21.22" fill="#cccccc" stroke="#000000" stroke-width="1.00"/>
<circle cx="134.38" cy="292.53" r="21.22" fill="#cccccc" stroke="#000000" stroke-width="1.00"/>
<circle cx="240.48" cy="329.29" r="21.22" fill="#cccccc" stroke="#000000" stroke-width="1.00"/>
<circle cx="282.93" cy="329.29" r="21.22" fill="#cccccc" stroke="#000000" stroke-width="1.00"/>
<polygon points="12.73,387.27 377.86,387.27 228.97,12.73" fill="none" stroke="#000000" stroke-width="1.40"/>
</svg>