<svg xmlns="http://www.w3.org/2000/svg" width="703.8" height="720.0" viewBox="0 0 703.8 720.0">
<defs><clipPath id="inside"><polygon points="36.643,683.357 667.118,683.357 410.023,36.643"/></clipPath>
<mask id="outside"><rect width="703.8" height="720.0" fill="white"/><polygon points="36.643,683.357 667.118,683.357 410.023,36.643" fill="black"/></mask></defs>
<rect width="703.8" height="720.0" fill="white"/>
<circle cx="356.615" cy="583.245" r="36.643" fill="#e8a598" fill-opacity="0.65" stroke="#7b241c" stroke-width="1" clip-path="url(#inside)"/>
<circle cx="356.615" cy="583.245" r="1.4" fill="#7b241c"/>
<circle cx="100.111" cy="646.713" r="36.643" fill="#e8a598" fill-opacity="0.65" stroke="#7b241c" stroke-width="1" clip-path="url(#inside)"/>
<circle cx="100.111" cy="646.713" r="1.4" fill="#7b241c"/>
<circle cx="319.971" cy="265.905" r="36.643" fill="#e8a598" fill-opacity="0.65" stroke="#7b241c" stroke-width="1" clip-path="url(#inside)"/>
<circle cx="319.971" cy="265.905" r="1.4" fill="#7b241c"/>
<circle cx="466.545" cy="519.777" r="36.643" fill="#e8a598" fill-opacity="0.65" stroke="#7b241c" stroke-width="1" clip-path="url(#inside)"/>
<circle cx="466.545" cy="519.777" r="1.4" fill="#7b241c"/>
<circle cx="136.755" cy="583.245" r="36.643" fill="#e8a598" fill-opacity="0.65" stroke="#7b241c" stroke-width="1" clip-path="url(#inside)"/>
<circle cx="136.755" cy="583.245" r="1.4" fill="#7b241c"/>
<circle cx="464.797" cy="273.616" r="36.643" fill="#e8a598" fill-opacity="0.65" stroke="#7b241c" stroke-width="1" clip-path="url(#inside)"/>
<circle cx="464.797" cy="273.616" r="1.4" fill="#7b241c"/>
<circle cx="509.582" cy="386.272" r="36.643" fill="#e8a598" fill-opacity="0.65" stroke="#7b241c" stroke-width="1" clip-path="url(#inside)"/>
<circle cx="509.582" cy="386.272" r="1.4" fill="#7b241c"/>
<circle cx="173.398" cy="519.777" r="36.643" fill="#e8a598" fill-opacity="0.65" stroke="#7b241c" stroke-width="1" clip-path="url(#inside)"/>
<circle cx="173.398" cy="519.777" r="1.4" fill="#7b241c"/>
<circle cx="210.041" cy="456.309" r="36.643" fill="#e8a598" fill-opacity="0.65" stroke="#7b241c" stroke-width="1" clip-path="url(#inside)"/>
<circle cx="210.041" cy="456.309" r="1.4" fill="#7b241c"/>
<circle cx="466.545" cy="646.713" r="36.643" fill="#e8a598" fill-opacity="0.65" stroke="#7b241c" stroke-width="1" clip-path="url(#inside)"/>
<circle cx="466.545" cy="646.713" r="1.4" fill="#7b241c"/>
<circle cx="319.971" cy="646.713" r="36.643" fill="#e8a598" fill-opacity="0.65" stroke="#7b241c" stroke-width="1" clip-path="url(#inside)"/>
<circle cx="319.971" cy="646.713" r="1.4" fill="#7b241c"/>
<circle cx="402.884" cy="129.624" r="36.643" fill="#e8a598" fill-opacity="0.65" stroke="#7b241c" stroke-width="1" clip-path="url(#inside)"/>
<circle cx="402.884" cy="129.624" r="1.4" fill="#7b241c"/>
<circle cx="613.118" cy="646.713" r="36.643" fill="#e8a598" fill-opacity="0.65" stroke="#7b241c" stroke-width="1" clip-path="url(#inside)"/>
<circle cx="613.118" cy="646.713" r="1.4" fill="#7b241c"/>
<circle cx="361.599" cy="326.739" r="36.643" fill="#e8a598" fill-opacity="0.65" stroke="#7b241c" stroke-width="1" clip-path="url(#inside)"/>
<circle cx="361.599" cy="326.739" r="1.4" fill="#7b241c"/>
<circle cx="283.328" cy="329.373" r="36.643" fill="#e8a598" fill-opacity="0.65" stroke="#7b241c" stroke-width="1" clip-path="url(#inside)"/>
<circle cx="283.328" cy="329.373" r="1.4" fill="#7b241c"/>
<circle cx="173.398" cy="646.713" r="36.643" fill="#e8a598" fill-opacity="0.65" stroke="#7b241c" stroke-width="1" clip-path="url(#inside)"/>
<circle cx="173.398" cy="646.713" r="1.4" fill="#7b241c"/>
<circle cx="246.685" cy="646.713" r="36.643" fill="#e8a598" fill-opacity="0.65" stroke="#7b241c" stroke-width="1" clip-path="url(#inside)"/>
<circle cx="246.685" cy="646.713" r="1.4" fill="#7b241c"/>
<circle cx="393.258" cy="519.777" r="36.643" fill="#e8a598" fill-opacity="0.65" stroke="#7b241c" stroke-width="1" clip-path="url(#inside)"/>
<circle cx="393.258" cy="519.777" r="1.4" fill="#7b241c"/>
<circle cx="283.328" cy="456.309" r="36.643" fill="#e8a598" fill-opacity="0.65" stroke="#7b241c" stroke-width="1" clip-path="url(#inside)"/>
<circle cx="283.328" cy="456.309" r="1.4" fill="#7b241c"/>
<circle cx="393.258" cy="392.841" r="36.643" fill="#e8a598" fill-opacity="0.65" stroke="#7b241c" stroke-width="1" clip-path="url(#inside)"/>
<circle cx="393.258" cy="392.841" r="1.4" fill="#7b241c"/>
<circle cx="283.328" cy="583.245" r="36.643" fill="#e8a598" fill-opacity="0.65" stroke="#7b241c" stroke-width="1" clip-path="url(#inside)"/>
<circle cx="283.328" cy="583.245" r="1.4" fill="#7b241c"/>
<circle cx="392.948" cy="259.170" r="36.643" fill="#e8a598" fill-opacity="0.65" stroke="#7b241c" stroke-width="1" clip-path="url(#inside)"/>
<circle cx="392.948" cy="259.170" r="1.4" fill="#7b241c"/>
<circle cx="448.913" cy="345.161" r="36.643" fill="#e8a598" fill-opacity="0.65" stroke="#7b241c" stroke-width="1" clip-path="url(#inside)"/>
<circle cx="448.913" cy="345.161" r="1.4" fill="#7b241c"/>
<circle cx="393.258" cy="646.713" r="36.643" fill="#e8a598" fill-opacity="0.65" stroke="#7b241c" stroke-width="1" clip-path="url(#inside)"/>
<circle cx="393.258" cy="646.713" r="1.4" fill="#7b241c"/>
<circle cx="210.041" cy="583.245" r="36.643" fill="#e8a598" fill-opacity="0.65" stroke="#7b241c" stroke-width="1" clip-path="url(#inside)"/>
<circle cx="210.041" cy="583.245" r="1.4" fill="#7b241c"/>
<circle cx="433.826" cy="454.197" r="36.643" fill="#e8a598" fill-opacity="0.65" stroke="#7b241c" stroke-width="1" clip-path="url(#inside)"/>
<circle cx="433.826" cy="454.197" r="1.4" fill="#7b241c"/>
<circle cx="246.685" cy="392.841" r="36.643" fill="#e8a598" fill-opacity="0.65" stroke="#7b241c" stroke-width="1" clip-path="url(#inside)"/>
<circle cx="246.685" cy="392.841" r="1.4" fill="#7b241c"/>
<circle cx="576.475" cy="583.245" r="36.643" fill="#e8a598" fill-opacity="0.65" stroke="#7b241c" stroke-width="1" clip-path="url(#inside)"/>
<circle cx="576.475" cy="583.245" r="1.4" fill="#7b241c"/>
<circle cx="319.971" cy="519.777" r="36.643" fill="#e8a598" fill-opacity="0.65" stroke="#7b241c" stroke-width="1" clip-path="url(#inside)"/>
<circle cx="319.971" cy="519.777" r="1.4" fill="#7b241c"/>
<circle cx="435.268" cy="199.338" r="36.643" fill="#e8a598" fill-opacity="0.65" stroke="#7b241c" stroke-width="1" clip-path="url(#inside)"/>
<circle cx="435.268" cy="199.338" r="1.4" fill="#7b241c"/>
<circle cx="508.298" cy="459.548" r="36.643" fill="#e8a598" fill-opacity="0.65" stroke="#7b241c" stroke-width="1" clip-path="url(#inside)"/>
<circle cx="508.298" cy="459.548" r="1.4" fill="#7b241c"/>
<circle cx="356.615" cy="456.309" r="36.643" fill="#e8a598" fill-opacity="0.65" stroke="#7b241c" stroke-width="1" clip-path="url(#inside)"/>
<circle cx="356.615" cy="456.309" r="1.4" fill="#7b241c"/>
<circle cx="362.292" cy="192.604" r="36.643" fill="#e8a598" fill-opacity="0.65" stroke="#7b241c" stroke-width="1" clip-path="url(#inside)"/>
<circle cx="362.292" cy="192.604" r="1.4" fill="#7b241c"/>
<circle cx="539.831" cy="646.713" r="36.643" fill="#e8a598" fill-opacity="0.65" stroke="#7b241c" stroke-width="1" clip-path="url(#inside)"/>
<circle cx="539.831" cy="646.713" r="1.4" fill="#7b241c"/>
<circle cx="559.541" cy="511.942" r="36.643" fill="#e8a598" fill-opacity="0.65" stroke="#7b241c" stroke-width="1" clip-path="url(#inside)"/>
<circle cx="559.541" cy="511.942" r="1.4" fill="#7b241c"/>
<circle cx="319.971" cy="392.841" r="36.643" fill="#e8a598" fill-opacity="0.65" stroke="#7b241c" stroke-width="1" clip-path="url(#inside)"/>
<circle cx="319.971" cy="392.841" r="1.4" fill="#7b241c"/>
<circle cx="246.685" cy="519.777" r="36.643" fill="#e8a598" fill-opacity="0.65" stroke="#7b241c" stroke-width="1" clip-path="url(#inside)"/>
<circle cx="246.685" cy="519.777" r="1.4" fill="#7b241c"/>
<circle cx="429.901" cy="583.245" r="36.643" fill="#e8a598" fill-opacity="0.65" stroke="#7b241c" stroke-width="1" clip-path="url(#inside)"/>
<circle cx="429.901" cy="583.245" r="1.4" fill="#7b241c"/>
<circle cx="503.188" cy="583.245" r="36.643" fill="#e8a598" fill-opacity="0.65" stroke="#7b241c" stroke-width="1" clip-path="url(#inside)"/>
<circle cx="503.188" cy="583.245" r="1.4" fill="#7b241c"/>
<polygon points="36.643,683.357 667.118,683.357 410.023,36.643" fill="none" stroke="#000000" stroke-width="3" mask="url(#outside)"/>
<text x="6" y="16" font-family="sans-serif" font-size="13" fill="#222">circles in arbitrary triangle  n=39  area=151.83073</text>
</svg>