<svg xmlns="http://www.w3.org/2000/svg" width="720.0" height="597.4" viewBox="0 0 720.0 597.4">
<rect width="720.0" height="597.4" fill="white"/>
<polygon points="32.787,564.623 687.213,564.623 380.157,32.787 32.787,564.623" fill="none" stroke="#000000" stroke-width="2"/>
<circle cx="375.509" cy="274.463" r="32.787" fill="#e8a598" fill-opacity="0.65" stroke="#7b241c" stroke-width="1"/>
<circle cx="375.509" cy="274.463" r="1.4" fill="#7b241c"/>
<circle cx="433.704" cy="418.260" r="32.787" fill="#e8a598" fill-opacity="0.65" stroke="#7b241c" stroke-width="1"/>
<circle cx="433.704" cy="418.260" r="1.4" fill="#7b241c"/>
<circle cx="342.578" cy="150.279" r="32.787" fill="#e8a598" fill-opacity="0.65" stroke="#7b241c" stroke-width="1"/>
<circle cx="342.578" cy="150.279" r="1.4" fill="#7b241c"/>
<circle cx="499.278" cy="304.683" r="32.787" fill="#e8a598" fill-opacity="0.65" stroke="#7b241c" stroke-width="1"/>
<circle cx="499.278" cy="304.683" r="1.4" fill="#7b241c"/>
<circle cx="433.704" cy="304.683" r="32.787" fill="#e8a598" fill-opacity="0.65" stroke="#7b241c" stroke-width="1"/>
<circle cx="433.704" cy="304.683" r="1.4" fill="#7b241c"/>
<circle cx="166.869" cy="419.295" r="32.787" fill="#e8a598" fill-opacity="0.65" stroke="#7b241c" stroke-width="1"/>
<circle cx="166.869" cy="419.295" r="1.4" fill="#7b241c"/>
<circle cx="246.778" cy="296.952" r="32.787" fill="#e8a598" fill-opacity="0.65" stroke="#7b241c" stroke-width="1"/>
<circle cx="246.778" cy="296.952" r="1.4" fill="#7b241c"/>
<circle cx="597.638" cy="475.048" r="32.787" fill="#e8a598" fill-opacity="0.65" stroke="#7b241c" stroke-width="1"/>
<circle cx="597.638" cy="475.048" r="1.4" fill="#7b241c"/>
<circle cx="564.851" cy="531.836" r="32.787" fill="#e8a598" fill-opacity="0.65" stroke="#7b241c" stroke-width="1"/>
<circle cx="564.851" cy="531.836" r="1.4" fill="#7b241c"/>
<circle cx="368.131" cy="531.836" r="32.787" fill="#e8a598" fill-opacity="0.65" stroke="#7b241c" stroke-width="1"/>
<circle cx="368.131" cy="531.836" r="1.4" fill="#7b241c"/>
<circle cx="466.491" cy="361.471" r="32.787" fill="#e8a598" fill-opacity="0.65" stroke="#7b241c" stroke-width="1"/>
<circle cx="466.491" cy="361.471" r="1.4" fill="#7b241c"/>
<circle cx="499.278" cy="418.260" r="32.787" fill="#e8a598" fill-opacity="0.65" stroke="#7b241c" stroke-width="1"/>
<circle cx="499.278" cy="418.260" r="1.4" fill="#7b241c"/>
<circle cx="433.704" cy="531.836" r="32.787" fill="#e8a598" fill-opacity="0.65" stroke="#7b241c" stroke-width="1"/>
<circle cx="433.704" cy="531.836" r="1.4" fill="#7b241c"/>
<circle cx="299.866" cy="416.783" r="32.787" fill="#e8a598" fill-opacity="0.65" stroke="#7b241c" stroke-width="1"/>
<circle cx="299.866" cy="416.783" r="1.4" fill="#7b241c"/>
<circle cx="236.984" cy="531.836" r="32.787" fill="#e8a598" fill-opacity="0.65" stroke="#7b241c" stroke-width="1"/>
<circle cx="236.984" cy="531.836" r="1.4" fill="#7b241c"/>
<circle cx="630.425" cy="531.836" r="32.787" fill="#e8a598" fill-opacity="0.65" stroke="#7b241c" stroke-width="1"/>
<circle cx="630.425" cy="531.836" r="1.4" fill="#7b241c"/>
<circle cx="466.491" cy="247.895" r="32.787" fill="#e8a598" fill-opacity="0.65" stroke="#7b241c" stroke-width="1"/>
<circle cx="466.491" cy="247.895" r="1.4" fill="#7b241c"/>
<circle cx="335.344" cy="475.048" r="32.787" fill="#e8a598" fill-opacity="0.65" stroke="#7b241c" stroke-width="1"/>
<circle cx="335.344" cy="475.048" r="1.4" fill="#7b241c"/>
<circle cx="368.131" cy="418.260" r="32.787" fill="#e8a598" fill-opacity="0.65" stroke="#7b241c" stroke-width="1"/>
<circle cx="368.131" cy="418.260" r="1.4" fill="#7b241c"/>
<circle cx="269.846" cy="358.334" r="32.787" fill="#e8a598" fill-opacity="0.65" stroke="#7b241c" stroke-width="1"/>
<circle cx="269.846" cy="358.334" r="1.4" fill="#7b241c"/>
<circle cx="204.368" cy="361.882" r="32.787" fill="#e8a598" fill-opacity="0.65" stroke="#7b241c" stroke-width="1"/>
<circle cx="204.368" cy="361.882" r="1.4" fill="#7b241c"/>
<circle cx="335.344" cy="361.471" r="32.787" fill="#e8a598" fill-opacity="0.65" stroke="#7b241c" stroke-width="1"/>
<circle cx="335.344" cy="361.471" r="1.4" fill="#7b241c"/>
<circle cx="532.065" cy="361.471" r="32.787" fill="#e8a598" fill-opacity="0.65" stroke="#7b241c" stroke-width="1"/>
<circle cx="532.065" cy="361.471" r="1.4" fill="#7b241c"/>
<circle cx="131.010" cy="474.196" r="32.787" fill="#e8a598" fill-opacity="0.65" stroke="#7b241c" stroke-width="1"/>
<circle cx="131.010" cy="474.196" r="1.4" fill="#7b241c"/>
<circle cx="269.771" cy="475.048" r="32.787" fill="#e8a598" fill-opacity="0.65" stroke="#7b241c" stroke-width="1"/>
<circle cx="269.771" cy="475.048" r="1.4" fill="#7b241c"/>
<circle cx="466.491" cy="475.048" r="32.787" fill="#e8a598" fill-opacity="0.65" stroke="#7b241c" stroke-width="1"/>
<circle cx="466.491" cy="475.048" r="1.4" fill="#7b241c"/>
<circle cx="532.065" cy="475.048" r="32.787" fill="#e8a598" fill-opacity="0.65" stroke="#7b241c" stroke-width="1"/>
<circle cx="532.065" cy="475.048" r="1.4" fill="#7b241c"/>
<circle cx="564.851" cy="418.260" r="32.787" fill="#e8a598" fill-opacity="0.65" stroke="#7b241c" stroke-width="1"/>
<circle cx="564.851" cy="418.260" r="1.4" fill="#7b241c"/>
<circle cx="499.278" cy="531.836" r="32.787" fill="#e8a598" fill-opacity="0.65" stroke="#7b241c" stroke-width="1"/>
<circle cx="499.278" cy="531.836" r="1.4" fill="#7b241c"/>
<circle cx="342.748" cy="215.852" r="32.787" fill="#e8a598" fill-opacity="0.65" stroke="#7b241c" stroke-width="1"/>
<circle cx="342.748" cy="215.852" r="1.4" fill="#7b241c"/>
<circle cx="314.783" cy="299.205" r="32.787" fill="#e8a598" fill-opacity="0.65" stroke="#7b241c" stroke-width="1"/>
<circle cx="314.783" cy="299.205" r="1.4" fill="#7b241c"/>
<circle cx="378.436" cy="95.379" r="32.787" fill="#e8a598" fill-opacity="0.65" stroke="#7b241c" stroke-width="1"/>
<circle cx="378.436" cy="95.379" r="1.4" fill="#7b241c"/>
<circle cx="302.558" cy="531.836" r="32.787" fill="#e8a598" fill-opacity="0.65" stroke="#7b241c" stroke-width="1"/>
<circle cx="302.558" cy="531.836" r="1.4" fill="#7b241c"/>
<circle cx="282.636" cy="242.052" r="32.787" fill="#e8a598" fill-opacity="0.65" stroke="#7b241c" stroke-width="1"/>
<circle cx="282.636" cy="242.052" r="1.4" fill="#7b241c"/>
<circle cx="408.296" cy="217.675" r="32.787" fill="#e8a598" fill-opacity="0.65" stroke="#7b241c" stroke-width="1"/>
<circle cx="408.296" cy="217.675" r="1.4" fill="#7b241c"/>
<circle cx="199.629" cy="477.943" r="32.787" fill="#e8a598" fill-opacity="0.65" stroke="#7b241c" stroke-width="1"/>
<circle cx="199.629" cy="477.943" r="1.4" fill="#7b241c"/>
<circle cx="162.274" cy="531.836" r="32.787" fill="#e8a598" fill-opacity="0.65" stroke="#7b241c" stroke-width="1"/>
<circle cx="162.274" cy="531.836" r="1.4" fill="#7b241c"/>
<circle cx="400.918" cy="361.471" r="32.787" fill="#e8a598" fill-opacity="0.65" stroke="#7b241c" stroke-width="1"/>
<circle cx="400.918" cy="361.471" r="1.4" fill="#7b241c"/>
<circle cx="95.443" cy="529.507" r="32.787" fill="#e8a598" fill-opacity="0.65" stroke="#7b241c" stroke-width="1"/>
<circle cx="95.443" cy="529.507" r="1.4" fill="#7b241c"/>
<circle cx="411.223" cy="152.167" r="32.787" fill="#e8a598" fill-opacity="0.65" stroke="#7b241c" stroke-width="1"/>
<circle cx="411.223" cy="152.167" r="1.4" fill="#7b241c"/>
<circle cx="232.416" cy="421.154" r="32.787" fill="#e8a598" fill-opacity="0.65" stroke="#7b241c" stroke-width="1"/>
<circle cx="232.416" cy="421.154" r="1.4" fill="#7b241c"/>
<circle cx="400.918" cy="475.048" r="32.787" fill="#e8a598" fill-opacity="0.65" stroke="#7b241c" stroke-width="1"/>
<circle cx="400.918" cy="475.048" r="1.4" fill="#7b241c"/>
<text x="6" y="16" font-family="sans-serif" font-size="13" fill="#222">circles in arbitrary triangle  n=42  area=161.88709</text>
</svg>