<svg xmlns="http://www.w3.org/2000/svg" width="720.0" height="627.0" viewBox="0 0 720.0 627.0">
<defs><clipPath id="inside"><polygon points="33.427,593.572 686.573,593.572 356.827,33.427"/></clipPath></defs>
<rect width="720.0" height="627.0" fill="white"/>
<circle cx="225.029" cy="560.146" r="33.427" fill="#e8a598" fill-opacity="0.65" stroke="#7b241c" stroke-width="1" clip-path="url(#inside)"/>
<circle cx="225.029" cy="560.146" r="1.4" fill="#7b241c"/>
<circle cx="425.588" cy="444.353" r="33.427" fill="#e8a598" fill-opacity="0.65" stroke="#7b241c" stroke-width="1" clip-path="url(#inside)"/>
<circle cx="425.588" cy="444.353" r="1.4" fill="#7b241c"/>
<circle cx="325.308" cy="502.249" r="33.427" fill="#e8a598" fill-opacity="0.65" stroke="#7b241c" stroke-width="1" clip-path="url(#inside)"/>
<circle cx="325.308" cy="502.249" r="1.4" fill="#7b241c"/>
<circle cx="357.107" cy="99.794" r="33.427" fill="#e8a598" fill-opacity="0.65" stroke="#7b241c" stroke-width="1" clip-path="url(#inside)"/>
<circle cx="357.107" cy="99.794" r="1.4" fill="#7b241c"/>
<circle cx="560.761" cy="560.146" r="33.427" fill="#e8a598" fill-opacity="0.65" stroke="#7b241c" stroke-width="1" clip-path="url(#inside)"/>
<circle cx="560.761" cy="560.146" r="1.4" fill="#7b241c"/>
<circle cx="358.735" cy="560.146" r="33.427" fill="#e8a598" fill-opacity="0.65" stroke="#7b241c" stroke-width="1" clip-path="url(#inside)"/>
<circle cx="358.735" cy="560.146" r="1.4" fill="#7b241c"/>
<circle cx="291.882" cy="560.146" r="33.427" fill="#e8a598" fill-opacity="0.65" stroke="#7b241c" stroke-width="1" clip-path="url(#inside)"/>
<circle cx="291.882" cy="560.146" r="1.4" fill="#7b241c"/>
<circle cx="492.441" cy="560.146" r="33.427" fill="#e8a598" fill-opacity="0.65" stroke="#7b241c" stroke-width="1" clip-path="url(#inside)"/>
<circle cx="492.441" cy="560.146" r="1.4" fill="#7b241c"/>
<circle cx="593.942" cy="502.108" r="33.427" fill="#e8a598" fill-opacity="0.65" stroke="#7b241c" stroke-width="1" clip-path="url(#inside)"/>
<circle cx="593.942" cy="502.108" r="1.4" fill="#7b241c"/>
<circle cx="385.616" cy="241.813" r="33.427" fill="#e8a598" fill-opacity="0.65" stroke="#7b241c" stroke-width="1" clip-path="url(#inside)"/>
<circle cx="385.616" cy="241.813" r="1.4" fill="#7b241c"/>
<circle cx="337.192" cy="163.611" r="33.427" fill="#e8a598" fill-opacity="0.65" stroke="#7b241c" stroke-width="1" clip-path="url(#inside)"/>
<circle cx="337.192" cy="163.611" r="1.4" fill="#7b241c"/>
<circle cx="425.056" cy="320.144" r="33.427" fill="#e8a598" fill-opacity="0.65" stroke="#7b241c" stroke-width="1" clip-path="url(#inside)"/>
<circle cx="425.056" cy="320.144" r="1.4" fill="#7b241c"/>
<circle cx="491.446" cy="327.997" r="33.427" fill="#e8a598" fill-opacity="0.65" stroke="#7b241c" stroke-width="1" clip-path="url(#inside)"/>
<circle cx="491.446" cy="327.997" r="1.4" fill="#7b241c"/>
<circle cx="525.867" cy="386.469" r="33.427" fill="#e8a598" fill-opacity="0.65" stroke="#7b241c" stroke-width="1" clip-path="url(#inside)"/>
<circle cx="525.867" cy="386.469" r="1.4" fill="#7b241c"/>
<circle cx="258.455" cy="502.249" r="33.427" fill="#e8a598" fill-opacity="0.65" stroke="#7b241c" stroke-width="1" clip-path="url(#inside)"/>
<circle cx="258.455" cy="502.249" r="1.4" fill="#7b241c"/>
<circle cx="124.749" cy="502.249" r="33.427" fill="#e8a598" fill-opacity="0.65" stroke="#7b241c" stroke-width="1" clip-path="url(#inside)"/>
<circle cx="124.749" cy="502.249" r="1.4" fill="#7b241c"/>
<circle cx="358.735" cy="328.560" r="33.427" fill="#e8a598" fill-opacity="0.65" stroke="#7b241c" stroke-width="1" clip-path="url(#inside)"/>
<circle cx="358.735" cy="328.560" r="1.4" fill="#7b241c"/>
<circle cx="392.161" cy="386.456" r="33.427" fill="#e8a598" fill-opacity="0.65" stroke="#7b241c" stroke-width="1" clip-path="url(#inside)"/>
<circle cx="392.161" cy="386.456" r="1.4" fill="#7b241c"/>
<circle cx="459.014" cy="502.249" r="33.427" fill="#e8a598" fill-opacity="0.65" stroke="#7b241c" stroke-width="1" clip-path="url(#inside)"/>
<circle cx="459.014" cy="502.249" r="1.4" fill="#7b241c"/>
<circle cx="258.455" cy="270.664" r="33.427" fill="#e8a598" fill-opacity="0.65" stroke="#7b241c" stroke-width="1" clip-path="url(#inside)"/>
<circle cx="258.455" cy="270.664" r="1.4" fill="#7b241c"/>
<circle cx="158.176" cy="560.146" r="33.427" fill="#e8a598" fill-opacity="0.65" stroke="#7b241c" stroke-width="1" clip-path="url(#inside)"/>
<circle cx="158.176" cy="560.146" r="1.4" fill="#7b241c"/>
<circle cx="560.027" cy="444.496" r="33.427" fill="#e8a598" fill-opacity="0.65" stroke="#7b241c" stroke-width="1" clip-path="url(#inside)"/>
<circle cx="560.027" cy="444.496" r="1.4" fill="#7b241c"/>
<circle cx="158.176" cy="444.353" r="33.427" fill="#e8a598" fill-opacity="0.65" stroke="#7b241c" stroke-width="1" clip-path="url(#inside)"/>
<circle cx="158.176" cy="444.353" r="1.4" fill="#7b241c"/>
<circle cx="191.602" cy="386.456" r="33.427" fill="#e8a598" fill-opacity="0.65" stroke="#7b241c" stroke-width="1" clip-path="url(#inside)"/>
<circle cx="191.602" cy="386.456" r="1.4" fill="#7b241c"/>
<circle cx="358.735" cy="444.353" r="33.427" fill="#e8a598" fill-opacity="0.65" stroke="#7b241c" stroke-width="1" clip-path="url(#inside)"/>
<circle cx="358.735" cy="444.353" r="1.4" fill="#7b241c"/>
<circle cx="628.090" cy="560.118" r="33.427" fill="#e8a598" fill-opacity="0.65" stroke="#7b241c" stroke-width="1" clip-path="url(#inside)"/>
<circle cx="628.090" cy="560.118" r="1.4" fill="#7b241c"/>
<circle cx="225.029" cy="444.353" r="33.427" fill="#e8a598" fill-opacity="0.65" stroke="#7b241c" stroke-width="1" clip-path="url(#inside)"/>
<circle cx="225.029" cy="444.353" r="1.4" fill="#7b241c"/>
<circle cx="526.601" cy="502.679" r="33.427" fill="#e8a598" fill-opacity="0.65" stroke="#7b241c" stroke-width="1" clip-path="url(#inside)"/>
<circle cx="526.601" cy="502.679" r="1.4" fill="#7b241c"/>
<circle cx="225.029" cy="328.560" r="33.427" fill="#e8a598" fill-opacity="0.65" stroke="#7b241c" stroke-width="1" clip-path="url(#inside)"/>
<circle cx="225.029" cy="328.560" r="1.4" fill="#7b241c"/>
<circle cx="493.175" cy="444.783" r="33.427" fill="#e8a598" fill-opacity="0.65" stroke="#7b241c" stroke-width="1" clip-path="url(#inside)"/>
<circle cx="493.175" cy="444.783" r="1.4" fill="#7b241c"/>
<circle cx="450.408" cy="258.284" r="33.427" fill="#e8a598" fill-opacity="0.65" stroke="#7b241c" stroke-width="1" clip-path="url(#inside)"/>
<circle cx="450.408" cy="258.284" r="1.4" fill="#7b241c"/>
<circle cx="459.014" cy="386.456" r="33.427" fill="#e8a598" fill-opacity="0.65" stroke="#7b241c" stroke-width="1" clip-path="url(#inside)"/>
<circle cx="459.014" cy="386.456" r="1.4" fill="#7b241c"/>
<circle cx="291.882" cy="212.767" r="33.427" fill="#e8a598" fill-opacity="0.65" stroke="#7b241c" stroke-width="1" clip-path="url(#inside)"/>
<circle cx="291.882" cy="212.767" r="1.4" fill="#7b241c"/>
<circle cx="191.602" cy="502.249" r="33.427" fill="#e8a598" fill-opacity="0.65" stroke="#7b241c" stroke-width="1" clip-path="url(#inside)"/>
<circle cx="191.602" cy="502.249" r="1.4" fill="#7b241c"/>
<circle cx="325.308" cy="386.456" r="33.427" fill="#e8a598" fill-opacity="0.65" stroke="#7b241c" stroke-width="1" clip-path="url(#inside)"/>
<circle cx="325.308" cy="386.456" r="1.4" fill="#7b241c"/>
<circle cx="325.308" cy="270.664" r="33.427" fill="#e8a598" fill-opacity="0.65" stroke="#7b241c" stroke-width="1" clip-path="url(#inside)"/>
<circle cx="325.308" cy="270.664" r="1.4" fill="#7b241c"/>
<circle cx="291.882" cy="444.353" r="33.427" fill="#e8a598" fill-opacity="0.65" stroke="#7b241c" stroke-width="1" clip-path="url(#inside)"/>
<circle cx="291.882" cy="444.353" r="1.4" fill="#7b241c"/>
<circle cx="91.323" cy="560.146" r="33.427" fill="#e8a598" fill-opacity="0.65" stroke="#7b241c" stroke-width="1" clip-path="url(#inside)"/>
<circle cx="91.323" cy="560.146" r="1.4" fill="#7b241c"/>
<circle cx="402.656" cy="177.168" r="33.427" fill="#e8a598" fill-opacity="0.65" stroke="#7b241c" stroke-width="1" clip-path="url(#inside)"/>
<circle cx="402.656" cy="177.168" r="1.4" fill="#7b241c"/>
<circle cx="392.161" cy="502.249" r="33.427" fill="#e8a598" fill-opacity="0.65" stroke="#7b241c" stroke-width="1" clip-path="url(#inside)"/>
<circle cx="392.161" cy="502.249" r="1.4" fill="#7b241c"/>
<circle cx="291.882" cy="328.560" r="33.427" fill="#e8a598" fill-opacity="0.65" stroke="#7b241c" stroke-width="1" clip-path="url(#inside)"/>
<circle cx="291.882" cy="328.560" r="1.4" fill="#7b241c"/>
<circle cx="258.455" cy="386.456" r="33.427" fill="#e8a598" fill-opacity="0.65" stroke="#7b241c" stroke-width="1" clip-path="url(#inside)"/>
<circle cx="258.455" cy="386.456" r="1.4" fill="#7b241c"/>
<circle cx="425.588" cy="560.146" r="33.427" fill="#e8a598" fill-opacity="0.65" stroke="#7b241c" stroke-width="1" clip-path="url(#inside)"/>
<circle cx="425.588" cy="560.146" r="1.4" fill="#7b241c"/>
<path d="M 356.801,27.453 L 691.835,596.581 L 28.216,596.581 L 356.801,27.453 Z M 686.573,593.572 L 356.827,33.427 L 33.427,593.572 L 686.573,593.572 Z" fill="#000000" fill-rule="evenodd"/>
<text x="6" y="16" font-family="sans-serif" font-size="13" fill="#222">circles in arbitrary triangle  n=43  area=163.71933</text>
</svg>