<svg xmlns="http://www.w3.org/2000/svg" width="400.0" height="318.9" viewBox="0 0 400.0 318.9">
<rect width="400.0" height="318.9" fill="white"/>
<circle cx="289.88" cy="221.48" r="17.80" fill="#cccccc" stroke="#000000" stroke-width="1.00"/>
<circle cx="148.28" cy="290.44" r="17.80" fill="#cccccc" stroke="#000000" stroke-width="1.00"/>
<circle cx="219.46" cy="228.80" r="17.80" fill="#cccccc" stroke="#000000" stroke-width="1.00"/>
<circle cx="219.46" cy="290.44" r="17.80" fill="#cccccc" stroke="#000000" stroke-width="1.00"/>
<circle cx="283.06" cy="186.55" r="17.80" fill="#cccccc" stroke="#000000" stroke-width="1.00"/>
<circle cx="204.18" cy="73.08" r="17.80" fill="#cccccc" stroke="#000000" stroke-width="1.00"/>
<circle cx="112.68" cy="167.15" r="17.80" fill="#cccccc" stroke="#000000" stroke-width="1.00"/>
<circle cx="183.87" cy="105.50" r="17.80" fill="#cccccc" stroke="#000000" stroke-width="1.00"/>
<circle cx="255.05" cy="290.44" r="17.80" fill="#cccccc" stroke="#000000" stroke-width="1.00"/>
<circle cx="201.66" cy="259.62" r="17.80" fill="#cccccc" stroke="#000000" stroke-width="1.00"/>
<circle cx="320.25" cy="240.05" r="17.80" fill="#cccccc" stroke="#000000" stroke-width="1.00"/>
<circle cx="148.28" cy="228.80" r="17.80" fill="#cccccc" stroke="#000000" stroke-width="1.00"/>
<circle cx="219.46" cy="105.23" r="17.80" fill="#cccccc" stroke="#000000" stroke-width="1.00"/>
<circle cx="148.28" cy="167.15" r="17.80" fill="#cccccc" stroke="#000000" stroke-width="1.00"/>
<circle cx="237.25" cy="259.62" r="17.80" fill="#cccccc" stroke="#000000" stroke-width="1.00"/>
<circle cx="322.96" cy="275.53" r="17.80" fill="#cccccc" stroke="#000000" stroke-width="1.00"/>
<circle cx="130.48" cy="136.33" r="17.80" fill="#cccccc" stroke="#000000" stroke-width="1.00"/>
<circle cx="77.09" cy="290.44" r="17.80" fill="#cccccc" stroke="#000000" stroke-width="1.00"/>
<circle cx="183.87" cy="290.44" r="17.80" fill="#cccccc" stroke="#000000" stroke-width="1.00"/>
<circle cx="201.66" cy="197.97" r="17.80" fill="#cccccc" stroke="#000000" stroke-width="1.00"/>
<circle cx="166.07" cy="74.68" r="17.80" fill="#cccccc" stroke="#000000" stroke-width="1.00"/>
<circle cx="94.89" cy="197.97" r="17.80" fill="#cccccc" stroke="#000000" stroke-width="1.00"/>
<circle cx="183.87" cy="43.86" r="17.80" fill="#cccccc" stroke="#000000" stroke-width="1.00"/>
<circle cx="278.92" cy="256.59" r="17.80" fill="#cccccc" stroke="#000000" stroke-width="1.00"/>
<circle cx="219.46" cy="167.15" r="17.80" fill="#cccccc" stroke="#000000" stroke-width="1.00"/>
<circle cx="112.68" cy="228.80" r="17.80" fill="#cccccc" stroke="#000000" stroke-width="1.00"/>
<circle cx="148.28" cy="105.50" r="17.80" fill="#cccccc" stroke="#000000" stroke-width="1.00"/>
<circle cx="166.07" cy="259.62" r="17.80" fill="#cccccc" stroke="#000000" stroke-width="1.00"/>
<circle cx="355.28" cy="290.44" r="17.80" fill="#cccccc" stroke="#000000" stroke-width="1.00"/>
<circle cx="238.47" cy="197.28" r="17.80" fill="#cccccc" stroke="#000000" stroke-width="1.00"/>
<circle cx="94.89" cy="259.62" r="17.80" fill="#cccccc" stroke="#000000" stroke-width="1.00"/>
<circle cx="254.97" cy="164.69" r="17.80" fill="#cccccc" stroke="#000000" stroke-width="1.00"/>
<circle cx="166.07" cy="136.33" r="17.80" fill="#cccccc" stroke="#000000" stroke-width="1.00"/>
<circle cx="112.68" cy="290.44" r="17.80" fill="#cccccc" stroke="#000000" stroke-width="1.00"/>
<circle cx="255.05" cy="228.80" r="17.80" fill="#cccccc" stroke="#000000" stroke-width="1.00"/>
<circle cx="130.48" cy="259.62" r="17.80" fill="#cccccc" stroke="#000000" stroke-width="1.00"/>
<circle cx="244.27" cy="130.75" r="17.80" fill="#cccccc" stroke="#000000" stroke-width="1.00"/>
<circle cx="183.87" cy="167.15" r="17.80" fill="#cccccc" stroke="#000000" stroke-width="1.00"/>
<circle cx="166.07" cy="197.97" r="17.80" fill="#cccccc" stroke="#000000" stroke-width="1.00"/>
<circle cx="130.48" cy="197.97" r="17.80" fill="#cccccc" stroke="#000000" stroke-width="1.00"/>
<circle cx="77.09" cy="228.80" r="17.80" fill="#cccccc" stroke="#000000" stroke-width="1.00"/>
<circle cx="290.64" cy="290.44" r="17.80" fill="#cccccc" stroke="#000000" stroke-width="1.00"/>
<circle cx="59.30" cy="259.62" r="17.80" fill="#cccccc" stroke="#000000" stroke-width="1.00"/>
<circle cx="183.87" cy="228.80" r="17.80" fill="#cccccc" stroke="#000000" stroke-width="1.00"/>
<circle cx="201.90" cy="136.19" r="17.80" fill="#cccccc" stroke="#000000" stroke-width="1.00"/>
<circle cx="41.50" cy="290.44" r="17.80" fill="#cccccc" stroke="#000000" stroke-width="1.00"/>
<polygon points="10.68,308.24 389.32,308.24 182.47,10.68" fill="none" stroke="#000000" stroke-width="1.40"/>
</svg>