<svg xmlns="http://www.w3.org/2000/svg" width="390.5" height="400.0" viewBox="0 0 390.5 400.0">
<rect width="390.5" height="400.0" fill="white"/>
<circle cx="286.91" cy="335.24" r="19.44" fill="#cccccc" stroke="#000000" stroke-width="1.00"/>
<circle cx="189.73" cy="301.58" r="19.44" fill="#cccccc" stroke="#000000" stroke-width="1.00"/>
<circle cx="286.91" cy="267.91" r="19.44" fill="#cccccc" stroke="#000000" stroke-width="1.00"/>
<circle cx="189.73" cy="368.90" r="19.44" fill="#cccccc" stroke="#000000" stroke-width="1.00"/>
<circle cx="248.04" cy="335.24" r="19.44" fill="#cccccc" stroke="#000000" stroke-width="1.00"/>
<circle cx="82.10" cy="263.76" r="19.44" fill="#cccccc" stroke="#000000" stroke-width="1.00"/>
<circle cx="306.35" cy="301.58" r="19.44" fill="#cccccc" stroke="#000000" stroke-width="1.00"/>
<circle cx="325.78" cy="335.24" r="19.44" fill="#cccccc" stroke="#000000" stroke-width="1.00"/>
<circle cx="228.60" cy="166.92" r="19.44" fill="#cccccc" stroke="#000000" stroke-width="1.00"/>
<circle cx="170.30" cy="267.91" r="19.44" fill="#cccccc" stroke="#000000" stroke-width="1.00"/>
<circle cx="150.86" cy="301.58" r="19.44" fill="#cccccc" stroke="#000000" stroke-width="1.00"/>
<circle cx="109.28" cy="235.97" r="19.44" fill="#cccccc" stroke="#000000" stroke-width="1.00"/>
<circle cx="267.48" cy="368.90" r="19.44" fill="#cccccc" stroke="#000000" stroke-width="1.00"/>
<circle cx="92.56" cy="335.24" r="19.44" fill="#cccccc" stroke="#000000" stroke-width="1.00"/>
<circle cx="187.59" cy="165.73" r="19.44" fill="#cccccc" stroke="#000000" stroke-width="1.00"/>
<circle cx="345.22" cy="368.90" r="19.44" fill="#cccccc" stroke="#000000" stroke-width="1.00"/>
<circle cx="111.99" cy="301.58" r="19.44" fill="#cccccc" stroke="#000000" stroke-width="1.00"/>
<circle cx="140.78" cy="175.30" r="19.44" fill="#cccccc" stroke="#000000" stroke-width="1.00"/>
<circle cx="209.17" cy="133.26" r="19.44" fill="#cccccc" stroke="#000000" stroke-width="1.00"/>
<circle cx="228.60" cy="234.25" r="19.44" fill="#cccccc" stroke="#000000" stroke-width="1.00"/>
<circle cx="306.35" cy="368.90" r="19.44" fill="#cccccc" stroke="#000000" stroke-width="1.00"/>
<circle cx="228.60" cy="368.90" r="19.44" fill="#cccccc" stroke="#000000" stroke-width="1.00"/>
<circle cx="170.46" cy="129.69" r="19.44" fill="#cccccc" stroke="#000000" stroke-width="1.00"/>
<circle cx="209.17" cy="200.59" r="19.44" fill="#cccccc" stroke="#000000" stroke-width="1.00"/>
<circle cx="186.72" cy="94.38" r="19.44" fill="#cccccc" stroke="#000000" stroke-width="1.00"/>
<circle cx="209.17" cy="335.24" r="19.44" fill="#cccccc" stroke="#000000" stroke-width="1.00"/>
<circle cx="189.73" cy="234.25" r="19.44" fill="#cccccc" stroke="#000000" stroke-width="1.00"/>
<circle cx="209.17" cy="267.91" r="19.44" fill="#cccccc" stroke="#000000" stroke-width="1.00"/>
<circle cx="73.12" cy="301.58" r="19.44" fill="#cccccc" stroke="#000000" stroke-width="1.00"/>
<circle cx="53.69" cy="335.24" r="19.44" fill="#cccccc" stroke="#000000" stroke-width="1.00"/>
<circle cx="170.30" cy="200.59" r="19.44" fill="#cccccc" stroke="#000000" stroke-width="1.00"/>
<circle cx="131.43" cy="267.91" r="19.44" fill="#cccccc" stroke="#000000" stroke-width="1.00"/>
<circle cx="228.60" cy="301.58" r="19.44" fill="#cccccc" stroke="#000000" stroke-width="1.00"/>
<circle cx="111.99" cy="368.90" r="19.44" fill="#cccccc" stroke="#000000" stroke-width="1.00"/>
<circle cx="267.48" cy="301.58" r="19.44" fill="#cccccc" stroke="#000000" stroke-width="1.00"/>
<circle cx="108.60" cy="197.10" r="19.44" fill="#cccccc" stroke="#000000" stroke-width="1.00"/>
<circle cx="267.48" cy="234.25" r="19.44" fill="#cccccc" stroke="#000000" stroke-width="1.00"/>
<circle cx="149.15" cy="233.27" r="19.44" fill="#cccccc" stroke="#000000" stroke-width="1.00"/>
<circle cx="248.04" cy="267.91" r="19.44" fill="#cccccc" stroke="#000000" stroke-width="1.00"/>
<circle cx="131.43" cy="335.24" r="19.44" fill="#cccccc" stroke="#000000" stroke-width="1.00"/>
<circle cx="148.02" cy="97.95" r="19.44" fill="#cccccc" stroke="#000000" stroke-width="1.00"/>
<circle cx="73.12" cy="368.90" r="19.44" fill="#cccccc" stroke="#000000" stroke-width="1.00"/>
<circle cx="150.86" cy="368.90" r="19.44" fill="#cccccc" stroke="#000000" stroke-width="1.00"/>
<circle cx="132.35" cy="137.35" r="19.44" fill="#cccccc" stroke="#000000" stroke-width="1.00"/>
<circle cx="248.04" cy="200.59" r="19.44" fill="#cccccc" stroke="#000000" stroke-width="1.00"/>
<circle cx="170.30" cy="335.24" r="19.44" fill="#cccccc" stroke="#000000" stroke-width="1.00"/>
<circle cx="165.37" cy="59.96" r="19.44" fill="#cccccc" stroke="#000000" stroke-width="1.00"/>
<polygon points="11.66,388.34 378.88,388.34 161.41,11.66" fill="none" stroke="#000000" stroke-width="1.40"/>
</svg>