<svg xmlns="http://www.w3.org/2000/svg" width="400.0" height="399.2" viewBox="0 0 400.0 399.2">
<rect width="400.0" height="399.2" fill="white"/>
<circle cx="295.67" cy="333.98" r="19.57" fill="#cccccc" stroke="#000000" stroke-width="1.00"/>
<circle cx="197.84" cy="300.09" r="19.57" fill="#cccccc" stroke="#000000" stroke-width="1.00"/>
<circle cx="295.67" cy="266.20" r="19.57" fill="#cccccc" stroke="#000000" stroke-width="1.00"/>
<circle cx="197.84" cy="367.87" r="19.57" fill="#cccccc" stroke="#000000" stroke-width="1.00"/>
<circle cx="256.54" cy="333.98" r="19.57" fill="#cccccc" stroke="#000000" stroke-width="1.00"/>
<circle cx="86.99" cy="260.36" r="19.57" fill="#cccccc" stroke="#000000" stroke-width="1.00"/>
<circle cx="315.24" cy="300.09" r="19.57" fill="#cccccc" stroke="#000000" stroke-width="1.00"/>
<circle cx="334.80" cy="333.98" r="19.57" fill="#cccccc" stroke="#000000" stroke-width="1.00"/>
<circle cx="236.97" cy="164.54" r="19.57" fill="#cccccc" stroke="#000000" stroke-width="1.00"/>
<circle cx="41.31" cy="367.87" r="19.57" fill="#cccccc" stroke="#000000" stroke-width="1.00"/>
<circle cx="178.27" cy="266.20" r="19.57" fill="#cccccc" stroke="#000000" stroke-width="1.00"/>
<circle cx="158.71" cy="300.09" r="19.57" fill="#cccccc" stroke="#000000" stroke-width="1.00"/>
<circle cx="116.30" cy="234.43" r="19.57" fill="#cccccc" stroke="#000000" stroke-width="1.00"/>
<circle cx="276.11" cy="367.87" r="19.57" fill="#cccccc" stroke="#000000" stroke-width="1.00"/>
<circle cx="99.92" cy="331.37" r="19.57" fill="#cccccc" stroke="#000000" stroke-width="1.00"/>
<circle cx="196.46" cy="163.75" r="19.57" fill="#cccccc" stroke="#000000" stroke-width="1.00"/>
<circle cx="354.37" cy="367.87" r="19.57" fill="#cccccc" stroke="#000000" stroke-width="1.00"/>
<circle cx="111.62" cy="294.02" r="19.57" fill="#cccccc" stroke="#000000" stroke-width="1.00"/>
<circle cx="147.54" cy="174.20" r="19.57" fill="#cccccc" stroke="#000000" stroke-width="1.00"/>
<circle cx="217.41" cy="130.65" r="19.57" fill="#cccccc" stroke="#000000" stroke-width="1.00"/>
<circle cx="236.97" cy="232.31" r="19.57" fill="#cccccc" stroke="#000000" stroke-width="1.00"/>
<circle cx="315.24" cy="367.87" r="19.57" fill="#cccccc" stroke="#000000" stroke-width="1.00"/>
<circle cx="236.97" cy="367.87" r="19.57" fill="#cccccc" stroke="#000000" stroke-width="1.00"/>
<circle cx="178.33" cy="128.49" r="19.57" fill="#cccccc" stroke="#000000" stroke-width="1.00"/>
<circle cx="217.41" cy="198.43" r="19.57" fill="#cccccc" stroke="#000000" stroke-width="1.00"/>
<circle cx="196.00" cy="93.57" r="19.57" fill="#cccccc" stroke="#000000" stroke-width="1.00"/>
<circle cx="217.41" cy="333.98" r="19.57" fill="#cccccc" stroke="#000000" stroke-width="1.00"/>
<circle cx="197.84" cy="232.31" r="19.57" fill="#cccccc" stroke="#000000" stroke-width="1.00"/>
<circle cx="217.41" cy="266.20" r="19.57" fill="#cccccc" stroke="#000000" stroke-width="1.00"/>
<circle cx="71.69" cy="296.37" r="19.57" fill="#cccccc" stroke="#000000" stroke-width="1.00"/>
<circle cx="60.88" cy="333.98" r="19.57" fill="#cccccc" stroke="#000000" stroke-width="1.00"/>
<circle cx="178.27" cy="198.43" r="19.57" fill="#cccccc" stroke="#000000" stroke-width="1.00"/>
<circle cx="139.14" cy="266.20" r="19.57" fill="#cccccc" stroke="#000000" stroke-width="1.00"/>
<circle cx="236.97" cy="300.09" r="19.57" fill="#cccccc" stroke="#000000" stroke-width="1.00"/>
<circle cx="119.58" cy="367.87" r="19.57" fill="#cccccc" stroke="#000000" stroke-width="1.00"/>
<circle cx="276.11" cy="300.09" r="19.57" fill="#cccccc" stroke="#000000" stroke-width="1.00"/>
<circle cx="114.61" cy="195.33" r="19.57" fill="#cccccc" stroke="#000000" stroke-width="1.00"/>
<circle cx="276.11" cy="232.31" r="19.57" fill="#cccccc" stroke="#000000" stroke-width="1.00"/>
<circle cx="156.09" cy="230.93" r="19.57" fill="#cccccc" stroke="#000000" stroke-width="1.00"/>
<circle cx="256.54" cy="266.20" r="19.57" fill="#cccccc" stroke="#000000" stroke-width="1.00"/>
<circle cx="138.97" cy="333.89" r="19.57" fill="#cccccc" stroke="#000000" stroke-width="1.00"/>
<circle cx="156.93" cy="95.73" r="19.57" fill="#cccccc" stroke="#000000" stroke-width="1.00"/>
<circle cx="80.44" cy="367.87" r="19.57" fill="#cccccc" stroke="#000000" stroke-width="1.00"/>
<circle cx="158.71" cy="367.87" r="19.57" fill="#cccccc" stroke="#000000" stroke-width="1.00"/>
<circle cx="139.89" cy="135.82" r="19.57" fill="#cccccc" stroke="#000000" stroke-width="1.00"/>
<circle cx="256.54" cy="198.43" r="19.57" fill="#cccccc" stroke="#000000" stroke-width="1.00"/>
<circle cx="178.27" cy="333.98" r="19.57" fill="#cccccc" stroke="#000000" stroke-width="1.00"/>
<circle cx="172.71" cy="59.30" r="19.57" fill="#cccccc" stroke="#000000" stroke-width="1.00"/>
<polygon points="11.74,387.44 388.26,387.44 171.35,11.74" fill="none" stroke="#000000" stroke-width="1.40"/>
</svg>