<svg xmlns="http://www.w3.org/2000/svg" width="400.0" height="362.4" viewBox="0 0 400.0 362.4">
<rect width="400.0" height="362.4" fill="white"/>
<circle cx="358.76" cy="333.29" r="18.20" fill="#cccccc" stroke="#000000" stroke-width="1.00"/>
<circle cx="188.00" cy="270.26" r="18.20" fill="#cccccc" stroke="#000000" stroke-width="1.00"/>
<circle cx="305.72" cy="233.78" r="18.20" fill="#cccccc" stroke="#000000" stroke-width="1.00"/>
<circle cx="188.00" cy="333.29" r="18.20" fill="#cccccc" stroke="#000000" stroke-width="1.00"/>
<circle cx="269.02" cy="297.84" r="18.20" fill="#cccccc" stroke="#000000" stroke-width="1.00"/>
<circle cx="78.82" cy="270.26" r="18.20" fill="#cccccc" stroke="#000000" stroke-width="1.00"/>
<circle cx="305.41" cy="297.84" r="18.20" fill="#cccccc" stroke="#000000" stroke-width="1.00"/>
<circle cx="322.84" cy="265.90" r="18.20" fill="#cccccc" stroke="#000000" stroke-width="1.00"/>
<circle cx="260.50" cy="148.95" r="18.20" fill="#cccccc" stroke="#000000" stroke-width="1.00"/>
<circle cx="42.43" cy="333.29" r="18.20" fill="#cccccc" stroke="#000000" stroke-width="1.00"/>
<circle cx="169.80" cy="238.74" r="18.20" fill="#cccccc" stroke="#000000" stroke-width="1.00"/>
<circle cx="151.61" cy="270.26" r="18.20" fill="#cccccc" stroke="#000000" stroke-width="1.00"/>
<circle cx="115.22" cy="207.23" r="18.20" fill="#cccccc" stroke="#000000" stroke-width="1.00"/>
<circle cx="260.78" cy="333.29" r="18.20" fill="#cccccc" stroke="#000000" stroke-width="1.00"/>
<circle cx="97.02" cy="301.77" r="18.20" fill="#cccccc" stroke="#000000" stroke-width="1.00"/>
<circle cx="188.00" cy="144.19" r="18.20" fill="#cccccc" stroke="#000000" stroke-width="1.00"/>
<circle cx="341.65" cy="301.18" r="18.20" fill="#cccccc" stroke="#000000" stroke-width="1.00"/>
<circle cx="115.22" cy="270.26" r="18.20" fill="#cccccc" stroke="#000000" stroke-width="1.00"/>
<circle cx="169.80" cy="175.71" r="18.20" fill="#cccccc" stroke="#000000" stroke-width="1.00"/>
<circle cx="224.11" cy="148.69" r="18.20" fill="#cccccc" stroke="#000000" stroke-width="1.00"/>
<circle cx="235.99" cy="216.21" r="18.20" fill="#cccccc" stroke="#000000" stroke-width="1.00"/>
<circle cx="297.17" cy="333.29" r="18.20" fill="#cccccc" stroke="#000000" stroke-width="1.00"/>
<circle cx="224.39" cy="333.29" r="18.20" fill="#cccccc" stroke="#000000" stroke-width="1.00"/>
<circle cx="207.17" cy="113.26" r="18.20" fill="#cccccc" stroke="#000000" stroke-width="1.00"/>
<circle cx="205.71" cy="181.63" r="18.20" fill="#cccccc" stroke="#000000" stroke-width="1.00"/>
<circle cx="243.38" cy="116.84" r="18.20" fill="#cccccc" stroke="#000000" stroke-width="1.00"/>
<circle cx="206.19" cy="301.77" r="18.20" fill="#cccccc" stroke="#000000" stroke-width="1.00"/>
<circle cx="217.51" cy="248.97" r="18.20" fill="#cccccc" stroke="#000000" stroke-width="1.00"/>
<circle cx="253.90" cy="249.63" r="18.20" fill="#cccccc" stroke="#000000" stroke-width="1.00"/>
<circle cx="97.02" cy="238.74" r="18.20" fill="#cccccc" stroke="#000000" stroke-width="1.00"/>
<circle cx="60.63" cy="301.77" r="18.20" fill="#cccccc" stroke="#000000" stroke-width="1.00"/>
<circle cx="199.32" cy="217.45" r="18.20" fill="#cccccc" stroke="#000000" stroke-width="1.00"/>
<circle cx="133.41" cy="238.74" r="18.20" fill="#cccccc" stroke="#000000" stroke-width="1.00"/>
<circle cx="236.46" cy="281.57" r="18.20" fill="#cccccc" stroke="#000000" stroke-width="1.00"/>
<circle cx="115.22" cy="333.29" r="18.20" fill="#cccccc" stroke="#000000" stroke-width="1.00"/>
<circle cx="286.45" cy="265.90" r="18.20" fill="#cccccc" stroke="#000000" stroke-width="1.00"/>
<circle cx="151.61" cy="144.19" r="18.20" fill="#cccccc" stroke="#000000" stroke-width="1.00"/>
<circle cx="278.40" cy="182.53" r="18.20" fill="#cccccc" stroke="#000000" stroke-width="1.00"/>
<circle cx="151.61" cy="207.23" r="18.20" fill="#cccccc" stroke="#000000" stroke-width="1.00"/>
<circle cx="272.71" cy="218.48" r="18.20" fill="#cccccc" stroke="#000000" stroke-width="1.00"/>
<circle cx="133.41" cy="301.77" r="18.20" fill="#cccccc" stroke="#000000" stroke-width="1.00"/>
<circle cx="224.39" cy="81.20" r="18.20" fill="#cccccc" stroke="#000000" stroke-width="1.00"/>
<circle cx="78.82" cy="333.29" r="18.20" fill="#cccccc" stroke="#000000" stroke-width="1.00"/>
<circle cx="151.61" cy="333.29" r="18.20" fill="#cccccc" stroke="#000000" stroke-width="1.00"/>
<circle cx="169.80" cy="112.68" r="18.20" fill="#cccccc" stroke="#000000" stroke-width="1.00"/>
<circle cx="242.08" cy="180.33" r="18.20" fill="#cccccc" stroke="#000000" stroke-width="1.00"/>
<circle cx="169.80" cy="301.77" r="18.20" fill="#cccccc" stroke="#000000" stroke-width="1.00"/>
<circle cx="206.87" cy="49.10" r="18.20" fill="#cccccc" stroke="#000000" stroke-width="1.00"/>
<circle cx="188.00" cy="81.16" r="18.20" fill="#cccccc" stroke="#000000" stroke-width="1.00"/>
<circle cx="133.41" cy="175.71" r="18.20" fill="#cccccc" stroke="#000000" stroke-width="1.00"/>
<polygon points="10.92,351.49 389.08,351.49 207.54,10.92" fill="none" stroke="#000000" stroke-width="1.40"/>
</svg>