<svg xmlns="http://www.w3.org/2000/svg" width="400.0" height="349.1" viewBox="0 0 400.0 349.1">
<rect width="400.0" height="349.1" fill="white"/>
<circle cx="133.46" cy="289.83" r="17.75" fill="#cccccc" stroke="#000000" stroke-width="1.00"/>
<circle cx="60.65" cy="289.69" r="17.75" fill="#cccccc" stroke="#000000" stroke-width="1.00"/>
<circle cx="212.66" cy="295.69" r="17.75" fill="#cccccc" stroke="#000000" stroke-width="1.00"/>
<circle cx="237.83" cy="320.73" r="17.75" fill="#cccccc" stroke="#000000" stroke-width="1.00"/>
<circle cx="96.66" cy="290.60" r="17.75" fill="#cccccc" stroke="#000000" stroke-width="1.00"/>
<circle cx="42.12" cy="320.55" r="17.75" fill="#cccccc" stroke="#000000" stroke-width="1.00"/>
<circle cx="187.49" cy="320.73" r="17.75" fill="#cccccc" stroke="#000000" stroke-width="1.00"/>
<circle cx="273.34" cy="320.73" r="17.75" fill="#cccccc" stroke="#000000" stroke-width="1.00"/>
<circle cx="77.89" cy="320.73" r="17.75" fill="#cccccc" stroke="#000000" stroke-width="1.00"/>
<circle cx="150.94" cy="320.73" r="17.75" fill="#cccccc" stroke="#000000" stroke-width="1.00"/>
<circle cx="114.43" cy="259.85" r="17.75" fill="#cccccc" stroke="#000000" stroke-width="1.00"/>
<circle cx="115.44" cy="320.73" r="17.75" fill="#cccccc" stroke="#000000" stroke-width="1.00"/>
<circle cx="241.30" cy="108.25" r="17.75" fill="#cccccc" stroke="#000000" stroke-width="1.00"/>
<circle cx="257.48" cy="200.79" r="17.75" fill="#cccccc" stroke="#000000" stroke-width="1.00"/>
<circle cx="299.75" cy="286.41" r="17.75" fill="#cccccc" stroke="#000000" stroke-width="1.00"/>
<circle cx="326.10" cy="261.08" r="17.75" fill="#cccccc" stroke="#000000" stroke-width="1.00"/>
<circle cx="359.20" cy="320.73" r="17.75" fill="#cccccc" stroke="#000000" stroke-width="1.00"/>
<circle cx="292.98" cy="201.39" r="17.75" fill="#cccccc" stroke="#000000" stroke-width="1.00"/>
<circle cx="258.53" cy="139.30" r="17.75" fill="#cccccc" stroke="#000000" stroke-width="1.00"/>
<circle cx="275.76" cy="170.34" r="17.75" fill="#cccccc" stroke="#000000" stroke-width="1.00"/>
<circle cx="300.99" cy="235.98" r="17.75" fill="#cccccc" stroke="#000000" stroke-width="1.00"/>
<circle cx="308.84" cy="320.73" r="17.75" fill="#cccccc" stroke="#000000" stroke-width="1.00"/>
<circle cx="334.02" cy="295.69" r="17.75" fill="#cccccc" stroke="#000000" stroke-width="1.00"/>
<circle cx="254.96" cy="289.63" r="17.75" fill="#cccccc" stroke="#000000" stroke-width="1.00"/>
<circle cx="275.38" cy="260.58" r="17.75" fill="#cccccc" stroke="#000000" stroke-width="1.00"/>
<circle cx="206.85" cy="46.15" r="17.75" fill="#cccccc" stroke="#000000" stroke-width="1.00"/>
<circle cx="152.03" cy="137.48" r="17.75" fill="#cccccc" stroke="#000000" stroke-width="1.00"/>
<circle cx="97.20" cy="228.81" r="17.75" fill="#cccccc" stroke="#000000" stroke-width="1.00"/>
<circle cx="133.75" cy="167.92" r="17.75" fill="#cccccc" stroke="#000000" stroke-width="1.00"/>
<circle cx="223.03" cy="138.69" r="17.75" fill="#cccccc" stroke="#000000" stroke-width="1.00"/>
<circle cx="170.30" cy="107.04" r="17.75" fill="#cccccc" stroke="#000000" stroke-width="1.00"/>
<circle cx="188.58" cy="76.60" r="17.75" fill="#cccccc" stroke="#000000" stroke-width="1.00"/>
<circle cx="224.08" cy="77.20" r="17.75" fill="#cccccc" stroke="#000000" stroke-width="1.00"/>
<circle cx="205.80" cy="107.64" r="17.75" fill="#cccccc" stroke="#000000" stroke-width="1.00"/>
<circle cx="169.25" cy="168.53" r="17.75" fill="#cccccc" stroke="#000000" stroke-width="1.00"/>
<circle cx="187.53" cy="138.08" r="17.75" fill="#cccccc" stroke="#000000" stroke-width="1.00"/>
<circle cx="78.93" cy="259.25" r="17.75" fill="#cccccc" stroke="#000000" stroke-width="1.00"/>
<circle cx="115.48" cy="198.36" r="17.75" fill="#cccccc" stroke="#000000" stroke-width="1.00"/>
<circle cx="194.29" cy="265.15" r="17.75" fill="#cccccc" stroke="#000000" stroke-width="1.00"/>
<circle cx="250.21" cy="235.54" r="17.75" fill="#cccccc" stroke="#000000" stroke-width="1.00"/>
<circle cx="204.75" cy="169.13" r="17.75" fill="#cccccc" stroke="#000000" stroke-width="1.00"/>
<circle cx="176.05" cy="233.52" r="17.75" fill="#cccccc" stroke="#000000" stroke-width="1.00"/>
<circle cx="150.98" cy="198.97" r="17.75" fill="#cccccc" stroke="#000000" stroke-width="1.00"/>
<circle cx="211.55" cy="234.12" r="17.75" fill="#cccccc" stroke="#000000" stroke-width="1.00"/>
<circle cx="229.79" cy="264.59" r="17.75" fill="#cccccc" stroke="#000000" stroke-width="1.00"/>
<circle cx="169.22" cy="290.29" r="17.75" fill="#cccccc" stroke="#000000" stroke-width="1.00"/>
<circle cx="151.73" cy="259.39" r="17.75" fill="#cccccc" stroke="#000000" stroke-width="1.00"/>
<circle cx="186.48" cy="199.57" r="17.75" fill="#cccccc" stroke="#000000" stroke-width="1.00"/>
<circle cx="132.70" cy="229.41" r="17.75" fill="#cccccc" stroke="#000000" stroke-width="1.00"/>
<circle cx="240.26" cy="169.74" r="17.75" fill="#cccccc" stroke="#000000" stroke-width="1.00"/>
<circle cx="221.98" cy="200.18" r="17.75" fill="#cccccc" stroke="#000000" stroke-width="1.00"/>
<polygon points="10.65,338.49 389.35,338.49 207.46,10.65" fill="none" stroke="#000000" stroke-width="1.40"/>
</svg>