<svg xmlns="http://www.w3.org/2000/svg" width="400.0" height="350.9" viewBox="0 0 400.0 350.9">
<rect width="400.0" height="350.9" fill="white"/>
<circle cx="197.33" cy="46.16" r="17.70" fill="#cccccc" stroke="#000000" stroke-width="1.00"/>
<circle cx="163.29" cy="230.71" r="17.70" fill="#cccccc" stroke="#000000" stroke-width="1.00"/>
<circle cx="144.91" cy="138.82" r="17.70" fill="#cccccc" stroke="#000000" stroke-width="1.00"/>
<circle cx="340.65" cy="291.88" r="17.70" fill="#cccccc" stroke="#000000" stroke-width="1.00"/>
<circle cx="251.11" cy="138.35" r="17.70" fill="#cccccc" stroke="#000000" stroke-width="1.00"/>
<circle cx="127.75" cy="291.94" r="17.70" fill="#cccccc" stroke="#000000" stroke-width="1.00"/>
<circle cx="251.99" cy="261.33" r="17.70" fill="#cccccc" stroke="#000000" stroke-width="1.00"/>
<circle cx="123.91" cy="233.20" r="17.70" fill="#cccccc" stroke="#000000" stroke-width="1.00"/>
<circle cx="162.88" cy="169.32" r="17.70" fill="#cccccc" stroke="#000000" stroke-width="1.00"/>
<circle cx="179.83" cy="77.08" r="17.70" fill="#cccccc" stroke="#000000" stroke-width="1.00"/>
<circle cx="215.23" cy="76.85" r="17.70" fill="#cccccc" stroke="#000000" stroke-width="1.00"/>
<circle cx="127.49" cy="169.63" r="17.70" fill="#cccccc" stroke="#000000" stroke-width="1.00"/>
<circle cx="323.06" cy="322.60" r="17.70" fill="#cccccc" stroke="#000000" stroke-width="1.00"/>
<circle cx="162.34" cy="108.01" r="17.70" fill="#cccccc" stroke="#000000" stroke-width="1.00"/>
<circle cx="322.78" cy="261.25" r="17.70" fill="#cccccc" stroke="#000000" stroke-width="1.00"/>
<circle cx="269.48" cy="230.55" r="17.70" fill="#cccccc" stroke="#000000" stroke-width="1.00"/>
<circle cx="287.39" cy="261.33" r="17.70" fill="#cccccc" stroke="#000000" stroke-width="1.00"/>
<circle cx="304.88" cy="230.55" r="17.70" fill="#cccccc" stroke="#000000" stroke-width="1.00"/>
<circle cx="216.52" cy="322.60" r="17.70" fill="#cccccc" stroke="#000000" stroke-width="1.00"/>
<circle cx="358.55" cy="322.60" r="17.70" fill="#cccccc" stroke="#000000" stroke-width="1.00"/>
<circle cx="88.83" cy="237.97" r="17.70" fill="#cccccc" stroke="#000000" stroke-width="1.00"/>
<circle cx="180.31" cy="138.51" r="17.70" fill="#cccccc" stroke="#000000" stroke-width="1.00"/>
<circle cx="287.45" cy="322.60" r="17.70" fill="#cccccc" stroke="#000000" stroke-width="1.00"/>
<circle cx="180.85" cy="322.60" r="17.70" fill="#cccccc" stroke="#000000" stroke-width="1.00"/>
<circle cx="75.51" cy="314.87" r="17.70" fill="#cccccc" stroke="#000000" stroke-width="1.00"/>
<circle cx="251.51" cy="199.90" r="17.70" fill="#cccccc" stroke="#000000" stroke-width="1.00"/>
<circle cx="215.71" cy="138.35" r="17.70" fill="#cccccc" stroke="#000000" stroke-width="1.00"/>
<circle cx="233.13" cy="107.54" r="17.70" fill="#cccccc" stroke="#000000" stroke-width="1.00"/>
<circle cx="197.74" cy="107.62" r="17.70" fill="#cccccc" stroke="#000000" stroke-width="1.00"/>
<circle cx="198.69" cy="230.71" r="17.70" fill="#cccccc" stroke="#000000" stroke-width="1.00"/>
<circle cx="234.22" cy="291.94" r="17.70" fill="#cccccc" stroke="#000000" stroke-width="1.00"/>
<circle cx="64.33" cy="281.29" r="17.70" fill="#cccccc" stroke="#000000" stroke-width="1.00"/>
<circle cx="198.28" cy="169.16" r="17.70" fill="#cccccc" stroke="#000000" stroke-width="1.00"/>
<circle cx="305.26" cy="292.00" r="17.70" fill="#cccccc" stroke="#000000" stroke-width="1.00"/>
<circle cx="180.99" cy="261.37" r="17.70" fill="#cccccc" stroke="#000000" stroke-width="1.00"/>
<circle cx="110.06" cy="322.60" r="17.70" fill="#cccccc" stroke="#000000" stroke-width="1.00"/>
<circle cx="145.45" cy="261.29" r="17.70" fill="#cccccc" stroke="#000000" stroke-width="1.00"/>
<circle cx="216.39" cy="261.37" r="17.70" fill="#cccccc" stroke="#000000" stroke-width="1.00"/>
<circle cx="40.96" cy="322.60" r="17.70" fill="#cccccc" stroke="#000000" stroke-width="1.00"/>
<circle cx="251.92" cy="322.60" r="17.70" fill="#cccccc" stroke="#000000" stroke-width="1.00"/>
<circle cx="269.69" cy="291.98" r="17.70" fill="#cccccc" stroke="#000000" stroke-width="1.00"/>
<circle cx="286.91" cy="199.74" r="17.70" fill="#cccccc" stroke="#000000" stroke-width="1.00"/>
<circle cx="180.72" cy="199.90" r="17.70" fill="#cccccc" stroke="#000000" stroke-width="1.00"/>
<circle cx="145.32" cy="200.21" r="17.70" fill="#cccccc" stroke="#000000" stroke-width="1.00"/>
<circle cx="269.08" cy="169.16" r="17.70" fill="#cccccc" stroke="#000000" stroke-width="1.00"/>
<circle cx="234.09" cy="230.71" r="17.70" fill="#cccccc" stroke="#000000" stroke-width="1.00"/>
<circle cx="233.68" cy="169.16" r="17.70" fill="#cccccc" stroke="#000000" stroke-width="1.00"/>
<circle cx="163.15" cy="291.94" r="17.70" fill="#cccccc" stroke="#000000" stroke-width="1.00"/>
<circle cx="145.45" cy="322.60" r="17.70" fill="#cccccc" stroke="#000000" stroke-width="1.00"/>
<circle cx="198.69" cy="292.02" r="17.70" fill="#cccccc" stroke="#000000" stroke-width="1.00"/>
<circle cx="98.49" cy="272.02" r="17.70" fill="#cccccc" stroke="#000000" stroke-width="1.00"/>
<circle cx="109.92" cy="200.68" r="17.70" fill="#cccccc" stroke="#000000" stroke-width="1.00"/>
<circle cx="216.11" cy="199.90" r="17.70" fill="#cccccc" stroke="#000000" stroke-width="1.00"/>
<polygon points="10.62,340.30 389.38,340.30 197.09,10.62" fill="none" stroke="#000000" stroke-width="1.40"/>
</svg>