<svg xmlns="http://www.w3.org/2000/svg" width="400.0" height="346.8" viewBox="0 0 400.0 346.8">
<rect width="400.0" height="346.8" fill="white"/>
<circle cx="229.43" cy="44.11" r="17.00" fill="#cccccc" stroke="#000000" stroke-width="1.00"/>
<circle cx="210.33" cy="72.24" r="17.00" fill="#cccccc" stroke="#000000" stroke-width="1.00"/>
<circle cx="244.24" cy="74.72" r="17.00" fill="#cccccc" stroke="#000000" stroke-width="1.00"/>
<circle cx="191.22" cy="100.37" r="17.00" fill="#cccccc" stroke="#000000" stroke-width="1.00"/>
<circle cx="225.13" cy="102.85" r="17.00" fill="#cccccc" stroke="#000000" stroke-width="1.00"/>
<circle cx="259.05" cy="105.33" r="17.00" fill="#cccccc" stroke="#000000" stroke-width="1.00"/>
<circle cx="172.12" cy="128.50" r="17.00" fill="#cccccc" stroke="#000000" stroke-width="1.00"/>
<circle cx="206.03" cy="130.98" r="17.00" fill="#cccccc" stroke="#000000" stroke-width="1.00"/>
<circle cx="239.94" cy="133.46" r="17.00" fill="#cccccc" stroke="#000000" stroke-width="1.00"/>
<circle cx="273.85" cy="135.94" r="17.00" fill="#cccccc" stroke="#000000" stroke-width="1.00"/>
<circle cx="153.01" cy="156.62" r="17.00" fill="#cccccc" stroke="#000000" stroke-width="1.00"/>
<circle cx="186.92" cy="159.11" r="17.00" fill="#cccccc" stroke="#000000" stroke-width="1.00"/>
<circle cx="220.83" cy="161.59" r="17.00" fill="#cccccc" stroke="#000000" stroke-width="1.00"/>
<circle cx="254.75" cy="164.07" r="17.00" fill="#cccccc" stroke="#000000" stroke-width="1.00"/>
<circle cx="288.66" cy="166.55" r="17.00" fill="#cccccc" stroke="#000000" stroke-width="1.00"/>
<circle cx="133.90" cy="184.75" r="17.00" fill="#cccccc" stroke="#000000" stroke-width="1.00"/>
<circle cx="167.82" cy="187.23" r="17.00" fill="#cccccc" stroke="#000000" stroke-width="1.00"/>
<circle cx="201.73" cy="189.72" r="17.00" fill="#cccccc" stroke="#000000" stroke-width="1.00"/>
<circle cx="235.64" cy="192.20" r="17.00" fill="#cccccc" stroke="#000000" stroke-width="1.00"/>
<circle cx="269.55" cy="194.68" r="17.00" fill="#cccccc" stroke="#000000" stroke-width="1.00"/>
<circle cx="303.47" cy="197.16" r="17.00" fill="#cccccc" stroke="#000000" stroke-width="1.00"/>
<circle cx="114.80" cy="212.88" r="17.00" fill="#cccccc" stroke="#000000" stroke-width="1.00"/>
<circle cx="148.71" cy="215.36" r="17.00" fill="#cccccc" stroke="#000000" stroke-width="1.00"/>
<circle cx="182.62" cy="217.84" r="17.00" fill="#cccccc" stroke="#000000" stroke-width="1.00"/>
<circle cx="216.53" cy="220.33" r="17.00" fill="#cccccc" stroke="#000000" stroke-width="1.00"/>
<circle cx="250.45" cy="222.81" r="17.00" fill="#cccccc" stroke="#000000" stroke-width="1.00"/>
<circle cx="284.36" cy="225.29" r="17.00" fill="#cccccc" stroke="#000000" stroke-width="1.00"/>
<circle cx="318.27" cy="227.77" r="17.00" fill="#cccccc" stroke="#000000" stroke-width="1.00"/>
<circle cx="95.69" cy="241.01" r="17.00" fill="#cccccc" stroke="#000000" stroke-width="1.00"/>
<circle cx="129.60" cy="243.49" r="17.00" fill="#cccccc" stroke="#000000" stroke-width="1.00"/>
<circle cx="163.52" cy="245.97" r="17.00" fill="#cccccc" stroke="#000000" stroke-width="1.00"/>
<circle cx="197.43" cy="248.45" r="17.00" fill="#cccccc" stroke="#000000" stroke-width="1.00"/>
<circle cx="231.34" cy="250.94" r="17.00" fill="#cccccc" stroke="#000000" stroke-width="1.00"/>
<circle cx="265.25" cy="253.42" r="17.00" fill="#cccccc" stroke="#000000" stroke-width="1.00"/>
<circle cx="299.17" cy="255.90" r="17.00" fill="#cccccc" stroke="#000000" stroke-width="1.00"/>
<circle cx="333.08" cy="258.38" r="17.00" fill="#cccccc" stroke="#000000" stroke-width="1.00"/>
<circle cx="76.59" cy="269.13" r="17.00" fill="#cccccc" stroke="#000000" stroke-width="1.00"/>
<circle cx="109.20" cy="279.21" r="17.00" fill="#cccccc" stroke="#000000" stroke-width="1.00"/>
<circle cx="144.41" cy="274.10" r="17.00" fill="#cccccc" stroke="#000000" stroke-width="1.00"/>
<circle cx="178.10" cy="279.90" r="17.00" fill="#cccccc" stroke="#000000" stroke-width="1.00"/>
<circle cx="212.23" cy="279.06" r="17.00" fill="#cccccc" stroke="#000000" stroke-width="1.00"/>
<circle cx="246.11" cy="282.14" r="17.00" fill="#cccccc" stroke="#000000" stroke-width="1.00"/>
<circle cx="280.06" cy="284.03" r="17.00" fill="#cccccc" stroke="#000000" stroke-width="1.00"/>
<circle cx="313.97" cy="286.51" r="17.00" fill="#cccccc" stroke="#000000" stroke-width="1.00"/>
<circle cx="347.88" cy="288.99" r="17.00" fill="#cccccc" stroke="#000000" stroke-width="1.00"/>
<circle cx="42.30" cy="319.60" r="17.00" fill="#cccccc" stroke="#000000" stroke-width="1.00"/>
<circle cx="71.87" cy="302.81" r="17.00" fill="#cccccc" stroke="#000000" stroke-width="1.00"/>
<circle cx="101.43" cy="319.60" r="17.00" fill="#cccccc" stroke="#000000" stroke-width="1.00"/>
<circle cx="132.58" cy="305.98" r="17.00" fill="#cccccc" stroke="#000000" stroke-width="1.00"/>
<circle cx="163.74" cy="319.60" r="17.00" fill="#cccccc" stroke="#000000" stroke-width="1.00"/>
<circle cx="196.03" cy="308.96" r="17.00" fill="#cccccc" stroke="#000000" stroke-width="1.00"/>
<circle cx="228.33" cy="319.60" r="17.00" fill="#cccccc" stroke="#000000" stroke-width="1.00"/>
<circle cx="261.60" cy="312.58" r="17.00" fill="#cccccc" stroke="#000000" stroke-width="1.00"/>
<circle cx="294.87" cy="319.60" r="17.00" fill="#cccccc" stroke="#000000" stroke-width="1.00"/>
<circle cx="328.78" cy="317.12" r="17.00" fill="#cccccc" stroke="#000000" stroke-width="1.00"/>
<circle cx="362.69" cy="319.60" r="17.00" fill="#cccccc" stroke="#000000" stroke-width="1.00"/>
<polygon points="10.20,336.61 389.80,336.61 231.92,10.20" fill="none" stroke="#000000" stroke-width="1.40"/>
</svg>