<svg xmlns="http://www.w3.org/2000/svg" width="400.0" height="315.3" viewBox="0 0 400.0 315.3">
<rect width="400.0" height="315.3" fill="white"/>
<circle cx="276.82" cy="252.31" r="16.05" fill="#cccccc" stroke="#000000" stroke-width="1.00"/>
<circle cx="117.71" cy="206.19" r="16.05" fill="#cccccc" stroke="#000000" stroke-width="1.00"/>
<circle cx="69.55" cy="233.99" r="16.05" fill="#cccccc" stroke="#000000" stroke-width="1.00"/>
<circle cx="181.93" cy="39.35" r="16.05" fill="#cccccc" stroke="#000000" stroke-width="1.00"/>
<circle cx="197.98" cy="178.38" r="16.05" fill="#cccccc" stroke="#000000" stroke-width="1.00"/>
<circle cx="269.63" cy="170.59" r="16.05" fill="#cccccc" stroke="#000000" stroke-width="1.00"/>
<circle cx="37.44" cy="289.61" r="16.05" fill="#cccccc" stroke="#000000" stroke-width="1.00"/>
<circle cx="149.82" cy="150.57" r="16.05" fill="#cccccc" stroke="#000000" stroke-width="1.00"/>
<circle cx="214.03" cy="150.57" r="16.05" fill="#cccccc" stroke="#000000" stroke-width="1.00"/>
<circle cx="197.98" cy="122.77" r="16.05" fill="#cccccc" stroke="#000000" stroke-width="1.00"/>
<circle cx="69.55" cy="289.61" r="16.05" fill="#cccccc" stroke="#000000" stroke-width="1.00"/>
<circle cx="53.49" cy="261.80" r="16.05" fill="#cccccc" stroke="#000000" stroke-width="1.00"/>
<circle cx="85.60" cy="206.19" r="16.05" fill="#cccccc" stroke="#000000" stroke-width="1.00"/>
<circle cx="133.76" cy="289.61" r="16.05" fill="#cccccc" stroke="#000000" stroke-width="1.00"/>
<circle cx="310.13" cy="220.23" r="16.05" fill="#cccccc" stroke="#000000" stroke-width="1.00"/>
<circle cx="165.87" cy="178.38" r="16.05" fill="#cccccc" stroke="#000000" stroke-width="1.00"/>
<circle cx="149.82" cy="94.96" r="16.05" fill="#cccccc" stroke="#000000" stroke-width="1.00"/>
<circle cx="291.57" cy="194.03" r="16.05" fill="#cccccc" stroke="#000000" stroke-width="1.00"/>
<circle cx="165.87" cy="67.15" r="16.05" fill="#cccccc" stroke="#000000" stroke-width="1.00"/>
<circle cx="273.25" cy="220.40" r="16.05" fill="#cccccc" stroke="#000000" stroke-width="1.00"/>
<circle cx="133.76" cy="233.99" r="16.05" fill="#cccccc" stroke="#000000" stroke-width="1.00"/>
<circle cx="262.20" cy="289.61" r="16.05" fill="#cccccc" stroke="#000000" stroke-width="1.00"/>
<circle cx="181.93" cy="150.57" r="16.05" fill="#cccccc" stroke="#000000" stroke-width="1.00"/>
<circle cx="292.87" cy="280.12" r="16.05" fill="#cccccc" stroke="#000000" stroke-width="1.00"/>
<circle cx="230.07" cy="121.61" r="16.05" fill="#cccccc" stroke="#000000" stroke-width="1.00"/>
<circle cx="323.55" cy="289.61" r="16.05" fill="#cccccc" stroke="#000000" stroke-width="1.00"/>
<circle cx="101.66" cy="233.99" r="16.05" fill="#cccccc" stroke="#000000" stroke-width="1.00"/>
<circle cx="246.14" cy="261.80" r="16.05" fill="#cccccc" stroke="#000000" stroke-width="1.00"/>
<circle cx="254.77" cy="142.12" r="16.05" fill="#cccccc" stroke="#000000" stroke-width="1.00"/>
<circle cx="230.09" cy="289.61" r="16.05" fill="#cccccc" stroke="#000000" stroke-width="1.00"/>
<circle cx="181.93" cy="261.80" r="16.05" fill="#cccccc" stroke="#000000" stroke-width="1.00"/>
<circle cx="165.87" cy="233.99" r="16.05" fill="#cccccc" stroke="#000000" stroke-width="1.00"/>
<circle cx="214.03" cy="261.80" r="16.05" fill="#cccccc" stroke="#000000" stroke-width="1.00"/>
<circle cx="339.60" cy="261.80" r="16.05" fill="#cccccc" stroke="#000000" stroke-width="1.00"/>
<circle cx="308.93" cy="252.31" r="16.05" fill="#cccccc" stroke="#000000" stroke-width="1.00"/>
<circle cx="101.66" cy="178.38" r="16.05" fill="#cccccc" stroke="#000000" stroke-width="1.00"/>
<circle cx="133.76" cy="178.38" r="16.05" fill="#cccccc" stroke="#000000" stroke-width="1.00"/>
<circle cx="117.71" cy="261.80" r="16.05" fill="#cccccc" stroke="#000000" stroke-width="1.00"/>
<circle cx="149.82" cy="206.19" r="16.05" fill="#cccccc" stroke="#000000" stroke-width="1.00"/>
<circle cx="218.90" cy="91.51" r="16.05" fill="#cccccc" stroke="#000000" stroke-width="1.00"/>
<circle cx="197.98" cy="233.99" r="16.05" fill="#cccccc" stroke="#000000" stroke-width="1.00"/>
<circle cx="232.13" cy="232.86" r="16.05" fill="#cccccc" stroke="#000000" stroke-width="1.00"/>
<circle cx="149.82" cy="261.80" r="16.05" fill="#cccccc" stroke="#000000" stroke-width="1.00"/>
<circle cx="197.98" cy="67.15" r="16.05" fill="#cccccc" stroke="#000000" stroke-width="1.00"/>
<circle cx="85.60" cy="261.80" r="16.05" fill="#cccccc" stroke="#000000" stroke-width="1.00"/>
<circle cx="165.87" cy="289.61" r="16.05" fill="#cccccc" stroke="#000000" stroke-width="1.00"/>
<circle cx="117.71" cy="150.57" r="16.05" fill="#cccccc" stroke="#000000" stroke-width="1.00"/>
<circle cx="355.83" cy="289.61" r="16.05" fill="#cccccc" stroke="#000000" stroke-width="1.00"/>
<circle cx="165.87" cy="122.77" r="16.05" fill="#cccccc" stroke="#000000" stroke-width="1.00"/>
<circle cx="197.98" cy="289.61" r="16.05" fill="#cccccc" stroke="#000000" stroke-width="1.00"/>
<circle cx="181.93" cy="94.96" r="16.05" fill="#cccccc" stroke="#000000" stroke-width="1.00"/>
<circle cx="246.02" cy="203.39" r="16.05" fill="#cccccc" stroke="#000000" stroke-width="1.00"/>
<circle cx="181.93" cy="206.19" r="16.05" fill="#cccccc" stroke="#000000" stroke-width="1.00"/>
<circle cx="237.57" cy="172.41" r="16.05" fill="#cccccc" stroke="#000000" stroke-width="1.00"/>
<circle cx="214.03" cy="206.19" r="16.05" fill="#cccccc" stroke="#000000" stroke-width="1.00"/>
<circle cx="133.76" cy="122.77" r="16.05" fill="#cccccc" stroke="#000000" stroke-width="1.00"/>
<circle cx="101.66" cy="289.61" r="16.05" fill="#cccccc" stroke="#000000" stroke-width="1.00"/>
<polygon points="9.63,305.66 390.37,305.66 180.54,9.63" fill="none" stroke="#000000" stroke-width="1.40"/>
</svg>