<svg xmlns="http://www.w3.org/2000/svg" width="400.0" height="311.8" viewBox="0 0 400.0 311.8">
<rect width="400.0" height="311.8" fill="white"/>
<circle cx="211.80" cy="258.82" r="15.89" fill="#cccccc" stroke="#000000" stroke-width="1.00"/>
<circle cx="323.77" cy="286.34" r="15.89" fill="#cccccc" stroke="#000000" stroke-width="1.00"/>
<circle cx="164.14" cy="121.24" r="15.89" fill="#cccccc" stroke="#000000" stroke-width="1.00"/>
<circle cx="339.27" cy="258.60" r="15.89" fill="#cccccc" stroke="#000000" stroke-width="1.00"/>
<circle cx="148.25" cy="203.79" r="15.89" fill="#cccccc" stroke="#000000" stroke-width="1.00"/>
<circle cx="288.15" cy="217.67" r="15.89" fill="#cccccc" stroke="#000000" stroke-width="1.00"/>
<circle cx="148.25" cy="148.76" r="15.89" fill="#cccccc" stroke="#000000" stroke-width="1.00"/>
<circle cx="68.82" cy="286.34" r="15.89" fill="#cccccc" stroke="#000000" stroke-width="1.00"/>
<circle cx="180.02" cy="148.76" r="15.89" fill="#cccccc" stroke="#000000" stroke-width="1.00"/>
<circle cx="247.05" cy="201.61" r="15.89" fill="#cccccc" stroke="#000000" stroke-width="1.00"/>
<circle cx="100.59" cy="286.34" r="15.89" fill="#cccccc" stroke="#000000" stroke-width="1.00"/>
<circle cx="132.36" cy="121.24" r="15.89" fill="#cccccc" stroke="#000000" stroke-width="1.00"/>
<circle cx="100.59" cy="176.28" r="15.89" fill="#cccccc" stroke="#000000" stroke-width="1.00"/>
<circle cx="195.91" cy="121.24" r="15.89" fill="#cccccc" stroke="#000000" stroke-width="1.00"/>
<circle cx="286.64" cy="185.93" r="15.89" fill="#cccccc" stroke="#000000" stroke-width="1.00"/>
<circle cx="100.59" cy="231.31" r="15.89" fill="#cccccc" stroke="#000000" stroke-width="1.00"/>
<circle cx="116.48" cy="203.79" r="15.89" fill="#cccccc" stroke="#000000" stroke-width="1.00"/>
<circle cx="180.02" cy="203.79" r="15.89" fill="#cccccc" stroke="#000000" stroke-width="1.00"/>
<circle cx="84.71" cy="258.82" r="15.89" fill="#cccccc" stroke="#000000" stroke-width="1.00"/>
<circle cx="180.02" cy="258.82" r="15.89" fill="#cccccc" stroke="#000000" stroke-width="1.00"/>
<circle cx="116.48" cy="258.82" r="15.89" fill="#cccccc" stroke="#000000" stroke-width="1.00"/>
<circle cx="164.14" cy="231.31" r="15.89" fill="#cccccc" stroke="#000000" stroke-width="1.00"/>
<circle cx="259.45" cy="231.31" r="15.89" fill="#cccccc" stroke="#000000" stroke-width="1.00"/>
<circle cx="252.83" cy="139.24" r="15.89" fill="#cccccc" stroke="#000000" stroke-width="1.00"/>
<circle cx="291.23" cy="286.34" r="15.89" fill="#cccccc" stroke="#000000" stroke-width="1.00"/>
<circle cx="148.25" cy="258.82" r="15.89" fill="#cccccc" stroke="#000000" stroke-width="1.00"/>
<circle cx="116.48" cy="148.76" r="15.89" fill="#cccccc" stroke="#000000" stroke-width="1.00"/>
<circle cx="84.71" cy="203.79" r="15.89" fill="#cccccc" stroke="#000000" stroke-width="1.00"/>
<circle cx="132.36" cy="176.28" r="15.89" fill="#cccccc" stroke="#000000" stroke-width="1.00"/>
<circle cx="227.68" cy="176.28" r="15.89" fill="#cccccc" stroke="#000000" stroke-width="1.00"/>
<circle cx="275.45" cy="258.76" r="15.89" fill="#cccccc" stroke="#000000" stroke-width="1.00"/>
<circle cx="258.91" cy="170.42" r="15.89" fill="#cccccc" stroke="#000000" stroke-width="1.00"/>
<circle cx="180.02" cy="93.73" r="15.89" fill="#cccccc" stroke="#000000" stroke-width="1.00"/>
<circle cx="195.91" cy="176.28" r="15.89" fill="#cccccc" stroke="#000000" stroke-width="1.00"/>
<circle cx="164.14" cy="176.28" r="15.89" fill="#cccccc" stroke="#000000" stroke-width="1.00"/>
<circle cx="68.82" cy="231.31" r="15.89" fill="#cccccc" stroke="#000000" stroke-width="1.00"/>
<circle cx="132.36" cy="231.31" r="15.89" fill="#cccccc" stroke="#000000" stroke-width="1.00"/>
<circle cx="132.36" cy="286.34" r="15.89" fill="#cccccc" stroke="#000000" stroke-width="1.00"/>
<circle cx="227.68" cy="286.34" r="15.89" fill="#cccccc" stroke="#000000" stroke-width="1.00"/>
<circle cx="217.10" cy="89.89" r="15.89" fill="#cccccc" stroke="#000000" stroke-width="1.00"/>
<circle cx="164.14" cy="286.34" r="15.89" fill="#cccccc" stroke="#000000" stroke-width="1.00"/>
<circle cx="180.02" cy="38.70" r="15.89" fill="#cccccc" stroke="#000000" stroke-width="1.00"/>
<circle cx="227.65" cy="119.86" r="15.89" fill="#cccccc" stroke="#000000" stroke-width="1.00"/>
<circle cx="148.25" cy="93.73" r="15.89" fill="#cccccc" stroke="#000000" stroke-width="1.00"/>
<circle cx="259.45" cy="286.34" r="15.89" fill="#cccccc" stroke="#000000" stroke-width="1.00"/>
<circle cx="212.46" cy="148.39" r="15.89" fill="#cccccc" stroke="#000000" stroke-width="1.00"/>
<circle cx="355.73" cy="286.34" r="15.89" fill="#cccccc" stroke="#000000" stroke-width="1.00"/>
<circle cx="227.68" cy="231.31" r="15.89" fill="#cccccc" stroke="#000000" stroke-width="1.00"/>
<circle cx="317.83" cy="229.00" r="15.89" fill="#cccccc" stroke="#000000" stroke-width="1.00"/>
<circle cx="211.80" cy="203.79" r="15.89" fill="#cccccc" stroke="#000000" stroke-width="1.00"/>
<circle cx="195.91" cy="231.31" r="15.89" fill="#cccccc" stroke="#000000" stroke-width="1.00"/>
<circle cx="195.91" cy="286.34" r="15.89" fill="#cccccc" stroke="#000000" stroke-width="1.00"/>
<circle cx="164.14" cy="66.21" r="15.89" fill="#cccccc" stroke="#000000" stroke-width="1.00"/>
<circle cx="243.57" cy="258.82" r="15.89" fill="#cccccc" stroke="#000000" stroke-width="1.00"/>
<circle cx="195.91" cy="66.21" r="15.89" fill="#cccccc" stroke="#000000" stroke-width="1.00"/>
<circle cx="307.50" cy="259.05" r="15.89" fill="#cccccc" stroke="#000000" stroke-width="1.00"/>
<circle cx="37.05" cy="286.34" r="15.89" fill="#cccccc" stroke="#000000" stroke-width="1.00"/>
<circle cx="52.93" cy="258.82" r="15.89" fill="#cccccc" stroke="#000000" stroke-width="1.00"/>
<polygon points="9.53,302.22 390.47,302.22 178.52,9.53" fill="none" stroke="#000000" stroke-width="1.40"/>
</svg>