<svg xmlns="http://www.w3.org/2000/svg" width="400.0" height="362.2" viewBox="0 0 400.0 362.2">
<rect width="400.0" height="362.2" fill="white"/>
<circle cx="294.40" cy="219.93" r="16.68" fill="#cccccc" stroke="#000000" stroke-width="1.00"/>
<circle cx="211.01" cy="191.04" r="16.68" fill="#cccccc" stroke="#000000" stroke-width="1.00"/>
<circle cx="53.49" cy="306.04" r="16.68" fill="#cccccc" stroke="#000000" stroke-width="1.00"/>
<circle cx="210.06" cy="73.84" r="16.68" fill="#cccccc" stroke="#000000" stroke-width="1.00"/>
<circle cx="194.34" cy="277.70" r="16.68" fill="#cccccc" stroke="#000000" stroke-width="1.00"/>
<circle cx="344.43" cy="306.58" r="16.68" fill="#cccccc" stroke="#000000" stroke-width="1.00"/>
<circle cx="261.05" cy="219.93" r="16.68" fill="#cccccc" stroke="#000000" stroke-width="1.00"/>
<circle cx="144.77" cy="195.30" r="16.68" fill="#cccccc" stroke="#000000" stroke-width="1.00"/>
<circle cx="327.75" cy="277.70" r="16.68" fill="#cccccc" stroke="#000000" stroke-width="1.00"/>
<circle cx="161.24" cy="166.30" r="16.68" fill="#cccccc" stroke="#000000" stroke-width="1.00"/>
<circle cx="261.05" cy="162.16" r="16.68" fill="#cccccc" stroke="#000000" stroke-width="1.00"/>
<circle cx="177.66" cy="306.58" r="16.68" fill="#cccccc" stroke="#000000" stroke-width="1.00"/>
<circle cx="194.34" cy="335.47" r="16.68" fill="#cccccc" stroke="#000000" stroke-width="1.00"/>
<circle cx="160.98" cy="335.47" r="16.68" fill="#cccccc" stroke="#000000" stroke-width="1.00"/>
<circle cx="227.69" cy="219.93" r="16.68" fill="#cccccc" stroke="#000000" stroke-width="1.00"/>
<circle cx="227.69" cy="104.39" r="16.68" fill="#cccccc" stroke="#000000" stroke-width="1.00"/>
<circle cx="94.27" cy="335.47" r="16.68" fill="#cccccc" stroke="#000000" stroke-width="1.00"/>
<circle cx="194.34" cy="162.16" r="16.68" fill="#cccccc" stroke="#000000" stroke-width="1.00"/>
<circle cx="361.11" cy="335.47" r="16.68" fill="#cccccc" stroke="#000000" stroke-width="1.00"/>
<circle cx="149.90" cy="288.09" r="16.68" fill="#cccccc" stroke="#000000" stroke-width="1.00"/>
<circle cx="294.40" cy="335.47" r="16.68" fill="#cccccc" stroke="#000000" stroke-width="1.00"/>
<circle cx="133.93" cy="258.81" r="16.68" fill="#cccccc" stroke="#000000" stroke-width="1.00"/>
<circle cx="86.43" cy="244.27" r="16.68" fill="#cccccc" stroke="#000000" stroke-width="1.00"/>
<circle cx="244.37" cy="191.04" r="16.68" fill="#cccccc" stroke="#000000" stroke-width="1.00"/>
<circle cx="167.28" cy="258.19" r="16.68" fill="#cccccc" stroke="#000000" stroke-width="1.00"/>
<circle cx="37.80" cy="335.47" r="16.68" fill="#cccccc" stroke="#000000" stroke-width="1.00"/>
<circle cx="127.63" cy="335.47" r="16.68" fill="#cccccc" stroke="#000000" stroke-width="1.00"/>
<circle cx="127.89" cy="166.53" r="16.68" fill="#cccccc" stroke="#000000" stroke-width="1.00"/>
<circle cx="150.00" cy="228.44" r="16.68" fill="#cccccc" stroke="#000000" stroke-width="1.00"/>
<circle cx="211.01" cy="248.81" r="16.68" fill="#cccccc" stroke="#000000" stroke-width="1.00"/>
<circle cx="277.72" cy="248.81" r="16.68" fill="#cccccc" stroke="#000000" stroke-width="1.00"/>
<circle cx="244.37" cy="306.58" r="16.68" fill="#cccccc" stroke="#000000" stroke-width="1.00"/>
<circle cx="120.06" cy="302.99" r="16.68" fill="#cccccc" stroke="#000000" stroke-width="1.00"/>
<circle cx="277.72" cy="306.58" r="16.68" fill="#cccccc" stroke="#000000" stroke-width="1.00"/>
<circle cx="244.37" cy="133.27" r="16.68" fill="#cccccc" stroke="#000000" stroke-width="1.00"/>
<circle cx="143.58" cy="137.10" r="16.68" fill="#cccccc" stroke="#000000" stroke-width="1.00"/>
<circle cx="183.96" cy="229.31" r="16.68" fill="#cccccc" stroke="#000000" stroke-width="1.00"/>
<circle cx="86.71" cy="302.99" r="16.68" fill="#cccccc" stroke="#000000" stroke-width="1.00"/>
<circle cx="176.77" cy="133.80" r="16.68" fill="#cccccc" stroke="#000000" stroke-width="1.00"/>
<circle cx="210.50" cy="132.98" r="16.68" fill="#cccccc" stroke="#000000" stroke-width="1.00"/>
<circle cx="261.05" cy="335.47" r="16.68" fill="#cccccc" stroke="#000000" stroke-width="1.00"/>
<circle cx="104.09" cy="273.70" r="16.68" fill="#cccccc" stroke="#000000" stroke-width="1.00"/>
<circle cx="227.69" cy="335.47" r="16.68" fill="#cccccc" stroke="#000000" stroke-width="1.00"/>
<circle cx="227.69" cy="277.70" r="16.68" fill="#cccccc" stroke="#000000" stroke-width="1.00"/>
<circle cx="176.72" cy="74.96" r="16.68" fill="#cccccc" stroke="#000000" stroke-width="1.00"/>
<circle cx="277.72" cy="191.04" r="16.68" fill="#cccccc" stroke="#000000" stroke-width="1.00"/>
<circle cx="211.01" cy="306.58" r="16.68" fill="#cccccc" stroke="#000000" stroke-width="1.00"/>
<circle cx="311.08" cy="306.58" r="16.68" fill="#cccccc" stroke="#000000" stroke-width="1.00"/>
<circle cx="227.69" cy="162.16" r="16.68" fill="#cccccc" stroke="#000000" stroke-width="1.00"/>
<circle cx="193.08" cy="44.68" r="16.68" fill="#cccccc" stroke="#000000" stroke-width="1.00"/>
<circle cx="294.40" cy="277.70" r="16.68" fill="#cccccc" stroke="#000000" stroke-width="1.00"/>
<circle cx="244.37" cy="248.81" r="16.68" fill="#cccccc" stroke="#000000" stroke-width="1.00"/>
<circle cx="111.48" cy="197.31" r="16.68" fill="#cccccc" stroke="#000000" stroke-width="1.00"/>
<circle cx="178.10" cy="196.47" r="16.68" fill="#cccccc" stroke="#000000" stroke-width="1.00"/>
<circle cx="311.08" cy="248.81" r="16.68" fill="#cccccc" stroke="#000000" stroke-width="1.00"/>
<circle cx="116.70" cy="230.25" r="16.68" fill="#cccccc" stroke="#000000" stroke-width="1.00"/>
<circle cx="161.02" cy="104.40" r="16.68" fill="#cccccc" stroke="#000000" stroke-width="1.00"/>
<circle cx="261.05" cy="277.70" r="16.68" fill="#cccccc" stroke="#000000" stroke-width="1.00"/>
<circle cx="194.36" cy="103.27" r="16.68" fill="#cccccc" stroke="#000000" stroke-width="1.00"/>
<circle cx="70.74" cy="273.70" r="16.68" fill="#cccccc" stroke="#000000" stroke-width="1.00"/>
<circle cx="327.75" cy="335.47" r="16.68" fill="#cccccc" stroke="#000000" stroke-width="1.00"/>
<polygon points="10.01,352.15 389.99,352.15 192.46,10.01" fill="none" stroke="#000000" stroke-width="1.40"/>
</svg>