<svg xmlns="http://www.w3.org/2000/svg" width="400.0" height="334.4" viewBox="0 0 400.0 334.4">
<rect width="400.0" height="334.4" fill="white"/>
<circle cx="298.73" cy="253.42" r="15.99" fill="#cccccc" stroke="#000000" stroke-width="1.00"/>
<circle cx="222.39" cy="155.55" r="15.99" fill="#cccccc" stroke="#000000" stroke-width="1.00"/>
<circle cx="234.76" cy="198.02" r="15.99" fill="#cccccc" stroke="#000000" stroke-width="1.00"/>
<circle cx="122.82" cy="281.12" r="15.99" fill="#cccccc" stroke="#000000" stroke-width="1.00"/>
<circle cx="346.71" cy="281.12" r="15.99" fill="#cccccc" stroke="#000000" stroke-width="1.00"/>
<circle cx="190.75" cy="67.59" r="15.99" fill="#cccccc" stroke="#000000" stroke-width="1.00"/>
<circle cx="38.60" cy="308.82" r="15.99" fill="#cccccc" stroke="#000000" stroke-width="1.00"/>
<circle cx="330.72" cy="308.82" r="15.99" fill="#cccccc" stroke="#000000" stroke-width="1.00"/>
<circle cx="222.74" cy="68.82" r="15.99" fill="#cccccc" stroke="#000000" stroke-width="1.00"/>
<circle cx="298.73" cy="198.02" r="15.99" fill="#cccccc" stroke="#000000" stroke-width="1.00"/>
<circle cx="218.77" cy="225.72" r="15.99" fill="#cccccc" stroke="#000000" stroke-width="1.00"/>
<circle cx="106.82" cy="308.82" r="15.99" fill="#cccccc" stroke="#000000" stroke-width="1.00"/>
<circle cx="160.15" cy="168.02" r="15.99" fill="#cccccc" stroke="#000000" stroke-width="1.00"/>
<circle cx="314.73" cy="225.72" r="15.99" fill="#cccccc" stroke="#000000" stroke-width="1.00"/>
<circle cx="173.68" cy="94.64" r="15.99" fill="#cccccc" stroke="#000000" stroke-width="1.00"/>
<circle cx="111.13" cy="193.82" r="15.99" fill="#cccccc" stroke="#000000" stroke-width="1.00"/>
<circle cx="250.76" cy="281.12" r="15.99" fill="#cccccc" stroke="#000000" stroke-width="1.00"/>
<circle cx="143.12" cy="195.12" r="15.99" fill="#cccccc" stroke="#000000" stroke-width="1.00"/>
<circle cx="266.75" cy="253.42" r="15.99" fill="#cccccc" stroke="#000000" stroke-width="1.00"/>
<circle cx="186.79" cy="281.12" r="15.99" fill="#cccccc" stroke="#000000" stroke-width="1.00"/>
<circle cx="239.77" cy="95.89" r="15.99" fill="#cccccc" stroke="#000000" stroke-width="1.00"/>
<circle cx="207.81" cy="40.53" r="15.99" fill="#cccccc" stroke="#000000" stroke-width="1.00"/>
<circle cx="250.76" cy="170.32" r="15.99" fill="#cccccc" stroke="#000000" stroke-width="1.00"/>
<circle cx="234.76" cy="253.42" r="15.99" fill="#cccccc" stroke="#000000" stroke-width="1.00"/>
<circle cx="154.80" cy="281.12" r="15.99" fill="#cccccc" stroke="#000000" stroke-width="1.00"/>
<circle cx="138.81" cy="308.82" r="15.99" fill="#cccccc" stroke="#000000" stroke-width="1.00"/>
<circle cx="250.76" cy="225.72" r="15.99" fill="#cccccc" stroke="#000000" stroke-width="1.00"/>
<circle cx="266.75" cy="142.62" r="15.99" fill="#cccccc" stroke="#000000" stroke-width="1.00"/>
<circle cx="282.74" cy="170.32" r="15.99" fill="#cccccc" stroke="#000000" stroke-width="1.00"/>
<circle cx="238.38" cy="127.85" r="15.99" fill="#cccccc" stroke="#000000" stroke-width="1.00"/>
<circle cx="266.75" cy="198.02" r="15.99" fill="#cccccc" stroke="#000000" stroke-width="1.00"/>
<circle cx="89.28" cy="282.07" r="15.99" fill="#cccccc" stroke="#000000" stroke-width="1.00"/>
<circle cx="218.77" cy="281.12" r="15.99" fill="#cccccc" stroke="#000000" stroke-width="1.00"/>
<circle cx="189.37" cy="154.95" r="15.99" fill="#cccccc" stroke="#000000" stroke-width="1.00"/>
<circle cx="282.74" cy="225.72" r="15.99" fill="#cccccc" stroke="#000000" stroke-width="1.00"/>
<circle cx="122.89" cy="223.56" r="15.99" fill="#cccccc" stroke="#000000" stroke-width="1.00"/>
<circle cx="137.27" cy="252.53" r="15.99" fill="#cccccc" stroke="#000000" stroke-width="1.00"/>
<circle cx="174.43" cy="126.61" r="15.99" fill="#cccccc" stroke="#000000" stroke-width="1.00"/>
<circle cx="186.79" cy="225.72" r="15.99" fill="#cccccc" stroke="#000000" stroke-width="1.00"/>
<circle cx="362.70" cy="308.82" r="15.99" fill="#cccccc" stroke="#000000" stroke-width="1.00"/>
<circle cx="205.68" cy="95.87" r="15.99" fill="#cccccc" stroke="#000000" stroke-width="1.00"/>
<circle cx="170.79" cy="253.42" r="15.99" fill="#cccccc" stroke="#000000" stroke-width="1.00"/>
<circle cx="330.72" cy="253.42" r="15.99" fill="#cccccc" stroke="#000000" stroke-width="1.00"/>
<circle cx="128.19" cy="166.77" r="15.99" fill="#cccccc" stroke="#000000" stroke-width="1.00"/>
<circle cx="234.76" cy="308.82" r="15.99" fill="#cccccc" stroke="#000000" stroke-width="1.00"/>
<circle cx="202.78" cy="253.42" r="15.99" fill="#cccccc" stroke="#000000" stroke-width="1.00"/>
<circle cx="90.98" cy="225.76" r="15.99" fill="#cccccc" stroke="#000000" stroke-width="1.00"/>
<circle cx="298.73" cy="308.82" r="15.99" fill="#cccccc" stroke="#000000" stroke-width="1.00"/>
<circle cx="145.25" cy="139.71" r="15.99" fill="#cccccc" stroke="#000000" stroke-width="1.00"/>
<circle cx="71.75" cy="308.82" r="15.99" fill="#cccccc" stroke="#000000" stroke-width="1.00"/>
<circle cx="266.75" cy="308.82" r="15.99" fill="#cccccc" stroke="#000000" stroke-width="1.00"/>
<circle cx="154.80" cy="225.72" r="15.99" fill="#cccccc" stroke="#000000" stroke-width="1.00"/>
<circle cx="73.30" cy="253.79" r="15.99" fill="#cccccc" stroke="#000000" stroke-width="1.00"/>
<circle cx="314.73" cy="281.12" r="15.99" fill="#cccccc" stroke="#000000" stroke-width="1.00"/>
<circle cx="56.23" cy="280.85" r="15.99" fill="#cccccc" stroke="#000000" stroke-width="1.00"/>
<circle cx="282.74" cy="281.12" r="15.99" fill="#cccccc" stroke="#000000" stroke-width="1.00"/>
<circle cx="206.39" cy="127.85" r="15.99" fill="#cccccc" stroke="#000000" stroke-width="1.00"/>
<circle cx="176.78" cy="195.34" r="15.99" fill="#cccccc" stroke="#000000" stroke-width="1.00"/>
<circle cx="206.39" cy="183.25" r="15.99" fill="#cccccc" stroke="#000000" stroke-width="1.00"/>
<circle cx="202.78" cy="308.82" r="15.99" fill="#cccccc" stroke="#000000" stroke-width="1.00"/>
<circle cx="170.79" cy="308.82" r="15.99" fill="#cccccc" stroke="#000000" stroke-width="1.00"/>
<circle cx="105.28" cy="254.37" r="15.99" fill="#cccccc" stroke="#000000" stroke-width="1.00"/>
<polygon points="9.60,324.81 390.40,324.81 208.42,9.60" fill="none" stroke="#000000" stroke-width="1.40"/>
</svg>