<svg xmlns="http://www.w3.org/2000/svg" width="400.0" height="348.9" viewBox="0 0 400.0 348.9">
<rect width="400.0" height="348.9" fill="white"/>
<circle cx="212.13" cy="182.85" r="16.26" fill="#cccccc" stroke="#000000" stroke-width="1.00"/>
<circle cx="229.70" cy="267.09" r="16.26" fill="#cccccc" stroke="#000000" stroke-width="1.00"/>
<circle cx="328.59" cy="322.90" r="16.26" fill="#cccccc" stroke="#000000" stroke-width="1.00"/>
<circle cx="178.73" cy="127.03" r="16.26" fill="#cccccc" stroke="#000000" stroke-width="1.00"/>
<circle cx="177.86" cy="70.70" r="16.26" fill="#cccccc" stroke="#000000" stroke-width="1.00"/>
<circle cx="260.47" cy="153.93" r="16.26" fill="#cccccc" stroke="#000000" stroke-width="1.00"/>
<circle cx="69.95" cy="322.90" r="16.26" fill="#cccccc" stroke="#000000" stroke-width="1.00"/>
<circle cx="211.25" cy="126.52" r="16.26" fill="#cccccc" stroke="#000000" stroke-width="1.00"/>
<circle cx="327.27" cy="265.57" r="16.26" fill="#cccccc" stroke="#000000" stroke-width="1.00"/>
<circle cx="163.78" cy="211.77" r="16.26" fill="#cccccc" stroke="#000000" stroke-width="1.00"/>
<circle cx="294.74" cy="266.08" r="16.26" fill="#cccccc" stroke="#000000" stroke-width="1.00"/>
<circle cx="147.96" cy="240.19" r="16.26" fill="#cccccc" stroke="#000000" stroke-width="1.00"/>
<circle cx="196.30" cy="211.27" r="16.26" fill="#cccccc" stroke="#000000" stroke-width="1.00"/>
<circle cx="179.61" cy="183.35" r="16.26" fill="#cccccc" stroke="#000000" stroke-width="1.00"/>
<circle cx="244.65" cy="182.34" r="16.26" fill="#cccccc" stroke="#000000" stroke-width="1.00"/>
<circle cx="110.50" cy="272.84" r="16.26" fill="#cccccc" stroke="#000000" stroke-width="1.00"/>
<circle cx="146.21" cy="127.53" r="16.26" fill="#cccccc" stroke="#000000" stroke-width="1.00"/>
<circle cx="53.25" cy="294.48" r="16.26" fill="#cccccc" stroke="#000000" stroke-width="1.00"/>
<circle cx="37.43" cy="322.90" r="16.26" fill="#cccccc" stroke="#000000" stroke-width="1.00"/>
<circle cx="293.87" cy="209.75" r="16.26" fill="#cccccc" stroke="#000000" stroke-width="1.00"/>
<circle cx="361.12" cy="322.84" r="16.26" fill="#cccccc" stroke="#000000" stroke-width="1.00"/>
<circle cx="98.74" cy="212.78" r="16.26" fill="#cccccc" stroke="#000000" stroke-width="1.00"/>
<circle cx="263.11" cy="322.90" r="16.26" fill="#cccccc" stroke="#000000" stroke-width="1.00"/>
<circle cx="277.17" cy="181.84" r="16.26" fill="#cccccc" stroke="#000000" stroke-width="1.00"/>
<circle cx="77.97" cy="273.35" r="16.26" fill="#cccccc" stroke="#000000" stroke-width="1.00"/>
<circle cx="134.73" cy="294.53" r="16.26" fill="#cccccc" stroke="#000000" stroke-width="1.00"/>
<circle cx="114.56" cy="184.37" r="16.26" fill="#cccccc" stroke="#000000" stroke-width="1.00"/>
<circle cx="228.83" cy="210.76" r="16.26" fill="#cccccc" stroke="#000000" stroke-width="1.00"/>
<circle cx="130.39" cy="155.95" r="16.26" fill="#cccccc" stroke="#000000" stroke-width="1.00"/>
<circle cx="278.05" cy="238.17" r="16.26" fill="#cccccc" stroke="#000000" stroke-width="1.00"/>
<circle cx="195.43" cy="154.94" r="16.26" fill="#cccccc" stroke="#000000" stroke-width="1.00"/>
<circle cx="131.26" cy="212.28" r="16.26" fill="#cccccc" stroke="#000000" stroke-width="1.00"/>
<circle cx="210.38" cy="70.19" r="16.26" fill="#cccccc" stroke="#000000" stroke-width="1.00"/>
<circle cx="245.98" cy="295.25" r="16.26" fill="#cccccc" stroke="#000000" stroke-width="1.00"/>
<circle cx="190.01" cy="270.78" r="16.26" fill="#cccccc" stroke="#000000" stroke-width="1.00"/>
<circle cx="310.57" cy="237.66" r="16.26" fill="#cccccc" stroke="#000000" stroke-width="1.00"/>
<circle cx="227.08" cy="98.10" r="16.26" fill="#cccccc" stroke="#000000" stroke-width="1.00"/>
<circle cx="196.33" cy="322.90" r="16.26" fill="#cccccc" stroke="#000000" stroke-width="1.00"/>
<circle cx="261.35" cy="210.25" r="16.26" fill="#cccccc" stroke="#000000" stroke-width="1.00"/>
<circle cx="151.34" cy="322.90" r="16.26" fill="#cccccc" stroke="#000000" stroke-width="1.00"/>
<circle cx="296.07" cy="322.90" r="16.26" fill="#cccccc" stroke="#000000" stroke-width="1.00"/>
<circle cx="118.82" cy="322.90" r="16.26" fill="#cccccc" stroke="#000000" stroke-width="1.00"/>
<circle cx="212.23" cy="294.53" r="16.26" fill="#cccccc" stroke="#000000" stroke-width="1.00"/>
<circle cx="180.48" cy="239.68" r="16.26" fill="#cccccc" stroke="#000000" stroke-width="1.00"/>
<circle cx="344.63" cy="294.60" r="16.26" fill="#cccccc" stroke="#000000" stroke-width="1.00"/>
<circle cx="227.95" cy="154.43" r="16.26" fill="#cccccc" stroke="#000000" stroke-width="1.00"/>
<circle cx="115.44" cy="240.69" r="16.26" fill="#cccccc" stroke="#000000" stroke-width="1.00"/>
<circle cx="228.86" cy="322.90" r="16.26" fill="#cccccc" stroke="#000000" stroke-width="1.00"/>
<circle cx="243.77" cy="126.01" r="16.26" fill="#cccccc" stroke="#000000" stroke-width="1.00"/>
<circle cx="193.68" cy="42.28" r="16.26" fill="#cccccc" stroke="#000000" stroke-width="1.00"/>
<circle cx="213.00" cy="239.18" r="16.26" fill="#cccccc" stroke="#000000" stroke-width="1.00"/>
<circle cx="262.22" cy="266.68" r="16.26" fill="#cccccc" stroke="#000000" stroke-width="1.00"/>
<circle cx="82.92" cy="241.20" r="16.26" fill="#cccccc" stroke="#000000" stroke-width="1.00"/>
<circle cx="279.59" cy="294.86" r="16.26" fill="#cccccc" stroke="#000000" stroke-width="1.00"/>
<circle cx="157.48" cy="271.29" r="16.26" fill="#cccccc" stroke="#000000" stroke-width="1.00"/>
<circle cx="162.91" cy="155.44" r="16.26" fill="#cccccc" stroke="#000000" stroke-width="1.00"/>
<circle cx="194.55" cy="98.61" r="16.26" fill="#cccccc" stroke="#000000" stroke-width="1.00"/>
<circle cx="94.39" cy="301.43" r="16.26" fill="#cccccc" stroke="#000000" stroke-width="1.00"/>
<circle cx="245.52" cy="238.67" r="16.26" fill="#cccccc" stroke="#000000" stroke-width="1.00"/>
<circle cx="173.84" cy="299.40" r="16.26" fill="#cccccc" stroke="#000000" stroke-width="1.00"/>
<circle cx="312.11" cy="294.35" r="16.26" fill="#cccccc" stroke="#000000" stroke-width="1.00"/>
<circle cx="147.08" cy="183.86" r="16.26" fill="#cccccc" stroke="#000000" stroke-width="1.00"/>
<circle cx="162.03" cy="99.11" r="16.26" fill="#cccccc" stroke="#000000" stroke-width="1.00"/>
<polygon points="9.76,339.16 390.24,339.16 193.17,9.76" fill="none" stroke="#000000" stroke-width="1.40"/>
</svg>