<svg xmlns="http://www.w3.org/2000/svg" width="400.0" height="325.1" viewBox="0 0 400.0 325.1">
<rect width="400.0" height="325.1" fill="white"/>
<circle cx="364.60" cy="300.79" r="15.18" fill="#cccccc" stroke="#000000" stroke-width="1.00"/>
<circle cx="349.42" cy="274.50" r="15.18" fill="#cccccc" stroke="#000000" stroke-width="1.00"/>
<circle cx="334.24" cy="300.79" r="15.18" fill="#cccccc" stroke="#000000" stroke-width="1.00"/>
<circle cx="334.24" cy="248.20" r="15.18" fill="#cccccc" stroke="#000000" stroke-width="1.00"/>
<circle cx="319.06" cy="274.50" r="15.18" fill="#cccccc" stroke="#000000" stroke-width="1.00"/>
<circle cx="303.88" cy="300.79" r="15.18" fill="#cccccc" stroke="#000000" stroke-width="1.00"/>
<circle cx="319.06" cy="221.91" r="15.18" fill="#cccccc" stroke="#000000" stroke-width="1.00"/>
<circle cx="303.88" cy="248.20" r="15.18" fill="#cccccc" stroke="#000000" stroke-width="1.00"/>
<circle cx="288.70" cy="274.50" r="15.18" fill="#cccccc" stroke="#000000" stroke-width="1.00"/>
<circle cx="273.52" cy="300.79" r="15.18" fill="#cccccc" stroke="#000000" stroke-width="1.00"/>
<circle cx="303.88" cy="195.62" r="15.18" fill="#cccccc" stroke="#000000" stroke-width="1.00"/>
<circle cx="288.70" cy="221.91" r="15.18" fill="#cccccc" stroke="#000000" stroke-width="1.00"/>
<circle cx="273.52" cy="248.20" r="15.18" fill="#cccccc" stroke="#000000" stroke-width="1.00"/>
<circle cx="258.34" cy="274.50" r="15.18" fill="#cccccc" stroke="#000000" stroke-width="1.00"/>
<circle cx="243.16" cy="300.79" r="15.18" fill="#cccccc" stroke="#000000" stroke-width="1.00"/>
<circle cx="288.70" cy="169.33" r="15.18" fill="#cccccc" stroke="#000000" stroke-width="1.00"/>
<circle cx="273.52" cy="195.62" r="15.18" fill="#cccccc" stroke="#000000" stroke-width="1.00"/>
<circle cx="258.34" cy="221.91" r="15.18" fill="#cccccc" stroke="#000000" stroke-width="1.00"/>
<circle cx="243.16" cy="248.20" r="15.18" fill="#cccccc" stroke="#000000" stroke-width="1.00"/>
<circle cx="227.98" cy="274.50" r="15.18" fill="#cccccc" stroke="#000000" stroke-width="1.00"/>
<circle cx="212.80" cy="300.79" r="15.18" fill="#cccccc" stroke="#000000" stroke-width="1.00"/>
<circle cx="273.52" cy="143.03" r="15.18" fill="#cccccc" stroke="#000000" stroke-width="1.00"/>
<circle cx="258.34" cy="169.33" r="15.18" fill="#cccccc" stroke="#000000" stroke-width="1.00"/>
<circle cx="243.16" cy="195.62" r="15.18" fill="#cccccc" stroke="#000000" stroke-width="1.00"/>
<circle cx="227.98" cy="221.91" r="15.18" fill="#cccccc" stroke="#000000" stroke-width="1.00"/>
<circle cx="212.80" cy="248.20" r="15.18" fill="#cccccc" stroke="#000000" stroke-width="1.00"/>
<circle cx="197.62" cy="274.50" r="15.18" fill="#cccccc" stroke="#000000" stroke-width="1.00"/>
<circle cx="182.44" cy="300.79" r="15.18" fill="#cccccc" stroke="#000000" stroke-width="1.00"/>
<circle cx="258.34" cy="116.74" r="15.18" fill="#cccccc" stroke="#000000" stroke-width="1.00"/>
<circle cx="243.16" cy="143.03" r="15.18" fill="#cccccc" stroke="#000000" stroke-width="1.00"/>
<circle cx="227.98" cy="169.33" r="15.18" fill="#cccccc" stroke="#000000" stroke-width="1.00"/>
<circle cx="212.80" cy="195.62" r="15.18" fill="#cccccc" stroke="#000000" stroke-width="1.00"/>
<circle cx="197.62" cy="221.91" r="15.18" fill="#cccccc" stroke="#000000" stroke-width="1.00"/>
<circle cx="182.44" cy="248.20" r="15.18" fill="#cccccc" stroke="#000000" stroke-width="1.00"/>
<circle cx="167.26" cy="274.50" r="15.18" fill="#cccccc" stroke="#000000" stroke-width="1.00"/>
<circle cx="152.08" cy="300.79" r="15.18" fill="#cccccc" stroke="#000000" stroke-width="1.00"/>
<circle cx="243.16" cy="90.45" r="15.18" fill="#cccccc" stroke="#000000" stroke-width="1.00"/>
<circle cx="227.98" cy="116.74" r="15.18" fill="#cccccc" stroke="#000000" stroke-width="1.00"/>
<circle cx="212.80" cy="143.03" r="15.18" fill="#cccccc" stroke="#000000" stroke-width="1.00"/>
<circle cx="197.62" cy="169.33" r="15.18" fill="#cccccc" stroke="#000000" stroke-width="1.00"/>
<circle cx="182.44" cy="195.62" r="15.18" fill="#cccccc" stroke="#000000" stroke-width="1.00"/>
<circle cx="167.26" cy="221.91" r="15.18" fill="#cccccc" stroke="#000000" stroke-width="1.00"/>
<circle cx="152.08" cy="248.20" r="15.18" fill="#cccccc" stroke="#000000" stroke-width="1.00"/>
<circle cx="136.90" cy="274.50" r="15.18" fill="#cccccc" stroke="#000000" stroke-width="1.00"/>
<circle cx="121.72" cy="300.79" r="15.18" fill="#cccccc" stroke="#000000" stroke-width="1.00"/>
<circle cx="227.98" cy="64.15" r="15.18" fill="#cccccc" stroke="#000000" stroke-width="1.00"/>
<circle cx="212.80" cy="90.45" r="15.18" fill="#cccccc" stroke="#000000" stroke-width="1.00"/>
<circle cx="197.62" cy="116.74" r="15.18" fill="#cccccc" stroke="#000000" stroke-width="1.00"/>
<circle cx="182.44" cy="143.03" r="15.18" fill="#cccccc" stroke="#000000" stroke-width="1.00"/>
<circle cx="152.08" cy="195.62" r="15.18" fill="#cccccc" stroke="#000000" stroke-width="1.00"/>
<circle cx="134.77" cy="220.61" r="15.18" fill="#cccccc" stroke="#000000" stroke-width="1.00"/>
<circle cx="121.72" cy="248.20" r="15.18" fill="#cccccc" stroke="#000000" stroke-width="1.00"/>
<circle cx="96.56" cy="270.40" r="15.18" fill="#cccccc" stroke="#000000" stroke-width="1.00"/>
<circle cx="91.36" cy="300.79" r="15.18" fill="#cccccc" stroke="#000000" stroke-width="1.00"/>
<circle cx="212.80" cy="37.86" r="15.18" fill="#cccccc" stroke="#000000" stroke-width="1.00"/>
<circle cx="195.95" cy="63.12" r="15.18" fill="#cccccc" stroke="#000000" stroke-width="1.00"/>
<circle cx="182.44" cy="90.31" r="15.18" fill="#cccccc" stroke="#000000" stroke-width="1.00"/>
<circle cx="162.54" cy="113.24" r="15.18" fill="#cccccc" stroke="#000000" stroke-width="1.00"/>
<circle cx="152.10" cy="141.75" r="15.18" fill="#cccccc" stroke="#000000" stroke-width="1.00"/>
<circle cx="129.79" cy="162.34" r="15.18" fill="#cccccc" stroke="#000000" stroke-width="1.00"/>
<circle cx="97.90" cy="210.17" r="15.18" fill="#cccccc" stroke="#000000" stroke-width="1.00"/>
<circle cx="92.47" cy="240.05" r="15.18" fill="#cccccc" stroke="#000000" stroke-width="1.00"/>
<circle cx="66.98" cy="256.54" r="15.18" fill="#cccccc" stroke="#000000" stroke-width="1.00"/>
<circle cx="64.42" cy="286.79" r="15.18" fill="#cccccc" stroke="#000000" stroke-width="1.00"/>
<circle cx="37.48" cy="300.79" r="15.18" fill="#cccccc" stroke="#000000" stroke-width="1.00"/>
<circle cx="121.97" cy="191.68" r="15.18" fill="#cccccc" stroke="#000000" stroke-width="1.00"/>
<circle cx="167.01" cy="169.18" r="15.18" fill="#cccccc" stroke="#000000" stroke-width="1.00"/>
<polygon points="9.11,315.97 390.89,315.97 213.72,9.11" fill="none" stroke="#000000" stroke-width="1.40"/>
</svg>