<svg xmlns="http://www.w3.org/2000/svg" width="400.0" height="380.9" viewBox="0 0 400.0 380.9">
<rect width="400.0" height="380.9" fill="white"/>
<circle cx="184.90" cy="156.93" r="16.32" fill="#cccccc" stroke="#000000" stroke-width="1.00"/>
<circle cx="348.06" cy="326.49" r="16.32" fill="#cccccc" stroke="#000000" stroke-width="1.00"/>
<circle cx="266.48" cy="354.75" r="16.32" fill="#cccccc" stroke="#000000" stroke-width="1.00"/>
<circle cx="250.17" cy="269.97" r="16.32" fill="#cccccc" stroke="#000000" stroke-width="1.00"/>
<circle cx="70.68" cy="298.23" r="16.32" fill="#cccccc" stroke="#000000" stroke-width="1.00"/>
<circle cx="152.27" cy="213.45" r="16.32" fill="#cccccc" stroke="#000000" stroke-width="1.00"/>
<circle cx="216.56" cy="47.33" r="16.32" fill="#cccccc" stroke="#000000" stroke-width="1.00"/>
<circle cx="168.58" cy="185.19" r="16.32" fill="#cccccc" stroke="#000000" stroke-width="1.00"/>
<circle cx="282.80" cy="326.49" r="16.32" fill="#cccccc" stroke="#000000" stroke-width="1.00"/>
<circle cx="168.58" cy="128.66" r="16.32" fill="#cccccc" stroke="#000000" stroke-width="1.00"/>
<circle cx="119.63" cy="213.45" r="16.32" fill="#cccccc" stroke="#000000" stroke-width="1.00"/>
<circle cx="103.32" cy="298.23" r="16.32" fill="#cccccc" stroke="#000000" stroke-width="1.00"/>
<circle cx="202.88" cy="184.29" r="16.32" fill="#cccccc" stroke="#000000" stroke-width="1.00"/>
<circle cx="236.69" cy="187.03" r="16.32" fill="#cccccc" stroke="#000000" stroke-width="1.00"/>
<circle cx="193.57" cy="107.67" r="16.32" fill="#cccccc" stroke="#000000" stroke-width="1.00"/>
<circle cx="236.79" cy="154.40" r="16.32" fill="#cccccc" stroke="#000000" stroke-width="1.00"/>
<circle cx="266.48" cy="298.23" r="16.32" fill="#cccccc" stroke="#000000" stroke-width="1.00"/>
<circle cx="336.44" cy="296.00" r="16.32" fill="#cccccc" stroke="#000000" stroke-width="1.00"/>
<circle cx="309.12" cy="238.56" r="16.32" fill="#cccccc" stroke="#000000" stroke-width="1.00"/>
<circle cx="217.53" cy="269.97" r="16.32" fill="#cccccc" stroke="#000000" stroke-width="1.00"/>
<circle cx="152.27" cy="326.49" r="16.32" fill="#cccccc" stroke="#000000" stroke-width="1.00"/>
<circle cx="364.38" cy="354.75" r="16.32" fill="#cccccc" stroke="#000000" stroke-width="1.00"/>
<circle cx="295.10" cy="209.09" r="16.32" fill="#cccccc" stroke="#000000" stroke-width="1.00"/>
<circle cx="184.90" cy="213.45" r="16.32" fill="#cccccc" stroke="#000000" stroke-width="1.00"/>
<circle cx="87.00" cy="269.97" r="16.32" fill="#cccccc" stroke="#000000" stroke-width="1.00"/>
<circle cx="135.95" cy="241.71" r="16.32" fill="#cccccc" stroke="#000000" stroke-width="1.00"/>
<circle cx="184.90" cy="326.49" r="16.32" fill="#cccccc" stroke="#000000" stroke-width="1.00"/>
<circle cx="201.22" cy="298.23" r="16.32" fill="#cccccc" stroke="#000000" stroke-width="1.00"/>
<circle cx="152.27" cy="156.93" r="16.32" fill="#cccccc" stroke="#000000" stroke-width="1.00"/>
<circle cx="54.37" cy="326.49" r="16.32" fill="#cccccc" stroke="#000000" stroke-width="1.00"/>
<circle cx="135.95" cy="185.19" r="16.32" fill="#cccccc" stroke="#000000" stroke-width="1.00"/>
<circle cx="316.18" cy="270.42" r="16.32" fill="#cccccc" stroke="#000000" stroke-width="1.00"/>
<circle cx="269.42" cy="155.09" r="16.32" fill="#cccccc" stroke="#000000" stroke-width="1.00"/>
<circle cx="227.60" cy="108.53" r="16.32" fill="#cccccc" stroke="#000000" stroke-width="1.00"/>
<circle cx="135.95" cy="354.75" r="16.32" fill="#cccccc" stroke="#000000" stroke-width="1.00"/>
<circle cx="270.44" cy="187.71" r="16.32" fill="#cccccc" stroke="#000000" stroke-width="1.00"/>
<circle cx="276.49" cy="237.95" r="16.32" fill="#cccccc" stroke="#000000" stroke-width="1.00"/>
<circle cx="299.12" cy="298.23" r="16.32" fill="#cccccc" stroke="#000000" stroke-width="1.00"/>
<circle cx="315.43" cy="326.49" r="16.32" fill="#cccccc" stroke="#000000" stroke-width="1.00"/>
<circle cx="233.85" cy="298.23" r="16.32" fill="#cccccc" stroke="#000000" stroke-width="1.00"/>
<circle cx="199.26" cy="75.54" r="16.32" fill="#cccccc" stroke="#000000" stroke-width="1.00"/>
<circle cx="184.90" cy="269.97" r="16.32" fill="#cccccc" stroke="#000000" stroke-width="1.00"/>
<circle cx="152.27" cy="269.97" r="16.32" fill="#cccccc" stroke="#000000" stroke-width="1.00"/>
<circle cx="201.22" cy="354.75" r="16.32" fill="#cccccc" stroke="#000000" stroke-width="1.00"/>
<circle cx="38.05" cy="354.75" r="16.32" fill="#cccccc" stroke="#000000" stroke-width="1.00"/>
<circle cx="119.63" cy="326.49" r="16.32" fill="#cccccc" stroke="#000000" stroke-width="1.00"/>
<circle cx="87.00" cy="326.49" r="16.32" fill="#cccccc" stroke="#000000" stroke-width="1.00"/>
<circle cx="253.01" cy="215.29" r="16.32" fill="#cccccc" stroke="#000000" stroke-width="1.00"/>
<circle cx="217.53" cy="213.45" r="16.32" fill="#cccccc" stroke="#000000" stroke-width="1.00"/>
<circle cx="250.17" cy="326.49" r="16.32" fill="#cccccc" stroke="#000000" stroke-width="1.00"/>
<circle cx="209.88" cy="135.93" r="16.32" fill="#cccccc" stroke="#000000" stroke-width="1.00"/>
<circle cx="299.12" cy="354.75" r="16.32" fill="#cccccc" stroke="#000000" stroke-width="1.00"/>
<circle cx="168.58" cy="298.23" r="16.32" fill="#cccccc" stroke="#000000" stroke-width="1.00"/>
<circle cx="231.88" cy="76.18" r="16.32" fill="#cccccc" stroke="#000000" stroke-width="1.00"/>
<circle cx="233.85" cy="354.75" r="16.32" fill="#cccccc" stroke="#000000" stroke-width="1.00"/>
<circle cx="135.95" cy="298.23" r="16.32" fill="#cccccc" stroke="#000000" stroke-width="1.00"/>
<circle cx="119.63" cy="269.97" r="16.32" fill="#cccccc" stroke="#000000" stroke-width="1.00"/>
<circle cx="282.80" cy="269.97" r="16.32" fill="#cccccc" stroke="#000000" stroke-width="1.00"/>
<circle cx="168.58" cy="241.71" r="16.32" fill="#cccccc" stroke="#000000" stroke-width="1.00"/>
<circle cx="103.32" cy="241.71" r="16.32" fill="#cccccc" stroke="#000000" stroke-width="1.00"/>
<circle cx="255.40" cy="125.62" r="16.32" fill="#cccccc" stroke="#000000" stroke-width="1.00"/>
<circle cx="70.68" cy="354.75" r="16.32" fill="#cccccc" stroke="#000000" stroke-width="1.00"/>
<circle cx="201.22" cy="241.71" r="16.32" fill="#cccccc" stroke="#000000" stroke-width="1.00"/>
<circle cx="168.58" cy="354.75" r="16.32" fill="#cccccc" stroke="#000000" stroke-width="1.00"/>
<circle cx="217.53" cy="326.49" r="16.32" fill="#cccccc" stroke="#000000" stroke-width="1.00"/>
<circle cx="233.85" cy="241.71" r="16.32" fill="#cccccc" stroke="#000000" stroke-width="1.00"/>
<circle cx="331.75" cy="354.75" r="16.32" fill="#cccccc" stroke="#000000" stroke-width="1.00"/>
<circle cx="103.32" cy="354.75" r="16.32" fill="#cccccc" stroke="#000000" stroke-width="1.00"/>
<polygon points="9.79,371.07 390.21,371.07 218.37,9.79" fill="none" stroke="#000000" stroke-width="1.40"/>
</svg>