<svg xmlns="http://www.w3.org/2000/svg" width="400.0" height="308.3" viewBox="0 0 400.0 308.3">
<rect width="400.0" height="308.3" fill="white"/>
<circle cx="126.51" cy="284.99" r="14.57" fill="#cccccc" stroke="#000000" stroke-width="1.00"/>
<circle cx="111.21" cy="259.32" r="14.57" fill="#cccccc" stroke="#000000" stroke-width="1.00"/>
<circle cx="35.70" cy="284.78" r="14.57" fill="#cccccc" stroke="#000000" stroke-width="1.00"/>
<circle cx="228.52" cy="259.75" r="14.57" fill="#cccccc" stroke="#000000" stroke-width="1.00"/>
<circle cx="81.51" cy="260.53" r="14.57" fill="#cccccc" stroke="#000000" stroke-width="1.00"/>
<circle cx="155.65" cy="284.99" r="14.57" fill="#cccccc" stroke="#000000" stroke-width="1.00"/>
<circle cx="272.24" cy="284.99" r="14.57" fill="#cccccc" stroke="#000000" stroke-width="1.00"/>
<circle cx="126.51" cy="234.50" r="14.57" fill="#cccccc" stroke="#000000" stroke-width="1.00"/>
<circle cx="213.95" cy="284.99" r="14.57" fill="#cccccc" stroke="#000000" stroke-width="1.00"/>
<circle cx="184.80" cy="284.99" r="14.57" fill="#cccccc" stroke="#000000" stroke-width="1.00"/>
<circle cx="97.36" cy="284.99" r="14.57" fill="#cccccc" stroke="#000000" stroke-width="1.00"/>
<circle cx="141.08" cy="259.75" r="14.57" fill="#cccccc" stroke="#000000" stroke-width="1.00"/>
<circle cx="52.40" cy="259.03" r="14.57" fill="#cccccc" stroke="#000000" stroke-width="1.00"/>
<circle cx="243.10" cy="284.99" r="14.57" fill="#cccccc" stroke="#000000" stroke-width="1.00"/>
<circle cx="65.66" cy="284.99" r="14.57" fill="#cccccc" stroke="#000000" stroke-width="1.00"/>
<circle cx="333.66" cy="284.99" r="14.57" fill="#cccccc" stroke="#000000" stroke-width="1.00"/>
<circle cx="301.32" cy="232.62" r="14.57" fill="#cccccc" stroke="#000000" stroke-width="1.00"/>
<circle cx="243.09" cy="233.94" r="14.57" fill="#cccccc" stroke="#000000" stroke-width="1.00"/>
<circle cx="229.86" cy="83.77" r="14.57" fill="#cccccc" stroke="#000000" stroke-width="1.00"/>
<circle cx="272.23" cy="234.50" r="14.57" fill="#cccccc" stroke="#000000" stroke-width="1.00"/>
<circle cx="301.39" cy="284.99" r="14.57" fill="#cccccc" stroke="#000000" stroke-width="1.00"/>
<circle cx="330.40" cy="234.56" r="14.57" fill="#cccccc" stroke="#000000" stroke-width="1.00"/>
<circle cx="278.37" cy="156.52" r="14.57" fill="#cccccc" stroke="#000000" stroke-width="1.00"/>
<circle cx="362.81" cy="284.99" r="14.57" fill="#cccccc" stroke="#000000" stroke-width="1.00"/>
<circle cx="246.03" cy="108.02" r="14.57" fill="#cccccc" stroke="#000000" stroke-width="1.00"/>
<circle cx="294.54" cy="180.77" r="14.57" fill="#cccccc" stroke="#000000" stroke-width="1.00"/>
<circle cx="346.61" cy="258.88" r="14.57" fill="#cccccc" stroke="#000000" stroke-width="1.00"/>
<circle cx="317.52" cy="260.71" r="14.57" fill="#cccccc" stroke="#000000" stroke-width="1.00"/>
<circle cx="287.10" cy="259.58" r="14.57" fill="#cccccc" stroke="#000000" stroke-width="1.00"/>
<circle cx="281.62" cy="206.90" r="14.57" fill="#cccccc" stroke="#000000" stroke-width="1.00"/>
<circle cx="262.20" cy="132.27" r="14.57" fill="#cccccc" stroke="#000000" stroke-width="1.00"/>
<circle cx="257.67" cy="259.75" r="14.57" fill="#cccccc" stroke="#000000" stroke-width="1.00"/>
<circle cx="310.71" cy="205.03" r="14.57" fill="#cccccc" stroke="#000000" stroke-width="1.00"/>
<circle cx="216.94" cy="109.90" r="14.57" fill="#cccccc" stroke="#000000" stroke-width="1.00"/>
<circle cx="134.30" cy="132.75" r="14.57" fill="#cccccc" stroke="#000000" stroke-width="1.00"/>
<circle cx="86.72" cy="206.12" r="14.57" fill="#cccccc" stroke="#000000" stroke-width="1.00"/>
<circle cx="197.52" cy="35.27" r="14.57" fill="#cccccc" stroke="#000000" stroke-width="1.00"/>
<circle cx="102.58" cy="181.66" r="14.57" fill="#cccccc" stroke="#000000" stroke-width="1.00"/>
<circle cx="182.63" cy="156.87" r="14.57" fill="#cccccc" stroke="#000000" stroke-width="1.00"/>
<circle cx="180.62" cy="109.07" r="14.57" fill="#cccccc" stroke="#000000" stroke-width="1.00"/>
<circle cx="150.38" cy="108.45" r="14.57" fill="#cccccc" stroke="#000000" stroke-width="1.00"/>
<circle cx="198.26" cy="132.27" r="14.57" fill="#cccccc" stroke="#000000" stroke-width="1.00"/>
<circle cx="184.60" cy="61.40" r="14.57" fill="#cccccc" stroke="#000000" stroke-width="1.00"/>
<circle cx="200.25" cy="85.99" r="14.57" fill="#cccccc" stroke="#000000" stroke-width="1.00"/>
<circle cx="164.98" cy="133.67" r="14.57" fill="#cccccc" stroke="#000000" stroke-width="1.00"/>
<circle cx="148.90" cy="157.98" r="14.57" fill="#cccccc" stroke="#000000" stroke-width="1.00"/>
<circle cx="97.39" cy="233.24" r="14.57" fill="#cccccc" stroke="#000000" stroke-width="1.00"/>
<circle cx="118.44" cy="157.21" r="14.57" fill="#cccccc" stroke="#000000" stroke-width="1.00"/>
<circle cx="213.69" cy="59.52" r="14.57" fill="#cccccc" stroke="#000000" stroke-width="1.00"/>
<circle cx="68.27" cy="234.56" r="14.57" fill="#cccccc" stroke="#000000" stroke-width="1.00"/>
<circle cx="166.01" cy="83.85" r="14.57" fill="#cccccc" stroke="#000000" stroke-width="1.00"/>
<circle cx="117.18" cy="206.89" r="14.57" fill="#cccccc" stroke="#000000" stroke-width="1.00"/>
<circle cx="182.71" cy="205.43" r="14.57" fill="#cccccc" stroke="#000000" stroke-width="1.00"/>
<circle cx="265.45" cy="182.65" r="14.57" fill="#cccccc" stroke="#000000" stroke-width="1.00"/>
<circle cx="199.38" cy="259.75" r="14.57" fill="#cccccc" stroke="#000000" stroke-width="1.00"/>
<circle cx="230.60" cy="180.78" r="14.57" fill="#cccccc" stroke="#000000" stroke-width="1.00"/>
<circle cx="166.54" cy="181.18" r="14.57" fill="#cccccc" stroke="#000000" stroke-width="1.00"/>
<circle cx="150.68" cy="205.63" r="14.57" fill="#cccccc" stroke="#000000" stroke-width="1.00"/>
<circle cx="214.97" cy="205.37" r="14.57" fill="#cccccc" stroke="#000000" stroke-width="1.00"/>
<circle cx="133.04" cy="182.43" r="14.57" fill="#cccccc" stroke="#000000" stroke-width="1.00"/>
<circle cx="213.95" cy="234.50" r="14.57" fill="#cccccc" stroke="#000000" stroke-width="1.00"/>
<circle cx="155.66" cy="234.36" r="14.57" fill="#cccccc" stroke="#000000" stroke-width="1.00"/>
<circle cx="198.80" cy="181.12" r="14.57" fill="#cccccc" stroke="#000000" stroke-width="1.00"/>
<circle cx="214.43" cy="156.52" r="14.57" fill="#cccccc" stroke="#000000" stroke-width="1.00"/>
<circle cx="233.11" cy="134.15" r="14.57" fill="#cccccc" stroke="#000000" stroke-width="1.00"/>
<circle cx="246.77" cy="205.03" r="14.57" fill="#cccccc" stroke="#000000" stroke-width="1.00"/>
<circle cx="170.23" cy="259.75" r="14.57" fill="#cccccc" stroke="#000000" stroke-width="1.00"/>
<circle cx="249.28" cy="158.40" r="14.57" fill="#cccccc" stroke="#000000" stroke-width="1.00"/>
<circle cx="184.80" cy="234.50" r="14.57" fill="#cccccc" stroke="#000000" stroke-width="1.00"/>
<polygon points="8.74,299.56 391.26,299.56 197.35,8.74" fill="none" stroke="#000000" stroke-width="1.40"/>
</svg>