<svg xmlns="http://www.w3.org/2000/svg" width="400.0" height="310.4" viewBox="0 0 400.0 310.4">
<rect width="400.0" height="310.4" fill="white"/>
<circle cx="135.67" cy="261.98" r="14.54" fill="#cccccc" stroke="#000000" stroke-width="1.00"/>
<circle cx="77.52" cy="261.98" r="14.54" fill="#cccccc" stroke="#000000" stroke-width="1.00"/>
<circle cx="237.43" cy="287.16" r="14.54" fill="#cccccc" stroke="#000000" stroke-width="1.00"/>
<circle cx="92.05" cy="287.16" r="14.54" fill="#cccccc" stroke="#000000" stroke-width="1.00"/>
<circle cx="266.51" cy="287.16" r="14.54" fill="#cccccc" stroke="#000000" stroke-width="1.00"/>
<circle cx="106.59" cy="211.61" r="14.54" fill="#cccccc" stroke="#000000" stroke-width="1.00"/>
<circle cx="208.36" cy="287.16" r="14.54" fill="#cccccc" stroke="#000000" stroke-width="1.00"/>
<circle cx="150.21" cy="287.16" r="14.54" fill="#cccccc" stroke="#000000" stroke-width="1.00"/>
<circle cx="62.98" cy="287.16" r="14.54" fill="#cccccc" stroke="#000000" stroke-width="1.00"/>
<circle cx="295.58" cy="287.16" r="14.54" fill="#cccccc" stroke="#000000" stroke-width="1.00"/>
<circle cx="121.13" cy="236.80" r="14.54" fill="#cccccc" stroke="#000000" stroke-width="1.00"/>
<circle cx="121.13" cy="287.16" r="14.54" fill="#cccccc" stroke="#000000" stroke-width="1.00"/>
<circle cx="106.59" cy="261.98" r="14.54" fill="#cccccc" stroke="#000000" stroke-width="1.00"/>
<circle cx="33.90" cy="287.16" r="14.54" fill="#cccccc" stroke="#000000" stroke-width="1.00"/>
<circle cx="48.44" cy="261.98" r="14.54" fill="#cccccc" stroke="#000000" stroke-width="1.00"/>
<circle cx="179.28" cy="287.16" r="14.54" fill="#cccccc" stroke="#000000" stroke-width="1.00"/>
<circle cx="344.36" cy="261.97" r="14.54" fill="#cccccc" stroke="#000000" stroke-width="1.00"/>
<circle cx="279.04" cy="203.11" r="14.54" fill="#cccccc" stroke="#000000" stroke-width="1.00"/>
<circle cx="237.43" cy="236.80" r="14.54" fill="#cccccc" stroke="#000000" stroke-width="1.00"/>
<circle cx="213.33" cy="82.09" r="14.54" fill="#cccccc" stroke="#000000" stroke-width="1.00"/>
<circle cx="298.16" cy="238.47" r="14.54" fill="#cccccc" stroke="#000000" stroke-width="1.00"/>
<circle cx="329.82" cy="287.16" r="14.54" fill="#cccccc" stroke="#000000" stroke-width="1.00"/>
<circle cx="307.08" cy="210.80" r="14.54" fill="#cccccc" stroke="#000000" stroke-width="1.00"/>
<circle cx="263.20" cy="150.56" r="14.54" fill="#cccccc" stroke="#000000" stroke-width="1.00"/>
<circle cx="361.33" cy="286.67" r="14.54" fill="#cccccc" stroke="#000000" stroke-width="1.00"/>
<circle cx="222.86" cy="109.56" r="14.54" fill="#cccccc" stroke="#000000" stroke-width="1.00"/>
<circle cx="251.59" cy="181.60" r="14.54" fill="#cccccc" stroke="#000000" stroke-width="1.00"/>
<circle cx="327.24" cy="238.47" r="14.54" fill="#cccccc" stroke="#000000" stroke-width="1.00"/>
<circle cx="312.70" cy="263.65" r="14.54" fill="#cccccc" stroke="#000000" stroke-width="1.00"/>
<circle cx="281.05" cy="261.98" r="14.54" fill="#cccccc" stroke="#000000" stroke-width="1.00"/>
<circle cx="268.43" cy="234.48" r="14.54" fill="#cccccc" stroke="#000000" stroke-width="1.00"/>
<circle cx="246.08" cy="127.06" r="14.54" fill="#cccccc" stroke="#000000" stroke-width="1.00"/>
<circle cx="251.97" cy="261.98" r="14.54" fill="#cccccc" stroke="#000000" stroke-width="1.00"/>
<circle cx="280.32" cy="174.06" r="14.54" fill="#cccccc" stroke="#000000" stroke-width="1.00"/>
<circle cx="193.82" cy="110.89" r="14.54" fill="#cccccc" stroke="#000000" stroke-width="1.00"/>
<circle cx="121.13" cy="136.07" r="14.54" fill="#cccccc" stroke="#000000" stroke-width="1.00"/>
<circle cx="77.52" cy="211.61" r="14.54" fill="#cccccc" stroke="#000000" stroke-width="1.00"/>
<circle cx="179.28" cy="35.35" r="14.54" fill="#cccccc" stroke="#000000" stroke-width="1.00"/>
<circle cx="92.05" cy="186.43" r="14.54" fill="#cccccc" stroke="#000000" stroke-width="1.00"/>
<circle cx="164.74" cy="161.25" r="14.54" fill="#cccccc" stroke="#000000" stroke-width="1.00"/>
<circle cx="164.74" cy="110.89" r="14.54" fill="#cccccc" stroke="#000000" stroke-width="1.00"/>
<circle cx="135.67" cy="110.89" r="14.54" fill="#cccccc" stroke="#000000" stroke-width="1.00"/>
<circle cx="179.28" cy="136.07" r="14.54" fill="#cccccc" stroke="#000000" stroke-width="1.00"/>
<circle cx="164.74" cy="60.53" r="14.54" fill="#cccccc" stroke="#000000" stroke-width="1.00"/>
<circle cx="179.28" cy="85.71" r="14.54" fill="#cccccc" stroke="#000000" stroke-width="1.00"/>
<circle cx="150.21" cy="136.07" r="14.54" fill="#cccccc" stroke="#000000" stroke-width="1.00"/>
<circle cx="135.67" cy="161.25" r="14.54" fill="#cccccc" stroke="#000000" stroke-width="1.00"/>
<circle cx="92.05" cy="236.80" r="14.54" fill="#cccccc" stroke="#000000" stroke-width="1.00"/>
<circle cx="106.59" cy="161.25" r="14.54" fill="#cccccc" stroke="#000000" stroke-width="1.00"/>
<circle cx="193.82" cy="60.53" r="14.54" fill="#cccccc" stroke="#000000" stroke-width="1.00"/>
<circle cx="62.98" cy="236.80" r="14.54" fill="#cccccc" stroke="#000000" stroke-width="1.00"/>
<circle cx="150.21" cy="85.71" r="14.54" fill="#cccccc" stroke="#000000" stroke-width="1.00"/>
<circle cx="135.67" cy="211.61" r="14.54" fill="#cccccc" stroke="#000000" stroke-width="1.00"/>
<circle cx="193.82" cy="211.61" r="14.54" fill="#cccccc" stroke="#000000" stroke-width="1.00"/>
<circle cx="251.09" cy="211.13" r="14.54" fill="#cccccc" stroke="#000000" stroke-width="1.00"/>
<circle cx="193.82" cy="261.98" r="14.54" fill="#cccccc" stroke="#000000" stroke-width="1.00"/>
<circle cx="217.85" cy="177.62" r="14.54" fill="#cccccc" stroke="#000000" stroke-width="1.00"/>
<circle cx="150.21" cy="186.43" r="14.54" fill="#cccccc" stroke="#000000" stroke-width="1.00"/>
<circle cx="164.74" cy="211.61" r="14.54" fill="#cccccc" stroke="#000000" stroke-width="1.00"/>
<circle cx="208.36" cy="236.80" r="14.54" fill="#cccccc" stroke="#000000" stroke-width="1.00"/>
<circle cx="121.13" cy="186.43" r="14.54" fill="#cccccc" stroke="#000000" stroke-width="1.00"/>
<circle cx="222.90" cy="261.98" r="14.54" fill="#cccccc" stroke="#000000" stroke-width="1.00"/>
<circle cx="150.21" cy="236.80" r="14.54" fill="#cccccc" stroke="#000000" stroke-width="1.00"/>
<circle cx="179.28" cy="186.43" r="14.54" fill="#cccccc" stroke="#000000" stroke-width="1.00"/>
<circle cx="193.82" cy="161.25" r="14.54" fill="#cccccc" stroke="#000000" stroke-width="1.00"/>
<circle cx="210.70" cy="136.46" r="14.54" fill="#cccccc" stroke="#000000" stroke-width="1.00"/>
<circle cx="222.41" cy="206.34" r="14.54" fill="#cccccc" stroke="#000000" stroke-width="1.00"/>
<circle cx="164.74" cy="261.98" r="14.54" fill="#cccccc" stroke="#000000" stroke-width="1.00"/>
<circle cx="234.29" cy="153.64" r="14.54" fill="#cccccc" stroke="#000000" stroke-width="1.00"/>
<circle cx="179.28" cy="236.80" r="14.54" fill="#cccccc" stroke="#000000" stroke-width="1.00"/>
<polygon points="8.72,301.69 391.28,301.69 177.87,8.72" fill="none" stroke="#000000" stroke-width="1.40"/>
</svg>