<svg xmlns="http://www.w3.org/2000/svg" width="400.0" height="358.9" viewBox="0 0 400.0 358.9">
<rect width="400.0" height="358.9" fill="white"/>
<circle cx="317.86" cy="307.56" r="15.41" fill="#cccccc" stroke="#000000" stroke-width="1.00"/>
<circle cx="215.04" cy="209.27" r="15.41" fill="#cccccc" stroke="#000000" stroke-width="1.00"/>
<circle cx="230.41" cy="237.38" r="15.41" fill="#cccccc" stroke="#000000" stroke-width="1.00"/>
<circle cx="126.19" cy="280.10" r="15.41" fill="#cccccc" stroke="#000000" stroke-width="1.00"/>
<circle cx="333.26" cy="280.88" r="15.41" fill="#cccccc" stroke="#000000" stroke-width="1.00"/>
<circle cx="178.62" cy="70.22" r="15.41" fill="#cccccc" stroke="#000000" stroke-width="1.00"/>
<circle cx="35.15" cy="334.25" r="15.41" fill="#cccccc" stroke="#000000" stroke-width="1.00"/>
<circle cx="333.26" cy="334.25" r="15.41" fill="#cccccc" stroke="#000000" stroke-width="1.00"/>
<circle cx="209.34" cy="67.83" r="15.41" fill="#cccccc" stroke="#000000" stroke-width="1.00"/>
<circle cx="245.82" cy="210.70" r="15.41" fill="#cccccc" stroke="#000000" stroke-width="1.00"/>
<circle cx="215.01" cy="264.06" r="15.41" fill="#cccccc" stroke="#000000" stroke-width="1.00"/>
<circle cx="127.58" cy="333.53" r="15.41" fill="#cccccc" stroke="#000000" stroke-width="1.00"/>
<circle cx="164.05" cy="153.56" r="15.41" fill="#cccccc" stroke="#000000" stroke-width="1.00"/>
<circle cx="302.45" cy="227.51" r="15.41" fill="#cccccc" stroke="#000000" stroke-width="1.00"/>
<circle cx="163.91" cy="97.29" r="15.41" fill="#cccccc" stroke="#000000" stroke-width="1.00"/>
<circle cx="118.53" cy="180.81" r="15.41" fill="#cccccc" stroke="#000000" stroke-width="1.00"/>
<circle cx="256.23" cy="307.56" r="15.41" fill="#cccccc" stroke="#000000" stroke-width="1.00"/>
<circle cx="152.38" cy="211.29" r="15.41" fill="#cccccc" stroke="#000000" stroke-width="1.00"/>
<circle cx="271.64" cy="280.88" r="15.41" fill="#cccccc" stroke="#000000" stroke-width="1.00"/>
<circle cx="168.79" cy="290.75" r="15.41" fill="#cccccc" stroke="#000000" stroke-width="1.00"/>
<circle cx="194.71" cy="96.54" r="15.41" fill="#cccccc" stroke="#000000" stroke-width="1.00"/>
<circle cx="194.63" cy="40.76" r="15.41" fill="#cccccc" stroke="#000000" stroke-width="1.00"/>
<circle cx="241.43" cy="180.20" r="15.41" fill="#cccccc" stroke="#000000" stroke-width="1.00"/>
<circle cx="240.83" cy="280.88" r="15.41" fill="#cccccc" stroke="#000000" stroke-width="1.00"/>
<circle cx="152.73" cy="264.45" r="15.41" fill="#cccccc" stroke="#000000" stroke-width="1.00"/>
<circle cx="142.29" cy="306.46" r="15.41" fill="#cccccc" stroke="#000000" stroke-width="1.00"/>
<circle cx="256.23" cy="254.20" r="15.41" fill="#cccccc" stroke="#000000" stroke-width="1.00"/>
<circle cx="225.43" cy="94.11" r="15.41" fill="#cccccc" stroke="#000000" stroke-width="1.00"/>
<circle cx="271.64" cy="174.15" r="15.41" fill="#cccccc" stroke="#000000" stroke-width="1.00"/>
<circle cx="256.23" cy="147.46" r="15.41" fill="#cccccc" stroke="#000000" stroke-width="1.00"/>
<circle cx="271.64" cy="227.51" r="15.41" fill="#cccccc" stroke="#000000" stroke-width="1.00"/>
<circle cx="111.48" cy="307.18" r="15.41" fill="#cccccc" stroke="#000000" stroke-width="1.00"/>
<circle cx="199.60" cy="290.75" r="15.41" fill="#cccccc" stroke="#000000" stroke-width="1.00"/>
<circle cx="194.72" cy="150.64" r="15.41" fill="#cccccc" stroke="#000000" stroke-width="1.00"/>
<circle cx="287.04" cy="254.20" r="15.41" fill="#cccccc" stroke="#000000" stroke-width="1.00"/>
<circle cx="121.21" cy="211.50" r="15.41" fill="#cccccc" stroke="#000000" stroke-width="1.00"/>
<circle cx="110.09" cy="253.03" r="15.41" fill="#cccccc" stroke="#000000" stroke-width="1.00"/>
<circle cx="178.67" cy="124.33" r="15.41" fill="#cccccc" stroke="#000000" stroke-width="1.00"/>
<circle cx="199.60" cy="237.38" r="15.41" fill="#cccccc" stroke="#000000" stroke-width="1.00"/>
<circle cx="348.67" cy="307.56" r="15.41" fill="#cccccc" stroke="#000000" stroke-width="1.00"/>
<circle cx="240.19" cy="121.16" r="15.41" fill="#cccccc" stroke="#000000" stroke-width="1.00"/>
<circle cx="136.98" cy="237.97" r="15.41" fill="#cccccc" stroke="#000000" stroke-width="1.00"/>
<circle cx="317.86" cy="254.20" r="15.41" fill="#cccccc" stroke="#000000" stroke-width="1.00"/>
<circle cx="149.34" cy="180.63" r="15.41" fill="#cccccc" stroke="#000000" stroke-width="1.00"/>
<circle cx="210.01" cy="334.25" r="15.41" fill="#cccccc" stroke="#000000" stroke-width="1.00"/>
<circle cx="184.20" cy="264.06" r="15.41" fill="#cccccc" stroke="#000000" stroke-width="1.00"/>
<circle cx="93.99" cy="225.96" r="15.41" fill="#cccccc" stroke="#000000" stroke-width="1.00"/>
<circle cx="271.64" cy="334.25" r="15.41" fill="#cccccc" stroke="#000000" stroke-width="1.00"/>
<circle cx="133.24" cy="153.74" r="15.41" fill="#cccccc" stroke="#000000" stroke-width="1.00"/>
<circle cx="65.96" cy="334.25" r="15.41" fill="#cccccc" stroke="#000000" stroke-width="1.00"/>
<circle cx="240.83" cy="334.25" r="15.41" fill="#cccccc" stroke="#000000" stroke-width="1.00"/>
<circle cx="168.14" cy="237.77" r="15.41" fill="#cccccc" stroke="#000000" stroke-width="1.00"/>
<circle cx="64.57" cy="280.10" r="15.41" fill="#cccccc" stroke="#000000" stroke-width="1.00"/>
<circle cx="302.45" cy="280.88" r="15.41" fill="#cccccc" stroke="#000000" stroke-width="1.00"/>
<circle cx="80.67" cy="307.18" r="15.41" fill="#cccccc" stroke="#000000" stroke-width="1.00"/>
<circle cx="287.04" cy="307.56" r="15.41" fill="#cccccc" stroke="#000000" stroke-width="1.00"/>
<circle cx="209.47" cy="123.59" r="15.41" fill="#cccccc" stroke="#000000" stroke-width="1.00"/>
<circle cx="180.15" cy="180.46" r="15.41" fill="#cccccc" stroke="#000000" stroke-width="1.00"/>
<circle cx="210.77" cy="177.08" r="15.41" fill="#cccccc" stroke="#000000" stroke-width="1.00"/>
<circle cx="225.42" cy="307.56" r="15.41" fill="#cccccc" stroke="#000000" stroke-width="1.00"/>
<circle cx="158.38" cy="334.25" r="15.41" fill="#cccccc" stroke="#000000" stroke-width="1.00"/>
<circle cx="95.38" cy="280.10" r="15.41" fill="#cccccc" stroke="#000000" stroke-width="1.00"/>
<circle cx="225.53" cy="150.03" r="15.41" fill="#cccccc" stroke="#000000" stroke-width="1.00"/>
<circle cx="364.07" cy="334.25" r="15.41" fill="#cccccc" stroke="#000000" stroke-width="1.00"/>
<circle cx="183.55" cy="211.08" r="15.41" fill="#cccccc" stroke="#000000" stroke-width="1.00"/>
<circle cx="287.04" cy="200.83" r="15.41" fill="#cccccc" stroke="#000000" stroke-width="1.00"/>
<circle cx="147.95" cy="126.66" r="15.41" fill="#cccccc" stroke="#000000" stroke-width="1.00"/>
<circle cx="49.86" cy="307.18" r="15.41" fill="#cccccc" stroke="#000000" stroke-width="1.00"/>
<circle cx="96.77" cy="334.25" r="15.41" fill="#cccccc" stroke="#000000" stroke-width="1.00"/>
<circle cx="79.28" cy="253.03" r="15.41" fill="#cccccc" stroke="#000000" stroke-width="1.00"/>
<circle cx="302.45" cy="334.25" r="15.41" fill="#cccccc" stroke="#000000" stroke-width="1.00"/>
<circle cx="184.20" cy="317.43" r="15.41" fill="#cccccc" stroke="#000000" stroke-width="1.00"/>
<polygon points="9.24,349.65 390.76,349.65 194.22,9.24" fill="none" stroke="#000000" stroke-width="1.40"/>
</svg>