<svg xmlns="http://www.w3.org/2000/svg" width="400.0" height="342.9" viewBox="0 0 400.0 342.9">
<rect width="400.0" height="342.9" fill="white"/>
<circle cx="140.68" cy="293.08" r="14.94" fill="#cccccc" stroke="#000000" stroke-width="1.00"/>
<circle cx="80.59" cy="293.26" r="14.94" fill="#cccccc" stroke="#000000" stroke-width="1.00"/>
<circle cx="245.28" cy="318.96" r="14.94" fill="#cccccc" stroke="#000000" stroke-width="1.00"/>
<circle cx="95.86" cy="318.96" r="14.94" fill="#cccccc" stroke="#000000" stroke-width="1.00"/>
<circle cx="275.17" cy="318.96" r="14.94" fill="#cccccc" stroke="#000000" stroke-width="1.00"/>
<circle cx="95.86" cy="267.19" r="14.94" fill="#cccccc" stroke="#000000" stroke-width="1.00"/>
<circle cx="215.40" cy="318.96" r="14.94" fill="#cccccc" stroke="#000000" stroke-width="1.00"/>
<circle cx="155.63" cy="318.96" r="14.94" fill="#cccccc" stroke="#000000" stroke-width="1.00"/>
<circle cx="65.33" cy="318.96" r="14.94" fill="#cccccc" stroke="#000000" stroke-width="1.00"/>
<circle cx="305.05" cy="318.96" r="14.94" fill="#cccccc" stroke="#000000" stroke-width="1.00"/>
<circle cx="125.74" cy="267.19" r="14.94" fill="#cccccc" stroke="#000000" stroke-width="1.00"/>
<circle cx="125.74" cy="318.96" r="14.94" fill="#cccccc" stroke="#000000" stroke-width="1.00"/>
<circle cx="110.80" cy="293.08" r="14.94" fill="#cccccc" stroke="#000000" stroke-width="1.00"/>
<circle cx="35.25" cy="318.93" r="14.94" fill="#cccccc" stroke="#000000" stroke-width="1.00"/>
<circle cx="50.71" cy="292.89" r="14.94" fill="#cccccc" stroke="#000000" stroke-width="1.00"/>
<circle cx="185.51" cy="318.96" r="14.94" fill="#cccccc" stroke="#000000" stroke-width="1.00"/>
<circle cx="261.97" cy="141.77" r="14.94" fill="#cccccc" stroke="#000000" stroke-width="1.00"/>
<circle cx="260.05" cy="241.21" r="14.94" fill="#cccccc" stroke="#000000" stroke-width="1.00"/>
<circle cx="289.60" cy="189.25" r="14.94" fill="#cccccc" stroke="#000000" stroke-width="1.00"/>
<circle cx="231.92" cy="90.11" r="14.94" fill="#cccccc" stroke="#000000" stroke-width="1.00"/>
<circle cx="246.57" cy="116.16" r="14.94" fill="#cccccc" stroke="#000000" stroke-width="1.00"/>
<circle cx="319.82" cy="241.21" r="14.94" fill="#cccccc" stroke="#000000" stroke-width="1.00"/>
<circle cx="335.11" cy="318.96" r="14.94" fill="#cccccc" stroke="#000000" stroke-width="1.00"/>
<circle cx="289.94" cy="241.21" r="14.94" fill="#cccccc" stroke="#000000" stroke-width="1.00"/>
<circle cx="274.82" cy="215.23" r="14.94" fill="#cccccc" stroke="#000000" stroke-width="1.00"/>
<circle cx="290.11" cy="293.08" r="14.94" fill="#cccccc" stroke="#000000" stroke-width="1.00"/>
<circle cx="365.00" cy="318.96" r="14.94" fill="#cccccc" stroke="#000000" stroke-width="1.00"/>
<circle cx="232.09" cy="142.30" r="14.94" fill="#cccccc" stroke="#000000" stroke-width="1.00"/>
<circle cx="349.97" cy="293.03" r="14.94" fill="#cccccc" stroke="#000000" stroke-width="1.00"/>
<circle cx="320.08" cy="293.12" r="14.94" fill="#cccccc" stroke="#000000" stroke-width="1.00"/>
<circle cx="275.17" cy="267.19" r="14.94" fill="#cccccc" stroke="#000000" stroke-width="1.00"/>
<circle cx="334.94" cy="267.19" r="14.94" fill="#cccccc" stroke="#000000" stroke-width="1.00"/>
<circle cx="304.71" cy="215.23" r="14.94" fill="#cccccc" stroke="#000000" stroke-width="1.00"/>
<circle cx="305.05" cy="267.19" r="14.94" fill="#cccccc" stroke="#000000" stroke-width="1.00"/>
<circle cx="260.23" cy="293.08" r="14.94" fill="#cccccc" stroke="#000000" stroke-width="1.00"/>
<circle cx="171.34" cy="89.83" r="14.94" fill="#cccccc" stroke="#000000" stroke-width="1.00"/>
<circle cx="97.16" cy="214.70" r="14.94" fill="#cccccc" stroke="#000000" stroke-width="1.00"/>
<circle cx="187.00" cy="64.38" r="14.94" fill="#cccccc" stroke="#000000" stroke-width="1.00"/>
<circle cx="201.86" cy="38.45" r="14.94" fill="#cccccc" stroke="#000000" stroke-width="1.00"/>
<circle cx="216.89" cy="64.28" r="14.94" fill="#cccccc" stroke="#000000" stroke-width="1.00"/>
<circle cx="156.07" cy="115.52" r="14.94" fill="#cccccc" stroke="#000000" stroke-width="1.00"/>
<circle cx="151.19" cy="197.09" r="14.94" fill="#cccccc" stroke="#000000" stroke-width="1.00"/>
<circle cx="216.07" cy="167.53" r="14.94" fill="#cccccc" stroke="#000000" stroke-width="1.00"/>
<circle cx="140.81" cy="141.22" r="14.94" fill="#cccccc" stroke="#000000" stroke-width="1.00"/>
<circle cx="81.57" cy="240.95" r="14.94" fill="#cccccc" stroke="#000000" stroke-width="1.00"/>
<circle cx="200.99" cy="141.73" r="14.94" fill="#cccccc" stroke="#000000" stroke-width="1.00"/>
<circle cx="216.68" cy="116.27" r="14.94" fill="#cccccc" stroke="#000000" stroke-width="1.00"/>
<circle cx="171.10" cy="141.36" r="14.94" fill="#cccccc" stroke="#000000" stroke-width="1.00"/>
<circle cx="112.75" cy="188.45" r="14.94" fill="#cccccc" stroke="#000000" stroke-width="1.00"/>
<circle cx="136.90" cy="170.85" r="14.94" fill="#cccccc" stroke="#000000" stroke-width="1.00"/>
<circle cx="186.37" cy="115.66" r="14.94" fill="#cccccc" stroke="#000000" stroke-width="1.00"/>
<circle cx="202.03" cy="90.21" r="14.94" fill="#cccccc" stroke="#000000" stroke-width="1.00"/>
<circle cx="239.53" cy="186.04" r="14.94" fill="#cccccc" stroke="#000000" stroke-width="1.00"/>
<circle cx="65.97" cy="267.20" r="14.94" fill="#cccccc" stroke="#000000" stroke-width="1.00"/>
<circle cx="245.28" cy="267.19" r="14.94" fill="#cccccc" stroke="#000000" stroke-width="1.00"/>
<circle cx="244.94" cy="215.43" r="14.94" fill="#cccccc" stroke="#000000" stroke-width="1.00"/>
<circle cx="185.51" cy="267.19" r="14.94" fill="#cccccc" stroke="#000000" stroke-width="1.00"/>
<circle cx="200.45" cy="293.08" r="14.94" fill="#cccccc" stroke="#000000" stroke-width="1.00"/>
<circle cx="230.34" cy="293.08" r="14.94" fill="#cccccc" stroke="#000000" stroke-width="1.00"/>
<circle cx="155.63" cy="267.19" r="14.94" fill="#cccccc" stroke="#000000" stroke-width="1.00"/>
<circle cx="166.78" cy="170.93" r="14.94" fill="#cccccc" stroke="#000000" stroke-width="1.00"/>
<circle cx="215.40" cy="267.19" r="14.94" fill="#cccccc" stroke="#000000" stroke-width="1.00"/>
<circle cx="228.20" cy="240.19" r="14.94" fill="#cccccc" stroke="#000000" stroke-width="1.00"/>
<circle cx="215.01" cy="205.81" r="14.94" fill="#cccccc" stroke="#000000" stroke-width="1.00"/>
<circle cx="127.04" cy="214.70" r="14.94" fill="#cccccc" stroke="#000000" stroke-width="1.00"/>
<circle cx="170.57" cy="293.08" r="14.94" fill="#cccccc" stroke="#000000" stroke-width="1.00"/>
<circle cx="171.22" cy="240.95" r="14.94" fill="#cccccc" stroke="#000000" stroke-width="1.00"/>
<circle cx="192.58" cy="186.01" r="14.94" fill="#cccccc" stroke="#000000" stroke-width="1.00"/>
<circle cx="199.59" cy="231.55" r="14.94" fill="#cccccc" stroke="#000000" stroke-width="1.00"/>
<circle cx="111.45" cy="240.95" r="14.94" fill="#cccccc" stroke="#000000" stroke-width="1.00"/>
<circle cx="141.34" cy="240.95" r="14.94" fill="#cccccc" stroke="#000000" stroke-width="1.00"/>
<circle cx="177.27" cy="211.68" r="14.94" fill="#cccccc" stroke="#000000" stroke-width="1.00"/>
<circle cx="265.60" cy="171.44" r="14.94" fill="#cccccc" stroke="#000000" stroke-width="1.00"/>
<polygon points="8.97,333.90 391.03,333.90 202.00,8.97" fill="none" stroke="#000000" stroke-width="1.40"/>
</svg>