<svg xmlns="http://www.w3.org/2000/svg" width="400.0" height="348.7" viewBox="0 0 400.0 348.7">
<rect width="400.0" height="348.7" fill="white"/>
<circle cx="97.50" cy="272.03" r="15.05" fill="#cccccc" stroke="#000000" stroke-width="1.00"/>
<circle cx="142.64" cy="299.07" r="15.05" fill="#cccccc" stroke="#000000" stroke-width="1.00"/>
<circle cx="126.75" cy="324.63" r="15.05" fill="#cccccc" stroke="#000000" stroke-width="1.00"/>
<circle cx="158.54" cy="324.63" r="15.05" fill="#cccccc" stroke="#000000" stroke-width="1.00"/>
<circle cx="208.92" cy="302.38" r="15.05" fill="#cccccc" stroke="#000000" stroke-width="1.00"/>
<circle cx="35.99" cy="324.63" r="15.05" fill="#cccccc" stroke="#000000" stroke-width="1.00"/>
<circle cx="51.28" cy="298.44" r="15.05" fill="#cccccc" stroke="#000000" stroke-width="1.00"/>
<circle cx="305.17" cy="324.63" r="15.05" fill="#cccccc" stroke="#000000" stroke-width="1.00"/>
<circle cx="96.23" cy="324.63" r="15.05" fill="#cccccc" stroke="#000000" stroke-width="1.00"/>
<circle cx="127.59" cy="272.81" r="15.05" fill="#cccccc" stroke="#000000" stroke-width="1.00"/>
<circle cx="66.12" cy="324.63" r="15.05" fill="#cccccc" stroke="#000000" stroke-width="1.00"/>
<circle cx="229.19" cy="324.63" r="15.05" fill="#cccccc" stroke="#000000" stroke-width="1.00"/>
<circle cx="259.29" cy="324.63" r="15.05" fill="#cccccc" stroke="#000000" stroke-width="1.00"/>
<circle cx="188.64" cy="324.63" r="15.05" fill="#cccccc" stroke="#000000" stroke-width="1.00"/>
<circle cx="111.49" cy="298.68" r="15.05" fill="#cccccc" stroke="#000000" stroke-width="1.00"/>
<circle cx="81.39" cy="298.20" r="15.05" fill="#cccccc" stroke="#000000" stroke-width="1.00"/>
<circle cx="112.97" cy="246.21" r="15.05" fill="#cccccc" stroke="#000000" stroke-width="1.00"/>
<circle cx="279.77" cy="170.68" r="15.05" fill="#cccccc" stroke="#000000" stroke-width="1.00"/>
<circle cx="248.83" cy="222.32" r="15.05" fill="#cccccc" stroke="#000000" stroke-width="1.00"/>
<circle cx="294.40" cy="196.99" r="15.05" fill="#cccccc" stroke="#000000" stroke-width="1.00"/>
<circle cx="250.52" cy="118.06" r="15.05" fill="#cccccc" stroke="#000000" stroke-width="1.00"/>
<circle cx="265.15" cy="144.37" r="15.05" fill="#cccccc" stroke="#000000" stroke-width="1.00"/>
<circle cx="312.64" cy="253.18" r="15.05" fill="#cccccc" stroke="#000000" stroke-width="1.00"/>
<circle cx="335.28" cy="324.63" r="15.05" fill="#cccccc" stroke="#000000" stroke-width="1.00"/>
<circle cx="282.55" cy="252.70" r="15.05" fill="#cccccc" stroke="#000000" stroke-width="1.00"/>
<circle cx="278.93" cy="222.81" r="15.05" fill="#cccccc" stroke="#000000" stroke-width="1.00"/>
<circle cx="282.23" cy="305.14" r="15.05" fill="#cccccc" stroke="#000000" stroke-width="1.00"/>
<circle cx="365.38" cy="324.63" r="15.05" fill="#cccccc" stroke="#000000" stroke-width="1.00"/>
<circle cx="249.68" cy="170.19" r="15.05" fill="#cccccc" stroke="#000000" stroke-width="1.00"/>
<circle cx="350.33" cy="298.56" r="15.05" fill="#cccccc" stroke="#000000" stroke-width="1.00"/>
<circle cx="320.11" cy="298.50" r="15.05" fill="#cccccc" stroke="#000000" stroke-width="1.00"/>
<circle cx="256.37" cy="267.56" r="15.05" fill="#cccccc" stroke="#000000" stroke-width="1.00"/>
<circle cx="336.12" cy="272.02" r="15.05" fill="#cccccc" stroke="#000000" stroke-width="1.00"/>
<circle cx="309.03" cy="223.30" r="15.05" fill="#cccccc" stroke="#000000" stroke-width="1.00"/>
<circle cx="297.17" cy="279.01" r="15.05" fill="#cccccc" stroke="#000000" stroke-width="1.00"/>
<circle cx="248.37" cy="296.58" r="15.05" fill="#cccccc" stroke="#000000" stroke-width="1.00"/>
<circle cx="175.69" cy="90.78" r="15.05" fill="#cccccc" stroke="#000000" stroke-width="1.00"/>
<circle cx="98.34" cy="219.90" r="15.05" fill="#cccccc" stroke="#000000" stroke-width="1.00"/>
<circle cx="191.16" cy="64.95" r="15.05" fill="#cccccc" stroke="#000000" stroke-width="1.00"/>
<circle cx="206.63" cy="39.13" r="15.05" fill="#cccccc" stroke="#000000" stroke-width="1.00"/>
<circle cx="221.26" cy="65.44" r="15.05" fill="#cccccc" stroke="#000000" stroke-width="1.00"/>
<circle cx="190.32" cy="117.09" r="15.05" fill="#cccccc" stroke="#000000" stroke-width="1.00"/>
<circle cx="159.38" cy="168.73" r="15.05" fill="#cccccc" stroke="#000000" stroke-width="1.00"/>
<circle cx="160.22" cy="116.60" r="15.05" fill="#cccccc" stroke="#000000" stroke-width="1.00"/>
<circle cx="144.75" cy="142.42" r="15.05" fill="#cccccc" stroke="#000000" stroke-width="1.00"/>
<circle cx="82.87" cy="245.72" r="15.05" fill="#cccccc" stroke="#000000" stroke-width="1.00"/>
<circle cx="235.05" cy="143.88" r="15.05" fill="#cccccc" stroke="#000000" stroke-width="1.00"/>
<circle cx="235.89" cy="91.75" r="15.05" fill="#cccccc" stroke="#000000" stroke-width="1.00"/>
<circle cx="204.95" cy="143.40" r="15.05" fill="#cccccc" stroke="#000000" stroke-width="1.00"/>
<circle cx="113.81" cy="194.07" r="15.05" fill="#cccccc" stroke="#000000" stroke-width="1.00"/>
<circle cx="129.28" cy="168.25" r="15.05" fill="#cccccc" stroke="#000000" stroke-width="1.00"/>
<circle cx="220.42" cy="117.57" r="15.05" fill="#cccccc" stroke="#000000" stroke-width="1.00"/>
<circle cx="205.79" cy="91.26" r="15.05" fill="#cccccc" stroke="#000000" stroke-width="1.00"/>
<circle cx="174.85" cy="142.91" r="15.05" fill="#cccccc" stroke="#000000" stroke-width="1.00"/>
<circle cx="67.40" cy="271.54" r="15.05" fill="#cccccc" stroke="#000000" stroke-width="1.00"/>
<circle cx="233.36" cy="248.15" r="15.05" fill="#cccccc" stroke="#000000" stroke-width="1.00"/>
<circle cx="234.21" cy="196.02" r="15.05" fill="#cccccc" stroke="#000000" stroke-width="1.00"/>
<circle cx="203.26" cy="247.66" r="15.05" fill="#cccccc" stroke="#000000" stroke-width="1.00"/>
<circle cx="193.92" cy="276.28" r="15.05" fill="#cccccc" stroke="#000000" stroke-width="1.00"/>
<circle cx="225.36" cy="277.17" r="15.05" fill="#cccccc" stroke="#000000" stroke-width="1.00"/>
<circle cx="158.54" cy="220.87" r="15.05" fill="#cccccc" stroke="#000000" stroke-width="1.00"/>
<circle cx="189.48" cy="169.22" r="15.05" fill="#cccccc" stroke="#000000" stroke-width="1.00"/>
<circle cx="173.17" cy="247.18" r="15.05" fill="#cccccc" stroke="#000000" stroke-width="1.00"/>
<circle cx="218.74" cy="221.84" r="15.05" fill="#cccccc" stroke="#000000" stroke-width="1.00"/>
<circle cx="219.58" cy="169.71" r="15.05" fill="#cccccc" stroke="#000000" stroke-width="1.00"/>
<circle cx="128.44" cy="220.38" r="15.05" fill="#cccccc" stroke="#000000" stroke-width="1.00"/>
<circle cx="173.65" cy="298.53" r="15.05" fill="#cccccc" stroke="#000000" stroke-width="1.00"/>
<circle cx="143.91" cy="194.56" r="15.05" fill="#cccccc" stroke="#000000" stroke-width="1.00"/>
<circle cx="204.11" cy="195.53" r="15.05" fill="#cccccc" stroke="#000000" stroke-width="1.00"/>
<circle cx="188.64" cy="221.35" r="15.05" fill="#cccccc" stroke="#000000" stroke-width="1.00"/>
<circle cx="143.07" cy="246.69" r="15.05" fill="#cccccc" stroke="#000000" stroke-width="1.00"/>
<circle cx="157.70" cy="273.00" r="15.05" fill="#cccccc" stroke="#000000" stroke-width="1.00"/>
<circle cx="174.01" cy="195.04" r="15.05" fill="#cccccc" stroke="#000000" stroke-width="1.00"/>
<circle cx="264.30" cy="196.50" r="15.05" fill="#cccccc" stroke="#000000" stroke-width="1.00"/>
<polygon points="9.03,339.68 390.97,339.68 207.12,9.03" fill="none" stroke="#000000" stroke-width="1.40"/>
</svg>