<svg xmlns="http://www.w3.org/2000/svg" width="400.0" height="352.3" viewBox="0 0 400.0 352.3">
<rect width="400.0" height="352.3" fill="white"/>
<circle cx="180.76" cy="276.90" r="15.09" fill="#cccccc" stroke="#000000" stroke-width="1.00"/>
<circle cx="167.00" cy="250.03" r="15.09" fill="#cccccc" stroke="#000000" stroke-width="1.00"/>
<circle cx="110.78" cy="281.43" r="15.09" fill="#cccccc" stroke="#000000" stroke-width="1.00"/>
<circle cx="334.06" cy="328.19" r="15.09" fill="#cccccc" stroke="#000000" stroke-width="1.00"/>
<circle cx="76.48" cy="252.14" r="15.09" fill="#cccccc" stroke="#000000" stroke-width="1.00"/>
<circle cx="110.40" cy="328.19" r="15.09" fill="#cccccc" stroke="#000000" stroke-width="1.00"/>
<circle cx="303.43" cy="328.19" r="15.09" fill="#cccccc" stroke="#000000" stroke-width="1.00"/>
<circle cx="209.11" cy="65.70" r="15.09" fill="#cccccc" stroke="#000000" stroke-width="1.00"/>
<circle cx="287.73" cy="249.57" r="15.09" fill="#cccccc" stroke="#000000" stroke-width="1.00"/>
<circle cx="273.13" cy="275.99" r="15.09" fill="#cccccc" stroke="#000000" stroke-width="1.00"/>
<circle cx="146.10" cy="279.65" r="15.09" fill="#cccccc" stroke="#000000" stroke-width="1.00"/>
<circle cx="240.05" cy="117.97" r="15.09" fill="#cccccc" stroke="#000000" stroke-width="1.00"/>
<circle cx="85.93" cy="298.56" r="15.09" fill="#cccccc" stroke="#000000" stroke-width="1.00"/>
<circle cx="333.49" cy="275.85" r="15.09" fill="#cccccc" stroke="#000000" stroke-width="1.00"/>
<circle cx="129.68" cy="304.97" r="15.09" fill="#cccccc" stroke="#000000" stroke-width="1.00"/>
<circle cx="196.12" cy="197.15" r="15.09" fill="#cccccc" stroke="#000000" stroke-width="1.00"/>
<circle cx="149.51" cy="119.52" r="15.09" fill="#cccccc" stroke="#000000" stroke-width="1.00"/>
<circle cx="193.61" cy="39.59" r="15.09" fill="#cccccc" stroke="#000000" stroke-width="1.00"/>
<circle cx="302.29" cy="223.13" r="15.09" fill="#cccccc" stroke="#000000" stroke-width="1.00"/>
<circle cx="178.93" cy="66.10" r="15.09" fill="#cccccc" stroke="#000000" stroke-width="1.00"/>
<circle cx="256.49" cy="197.07" r="15.09" fill="#cccccc" stroke="#000000" stroke-width="1.00"/>
<circle cx="150.57" cy="171.79" r="15.09" fill="#cccccc" stroke="#000000" stroke-width="1.00"/>
<circle cx="181.80" cy="328.19" r="15.09" fill="#cccccc" stroke="#000000" stroke-width="1.00"/>
<circle cx="165.13" cy="145.35" r="15.09" fill="#cccccc" stroke="#000000" stroke-width="1.00"/>
<circle cx="225.49" cy="144.41" r="15.09" fill="#cccccc" stroke="#000000" stroke-width="1.00"/>
<circle cx="364.41" cy="328.08" r="15.09" fill="#cccccc" stroke="#000000" stroke-width="1.00"/>
<circle cx="106.65" cy="251.53" r="15.09" fill="#cccccc" stroke="#000000" stroke-width="1.00"/>
<circle cx="148.96" cy="328.19" r="15.09" fill="#cccccc" stroke="#000000" stroke-width="1.00"/>
<circle cx="272.11" cy="223.18" r="15.09" fill="#cccccc" stroke="#000000" stroke-width="1.00"/>
<circle cx="164.19" cy="92.86" r="15.09" fill="#cccccc" stroke="#000000" stroke-width="1.00"/>
<circle cx="180.75" cy="171.18" r="15.09" fill="#cccccc" stroke="#000000" stroke-width="1.00"/>
<circle cx="57.40" cy="308.43" r="15.09" fill="#cccccc" stroke="#000000" stroke-width="1.00"/>
<circle cx="80.21" cy="328.19" r="15.09" fill="#cccccc" stroke="#000000" stroke-width="1.00"/>
<circle cx="165.94" cy="197.76" r="15.09" fill="#cccccc" stroke="#000000" stroke-width="1.00"/>
<circle cx="197.18" cy="302.22" r="15.09" fill="#cccccc" stroke="#000000" stroke-width="1.00"/>
<circle cx="288.26" cy="302.10" r="15.09" fill="#cccccc" stroke="#000000" stroke-width="1.00"/>
<circle cx="224.55" cy="91.78" r="15.09" fill="#cccccc" stroke="#000000" stroke-width="1.00"/>
<circle cx="242.82" cy="275.96" r="15.09" fill="#cccccc" stroke="#000000" stroke-width="1.00"/>
<circle cx="227.69" cy="302.08" r="15.09" fill="#cccccc" stroke="#000000" stroke-width="1.00"/>
<circle cx="34.59" cy="328.19" r="15.09" fill="#cccccc" stroke="#000000" stroke-width="1.00"/>
<circle cx="105.60" cy="199.26" r="15.09" fill="#cccccc" stroke="#000000" stroke-width="1.00"/>
<circle cx="136.83" cy="250.92" r="15.09" fill="#cccccc" stroke="#000000" stroke-width="1.00"/>
<circle cx="317.91" cy="249.53" r="15.09" fill="#cccccc" stroke="#000000" stroke-width="1.00"/>
<circle cx="61.92" cy="278.58" r="15.09" fill="#cccccc" stroke="#000000" stroke-width="1.00"/>
<circle cx="195.30" cy="144.59" r="15.09" fill="#cccccc" stroke="#000000" stroke-width="1.00"/>
<circle cx="273.08" cy="328.19" r="15.09" fill="#cccccc" stroke="#000000" stroke-width="1.00"/>
<circle cx="227.37" cy="249.94" r="15.09" fill="#cccccc" stroke="#000000" stroke-width="1.00"/>
<circle cx="241.93" cy="223.50" r="15.09" fill="#cccccc" stroke="#000000" stroke-width="1.00"/>
<circle cx="226.30" cy="197.11" r="15.09" fill="#cccccc" stroke="#000000" stroke-width="1.00"/>
<circle cx="181.56" cy="223.59" r="15.09" fill="#cccccc" stroke="#000000" stroke-width="1.00"/>
<circle cx="212.55" cy="328.19" r="15.09" fill="#cccccc" stroke="#000000" stroke-width="1.00"/>
<circle cx="135.77" cy="198.37" r="15.09" fill="#cccccc" stroke="#000000" stroke-width="1.00"/>
<circle cx="151.38" cy="224.20" r="15.09" fill="#cccccc" stroke="#000000" stroke-width="1.00"/>
<circle cx="179.69" cy="118.77" r="15.09" fill="#cccccc" stroke="#000000" stroke-width="1.00"/>
<circle cx="210.93" cy="170.85" r="15.09" fill="#cccccc" stroke="#000000" stroke-width="1.00"/>
<circle cx="257.55" cy="249.62" r="15.09" fill="#cccccc" stroke="#000000" stroke-width="1.00"/>
<circle cx="255.67" cy="144.37" r="15.09" fill="#cccccc" stroke="#000000" stroke-width="1.00"/>
<circle cx="212.31" cy="276.10" r="15.09" fill="#cccccc" stroke="#000000" stroke-width="1.00"/>
<circle cx="165.38" cy="302.87" r="15.09" fill="#cccccc" stroke="#000000" stroke-width="1.00"/>
<circle cx="120.39" cy="172.40" r="15.09" fill="#cccccc" stroke="#000000" stroke-width="1.00"/>
<circle cx="241.11" cy="170.81" r="15.09" fill="#cccccc" stroke="#000000" stroke-width="1.00"/>
<circle cx="303.31" cy="275.94" r="15.09" fill="#cccccc" stroke="#000000" stroke-width="1.00"/>
<circle cx="91.04" cy="225.70" r="15.09" fill="#cccccc" stroke="#000000" stroke-width="1.00"/>
<circle cx="211.74" cy="223.55" r="15.09" fill="#cccccc" stroke="#000000" stroke-width="1.00"/>
<circle cx="197.18" cy="249.99" r="15.09" fill="#cccccc" stroke="#000000" stroke-width="1.00"/>
<circle cx="318.75" cy="302.18" r="15.09" fill="#cccccc" stroke="#000000" stroke-width="1.00"/>
<circle cx="286.67" cy="196.74" r="15.09" fill="#cccccc" stroke="#000000" stroke-width="1.00"/>
<circle cx="242.82" cy="328.19" r="15.09" fill="#cccccc" stroke="#000000" stroke-width="1.00"/>
<circle cx="121.21" cy="225.09" r="15.09" fill="#cccccc" stroke="#000000" stroke-width="1.00"/>
<circle cx="348.93" cy="301.93" r="15.09" fill="#cccccc" stroke="#000000" stroke-width="1.00"/>
<circle cx="194.36" cy="92.04" r="15.09" fill="#cccccc" stroke="#000000" stroke-width="1.00"/>
<circle cx="209.86" cy="118.16" r="15.09" fill="#cccccc" stroke="#000000" stroke-width="1.00"/>
<circle cx="134.95" cy="145.96" r="15.09" fill="#cccccc" stroke="#000000" stroke-width="1.00"/>
<circle cx="271.29" cy="170.76" r="15.09" fill="#cccccc" stroke="#000000" stroke-width="1.00"/>
<circle cx="257.95" cy="302.08" r="15.09" fill="#cccccc" stroke="#000000" stroke-width="1.00"/>
<polygon points="9.05,343.29 390.95,343.29 193.12,9.05" fill="none" stroke="#000000" stroke-width="1.40"/>
</svg>