<svg xmlns="http://www.w3.org/2000/svg" width="400.0" height="347.3" viewBox="0 0 400.0 347.3">
<rect width="400.0" height="347.3" fill="white"/>
<circle cx="176.32" cy="37.81" r="14.56" fill="#cccccc" stroke="#000000" stroke-width="1.00"/>
<circle cx="163.23" cy="63.83" r="14.56" fill="#cccccc" stroke="#000000" stroke-width="1.00"/>
<circle cx="192.31" cy="62.15" r="14.56" fill="#cccccc" stroke="#000000" stroke-width="1.00"/>
<circle cx="150.14" cy="89.84" r="14.56" fill="#cccccc" stroke="#000000" stroke-width="1.00"/>
<circle cx="179.22" cy="88.17" r="14.56" fill="#cccccc" stroke="#000000" stroke-width="1.00"/>
<circle cx="208.29" cy="86.50" r="14.56" fill="#cccccc" stroke="#000000" stroke-width="1.00"/>
<circle cx="137.06" cy="115.86" r="14.56" fill="#cccccc" stroke="#000000" stroke-width="1.00"/>
<circle cx="166.13" cy="114.19" r="14.56" fill="#cccccc" stroke="#000000" stroke-width="1.00"/>
<circle cx="195.21" cy="112.51" r="14.56" fill="#cccccc" stroke="#000000" stroke-width="1.00"/>
<circle cx="224.28" cy="110.84" r="14.56" fill="#cccccc" stroke="#000000" stroke-width="1.00"/>
<circle cx="123.97" cy="141.88" r="14.56" fill="#cccccc" stroke="#000000" stroke-width="1.00"/>
<circle cx="153.04" cy="140.20" r="14.56" fill="#cccccc" stroke="#000000" stroke-width="1.00"/>
<circle cx="182.12" cy="138.53" r="14.56" fill="#cccccc" stroke="#000000" stroke-width="1.00"/>
<circle cx="211.19" cy="136.85" r="14.56" fill="#cccccc" stroke="#000000" stroke-width="1.00"/>
<circle cx="240.27" cy="135.18" r="14.56" fill="#cccccc" stroke="#000000" stroke-width="1.00"/>
<circle cx="110.88" cy="167.89" r="14.56" fill="#cccccc" stroke="#000000" stroke-width="1.00"/>
<circle cx="139.96" cy="166.22" r="14.56" fill="#cccccc" stroke="#000000" stroke-width="1.00"/>
<circle cx="169.03" cy="164.54" r="14.56" fill="#cccccc" stroke="#000000" stroke-width="1.00"/>
<circle cx="198.11" cy="162.87" r="14.56" fill="#cccccc" stroke="#000000" stroke-width="1.00"/>
<circle cx="227.18" cy="161.20" r="14.56" fill="#cccccc" stroke="#000000" stroke-width="1.00"/>
<circle cx="256.26" cy="159.52" r="14.56" fill="#cccccc" stroke="#000000" stroke-width="1.00"/>
<circle cx="97.80" cy="193.91" r="14.56" fill="#cccccc" stroke="#000000" stroke-width="1.00"/>
<circle cx="126.87" cy="192.24" r="14.56" fill="#cccccc" stroke="#000000" stroke-width="1.00"/>
<circle cx="155.95" cy="190.56" r="14.56" fill="#cccccc" stroke="#000000" stroke-width="1.00"/>
<circle cx="185.02" cy="188.89" r="14.56" fill="#cccccc" stroke="#000000" stroke-width="1.00"/>
<circle cx="214.09" cy="187.21" r="14.56" fill="#cccccc" stroke="#000000" stroke-width="1.00"/>
<circle cx="243.17" cy="185.54" r="14.56" fill="#cccccc" stroke="#000000" stroke-width="1.00"/>
<circle cx="272.24" cy="183.86" r="14.56" fill="#cccccc" stroke="#000000" stroke-width="1.00"/>
<circle cx="84.71" cy="219.93" r="14.56" fill="#cccccc" stroke="#000000" stroke-width="1.00"/>
<circle cx="113.78" cy="218.25" r="14.56" fill="#cccccc" stroke="#000000" stroke-width="1.00"/>
<circle cx="142.86" cy="216.58" r="14.56" fill="#cccccc" stroke="#000000" stroke-width="1.00"/>
<circle cx="171.93" cy="214.90" r="14.56" fill="#cccccc" stroke="#000000" stroke-width="1.00"/>
<circle cx="201.01" cy="213.23" r="14.56" fill="#cccccc" stroke="#000000" stroke-width="1.00"/>
<circle cx="230.08" cy="211.55" r="14.56" fill="#cccccc" stroke="#000000" stroke-width="1.00"/>
<circle cx="259.16" cy="209.88" r="14.56" fill="#cccccc" stroke="#000000" stroke-width="1.00"/>
<circle cx="288.23" cy="208.20" r="14.56" fill="#cccccc" stroke="#000000" stroke-width="1.00"/>
<circle cx="71.62" cy="245.94" r="14.56" fill="#cccccc" stroke="#000000" stroke-width="1.00"/>
<circle cx="100.70" cy="244.27" r="14.56" fill="#cccccc" stroke="#000000" stroke-width="1.00"/>
<circle cx="129.77" cy="242.59" r="14.56" fill="#cccccc" stroke="#000000" stroke-width="1.00"/>
<circle cx="158.85" cy="240.92" r="14.56" fill="#cccccc" stroke="#000000" stroke-width="1.00"/>
<circle cx="187.92" cy="239.24" r="14.56" fill="#cccccc" stroke="#000000" stroke-width="1.00"/>
<circle cx="216.99" cy="237.57" r="14.56" fill="#cccccc" stroke="#000000" stroke-width="1.00"/>
<circle cx="246.07" cy="235.90" r="14.56" fill="#cccccc" stroke="#000000" stroke-width="1.00"/>
<circle cx="275.14" cy="234.22" r="14.56" fill="#cccccc" stroke="#000000" stroke-width="1.00"/>
<circle cx="304.22" cy="232.55" r="14.56" fill="#cccccc" stroke="#000000" stroke-width="1.00"/>
<circle cx="58.54" cy="271.96" r="14.56" fill="#cccccc" stroke="#000000" stroke-width="1.00"/>
<circle cx="87.61" cy="270.29" r="14.56" fill="#cccccc" stroke="#000000" stroke-width="1.00"/>
<circle cx="116.68" cy="268.61" r="14.56" fill="#cccccc" stroke="#000000" stroke-width="1.00"/>
<circle cx="145.76" cy="266.94" r="14.56" fill="#cccccc" stroke="#000000" stroke-width="1.00"/>
<circle cx="174.83" cy="265.26" r="14.56" fill="#cccccc" stroke="#000000" stroke-width="1.00"/>
<circle cx="203.91" cy="263.59" r="14.56" fill="#cccccc" stroke="#000000" stroke-width="1.00"/>
<circle cx="232.98" cy="261.91" r="14.56" fill="#cccccc" stroke="#000000" stroke-width="1.00"/>
<circle cx="262.06" cy="260.24" r="14.56" fill="#cccccc" stroke="#000000" stroke-width="1.00"/>
<circle cx="291.13" cy="258.56" r="14.56" fill="#cccccc" stroke="#000000" stroke-width="1.00"/>
<circle cx="320.21" cy="256.89" r="14.56" fill="#cccccc" stroke="#000000" stroke-width="1.00"/>
<circle cx="45.45" cy="297.98" r="14.56" fill="#cccccc" stroke="#000000" stroke-width="1.00"/>
<circle cx="74.52" cy="296.30" r="14.56" fill="#cccccc" stroke="#000000" stroke-width="1.00"/>
<circle cx="103.60" cy="294.63" r="14.56" fill="#cccccc" stroke="#000000" stroke-width="1.00"/>
<circle cx="132.70" cy="293.34" r="14.56" fill="#cccccc" stroke="#000000" stroke-width="1.00"/>
<circle cx="161.75" cy="291.28" r="14.56" fill="#cccccc" stroke="#000000" stroke-width="1.00"/>
<circle cx="190.87" cy="291.26" r="14.56" fill="#cccccc" stroke="#000000" stroke-width="1.00"/>
<circle cx="219.89" cy="287.93" r="14.56" fill="#cccccc" stroke="#000000" stroke-width="1.00"/>
<circle cx="248.88" cy="290.72" r="14.56" fill="#cccccc" stroke="#000000" stroke-width="1.00"/>
<circle cx="278.04" cy="284.58" r="14.56" fill="#cccccc" stroke="#000000" stroke-width="1.00"/>
<circle cx="306.51" cy="291.55" r="14.56" fill="#cccccc" stroke="#000000" stroke-width="1.00"/>
<circle cx="336.19" cy="281.23" r="14.56" fill="#cccccc" stroke="#000000" stroke-width="1.00"/>
<circle cx="32.36" cy="323.99" r="14.56" fill="#cccccc" stroke="#000000" stroke-width="1.00"/>
<circle cx="61.44" cy="322.32" r="14.56" fill="#cccccc" stroke="#000000" stroke-width="1.00"/>
<circle cx="90.51" cy="323.99" r="14.56" fill="#cccccc" stroke="#000000" stroke-width="1.00"/>
<circle cx="119.23" cy="319.20" r="14.56" fill="#cccccc" stroke="#000000" stroke-width="1.00"/>
<circle cx="147.96" cy="323.99" r="14.56" fill="#cccccc" stroke="#000000" stroke-width="1.00"/>
<circle cx="176.13" cy="316.60" r="14.56" fill="#cccccc" stroke="#000000" stroke-width="1.00"/>
<circle cx="204.30" cy="323.99" r="14.56" fill="#cccccc" stroke="#000000" stroke-width="1.00"/>
<circle cx="231.83" cy="314.49" r="14.56" fill="#cccccc" stroke="#000000" stroke-width="1.00"/>
<circle cx="259.36" cy="323.99" r="14.56" fill="#cccccc" stroke="#000000" stroke-width="1.00"/>
<circle cx="286.14" cy="312.55" r="14.56" fill="#cccccc" stroke="#000000" stroke-width="1.00"/>
<circle cx="312.92" cy="323.99" r="14.56" fill="#cccccc" stroke="#000000" stroke-width="1.00"/>
<circle cx="338.60" cy="310.25" r="14.56" fill="#cccccc" stroke="#000000" stroke-width="1.00"/>
<circle cx="364.28" cy="323.99" r="14.56" fill="#cccccc" stroke="#000000" stroke-width="1.00"/>
<polygon points="8.74,338.55 391.26,338.55 174.64,8.74" fill="none" stroke="#000000" stroke-width="1.40"/>
</svg>