<svg xmlns="http://www.w3.org/2000/svg" width="400.0" height="377.0" viewBox="0 0 400.0 377.0">
<rect width="400.0" height="377.0" fill="white"/>
<circle cx="155.77" cy="143.94" r="15.08" fill="#cccccc" stroke="#000000" stroke-width="1.00"/>
<circle cx="276.39" cy="300.62" r="15.08" fill="#cccccc" stroke="#000000" stroke-width="1.00"/>
<circle cx="216.08" cy="300.62" r="15.08" fill="#cccccc" stroke="#000000" stroke-width="1.00"/>
<circle cx="216.08" cy="352.85" r="15.08" fill="#cccccc" stroke="#000000" stroke-width="1.00"/>
<circle cx="229.06" cy="69.81" r="15.08" fill="#cccccc" stroke="#000000" stroke-width="1.00"/>
<circle cx="234.47" cy="142.08" r="15.08" fill="#cccccc" stroke="#000000" stroke-width="1.00"/>
<circle cx="246.23" cy="300.62" r="15.08" fill="#cccccc" stroke="#000000" stroke-width="1.00"/>
<circle cx="201.00" cy="274.51" r="15.08" fill="#cccccc" stroke="#000000" stroke-width="1.00"/>
<circle cx="170.85" cy="170.05" r="15.08" fill="#cccccc" stroke="#000000" stroke-width="1.00"/>
<circle cx="261.31" cy="326.73" r="15.08" fill="#cccccc" stroke="#000000" stroke-width="1.00"/>
<circle cx="50.24" cy="326.73" r="15.08" fill="#cccccc" stroke="#000000" stroke-width="1.00"/>
<circle cx="209.51" cy="125.15" r="15.08" fill="#cccccc" stroke="#000000" stroke-width="1.00"/>
<circle cx="110.54" cy="222.28" r="15.08" fill="#cccccc" stroke="#000000" stroke-width="1.00"/>
<circle cx="155.77" cy="196.17" r="15.08" fill="#cccccc" stroke="#000000" stroke-width="1.00"/>
<circle cx="231.16" cy="326.73" r="15.08" fill="#cccccc" stroke="#000000" stroke-width="1.00"/>
<circle cx="125.62" cy="300.62" r="15.08" fill="#cccccc" stroke="#000000" stroke-width="1.00"/>
<circle cx="306.68" cy="300.54" r="15.08" fill="#cccccc" stroke="#000000" stroke-width="1.00"/>
<circle cx="225.82" cy="99.79" r="15.08" fill="#cccccc" stroke="#000000" stroke-width="1.00"/>
<circle cx="170.85" cy="117.83" r="15.08" fill="#cccccc" stroke="#000000" stroke-width="1.00"/>
<circle cx="231.16" cy="222.28" r="15.08" fill="#cccccc" stroke="#000000" stroke-width="1.00"/>
<circle cx="271.84" cy="218.59" r="15.08" fill="#cccccc" stroke="#000000" stroke-width="1.00"/>
<circle cx="65.31" cy="352.85" r="15.08" fill="#cccccc" stroke="#000000" stroke-width="1.00"/>
<circle cx="140.70" cy="274.51" r="15.08" fill="#cccccc" stroke="#000000" stroke-width="1.00"/>
<circle cx="185.93" cy="248.39" r="15.08" fill="#cccccc" stroke="#000000" stroke-width="1.00"/>
<circle cx="125.62" cy="352.85" r="15.08" fill="#cccccc" stroke="#000000" stroke-width="1.00"/>
<circle cx="291.46" cy="274.51" r="15.08" fill="#cccccc" stroke="#000000" stroke-width="1.00"/>
<circle cx="35.16" cy="352.85" r="15.08" fill="#cccccc" stroke="#000000" stroke-width="1.00"/>
<circle cx="155.77" cy="352.85" r="15.08" fill="#cccccc" stroke="#000000" stroke-width="1.00"/>
<circle cx="95.47" cy="352.85" r="15.08" fill="#cccccc" stroke="#000000" stroke-width="1.00"/>
<circle cx="246.23" cy="352.85" r="15.08" fill="#cccccc" stroke="#000000" stroke-width="1.00"/>
<circle cx="216.08" cy="248.39" r="15.08" fill="#cccccc" stroke="#000000" stroke-width="1.00"/>
<circle cx="155.77" cy="300.62" r="15.08" fill="#cccccc" stroke="#000000" stroke-width="1.00"/>
<circle cx="246.23" cy="248.39" r="15.08" fill="#cccccc" stroke="#000000" stroke-width="1.00"/>
<circle cx="65.31" cy="300.62" r="15.08" fill="#cccccc" stroke="#000000" stroke-width="1.00"/>
<circle cx="336.69" cy="352.85" r="15.08" fill="#cccccc" stroke="#000000" stroke-width="1.00"/>
<circle cx="110.54" cy="326.73" r="15.08" fill="#cccccc" stroke="#000000" stroke-width="1.00"/>
<circle cx="140.70" cy="170.05" r="15.08" fill="#cccccc" stroke="#000000" stroke-width="1.00"/>
<circle cx="80.39" cy="274.51" r="15.08" fill="#cccccc" stroke="#000000" stroke-width="1.00"/>
<circle cx="321.62" cy="326.73" r="15.08" fill="#cccccc" stroke="#000000" stroke-width="1.00"/>
<circle cx="353.65" cy="325.74" r="15.08" fill="#cccccc" stroke="#000000" stroke-width="1.00"/>
<circle cx="216.08" cy="196.17" r="15.08" fill="#cccccc" stroke="#000000" stroke-width="1.00"/>
<circle cx="234.42" cy="172.23" r="15.08" fill="#cccccc" stroke="#000000" stroke-width="1.00"/>
<circle cx="110.54" cy="274.51" r="15.08" fill="#cccccc" stroke="#000000" stroke-width="1.00"/>
<circle cx="125.62" cy="248.39" r="15.08" fill="#cccccc" stroke="#000000" stroke-width="1.00"/>
<circle cx="249.49" cy="198.34" r="15.08" fill="#cccccc" stroke="#000000" stroke-width="1.00"/>
<circle cx="185.93" cy="143.94" r="15.08" fill="#cccccc" stroke="#000000" stroke-width="1.00"/>
<circle cx="265.79" cy="172.98" r="15.08" fill="#cccccc" stroke="#000000" stroke-width="1.00"/>
<circle cx="276.39" cy="352.85" r="15.08" fill="#cccccc" stroke="#000000" stroke-width="1.00"/>
<circle cx="125.62" cy="196.17" r="15.08" fill="#cccccc" stroke="#000000" stroke-width="1.00"/>
<circle cx="80.39" cy="326.73" r="15.08" fill="#cccccc" stroke="#000000" stroke-width="1.00"/>
<circle cx="140.70" cy="326.73" r="15.08" fill="#cccccc" stroke="#000000" stroke-width="1.00"/>
<circle cx="276.39" cy="248.39" r="15.08" fill="#cccccc" stroke="#000000" stroke-width="1.00"/>
<circle cx="264.61" cy="142.85" r="15.08" fill="#cccccc" stroke="#000000" stroke-width="1.00"/>
<circle cx="306.54" cy="352.85" r="15.08" fill="#cccccc" stroke="#000000" stroke-width="1.00"/>
<circle cx="214.96" cy="42.85" r="15.08" fill="#cccccc" stroke="#000000" stroke-width="1.00"/>
<circle cx="95.47" cy="300.62" r="15.08" fill="#cccccc" stroke="#000000" stroke-width="1.00"/>
<circle cx="201.00" cy="222.28" r="15.08" fill="#cccccc" stroke="#000000" stroke-width="1.00"/>
<circle cx="185.93" cy="300.62" r="15.08" fill="#cccccc" stroke="#000000" stroke-width="1.00"/>
<circle cx="201.00" cy="326.73" r="15.08" fill="#cccccc" stroke="#000000" stroke-width="1.00"/>
<circle cx="301.98" cy="219.60" r="15.08" fill="#cccccc" stroke="#000000" stroke-width="1.00"/>
<circle cx="194.44" cy="99.04" r="15.08" fill="#cccccc" stroke="#000000" stroke-width="1.00"/>
<circle cx="307.83" cy="249.18" r="15.08" fill="#cccccc" stroke="#000000" stroke-width="1.00"/>
<circle cx="366.85" cy="352.85" r="15.08" fill="#cccccc" stroke="#000000" stroke-width="1.00"/>
<circle cx="95.47" cy="248.39" r="15.08" fill="#cccccc" stroke="#000000" stroke-width="1.00"/>
<circle cx="288.78" cy="192.49" r="15.08" fill="#cccccc" stroke="#000000" stroke-width="1.00"/>
<circle cx="155.77" cy="248.39" r="15.08" fill="#cccccc" stroke="#000000" stroke-width="1.00"/>
<circle cx="140.70" cy="222.28" r="15.08" fill="#cccccc" stroke="#000000" stroke-width="1.00"/>
<circle cx="327.50" cy="272.03" r="15.08" fill="#cccccc" stroke="#000000" stroke-width="1.00"/>
<circle cx="203.28" cy="168.85" r="15.08" fill="#cccccc" stroke="#000000" stroke-width="1.00"/>
<circle cx="291.46" cy="326.73" r="15.08" fill="#cccccc" stroke="#000000" stroke-width="1.00"/>
<circle cx="261.31" cy="274.51" r="15.08" fill="#cccccc" stroke="#000000" stroke-width="1.00"/>
<circle cx="170.85" cy="222.28" r="15.08" fill="#cccccc" stroke="#000000" stroke-width="1.00"/>
<circle cx="198.91" cy="69.22" r="15.08" fill="#cccccc" stroke="#000000" stroke-width="1.00"/>
<circle cx="185.93" cy="352.85" r="15.08" fill="#cccccc" stroke="#000000" stroke-width="1.00"/>
<circle cx="170.85" cy="326.73" r="15.08" fill="#cccccc" stroke="#000000" stroke-width="1.00"/>
<circle cx="231.16" cy="274.51" r="15.08" fill="#cccccc" stroke="#000000" stroke-width="1.00"/>
<circle cx="185.93" cy="196.17" r="15.08" fill="#cccccc" stroke="#000000" stroke-width="1.00"/>
<circle cx="170.85" cy="274.51" r="15.08" fill="#cccccc" stroke="#000000" stroke-width="1.00"/>
<circle cx="336.84" cy="300.70" r="15.08" fill="#cccccc" stroke="#000000" stroke-width="1.00"/>
<circle cx="251.41" cy="115.73" r="15.08" fill="#cccccc" stroke="#000000" stroke-width="1.00"/>
<polygon points="9.05,367.93 390.95,367.93 216.24,9.05" fill="none" stroke="#000000" stroke-width="1.40"/>
</svg>