<svg xmlns="http://www.w3.org/2000/svg" width="400.0" height="311.2" viewBox="0 0 400.0 311.2">
<rect width="400.0" height="311.2" fill="white"/>
<circle cx="226.71" cy="98.07" r="13.59" fill="#cccccc" stroke="#000000" stroke-width="1.00"/>
<circle cx="222.02" cy="242.37" r="13.59" fill="#cccccc" stroke="#000000" stroke-width="1.00"/>
<circle cx="303.58" cy="289.46" r="13.59" fill="#cccccc" stroke="#000000" stroke-width="1.00"/>
<circle cx="167.64" cy="54.01" r="13.59" fill="#cccccc" stroke="#000000" stroke-width="1.00"/>
<circle cx="154.05" cy="124.65" r="13.59" fill="#cccccc" stroke="#000000" stroke-width="1.00"/>
<circle cx="181.23" cy="124.65" r="13.59" fill="#cccccc" stroke="#000000" stroke-width="1.00"/>
<circle cx="58.89" cy="289.46" r="13.59" fill="#cccccc" stroke="#000000" stroke-width="1.00"/>
<circle cx="86.08" cy="195.28" r="13.59" fill="#cccccc" stroke="#000000" stroke-width="1.00"/>
<circle cx="304.50" cy="242.93" r="13.59" fill="#cccccc" stroke="#000000" stroke-width="1.00"/>
<circle cx="167.64" cy="289.46" r="13.59" fill="#cccccc" stroke="#000000" stroke-width="1.00"/>
<circle cx="262.80" cy="218.83" r="13.59" fill="#cccccc" stroke="#000000" stroke-width="1.00"/>
<circle cx="222.77" cy="147.75" r="13.59" fill="#cccccc" stroke="#000000" stroke-width="1.00"/>
<circle cx="154.05" cy="265.92" r="13.59" fill="#cccccc" stroke="#000000" stroke-width="1.00"/>
<circle cx="194.83" cy="242.37" r="13.59" fill="#cccccc" stroke="#000000" stroke-width="1.00"/>
<circle cx="194.83" cy="54.02" r="13.59" fill="#cccccc" stroke="#000000" stroke-width="1.00"/>
<circle cx="113.26" cy="242.37" r="13.59" fill="#cccccc" stroke="#000000" stroke-width="1.00"/>
<circle cx="167.64" cy="101.10" r="13.59" fill="#cccccc" stroke="#000000" stroke-width="1.00"/>
<circle cx="58.89" cy="242.37" r="13.59" fill="#cccccc" stroke="#000000" stroke-width="1.00"/>
<circle cx="45.30" cy="265.92" r="13.59" fill="#cccccc" stroke="#000000" stroke-width="1.00"/>
<circle cx="194.83" cy="148.19" r="13.59" fill="#cccccc" stroke="#000000" stroke-width="1.00"/>
<circle cx="363.46" cy="289.46" r="13.59" fill="#cccccc" stroke="#000000" stroke-width="1.00"/>
<circle cx="126.86" cy="218.83" r="13.59" fill="#cccccc" stroke="#000000" stroke-width="1.00"/>
<circle cx="276.39" cy="289.46" r="13.59" fill="#cccccc" stroke="#000000" stroke-width="1.00"/>
<circle cx="235.60" cy="123.76" r="13.59" fill="#cccccc" stroke="#000000" stroke-width="1.00"/>
<circle cx="72.48" cy="218.83" r="13.59" fill="#cccccc" stroke="#000000" stroke-width="1.00"/>
<circle cx="99.67" cy="265.92" r="13.59" fill="#cccccc" stroke="#000000" stroke-width="1.00"/>
<circle cx="99.67" cy="218.83" r="13.59" fill="#cccccc" stroke="#000000" stroke-width="1.00"/>
<circle cx="235.61" cy="171.74" r="13.59" fill="#cccccc" stroke="#000000" stroke-width="1.00"/>
<circle cx="181.54" cy="77.74" r="13.59" fill="#cccccc" stroke="#000000" stroke-width="1.00"/>
<circle cx="262.37" cy="166.93" r="13.59" fill="#cccccc" stroke="#000000" stroke-width="1.00"/>
<circle cx="181.23" cy="218.83" r="13.59" fill="#cccccc" stroke="#000000" stroke-width="1.00"/>
<circle cx="140.45" cy="242.37" r="13.59" fill="#cccccc" stroke="#000000" stroke-width="1.00"/>
<circle cx="154.05" cy="77.56" r="13.59" fill="#cccccc" stroke="#000000" stroke-width="1.00"/>
<circle cx="262.80" cy="265.92" r="13.59" fill="#cccccc" stroke="#000000" stroke-width="1.00"/>
<circle cx="208.42" cy="265.92" r="13.59" fill="#cccccc" stroke="#000000" stroke-width="1.00"/>
<circle cx="312.82" cy="217.05" r="13.59" fill="#cccccc" stroke="#000000" stroke-width="1.00"/>
<circle cx="140.45" cy="148.19" r="13.59" fill="#cccccc" stroke="#000000" stroke-width="1.00"/>
<circle cx="249.20" cy="289.46" r="13.59" fill="#cccccc" stroke="#000000" stroke-width="1.00"/>
<circle cx="257.22" cy="140.23" r="13.59" fill="#cccccc" stroke="#000000" stroke-width="1.00"/>
<circle cx="154.05" cy="218.83" r="13.59" fill="#cccccc" stroke="#000000" stroke-width="1.00"/>
<circle cx="276.39" cy="242.37" r="13.59" fill="#cccccc" stroke="#000000" stroke-width="1.00"/>
<circle cx="140.45" cy="289.46" r="13.59" fill="#cccccc" stroke="#000000" stroke-width="1.00"/>
<circle cx="235.61" cy="265.92" r="13.59" fill="#cccccc" stroke="#000000" stroke-width="1.00"/>
<circle cx="167.64" cy="195.28" r="13.59" fill="#cccccc" stroke="#000000" stroke-width="1.00"/>
<circle cx="289.99" cy="265.92" r="13.59" fill="#cccccc" stroke="#000000" stroke-width="1.00"/>
<circle cx="235.61" cy="218.83" r="13.59" fill="#cccccc" stroke="#000000" stroke-width="1.00"/>
<circle cx="99.67" cy="171.74" r="13.59" fill="#cccccc" stroke="#000000" stroke-width="1.00"/>
<circle cx="222.02" cy="289.46" r="13.59" fill="#cccccc" stroke="#000000" stroke-width="1.00"/>
<circle cx="126.86" cy="171.74" r="13.59" fill="#cccccc" stroke="#000000" stroke-width="1.00"/>
<circle cx="167.64" cy="148.19" r="13.59" fill="#cccccc" stroke="#000000" stroke-width="1.00"/>
<circle cx="222.02" cy="195.28" r="13.59" fill="#cccccc" stroke="#000000" stroke-width="1.00"/>
<circle cx="287.43" cy="207.32" r="13.59" fill="#cccccc" stroke="#000000" stroke-width="1.00"/>
<circle cx="181.23" cy="171.74" r="13.59" fill="#cccccc" stroke="#000000" stroke-width="1.00"/>
<circle cx="249.20" cy="242.37" r="13.59" fill="#cccccc" stroke="#000000" stroke-width="1.00"/>
<circle cx="208.42" cy="218.83" r="13.59" fill="#cccccc" stroke="#000000" stroke-width="1.00"/>
<circle cx="113.26" cy="195.28" r="13.59" fill="#cccccc" stroke="#000000" stroke-width="1.00"/>
<circle cx="126.86" cy="124.65" r="13.59" fill="#cccccc" stroke="#000000" stroke-width="1.00"/>
<circle cx="72.48" cy="265.92" r="13.59" fill="#cccccc" stroke="#000000" stroke-width="1.00"/>
<circle cx="252.49" cy="193.59" r="13.59" fill="#cccccc" stroke="#000000" stroke-width="1.00"/>
<circle cx="126.86" cy="265.92" r="13.59" fill="#cccccc" stroke="#000000" stroke-width="1.00"/>
<circle cx="335.46" cy="289.46" r="13.59" fill="#cccccc" stroke="#000000" stroke-width="1.00"/>
<circle cx="167.64" cy="242.37" r="13.59" fill="#cccccc" stroke="#000000" stroke-width="1.00"/>
<circle cx="31.70" cy="289.46" r="13.59" fill="#cccccc" stroke="#000000" stroke-width="1.00"/>
<circle cx="181.23" cy="265.92" r="13.59" fill="#cccccc" stroke="#000000" stroke-width="1.00"/>
<circle cx="113.26" cy="148.19" r="13.59" fill="#cccccc" stroke="#000000" stroke-width="1.00"/>
<circle cx="113.26" cy="289.46" r="13.59" fill="#cccccc" stroke="#000000" stroke-width="1.00"/>
<circle cx="208.42" cy="124.65" r="13.59" fill="#cccccc" stroke="#000000" stroke-width="1.00"/>
<circle cx="154.05" cy="171.74" r="13.59" fill="#cccccc" stroke="#000000" stroke-width="1.00"/>
<circle cx="286.12" cy="180.16" r="13.59" fill="#cccccc" stroke="#000000" stroke-width="1.00"/>
<circle cx="194.83" cy="195.28" r="13.59" fill="#cccccc" stroke="#000000" stroke-width="1.00"/>
<circle cx="197.48" cy="99.76" r="13.59" fill="#cccccc" stroke="#000000" stroke-width="1.00"/>
<circle cx="86.08" cy="289.46" r="13.59" fill="#cccccc" stroke="#000000" stroke-width="1.00"/>
<circle cx="331.69" cy="243.13" r="13.59" fill="#cccccc" stroke="#000000" stroke-width="1.00"/>
<circle cx="86.08" cy="242.37" r="13.59" fill="#cccccc" stroke="#000000" stroke-width="1.00"/>
<circle cx="319.52" cy="267.44" r="13.59" fill="#cccccc" stroke="#000000" stroke-width="1.00"/>
<circle cx="140.45" cy="195.28" r="13.59" fill="#cccccc" stroke="#000000" stroke-width="1.00"/>
<circle cx="210.77" cy="76.04" r="13.59" fill="#cccccc" stroke="#000000" stroke-width="1.00"/>
<circle cx="194.83" cy="289.46" r="13.59" fill="#cccccc" stroke="#000000" stroke-width="1.00"/>
<circle cx="208.42" cy="171.74" r="13.59" fill="#cccccc" stroke="#000000" stroke-width="1.00"/>
<circle cx="140.45" cy="101.10" r="13.59" fill="#cccccc" stroke="#000000" stroke-width="1.00"/>
<circle cx="347.63" cy="265.15" r="13.59" fill="#cccccc" stroke="#000000" stroke-width="1.00"/>
<polygon points="8.16,303.06 391.84,303.06 178.42,8.16" fill="none" stroke="#000000" stroke-width="1.40"/>
</svg>