<svg xmlns="http://www.w3.org/2000/svg" width="400.0" height="315.4" viewBox="0 0 400.0 315.4">
<rect width="400.0" height="315.4" fill="white"/>
<circle cx="229.22" cy="100.45" r="13.66" fill="#cccccc" stroke="#000000" stroke-width="1.00"/>
<circle cx="223.02" cy="246.28" r="13.66" fill="#cccccc" stroke="#000000" stroke-width="1.00"/>
<circle cx="304.96" cy="293.59" r="13.66" fill="#cccccc" stroke="#000000" stroke-width="1.00"/>
<circle cx="169.90" cy="58.00" r="13.66" fill="#cccccc" stroke="#000000" stroke-width="1.00"/>
<circle cx="154.75" cy="128.02" r="13.66" fill="#cccccc" stroke="#000000" stroke-width="1.00"/>
<circle cx="182.43" cy="127.81" r="13.66" fill="#cccccc" stroke="#000000" stroke-width="1.00"/>
<circle cx="59.16" cy="293.59" r="13.66" fill="#cccccc" stroke="#000000" stroke-width="1.00"/>
<circle cx="86.47" cy="198.98" r="13.66" fill="#cccccc" stroke="#000000" stroke-width="1.00"/>
<circle cx="304.96" cy="246.28" r="13.66" fill="#cccccc" stroke="#000000" stroke-width="1.00"/>
<circle cx="168.40" cy="293.59" r="13.66" fill="#cccccc" stroke="#000000" stroke-width="1.00"/>
<circle cx="263.99" cy="222.63" r="13.66" fill="#cccccc" stroke="#000000" stroke-width="1.00"/>
<circle cx="225.15" cy="151.07" r="13.66" fill="#cccccc" stroke="#000000" stroke-width="1.00"/>
<circle cx="154.75" cy="269.94" r="13.66" fill="#cccccc" stroke="#000000" stroke-width="1.00"/>
<circle cx="195.71" cy="246.28" r="13.66" fill="#cccccc" stroke="#000000" stroke-width="1.00"/>
<circle cx="197.15" cy="56.24" r="13.66" fill="#cccccc" stroke="#000000" stroke-width="1.00"/>
<circle cx="113.78" cy="246.28" r="13.66" fill="#cccccc" stroke="#000000" stroke-width="1.00"/>
<circle cx="168.40" cy="104.37" r="13.66" fill="#cccccc" stroke="#000000" stroke-width="1.00"/>
<circle cx="59.16" cy="246.28" r="13.66" fill="#cccccc" stroke="#000000" stroke-width="1.00"/>
<circle cx="45.50" cy="269.94" r="13.66" fill="#cccccc" stroke="#000000" stroke-width="1.00"/>
<circle cx="195.71" cy="151.68" r="13.66" fill="#cccccc" stroke="#000000" stroke-width="1.00"/>
<circle cx="365.15" cy="293.59" r="13.66" fill="#cccccc" stroke="#000000" stroke-width="1.00"/>
<circle cx="127.43" cy="222.63" r="13.66" fill="#cccccc" stroke="#000000" stroke-width="1.00"/>
<circle cx="277.65" cy="293.59" r="13.66" fill="#cccccc" stroke="#000000" stroke-width="1.00"/>
<circle cx="237.21" cy="126.57" r="13.66" fill="#cccccc" stroke="#000000" stroke-width="1.00"/>
<circle cx="72.81" cy="222.63" r="13.66" fill="#cccccc" stroke="#000000" stroke-width="1.00"/>
<circle cx="100.12" cy="269.94" r="13.66" fill="#cccccc" stroke="#000000" stroke-width="1.00"/>
<circle cx="100.12" cy="222.63" r="13.66" fill="#cccccc" stroke="#000000" stroke-width="1.00"/>
<circle cx="237.15" cy="175.60" r="13.66" fill="#cccccc" stroke="#000000" stroke-width="1.00"/>
<circle cx="183.55" cy="81.65" r="13.66" fill="#cccccc" stroke="#000000" stroke-width="1.00"/>
<circle cx="263.82" cy="169.76" r="13.66" fill="#cccccc" stroke="#000000" stroke-width="1.00"/>
<circle cx="182.06" cy="222.63" r="13.66" fill="#cccccc" stroke="#000000" stroke-width="1.00"/>
<circle cx="141.09" cy="246.28" r="13.66" fill="#cccccc" stroke="#000000" stroke-width="1.00"/>
<circle cx="154.75" cy="80.72" r="13.66" fill="#cccccc" stroke="#000000" stroke-width="1.00"/>
<circle cx="263.99" cy="269.94" r="13.66" fill="#cccccc" stroke="#000000" stroke-width="1.00"/>
<circle cx="209.37" cy="269.94" r="13.66" fill="#cccccc" stroke="#000000" stroke-width="1.00"/>
<circle cx="313.89" cy="220.47" r="13.66" fill="#cccccc" stroke="#000000" stroke-width="1.00"/>
<circle cx="141.09" cy="151.68" r="13.66" fill="#cccccc" stroke="#000000" stroke-width="1.00"/>
<circle cx="250.33" cy="293.59" r="13.66" fill="#cccccc" stroke="#000000" stroke-width="1.00"/>
<circle cx="259.13" cy="142.85" r="13.66" fill="#cccccc" stroke="#000000" stroke-width="1.00"/>
<circle cx="154.75" cy="222.63" r="13.66" fill="#cccccc" stroke="#000000" stroke-width="1.00"/>
<circle cx="277.65" cy="246.28" r="13.66" fill="#cccccc" stroke="#000000" stroke-width="1.00"/>
<circle cx="141.09" cy="293.59" r="13.66" fill="#cccccc" stroke="#000000" stroke-width="1.00"/>
<circle cx="236.68" cy="269.94" r="13.66" fill="#cccccc" stroke="#000000" stroke-width="1.00"/>
<circle cx="168.40" cy="198.98" r="13.66" fill="#cccccc" stroke="#000000" stroke-width="1.00"/>
<circle cx="291.30" cy="269.94" r="13.66" fill="#cccccc" stroke="#000000" stroke-width="1.00"/>
<circle cx="236.68" cy="222.63" r="13.66" fill="#cccccc" stroke="#000000" stroke-width="1.00"/>
<circle cx="100.12" cy="175.33" r="13.66" fill="#cccccc" stroke="#000000" stroke-width="1.00"/>
<circle cx="223.02" cy="293.59" r="13.66" fill="#cccccc" stroke="#000000" stroke-width="1.00"/>
<circle cx="127.43" cy="175.33" r="13.66" fill="#cccccc" stroke="#000000" stroke-width="1.00"/>
<circle cx="168.40" cy="151.68" r="13.66" fill="#cccccc" stroke="#000000" stroke-width="1.00"/>
<circle cx="223.02" cy="198.98" r="13.66" fill="#cccccc" stroke="#000000" stroke-width="1.00"/>
<circle cx="288.46" cy="210.50" r="13.66" fill="#cccccc" stroke="#000000" stroke-width="1.00"/>
<circle cx="182.06" cy="175.33" r="13.66" fill="#cccccc" stroke="#000000" stroke-width="1.00"/>
<circle cx="250.33" cy="246.28" r="13.66" fill="#cccccc" stroke="#000000" stroke-width="1.00"/>
<circle cx="209.37" cy="222.63" r="13.66" fill="#cccccc" stroke="#000000" stroke-width="1.00"/>
<circle cx="113.78" cy="198.98" r="13.66" fill="#cccccc" stroke="#000000" stroke-width="1.00"/>
<circle cx="127.43" cy="128.02" r="13.66" fill="#cccccc" stroke="#000000" stroke-width="1.00"/>
<circle cx="72.81" cy="269.94" r="13.66" fill="#cccccc" stroke="#000000" stroke-width="1.00"/>
<circle cx="253.70" cy="197.33" r="13.66" fill="#cccccc" stroke="#000000" stroke-width="1.00"/>
<circle cx="127.43" cy="269.94" r="13.66" fill="#cccccc" stroke="#000000" stroke-width="1.00"/>
<circle cx="336.44" cy="293.59" r="13.66" fill="#cccccc" stroke="#000000" stroke-width="1.00"/>
<circle cx="168.40" cy="246.28" r="13.66" fill="#cccccc" stroke="#000000" stroke-width="1.00"/>
<circle cx="182.00" cy="33.51" r="13.66" fill="#cccccc" stroke="#000000" stroke-width="1.00"/>
<circle cx="31.85" cy="293.59" r="13.66" fill="#cccccc" stroke="#000000" stroke-width="1.00"/>
<circle cx="182.06" cy="269.94" r="13.66" fill="#cccccc" stroke="#000000" stroke-width="1.00"/>
<circle cx="113.78" cy="151.68" r="13.66" fill="#cccccc" stroke="#000000" stroke-width="1.00"/>
<circle cx="113.78" cy="293.59" r="13.66" fill="#cccccc" stroke="#000000" stroke-width="1.00"/>
<circle cx="209.96" cy="128.37" r="13.66" fill="#cccccc" stroke="#000000" stroke-width="1.00"/>
<circle cx="154.75" cy="175.33" r="13.66" fill="#cccccc" stroke="#000000" stroke-width="1.00"/>
<circle cx="287.60" cy="183.21" r="13.66" fill="#cccccc" stroke="#000000" stroke-width="1.00"/>
<circle cx="195.71" cy="198.98" r="13.66" fill="#cccccc" stroke="#000000" stroke-width="1.00"/>
<circle cx="201.17" cy="102.51" r="13.66" fill="#cccccc" stroke="#000000" stroke-width="1.00"/>
<circle cx="86.47" cy="293.59" r="13.66" fill="#cccccc" stroke="#000000" stroke-width="1.00"/>
<circle cx="332.27" cy="246.53" r="13.66" fill="#cccccc" stroke="#000000" stroke-width="1.00"/>
<circle cx="86.47" cy="246.28" r="13.66" fill="#cccccc" stroke="#000000" stroke-width="1.00"/>
<circle cx="320.70" cy="271.27" r="13.66" fill="#cccccc" stroke="#000000" stroke-width="1.00"/>
<circle cx="141.09" cy="198.98" r="13.66" fill="#cccccc" stroke="#000000" stroke-width="1.00"/>
<circle cx="213.48" cy="78.13" r="13.66" fill="#cccccc" stroke="#000000" stroke-width="1.00"/>
<circle cx="195.71" cy="293.59" r="13.66" fill="#cccccc" stroke="#000000" stroke-width="1.00"/>
<circle cx="209.37" cy="175.33" r="13.66" fill="#cccccc" stroke="#000000" stroke-width="1.00"/>
<circle cx="141.09" cy="104.37" r="13.66" fill="#cccccc" stroke="#000000" stroke-width="1.00"/>
<circle cx="348.01" cy="268.85" r="13.66" fill="#cccccc" stroke="#000000" stroke-width="1.00"/>
<polygon points="8.19,307.24 391.81,307.24 180.85,8.19" fill="none" stroke="#000000" stroke-width="1.40"/>
</svg>