<svg xmlns="http://www.w3.org/2000/svg" width="400.0" height="348.4" viewBox="0 0 400.0 348.4">
<rect width="400.0" height="348.4" fill="white"/>
<circle cx="216.92" cy="284.75" r="14.09" fill="#cccccc" stroke="#000000" stroke-width="1.00"/>
<circle cx="164.83" cy="253.27" r="14.09" fill="#cccccc" stroke="#000000" stroke-width="1.00"/>
<circle cx="107.03" cy="301.41" r="14.09" fill="#cccccc" stroke="#000000" stroke-width="1.00"/>
<circle cx="339.65" cy="325.83" r="14.09" fill="#cccccc" stroke="#000000" stroke-width="1.00"/>
<circle cx="91.70" cy="277.76" r="14.09" fill="#cccccc" stroke="#000000" stroke-width="1.00"/>
<circle cx="92.93" cy="325.83" r="14.09" fill="#cccccc" stroke="#000000" stroke-width="1.00"/>
<circle cx="311.46" cy="325.83" r="14.09" fill="#cccccc" stroke="#000000" stroke-width="1.00"/>
<circle cx="237.64" cy="86.18" r="14.09" fill="#cccccc" stroke="#000000" stroke-width="1.00"/>
<circle cx="232.91" cy="211.90" r="14.09" fill="#cccccc" stroke="#000000" stroke-width="1.00"/>
<circle cx="299.31" cy="251.56" r="14.09" fill="#cccccc" stroke="#000000" stroke-width="1.00"/>
<circle cx="150.53" cy="277.75" r="14.09" fill="#cccccc" stroke="#000000" stroke-width="1.00"/>
<circle cx="251.10" cy="110.95" r="14.09" fill="#cccccc" stroke="#000000" stroke-width="1.00"/>
<circle cx="107.01" cy="254.09" r="14.09" fill="#cccccc" stroke="#000000" stroke-width="1.00"/>
<circle cx="354.39" cy="301.06" r="14.09" fill="#cccccc" stroke="#000000" stroke-width="1.00"/>
<circle cx="136.43" cy="302.16" r="14.09" fill="#cccccc" stroke="#000000" stroke-width="1.00"/>
<circle cx="206.93" cy="183.07" r="14.09" fill="#cccccc" stroke="#000000" stroke-width="1.00"/>
<circle cx="181.28" cy="84.72" r="14.09" fill="#cccccc" stroke="#000000" stroke-width="1.00"/>
<circle cx="196.00" cy="60.68" r="14.09" fill="#cccccc" stroke="#000000" stroke-width="1.00"/>
<circle cx="261.09" cy="212.63" r="14.09" fill="#cccccc" stroke="#000000" stroke-width="1.00"/>
<circle cx="210.72" cy="36.64" r="14.09" fill="#cccccc" stroke="#000000" stroke-width="1.00"/>
<circle cx="263.29" cy="184.53" r="14.09" fill="#cccccc" stroke="#000000" stroke-width="1.00"/>
<circle cx="165.29" cy="157.57" r="14.09" fill="#cccccc" stroke="#000000" stroke-width="1.00"/>
<circle cx="208.12" cy="325.83" r="14.09" fill="#cccccc" stroke="#000000" stroke-width="1.00"/>
<circle cx="194.73" cy="109.49" r="14.09" fill="#cccccc" stroke="#000000" stroke-width="1.00"/>
<circle cx="264.55" cy="135.72" r="14.09" fill="#cccccc" stroke="#000000" stroke-width="1.00"/>
<circle cx="325.56" cy="301.41" r="14.09" fill="#cccccc" stroke="#000000" stroke-width="1.00"/>
<circle cx="92.94" cy="228.96" r="14.09" fill="#cccccc" stroke="#000000" stroke-width="1.00"/>
<circle cx="179.93" cy="325.83" r="14.09" fill="#cccccc" stroke="#000000" stroke-width="1.00"/>
<circle cx="274.83" cy="237.58" r="14.09" fill="#cccccc" stroke="#000000" stroke-width="1.00"/>
<circle cx="209.46" cy="85.45" r="14.09" fill="#cccccc" stroke="#000000" stroke-width="1.00"/>
<circle cx="180.01" cy="133.53" r="14.09" fill="#cccccc" stroke="#000000" stroke-width="1.00"/>
<circle cx="48.77" cy="301.08" r="14.09" fill="#cccccc" stroke="#000000" stroke-width="1.00"/>
<circle cx="77.60" cy="302.17" r="14.09" fill="#cccccc" stroke="#000000" stroke-width="1.00"/>
<circle cx="178.75" cy="182.34" r="14.09" fill="#cccccc" stroke="#000000" stroke-width="1.00"/>
<circle cx="194.14" cy="301.35" r="14.09" fill="#cccccc" stroke="#000000" stroke-width="1.00"/>
<circle cx="297.37" cy="301.41" r="14.09" fill="#cccccc" stroke="#000000" stroke-width="1.00"/>
<circle cx="222.91" cy="110.22" r="14.09" fill="#cccccc" stroke="#000000" stroke-width="1.00"/>
<circle cx="246.36" cy="236.67" r="14.09" fill="#cccccc" stroke="#000000" stroke-width="1.00"/>
<circle cx="245.10" cy="285.48" r="14.09" fill="#cccccc" stroke="#000000" stroke-width="1.00"/>
<circle cx="62.27" cy="325.83" r="14.09" fill="#cccccc" stroke="#000000" stroke-width="1.00"/>
<circle cx="122.39" cy="180.88" r="14.09" fill="#cccccc" stroke="#000000" stroke-width="1.00"/>
<circle cx="136.64" cy="253.22" r="14.09" fill="#cccccc" stroke="#000000" stroke-width="1.00"/>
<circle cx="314.04" cy="226.81" r="14.09" fill="#cccccc" stroke="#000000" stroke-width="1.00"/>
<circle cx="63.51" cy="277.05" r="14.09" fill="#cccccc" stroke="#000000" stroke-width="1.00"/>
<circle cx="236.37" cy="134.99" r="14.09" fill="#cccccc" stroke="#000000" stroke-width="1.00"/>
<circle cx="283.27" cy="325.83" r="14.09" fill="#cccccc" stroke="#000000" stroke-width="1.00"/>
<circle cx="259.83" cy="261.44" r="14.09" fill="#cccccc" stroke="#000000" stroke-width="1.00"/>
<circle cx="218.18" cy="235.94" r="14.09" fill="#cccccc" stroke="#000000" stroke-width="1.00"/>
<circle cx="221.65" cy="159.03" r="14.09" fill="#cccccc" stroke="#000000" stroke-width="1.00"/>
<circle cx="187.85" cy="236.39" r="14.09" fill="#cccccc" stroke="#000000" stroke-width="1.00"/>
<circle cx="231.60" cy="310.23" r="14.09" fill="#cccccc" stroke="#000000" stroke-width="1.00"/>
<circle cx="150.57" cy="181.61" r="14.09" fill="#cccccc" stroke="#000000" stroke-width="1.00"/>
<circle cx="121.12" cy="229.69" r="14.09" fill="#cccccc" stroke="#000000" stroke-width="1.00"/>
<circle cx="193.47" cy="158.30" r="14.09" fill="#cccccc" stroke="#000000" stroke-width="1.00"/>
<circle cx="235.11" cy="183.80" r="14.09" fill="#cccccc" stroke="#000000" stroke-width="1.00"/>
<circle cx="165.95" cy="301.35" r="14.09" fill="#cccccc" stroke="#000000" stroke-width="1.00"/>
<circle cx="278.01" cy="160.49" r="14.09" fill="#cccccc" stroke="#000000" stroke-width="1.00"/>
<circle cx="180.68" cy="276.58" r="14.09" fill="#cccccc" stroke="#000000" stroke-width="1.00"/>
<circle cx="151.74" cy="325.83" r="14.09" fill="#cccccc" stroke="#000000" stroke-width="1.00"/>
<circle cx="151.83" cy="132.80" r="14.09" fill="#cccccc" stroke="#000000" stroke-width="1.00"/>
<circle cx="249.83" cy="159.76" r="14.09" fill="#cccccc" stroke="#000000" stroke-width="1.00"/>
<circle cx="311.55" cy="276.95" r="14.09" fill="#cccccc" stroke="#000000" stroke-width="1.00"/>
<circle cx="78.22" cy="253.00" r="14.09" fill="#cccccc" stroke="#000000" stroke-width="1.00"/>
<circle cx="204.72" cy="211.17" r="14.09" fill="#cccccc" stroke="#000000" stroke-width="1.00"/>
<circle cx="203.46" cy="259.98" r="14.09" fill="#cccccc" stroke="#000000" stroke-width="1.00"/>
<circle cx="367.84" cy="325.83" r="14.09" fill="#cccccc" stroke="#000000" stroke-width="1.00"/>
<circle cx="291.47" cy="185.26" r="14.09" fill="#cccccc" stroke="#000000" stroke-width="1.00"/>
<circle cx="255.08" cy="325.83" r="14.09" fill="#cccccc" stroke="#000000" stroke-width="1.00"/>
<circle cx="107.66" cy="204.92" r="14.09" fill="#cccccc" stroke="#000000" stroke-width="1.00"/>
<circle cx="339.74" cy="276.97" r="14.09" fill="#cccccc" stroke="#000000" stroke-width="1.00"/>
<circle cx="224.18" cy="61.41" r="14.09" fill="#cccccc" stroke="#000000" stroke-width="1.00"/>
<circle cx="208.19" cy="134.26" r="14.09" fill="#cccccc" stroke="#000000" stroke-width="1.00"/>
<circle cx="166.55" cy="108.76" r="14.09" fill="#cccccc" stroke="#000000" stroke-width="1.00"/>
<circle cx="289.27" cy="213.36" r="14.09" fill="#cccccc" stroke="#000000" stroke-width="1.00"/>
<circle cx="283.36" cy="276.95" r="14.09" fill="#cccccc" stroke="#000000" stroke-width="1.00"/>
<circle cx="327.50" cy="251.58" r="14.09" fill="#cccccc" stroke="#000000" stroke-width="1.00"/>
<circle cx="121.12" cy="325.83" r="14.09" fill="#cccccc" stroke="#000000" stroke-width="1.00"/>
<circle cx="137.11" cy="156.84" r="14.09" fill="#cccccc" stroke="#000000" stroke-width="1.00"/>
<circle cx="231.64" cy="260.71" r="14.09" fill="#cccccc" stroke="#000000" stroke-width="1.00"/>
<circle cx="33.62" cy="325.83" r="14.09" fill="#cccccc" stroke="#000000" stroke-width="1.00"/>
<circle cx="269.07" cy="301.27" r="14.09" fill="#cccccc" stroke="#000000" stroke-width="1.00"/>
<circle cx="135.84" cy="205.65" r="14.09" fill="#cccccc" stroke="#000000" stroke-width="1.00"/>
<circle cx="176.54" cy="210.44" r="14.09" fill="#cccccc" stroke="#000000" stroke-width="1.00"/>
<circle cx="153.93" cy="227.27" r="14.09" fill="#cccccc" stroke="#000000" stroke-width="1.00"/>
<circle cx="122.34" cy="277.74" r="14.09" fill="#cccccc" stroke="#000000" stroke-width="1.00"/>
<polygon points="8.46,339.92 391.54,339.92 211.45,8.46" fill="none" stroke="#000000" stroke-width="1.40"/>
</svg>