<svg xmlns="http://www.w3.org/2000/svg" width="400.0" height="355.3" viewBox="0 0 400.0 355.3">
<rect width="400.0" height="355.3" fill="white"/>
<circle cx="117.85" cy="283.65" r="14.14" fill="#cccccc" stroke="#000000" stroke-width="1.00"/>
<circle cx="132.00" cy="308.15" r="14.14" fill="#cccccc" stroke="#000000" stroke-width="1.00"/>
<circle cx="32.99" cy="332.65" r="14.14" fill="#cccccc" stroke="#000000" stroke-width="1.00"/>
<circle cx="89.57" cy="332.65" r="14.14" fill="#cccccc" stroke="#000000" stroke-width="1.00"/>
<circle cx="146.14" cy="332.65" r="14.14" fill="#cccccc" stroke="#000000" stroke-width="1.00"/>
<circle cx="174.43" cy="332.65" r="14.14" fill="#cccccc" stroke="#000000" stroke-width="1.00"/>
<circle cx="89.57" cy="283.65" r="14.14" fill="#cccccc" stroke="#000000" stroke-width="1.00"/>
<circle cx="103.71" cy="308.15" r="14.14" fill="#cccccc" stroke="#000000" stroke-width="1.00"/>
<circle cx="160.29" cy="308.15" r="14.14" fill="#cccccc" stroke="#000000" stroke-width="1.00"/>
<circle cx="227.53" cy="319.05" r="14.14" fill="#cccccc" stroke="#000000" stroke-width="1.00"/>
<circle cx="132.00" cy="259.15" r="14.14" fill="#cccccc" stroke="#000000" stroke-width="1.00"/>
<circle cx="117.85" cy="332.65" r="14.14" fill="#cccccc" stroke="#000000" stroke-width="1.00"/>
<circle cx="103.71" cy="259.15" r="14.14" fill="#cccccc" stroke="#000000" stroke-width="1.00"/>
<circle cx="282.62" cy="332.65" r="14.14" fill="#cccccc" stroke="#000000" stroke-width="1.00"/>
<circle cx="202.72" cy="332.65" r="14.14" fill="#cccccc" stroke="#000000" stroke-width="1.00"/>
<circle cx="146.14" cy="283.65" r="14.14" fill="#cccccc" stroke="#000000" stroke-width="1.00"/>
<circle cx="61.28" cy="332.65" r="14.14" fill="#cccccc" stroke="#000000" stroke-width="1.00"/>
<circle cx="75.42" cy="308.15" r="14.14" fill="#cccccc" stroke="#000000" stroke-width="1.00"/>
<circle cx="252.34" cy="332.65" r="14.14" fill="#cccccc" stroke="#000000" stroke-width="1.00"/>
<circle cx="47.13" cy="308.15" r="14.14" fill="#cccccc" stroke="#000000" stroke-width="1.00"/>
<circle cx="256.94" cy="270.10" r="14.14" fill="#cccccc" stroke="#000000" stroke-width="1.00"/>
<circle cx="310.50" cy="282.50" r="14.14" fill="#cccccc" stroke="#000000" stroke-width="1.00"/>
<circle cx="272.47" cy="216.00" r="14.14" fill="#cccccc" stroke="#000000" stroke-width="1.00"/>
<circle cx="339.20" cy="332.65" r="14.14" fill="#cccccc" stroke="#000000" stroke-width="1.00"/>
<circle cx="259.28" cy="137.62" r="14.14" fill="#cccccc" stroke="#000000" stroke-width="1.00"/>
<circle cx="245.15" cy="112.15" r="14.14" fill="#cccccc" stroke="#000000" stroke-width="1.00"/>
<circle cx="325.05" cy="308.15" r="14.14" fill="#cccccc" stroke="#000000" stroke-width="1.00"/>
<circle cx="326.33" cy="258.46" r="14.14" fill="#cccccc" stroke="#000000" stroke-width="1.00"/>
<circle cx="310.91" cy="332.65" r="14.14" fill="#cccccc" stroke="#000000" stroke-width="1.00"/>
<circle cx="286.73" cy="187.09" r="14.14" fill="#cccccc" stroke="#000000" stroke-width="1.00"/>
<circle cx="267.48" cy="308.75" r="14.14" fill="#cccccc" stroke="#000000" stroke-width="1.00"/>
<circle cx="281.62" cy="284.25" r="14.14" fill="#cccccc" stroke="#000000" stroke-width="1.00"/>
<circle cx="231.42" cy="87.41" r="14.14" fill="#cccccc" stroke="#000000" stroke-width="1.00"/>
<circle cx="296.77" cy="308.15" r="14.14" fill="#cccccc" stroke="#000000" stroke-width="1.00"/>
<circle cx="353.76" cy="307.91" r="14.14" fill="#cccccc" stroke="#000000" stroke-width="1.00"/>
<circle cx="281.97" cy="255.96" r="14.14" fill="#cccccc" stroke="#000000" stroke-width="1.00"/>
<circle cx="339.21" cy="283.65" r="14.14" fill="#cccccc" stroke="#000000" stroke-width="1.00"/>
<circle cx="367.49" cy="332.65" r="14.14" fill="#cccccc" stroke="#000000" stroke-width="1.00"/>
<circle cx="300.45" cy="211.83" r="14.14" fill="#cccccc" stroke="#000000" stroke-width="1.00"/>
<circle cx="258.29" cy="240.48" r="14.14" fill="#cccccc" stroke="#000000" stroke-width="1.00"/>
<circle cx="305.13" cy="239.73" r="14.14" fill="#cccccc" stroke="#000000" stroke-width="1.00"/>
<circle cx="273.00" cy="162.35" r="14.14" fill="#cccccc" stroke="#000000" stroke-width="1.00"/>
<circle cx="89.57" cy="234.65" r="14.14" fill="#cccccc" stroke="#000000" stroke-width="1.00"/>
<circle cx="216.86" cy="111.67" r="14.14" fill="#cccccc" stroke="#000000" stroke-width="1.00"/>
<circle cx="132.00" cy="161.15" r="14.14" fill="#cccccc" stroke="#000000" stroke-width="1.00"/>
<circle cx="217.21" cy="161.35" r="14.14" fill="#cccccc" stroke="#000000" stroke-width="1.00"/>
<circle cx="160.29" cy="112.15" r="14.14" fill="#cccccc" stroke="#000000" stroke-width="1.00"/>
<circle cx="189.20" cy="62.07" r="14.14" fill="#cccccc" stroke="#000000" stroke-width="1.00"/>
<circle cx="160.29" cy="161.15" r="14.14" fill="#cccccc" stroke="#000000" stroke-width="1.00"/>
<circle cx="202.72" cy="136.17" r="14.14" fill="#cccccc" stroke="#000000" stroke-width="1.00"/>
<circle cx="188.73" cy="161.06" r="14.14" fill="#cccccc" stroke="#000000" stroke-width="1.00"/>
<circle cx="174.85" cy="86.93" r="14.14" fill="#cccccc" stroke="#000000" stroke-width="1.00"/>
<circle cx="61.28" cy="283.65" r="14.14" fill="#cccccc" stroke="#000000" stroke-width="1.00"/>
<circle cx="103.71" cy="210.15" r="14.14" fill="#cccccc" stroke="#000000" stroke-width="1.00"/>
<circle cx="203.59" cy="37.67" r="14.14" fill="#cccccc" stroke="#000000" stroke-width="1.00"/>
<circle cx="75.42" cy="259.15" r="14.14" fill="#cccccc" stroke="#000000" stroke-width="1.00"/>
<circle cx="231.00" cy="136.65" r="14.14" fill="#cccccc" stroke="#000000" stroke-width="1.00"/>
<circle cx="117.85" cy="185.65" r="14.14" fill="#cccccc" stroke="#000000" stroke-width="1.00"/>
<circle cx="188.57" cy="111.67" r="14.14" fill="#cccccc" stroke="#000000" stroke-width="1.00"/>
<circle cx="245.02" cy="166.53" r="14.14" fill="#cccccc" stroke="#000000" stroke-width="1.00"/>
<circle cx="203.14" cy="86.69" r="14.14" fill="#cccccc" stroke="#000000" stroke-width="1.00"/>
<circle cx="146.14" cy="136.65" r="14.14" fill="#cccccc" stroke="#000000" stroke-width="1.00"/>
<circle cx="174.43" cy="136.65" r="14.14" fill="#cccccc" stroke="#000000" stroke-width="1.00"/>
<circle cx="217.49" cy="62.31" r="14.14" fill="#cccccc" stroke="#000000" stroke-width="1.00"/>
<circle cx="244.18" cy="215.96" r="14.14" fill="#cccccc" stroke="#000000" stroke-width="1.00"/>
<circle cx="146.14" cy="234.65" r="14.14" fill="#cccccc" stroke="#000000" stroke-width="1.00"/>
<circle cx="228.53" cy="270.65" r="14.14" fill="#cccccc" stroke="#000000" stroke-width="1.00"/>
<circle cx="146.14" cy="185.65" r="14.14" fill="#cccccc" stroke="#000000" stroke-width="1.00"/>
<circle cx="213.39" cy="294.55" r="14.14" fill="#cccccc" stroke="#000000" stroke-width="1.00"/>
<circle cx="188.58" cy="308.15" r="14.14" fill="#cccccc" stroke="#000000" stroke-width="1.00"/>
<circle cx="202.72" cy="185.65" r="14.14" fill="#cccccc" stroke="#000000" stroke-width="1.00"/>
<circle cx="160.29" cy="210.15" r="14.14" fill="#cccccc" stroke="#000000" stroke-width="1.00"/>
<circle cx="174.43" cy="185.65" r="14.14" fill="#cccccc" stroke="#000000" stroke-width="1.00"/>
<circle cx="199.24" cy="270.05" r="14.14" fill="#cccccc" stroke="#000000" stroke-width="1.00"/>
<circle cx="258.75" cy="191.26" r="14.14" fill="#cccccc" stroke="#000000" stroke-width="1.00"/>
<circle cx="215.93" cy="217.37" r="14.14" fill="#cccccc" stroke="#000000" stroke-width="1.00"/>
<circle cx="242.67" cy="295.15" r="14.14" fill="#cccccc" stroke="#000000" stroke-width="1.00"/>
<circle cx="230.46" cy="191.22" r="14.14" fill="#cccccc" stroke="#000000" stroke-width="1.00"/>
<circle cx="117.85" cy="234.65" r="14.14" fill="#cccccc" stroke="#000000" stroke-width="1.00"/>
<circle cx="201.78" cy="241.87" r="14.14" fill="#cccccc" stroke="#000000" stroke-width="1.00"/>
<circle cx="174.43" cy="234.65" r="14.14" fill="#cccccc" stroke="#000000" stroke-width="1.00"/>
<circle cx="132.00" cy="210.15" r="14.14" fill="#cccccc" stroke="#000000" stroke-width="1.00"/>
<circle cx="160.29" cy="259.15" r="14.14" fill="#cccccc" stroke="#000000" stroke-width="1.00"/>
<circle cx="230.07" cy="242.40" r="14.14" fill="#cccccc" stroke="#000000" stroke-width="1.00"/>
<circle cx="188.58" cy="210.15" r="14.14" fill="#cccccc" stroke="#000000" stroke-width="1.00"/>
<circle cx="174.43" cy="283.65" r="14.14" fill="#cccccc" stroke="#000000" stroke-width="1.00"/>
<polygon points="8.49,346.79 391.51,346.79 203.81,8.49" fill="none" stroke="#000000" stroke-width="1.40"/>
</svg>