<svg xmlns="http://www.w3.org/2000/svg" width="400.0" height="348.4" viewBox="0 0 400.0 348.4">
<rect width="400.0" height="348.4" fill="white"/>
<circle cx="267.57" cy="301.96" r="14.00" fill="#cccccc" stroke="#000000" stroke-width="1.00"/>
<circle cx="146.43" cy="301.80" r="14.00" fill="#cccccc" stroke="#000000" stroke-width="1.00"/>
<circle cx="46.05" cy="301.80" r="14.00" fill="#cccccc" stroke="#000000" stroke-width="1.00"/>
<circle cx="137.78" cy="259.52" r="14.00" fill="#cccccc" stroke="#000000" stroke-width="1.00"/>
<circle cx="160.43" cy="326.05" r="14.00" fill="#cccccc" stroke="#000000" stroke-width="1.00"/>
<circle cx="309.83" cy="326.05" r="14.00" fill="#cccccc" stroke="#000000" stroke-width="1.00"/>
<circle cx="132.43" cy="326.05" r="14.00" fill="#cccccc" stroke="#000000" stroke-width="1.00"/>
<circle cx="88.04" cy="326.05" r="14.00" fill="#cccccc" stroke="#000000" stroke-width="1.00"/>
<circle cx="224.25" cy="326.05" r="14.00" fill="#cccccc" stroke="#000000" stroke-width="1.00"/>
<circle cx="109.79" cy="260.13" r="14.00" fill="#cccccc" stroke="#000000" stroke-width="1.00"/>
<circle cx="159.58" cy="277.08" r="14.00" fill="#cccccc" stroke="#000000" stroke-width="1.00"/>
<circle cx="188.43" cy="326.05" r="14.00" fill="#cccccc" stroke="#000000" stroke-width="1.00"/>
<circle cx="174.71" cy="300.67" r="14.00" fill="#cccccc" stroke="#000000" stroke-width="1.00"/>
<circle cx="60.05" cy="326.05" r="14.00" fill="#cccccc" stroke="#000000" stroke-width="1.00"/>
<circle cx="110.24" cy="308.98" r="14.00" fill="#cccccc" stroke="#000000" stroke-width="1.00"/>
<circle cx="124.33" cy="284.08" r="14.00" fill="#cccccc" stroke="#000000" stroke-width="1.00"/>
<circle cx="32.05" cy="326.05" r="14.00" fill="#cccccc" stroke="#000000" stroke-width="1.00"/>
<circle cx="96.32" cy="284.68" r="14.00" fill="#cccccc" stroke="#000000" stroke-width="1.00"/>
<circle cx="281.84" cy="326.05" r="14.00" fill="#cccccc" stroke="#000000" stroke-width="1.00"/>
<circle cx="74.04" cy="301.64" r="14.00" fill="#cccccc" stroke="#000000" stroke-width="1.00"/>
<circle cx="253.30" cy="326.05" r="14.00" fill="#cccccc" stroke="#000000" stroke-width="1.00"/>
<circle cx="265.69" cy="253.04" r="14.00" fill="#cccccc" stroke="#000000" stroke-width="1.00"/>
<circle cx="309.03" cy="276.79" r="14.00" fill="#cccccc" stroke="#000000" stroke-width="1.00"/>
<circle cx="264.62" cy="204.55" r="14.00" fill="#cccccc" stroke="#000000" stroke-width="1.00"/>
<circle cx="338.10" cy="326.05" r="14.00" fill="#cccccc" stroke="#000000" stroke-width="1.00"/>
<circle cx="249.04" cy="132.13" r="14.00" fill="#cccccc" stroke="#000000" stroke-width="1.00"/>
<circle cx="234.51" cy="108.20" r="14.00" fill="#cccccc" stroke="#000000" stroke-width="1.00"/>
<circle cx="295.57" cy="301.65" r="14.00" fill="#cccccc" stroke="#000000" stroke-width="1.00"/>
<circle cx="321.67" cy="251.81" r="14.00" fill="#cccccc" stroke="#000000" stroke-width="1.00"/>
<circle cx="323.97" cy="301.88" r="14.00" fill="#cccccc" stroke="#000000" stroke-width="1.00"/>
<circle cx="278.09" cy="180.01" r="14.00" fill="#cccccc" stroke="#000000" stroke-width="1.00"/>
<circle cx="253.04" cy="278.02" r="14.00" fill="#cccccc" stroke="#000000" stroke-width="1.00"/>
<circle cx="293.68" cy="252.43" r="14.00" fill="#cccccc" stroke="#000000" stroke-width="1.00"/>
<circle cx="219.98" cy="84.26" r="14.00" fill="#cccccc" stroke="#000000" stroke-width="1.00"/>
<circle cx="281.04" cy="277.41" r="14.00" fill="#cccccc" stroke="#000000" stroke-width="1.00"/>
<circle cx="351.96" cy="301.73" r="14.00" fill="#cccccc" stroke="#000000" stroke-width="1.00"/>
<circle cx="279.15" cy="228.49" r="14.00" fill="#cccccc" stroke="#000000" stroke-width="1.00"/>
<circle cx="337.02" cy="277.11" r="14.00" fill="#cccccc" stroke="#000000" stroke-width="1.00"/>
<circle cx="366.10" cy="326.05" r="14.00" fill="#cccccc" stroke="#000000" stroke-width="1.00"/>
<circle cx="292.62" cy="203.94" r="14.00" fill="#cccccc" stroke="#000000" stroke-width="1.00"/>
<circle cx="251.16" cy="229.10" r="14.00" fill="#cccccc" stroke="#000000" stroke-width="1.00"/>
<circle cx="307.14" cy="227.88" r="14.00" fill="#cccccc" stroke="#000000" stroke-width="1.00"/>
<circle cx="263.56" cy="156.07" r="14.00" fill="#cccccc" stroke="#000000" stroke-width="1.00"/>
<circle cx="83.20" cy="232.78" r="14.00" fill="#cccccc" stroke="#000000" stroke-width="1.00"/>
<circle cx="206.52" cy="108.81" r="14.00" fill="#cccccc" stroke="#000000" stroke-width="1.00"/>
<circle cx="123.60" cy="159.14" r="14.00" fill="#cccccc" stroke="#000000" stroke-width="1.00"/>
<circle cx="207.58" cy="157.30" r="14.00" fill="#cccccc" stroke="#000000" stroke-width="1.00"/>
<circle cx="150.53" cy="110.04" r="14.00" fill="#cccccc" stroke="#000000" stroke-width="1.00"/>
<circle cx="177.46" cy="60.94" r="14.00" fill="#cccccc" stroke="#000000" stroke-width="1.00"/>
<circle cx="151.59" cy="158.52" r="14.00" fill="#cccccc" stroke="#000000" stroke-width="1.00"/>
<circle cx="193.05" cy="133.36" r="14.00" fill="#cccccc" stroke="#000000" stroke-width="1.00"/>
<circle cx="179.59" cy="157.91" r="14.00" fill="#cccccc" stroke="#000000" stroke-width="1.00"/>
<circle cx="164.00" cy="85.49" r="14.00" fill="#cccccc" stroke="#000000" stroke-width="1.00"/>
<circle cx="58.97" cy="276.96" r="14.00" fill="#cccccc" stroke="#000000" stroke-width="1.00"/>
<circle cx="96.67" cy="208.23" r="14.00" fill="#cccccc" stroke="#000000" stroke-width="1.00"/>
<circle cx="190.93" cy="36.39" r="14.00" fill="#cccccc" stroke="#000000" stroke-width="1.00"/>
<circle cx="81.79" cy="260.75" r="14.00" fill="#cccccc" stroke="#000000" stroke-width="1.00"/>
<circle cx="221.04" cy="132.75" r="14.00" fill="#cccccc" stroke="#000000" stroke-width="1.00"/>
<circle cx="110.13" cy="183.68" r="14.00" fill="#cccccc" stroke="#000000" stroke-width="1.00"/>
<circle cx="178.52" cy="109.43" r="14.00" fill="#cccccc" stroke="#000000" stroke-width="1.00"/>
<circle cx="235.57" cy="156.68" r="14.00" fill="#cccccc" stroke="#000000" stroke-width="1.00"/>
<circle cx="191.99" cy="84.88" r="14.00" fill="#cccccc" stroke="#000000" stroke-width="1.00"/>
<circle cx="137.07" cy="134.59" r="14.00" fill="#cccccc" stroke="#000000" stroke-width="1.00"/>
<circle cx="165.06" cy="133.97" r="14.00" fill="#cccccc" stroke="#000000" stroke-width="1.00"/>
<circle cx="205.45" cy="60.33" r="14.00" fill="#cccccc" stroke="#000000" stroke-width="1.00"/>
<circle cx="236.63" cy="205.17" r="14.00" fill="#cccccc" stroke="#000000" stroke-width="1.00"/>
<circle cx="139.19" cy="231.56" r="14.00" fill="#cccccc" stroke="#000000" stroke-width="1.00"/>
<circle cx="237.70" cy="253.96" r="14.00" fill="#cccccc" stroke="#000000" stroke-width="1.00"/>
<circle cx="138.13" cy="183.07" r="14.00" fill="#cccccc" stroke="#000000" stroke-width="1.00"/>
<circle cx="223.82" cy="278.45" r="14.00" fill="#cccccc" stroke="#000000" stroke-width="1.00"/>
<circle cx="206.34" cy="304.53" r="14.00" fill="#cccccc" stroke="#000000" stroke-width="1.00"/>
<circle cx="194.11" cy="181.85" r="14.00" fill="#cccccc" stroke="#000000" stroke-width="1.00"/>
<circle cx="152.65" cy="207.01" r="14.00" fill="#cccccc" stroke="#000000" stroke-width="1.00"/>
<circle cx="166.12" cy="182.46" r="14.00" fill="#cccccc" stroke="#000000" stroke-width="1.00"/>
<circle cx="209.70" cy="254.27" r="14.00" fill="#cccccc" stroke="#000000" stroke-width="1.00"/>
<circle cx="250.10" cy="180.62" r="14.00" fill="#cccccc" stroke="#000000" stroke-width="1.00"/>
<circle cx="208.64" cy="205.78" r="14.00" fill="#cccccc" stroke="#000000" stroke-width="1.00"/>
<circle cx="238.78" cy="302.11" r="14.00" fill="#cccccc" stroke="#000000" stroke-width="1.00"/>
<circle cx="222.10" cy="181.23" r="14.00" fill="#cccccc" stroke="#000000" stroke-width="1.00"/>
<circle cx="111.20" cy="232.17" r="14.00" fill="#cccccc" stroke="#000000" stroke-width="1.00"/>
<circle cx="195.17" cy="230.33" r="14.00" fill="#cccccc" stroke="#000000" stroke-width="1.00"/>
<circle cx="167.18" cy="230.94" r="14.00" fill="#cccccc" stroke="#000000" stroke-width="1.00"/>
<circle cx="124.66" cy="207.62" r="14.00" fill="#cccccc" stroke="#000000" stroke-width="1.00"/>
<circle cx="178.58" cy="256.52" r="14.00" fill="#cccccc" stroke="#000000" stroke-width="1.00"/>
<circle cx="223.17" cy="229.72" r="14.00" fill="#cccccc" stroke="#000000" stroke-width="1.00"/>
<circle cx="180.65" cy="206.39" r="14.00" fill="#cccccc" stroke="#000000" stroke-width="1.00"/>
<circle cx="195.82" cy="278.58" r="14.00" fill="#cccccc" stroke="#000000" stroke-width="1.00"/>
<polygon points="8.40,340.05 391.60,340.05 190.31,8.40" fill="none" stroke="#000000" stroke-width="1.40"/>
</svg>