<svg xmlns="http://www.w3.org/2000/svg" width="400.0" height="354.6" viewBox="0 0 400.0 354.6">
<rect width="400.0" height="354.6" fill="white"/>
<circle cx="226.22" cy="283.25" r="14.09" fill="#cccccc" stroke="#000000" stroke-width="1.00"/>
<circle cx="324.86" cy="307.66" r="14.09" fill="#cccccc" stroke="#000000" stroke-width="1.00"/>
<circle cx="168.93" cy="87.03" r="14.09" fill="#cccccc" stroke="#000000" stroke-width="1.00"/>
<circle cx="310.77" cy="234.43" r="14.09" fill="#cccccc" stroke="#000000" stroke-width="1.00"/>
<circle cx="155.76" cy="210.03" r="14.09" fill="#cccccc" stroke="#000000" stroke-width="1.00"/>
<circle cx="338.95" cy="283.25" r="14.09" fill="#cccccc" stroke="#000000" stroke-width="1.00"/>
<circle cx="169.85" cy="185.62" r="14.09" fill="#cccccc" stroke="#000000" stroke-width="1.00"/>
<circle cx="60.62" cy="332.06" r="14.09" fill="#cccccc" stroke="#000000" stroke-width="1.00"/>
<circle cx="183.97" cy="160.14" r="14.09" fill="#cccccc" stroke="#000000" stroke-width="1.00"/>
<circle cx="282.59" cy="234.43" r="14.09" fill="#cccccc" stroke="#000000" stroke-width="1.00"/>
<circle cx="127.58" cy="307.66" r="14.09" fill="#cccccc" stroke="#000000" stroke-width="1.00"/>
<circle cx="155.81" cy="161.18" r="14.09" fill="#cccccc" stroke="#000000" stroke-width="1.00"/>
<circle cx="113.16" cy="187.16" r="14.09" fill="#cccccc" stroke="#000000" stroke-width="1.00"/>
<circle cx="197.10" cy="86.27" r="14.09" fill="#cccccc" stroke="#000000" stroke-width="1.00"/>
<circle cx="296.68" cy="210.03" r="14.09" fill="#cccccc" stroke="#000000" stroke-width="1.00"/>
<circle cx="107.73" cy="238.72" r="14.09" fill="#cccccc" stroke="#000000" stroke-width="1.00"/>
<circle cx="127.63" cy="211.70" r="14.09" fill="#cccccc" stroke="#000000" stroke-width="1.00"/>
<circle cx="212.13" cy="210.03" r="14.09" fill="#cccccc" stroke="#000000" stroke-width="1.00"/>
<circle cx="169.85" cy="283.25" r="14.09" fill="#cccccc" stroke="#000000" stroke-width="1.00"/>
<circle cx="212.13" cy="307.66" r="14.09" fill="#cccccc" stroke="#000000" stroke-width="1.00"/>
<circle cx="141.67" cy="283.25" r="14.09" fill="#cccccc" stroke="#000000" stroke-width="1.00"/>
<circle cx="183.94" cy="258.84" r="14.09" fill="#cccccc" stroke="#000000" stroke-width="1.00"/>
<circle cx="268.49" cy="258.84" r="14.09" fill="#cccccc" stroke="#000000" stroke-width="1.00"/>
<circle cx="254.04" cy="136.17" r="14.09" fill="#cccccc" stroke="#000000" stroke-width="1.00"/>
<circle cx="310.77" cy="332.06" r="14.09" fill="#cccccc" stroke="#000000" stroke-width="1.00"/>
<circle cx="155.76" cy="307.66" r="14.09" fill="#cccccc" stroke="#000000" stroke-width="1.00"/>
<circle cx="127.62" cy="161.19" r="14.09" fill="#cccccc" stroke="#000000" stroke-width="1.00"/>
<circle cx="99.44" cy="211.78" r="14.09" fill="#cccccc" stroke="#000000" stroke-width="1.00"/>
<circle cx="141.31" cy="185.83" r="14.09" fill="#cccccc" stroke="#000000" stroke-width="1.00"/>
<circle cx="282.59" cy="185.62" r="14.09" fill="#cccccc" stroke="#000000" stroke-width="1.00"/>
<circle cx="296.68" cy="307.66" r="14.09" fill="#cccccc" stroke="#000000" stroke-width="1.00"/>
<circle cx="268.49" cy="161.21" r="14.09" fill="#cccccc" stroke="#000000" stroke-width="1.00"/>
<circle cx="182.92" cy="61.92" r="14.09" fill="#cccccc" stroke="#000000" stroke-width="1.00"/>
<circle cx="198.03" cy="185.62" r="14.09" fill="#cccccc" stroke="#000000" stroke-width="1.00"/>
<circle cx="183.94" cy="210.03" r="14.09" fill="#cccccc" stroke="#000000" stroke-width="1.00"/>
<circle cx="66.74" cy="270.48" r="14.09" fill="#cccccc" stroke="#000000" stroke-width="1.00"/>
<circle cx="169.85" cy="234.43" r="14.09" fill="#cccccc" stroke="#000000" stroke-width="1.00"/>
<circle cx="113.48" cy="332.06" r="14.09" fill="#cccccc" stroke="#000000" stroke-width="1.00"/>
<circle cx="268.49" cy="307.66" r="14.09" fill="#cccccc" stroke="#000000" stroke-width="1.00"/>
<circle cx="225.29" cy="86.37" r="14.09" fill="#cccccc" stroke="#000000" stroke-width="1.00"/>
<circle cx="198.03" cy="332.06" r="14.09" fill="#cccccc" stroke="#000000" stroke-width="1.00"/>
<circle cx="196.86" cy="37.14" r="14.09" fill="#cccccc" stroke="#000000" stroke-width="1.00"/>
<circle cx="239.95" cy="111.76" r="14.09" fill="#cccccc" stroke="#000000" stroke-width="1.00"/>
<circle cx="141.34" cy="136.57" r="14.09" fill="#cccccc" stroke="#000000" stroke-width="1.00"/>
<circle cx="226.22" cy="332.06" r="14.09" fill="#cccccc" stroke="#000000" stroke-width="1.00"/>
<circle cx="197.69" cy="135.52" r="14.09" fill="#cccccc" stroke="#000000" stroke-width="1.00"/>
<circle cx="353.05" cy="307.66" r="14.09" fill="#cccccc" stroke="#000000" stroke-width="1.00"/>
<circle cx="226.22" cy="234.43" r="14.09" fill="#cccccc" stroke="#000000" stroke-width="1.00"/>
<circle cx="324.86" cy="258.84" r="14.09" fill="#cccccc" stroke="#000000" stroke-width="1.00"/>
<circle cx="268.49" cy="210.03" r="14.09" fill="#cccccc" stroke="#000000" stroke-width="1.00"/>
<circle cx="212.13" cy="258.84" r="14.09" fill="#cccccc" stroke="#000000" stroke-width="1.00"/>
<circle cx="240.31" cy="307.66" r="14.09" fill="#cccccc" stroke="#000000" stroke-width="1.00"/>
<circle cx="155.22" cy="111.66" r="14.09" fill="#cccccc" stroke="#000000" stroke-width="1.00"/>
<circle cx="254.40" cy="234.43" r="14.09" fill="#cccccc" stroke="#000000" stroke-width="1.00"/>
<circle cx="211.11" cy="61.81" r="14.09" fill="#cccccc" stroke="#000000" stroke-width="1.00"/>
<circle cx="296.68" cy="258.84" r="14.09" fill="#cccccc" stroke="#000000" stroke-width="1.00"/>
<circle cx="101.14" cy="297.88" r="14.09" fill="#cccccc" stroke="#000000" stroke-width="1.00"/>
<circle cx="94.93" cy="270.39" r="14.09" fill="#cccccc" stroke="#000000" stroke-width="1.00"/>
<circle cx="254.40" cy="332.06" r="14.09" fill="#cccccc" stroke="#000000" stroke-width="1.00"/>
<circle cx="211.77" cy="111.10" r="14.09" fill="#cccccc" stroke="#000000" stroke-width="1.00"/>
<circle cx="240.31" cy="258.84" r="14.09" fill="#cccccc" stroke="#000000" stroke-width="1.00"/>
<circle cx="226.22" cy="185.62" r="14.09" fill="#cccccc" stroke="#000000" stroke-width="1.00"/>
<circle cx="72.71" cy="298.02" r="14.09" fill="#cccccc" stroke="#000000" stroke-width="1.00"/>
<circle cx="183.94" cy="307.66" r="14.09" fill="#cccccc" stroke="#000000" stroke-width="1.00"/>
<circle cx="169.85" cy="332.06" r="14.09" fill="#cccccc" stroke="#000000" stroke-width="1.00"/>
<circle cx="141.67" cy="332.06" r="14.09" fill="#cccccc" stroke="#000000" stroke-width="1.00"/>
<circle cx="282.59" cy="332.06" r="14.09" fill="#cccccc" stroke="#000000" stroke-width="1.00"/>
<circle cx="155.76" cy="258.84" r="14.09" fill="#cccccc" stroke="#000000" stroke-width="1.00"/>
<circle cx="282.59" cy="283.25" r="14.09" fill="#cccccc" stroke="#000000" stroke-width="1.00"/>
<circle cx="225.86" cy="136.59" r="14.09" fill="#cccccc" stroke="#000000" stroke-width="1.00"/>
<circle cx="338.95" cy="332.06" r="14.09" fill="#cccccc" stroke="#000000" stroke-width="1.00"/>
<circle cx="183.59" cy="111.11" r="14.09" fill="#cccccc" stroke="#000000" stroke-width="1.00"/>
<circle cx="240.31" cy="210.03" r="14.09" fill="#cccccc" stroke="#000000" stroke-width="1.00"/>
<circle cx="169.51" cy="135.94" r="14.09" fill="#cccccc" stroke="#000000" stroke-width="1.00"/>
<circle cx="46.15" cy="307.44" r="14.09" fill="#cccccc" stroke="#000000" stroke-width="1.00"/>
<circle cx="254.40" cy="283.25" r="14.09" fill="#cccccc" stroke="#000000" stroke-width="1.00"/>
<circle cx="198.03" cy="283.25" r="14.09" fill="#cccccc" stroke="#000000" stroke-width="1.00"/>
<circle cx="367.14" cy="332.06" r="14.09" fill="#cccccc" stroke="#000000" stroke-width="1.00"/>
<circle cx="136.21" cy="238.54" r="14.09" fill="#cccccc" stroke="#000000" stroke-width="1.00"/>
<circle cx="122.11" cy="262.95" r="14.09" fill="#cccccc" stroke="#000000" stroke-width="1.00"/>
<circle cx="240.31" cy="160.79" r="14.09" fill="#cccccc" stroke="#000000" stroke-width="1.00"/>
<circle cx="198.03" cy="234.43" r="14.09" fill="#cccccc" stroke="#000000" stroke-width="1.00"/>
<circle cx="80.46" cy="245.85" r="14.09" fill="#cccccc" stroke="#000000" stroke-width="1.00"/>
<circle cx="32.44" cy="332.06" r="14.09" fill="#cccccc" stroke="#000000" stroke-width="1.00"/>
<circle cx="254.40" cy="185.62" r="14.09" fill="#cccccc" stroke="#000000" stroke-width="1.00"/>
<circle cx="212.13" cy="161.21" r="14.09" fill="#cccccc" stroke="#000000" stroke-width="1.00"/>
<circle cx="87.05" cy="322.28" r="14.09" fill="#cccccc" stroke="#000000" stroke-width="1.00"/>
<circle cx="310.77" cy="283.25" r="14.09" fill="#cccccc" stroke="#000000" stroke-width="1.00"/>
<polygon points="8.46,346.16 391.54,346.16 196.57,8.46" fill="none" stroke="#000000" stroke-width="1.40"/>
</svg>