<svg xmlns="http://www.w3.org/2000/svg" width="400.0" height="369.9" viewBox="0 0 400.0 369.9">
<rect width="400.0" height="369.9" fill="white"/>
<circle cx="284.75" cy="298.97" r="14.00" fill="#cccccc" stroke="#000000" stroke-width="1.00"/>
<circle cx="102.68" cy="274.72" r="14.00" fill="#cccccc" stroke="#000000" stroke-width="1.00"/>
<circle cx="88.68" cy="298.97" r="14.00" fill="#cccccc" stroke="#000000" stroke-width="1.00"/>
<circle cx="211.47" cy="37.78" r="14.00" fill="#cccccc" stroke="#000000" stroke-width="1.00"/>
<circle cx="214.72" cy="274.72" r="14.00" fill="#cccccc" stroke="#000000" stroke-width="1.00"/>
<circle cx="300.11" cy="227.04" r="14.00" fill="#cccccc" stroke="#000000" stroke-width="1.00"/>
<circle cx="32.66" cy="347.49" r="14.00" fill="#cccccc" stroke="#000000" stroke-width="1.00"/>
<circle cx="186.71" cy="177.69" r="14.00" fill="#cccccc" stroke="#000000" stroke-width="1.00"/>
<circle cx="214.72" cy="177.69" r="14.00" fill="#cccccc" stroke="#000000" stroke-width="1.00"/>
<circle cx="200.72" cy="153.43" r="14.00" fill="#cccccc" stroke="#000000" stroke-width="1.00"/>
<circle cx="60.67" cy="347.49" r="14.00" fill="#cccccc" stroke="#000000" stroke-width="1.00"/>
<circle cx="46.66" cy="323.23" r="14.00" fill="#cccccc" stroke="#000000" stroke-width="1.00"/>
<circle cx="74.67" cy="274.72" r="14.00" fill="#cccccc" stroke="#000000" stroke-width="1.00"/>
<circle cx="116.69" cy="347.49" r="14.00" fill="#cccccc" stroke="#000000" stroke-width="1.00"/>
<circle cx="312.76" cy="298.97" r="14.00" fill="#cccccc" stroke="#000000" stroke-width="1.00"/>
<circle cx="214.72" cy="226.20" r="14.00" fill="#cccccc" stroke="#000000" stroke-width="1.00"/>
<circle cx="186.71" cy="129.17" r="14.00" fill="#cccccc" stroke="#000000" stroke-width="1.00"/>
<circle cx="318.38" cy="248.26" r="14.00" fill="#cccccc" stroke="#000000" stroke-width="1.00"/>
<circle cx="203.70" cy="103.41" r="14.00" fill="#cccccc" stroke="#000000" stroke-width="1.00"/>
<circle cx="270.74" cy="274.72" r="14.00" fill="#cccccc" stroke="#000000" stroke-width="1.00"/>
<circle cx="130.69" cy="274.72" r="14.00" fill="#cccccc" stroke="#000000" stroke-width="1.00"/>
<circle cx="284.75" cy="347.49" r="14.00" fill="#cccccc" stroke="#000000" stroke-width="1.00"/>
<circle cx="200.72" cy="201.95" r="14.00" fill="#cccccc" stroke="#000000" stroke-width="1.00"/>
<circle cx="298.75" cy="323.23" r="14.00" fill="#cccccc" stroke="#000000" stroke-width="1.00"/>
<circle cx="244.88" cy="176.56" r="14.00" fill="#cccccc" stroke="#000000" stroke-width="1.00"/>
<circle cx="256.74" cy="347.49" r="14.00" fill="#cccccc" stroke="#000000" stroke-width="1.00"/>
<circle cx="116.69" cy="298.97" r="14.00" fill="#cccccc" stroke="#000000" stroke-width="1.00"/>
<circle cx="270.74" cy="323.23" r="14.00" fill="#cccccc" stroke="#000000" stroke-width="1.00"/>
<circle cx="293.74" cy="199.76" r="14.00" fill="#cccccc" stroke="#000000" stroke-width="1.00"/>
<circle cx="228.73" cy="347.49" r="14.00" fill="#cccccc" stroke="#000000" stroke-width="1.00"/>
<circle cx="172.71" cy="250.46" r="14.00" fill="#cccccc" stroke="#000000" stroke-width="1.00"/>
<circle cx="144.70" cy="250.46" r="14.00" fill="#cccccc" stroke="#000000" stroke-width="1.00"/>
<circle cx="214.72" cy="323.23" r="14.00" fill="#cccccc" stroke="#000000" stroke-width="1.00"/>
<circle cx="368.78" cy="347.49" r="14.00" fill="#cccccc" stroke="#000000" stroke-width="1.00"/>
<circle cx="343.44" cy="297.61" r="14.00" fill="#cccccc" stroke="#000000" stroke-width="1.00"/>
<circle cx="88.68" cy="250.46" r="14.00" fill="#cccccc" stroke="#000000" stroke-width="1.00"/>
<circle cx="116.69" cy="250.46" r="14.00" fill="#cccccc" stroke="#000000" stroke-width="1.00"/>
<circle cx="144.70" cy="298.97" r="14.00" fill="#cccccc" stroke="#000000" stroke-width="1.00"/>
<circle cx="186.71" cy="226.20" r="14.00" fill="#cccccc" stroke="#000000" stroke-width="1.00"/>
<circle cx="186.71" cy="274.72" r="14.00" fill="#cccccc" stroke="#000000" stroke-width="1.00"/>
<circle cx="200.72" cy="298.97" r="14.00" fill="#cccccc" stroke="#000000" stroke-width="1.00"/>
<circle cx="172.71" cy="298.97" r="14.00" fill="#cccccc" stroke="#000000" stroke-width="1.00"/>
<circle cx="158.70" cy="274.72" r="14.00" fill="#cccccc" stroke="#000000" stroke-width="1.00"/>
<circle cx="234.60" cy="109.44" r="14.00" fill="#cccccc" stroke="#000000" stroke-width="1.00"/>
<circle cx="74.67" cy="323.23" r="14.00" fill="#cccccc" stroke="#000000" stroke-width="1.00"/>
<circle cx="172.71" cy="347.49" r="14.00" fill="#cccccc" stroke="#000000" stroke-width="1.00"/>
<circle cx="102.68" cy="226.20" r="14.00" fill="#cccccc" stroke="#000000" stroke-width="1.00"/>
<circle cx="312.76" cy="347.49" r="14.00" fill="#cccccc" stroke="#000000" stroke-width="1.00"/>
<circle cx="172.71" cy="153.43" r="14.00" fill="#cccccc" stroke="#000000" stroke-width="1.00"/>
<circle cx="200.72" cy="347.49" r="14.00" fill="#cccccc" stroke="#000000" stroke-width="1.00"/>
<circle cx="269.60" cy="152.23" r="14.00" fill="#cccccc" stroke="#000000" stroke-width="1.00"/>
<circle cx="271.59" cy="225.73" r="14.00" fill="#cccccc" stroke="#000000" stroke-width="1.00"/>
<circle cx="158.70" cy="226.20" r="14.00" fill="#cccccc" stroke="#000000" stroke-width="1.00"/>
<circle cx="242.73" cy="226.20" r="14.00" fill="#cccccc" stroke="#000000" stroke-width="1.00"/>
<circle cx="242.73" cy="274.72" r="14.00" fill="#cccccc" stroke="#000000" stroke-width="1.00"/>
<circle cx="200.72" cy="250.46" r="14.00" fill="#cccccc" stroke="#000000" stroke-width="1.00"/>
<circle cx="88.68" cy="347.49" r="14.00" fill="#cccccc" stroke="#000000" stroke-width="1.00"/>
<circle cx="130.69" cy="226.20" r="14.00" fill="#cccccc" stroke="#000000" stroke-width="1.00"/>
<circle cx="210.44" cy="65.77" r="14.00" fill="#cccccc" stroke="#000000" stroke-width="1.00"/>
<circle cx="116.69" cy="201.95" r="14.00" fill="#cccccc" stroke="#000000" stroke-width="1.00"/>
<circle cx="158.70" cy="323.23" r="14.00" fill="#cccccc" stroke="#000000" stroke-width="1.00"/>
<circle cx="102.68" cy="323.23" r="14.00" fill="#cccccc" stroke="#000000" stroke-width="1.00"/>
<circle cx="256.74" cy="298.97" r="14.00" fill="#cccccc" stroke="#000000" stroke-width="1.00"/>
<circle cx="228.73" cy="153.43" r="14.00" fill="#cccccc" stroke="#000000" stroke-width="1.00"/>
<circle cx="214.72" cy="129.17" r="14.00" fill="#cccccc" stroke="#000000" stroke-width="1.00"/>
<circle cx="327.06" cy="274.89" r="14.00" fill="#cccccc" stroke="#000000" stroke-width="1.00"/>
<circle cx="172.71" cy="201.95" r="14.00" fill="#cccccc" stroke="#000000" stroke-width="1.00"/>
<circle cx="354.77" cy="323.23" r="14.00" fill="#cccccc" stroke="#000000" stroke-width="1.00"/>
<circle cx="274.00" cy="179.89" r="14.00" fill="#cccccc" stroke="#000000" stroke-width="1.00"/>
<circle cx="256.74" cy="201.95" r="14.00" fill="#cccccc" stroke="#000000" stroke-width="1.00"/>
<circle cx="248.60" cy="133.69" r="14.00" fill="#cccccc" stroke="#000000" stroke-width="1.00"/>
<circle cx="256.74" cy="250.46" r="14.00" fill="#cccccc" stroke="#000000" stroke-width="1.00"/>
<circle cx="144.70" cy="201.95" r="14.00" fill="#cccccc" stroke="#000000" stroke-width="1.00"/>
<circle cx="299.01" cy="274.56" r="14.00" fill="#cccccc" stroke="#000000" stroke-width="1.00"/>
<circle cx="228.73" cy="298.97" r="14.00" fill="#cccccc" stroke="#000000" stroke-width="1.00"/>
<circle cx="326.76" cy="323.23" r="14.00" fill="#cccccc" stroke="#000000" stroke-width="1.00"/>
<circle cx="228.73" cy="201.95" r="14.00" fill="#cccccc" stroke="#000000" stroke-width="1.00"/>
<circle cx="130.69" cy="177.69" r="14.00" fill="#cccccc" stroke="#000000" stroke-width="1.00"/>
<circle cx="158.70" cy="177.69" r="14.00" fill="#cccccc" stroke="#000000" stroke-width="1.00"/>
<circle cx="186.71" cy="323.23" r="14.00" fill="#cccccc" stroke="#000000" stroke-width="1.00"/>
<circle cx="130.69" cy="323.23" r="14.00" fill="#cccccc" stroke="#000000" stroke-width="1.00"/>
<circle cx="186.71" cy="80.66" r="14.00" fill="#cccccc" stroke="#000000" stroke-width="1.00"/>
<circle cx="242.73" cy="323.23" r="14.00" fill="#cccccc" stroke="#000000" stroke-width="1.00"/>
<circle cx="233.65" cy="81.44" r="14.00" fill="#cccccc" stroke="#000000" stroke-width="1.00"/>
<circle cx="144.70" cy="153.43" r="14.00" fill="#cccccc" stroke="#000000" stroke-width="1.00"/>
<circle cx="284.75" cy="250.46" r="14.00" fill="#cccccc" stroke="#000000" stroke-width="1.00"/>
<circle cx="158.70" cy="129.17" r="14.00" fill="#cccccc" stroke="#000000" stroke-width="1.00"/>
<circle cx="340.77" cy="347.49" r="14.00" fill="#cccccc" stroke="#000000" stroke-width="1.00"/>
<circle cx="172.71" cy="104.92" r="14.00" fill="#cccccc" stroke="#000000" stroke-width="1.00"/>
<circle cx="228.73" cy="250.46" r="14.00" fill="#cccccc" stroke="#000000" stroke-width="1.00"/>
<circle cx="60.67" cy="298.97" r="14.00" fill="#cccccc" stroke="#000000" stroke-width="1.00"/>
<circle cx="144.70" cy="347.49" r="14.00" fill="#cccccc" stroke="#000000" stroke-width="1.00"/>
<polygon points="8.40,361.49 391.60,361.49 212.26,8.40" fill="none" stroke="#000000" stroke-width="1.40"/>
</svg>