<svg xmlns="http://www.w3.org/2000/svg" width="400.0" height="373.8" viewBox="0 0 400.0 373.8">
<rect width="400.0" height="373.8" fill="white"/>
<circle cx="213.17" cy="181.50" r="14.01" fill="#cccccc" stroke="#000000" stroke-width="1.00"/>
<circle cx="213.17" cy="278.59" r="14.01" fill="#cccccc" stroke="#000000" stroke-width="1.00"/>
<circle cx="339.29" cy="351.41" r="14.01" fill="#cccccc" stroke="#000000" stroke-width="1.00"/>
<circle cx="201.36" cy="63.95" r="14.01" fill="#cccccc" stroke="#000000" stroke-width="1.00"/>
<circle cx="167.69" cy="131.84" r="14.01" fill="#cccccc" stroke="#000000" stroke-width="1.00"/>
<circle cx="190.84" cy="116.03" r="14.01" fill="#cccccc" stroke="#000000" stroke-width="1.00"/>
<circle cx="59.03" cy="351.41" r="14.01" fill="#cccccc" stroke="#000000" stroke-width="1.00"/>
<circle cx="99.72" cy="230.85" r="14.01" fill="#cccccc" stroke="#000000" stroke-width="1.00"/>
<circle cx="297.25" cy="278.59" r="14.01" fill="#cccccc" stroke="#000000" stroke-width="1.00"/>
<circle cx="171.13" cy="351.41" r="14.01" fill="#cccccc" stroke="#000000" stroke-width="1.00"/>
<circle cx="269.23" cy="278.59" r="14.01" fill="#cccccc" stroke="#000000" stroke-width="1.00"/>
<circle cx="241.20" cy="181.50" r="14.01" fill="#cccccc" stroke="#000000" stroke-width="1.00"/>
<circle cx="157.12" cy="327.13" r="14.01" fill="#cccccc" stroke="#000000" stroke-width="1.00"/>
<circle cx="185.15" cy="278.59" r="14.01" fill="#cccccc" stroke="#000000" stroke-width="1.00"/>
<circle cx="227.19" cy="108.69" r="14.01" fill="#cccccc" stroke="#000000" stroke-width="1.00"/>
<circle cx="96.19" cy="276.37" r="14.01" fill="#cccccc" stroke="#000000" stroke-width="1.00"/>
<circle cx="175.88" cy="92.33" r="14.01" fill="#cccccc" stroke="#000000" stroke-width="1.00"/>
<circle cx="58.92" cy="302.92" r="14.01" fill="#cccccc" stroke="#000000" stroke-width="1.00"/>
<circle cx="43.45" cy="326.30" r="14.01" fill="#cccccc" stroke="#000000" stroke-width="1.00"/>
<circle cx="185.15" cy="181.50" r="14.01" fill="#cccccc" stroke="#000000" stroke-width="1.00"/>
<circle cx="311.27" cy="351.41" r="14.01" fill="#cccccc" stroke="#000000" stroke-width="1.00"/>
<circle cx="129.09" cy="278.59" r="14.01" fill="#cccccc" stroke="#000000" stroke-width="1.00"/>
<circle cx="283.24" cy="351.41" r="14.01" fill="#cccccc" stroke="#000000" stroke-width="1.00"/>
<circle cx="227.19" cy="157.23" r="14.01" fill="#cccccc" stroke="#000000" stroke-width="1.00"/>
<circle cx="68.17" cy="276.47" r="14.01" fill="#cccccc" stroke="#000000" stroke-width="1.00"/>
<circle cx="115.08" cy="302.86" r="14.01" fill="#cccccc" stroke="#000000" stroke-width="1.00"/>
<circle cx="114.17" cy="254.87" r="14.01" fill="#cccccc" stroke="#000000" stroke-width="1.00"/>
<circle cx="255.21" cy="205.77" r="14.01" fill="#cccccc" stroke="#000000" stroke-width="1.00"/>
<circle cx="213.17" cy="132.96" r="14.01" fill="#cccccc" stroke="#000000" stroke-width="1.00"/>
<circle cx="269.23" cy="230.05" r="14.01" fill="#cccccc" stroke="#000000" stroke-width="1.00"/>
<circle cx="199.16" cy="254.32" r="14.01" fill="#cccccc" stroke="#000000" stroke-width="1.00"/>
<circle cx="129.09" cy="327.13" r="14.01" fill="#cccccc" stroke="#000000" stroke-width="1.00"/>
<circle cx="173.34" cy="64.42" r="14.01" fill="#cccccc" stroke="#000000" stroke-width="1.00"/>
<circle cx="269.23" cy="327.13" r="14.01" fill="#cccccc" stroke="#000000" stroke-width="1.00"/>
<circle cx="227.19" cy="302.86" r="14.01" fill="#cccccc" stroke="#000000" stroke-width="1.00"/>
<circle cx="311.27" cy="254.32" r="14.01" fill="#cccccc" stroke="#000000" stroke-width="1.00"/>
<circle cx="116.94" cy="178.12" r="14.01" fill="#cccccc" stroke="#000000" stroke-width="1.00"/>
<circle cx="227.19" cy="351.41" r="14.01" fill="#cccccc" stroke="#000000" stroke-width="1.00"/>
<circle cx="283.24" cy="205.77" r="14.01" fill="#cccccc" stroke="#000000" stroke-width="1.00"/>
<circle cx="157.12" cy="278.59" r="14.01" fill="#cccccc" stroke="#000000" stroke-width="1.00"/>
<circle cx="297.25" cy="327.13" r="14.01" fill="#cccccc" stroke="#000000" stroke-width="1.00"/>
<circle cx="143.11" cy="351.41" r="14.01" fill="#cccccc" stroke="#000000" stroke-width="1.00"/>
<circle cx="199.16" cy="302.86" r="14.01" fill="#cccccc" stroke="#000000" stroke-width="1.00"/>
<circle cx="171.13" cy="254.32" r="14.01" fill="#cccccc" stroke="#000000" stroke-width="1.00"/>
<circle cx="367.32" cy="351.41" r="14.01" fill="#cccccc" stroke="#000000" stroke-width="1.00"/>
<circle cx="241.20" cy="278.59" r="14.01" fill="#cccccc" stroke="#000000" stroke-width="1.00"/>
<circle cx="80.62" cy="251.36" r="14.01" fill="#cccccc" stroke="#000000" stroke-width="1.00"/>
<circle cx="199.16" cy="351.41" r="14.01" fill="#cccccc" stroke="#000000" stroke-width="1.00"/>
<circle cx="128.18" cy="230.59" r="14.01" fill="#cccccc" stroke="#000000" stroke-width="1.00"/>
<circle cx="167.34" cy="159.86" r="14.01" fill="#cccccc" stroke="#000000" stroke-width="1.00"/>
<circle cx="227.19" cy="254.32" r="14.01" fill="#cccccc" stroke="#000000" stroke-width="1.00"/>
<circle cx="255.21" cy="254.32" r="14.01" fill="#cccccc" stroke="#000000" stroke-width="1.00"/>
<circle cx="171.13" cy="205.77" r="14.01" fill="#cccccc" stroke="#000000" stroke-width="1.00"/>
<circle cx="255.21" cy="302.86" r="14.01" fill="#cccccc" stroke="#000000" stroke-width="1.00"/>
<circle cx="213.17" cy="230.05" r="14.01" fill="#cccccc" stroke="#000000" stroke-width="1.00"/>
<circle cx="143.11" cy="254.32" r="14.01" fill="#cccccc" stroke="#000000" stroke-width="1.00"/>
<circle cx="139.67" cy="132.30" r="14.01" fill="#cccccc" stroke="#000000" stroke-width="1.00"/>
<circle cx="73.04" cy="327.13" r="14.01" fill="#cccccc" stroke="#000000" stroke-width="1.00"/>
<circle cx="241.20" cy="230.05" r="14.01" fill="#cccccc" stroke="#000000" stroke-width="1.00"/>
<circle cx="115.08" cy="351.41" r="14.01" fill="#cccccc" stroke="#000000" stroke-width="1.00"/>
<circle cx="325.28" cy="327.13" r="14.01" fill="#cccccc" stroke="#000000" stroke-width="1.00"/>
<circle cx="143.11" cy="302.86" r="14.01" fill="#cccccc" stroke="#000000" stroke-width="1.00"/>
<circle cx="186.23" cy="38.42" r="14.01" fill="#cccccc" stroke="#000000" stroke-width="1.00"/>
<circle cx="31.00" cy="351.41" r="14.01" fill="#cccccc" stroke="#000000" stroke-width="1.00"/>
<circle cx="171.13" cy="302.86" r="14.01" fill="#cccccc" stroke="#000000" stroke-width="1.00"/>
<circle cx="104.49" cy="203.23" r="14.01" fill="#cccccc" stroke="#000000" stroke-width="1.00"/>
<circle cx="87.05" cy="351.41" r="14.01" fill="#cccccc" stroke="#000000" stroke-width="1.00"/>
<circle cx="227.19" cy="205.77" r="14.01" fill="#cccccc" stroke="#000000" stroke-width="1.00"/>
<circle cx="153.33" cy="184.13" r="14.01" fill="#cccccc" stroke="#000000" stroke-width="1.00"/>
<circle cx="297.25" cy="230.05" r="14.01" fill="#cccccc" stroke="#000000" stroke-width="1.00"/>
<circle cx="185.15" cy="230.05" r="14.01" fill="#cccccc" stroke="#000000" stroke-width="1.00"/>
<circle cx="195.86" cy="155.30" r="14.01" fill="#cccccc" stroke="#000000" stroke-width="1.00"/>
<circle cx="101.07" cy="327.13" r="14.01" fill="#cccccc" stroke="#000000" stroke-width="1.00"/>
<circle cx="325.28" cy="278.59" r="14.01" fill="#cccccc" stroke="#000000" stroke-width="1.00"/>
<circle cx="87.05" cy="302.86" r="14.01" fill="#cccccc" stroke="#000000" stroke-width="1.00"/>
<circle cx="283.24" cy="302.86" r="14.01" fill="#cccccc" stroke="#000000" stroke-width="1.00"/>
<circle cx="156.40" cy="229.64" r="14.01" fill="#cccccc" stroke="#000000" stroke-width="1.00"/>
<circle cx="241.20" cy="132.96" r="14.01" fill="#cccccc" stroke="#000000" stroke-width="1.00"/>
<circle cx="213.17" cy="327.13" r="14.01" fill="#cccccc" stroke="#000000" stroke-width="1.00"/>
<circle cx="199.16" cy="205.77" r="14.01" fill="#cccccc" stroke="#000000" stroke-width="1.00"/>
<circle cx="152.12" cy="107.19" r="14.01" fill="#cccccc" stroke="#000000" stroke-width="1.00"/>
<circle cx="353.31" cy="327.13" r="14.01" fill="#cccccc" stroke="#000000" stroke-width="1.00"/>
<circle cx="339.29" cy="302.86" r="14.01" fill="#cccccc" stroke="#000000" stroke-width="1.00"/>
<circle cx="204.85" cy="91.76" r="14.01" fill="#cccccc" stroke="#000000" stroke-width="1.00"/>
<circle cx="138.57" cy="160.30" r="14.01" fill="#cccccc" stroke="#000000" stroke-width="1.00"/>
<circle cx="283.24" cy="254.32" r="14.01" fill="#cccccc" stroke="#000000" stroke-width="1.00"/>
<circle cx="311.27" cy="302.86" r="14.01" fill="#cccccc" stroke="#000000" stroke-width="1.00"/>
<circle cx="185.15" cy="327.13" r="14.01" fill="#cccccc" stroke="#000000" stroke-width="1.00"/>
<circle cx="132.51" cy="202.90" r="14.01" fill="#cccccc" stroke="#000000" stroke-width="1.00"/>
<circle cx="241.20" cy="327.13" r="14.01" fill="#cccccc" stroke="#000000" stroke-width="1.00"/>
<circle cx="255.21" cy="351.41" r="14.01" fill="#cccccc" stroke="#000000" stroke-width="1.00"/>
<circle cx="255.21" cy="157.23" r="14.01" fill="#cccccc" stroke="#000000" stroke-width="1.00"/>
<circle cx="269.23" cy="181.50" r="14.01" fill="#cccccc" stroke="#000000" stroke-width="1.00"/>
<polygon points="8.41,365.42 391.59,365.42 185.47,8.41" fill="none" stroke="#000000" stroke-width="1.40"/>
</svg>