<svg xmlns="http://www.w3.org/2000/svg" width="400.0" height="384.5" viewBox="0 0 400.0 384.5">
<rect width="400.0" height="384.5" fill="white"/>
<circle cx="286.96" cy="313.03" r="14.11" fill="#cccccc" stroke="#000000" stroke-width="1.00"/>
<circle cx="230.54" cy="215.23" r="14.11" fill="#cccccc" stroke="#000000" stroke-width="1.00"/>
<circle cx="230.51" cy="264.14" r="14.11" fill="#cccccc" stroke="#000000" stroke-width="1.00"/>
<circle cx="131.71" cy="288.59" r="14.11" fill="#cccccc" stroke="#000000" stroke-width="1.00"/>
<circle cx="345.61" cy="310.73" r="14.11" fill="#cccccc" stroke="#000000" stroke-width="1.00"/>
<circle cx="204.39" cy="64.93" r="14.11" fill="#cccccc" stroke="#000000" stroke-width="1.00"/>
<circle cx="61.14" cy="313.03" r="14.11" fill="#cccccc" stroke="#000000" stroke-width="1.00"/>
<circle cx="329.31" cy="337.48" r="14.11" fill="#cccccc" stroke="#000000" stroke-width="1.00"/>
<circle cx="232.51" cy="67.39" r="14.11" fill="#cccccc" stroke="#000000" stroke-width="1.00"/>
<circle cx="274.04" cy="239.08" r="14.11" fill="#cccccc" stroke="#000000" stroke-width="1.00"/>
<circle cx="188.17" cy="288.59" r="14.11" fill="#cccccc" stroke="#000000" stroke-width="1.00"/>
<circle cx="145.83" cy="361.92" r="14.11" fill="#cccccc" stroke="#000000" stroke-width="1.00"/>
<circle cx="159.94" cy="190.80" r="14.11" fill="#cccccc" stroke="#000000" stroke-width="1.00"/>
<circle cx="301.11" cy="288.61" r="14.11" fill="#cccccc" stroke="#000000" stroke-width="1.00"/>
<circle cx="202.28" cy="117.47" r="14.11" fill="#cccccc" stroke="#000000" stroke-width="1.00"/>
<circle cx="117.60" cy="215.25" r="14.11" fill="#cccccc" stroke="#000000" stroke-width="1.00"/>
<circle cx="272.85" cy="337.48" r="14.11" fill="#cccccc" stroke="#000000" stroke-width="1.00"/>
<circle cx="159.94" cy="239.70" r="14.11" fill="#cccccc" stroke="#000000" stroke-width="1.00"/>
<circle cx="258.74" cy="313.03" r="14.11" fill="#cccccc" stroke="#000000" stroke-width="1.00"/>
<circle cx="159.94" cy="288.59" r="14.11" fill="#cccccc" stroke="#000000" stroke-width="1.00"/>
<circle cx="217.68" cy="142.70" r="14.11" fill="#cccccc" stroke="#000000" stroke-width="1.00"/>
<circle cx="219.86" cy="40.56" r="14.11" fill="#cccccc" stroke="#000000" stroke-width="1.00"/>
<circle cx="258.83" cy="215.30" r="14.11" fill="#cccccc" stroke="#000000" stroke-width="1.00"/>
<circle cx="230.51" cy="313.03" r="14.11" fill="#cccccc" stroke="#000000" stroke-width="1.00"/>
<circle cx="145.83" cy="313.03" r="14.11" fill="#cccccc" stroke="#000000" stroke-width="1.00"/>
<circle cx="159.94" cy="337.48" r="14.11" fill="#cccccc" stroke="#000000" stroke-width="1.00"/>
<circle cx="244.62" cy="288.59" r="14.11" fill="#cccccc" stroke="#000000" stroke-width="1.00"/>
<circle cx="244.40" cy="92.98" r="14.11" fill="#cccccc" stroke="#000000" stroke-width="1.00"/>
<circle cx="302.24" cy="240.40" r="14.11" fill="#cccccc" stroke="#000000" stroke-width="1.00"/>
<circle cx="277.98" cy="194.43" r="14.11" fill="#cccccc" stroke="#000000" stroke-width="1.00"/>
<circle cx="258.76" cy="264.13" r="14.11" fill="#cccccc" stroke="#000000" stroke-width="1.00"/>
<circle cx="117.60" cy="313.03" r="14.11" fill="#cccccc" stroke="#000000" stroke-width="1.00"/>
<circle cx="202.28" cy="313.03" r="14.11" fill="#cccccc" stroke="#000000" stroke-width="1.00"/>
<circle cx="202.28" cy="166.36" r="14.11" fill="#cccccc" stroke="#000000" stroke-width="1.00"/>
<circle cx="272.85" cy="288.59" r="14.11" fill="#cccccc" stroke="#000000" stroke-width="1.00"/>
<circle cx="131.71" cy="239.70" r="14.11" fill="#cccccc" stroke="#000000" stroke-width="1.00"/>
<circle cx="117.60" cy="264.14" r="14.11" fill="#cccccc" stroke="#000000" stroke-width="1.00"/>
<circle cx="174.05" cy="166.36" r="14.11" fill="#cccccc" stroke="#000000" stroke-width="1.00"/>
<circle cx="202.28" cy="264.14" r="14.11" fill="#cccccc" stroke="#000000" stroke-width="1.00"/>
<circle cx="369.41" cy="361.92" r="14.11" fill="#cccccc" stroke="#000000" stroke-width="1.00"/>
<circle cx="278.44" cy="166.21" r="14.11" fill="#cccccc" stroke="#000000" stroke-width="1.00"/>
<circle cx="174.05" cy="264.14" r="14.11" fill="#cccccc" stroke="#000000" stroke-width="1.00"/>
<circle cx="329.32" cy="287.68" r="14.11" fill="#cccccc" stroke="#000000" stroke-width="1.00"/>
<circle cx="145.83" cy="166.36" r="14.11" fill="#cccccc" stroke="#000000" stroke-width="1.00"/>
<circle cx="230.51" cy="361.92" r="14.11" fill="#cccccc" stroke="#000000" stroke-width="1.00"/>
<circle cx="174.05" cy="313.03" r="14.11" fill="#cccccc" stroke="#000000" stroke-width="1.00"/>
<circle cx="145.83" cy="215.25" r="14.11" fill="#cccccc" stroke="#000000" stroke-width="1.00"/>
<circle cx="286.96" cy="361.92" r="14.11" fill="#cccccc" stroke="#000000" stroke-width="1.00"/>
<circle cx="159.94" cy="141.91" r="14.11" fill="#cccccc" stroke="#000000" stroke-width="1.00"/>
<circle cx="89.37" cy="361.92" r="14.11" fill="#cccccc" stroke="#000000" stroke-width="1.00"/>
<circle cx="244.62" cy="337.48" r="14.11" fill="#cccccc" stroke="#000000" stroke-width="1.00"/>
<circle cx="188.17" cy="239.70" r="14.11" fill="#cccccc" stroke="#000000" stroke-width="1.00"/>
<circle cx="75.26" cy="288.59" r="14.11" fill="#cccccc" stroke="#000000" stroke-width="1.00"/>
<circle cx="316.02" cy="312.57" r="14.11" fill="#cccccc" stroke="#000000" stroke-width="1.00"/>
<circle cx="103.48" cy="337.48" r="14.11" fill="#cccccc" stroke="#000000" stroke-width="1.00"/>
<circle cx="301.08" cy="337.48" r="14.11" fill="#cccccc" stroke="#000000" stroke-width="1.00"/>
<circle cx="230.51" cy="117.56" r="14.11" fill="#cccccc" stroke="#000000" stroke-width="1.00"/>
<circle cx="174.05" cy="215.25" r="14.11" fill="#cccccc" stroke="#000000" stroke-width="1.00"/>
<circle cx="216.39" cy="239.70" r="14.11" fill="#cccccc" stroke="#000000" stroke-width="1.00"/>
<circle cx="202.28" cy="361.92" r="14.11" fill="#cccccc" stroke="#000000" stroke-width="1.00"/>
<circle cx="174.05" cy="361.92" r="14.11" fill="#cccccc" stroke="#000000" stroke-width="1.00"/>
<circle cx="89.37" cy="313.03" r="14.11" fill="#cccccc" stroke="#000000" stroke-width="1.00"/>
<circle cx="231.79" cy="167.14" r="14.11" fill="#cccccc" stroke="#000000" stroke-width="1.00"/>
<circle cx="357.51" cy="336.33" r="14.11" fill="#cccccc" stroke="#000000" stroke-width="1.00"/>
<circle cx="202.28" cy="215.25" r="14.11" fill="#cccccc" stroke="#000000" stroke-width="1.00"/>
<circle cx="322.20" cy="260.36" r="14.11" fill="#cccccc" stroke="#000000" stroke-width="1.00"/>
<circle cx="174.05" cy="117.47" r="14.11" fill="#cccccc" stroke="#000000" stroke-width="1.00"/>
<circle cx="47.03" cy="337.48" r="14.11" fill="#cccccc" stroke="#000000" stroke-width="1.00"/>
<circle cx="131.71" cy="337.48" r="14.11" fill="#cccccc" stroke="#000000" stroke-width="1.00"/>
<circle cx="89.37" cy="264.14" r="14.11" fill="#cccccc" stroke="#000000" stroke-width="1.00"/>
<circle cx="315.19" cy="361.92" r="14.11" fill="#cccccc" stroke="#000000" stroke-width="1.00"/>
<circle cx="188.17" cy="337.48" r="14.11" fill="#cccccc" stroke="#000000" stroke-width="1.00"/>
<circle cx="216.39" cy="337.48" r="14.11" fill="#cccccc" stroke="#000000" stroke-width="1.00"/>
<circle cx="216.39" cy="288.59" r="14.11" fill="#cccccc" stroke="#000000" stroke-width="1.00"/>
<circle cx="216.39" cy="190.80" r="14.11" fill="#cccccc" stroke="#000000" stroke-width="1.00"/>
<circle cx="250.41" cy="188.36" r="14.11" fill="#cccccc" stroke="#000000" stroke-width="1.00"/>
<circle cx="61.14" cy="361.92" r="14.11" fill="#cccccc" stroke="#000000" stroke-width="1.00"/>
<circle cx="188.17" cy="141.91" r="14.11" fill="#cccccc" stroke="#000000" stroke-width="1.00"/>
<circle cx="188.17" cy="190.80" r="14.11" fill="#cccccc" stroke="#000000" stroke-width="1.00"/>
<circle cx="258.25" cy="122.77" r="14.11" fill="#cccccc" stroke="#000000" stroke-width="1.00"/>
<circle cx="131.71" cy="190.80" r="14.11" fill="#cccccc" stroke="#000000" stroke-width="1.00"/>
<circle cx="216.28" cy="90.52" r="14.11" fill="#cccccc" stroke="#000000" stroke-width="1.00"/>
<circle cx="258.74" cy="361.92" r="14.11" fill="#cccccc" stroke="#000000" stroke-width="1.00"/>
<circle cx="103.48" cy="288.59" r="14.11" fill="#cccccc" stroke="#000000" stroke-width="1.00"/>
<circle cx="32.91" cy="361.92" r="14.11" fill="#cccccc" stroke="#000000" stroke-width="1.00"/>
<circle cx="145.83" cy="264.14" r="14.11" fill="#cccccc" stroke="#000000" stroke-width="1.00"/>
<circle cx="287.00" cy="264.16" r="14.11" fill="#cccccc" stroke="#000000" stroke-width="1.00"/>
<circle cx="299.85" cy="212.28" r="14.11" fill="#cccccc" stroke="#000000" stroke-width="1.00"/>
<circle cx="254.80" cy="150.79" r="14.11" fill="#cccccc" stroke="#000000" stroke-width="1.00"/>
<circle cx="103.48" cy="239.70" r="14.11" fill="#cccccc" stroke="#000000" stroke-width="1.00"/>
<circle cx="244.62" cy="239.70" r="14.11" fill="#cccccc" stroke="#000000" stroke-width="1.00"/>
<circle cx="75.26" cy="337.48" r="14.11" fill="#cccccc" stroke="#000000" stroke-width="1.00"/>
<circle cx="188.17" cy="93.02" r="14.11" fill="#cccccc" stroke="#000000" stroke-width="1.00"/>
<circle cx="117.60" cy="361.92" r="14.11" fill="#cccccc" stroke="#000000" stroke-width="1.00"/>
<polygon points="8.47,376.04 391.53,376.04 220.69,8.47" fill="none" stroke="#000000" stroke-width="1.40"/>
</svg>