<svg xmlns="http://www.w3.org/2000/svg" width="400.0" height="382.7" viewBox="0 0 400.0 382.7">
<rect width="400.0" height="382.7" fill="white"/>
<circle cx="60.79" cy="360.20" r="14.03" fill="#cccccc" stroke="#000000" stroke-width="1.00"/>
<circle cx="130.94" cy="335.90" r="14.03" fill="#cccccc" stroke="#000000" stroke-width="1.00"/>
<circle cx="285.29" cy="360.20" r="14.03" fill="#cccccc" stroke="#000000" stroke-width="1.00"/>
<circle cx="116.91" cy="360.20" r="14.03" fill="#cccccc" stroke="#000000" stroke-width="1.00"/>
<circle cx="46.75" cy="335.90" r="14.03" fill="#cccccc" stroke="#000000" stroke-width="1.00"/>
<circle cx="144.98" cy="311.60" r="14.03" fill="#cccccc" stroke="#000000" stroke-width="1.00"/>
<circle cx="144.98" cy="262.99" r="14.03" fill="#cccccc" stroke="#000000" stroke-width="1.00"/>
<circle cx="159.01" cy="287.29" r="14.03" fill="#cccccc" stroke="#000000" stroke-width="1.00"/>
<circle cx="102.88" cy="287.29" r="14.03" fill="#cccccc" stroke="#000000" stroke-width="1.00"/>
<circle cx="116.91" cy="311.60" r="14.03" fill="#cccccc" stroke="#000000" stroke-width="1.00"/>
<circle cx="74.82" cy="335.90" r="14.03" fill="#cccccc" stroke="#000000" stroke-width="1.00"/>
<circle cx="201.10" cy="360.20" r="14.03" fill="#cccccc" stroke="#000000" stroke-width="1.00"/>
<circle cx="173.04" cy="360.20" r="14.03" fill="#cccccc" stroke="#000000" stroke-width="1.00"/>
<circle cx="229.16" cy="360.20" r="14.03" fill="#cccccc" stroke="#000000" stroke-width="1.00"/>
<circle cx="32.72" cy="360.20" r="14.03" fill="#cccccc" stroke="#000000" stroke-width="1.00"/>
<circle cx="102.88" cy="335.90" r="14.03" fill="#cccccc" stroke="#000000" stroke-width="1.00"/>
<circle cx="88.85" cy="311.60" r="14.03" fill="#cccccc" stroke="#000000" stroke-width="1.00"/>
<circle cx="116.91" cy="262.99" r="14.03" fill="#cccccc" stroke="#000000" stroke-width="1.00"/>
<circle cx="257.23" cy="360.20" r="14.03" fill="#cccccc" stroke="#000000" stroke-width="1.00"/>
<circle cx="144.98" cy="360.20" r="14.03" fill="#cccccc" stroke="#000000" stroke-width="1.00"/>
<circle cx="159.01" cy="335.90" r="14.03" fill="#cccccc" stroke="#000000" stroke-width="1.00"/>
<circle cx="88.85" cy="360.20" r="14.03" fill="#cccccc" stroke="#000000" stroke-width="1.00"/>
<circle cx="130.94" cy="287.29" r="14.03" fill="#cccccc" stroke="#000000" stroke-width="1.00"/>
<circle cx="298.66" cy="209.54" r="14.03" fill="#cccccc" stroke="#000000" stroke-width="1.00"/>
<circle cx="299.32" cy="335.90" r="14.03" fill="#cccccc" stroke="#000000" stroke-width="1.00"/>
<circle cx="243.20" cy="287.29" r="14.03" fill="#cccccc" stroke="#000000" stroke-width="1.00"/>
<circle cx="285.29" cy="311.60" r="14.03" fill="#cccccc" stroke="#000000" stroke-width="1.00"/>
<circle cx="322.48" cy="260.23" r="14.03" fill="#cccccc" stroke="#000000" stroke-width="1.00"/>
<circle cx="299.32" cy="287.29" r="14.03" fill="#cccccc" stroke="#000000" stroke-width="1.00"/>
<circle cx="270.69" cy="207.18" r="14.03" fill="#cccccc" stroke="#000000" stroke-width="1.00"/>
<circle cx="308.94" cy="235.64" r="14.03" fill="#cccccc" stroke="#000000" stroke-width="1.00"/>
<circle cx="341.42" cy="360.20" r="14.03" fill="#cccccc" stroke="#000000" stroke-width="1.00"/>
<circle cx="313.35" cy="360.20" r="14.03" fill="#cccccc" stroke="#000000" stroke-width="1.00"/>
<circle cx="256.78" cy="120.44" r="14.03" fill="#cccccc" stroke="#000000" stroke-width="1.00"/>
<circle cx="313.35" cy="311.60" r="14.03" fill="#cccccc" stroke="#000000" stroke-width="1.00"/>
<circle cx="274.78" cy="158.74" r="14.03" fill="#cccccc" stroke="#000000" stroke-width="1.00"/>
<circle cx="369.48" cy="360.20" r="14.03" fill="#cccccc" stroke="#000000" stroke-width="1.00"/>
<circle cx="355.45" cy="335.90" r="14.03" fill="#cccccc" stroke="#000000" stroke-width="1.00"/>
<circle cx="286.72" cy="184.14" r="14.03" fill="#cccccc" stroke="#000000" stroke-width="1.00"/>
<circle cx="294.43" cy="259.66" r="14.03" fill="#cccccc" stroke="#000000" stroke-width="1.00"/>
<circle cx="271.26" cy="335.90" r="14.03" fill="#cccccc" stroke="#000000" stroke-width="1.00"/>
<circle cx="280.57" cy="233.59" r="14.03" fill="#cccccc" stroke="#000000" stroke-width="1.00"/>
<circle cx="271.26" cy="287.29" r="14.03" fill="#cccccc" stroke="#000000" stroke-width="1.00"/>
<circle cx="257.23" cy="311.60" r="14.03" fill="#cccccc" stroke="#000000" stroke-width="1.00"/>
<circle cx="327.39" cy="335.90" r="14.03" fill="#cccccc" stroke="#000000" stroke-width="1.00"/>
<circle cx="345.69" cy="309.59" r="14.03" fill="#cccccc" stroke="#000000" stroke-width="1.00"/>
<circle cx="328.10" cy="287.72" r="14.03" fill="#cccccc" stroke="#000000" stroke-width="1.00"/>
<circle cx="203.10" cy="65.11" r="14.03" fill="#cccccc" stroke="#000000" stroke-width="1.00"/>
<circle cx="102.88" cy="238.69" r="14.03" fill="#cccccc" stroke="#000000" stroke-width="1.00"/>
<circle cx="88.85" cy="262.99" r="14.03" fill="#cccccc" stroke="#000000" stroke-width="1.00"/>
<circle cx="116.91" cy="214.38" r="14.03" fill="#cccccc" stroke="#000000" stroke-width="1.00"/>
<circle cx="201.10" cy="117.17" r="14.03" fill="#cccccc" stroke="#000000" stroke-width="1.00"/>
<circle cx="144.98" cy="165.78" r="14.03" fill="#cccccc" stroke="#000000" stroke-width="1.00"/>
<circle cx="173.04" cy="117.17" r="14.03" fill="#cccccc" stroke="#000000" stroke-width="1.00"/>
<circle cx="187.07" cy="92.87" r="14.03" fill="#cccccc" stroke="#000000" stroke-width="1.00"/>
<circle cx="249.10" cy="147.43" r="14.03" fill="#cccccc" stroke="#000000" stroke-width="1.00"/>
<circle cx="219.33" cy="193.45" r="14.03" fill="#cccccc" stroke="#000000" stroke-width="1.00"/>
<circle cx="218.58" cy="40.02" r="14.03" fill="#cccccc" stroke="#000000" stroke-width="1.00"/>
<circle cx="173.04" cy="165.78" r="14.03" fill="#cccccc" stroke="#000000" stroke-width="1.00"/>
<circle cx="231.15" cy="65.92" r="14.03" fill="#cccccc" stroke="#000000" stroke-width="1.00"/>
<circle cx="229.13" cy="167.15" r="14.03" fill="#cccccc" stroke="#000000" stroke-width="1.00"/>
<circle cx="216.04" cy="141.54" r="14.03" fill="#cccccc" stroke="#000000" stroke-width="1.00"/>
<circle cx="243.09" cy="91.31" r="14.03" fill="#cccccc" stroke="#000000" stroke-width="1.00"/>
<circle cx="159.01" cy="141.47" r="14.03" fill="#cccccc" stroke="#000000" stroke-width="1.00"/>
<circle cx="74.82" cy="287.29" r="14.03" fill="#cccccc" stroke="#000000" stroke-width="1.00"/>
<circle cx="215.03" cy="90.51" r="14.03" fill="#cccccc" stroke="#000000" stroke-width="1.00"/>
<circle cx="130.94" cy="190.08" r="14.03" fill="#cccccc" stroke="#000000" stroke-width="1.00"/>
<circle cx="60.79" cy="311.60" r="14.03" fill="#cccccc" stroke="#000000" stroke-width="1.00"/>
<circle cx="201.10" cy="165.78" r="14.03" fill="#cccccc" stroke="#000000" stroke-width="1.00"/>
<circle cx="187.07" cy="141.47" r="14.03" fill="#cccccc" stroke="#000000" stroke-width="1.00"/>
<circle cx="229.12" cy="115.66" r="14.03" fill="#cccccc" stroke="#000000" stroke-width="1.00"/>
<circle cx="201.10" cy="311.60" r="14.03" fill="#cccccc" stroke="#000000" stroke-width="1.00"/>
<circle cx="224.19" cy="231.13" r="14.03" fill="#cccccc" stroke="#000000" stroke-width="1.00"/>
<circle cx="252.33" cy="235.36" r="14.03" fill="#cccccc" stroke="#000000" stroke-width="1.00"/>
<circle cx="238.30" cy="259.66" r="14.03" fill="#cccccc" stroke="#000000" stroke-width="1.00"/>
<circle cx="173.04" cy="262.99" r="14.03" fill="#cccccc" stroke="#000000" stroke-width="1.00"/>
<circle cx="210.24" cy="259.66" r="14.03" fill="#cccccc" stroke="#000000" stroke-width="1.00"/>
<circle cx="229.16" cy="311.60" r="14.03" fill="#cccccc" stroke="#000000" stroke-width="1.00"/>
<circle cx="187.07" cy="287.29" r="14.03" fill="#cccccc" stroke="#000000" stroke-width="1.00"/>
<circle cx="130.94" cy="238.69" r="14.03" fill="#cccccc" stroke="#000000" stroke-width="1.00"/>
<circle cx="159.01" cy="190.08" r="14.03" fill="#cccccc" stroke="#000000" stroke-width="1.00"/>
<circle cx="215.13" cy="335.90" r="14.03" fill="#cccccc" stroke="#000000" stroke-width="1.00"/>
<circle cx="201.10" cy="214.79" r="14.03" fill="#cccccc" stroke="#000000" stroke-width="1.00"/>
<circle cx="243.20" cy="335.90" r="14.03" fill="#cccccc" stroke="#000000" stroke-width="1.00"/>
<circle cx="144.98" cy="214.38" r="14.03" fill="#cccccc" stroke="#000000" stroke-width="1.00"/>
<circle cx="173.04" cy="214.38" r="14.03" fill="#cccccc" stroke="#000000" stroke-width="1.00"/>
<circle cx="187.07" cy="335.90" r="14.03" fill="#cccccc" stroke="#000000" stroke-width="1.00"/>
<circle cx="215.13" cy="287.29" r="14.03" fill="#cccccc" stroke="#000000" stroke-width="1.00"/>
<circle cx="254.96" cy="179.91" r="14.03" fill="#cccccc" stroke="#000000" stroke-width="1.00"/>
<circle cx="173.04" cy="311.60" r="14.03" fill="#cccccc" stroke="#000000" stroke-width="1.00"/>
<circle cx="266.36" cy="259.66" r="14.03" fill="#cccccc" stroke="#000000" stroke-width="1.00"/>
<circle cx="242.69" cy="209.00" r="14.03" fill="#cccccc" stroke="#000000" stroke-width="1.00"/>
<circle cx="187.42" cy="190.28" r="14.03" fill="#cccccc" stroke="#000000" stroke-width="1.00"/>
<circle cx="189.77" cy="240.46" r="14.03" fill="#cccccc" stroke="#000000" stroke-width="1.00"/>
<circle cx="159.01" cy="238.69" r="14.03" fill="#cccccc" stroke="#000000" stroke-width="1.00"/>
<polygon points="8.42,374.24 391.58,374.24 219.62,8.42" fill="none" stroke="#000000" stroke-width="1.40"/>
</svg>