<svg xmlns="http://www.w3.org/2000/svg" width="400.0" height="311.2" viewBox="0 0 400.0 311.2">
<rect width="400.0" height="311.2" fill="white"/>
<circle cx="167.43" cy="51.87" r="12.56" fill="#cccccc" stroke="#000000" stroke-width="1.00"/>
<circle cx="192.24" cy="47.97" r="12.56" fill="#cccccc" stroke="#000000" stroke-width="1.00"/>
<circle cx="154.87" cy="73.62" r="12.56" fill="#cccccc" stroke="#000000" stroke-width="1.00"/>
<circle cx="180.24" cy="73.48" r="12.56" fill="#cccccc" stroke="#000000" stroke-width="1.00"/>
<circle cx="206.95" cy="68.33" r="12.56" fill="#cccccc" stroke="#000000" stroke-width="1.00"/>
<circle cx="142.31" cy="95.38" r="12.56" fill="#cccccc" stroke="#000000" stroke-width="1.00"/>
<circle cx="167.43" cy="95.38" r="12.56" fill="#cccccc" stroke="#000000" stroke-width="1.00"/>
<circle cx="192.55" cy="95.38" r="12.56" fill="#cccccc" stroke="#000000" stroke-width="1.00"/>
<circle cx="217.31" cy="91.20" r="12.56" fill="#cccccc" stroke="#000000" stroke-width="1.00"/>
<circle cx="129.75" cy="117.13" r="12.56" fill="#cccccc" stroke="#000000" stroke-width="1.00"/>
<circle cx="154.87" cy="117.13" r="12.56" fill="#cccccc" stroke="#000000" stroke-width="1.00"/>
<circle cx="179.99" cy="117.13" r="12.56" fill="#cccccc" stroke="#000000" stroke-width="1.00"/>
<circle cx="205.76" cy="116.76" r="12.56" fill="#cccccc" stroke="#000000" stroke-width="1.00"/>
<circle cx="235.78" cy="108.23" r="12.56" fill="#cccccc" stroke="#000000" stroke-width="1.00"/>
<circle cx="117.20" cy="138.88" r="12.56" fill="#cccccc" stroke="#000000" stroke-width="1.00"/>
<circle cx="142.31" cy="138.88" r="12.56" fill="#cccccc" stroke="#000000" stroke-width="1.00"/>
<circle cx="167.43" cy="138.88" r="12.56" fill="#cccccc" stroke="#000000" stroke-width="1.00"/>
<circle cx="192.55" cy="138.88" r="12.56" fill="#cccccc" stroke="#000000" stroke-width="1.00"/>
<circle cx="217.66" cy="138.88" r="12.56" fill="#cccccc" stroke="#000000" stroke-width="1.00"/>
<circle cx="241.98" cy="132.57" r="12.56" fill="#cccccc" stroke="#000000" stroke-width="1.00"/>
<circle cx="29.29" cy="291.14" r="12.56" fill="#cccccc" stroke="#000000" stroke-width="1.00"/>
<circle cx="41.85" cy="269.39" r="12.56" fill="#cccccc" stroke="#000000" stroke-width="1.00"/>
<circle cx="54.40" cy="291.14" r="12.56" fill="#cccccc" stroke="#000000" stroke-width="1.00"/>
<circle cx="54.40" cy="247.64" r="12.56" fill="#cccccc" stroke="#000000" stroke-width="1.00"/>
<circle cx="66.96" cy="269.39" r="12.56" fill="#cccccc" stroke="#000000" stroke-width="1.00"/>
<circle cx="79.52" cy="291.14" r="12.56" fill="#cccccc" stroke="#000000" stroke-width="1.00"/>
<circle cx="66.96" cy="225.89" r="12.56" fill="#cccccc" stroke="#000000" stroke-width="1.00"/>
<circle cx="79.52" cy="247.64" r="12.56" fill="#cccccc" stroke="#000000" stroke-width="1.00"/>
<circle cx="92.08" cy="269.39" r="12.56" fill="#cccccc" stroke="#000000" stroke-width="1.00"/>
<circle cx="104.64" cy="291.14" r="12.56" fill="#cccccc" stroke="#000000" stroke-width="1.00"/>
<circle cx="79.52" cy="204.14" r="12.56" fill="#cccccc" stroke="#000000" stroke-width="1.00"/>
<circle cx="92.08" cy="225.89" r="12.56" fill="#cccccc" stroke="#000000" stroke-width="1.00"/>
<circle cx="104.64" cy="247.64" r="12.56" fill="#cccccc" stroke="#000000" stroke-width="1.00"/>
<circle cx="117.20" cy="269.39" r="12.56" fill="#cccccc" stroke="#000000" stroke-width="1.00"/>
<circle cx="129.75" cy="291.14" r="12.56" fill="#cccccc" stroke="#000000" stroke-width="1.00"/>
<circle cx="92.08" cy="182.38" r="12.56" fill="#cccccc" stroke="#000000" stroke-width="1.00"/>
<circle cx="104.64" cy="204.14" r="12.56" fill="#cccccc" stroke="#000000" stroke-width="1.00"/>
<circle cx="117.20" cy="225.89" r="12.56" fill="#cccccc" stroke="#000000" stroke-width="1.00"/>
<circle cx="129.75" cy="247.64" r="12.56" fill="#cccccc" stroke="#000000" stroke-width="1.00"/>
<circle cx="142.31" cy="269.39" r="12.56" fill="#cccccc" stroke="#000000" stroke-width="1.00"/>
<circle cx="154.87" cy="291.14" r="12.56" fill="#cccccc" stroke="#000000" stroke-width="1.00"/>
<circle cx="104.64" cy="160.63" r="12.56" fill="#cccccc" stroke="#000000" stroke-width="1.00"/>
<circle cx="117.20" cy="182.38" r="12.56" fill="#cccccc" stroke="#000000" stroke-width="1.00"/>
<circle cx="129.75" cy="204.14" r="12.56" fill="#cccccc" stroke="#000000" stroke-width="1.00"/>
<circle cx="142.31" cy="225.89" r="12.56" fill="#cccccc" stroke="#000000" stroke-width="1.00"/>
<circle cx="154.87" cy="247.64" r="12.56" fill="#cccccc" stroke="#000000" stroke-width="1.00"/>
<circle cx="167.43" cy="269.39" r="12.56" fill="#cccccc" stroke="#000000" stroke-width="1.00"/>
<circle cx="179.99" cy="291.14" r="12.56" fill="#cccccc" stroke="#000000" stroke-width="1.00"/>
<circle cx="366.96" cy="290.90" r="12.56" fill="#cccccc" stroke="#000000" stroke-width="1.00"/>
<circle cx="351.55" cy="268.50" r="12.56" fill="#cccccc" stroke="#000000" stroke-width="1.00"/>
<circle cx="340.67" cy="291.14" r="12.56" fill="#cccccc" stroke="#000000" stroke-width="1.00"/>
<circle cx="336.18" cy="247.23" r="12.56" fill="#cccccc" stroke="#000000" stroke-width="1.00"/>
<circle cx="326.50" cy="270.41" r="12.56" fill="#cccccc" stroke="#000000" stroke-width="1.00"/>
<circle cx="312.33" cy="291.14" r="12.56" fill="#cccccc" stroke="#000000" stroke-width="1.00"/>
<circle cx="321.47" cy="226.87" r="12.56" fill="#cccccc" stroke="#000000" stroke-width="1.00"/>
<circle cx="309.78" cy="250.47" r="12.56" fill="#cccccc" stroke="#000000" stroke-width="1.00"/>
<circle cx="296.39" cy="271.73" r="12.56" fill="#cccccc" stroke="#000000" stroke-width="1.00"/>
<circle cx="280.45" cy="291.14" r="12.56" fill="#cccccc" stroke="#000000" stroke-width="1.00"/>
<circle cx="305.56" cy="204.84" r="12.56" fill="#cccccc" stroke="#000000" stroke-width="1.00"/>
<circle cx="296.39" cy="228.23" r="12.56" fill="#cccccc" stroke="#000000" stroke-width="1.00"/>
<circle cx="283.83" cy="249.98" r="12.56" fill="#cccccc" stroke="#000000" stroke-width="1.00"/>
<circle cx="267.90" cy="269.39" r="12.56" fill="#cccccc" stroke="#000000" stroke-width="1.00"/>
<circle cx="255.34" cy="291.14" r="12.56" fill="#cccccc" stroke="#000000" stroke-width="1.00"/>
<circle cx="288.34" cy="181.00" r="12.56" fill="#cccccc" stroke="#000000" stroke-width="1.00"/>
<circle cx="280.44" cy="204.84" r="12.56" fill="#cccccc" stroke="#000000" stroke-width="1.00"/>
<circle cx="271.28" cy="228.23" r="12.56" fill="#cccccc" stroke="#000000" stroke-width="1.00"/>
<circle cx="255.34" cy="247.64" r="12.56" fill="#cccccc" stroke="#000000" stroke-width="1.00"/>
<circle cx="242.78" cy="269.39" r="12.56" fill="#cccccc" stroke="#000000" stroke-width="1.00"/>
<circle cx="230.22" cy="291.14" r="12.56" fill="#cccccc" stroke="#000000" stroke-width="1.00"/>
<circle cx="205.10" cy="291.14" r="12.56" fill="#cccccc" stroke="#000000" stroke-width="1.00"/>
<circle cx="192.55" cy="269.39" r="12.56" fill="#cccccc" stroke="#000000" stroke-width="1.00"/>
<circle cx="217.66" cy="269.39" r="12.56" fill="#cccccc" stroke="#000000" stroke-width="1.00"/>
<circle cx="179.99" cy="247.64" r="12.56" fill="#cccccc" stroke="#000000" stroke-width="1.00"/>
<circle cx="205.10" cy="247.64" r="12.56" fill="#cccccc" stroke="#000000" stroke-width="1.00"/>
<circle cx="230.22" cy="247.64" r="12.56" fill="#cccccc" stroke="#000000" stroke-width="1.00"/>
<circle cx="167.43" cy="225.89" r="12.56" fill="#cccccc" stroke="#000000" stroke-width="1.00"/>
<circle cx="192.55" cy="225.89" r="12.56" fill="#cccccc" stroke="#000000" stroke-width="1.00"/>
<circle cx="217.66" cy="225.89" r="12.56" fill="#cccccc" stroke="#000000" stroke-width="1.00"/>
<circle cx="242.78" cy="225.89" r="12.56" fill="#cccccc" stroke="#000000" stroke-width="1.00"/>
<circle cx="154.87" cy="204.14" r="12.56" fill="#cccccc" stroke="#000000" stroke-width="1.00"/>
<circle cx="179.99" cy="204.14" r="12.56" fill="#cccccc" stroke="#000000" stroke-width="1.00"/>
<circle cx="205.10" cy="204.14" r="12.56" fill="#cccccc" stroke="#000000" stroke-width="1.00"/>
<circle cx="230.22" cy="204.14" r="12.56" fill="#cccccc" stroke="#000000" stroke-width="1.00"/>
<circle cx="255.34" cy="204.14" r="12.56" fill="#cccccc" stroke="#000000" stroke-width="1.00"/>
<circle cx="142.31" cy="182.38" r="12.56" fill="#cccccc" stroke="#000000" stroke-width="1.00"/>
<circle cx="167.43" cy="182.38" r="12.56" fill="#cccccc" stroke="#000000" stroke-width="1.00"/>
<circle cx="192.55" cy="182.38" r="12.56" fill="#cccccc" stroke="#000000" stroke-width="1.00"/>
<circle cx="217.66" cy="182.38" r="12.56" fill="#cccccc" stroke="#000000" stroke-width="1.00"/>
<circle cx="242.78" cy="182.38" r="12.56" fill="#cccccc" stroke="#000000" stroke-width="1.00"/>
<circle cx="265.24" cy="171.14" r="12.56" fill="#cccccc" stroke="#000000" stroke-width="1.00"/>
<circle cx="129.75" cy="160.63" r="12.56" fill="#cccccc" stroke="#000000" stroke-width="1.00"/>
<circle cx="154.87" cy="160.63" r="12.56" fill="#cccccc" stroke="#000000" stroke-width="1.00"/>
<circle cx="179.99" cy="160.63" r="12.56" fill="#cccccc" stroke="#000000" stroke-width="1.00"/>
<circle cx="205.10" cy="160.63" r="12.56" fill="#cccccc" stroke="#000000" stroke-width="1.00"/>
<circle cx="234.41" cy="158.36" r="12.56" fill="#cccccc" stroke="#000000" stroke-width="1.00"/>
<circle cx="263.13" cy="146.11" r="12.56" fill="#cccccc" stroke="#000000" stroke-width="1.00"/>
<polygon points="7.54,303.70 392.46,303.70 178.53,7.54" fill="none" stroke="#000000" stroke-width="1.40"/>
</svg>