<svg xmlns="http://www.w3.org/2000/svg" width="400.0" height="311.6" viewBox="0 0 400.0 311.6">
<rect width="400.0" height="311.6" fill="white"/>
<circle cx="179.91" cy="30.62" r="12.55" fill="#cccccc" stroke="#000000" stroke-width="1.00"/>
<circle cx="167.36" cy="52.36" r="12.55" fill="#cccccc" stroke="#000000" stroke-width="1.00"/>
<circle cx="192.47" cy="52.36" r="12.55" fill="#cccccc" stroke="#000000" stroke-width="1.00"/>
<circle cx="154.81" cy="74.11" r="12.55" fill="#cccccc" stroke="#000000" stroke-width="1.00"/>
<circle cx="179.91" cy="74.11" r="12.55" fill="#cccccc" stroke="#000000" stroke-width="1.00"/>
<circle cx="209.12" cy="71.15" r="12.55" fill="#cccccc" stroke="#000000" stroke-width="1.00"/>
<circle cx="142.25" cy="95.85" r="12.55" fill="#cccccc" stroke="#000000" stroke-width="1.00"/>
<circle cx="167.36" cy="95.85" r="12.55" fill="#cccccc" stroke="#000000" stroke-width="1.00"/>
<circle cx="192.47" cy="95.85" r="12.55" fill="#cccccc" stroke="#000000" stroke-width="1.00"/>
<circle cx="217.55" cy="94.80" r="12.55" fill="#cccccc" stroke="#000000" stroke-width="1.00"/>
<circle cx="129.70" cy="117.59" r="12.55" fill="#cccccc" stroke="#000000" stroke-width="1.00"/>
<circle cx="154.81" cy="117.59" r="12.55" fill="#cccccc" stroke="#000000" stroke-width="1.00"/>
<circle cx="179.91" cy="117.59" r="12.55" fill="#cccccc" stroke="#000000" stroke-width="1.00"/>
<circle cx="205.96" cy="117.07" r="12.55" fill="#cccccc" stroke="#000000" stroke-width="1.00"/>
<circle cx="237.32" cy="110.27" r="12.55" fill="#cccccc" stroke="#000000" stroke-width="1.00"/>
<circle cx="117.15" cy="139.33" r="12.55" fill="#cccccc" stroke="#000000" stroke-width="1.00"/>
<circle cx="142.25" cy="139.33" r="12.55" fill="#cccccc" stroke="#000000" stroke-width="1.00"/>
<circle cx="167.36" cy="139.33" r="12.55" fill="#cccccc" stroke="#000000" stroke-width="1.00"/>
<circle cx="192.47" cy="139.33" r="12.55" fill="#cccccc" stroke="#000000" stroke-width="1.00"/>
<circle cx="217.57" cy="139.33" r="12.55" fill="#cccccc" stroke="#000000" stroke-width="1.00"/>
<circle cx="242.28" cy="134.89" r="12.55" fill="#cccccc" stroke="#000000" stroke-width="1.00"/>
<circle cx="29.27" cy="291.53" r="12.55" fill="#cccccc" stroke="#000000" stroke-width="1.00"/>
<circle cx="41.83" cy="269.79" r="12.55" fill="#cccccc" stroke="#000000" stroke-width="1.00"/>
<circle cx="54.38" cy="291.53" r="12.55" fill="#cccccc" stroke="#000000" stroke-width="1.00"/>
<circle cx="54.38" cy="248.05" r="12.55" fill="#cccccc" stroke="#000000" stroke-width="1.00"/>
<circle cx="66.93" cy="269.79" r="12.55" fill="#cccccc" stroke="#000000" stroke-width="1.00"/>
<circle cx="79.49" cy="291.53" r="12.55" fill="#cccccc" stroke="#000000" stroke-width="1.00"/>
<circle cx="66.93" cy="226.30" r="12.55" fill="#cccccc" stroke="#000000" stroke-width="1.00"/>
<circle cx="79.49" cy="248.05" r="12.55" fill="#cccccc" stroke="#000000" stroke-width="1.00"/>
<circle cx="92.04" cy="269.79" r="12.55" fill="#cccccc" stroke="#000000" stroke-width="1.00"/>
<circle cx="104.59" cy="291.53" r="12.55" fill="#cccccc" stroke="#000000" stroke-width="1.00"/>
<circle cx="79.49" cy="204.56" r="12.55" fill="#cccccc" stroke="#000000" stroke-width="1.00"/>
<circle cx="92.04" cy="226.30" r="12.55" fill="#cccccc" stroke="#000000" stroke-width="1.00"/>
<circle cx="104.59" cy="248.05" r="12.55" fill="#cccccc" stroke="#000000" stroke-width="1.00"/>
<circle cx="117.15" cy="269.79" r="12.55" fill="#cccccc" stroke="#000000" stroke-width="1.00"/>
<circle cx="129.70" cy="291.53" r="12.55" fill="#cccccc" stroke="#000000" stroke-width="1.00"/>
<circle cx="92.04" cy="182.82" r="12.55" fill="#cccccc" stroke="#000000" stroke-width="1.00"/>
<circle cx="104.59" cy="204.56" r="12.55" fill="#cccccc" stroke="#000000" stroke-width="1.00"/>
<circle cx="117.15" cy="226.30" r="12.55" fill="#cccccc" stroke="#000000" stroke-width="1.00"/>
<circle cx="129.70" cy="248.05" r="12.55" fill="#cccccc" stroke="#000000" stroke-width="1.00"/>
<circle cx="142.25" cy="269.79" r="12.55" fill="#cccccc" stroke="#000000" stroke-width="1.00"/>
<circle cx="154.81" cy="291.53" r="12.55" fill="#cccccc" stroke="#000000" stroke-width="1.00"/>
<circle cx="104.59" cy="161.08" r="12.55" fill="#cccccc" stroke="#000000" stroke-width="1.00"/>
<circle cx="117.15" cy="182.82" r="12.55" fill="#cccccc" stroke="#000000" stroke-width="1.00"/>
<circle cx="129.70" cy="204.56" r="12.55" fill="#cccccc" stroke="#000000" stroke-width="1.00"/>
<circle cx="142.25" cy="226.30" r="12.55" fill="#cccccc" stroke="#000000" stroke-width="1.00"/>
<circle cx="154.81" cy="248.05" r="12.55" fill="#cccccc" stroke="#000000" stroke-width="1.00"/>
<circle cx="167.36" cy="269.79" r="12.55" fill="#cccccc" stroke="#000000" stroke-width="1.00"/>
<circle cx="179.91" cy="291.53" r="12.55" fill="#cccccc" stroke="#000000" stroke-width="1.00"/>
<circle cx="366.60" cy="291.53" r="12.55" fill="#cccccc" stroke="#000000" stroke-width="1.00"/>
<circle cx="351.69" cy="268.98" r="12.55" fill="#cccccc" stroke="#000000" stroke-width="1.00"/>
<circle cx="340.67" cy="291.53" r="12.55" fill="#cccccc" stroke="#000000" stroke-width="1.00"/>
<circle cx="336.21" cy="247.49" r="12.55" fill="#cccccc" stroke="#000000" stroke-width="1.00"/>
<circle cx="326.65" cy="270.71" r="12.55" fill="#cccccc" stroke="#000000" stroke-width="1.00"/>
<circle cx="312.62" cy="291.53" r="12.55" fill="#cccccc" stroke="#000000" stroke-width="1.00"/>
<circle cx="321.53" cy="227.12" r="12.55" fill="#cccccc" stroke="#000000" stroke-width="1.00"/>
<circle cx="309.36" cy="250.51" r="12.55" fill="#cccccc" stroke="#000000" stroke-width="1.00"/>
<circle cx="296.48" cy="272.30" r="12.55" fill="#cccccc" stroke="#000000" stroke-width="1.00"/>
<circle cx="280.34" cy="291.53" r="12.55" fill="#cccccc" stroke="#000000" stroke-width="1.00"/>
<circle cx="306.01" cy="205.59" r="12.55" fill="#cccccc" stroke="#000000" stroke-width="1.00"/>
<circle cx="296.48" cy="228.82" r="12.55" fill="#cccccc" stroke="#000000" stroke-width="1.00"/>
<circle cx="283.93" cy="250.56" r="12.55" fill="#cccccc" stroke="#000000" stroke-width="1.00"/>
<circle cx="267.79" cy="269.79" r="12.55" fill="#cccccc" stroke="#000000" stroke-width="1.00"/>
<circle cx="255.23" cy="291.53" r="12.55" fill="#cccccc" stroke="#000000" stroke-width="1.00"/>
<circle cx="288.85" cy="181.77" r="12.55" fill="#cccccc" stroke="#000000" stroke-width="1.00"/>
<circle cx="280.91" cy="205.59" r="12.55" fill="#cccccc" stroke="#000000" stroke-width="1.00"/>
<circle cx="271.37" cy="228.82" r="12.55" fill="#cccccc" stroke="#000000" stroke-width="1.00"/>
<circle cx="255.23" cy="248.05" r="12.55" fill="#cccccc" stroke="#000000" stroke-width="1.00"/>
<circle cx="242.68" cy="269.79" r="12.55" fill="#cccccc" stroke="#000000" stroke-width="1.00"/>
<circle cx="230.13" cy="291.53" r="12.55" fill="#cccccc" stroke="#000000" stroke-width="1.00"/>
<circle cx="205.02" cy="291.53" r="12.55" fill="#cccccc" stroke="#000000" stroke-width="1.00"/>
<circle cx="192.47" cy="269.79" r="12.55" fill="#cccccc" stroke="#000000" stroke-width="1.00"/>
<circle cx="217.57" cy="269.79" r="12.55" fill="#cccccc" stroke="#000000" stroke-width="1.00"/>
<circle cx="179.91" cy="248.05" r="12.55" fill="#cccccc" stroke="#000000" stroke-width="1.00"/>
<circle cx="205.02" cy="248.05" r="12.55" fill="#cccccc" stroke="#000000" stroke-width="1.00"/>
<circle cx="230.13" cy="248.05" r="12.55" fill="#cccccc" stroke="#000000" stroke-width="1.00"/>
<circle cx="167.36" cy="226.30" r="12.55" fill="#cccccc" stroke="#000000" stroke-width="1.00"/>
<circle cx="192.47" cy="226.30" r="12.55" fill="#cccccc" stroke="#000000" stroke-width="1.00"/>
<circle cx="217.57" cy="226.30" r="12.55" fill="#cccccc" stroke="#000000" stroke-width="1.00"/>
<circle cx="243.30" cy="225.95" r="12.55" fill="#cccccc" stroke="#000000" stroke-width="1.00"/>
<circle cx="154.81" cy="204.56" r="12.55" fill="#cccccc" stroke="#000000" stroke-width="1.00"/>
<circle cx="179.91" cy="204.56" r="12.55" fill="#cccccc" stroke="#000000" stroke-width="1.00"/>
<circle cx="205.02" cy="204.56" r="12.55" fill="#cccccc" stroke="#000000" stroke-width="1.00"/>
<circle cx="230.15" cy="204.57" r="12.55" fill="#cccccc" stroke="#000000" stroke-width="1.00"/>
<circle cx="255.84" cy="204.20" r="12.55" fill="#cccccc" stroke="#000000" stroke-width="1.00"/>
<circle cx="142.25" cy="182.82" r="12.55" fill="#cccccc" stroke="#000000" stroke-width="1.00"/>
<circle cx="167.36" cy="182.82" r="12.55" fill="#cccccc" stroke="#000000" stroke-width="1.00"/>
<circle cx="192.47" cy="182.82" r="12.55" fill="#cccccc" stroke="#000000" stroke-width="1.00"/>
<circle cx="217.57" cy="182.82" r="12.55" fill="#cccccc" stroke="#000000" stroke-width="1.00"/>
<circle cx="242.68" cy="182.82" r="12.55" fill="#cccccc" stroke="#000000" stroke-width="1.00"/>
<circle cx="265.54" cy="172.44" r="12.55" fill="#cccccc" stroke="#000000" stroke-width="1.00"/>
<circle cx="129.70" cy="161.08" r="12.55" fill="#cccccc" stroke="#000000" stroke-width="1.00"/>
<circle cx="154.81" cy="161.08" r="12.55" fill="#cccccc" stroke="#000000" stroke-width="1.00"/>
<circle cx="179.91" cy="161.08" r="12.55" fill="#cccccc" stroke="#000000" stroke-width="1.00"/>
<circle cx="205.02" cy="161.08" r="12.55" fill="#cccccc" stroke="#000000" stroke-width="1.00"/>
<circle cx="234.57" cy="158.96" r="12.55" fill="#cccccc" stroke="#000000" stroke-width="1.00"/>
<circle cx="264.06" cy="147.38" r="12.55" fill="#cccccc" stroke="#000000" stroke-width="1.00"/>
<polygon points="7.53,304.09 392.47,304.09 178.75,7.53" fill="none" stroke="#000000" stroke-width="1.40"/>
</svg>