<svg xmlns="http://www.w3.org/2000/svg" width="400.0" height="348.4" viewBox="0 0 400.0 348.4">
<rect width="400.0" height="348.4" fill="white"/>
<circle cx="341.69" cy="282.24" r="13.16" fill="#cccccc" stroke="#000000" stroke-width="1.00"/>
<circle cx="30.22" cy="327.32" r="13.16" fill="#cccccc" stroke="#000000" stroke-width="1.00"/>
<circle cx="322.49" cy="308.06" r="13.16" fill="#cccccc" stroke="#000000" stroke-width="1.00"/>
<circle cx="116.78" cy="217.95" r="13.16" fill="#cccccc" stroke="#000000" stroke-width="1.00"/>
<circle cx="42.96" cy="304.30" r="13.16" fill="#cccccc" stroke="#000000" stroke-width="1.00"/>
<circle cx="144.07" cy="289.61" r="13.16" fill="#cccccc" stroke="#000000" stroke-width="1.00"/>
<circle cx="304.56" cy="327.32" r="13.16" fill="#cccccc" stroke="#000000" stroke-width="1.00"/>
<circle cx="179.66" cy="57.24" r="13.16" fill="#cccccc" stroke="#000000" stroke-width="1.00"/>
<circle cx="301.81" cy="260.18" r="13.16" fill="#cccccc" stroke="#000000" stroke-width="1.00"/>
<circle cx="234.78" cy="193.01" r="13.16" fill="#cccccc" stroke="#000000" stroke-width="1.00"/>
<circle cx="192.40" cy="34.21" r="13.16" fill="#cccccc" stroke="#000000" stroke-width="1.00"/>
<circle cx="262.75" cy="283.84" r="13.16" fill="#cccccc" stroke="#000000" stroke-width="1.00"/>
<circle cx="169.41" cy="216.99" r="13.16" fill="#cccccc" stroke="#000000" stroke-width="1.00"/>
<circle cx="219.55" cy="79.31" r="13.16" fill="#cccccc" stroke="#000000" stroke-width="1.00"/>
<circle cx="91.03" cy="244.74" r="13.16" fill="#cccccc" stroke="#000000" stroke-width="1.00"/>
<circle cx="68.44" cy="258.25" r="13.16" fill="#cccccc" stroke="#000000" stroke-width="1.00"/>
<circle cx="103.21" cy="195.40" r="13.16" fill="#cccccc" stroke="#000000" stroke-width="1.00"/>
<circle cx="205.97" cy="56.76" r="13.16" fill="#cccccc" stroke="#000000" stroke-width="1.00"/>
<circle cx="261.09" cy="192.53" r="13.16" fill="#cccccc" stroke="#000000" stroke-width="1.00"/>
<circle cx="195.72" cy="216.52" r="13.16" fill="#cccccc" stroke="#000000" stroke-width="1.00"/>
<circle cx="275.49" cy="260.65" r="13.16" fill="#cccccc" stroke="#000000" stroke-width="1.00"/>
<circle cx="315.38" cy="282.72" r="13.16" fill="#cccccc" stroke="#000000" stroke-width="1.00"/>
<circle cx="90.47" cy="218.43" r="13.16" fill="#cccccc" stroke="#000000" stroke-width="1.00"/>
<circle cx="222.04" cy="216.04" r="13.16" fill="#cccccc" stroke="#000000" stroke-width="1.00"/>
<circle cx="249.18" cy="261.13" r="13.16" fill="#cccccc" stroke="#000000" stroke-width="1.00"/>
<circle cx="273.83" cy="169.50" r="13.16" fill="#cccccc" stroke="#000000" stroke-width="1.00"/>
<circle cx="220.38" cy="124.88" r="13.16" fill="#cccccc" stroke="#000000" stroke-width="1.00"/>
<circle cx="117.34" cy="244.27" r="13.16" fill="#cccccc" stroke="#000000" stroke-width="1.00"/>
<circle cx="221.21" cy="170.46" r="13.16" fill="#cccccc" stroke="#000000" stroke-width="1.00"/>
<circle cx="131.10" cy="312.77" r="13.16" fill="#cccccc" stroke="#000000" stroke-width="1.00"/>
<circle cx="104.60" cy="267.29" r="13.16" fill="#cccccc" stroke="#000000" stroke-width="1.00"/>
<circle cx="179.34" cy="327.32" r="13.16" fill="#cccccc" stroke="#000000" stroke-width="1.00"/>
<circle cx="248.35" cy="215.56" r="13.16" fill="#cccccc" stroke="#000000" stroke-width="1.00"/>
<circle cx="246.69" cy="124.40" r="13.16" fill="#cccccc" stroke="#000000" stroke-width="1.00"/>
<circle cx="166.92" cy="80.26" r="13.16" fill="#cccccc" stroke="#000000" stroke-width="1.00"/>
<circle cx="82.85" cy="327.32" r="13.16" fill="#cccccc" stroke="#000000" stroke-width="1.00"/>
<circle cx="95.61" cy="304.31" r="13.16" fill="#cccccc" stroke="#000000" stroke-width="1.00"/>
<circle cx="288.24" cy="237.63" r="13.16" fill="#cccccc" stroke="#000000" stroke-width="1.00"/>
<circle cx="168.58" cy="171.42" r="13.16" fill="#cccccc" stroke="#000000" stroke-width="1.00"/>
<circle cx="206.80" cy="102.33" r="13.16" fill="#cccccc" stroke="#000000" stroke-width="1.00"/>
<circle cx="155.84" cy="194.45" r="13.16" fill="#cccccc" stroke="#000000" stroke-width="1.00"/>
<circle cx="128.69" cy="149.35" r="13.16" fill="#cccccc" stroke="#000000" stroke-width="1.00"/>
<circle cx="130.91" cy="266.81" r="13.16" fill="#cccccc" stroke="#000000" stroke-width="1.00"/>
<circle cx="129.52" cy="194.93" r="13.16" fill="#cccccc" stroke="#000000" stroke-width="1.00"/>
<circle cx="181.32" cy="148.39" r="13.16" fill="#cccccc" stroke="#000000" stroke-width="1.00"/>
<circle cx="232.96" cy="327.32" r="13.16" fill="#cccccc" stroke="#000000" stroke-width="1.00"/>
<circle cx="141.43" cy="126.32" r="13.16" fill="#cccccc" stroke="#000000" stroke-width="1.00"/>
<circle cx="354.63" cy="305.17" r="13.16" fill="#cccccc" stroke="#000000" stroke-width="1.00"/>
<circle cx="169.97" cy="243.31" r="13.16" fill="#cccccc" stroke="#000000" stroke-width="1.00"/>
<circle cx="206.14" cy="281.93" r="13.16" fill="#cccccc" stroke="#000000" stroke-width="1.00"/>
<circle cx="143.09" cy="217.47" r="13.16" fill="#cccccc" stroke="#000000" stroke-width="1.00"/>
<circle cx="260.26" cy="146.95" r="13.16" fill="#cccccc" stroke="#000000" stroke-width="1.00"/>
<circle cx="165.87" cy="304.35" r="13.16" fill="#cccccc" stroke="#000000" stroke-width="1.00"/>
<circle cx="208.46" cy="193.49" r="13.16" fill="#cccccc" stroke="#000000" stroke-width="1.00"/>
<circle cx="222.87" cy="261.61" r="13.16" fill="#cccccc" stroke="#000000" stroke-width="1.00"/>
<circle cx="192.99" cy="304.82" r="13.16" fill="#cccccc" stroke="#000000" stroke-width="1.00"/>
<circle cx="266.27" cy="327.32" r="13.16" fill="#cccccc" stroke="#000000" stroke-width="1.00"/>
<circle cx="328.12" cy="259.70" r="13.16" fill="#cccccc" stroke="#000000" stroke-width="1.00"/>
<circle cx="209.29" cy="239.06" r="13.16" fill="#cccccc" stroke="#000000" stroke-width="1.00"/>
<circle cx="182.15" cy="193.97" r="13.16" fill="#cccccc" stroke="#000000" stroke-width="1.00"/>
<circle cx="274.66" cy="215.08" r="13.16" fill="#cccccc" stroke="#000000" stroke-width="1.00"/>
<circle cx="143.65" cy="243.79" r="13.16" fill="#cccccc" stroke="#000000" stroke-width="1.00"/>
<circle cx="142.26" cy="171.90" r="13.16" fill="#cccccc" stroke="#000000" stroke-width="1.00"/>
<circle cx="219.71" cy="304.48" r="13.16" fill="#cccccc" stroke="#000000" stroke-width="1.00"/>
<circle cx="249.61" cy="306.94" r="13.16" fill="#cccccc" stroke="#000000" stroke-width="1.00"/>
<circle cx="117.76" cy="290.09" r="13.16" fill="#cccccc" stroke="#000000" stroke-width="1.00"/>
<circle cx="115.95" cy="172.38" r="13.16" fill="#cccccc" stroke="#000000" stroke-width="1.00"/>
<circle cx="261.92" cy="238.11" r="13.16" fill="#cccccc" stroke="#000000" stroke-width="1.00"/>
<circle cx="287.41" cy="192.05" r="13.16" fill="#cccccc" stroke="#000000" stroke-width="1.00"/>
<circle cx="167.75" cy="125.84" r="13.16" fill="#cccccc" stroke="#000000" stroke-width="1.00"/>
<circle cx="300.98" cy="214.60" r="13.16" fill="#cccccc" stroke="#000000" stroke-width="1.00"/>
<circle cx="153.03" cy="327.32" r="13.16" fill="#cccccc" stroke="#000000" stroke-width="1.00"/>
<circle cx="194.06" cy="125.36" r="13.16" fill="#cccccc" stroke="#000000" stroke-width="1.00"/>
<circle cx="368.83" cy="327.32" r="13.16" fill="#cccccc" stroke="#000000" stroke-width="1.00"/>
<circle cx="206.64" cy="327.32" r="13.16" fill="#cccccc" stroke="#000000" stroke-width="1.00"/>
<circle cx="180.49" cy="102.81" r="13.16" fill="#cccccc" stroke="#000000" stroke-width="1.00"/>
<circle cx="340.42" cy="327.32" r="13.16" fill="#cccccc" stroke="#000000" stroke-width="1.00"/>
<circle cx="236.44" cy="284.16" r="13.16" fill="#cccccc" stroke="#000000" stroke-width="1.00"/>
<circle cx="56.13" cy="281.51" r="13.16" fill="#cccccc" stroke="#000000" stroke-width="1.00"/>
<circle cx="289.07" cy="283.20" r="13.16" fill="#cccccc" stroke="#000000" stroke-width="1.00"/>
<circle cx="314.55" cy="237.15" r="13.16" fill="#cccccc" stroke="#000000" stroke-width="1.00"/>
<circle cx="109.17" cy="327.32" r="13.16" fill="#cccccc" stroke="#000000" stroke-width="1.00"/>
<circle cx="191.49" cy="258.45" r="13.16" fill="#cccccc" stroke="#000000" stroke-width="1.00"/>
<circle cx="154.18" cy="103.29" r="13.16" fill="#cccccc" stroke="#000000" stroke-width="1.00"/>
<circle cx="285.41" cy="309.27" r="13.16" fill="#cccccc" stroke="#000000" stroke-width="1.00"/>
<circle cx="193.23" cy="79.79" r="13.16" fill="#cccccc" stroke="#000000" stroke-width="1.00"/>
<circle cx="233.95" cy="147.43" r="13.16" fill="#cccccc" stroke="#000000" stroke-width="1.00"/>
<circle cx="247.52" cy="169.98" r="13.16" fill="#cccccc" stroke="#000000" stroke-width="1.00"/>
<circle cx="235.61" cy="238.58" r="13.16" fill="#cccccc" stroke="#000000" stroke-width="1.00"/>
<circle cx="155.01" cy="148.87" r="13.16" fill="#cccccc" stroke="#000000" stroke-width="1.00"/>
<circle cx="233.12" cy="101.86" r="13.16" fill="#cccccc" stroke="#000000" stroke-width="1.00"/>
<circle cx="194.89" cy="170.94" r="13.16" fill="#cccccc" stroke="#000000" stroke-width="1.00"/>
<circle cx="157.64" cy="267.06" r="13.16" fill="#cccccc" stroke="#000000" stroke-width="1.00"/>
<circle cx="82.45" cy="281.51" r="13.16" fill="#cccccc" stroke="#000000" stroke-width="1.00"/>
<circle cx="207.63" cy="147.91" r="13.16" fill="#cccccc" stroke="#000000" stroke-width="1.00"/>
<circle cx="179.82" cy="282.04" r="13.16" fill="#cccccc" stroke="#000000" stroke-width="1.00"/>
<circle cx="69.29" cy="304.31" r="13.16" fill="#cccccc" stroke="#000000" stroke-width="1.00"/>
<circle cx="56.53" cy="327.32" r="13.16" fill="#cccccc" stroke="#000000" stroke-width="1.00"/>
<polygon points="7.90,340.48 392.10,340.48 191.92,7.90" fill="none" stroke="#000000" stroke-width="1.40"/>
</svg>