<svg xmlns="http://www.w3.org/2000/svg" width="400.0" height="348.3" viewBox="0 0 400.0 348.3">
<rect width="400.0" height="348.3" fill="white"/>
<circle cx="273.01" cy="213.99" r="13.12" fill="#cccccc" stroke="#000000" stroke-width="1.00"/>
<circle cx="111.84" cy="327.26" r="13.12" fill="#cccccc" stroke="#000000" stroke-width="1.00"/>
<circle cx="274.11" cy="259.44" r="13.12" fill="#cccccc" stroke="#000000" stroke-width="1.00"/>
<circle cx="85.59" cy="327.26" r="13.12" fill="#cccccc" stroke="#000000" stroke-width="1.00"/>
<circle cx="192.89" cy="304.30" r="13.12" fill="#cccccc" stroke="#000000" stroke-width="1.00"/>
<circle cx="203.55" cy="56.52" r="13.12" fill="#cccccc" stroke="#000000" stroke-width="1.00"/>
<circle cx="141.81" cy="217.17" r="13.12" fill="#cccccc" stroke="#000000" stroke-width="1.00"/>
<circle cx="230.90" cy="101.33" r="13.12" fill="#cccccc" stroke="#000000" stroke-width="1.00"/>
<circle cx="145.83" cy="288.96" r="13.12" fill="#cccccc" stroke="#000000" stroke-width="1.00"/>
<circle cx="288.90" cy="327.26" r="13.12" fill="#cccccc" stroke="#000000" stroke-width="1.00"/>
<circle cx="165.85" cy="125.64" r="13.12" fill="#cccccc" stroke="#000000" stroke-width="1.00"/>
<circle cx="154.38" cy="194.13" r="13.12" fill="#cccccc" stroke="#000000" stroke-width="1.00"/>
<circle cx="76.77" cy="241.49" r="13.12" fill="#cccccc" stroke="#000000" stroke-width="1.00"/>
<circle cx="218.15" cy="258.43" r="13.12" fill="#cccccc" stroke="#000000" stroke-width="1.00"/>
<circle cx="158.94" cy="265.60" r="13.12" fill="#cccccc" stroke="#000000" stroke-width="1.00"/>
<circle cx="192.09" cy="125.01" r="13.12" fill="#cccccc" stroke="#000000" stroke-width="1.00"/>
<circle cx="286.68" cy="236.40" r="13.12" fill="#cccccc" stroke="#000000" stroke-width="1.00"/>
<circle cx="312.92" cy="235.76" r="13.12" fill="#cccccc" stroke="#000000" stroke-width="1.00"/>
<circle cx="204.66" cy="101.97" r="13.12" fill="#cccccc" stroke="#000000" stroke-width="1.00"/>
<circle cx="206.43" cy="327.26" r="13.12" fill="#cccccc" stroke="#000000" stroke-width="1.00"/>
<circle cx="340.26" cy="280.57" r="13.12" fill="#cccccc" stroke="#000000" stroke-width="1.00"/>
<circle cx="220.53" cy="215.26" r="13.12" fill="#cccccc" stroke="#000000" stroke-width="1.00"/>
<circle cx="177.32" cy="57.15" r="13.12" fill="#cccccc" stroke="#000000" stroke-width="1.00"/>
<circle cx="234.20" cy="237.67" r="13.12" fill="#cccccc" stroke="#000000" stroke-width="1.00"/>
<circle cx="71.92" cy="304.22" r="13.12" fill="#cccccc" stroke="#000000" stroke-width="1.00"/>
<circle cx="207.18" cy="282.28" r="13.12" fill="#cccccc" stroke="#000000" stroke-width="1.00"/>
<circle cx="247.09" cy="304.39" r="13.12" fill="#cccccc" stroke="#000000" stroke-width="1.00"/>
<circle cx="194.29" cy="215.90" r="13.12" fill="#cccccc" stroke="#000000" stroke-width="1.00"/>
<circle cx="159.14" cy="311.58" r="13.12" fill="#cccccc" stroke="#000000" stroke-width="1.00"/>
<circle cx="368.21" cy="327.26" r="13.12" fill="#cccccc" stroke="#000000" stroke-width="1.00"/>
<circle cx="234.22" cy="327.26" r="13.12" fill="#cccccc" stroke="#000000" stroke-width="1.00"/>
<circle cx="85.14" cy="281.55" r="13.12" fill="#cccccc" stroke="#000000" stroke-width="1.00"/>
<circle cx="205.76" cy="147.41" r="13.12" fill="#cccccc" stroke="#000000" stroke-width="1.00"/>
<circle cx="328.54" cy="304.05" r="13.12" fill="#cccccc" stroke="#000000" stroke-width="1.00"/>
<circle cx="64.87" cy="264.88" r="13.12" fill="#cccccc" stroke="#000000" stroke-width="1.00"/>
<circle cx="314.02" cy="281.21" r="13.12" fill="#cccccc" stroke="#000000" stroke-width="1.00"/>
<circle cx="287.78" cy="281.86" r="13.12" fill="#cccccc" stroke="#000000" stroke-width="1.00"/>
<circle cx="274.68" cy="305.20" r="13.12" fill="#cccccc" stroke="#000000" stroke-width="1.00"/>
<circle cx="180.62" cy="193.50" r="13.12" fill="#cccccc" stroke="#000000" stroke-width="1.00"/>
<circle cx="271.91" cy="168.55" r="13.12" fill="#cccccc" stroke="#000000" stroke-width="1.00"/>
<circle cx="152.18" cy="103.24" r="13.12" fill="#cccccc" stroke="#000000" stroke-width="1.00"/>
<circle cx="140.71" cy="171.73" r="13.12" fill="#cccccc" stroke="#000000" stroke-width="1.00"/>
<circle cx="259.34" cy="191.59" r="13.12" fill="#cccccc" stroke="#000000" stroke-width="1.00"/>
<circle cx="180.19" cy="327.26" r="13.12" fill="#cccccc" stroke="#000000" stroke-width="1.00"/>
<circle cx="232.00" cy="146.78" r="13.12" fill="#cccccc" stroke="#000000" stroke-width="1.00"/>
<circle cx="114.47" cy="172.36" r="13.12" fill="#cccccc" stroke="#000000" stroke-width="1.00"/>
<circle cx="247.87" cy="260.08" r="13.12" fill="#cccccc" stroke="#000000" stroke-width="1.00"/>
<circle cx="98.27" cy="304.28" r="13.12" fill="#cccccc" stroke="#000000" stroke-width="1.00"/>
<circle cx="220.32" cy="304.99" r="13.12" fill="#cccccc" stroke="#000000" stroke-width="1.00"/>
<circle cx="111.39" cy="281.55" r="13.12" fill="#cccccc" stroke="#000000" stroke-width="1.00"/>
<circle cx="233.42" cy="281.99" r="13.12" fill="#cccccc" stroke="#000000" stroke-width="1.00"/>
<circle cx="315.69" cy="327.26" r="13.12" fill="#cccccc" stroke="#000000" stroke-width="1.00"/>
<circle cx="206.86" cy="192.86" r="13.12" fill="#cccccc" stroke="#000000" stroke-width="1.00"/>
<circle cx="341.94" cy="327.26" r="13.12" fill="#cccccc" stroke="#000000" stroke-width="1.00"/>
<circle cx="168.05" cy="216.54" r="13.12" fill="#cccccc" stroke="#000000" stroke-width="1.00"/>
<circle cx="178.42" cy="102.60" r="13.12" fill="#cccccc" stroke="#000000" stroke-width="1.00"/>
<circle cx="153.28" cy="148.68" r="13.12" fill="#cccccc" stroke="#000000" stroke-width="1.00"/>
<circle cx="145.27" cy="243.19" r="13.12" fill="#cccccc" stroke="#000000" stroke-width="1.00"/>
<circle cx="326.59" cy="258.17" r="13.12" fill="#cccccc" stroke="#000000" stroke-width="1.00"/>
<circle cx="127.04" cy="149.32" r="13.12" fill="#cccccc" stroke="#000000" stroke-width="1.00"/>
<circle cx="260.46" cy="327.26" r="13.12" fill="#cccccc" stroke="#000000" stroke-width="1.00"/>
<circle cx="300.35" cy="258.80" r="13.12" fill="#cccccc" stroke="#000000" stroke-width="1.00"/>
<circle cx="245.67" cy="169.18" r="13.12" fill="#cccccc" stroke="#000000" stroke-width="1.00"/>
<circle cx="39.07" cy="310.59" r="13.12" fill="#cccccc" stroke="#000000" stroke-width="1.00"/>
<circle cx="51.64" cy="287.55" r="13.12" fill="#cccccc" stroke="#000000" stroke-width="1.00"/>
<circle cx="185.56" cy="265.66" r="13.12" fill="#cccccc" stroke="#000000" stroke-width="1.00"/>
<circle cx="166.95" cy="171.09" r="13.12" fill="#cccccc" stroke="#000000" stroke-width="1.00"/>
<circle cx="302.30" cy="304.69" r="13.12" fill="#cccccc" stroke="#000000" stroke-width="1.00"/>
<circle cx="164.75" cy="80.20" r="13.12" fill="#cccccc" stroke="#000000" stroke-width="1.00"/>
<circle cx="89.34" cy="218.45" r="13.12" fill="#cccccc" stroke="#000000" stroke-width="1.00"/>
<circle cx="190.99" cy="79.56" r="13.12" fill="#cccccc" stroke="#000000" stroke-width="1.00"/>
<circle cx="171.51" cy="242.55" r="13.12" fill="#cccccc" stroke="#000000" stroke-width="1.00"/>
<circle cx="285.58" cy="190.95" r="13.12" fill="#cccccc" stroke="#000000" stroke-width="1.00"/>
<circle cx="193.19" cy="170.45" r="13.12" fill="#cccccc" stroke="#000000" stroke-width="1.00"/>
<circle cx="101.91" cy="195.40" r="13.12" fill="#cccccc" stroke="#000000" stroke-width="1.00"/>
<circle cx="233.10" cy="192.22" r="13.12" fill="#cccccc" stroke="#000000" stroke-width="1.00"/>
<circle cx="218.33" cy="124.37" r="13.12" fill="#cccccc" stroke="#000000" stroke-width="1.00"/>
<circle cx="139.61" cy="126.28" r="13.12" fill="#cccccc" stroke="#000000" stroke-width="1.00"/>
<circle cx="128.14" cy="194.77" r="13.12" fill="#cccccc" stroke="#000000" stroke-width="1.00"/>
<circle cx="197.75" cy="241.92" r="13.12" fill="#cccccc" stroke="#000000" stroke-width="1.00"/>
<circle cx="189.88" cy="34.11" r="13.12" fill="#cccccc" stroke="#000000" stroke-width="1.00"/>
<circle cx="246.77" cy="214.63" r="13.12" fill="#cccccc" stroke="#000000" stroke-width="1.00"/>
<circle cx="354.78" cy="304.37" r="13.12" fill="#cccccc" stroke="#000000" stroke-width="1.00"/>
<circle cx="124.51" cy="304.28" r="13.12" fill="#cccccc" stroke="#000000" stroke-width="1.00"/>
<circle cx="217.23" cy="78.92" r="13.12" fill="#cccccc" stroke="#000000" stroke-width="1.00"/>
<circle cx="97.04" cy="258.16" r="13.12" fill="#cccccc" stroke="#000000" stroke-width="1.00"/>
<circle cx="115.58" cy="217.81" r="13.12" fill="#cccccc" stroke="#000000" stroke-width="1.00"/>
<circle cx="119.03" cy="243.83" r="13.12" fill="#cccccc" stroke="#000000" stroke-width="1.00"/>
<circle cx="138.09" cy="327.26" r="13.12" fill="#cccccc" stroke="#000000" stroke-width="1.00"/>
<circle cx="260.44" cy="237.03" r="13.12" fill="#cccccc" stroke="#000000" stroke-width="1.00"/>
<circle cx="244.57" cy="123.73" r="13.12" fill="#cccccc" stroke="#000000" stroke-width="1.00"/>
<circle cx="261.54" cy="282.48" r="13.12" fill="#cccccc" stroke="#000000" stroke-width="1.00"/>
<circle cx="132.70" cy="266.23" r="13.12" fill="#cccccc" stroke="#000000" stroke-width="1.00"/>
<circle cx="179.52" cy="148.05" r="13.12" fill="#cccccc" stroke="#000000" stroke-width="1.00"/>
<circle cx="172.07" cy="288.33" r="13.12" fill="#cccccc" stroke="#000000" stroke-width="1.00"/>
<circle cx="219.43" cy="169.82" r="13.12" fill="#cccccc" stroke="#000000" stroke-width="1.00"/>
<circle cx="59.35" cy="327.26" r="13.12" fill="#cccccc" stroke="#000000" stroke-width="1.00"/>
<circle cx="299.25" cy="213.36" r="13.12" fill="#cccccc" stroke="#000000" stroke-width="1.00"/>
<circle cx="258.24" cy="146.14" r="13.12" fill="#cccccc" stroke="#000000" stroke-width="1.00"/>
<polygon points="7.87,340.39 392.13,340.39 189.25,7.87" fill="none" stroke="#000000" stroke-width="1.40"/>
</svg>