<svg xmlns="http://www.w3.org/2000/svg" width="400.0" height="348.5" viewBox="0 0 400.0 348.5">
<rect width="400.0" height="348.5" fill="white"/>
<circle cx="213.08" cy="101.94" r="13.08" fill="#cccccc" stroke="#000000" stroke-width="1.00"/>
<circle cx="221.65" cy="327.59" r="13.08" fill="#cccccc" stroke="#000000" stroke-width="1.00"/>
<circle cx="252.30" cy="169.88" r="13.08" fill="#cccccc" stroke="#000000" stroke-width="1.00"/>
<circle cx="56.64" cy="282.30" r="13.08" fill="#cccccc" stroke="#000000" stroke-width="1.00"/>
<circle cx="330.53" cy="260.08" r="13.08" fill="#cccccc" stroke="#000000" stroke-width="1.00"/>
<circle cx="343.00" cy="327.53" r="13.08" fill="#cccccc" stroke="#000000" stroke-width="1.00"/>
<circle cx="121.55" cy="169.88" r="13.08" fill="#cccccc" stroke="#000000" stroke-width="1.00"/>
<circle cx="182.42" cy="259.65" r="13.08" fill="#cccccc" stroke="#000000" stroke-width="1.00"/>
<circle cx="69.72" cy="259.65" r="13.08" fill="#cccccc" stroke="#000000" stroke-width="1.00"/>
<circle cx="271.99" cy="304.94" r="13.08" fill="#cccccc" stroke="#000000" stroke-width="1.00"/>
<circle cx="200.00" cy="34.00" r="13.08" fill="#cccccc" stroke="#000000" stroke-width="1.00"/>
<circle cx="173.85" cy="169.88" r="13.08" fill="#cccccc" stroke="#000000" stroke-width="1.00"/>
<circle cx="369.51" cy="327.59" r="13.08" fill="#cccccc" stroke="#000000" stroke-width="1.00"/>
<circle cx="160.77" cy="101.94" r="13.08" fill="#cccccc" stroke="#000000" stroke-width="1.00"/>
<circle cx="156.27" cy="304.94" r="13.08" fill="#cccccc" stroke="#000000" stroke-width="1.00"/>
<circle cx="186.92" cy="192.53" r="13.08" fill="#cccccc" stroke="#000000" stroke-width="1.00"/>
<circle cx="200.00" cy="215.17" r="13.08" fill="#cccccc" stroke="#000000" stroke-width="1.00"/>
<circle cx="82.79" cy="282.30" r="13.08" fill="#cccccc" stroke="#000000" stroke-width="1.00"/>
<circle cx="258.92" cy="327.59" r="13.08" fill="#cccccc" stroke="#000000" stroke-width="1.00"/>
<circle cx="252.30" cy="124.59" r="13.08" fill="#cccccc" stroke="#000000" stroke-width="1.00"/>
<circle cx="160.77" cy="192.53" r="13.08" fill="#cccccc" stroke="#000000" stroke-width="1.00"/>
<circle cx="285.07" cy="327.59" r="13.08" fill="#cccccc" stroke="#000000" stroke-width="1.00"/>
<circle cx="200.00" cy="169.88" r="13.08" fill="#cccccc" stroke="#000000" stroke-width="1.00"/>
<circle cx="226.15" cy="169.88" r="13.08" fill="#cccccc" stroke="#000000" stroke-width="1.00"/>
<circle cx="226.15" cy="79.29" r="13.08" fill="#cccccc" stroke="#000000" stroke-width="1.00"/>
<circle cx="278.45" cy="215.17" r="13.08" fill="#cccccc" stroke="#000000" stroke-width="1.00"/>
<circle cx="126.07" cy="262.53" r="13.08" fill="#cccccc" stroke="#000000" stroke-width="1.00"/>
<circle cx="298.14" cy="304.94" r="13.08" fill="#cccccc" stroke="#000000" stroke-width="1.00"/>
<circle cx="240.28" cy="263.95" r="13.08" fill="#cccccc" stroke="#000000" stroke-width="1.00"/>
<circle cx="30.49" cy="327.59" r="13.08" fill="#cccccc" stroke="#000000" stroke-width="1.00"/>
<circle cx="147.70" cy="124.59" r="13.08" fill="#cccccc" stroke="#000000" stroke-width="1.00"/>
<circle cx="95.40" cy="215.17" r="13.08" fill="#cccccc" stroke="#000000" stroke-width="1.00"/>
<circle cx="239.23" cy="192.53" r="13.08" fill="#cccccc" stroke="#000000" stroke-width="1.00"/>
<circle cx="121.55" cy="215.17" r="13.08" fill="#cccccc" stroke="#000000" stroke-width="1.00"/>
<circle cx="139.15" cy="285.18" r="13.08" fill="#cccccc" stroke="#000000" stroke-width="1.00"/>
<circle cx="253.36" cy="241.30" r="13.08" fill="#cccccc" stroke="#000000" stroke-width="1.00"/>
<circle cx="227.21" cy="286.60" r="13.08" fill="#cccccc" stroke="#000000" stroke-width="1.00"/>
<circle cx="82.79" cy="327.59" r="13.08" fill="#cccccc" stroke="#000000" stroke-width="1.00"/>
<circle cx="200.00" cy="79.29" r="13.08" fill="#cccccc" stroke="#000000" stroke-width="1.00"/>
<circle cx="95.87" cy="304.94" r="13.08" fill="#cccccc" stroke="#000000" stroke-width="1.00"/>
<circle cx="169.35" cy="282.30" r="13.08" fill="#cccccc" stroke="#000000" stroke-width="1.00"/>
<circle cx="239.23" cy="101.94" r="13.08" fill="#cccccc" stroke="#000000" stroke-width="1.00"/>
<circle cx="201.06" cy="241.30" r="13.08" fill="#cccccc" stroke="#000000" stroke-width="1.00"/>
<circle cx="304.60" cy="215.17" r="13.08" fill="#cccccc" stroke="#000000" stroke-width="1.00"/>
<circle cx="239.23" cy="147.23" r="13.08" fill="#cccccc" stroke="#000000" stroke-width="1.00"/>
<circle cx="252.30" cy="215.17" r="13.08" fill="#cccccc" stroke="#000000" stroke-width="1.00"/>
<circle cx="200.00" cy="124.59" r="13.08" fill="#cccccc" stroke="#000000" stroke-width="1.00"/>
<circle cx="134.62" cy="192.53" r="13.08" fill="#cccccc" stroke="#000000" stroke-width="1.00"/>
<circle cx="165.30" cy="239.89" r="13.08" fill="#cccccc" stroke="#000000" stroke-width="1.00"/>
<circle cx="214.13" cy="263.95" r="13.08" fill="#cccccc" stroke="#000000" stroke-width="1.00"/>
<circle cx="279.51" cy="241.30" r="13.08" fill="#cccccc" stroke="#000000" stroke-width="1.00"/>
<circle cx="86.84" cy="239.89" r="13.08" fill="#cccccc" stroke="#000000" stroke-width="1.00"/>
<circle cx="139.15" cy="239.89" r="13.08" fill="#cccccc" stroke="#000000" stroke-width="1.00"/>
<circle cx="265.38" cy="147.23" r="13.08" fill="#cccccc" stroke="#000000" stroke-width="1.00"/>
<circle cx="253.36" cy="286.60" r="13.08" fill="#cccccc" stroke="#000000" stroke-width="1.00"/>
<circle cx="186.92" cy="56.64" r="13.08" fill="#cccccc" stroke="#000000" stroke-width="1.00"/>
<circle cx="213.08" cy="147.23" r="13.08" fill="#cccccc" stroke="#000000" stroke-width="1.00"/>
<circle cx="182.42" cy="304.94" r="13.08" fill="#cccccc" stroke="#000000" stroke-width="1.00"/>
<circle cx="152.22" cy="262.53" r="13.08" fill="#cccccc" stroke="#000000" stroke-width="1.00"/>
<circle cx="265.38" cy="192.53" r="13.08" fill="#cccccc" stroke="#000000" stroke-width="1.00"/>
<circle cx="112.99" cy="285.18" r="13.08" fill="#cccccc" stroke="#000000" stroke-width="1.00"/>
<circle cx="112.99" cy="239.89" r="13.08" fill="#cccccc" stroke="#000000" stroke-width="1.00"/>
<circle cx="108.47" cy="192.53" r="13.08" fill="#cccccc" stroke="#000000" stroke-width="1.00"/>
<circle cx="173.85" cy="215.17" r="13.08" fill="#cccccc" stroke="#000000" stroke-width="1.00"/>
<circle cx="266.43" cy="263.95" r="13.08" fill="#cccccc" stroke="#000000" stroke-width="1.00"/>
<circle cx="356.43" cy="304.94" r="13.08" fill="#cccccc" stroke="#000000" stroke-width="1.00"/>
<circle cx="285.07" cy="282.30" r="13.08" fill="#cccccc" stroke="#000000" stroke-width="1.00"/>
<circle cx="143.20" cy="327.59" r="13.08" fill="#cccccc" stroke="#000000" stroke-width="1.00"/>
<circle cx="186.92" cy="101.94" r="13.08" fill="#cccccc" stroke="#000000" stroke-width="1.00"/>
<circle cx="298.14" cy="259.65" r="13.08" fill="#cccccc" stroke="#000000" stroke-width="1.00"/>
<circle cx="311.22" cy="327.59" r="13.08" fill="#cccccc" stroke="#000000" stroke-width="1.00"/>
<circle cx="208.57" cy="304.94" r="13.08" fill="#cccccc" stroke="#000000" stroke-width="1.00"/>
<circle cx="108.94" cy="327.59" r="13.08" fill="#cccccc" stroke="#000000" stroke-width="1.00"/>
<circle cx="291.53" cy="192.53" r="13.08" fill="#cccccc" stroke="#000000" stroke-width="1.00"/>
<circle cx="195.50" cy="327.59" r="13.08" fill="#cccccc" stroke="#000000" stroke-width="1.00"/>
<circle cx="340.36" cy="284.31" r="13.08" fill="#cccccc" stroke="#000000" stroke-width="1.00"/>
<circle cx="169.35" cy="327.59" r="13.08" fill="#cccccc" stroke="#000000" stroke-width="1.00"/>
<circle cx="173.85" cy="79.29" r="13.08" fill="#cccccc" stroke="#000000" stroke-width="1.00"/>
<circle cx="69.72" cy="304.94" r="13.08" fill="#cccccc" stroke="#000000" stroke-width="1.00"/>
<circle cx="226.15" cy="215.17" r="13.08" fill="#cccccc" stroke="#000000" stroke-width="1.00"/>
<circle cx="43.57" cy="304.94" r="13.08" fill="#cccccc" stroke="#000000" stroke-width="1.00"/>
<circle cx="160.77" cy="147.23" r="13.08" fill="#cccccc" stroke="#000000" stroke-width="1.00"/>
<circle cx="278.45" cy="169.88" r="13.08" fill="#cccccc" stroke="#000000" stroke-width="1.00"/>
<circle cx="126.07" cy="307.83" r="13.08" fill="#cccccc" stroke="#000000" stroke-width="1.00"/>
<circle cx="173.85" cy="124.59" r="13.08" fill="#cccccc" stroke="#000000" stroke-width="1.00"/>
<circle cx="195.50" cy="282.30" r="13.08" fill="#cccccc" stroke="#000000" stroke-width="1.00"/>
<circle cx="186.92" cy="147.23" r="13.08" fill="#cccccc" stroke="#000000" stroke-width="1.00"/>
<circle cx="99.92" cy="262.53" r="13.08" fill="#cccccc" stroke="#000000" stroke-width="1.00"/>
<circle cx="227.21" cy="241.30" r="13.08" fill="#cccccc" stroke="#000000" stroke-width="1.00"/>
<circle cx="134.62" cy="147.23" r="13.08" fill="#cccccc" stroke="#000000" stroke-width="1.00"/>
<circle cx="324.30" cy="304.94" r="13.08" fill="#cccccc" stroke="#000000" stroke-width="1.00"/>
<circle cx="56.64" cy="327.59" r="13.08" fill="#cccccc" stroke="#000000" stroke-width="1.00"/>
<circle cx="240.28" cy="309.25" r="13.08" fill="#cccccc" stroke="#000000" stroke-width="1.00"/>
<circle cx="147.70" cy="215.17" r="13.08" fill="#cccccc" stroke="#000000" stroke-width="1.00"/>
<circle cx="226.15" cy="124.59" r="13.08" fill="#cccccc" stroke="#000000" stroke-width="1.00"/>
<circle cx="314.61" cy="239.33" r="13.08" fill="#cccccc" stroke="#000000" stroke-width="1.00"/>
<circle cx="147.70" cy="169.88" r="13.08" fill="#cccccc" stroke="#000000" stroke-width="1.00"/>
<circle cx="213.08" cy="192.53" r="13.08" fill="#cccccc" stroke="#000000" stroke-width="1.00"/>
<circle cx="213.08" cy="56.64" r="13.08" fill="#cccccc" stroke="#000000" stroke-width="1.00"/>
<circle cx="314.04" cy="280.42" r="13.08" fill="#cccccc" stroke="#000000" stroke-width="1.00"/>
<polygon points="200.00,7.85 7.85,340.67 392.15,340.67" fill="none" stroke="#000000" stroke-width="1.40"/>
</svg>