<svg xmlns="http://www.w3.org/2000/svg" width="400.0" height="351.0" viewBox="0 0 400.0 351.0">
<rect width="400.0" height="351.0" fill="white"/>
<circle cx="305.66" cy="256.62" r="28.31" fill="#cccccc" stroke="#000000" stroke-width="1.00"/>
<circle cx="122.65" cy="207.59" r="28.31" fill="#cccccc" stroke="#000000" stroke-width="1.00"/>
<circle cx="171.69" cy="179.27" r="28.31" fill="#cccccc" stroke="#000000" stroke-width="1.00"/>
<circle cx="200.00" cy="228.31" r="28.31" fill="#cccccc" stroke="#000000" stroke-width="1.00"/>
<circle cx="179.27" cy="305.66" r="28.31" fill="#cccccc" stroke="#000000" stroke-width="1.00"/>
<circle cx="200.00" cy="73.61" r="28.31" fill="#cccccc" stroke="#000000" stroke-width="1.00"/>
<circle cx="228.31" cy="122.65" r="28.31" fill="#cccccc" stroke="#000000" stroke-width="1.00"/>
<circle cx="66.03" cy="305.66" r="28.31" fill="#cccccc" stroke="#000000" stroke-width="1.00"/>
<circle cx="228.31" cy="179.27" r="28.31" fill="#cccccc" stroke="#000000" stroke-width="1.00"/>
<circle cx="277.35" cy="305.66" r="28.31" fill="#cccccc" stroke="#000000" stroke-width="1.00"/>
<circle cx="171.69" cy="122.65" r="28.31" fill="#cccccc" stroke="#000000" stroke-width="1.00"/>
<circle cx="94.34" cy="256.62" r="28.31" fill="#cccccc" stroke="#000000" stroke-width="1.00"/>
<circle cx="122.65" cy="305.66" r="28.31" fill="#cccccc" stroke="#000000" stroke-width="1.00"/>
<circle cx="150.96" cy="256.62" r="28.31" fill="#cccccc" stroke="#000000" stroke-width="1.00"/>
<circle cx="228.31" cy="277.35" r="28.31" fill="#cccccc" stroke="#000000" stroke-width="1.00"/>
<circle cx="277.35" cy="207.59" r="28.31" fill="#cccccc" stroke="#000000" stroke-width="1.00"/>
<circle cx="333.97" cy="305.66" r="28.31" fill="#cccccc" stroke="#000000" stroke-width="1.00"/>
<polygon points="200.00,16.99 16.99,333.97 383.01,333.97" fill="none" stroke="#000000" stroke-width="1.40"/>
</svg>