<svg xmlns="http://www.w3.org/2000/svg" width="400.0" height="350.8" viewBox="0 0 400.0 350.8">
<rect width="400.0" height="350.8" fill="white"/>
<circle cx="225.25" cy="306.42" r="27.60" fill="#cccccc" stroke="#000000" stroke-width="1.00"/>
<circle cx="64.36" cy="306.69" r="27.60" fill="#cccccc" stroke="#000000" stroke-width="1.00"/>
<circle cx="249.74" cy="256.96" r="27.60" fill="#cccccc" stroke="#000000" stroke-width="1.00"/>
<circle cx="240.22" cy="173.29" r="27.60" fill="#cccccc" stroke="#000000" stroke-width="1.00"/>
<circle cx="227.60" cy="119.56" r="27.60" fill="#cccccc" stroke="#000000" stroke-width="1.00"/>
<circle cx="335.64" cy="306.69" r="27.60" fill="#cccccc" stroke="#000000" stroke-width="1.00"/>
<circle cx="204.89" cy="224.79" r="27.60" fill="#cccccc" stroke="#000000" stroke-width="1.00"/>
<circle cx="172.40" cy="119.56" r="27.60" fill="#cccccc" stroke="#000000" stroke-width="1.00"/>
<circle cx="132.18" cy="189.22" r="27.60" fill="#cccccc" stroke="#000000" stroke-width="1.00"/>
<circle cx="308.04" cy="258.89" r="27.60" fill="#cccccc" stroke="#000000" stroke-width="1.00"/>
<circle cx="170.05" cy="306.69" r="27.60" fill="#cccccc" stroke="#000000" stroke-width="1.00"/>
<circle cx="157.43" cy="252.96" r="27.60" fill="#cccccc" stroke="#000000" stroke-width="1.00"/>
<circle cx="200.00" cy="71.75" r="27.60" fill="#cccccc" stroke="#000000" stroke-width="1.00"/>
<circle cx="117.21" cy="290.76" r="27.60" fill="#cccccc" stroke="#000000" stroke-width="1.00"/>
<circle cx="185.03" cy="173.29" r="27.60" fill="#cccccc" stroke="#000000" stroke-width="1.00"/>
<circle cx="280.44" cy="306.69" r="27.60" fill="#cccccc" stroke="#000000" stroke-width="1.00"/>
<circle cx="280.44" cy="211.09" r="27.60" fill="#cccccc" stroke="#000000" stroke-width="1.00"/>
<circle cx="104.58" cy="237.03" r="27.60" fill="#cccccc" stroke="#000000" stroke-width="1.00"/>
<polygon points="200.00,16.56 16.56,334.29 383.44,334.29" fill="none" stroke="#000000" stroke-width="1.40"/>
</svg>