<svg xmlns="http://www.w3.org/2000/svg" width="400.0" height="350.8" viewBox="0 0 400.0 350.8">
<rect width="400.0" height="350.8" fill="white"/>
<circle cx="281.92" cy="212.89" r="27.31" fill="#cccccc" stroke="#000000" stroke-width="1.00"/>
<circle cx="227.31" cy="118.30" r="27.31" fill="#cccccc" stroke="#000000" stroke-width="1.00"/>
<circle cx="236.73" cy="266.69" r="27.31" fill="#cccccc" stroke="#000000" stroke-width="1.00"/>
<circle cx="336.32" cy="307.11" r="27.31" fill="#cccccc" stroke="#000000" stroke-width="1.00"/>
<circle cx="304.89" cy="262.44" r="27.31" fill="#cccccc" stroke="#000000" stroke-width="1.00"/>
<circle cx="163.27" cy="266.69" r="27.31" fill="#cccccc" stroke="#000000" stroke-width="1.00"/>
<circle cx="118.08" cy="212.89" r="27.31" fill="#cccccc" stroke="#000000" stroke-width="1.00"/>
<circle cx="227.31" cy="212.89" r="27.31" fill="#cccccc" stroke="#000000" stroke-width="1.00"/>
<circle cx="254.61" cy="165.59" r="27.31" fill="#cccccc" stroke="#000000" stroke-width="1.00"/>
<circle cx="172.69" cy="118.30" r="27.31" fill="#cccccc" stroke="#000000" stroke-width="1.00"/>
<circle cx="63.68" cy="307.11" r="27.31" fill="#cccccc" stroke="#000000" stroke-width="1.00"/>
<circle cx="273.46" cy="307.11" r="27.31" fill="#cccccc" stroke="#000000" stroke-width="1.00"/>
<circle cx="95.11" cy="262.44" r="27.31" fill="#cccccc" stroke="#000000" stroke-width="1.00"/>
<circle cx="145.39" cy="165.59" r="27.31" fill="#cccccc" stroke="#000000" stroke-width="1.00"/>
<circle cx="200.00" cy="165.59" r="27.31" fill="#cccccc" stroke="#000000" stroke-width="1.00"/>
<circle cx="126.54" cy="307.11" r="27.31" fill="#cccccc" stroke="#000000" stroke-width="1.00"/>
<circle cx="200.00" cy="307.11" r="27.31" fill="#cccccc" stroke="#000000" stroke-width="1.00"/>
<circle cx="172.69" cy="212.89" r="27.31" fill="#cccccc" stroke="#000000" stroke-width="1.00"/>
<circle cx="200.00" cy="71.00" r="27.31" fill="#cccccc" stroke="#000000" stroke-width="1.00"/>
<polygon points="200.00,16.38 16.38,334.42 383.62,334.42" fill="none" stroke="#000000" stroke-width="1.40"/>
</svg>