<svg xmlns="http://www.w3.org/2000/svg" width="400.0" height="350.8" viewBox="0 0 400.0 350.8">
<rect width="400.0" height="350.8" fill="white"/>
<circle cx="172.72" cy="307.15" r="27.28" fill="#cccccc" stroke="#000000" stroke-width="1.00"/>
<circle cx="227.28" cy="212.66" r="27.28" fill="#cccccc" stroke="#000000" stroke-width="1.00"/>
<circle cx="227.28" cy="118.17" r="27.28" fill="#cccccc" stroke="#000000" stroke-width="1.00"/>
<circle cx="336.39" cy="307.15" r="27.28" fill="#cccccc" stroke="#000000" stroke-width="1.00"/>
<circle cx="145.45" cy="165.41" r="27.28" fill="#cccccc" stroke="#000000" stroke-width="1.00"/>
<circle cx="63.61" cy="307.15" r="27.28" fill="#cccccc" stroke="#000000" stroke-width="1.00"/>
<circle cx="200.00" cy="259.91" r="27.28" fill="#cccccc" stroke="#000000" stroke-width="1.00"/>
<circle cx="254.55" cy="165.41" r="27.28" fill="#cccccc" stroke="#000000" stroke-width="1.00"/>
<circle cx="145.45" cy="259.91" r="27.28" fill="#cccccc" stroke="#000000" stroke-width="1.00"/>
<circle cx="309.11" cy="259.91" r="27.28" fill="#cccccc" stroke="#000000" stroke-width="1.00"/>
<circle cx="227.28" cy="307.15" r="27.28" fill="#cccccc" stroke="#000000" stroke-width="1.00"/>
<circle cx="172.72" cy="212.66" r="27.28" fill="#cccccc" stroke="#000000" stroke-width="1.00"/>
<circle cx="118.17" cy="212.66" r="27.28" fill="#cccccc" stroke="#000000" stroke-width="1.00"/>
<circle cx="172.72" cy="118.17" r="27.28" fill="#cccccc" stroke="#000000" stroke-width="1.00"/>
<circle cx="254.55" cy="259.91" r="27.28" fill="#cccccc" stroke="#000000" stroke-width="1.00"/>
<circle cx="281.83" cy="307.15" r="27.28" fill="#cccccc" stroke="#000000" stroke-width="1.00"/>
<circle cx="200.00" cy="70.92" r="27.28" fill="#cccccc" stroke="#000000" stroke-width="1.00"/>
<circle cx="281.83" cy="212.66" r="27.28" fill="#cccccc" stroke="#000000" stroke-width="1.00"/>
<circle cx="118.17" cy="307.15" r="27.28" fill="#cccccc" stroke="#000000" stroke-width="1.00"/>
<circle cx="200.00" cy="165.41" r="27.28" fill="#cccccc" stroke="#000000" stroke-width="1.00"/>
<circle cx="90.89" cy="259.91" r="27.28" fill="#cccccc" stroke="#000000" stroke-width="1.00"/>
<polygon points="200.00,16.37 16.37,334.43 383.63,334.43" fill="none" stroke="#000000" stroke-width="1.40"/>
</svg>