<svg xmlns="http://www.w3.org/2000/svg" width="400.0" height="350.5" viewBox="0 0 400.0 350.5">
<rect width="400.0" height="350.5" fill="white"/>
<circle cx="207.11" cy="115.86" r="25.30" fill="#cccccc" stroke="#000000" stroke-width="1.00"/>
<circle cx="160.18" cy="310.00" r="25.30" fill="#cccccc" stroke="#000000" stroke-width="1.00"/>
<circle cx="254.58" cy="197.08" r="25.30" fill="#cccccc" stroke="#000000" stroke-width="1.00"/>
<circle cx="84.29" cy="266.19" r="25.30" fill="#cccccc" stroke="#000000" stroke-width="1.00"/>
<circle cx="294.07" cy="228.71" r="25.30" fill="#cccccc" stroke="#000000" stroke-width="1.00"/>
<circle cx="301.19" cy="278.80" r="25.30" fill="#cccccc" stroke="#000000" stroke-width="1.00"/>
<circle cx="134.88" cy="178.56" r="25.30" fill="#cccccc" stroke="#000000" stroke-width="1.00"/>
<circle cx="134.88" cy="266.19" r="25.30" fill="#cccccc" stroke="#000000" stroke-width="1.00"/>
<circle cx="109.59" cy="222.37" r="25.30" fill="#cccccc" stroke="#000000" stroke-width="1.00"/>
<circle cx="252.47" cy="257.50" r="25.30" fill="#cccccc" stroke="#000000" stroke-width="1.00"/>
<circle cx="200.00" cy="65.77" r="25.30" fill="#cccccc" stroke="#000000" stroke-width="1.00"/>
<circle cx="191.73" cy="174.83" r="25.30" fill="#cccccc" stroke="#000000" stroke-width="1.00"/>
<circle cx="341.01" cy="310.00" r="25.30" fill="#cccccc" stroke="#000000" stroke-width="1.00"/>
<circle cx="160.18" cy="134.74" r="25.30" fill="#cccccc" stroke="#000000" stroke-width="1.00"/>
<circle cx="109.59" cy="310.00" r="25.30" fill="#cccccc" stroke="#000000" stroke-width="1.00"/>
<circle cx="210.77" cy="222.37" r="25.30" fill="#cccccc" stroke="#000000" stroke-width="1.00"/>
<circle cx="185.47" cy="266.19" r="25.30" fill="#cccccc" stroke="#000000" stroke-width="1.00"/>
<circle cx="58.99" cy="310.00" r="25.30" fill="#cccccc" stroke="#000000" stroke-width="1.00"/>
<circle cx="210.77" cy="310.00" r="25.30" fill="#cccccc" stroke="#000000" stroke-width="1.00"/>
<circle cx="246.94" cy="147.07" r="25.30" fill="#cccccc" stroke="#000000" stroke-width="1.00"/>
<circle cx="160.18" cy="222.37" r="25.30" fill="#cccccc" stroke="#000000" stroke-width="1.00"/>
<circle cx="261.36" cy="310.00" r="25.30" fill="#cccccc" stroke="#000000" stroke-width="1.00"/>
<polygon points="200.00,15.18 15.18,335.30 384.82,335.30" fill="none" stroke="#000000" stroke-width="1.40"/>
</svg>