<svg xmlns="http://www.w3.org/2000/svg" width="400.0" height="350.4" viewBox="0 0 400.0 350.4">
<rect width="400.0" height="350.4" fill="white"/>
<circle cx="175.13" cy="107.74" r="24.87" fill="#cccccc" stroke="#000000" stroke-width="1.00"/>
<circle cx="131.51" cy="183.30" r="24.87" fill="#cccccc" stroke="#000000" stroke-width="1.00"/>
<circle cx="58.00" cy="310.61" r="24.87" fill="#cccccc" stroke="#000000" stroke-width="1.00"/>
<circle cx="174.02" cy="157.48" r="24.87" fill="#cccccc" stroke="#000000" stroke-width="1.00"/>
<circle cx="224.87" cy="107.74" r="24.87" fill="#cccccc" stroke="#000000" stroke-width="1.00"/>
<circle cx="208.03" cy="263.27" r="24.87" fill="#cccccc" stroke="#000000" stroke-width="1.00"/>
<circle cx="292.26" cy="310.61" r="24.87" fill="#cccccc" stroke="#000000" stroke-width="1.00"/>
<circle cx="242.51" cy="310.61" r="24.87" fill="#cccccc" stroke="#000000" stroke-width="1.00"/>
<circle cx="317.13" cy="267.54" r="24.87" fill="#cccccc" stroke="#000000" stroke-width="1.00"/>
<circle cx="198.89" cy="200.55" r="24.87" fill="#cccccc" stroke="#000000" stroke-width="1.00"/>
<circle cx="267.38" cy="181.38" r="24.87" fill="#cccccc" stroke="#000000" stroke-width="1.00"/>
<circle cx="150.26" cy="284.79" r="24.87" fill="#cccccc" stroke="#000000" stroke-width="1.00"/>
<circle cx="116.24" cy="230.65" r="24.87" fill="#cccccc" stroke="#000000" stroke-width="1.00"/>
<circle cx="82.87" cy="267.54" r="24.87" fill="#cccccc" stroke="#000000" stroke-width="1.00"/>
<circle cx="200.00" cy="64.67" r="24.87" fill="#cccccc" stroke="#000000" stroke-width="1.00"/>
<circle cx="242.51" cy="224.46" r="24.87" fill="#cccccc" stroke="#000000" stroke-width="1.00"/>
<circle cx="292.26" cy="224.46" r="24.87" fill="#cccccc" stroke="#000000" stroke-width="1.00"/>
<circle cx="342.00" cy="310.61" r="24.87" fill="#cccccc" stroke="#000000" stroke-width="1.00"/>
<circle cx="107.74" cy="310.61" r="24.87" fill="#cccccc" stroke="#000000" stroke-width="1.00"/>
<circle cx="165.52" cy="237.44" r="24.87" fill="#cccccc" stroke="#000000" stroke-width="1.00"/>
<circle cx="192.77" cy="310.61" r="24.87" fill="#cccccc" stroke="#000000" stroke-width="1.00"/>
<circle cx="223.76" cy="157.48" r="24.87" fill="#cccccc" stroke="#000000" stroke-width="1.00"/>
<circle cx="267.38" cy="267.54" r="24.87" fill="#cccccc" stroke="#000000" stroke-width="1.00"/>
<polygon points="200.00,14.92 14.92,335.49 385.08,335.49" fill="none" stroke="#000000" stroke-width="1.40"/>
</svg>