<svg xmlns="http://www.w3.org/2000/svg" width="400.0" height="350.4" viewBox="0 0 400.0 350.4">
<rect width="400.0" height="350.4" fill="white"/>
<circle cx="267.76" cy="267.76" r="24.80" fill="#cccccc" stroke="#000000" stroke-width="1.00"/>
<circle cx="150.40" cy="150.40" r="24.80" fill="#cccccc" stroke="#000000" stroke-width="1.00"/>
<circle cx="224.80" cy="107.44" r="24.80" fill="#cccccc" stroke="#000000" stroke-width="1.00"/>
<circle cx="200.00" cy="150.40" r="24.80" fill="#cccccc" stroke="#000000" stroke-width="1.00"/>
<circle cx="200.00" cy="285.91" r="24.80" fill="#cccccc" stroke="#000000" stroke-width="1.00"/>
<circle cx="200.00" cy="200.00" r="24.80" fill="#cccccc" stroke="#000000" stroke-width="1.00"/>
<circle cx="292.56" cy="224.80" r="24.80" fill="#cccccc" stroke="#000000" stroke-width="1.00"/>
<circle cx="224.80" cy="242.96" r="24.80" fill="#cccccc" stroke="#000000" stroke-width="1.00"/>
<circle cx="107.44" cy="310.72" r="24.80" fill="#cccccc" stroke="#000000" stroke-width="1.00"/>
<circle cx="82.64" cy="267.76" r="24.80" fill="#cccccc" stroke="#000000" stroke-width="1.00"/>
<circle cx="342.16" cy="310.72" r="24.80" fill="#cccccc" stroke="#000000" stroke-width="1.00"/>
<circle cx="150.40" cy="200.00" r="24.80" fill="#cccccc" stroke="#000000" stroke-width="1.00"/>
<circle cx="317.36" cy="267.76" r="24.80" fill="#cccccc" stroke="#000000" stroke-width="1.00"/>
<circle cx="57.84" cy="310.72" r="24.80" fill="#cccccc" stroke="#000000" stroke-width="1.00"/>
<circle cx="132.24" cy="267.76" r="24.80" fill="#cccccc" stroke="#000000" stroke-width="1.00"/>
<circle cx="292.56" cy="310.72" r="24.80" fill="#cccccc" stroke="#000000" stroke-width="1.00"/>
<circle cx="249.60" cy="200.00" r="24.80" fill="#cccccc" stroke="#000000" stroke-width="1.00"/>
<circle cx="175.20" cy="107.44" r="24.80" fill="#cccccc" stroke="#000000" stroke-width="1.00"/>
<circle cx="242.96" cy="310.72" r="24.80" fill="#cccccc" stroke="#000000" stroke-width="1.00"/>
<circle cx="249.60" cy="150.40" r="24.80" fill="#cccccc" stroke="#000000" stroke-width="1.00"/>
<circle cx="200.00" cy="64.48" r="24.80" fill="#cccccc" stroke="#000000" stroke-width="1.00"/>
<circle cx="107.44" cy="224.80" r="24.80" fill="#cccccc" stroke="#000000" stroke-width="1.00"/>
<circle cx="175.20" cy="242.96" r="24.80" fill="#cccccc" stroke="#000000" stroke-width="1.00"/>
<circle cx="157.04" cy="310.72" r="24.80" fill="#cccccc" stroke="#000000" stroke-width="1.00"/>
<polygon points="200.00,14.88 14.88,335.52 385.12,335.52" fill="none" stroke="#000000" stroke-width="1.40"/>
</svg>