<svg xmlns="http://www.w3.org/2000/svg" width="400.0" height="350.3" viewBox="0 0 400.0 350.3">
<rect width="400.0" height="350.3" fill="white"/>
<circle cx="319.19" cy="269.50" r="24.25" fill="#cccccc" stroke="#000000" stroke-width="1.00"/>
<circle cx="56.56" cy="311.51" r="24.25" fill="#cccccc" stroke="#000000" stroke-width="1.00"/>
<circle cx="175.75" cy="105.06" r="24.25" fill="#cccccc" stroke="#000000" stroke-width="1.00"/>
<circle cx="259.60" cy="278.29" r="24.25" fill="#cccccc" stroke="#000000" stroke-width="1.00"/>
<circle cx="200.00" cy="63.05" r="24.25" fill="#cccccc" stroke="#000000" stroke-width="1.00"/>
<circle cx="140.40" cy="278.29" r="24.25" fill="#cccccc" stroke="#000000" stroke-width="1.00"/>
<circle cx="175.75" cy="189.07" r="24.25" fill="#cccccc" stroke="#000000" stroke-width="1.00"/>
<circle cx="235.34" cy="236.29" r="24.25" fill="#cccccc" stroke="#000000" stroke-width="1.00"/>
<circle cx="116.15" cy="236.29" r="24.25" fill="#cccccc" stroke="#000000" stroke-width="1.00"/>
<circle cx="343.44" cy="311.51" r="24.25" fill="#cccccc" stroke="#000000" stroke-width="1.00"/>
<circle cx="127.25" cy="189.07" r="24.25" fill="#cccccc" stroke="#000000" stroke-width="1.00"/>
<circle cx="151.50" cy="147.06" r="24.25" fill="#cccccc" stroke="#000000" stroke-width="1.00"/>
<circle cx="200.00" cy="269.50" r="24.25" fill="#cccccc" stroke="#000000" stroke-width="1.00"/>
<circle cx="283.85" cy="236.29" r="24.25" fill="#cccccc" stroke="#000000" stroke-width="1.00"/>
<circle cx="224.25" cy="189.07" r="24.25" fill="#cccccc" stroke="#000000" stroke-width="1.00"/>
<circle cx="105.06" cy="311.51" r="24.25" fill="#cccccc" stroke="#000000" stroke-width="1.00"/>
<circle cx="200.00" cy="147.06" r="24.25" fill="#cccccc" stroke="#000000" stroke-width="1.00"/>
<circle cx="272.75" cy="189.07" r="24.25" fill="#cccccc" stroke="#000000" stroke-width="1.00"/>
<circle cx="224.25" cy="105.06" r="24.25" fill="#cccccc" stroke="#000000" stroke-width="1.00"/>
<circle cx="224.25" cy="311.51" r="24.25" fill="#cccccc" stroke="#000000" stroke-width="1.00"/>
<circle cx="248.50" cy="147.06" r="24.25" fill="#cccccc" stroke="#000000" stroke-width="1.00"/>
<circle cx="164.66" cy="236.29" r="24.25" fill="#cccccc" stroke="#000000" stroke-width="1.00"/>
<circle cx="80.81" cy="269.50" r="24.25" fill="#cccccc" stroke="#000000" stroke-width="1.00"/>
<circle cx="175.75" cy="311.51" r="24.25" fill="#cccccc" stroke="#000000" stroke-width="1.00"/>
<circle cx="294.94" cy="311.51" r="24.25" fill="#cccccc" stroke="#000000" stroke-width="1.00"/>
<polygon points="200.00,14.55 14.55,335.76 385.45,335.76" fill="none" stroke="#000000" stroke-width="1.40"/>
</svg>