<svg xmlns="http://www.w3.org/2000/svg" width="400.0" height="350.3" viewBox="0 0 400.0 350.3">
<rect width="400.0" height="350.3" fill="white"/>
<circle cx="293.90" cy="229.95" r="24.01" fill="#cccccc" stroke="#000000" stroke-width="1.00"/>
<circle cx="245.88" cy="229.95" r="24.01" fill="#cccccc" stroke="#000000" stroke-width="1.00"/>
<circle cx="200.00" cy="145.61" r="24.01" fill="#cccccc" stroke="#000000" stroke-width="1.00"/>
<circle cx="272.03" cy="187.19" r="24.01" fill="#cccccc" stroke="#000000" stroke-width="1.00"/>
<circle cx="200.00" cy="62.43" r="24.01" fill="#cccccc" stroke="#000000" stroke-width="1.00"/>
<circle cx="224.01" cy="187.19" r="24.01" fill="#cccccc" stroke="#000000" stroke-width="1.00"/>
<circle cx="127.97" cy="187.19" r="24.01" fill="#cccccc" stroke="#000000" stroke-width="1.00"/>
<circle cx="224.01" cy="104.02" r="24.01" fill="#cccccc" stroke="#000000" stroke-width="1.00"/>
<circle cx="104.02" cy="311.85" r="24.01" fill="#cccccc" stroke="#000000" stroke-width="1.00"/>
<circle cx="319.99" cy="270.26" r="24.01" fill="#cccccc" stroke="#000000" stroke-width="1.00"/>
<circle cx="106.10" cy="229.95" r="24.01" fill="#cccccc" stroke="#000000" stroke-width="1.00"/>
<circle cx="269.89" cy="271.54" r="24.01" fill="#cccccc" stroke="#000000" stroke-width="1.00"/>
<circle cx="295.98" cy="311.85" r="24.01" fill="#cccccc" stroke="#000000" stroke-width="1.00"/>
<circle cx="248.02" cy="145.61" r="24.01" fill="#cccccc" stroke="#000000" stroke-width="1.00"/>
<circle cx="56.00" cy="311.85" r="24.01" fill="#cccccc" stroke="#000000" stroke-width="1.00"/>
<circle cx="175.99" cy="187.19" r="24.01" fill="#cccccc" stroke="#000000" stroke-width="1.00"/>
<circle cx="200.00" cy="292.16" r="24.01" fill="#cccccc" stroke="#000000" stroke-width="1.00"/>
<circle cx="200.00" cy="244.14" r="24.01" fill="#cccccc" stroke="#000000" stroke-width="1.00"/>
<circle cx="130.11" cy="271.54" r="24.01" fill="#cccccc" stroke="#000000" stroke-width="1.00"/>
<circle cx="344.00" cy="311.85" r="24.01" fill="#cccccc" stroke="#000000" stroke-width="1.00"/>
<circle cx="175.99" cy="104.02" r="24.01" fill="#cccccc" stroke="#000000" stroke-width="1.00"/>
<circle cx="156.20" cy="311.85" r="24.01" fill="#cccccc" stroke="#000000" stroke-width="1.00"/>
<circle cx="243.80" cy="311.85" r="24.01" fill="#cccccc" stroke="#000000" stroke-width="1.00"/>
<circle cx="80.01" cy="270.26" r="24.01" fill="#cccccc" stroke="#000000" stroke-width="1.00"/>
<circle cx="151.98" cy="145.61" r="24.01" fill="#cccccc" stroke="#000000" stroke-width="1.00"/>
<circle cx="154.12" cy="229.95" r="24.01" fill="#cccccc" stroke="#000000" stroke-width="1.00"/>
<polygon points="200.00,14.41 14.41,335.86 385.59,335.86" fill="none" stroke="#000000" stroke-width="1.40"/>
</svg>