<svg xmlns="http://www.w3.org/2000/svg" width="400.0" height="350.3" viewBox="0 0 400.0 350.3">
<rect width="400.0" height="350.3" fill="white"/>
<circle cx="127.99" cy="187.14" r="24.00" fill="#cccccc" stroke="#000000" stroke-width="1.00"/>
<circle cx="103.99" cy="228.71" r="24.00" fill="#cccccc" stroke="#000000" stroke-width="1.00"/>
<circle cx="79.98" cy="270.29" r="24.00" fill="#cccccc" stroke="#000000" stroke-width="1.00"/>
<circle cx="248.01" cy="228.71" r="24.00" fill="#cccccc" stroke="#000000" stroke-width="1.00"/>
<circle cx="248.01" cy="145.56" r="24.00" fill="#cccccc" stroke="#000000" stroke-width="1.00"/>
<circle cx="151.99" cy="228.71" r="24.00" fill="#cccccc" stroke="#000000" stroke-width="1.00"/>
<circle cx="224.00" cy="187.14" r="24.00" fill="#cccccc" stroke="#000000" stroke-width="1.00"/>
<circle cx="344.02" cy="311.86" r="24.00" fill="#cccccc" stroke="#000000" stroke-width="1.00"/>
<circle cx="296.01" cy="311.86" r="24.00" fill="#cccccc" stroke="#000000" stroke-width="1.00"/>
<circle cx="320.02" cy="270.29" r="24.00" fill="#cccccc" stroke="#000000" stroke-width="1.00"/>
<circle cx="296.01" cy="228.71" r="24.00" fill="#cccccc" stroke="#000000" stroke-width="1.00"/>
<circle cx="272.01" cy="187.14" r="24.00" fill="#cccccc" stroke="#000000" stroke-width="1.00"/>
<circle cx="176.00" cy="270.29" r="24.00" fill="#cccccc" stroke="#000000" stroke-width="1.00"/>
<circle cx="224.00" cy="270.29" r="24.00" fill="#cccccc" stroke="#000000" stroke-width="1.00"/>
<circle cx="248.01" cy="311.86" r="24.00" fill="#cccccc" stroke="#000000" stroke-width="1.00"/>
<circle cx="151.99" cy="145.56" r="24.00" fill="#cccccc" stroke="#000000" stroke-width="1.00"/>
<circle cx="200.00" cy="311.86" r="24.00" fill="#cccccc" stroke="#000000" stroke-width="1.00"/>
<circle cx="151.99" cy="311.86" r="24.00" fill="#cccccc" stroke="#000000" stroke-width="1.00"/>
<circle cx="127.99" cy="270.29" r="24.00" fill="#cccccc" stroke="#000000" stroke-width="1.00"/>
<circle cx="200.00" cy="145.56" r="24.00" fill="#cccccc" stroke="#000000" stroke-width="1.00"/>
<circle cx="272.01" cy="270.29" r="24.00" fill="#cccccc" stroke="#000000" stroke-width="1.00"/>
<circle cx="55.98" cy="311.86" r="24.00" fill="#cccccc" stroke="#000000" stroke-width="1.00"/>
<circle cx="200.00" cy="228.71" r="24.00" fill="#cccccc" stroke="#000000" stroke-width="1.00"/>
<circle cx="176.00" cy="187.14" r="24.00" fill="#cccccc" stroke="#000000" stroke-width="1.00"/>
<circle cx="103.99" cy="311.86" r="24.00" fill="#cccccc" stroke="#000000" stroke-width="1.00"/>
<circle cx="200.00" cy="62.41" r="24.00" fill="#cccccc" stroke="#000000" stroke-width="1.00"/>
<circle cx="224.00" cy="103.99" r="24.00" fill="#cccccc" stroke="#000000" stroke-width="1.00"/>
<polygon points="200.00,14.40 14.40,335.87 385.60,335.87" fill="none" stroke="#000000" stroke-width="1.40"/>
</svg>