<svg xmlns="http://www.w3.org/2000/svg" width="400.0" height="350.0" viewBox="0 0 400.0 350.0">
<rect width="400.0" height="350.0" fill="white"/>
<circle cx="200.00" cy="58.41" r="22.46" fill="#cccccc" stroke="#000000" stroke-width="1.00"/>
<circle cx="177.54" cy="97.32" r="22.46" fill="#cccccc" stroke="#000000" stroke-width="1.00"/>
<circle cx="222.46" cy="97.32" r="22.46" fill="#cccccc" stroke="#000000" stroke-width="1.00"/>
<circle cx="155.07" cy="136.23" r="22.46" fill="#cccccc" stroke="#000000" stroke-width="1.00"/>
<circle cx="200.00" cy="136.23" r="22.46" fill="#cccccc" stroke="#000000" stroke-width="1.00"/>
<circle cx="244.93" cy="136.23" r="22.46" fill="#cccccc" stroke="#000000" stroke-width="1.00"/>
<circle cx="132.61" cy="175.14" r="22.46" fill="#cccccc" stroke="#000000" stroke-width="1.00"/>
<circle cx="177.54" cy="175.14" r="22.46" fill="#cccccc" stroke="#000000" stroke-width="1.00"/>
<circle cx="222.46" cy="175.14" r="22.46" fill="#cccccc" stroke="#000000" stroke-width="1.00"/>
<circle cx="267.39" cy="175.14" r="22.46" fill="#cccccc" stroke="#000000" stroke-width="1.00"/>
<circle cx="110.14" cy="214.05" r="22.46" fill="#cccccc" stroke="#000000" stroke-width="1.00"/>
<circle cx="155.07" cy="214.05" r="22.46" fill="#cccccc" stroke="#000000" stroke-width="1.00"/>
<circle cx="284.72" cy="216.59" r="22.46" fill="#cccccc" stroke="#000000" stroke-width="1.00"/>
<circle cx="200.00" cy="214.05" r="22.46" fill="#cccccc" stroke="#000000" stroke-width="1.00"/>
<circle cx="241.91" cy="230.24" r="22.46" fill="#cccccc" stroke="#000000" stroke-width="1.00"/>
<circle cx="87.68" cy="252.96" r="22.46" fill="#cccccc" stroke="#000000" stroke-width="1.00"/>
<circle cx="177.54" cy="252.96" r="22.46" fill="#cccccc" stroke="#000000" stroke-width="1.00"/>
<circle cx="311.96" cy="252.33" r="22.46" fill="#cccccc" stroke="#000000" stroke-width="1.00"/>
<circle cx="219.45" cy="269.15" r="22.46" fill="#cccccc" stroke="#000000" stroke-width="1.00"/>
<circle cx="270.43" cy="269.47" r="22.46" fill="#cccccc" stroke="#000000" stroke-width="1.00"/>
<circle cx="306.11" cy="296.87" r="22.46" fill="#cccccc" stroke="#000000" stroke-width="1.00"/>
<circle cx="94.12" cy="297.43" r="22.46" fill="#cccccc" stroke="#000000" stroke-width="1.00"/>
<circle cx="177.76" cy="297.89" r="22.46" fill="#cccccc" stroke="#000000" stroke-width="1.00"/>
<circle cx="52.39" cy="314.08" r="22.46" fill="#cccccc" stroke="#000000" stroke-width="1.00"/>
<circle cx="135.85" cy="314.08" r="22.46" fill="#cccccc" stroke="#000000" stroke-width="1.00"/>
<circle cx="219.67" cy="314.08" r="22.46" fill="#cccccc" stroke="#000000" stroke-width="1.00"/>
<circle cx="264.60" cy="314.08" r="22.46" fill="#cccccc" stroke="#000000" stroke-width="1.00"/>
<circle cx="347.61" cy="314.08" r="22.46" fill="#cccccc" stroke="#000000" stroke-width="1.00"/>
<circle cx="132.41" cy="268.49" r="22.46" fill="#cccccc" stroke="#000000" stroke-width="1.00"/>
<polygon points="200.00,13.48 13.48,336.54 386.52,336.54" fill="none" stroke="#000000" stroke-width="1.40"/>
</svg>