<svg xmlns="http://www.w3.org/2000/svg" width="400.0" height="350.0" viewBox="0 0 400.0 350.0">
<rect width="400.0" height="350.0" fill="white"/>
<circle cx="133.07" cy="173.92" r="22.31" fill="#cccccc" stroke="#000000" stroke-width="1.00"/>
<circle cx="262.83" cy="295.63" r="22.31" fill="#cccccc" stroke="#000000" stroke-width="1.00"/>
<circle cx="200.00" cy="135.28" r="22.31" fill="#cccccc" stroke="#000000" stroke-width="1.00"/>
<circle cx="52.03" cy="314.30" r="22.31" fill="#cccccc" stroke="#000000" stroke-width="1.00"/>
<circle cx="155.38" cy="135.28" r="22.31" fill="#cccccc" stroke="#000000" stroke-width="1.00"/>
<circle cx="285.14" cy="256.99" r="22.31" fill="#cccccc" stroke="#000000" stroke-width="1.00"/>
<circle cx="159.48" cy="256.99" r="22.31" fill="#cccccc" stroke="#000000" stroke-width="1.00"/>
<circle cx="110.76" cy="212.56" r="22.31" fill="#cccccc" stroke="#000000" stroke-width="1.00"/>
<circle cx="222.31" cy="173.92" r="22.31" fill="#cccccc" stroke="#000000" stroke-width="1.00"/>
<circle cx="240.52" cy="256.99" r="22.31" fill="#cccccc" stroke="#000000" stroke-width="1.00"/>
<circle cx="303.36" cy="314.30" r="22.31" fill="#cccccc" stroke="#000000" stroke-width="1.00"/>
<circle cx="266.93" cy="173.92" r="22.31" fill="#cccccc" stroke="#000000" stroke-width="1.00"/>
<circle cx="289.24" cy="212.56" r="22.31" fill="#cccccc" stroke="#000000" stroke-width="1.00"/>
<circle cx="195.91" cy="231.23" r="22.31" fill="#cccccc" stroke="#000000" stroke-width="1.00"/>
<circle cx="325.67" cy="275.66" r="22.31" fill="#cccccc" stroke="#000000" stroke-width="1.00"/>
<circle cx="114.86" cy="256.99" r="22.31" fill="#cccccc" stroke="#000000" stroke-width="1.00"/>
<circle cx="177.69" cy="96.64" r="22.31" fill="#cccccc" stroke="#000000" stroke-width="1.00"/>
<circle cx="222.31" cy="96.64" r="22.31" fill="#cccccc" stroke="#000000" stroke-width="1.00"/>
<circle cx="347.97" cy="314.30" r="22.31" fill="#cccccc" stroke="#000000" stroke-width="1.00"/>
<circle cx="200.00" cy="275.66" r="22.31" fill="#cccccc" stroke="#000000" stroke-width="1.00"/>
<circle cx="74.33" cy="275.66" r="22.31" fill="#cccccc" stroke="#000000" stroke-width="1.00"/>
<circle cx="177.69" cy="314.30" r="22.31" fill="#cccccc" stroke="#000000" stroke-width="1.00"/>
<circle cx="200.00" cy="58.00" r="22.31" fill="#cccccc" stroke="#000000" stroke-width="1.00"/>
<circle cx="244.62" cy="212.56" r="22.31" fill="#cccccc" stroke="#000000" stroke-width="1.00"/>
<circle cx="244.62" cy="135.28" r="22.31" fill="#cccccc" stroke="#000000" stroke-width="1.00"/>
<circle cx="177.69" cy="173.92" r="22.31" fill="#cccccc" stroke="#000000" stroke-width="1.00"/>
<circle cx="222.31" cy="314.30" r="22.31" fill="#cccccc" stroke="#000000" stroke-width="1.00"/>
<circle cx="137.17" cy="295.63" r="22.31" fill="#cccccc" stroke="#000000" stroke-width="1.00"/>
<circle cx="96.64" cy="314.30" r="22.31" fill="#cccccc" stroke="#000000" stroke-width="1.00"/>
<circle cx="155.38" cy="212.56" r="22.31" fill="#cccccc" stroke="#000000" stroke-width="1.00"/>
<polygon points="200.00,13.39 13.39,336.61 386.61,336.61" fill="none" stroke="#000000" stroke-width="1.40"/>
</svg>