<svg xmlns="http://www.w3.org/2000/svg" width="400.0" height="350.0" viewBox="0 0 400.0 350.0">
<rect width="400.0" height="350.0" fill="white"/>
<circle cx="73.52" cy="276.44" r="22.07" fill="#cccccc" stroke="#000000" stroke-width="1.00"/>
<circle cx="183.85" cy="314.65" r="22.07" fill="#cccccc" stroke="#000000" stroke-width="1.00"/>
<circle cx="222.07" cy="95.59" r="22.07" fill="#cccccc" stroke="#000000" stroke-width="1.00"/>
<circle cx="222.07" cy="292.59" r="22.07" fill="#cccccc" stroke="#000000" stroke-width="1.00"/>
<circle cx="244.13" cy="133.80" r="22.07" fill="#cccccc" stroke="#000000" stroke-width="1.00"/>
<circle cx="177.93" cy="216.15" r="22.07" fill="#cccccc" stroke="#000000" stroke-width="1.00"/>
<circle cx="139.72" cy="314.65" r="22.07" fill="#cccccc" stroke="#000000" stroke-width="1.00"/>
<circle cx="282.35" cy="200.00" r="22.07" fill="#cccccc" stroke="#000000" stroke-width="1.00"/>
<circle cx="200.00" cy="133.80" r="22.07" fill="#cccccc" stroke="#000000" stroke-width="1.00"/>
<circle cx="200.00" cy="177.93" r="22.07" fill="#cccccc" stroke="#000000" stroke-width="1.00"/>
<circle cx="260.28" cy="238.22" r="22.07" fill="#cccccc" stroke="#000000" stroke-width="1.00"/>
<circle cx="177.93" cy="95.59" r="22.07" fill="#cccccc" stroke="#000000" stroke-width="1.00"/>
<circle cx="304.41" cy="238.22" r="22.07" fill="#cccccc" stroke="#000000" stroke-width="1.00"/>
<circle cx="222.07" cy="216.15" r="22.07" fill="#cccccc" stroke="#000000" stroke-width="1.00"/>
<circle cx="95.59" cy="314.65" r="22.07" fill="#cccccc" stroke="#000000" stroke-width="1.00"/>
<circle cx="155.87" cy="177.93" r="22.07" fill="#cccccc" stroke="#000000" stroke-width="1.00"/>
<circle cx="260.28" cy="314.65" r="22.07" fill="#cccccc" stroke="#000000" stroke-width="1.00"/>
<circle cx="95.59" cy="238.22" r="22.07" fill="#cccccc" stroke="#000000" stroke-width="1.00"/>
<circle cx="139.72" cy="238.22" r="22.07" fill="#cccccc" stroke="#000000" stroke-width="1.00"/>
<circle cx="304.41" cy="314.65" r="22.07" fill="#cccccc" stroke="#000000" stroke-width="1.00"/>
<circle cx="200.00" cy="57.37" r="22.07" fill="#cccccc" stroke="#000000" stroke-width="1.00"/>
<circle cx="117.65" cy="200.00" r="22.07" fill="#cccccc" stroke="#000000" stroke-width="1.00"/>
<circle cx="161.78" cy="276.44" r="22.07" fill="#cccccc" stroke="#000000" stroke-width="1.00"/>
<circle cx="326.48" cy="276.44" r="22.07" fill="#cccccc" stroke="#000000" stroke-width="1.00"/>
<circle cx="51.46" cy="314.65" r="22.07" fill="#cccccc" stroke="#000000" stroke-width="1.00"/>
<circle cx="348.54" cy="314.65" r="22.07" fill="#cccccc" stroke="#000000" stroke-width="1.00"/>
<circle cx="244.13" cy="177.93" r="22.07" fill="#cccccc" stroke="#000000" stroke-width="1.00"/>
<circle cx="282.35" cy="276.44" r="22.07" fill="#cccccc" stroke="#000000" stroke-width="1.00"/>
<circle cx="155.87" cy="133.80" r="22.07" fill="#cccccc" stroke="#000000" stroke-width="1.00"/>
<circle cx="200.00" cy="254.37" r="22.07" fill="#cccccc" stroke="#000000" stroke-width="1.00"/>
<circle cx="117.65" cy="276.44" r="22.07" fill="#cccccc" stroke="#000000" stroke-width="1.00"/>
<polygon points="200.00,13.24 13.24,336.72 386.76,336.72" fill="none" stroke="#000000" stroke-width="1.40"/>
</svg>