<svg xmlns="http://www.w3.org/2000/svg" width="400.0" height="349.9" viewBox="0 0 400.0 349.9">
<rect width="400.0" height="349.9" fill="white"/>
<circle cx="50.57" cy="315.20" r="21.68" fill="#cccccc" stroke="#000000" stroke-width="1.00"/>
<circle cx="93.93" cy="315.20" r="21.68" fill="#cccccc" stroke="#000000" stroke-width="1.00"/>
<circle cx="137.30" cy="315.20" r="21.68" fill="#cccccc" stroke="#000000" stroke-width="1.00"/>
<circle cx="202.70" cy="315.20" r="21.68" fill="#cccccc" stroke="#000000" stroke-width="1.00"/>
<circle cx="246.07" cy="315.20" r="21.68" fill="#cccccc" stroke="#000000" stroke-width="1.00"/>
<circle cx="289.43" cy="315.20" r="21.68" fill="#cccccc" stroke="#000000" stroke-width="1.00"/>
<circle cx="349.43" cy="315.20" r="21.68" fill="#cccccc" stroke="#000000" stroke-width="1.00"/>
<circle cx="72.25" cy="277.65" r="21.68" fill="#cccccc" stroke="#000000" stroke-width="1.00"/>
<circle cx="115.62" cy="277.65" r="21.68" fill="#cccccc" stroke="#000000" stroke-width="1.00"/>
<circle cx="170.00" cy="286.72" r="21.68" fill="#cccccc" stroke="#000000" stroke-width="1.00"/>
<circle cx="224.38" cy="277.65" r="21.68" fill="#cccccc" stroke="#000000" stroke-width="1.00"/>
<circle cx="269.82" cy="276.52" r="21.68" fill="#cccccc" stroke="#000000" stroke-width="1.00"/>
<circle cx="319.43" cy="283.89" r="21.68" fill="#cccccc" stroke="#000000" stroke-width="1.00"/>
<circle cx="93.93" cy="240.09" r="21.68" fill="#cccccc" stroke="#000000" stroke-width="1.00"/>
<circle cx="148.32" cy="249.16" r="21.68" fill="#cccccc" stroke="#000000" stroke-width="1.00"/>
<circle cx="191.68" cy="249.16" r="21.68" fill="#cccccc" stroke="#000000" stroke-width="1.00"/>
<circle cx="246.07" cy="240.09" r="21.68" fill="#cccccc" stroke="#000000" stroke-width="1.00"/>
<circle cx="307.31" cy="242.25" r="21.68" fill="#cccccc" stroke="#000000" stroke-width="1.00"/>
<circle cx="126.63" cy="211.61" r="21.68" fill="#cccccc" stroke="#000000" stroke-width="1.00"/>
<circle cx="170.00" cy="211.61" r="21.68" fill="#cccccc" stroke="#000000" stroke-width="1.00"/>
<circle cx="213.37" cy="211.61" r="21.68" fill="#cccccc" stroke="#000000" stroke-width="1.00"/>
<circle cx="277.77" cy="210.50" r="21.68" fill="#cccccc" stroke="#000000" stroke-width="1.00"/>
<circle cx="134.95" cy="169.05" r="21.68" fill="#cccccc" stroke="#000000" stroke-width="1.00"/>
<circle cx="178.32" cy="169.05" r="21.68" fill="#cccccc" stroke="#000000" stroke-width="1.00"/>
<circle cx="221.68" cy="169.05" r="21.68" fill="#cccccc" stroke="#000000" stroke-width="1.00"/>
<circle cx="265.05" cy="169.05" r="21.68" fill="#cccccc" stroke="#000000" stroke-width="1.00"/>
<circle cx="156.63" cy="131.49" r="21.68" fill="#cccccc" stroke="#000000" stroke-width="1.00"/>
<circle cx="200.00" cy="131.49" r="21.68" fill="#cccccc" stroke="#000000" stroke-width="1.00"/>
<circle cx="243.37" cy="131.49" r="21.68" fill="#cccccc" stroke="#000000" stroke-width="1.00"/>
<circle cx="178.32" cy="93.93" r="21.68" fill="#cccccc" stroke="#000000" stroke-width="1.00"/>
<circle cx="221.68" cy="93.93" r="21.68" fill="#cccccc" stroke="#000000" stroke-width="1.00"/>
<circle cx="200.00" cy="56.38" r="21.68" fill="#cccccc" stroke="#000000" stroke-width="1.00"/>
<polygon points="200.00,13.01 13.01,336.89 386.99,336.89" fill="none" stroke="#000000" stroke-width="1.40"/>
</svg>