<svg xmlns="http://www.w3.org/2000/svg" width="400.0" height="349.9" viewBox="0 0 400.0 349.9">
<rect width="400.0" height="349.9" fill="white"/>
<circle cx="208.90" cy="315.47" r="21.50" fill="#cccccc" stroke="#000000" stroke-width="1.00"/>
<circle cx="178.50" cy="93.13" r="21.50" fill="#cccccc" stroke="#000000" stroke-width="1.00"/>
<circle cx="200.00" cy="204.84" r="21.50" fill="#cccccc" stroke="#000000" stroke-width="1.00"/>
<circle cx="50.13" cy="315.47" r="21.50" fill="#cccccc" stroke="#000000" stroke-width="1.00"/>
<circle cx="120.61" cy="282.41" r="21.50" fill="#cccccc" stroke="#000000" stroke-width="1.00"/>
<circle cx="135.51" cy="167.60" r="21.50" fill="#cccccc" stroke="#000000" stroke-width="1.00"/>
<circle cx="306.87" cy="315.47" r="21.50" fill="#cccccc" stroke="#000000" stroke-width="1.00"/>
<circle cx="142.24" cy="245.24" r="21.50" fill="#cccccc" stroke="#000000" stroke-width="1.00"/>
<circle cx="300.88" cy="245.17" r="21.50" fill="#cccccc" stroke="#000000" stroke-width="1.00"/>
<circle cx="328.37" cy="278.23" r="21.50" fill="#cccccc" stroke="#000000" stroke-width="1.00"/>
<circle cx="221.50" cy="93.13" r="21.50" fill="#cccccc" stroke="#000000" stroke-width="1.00"/>
<circle cx="200.00" cy="55.89" r="21.50" fill="#cccccc" stroke="#000000" stroke-width="1.00"/>
<circle cx="71.63" cy="278.23" r="21.50" fill="#cccccc" stroke="#000000" stroke-width="1.00"/>
<circle cx="157.00" cy="204.85" r="21.50" fill="#cccccc" stroke="#000000" stroke-width="1.00"/>
<circle cx="230.40" cy="278.23" r="21.50" fill="#cccccc" stroke="#000000" stroke-width="1.00"/>
<circle cx="251.90" cy="315.47" r="21.50" fill="#cccccc" stroke="#000000" stroke-width="1.00"/>
<circle cx="178.50" cy="167.60" r="21.50" fill="#cccccc" stroke="#000000" stroke-width="1.00"/>
<circle cx="200.00" cy="130.37" r="21.50" fill="#cccccc" stroke="#000000" stroke-width="1.00"/>
<circle cx="99.12" cy="245.17" r="21.50" fill="#cccccc" stroke="#000000" stroke-width="1.00"/>
<circle cx="178.50" cy="285.07" r="21.50" fill="#cccccc" stroke="#000000" stroke-width="1.00"/>
<circle cx="148.10" cy="315.47" r="21.50" fill="#cccccc" stroke="#000000" stroke-width="1.00"/>
<circle cx="257.89" cy="245.17" r="21.50" fill="#cccccc" stroke="#000000" stroke-width="1.00"/>
<circle cx="114.01" cy="204.84" r="21.50" fill="#cccccc" stroke="#000000" stroke-width="1.00"/>
<circle cx="349.87" cy="315.47" r="21.50" fill="#cccccc" stroke="#000000" stroke-width="1.00"/>
<circle cx="221.50" cy="167.60" r="21.50" fill="#cccccc" stroke="#000000" stroke-width="1.00"/>
<circle cx="200.00" cy="247.83" r="21.50" fill="#cccccc" stroke="#000000" stroke-width="1.00"/>
<circle cx="243.00" cy="204.84" r="21.50" fill="#cccccc" stroke="#000000" stroke-width="1.00"/>
<circle cx="243.00" cy="130.37" r="21.50" fill="#cccccc" stroke="#000000" stroke-width="1.00"/>
<circle cx="279.39" cy="282.41" r="21.50" fill="#cccccc" stroke="#000000" stroke-width="1.00"/>
<circle cx="157.00" cy="130.37" r="21.50" fill="#cccccc" stroke="#000000" stroke-width="1.00"/>
<circle cx="93.13" cy="315.47" r="21.50" fill="#cccccc" stroke="#000000" stroke-width="1.00"/>
<circle cx="285.99" cy="204.84" r="21.50" fill="#cccccc" stroke="#000000" stroke-width="1.00"/>
<circle cx="264.49" cy="167.60" r="21.50" fill="#cccccc" stroke="#000000" stroke-width="1.00"/>
<polygon points="200.00,12.90 12.90,336.97 387.10,336.97" fill="none" stroke="#000000" stroke-width="1.40"/>
</svg>