<svg xmlns="http://www.w3.org/2000/svg" width="400.0" height="349.9" viewBox="0 0 400.0 349.9">
<rect width="400.0" height="349.9" fill="white"/>
<circle cx="194.16" cy="208.23" r="21.43" fill="#cccccc" stroke="#000000" stroke-width="1.00"/>
<circle cx="93.76" cy="239.74" r="21.43" fill="#cccccc" stroke="#000000" stroke-width="1.00"/>
<circle cx="160.39" cy="234.64" r="21.43" fill="#cccccc" stroke="#000000" stroke-width="1.00"/>
<circle cx="125.03" cy="210.41" r="21.43" fill="#cccccc" stroke="#000000" stroke-width="1.00"/>
<circle cx="49.98" cy="315.56" r="21.43" fill="#cccccc" stroke="#000000" stroke-width="1.00"/>
<circle cx="200.00" cy="55.73" r="21.43" fill="#cccccc" stroke="#000000" stroke-width="1.00"/>
<circle cx="199.07" cy="130.49" r="21.43" fill="#cccccc" stroke="#000000" stroke-width="1.00"/>
<circle cx="114.27" cy="277.38" r="21.43" fill="#cccccc" stroke="#000000" stroke-width="1.00"/>
<circle cx="156.22" cy="131.55" r="21.43" fill="#cccccc" stroke="#000000" stroke-width="1.00"/>
<circle cx="241.94" cy="130.49" r="21.43" fill="#cccccc" stroke="#000000" stroke-width="1.00"/>
<circle cx="135.70" cy="314.50" r="21.43" fill="#cccccc" stroke="#000000" stroke-width="1.00"/>
<circle cx="350.02" cy="315.56" r="21.43" fill="#cccccc" stroke="#000000" stroke-width="1.00"/>
<circle cx="134.79" cy="168.67" r="21.43" fill="#cccccc" stroke="#000000" stroke-width="1.00"/>
<circle cx="178.55" cy="315.56" r="21.43" fill="#cccccc" stroke="#000000" stroke-width="1.00"/>
<circle cx="221.43" cy="92.85" r="21.43" fill="#cccccc" stroke="#000000" stroke-width="1.00"/>
<circle cx="157.13" cy="277.38" r="21.43" fill="#cccccc" stroke="#000000" stroke-width="1.00"/>
<circle cx="92.85" cy="315.56" r="21.43" fill="#cccccc" stroke="#000000" stroke-width="1.00"/>
<circle cx="264.29" cy="167.07" r="21.43" fill="#cccccc" stroke="#000000" stroke-width="1.00"/>
<circle cx="220.51" cy="167.61" r="21.43" fill="#cccccc" stroke="#000000" stroke-width="1.00"/>
<circle cx="178.57" cy="92.85" r="21.43" fill="#cccccc" stroke="#000000" stroke-width="1.00"/>
<circle cx="71.42" cy="278.44" r="21.43" fill="#cccccc" stroke="#000000" stroke-width="1.00"/>
<circle cx="177.65" cy="168.67" r="21.43" fill="#cccccc" stroke="#000000" stroke-width="1.00"/>
<circle cx="307.15" cy="315.56" r="21.43" fill="#cccccc" stroke="#000000" stroke-width="1.00"/>
<circle cx="328.58" cy="278.44" r="21.43" fill="#cccccc" stroke="#000000" stroke-width="1.00"/>
<circle cx="221.42" cy="315.56" r="21.43" fill="#cccccc" stroke="#000000" stroke-width="1.00"/>
<circle cx="285.72" cy="204.19" r="21.43" fill="#cccccc" stroke="#000000" stroke-width="1.00"/>
<circle cx="221.42" cy="241.32" r="21.43" fill="#cccccc" stroke="#000000" stroke-width="1.00"/>
<circle cx="264.29" cy="315.56" r="21.43" fill="#cccccc" stroke="#000000" stroke-width="1.00"/>
<circle cx="242.85" cy="204.19" r="21.43" fill="#cccccc" stroke="#000000" stroke-width="1.00"/>
<circle cx="307.15" cy="241.32" r="21.43" fill="#cccccc" stroke="#000000" stroke-width="1.00"/>
<circle cx="199.99" cy="278.44" r="21.43" fill="#cccccc" stroke="#000000" stroke-width="1.00"/>
<circle cx="285.72" cy="278.44" r="21.43" fill="#cccccc" stroke="#000000" stroke-width="1.00"/>
<circle cx="264.29" cy="241.32" r="21.43" fill="#cccccc" stroke="#000000" stroke-width="1.00"/>
<circle cx="242.85" cy="278.44" r="21.43" fill="#cccccc" stroke="#000000" stroke-width="1.00"/>
<polygon points="200.00,12.86 12.86,337.00 387.14,337.00" fill="none" stroke="#000000" stroke-width="1.40"/>
</svg>