<svg xmlns="http://www.w3.org/2000/svg" width="400.0" height="349.9" viewBox="0 0 400.0 349.9">
<rect width="400.0" height="349.9" fill="white"/>
<circle cx="264.29" cy="315.57" r="21.43" fill="#cccccc" stroke="#000000" stroke-width="1.00"/>
<circle cx="178.57" cy="241.32" r="21.43" fill="#cccccc" stroke="#000000" stroke-width="1.00"/>
<circle cx="71.41" cy="278.44" r="21.43" fill="#cccccc" stroke="#000000" stroke-width="1.00"/>
<circle cx="350.02" cy="315.57" r="21.43" fill="#cccccc" stroke="#000000" stroke-width="1.00"/>
<circle cx="307.16" cy="241.32" r="21.43" fill="#cccccc" stroke="#000000" stroke-width="1.00"/>
<circle cx="264.29" cy="241.32" r="21.43" fill="#cccccc" stroke="#000000" stroke-width="1.00"/>
<circle cx="178.57" cy="92.84" r="21.43" fill="#cccccc" stroke="#000000" stroke-width="1.00"/>
<circle cx="285.73" cy="204.20" r="21.43" fill="#cccccc" stroke="#000000" stroke-width="1.00"/>
<circle cx="135.71" cy="315.57" r="21.43" fill="#cccccc" stroke="#000000" stroke-width="1.00"/>
<circle cx="135.71" cy="167.08" r="21.43" fill="#cccccc" stroke="#000000" stroke-width="1.00"/>
<circle cx="114.27" cy="278.44" r="21.43" fill="#cccccc" stroke="#000000" stroke-width="1.00"/>
<circle cx="200.00" cy="278.44" r="21.43" fill="#cccccc" stroke="#000000" stroke-width="1.00"/>
<circle cx="157.14" cy="204.20" r="21.43" fill="#cccccc" stroke="#000000" stroke-width="1.00"/>
<circle cx="178.57" cy="167.08" r="21.43" fill="#cccccc" stroke="#000000" stroke-width="1.00"/>
<circle cx="307.16" cy="315.57" r="21.43" fill="#cccccc" stroke="#000000" stroke-width="1.00"/>
<circle cx="221.43" cy="167.08" r="21.43" fill="#cccccc" stroke="#000000" stroke-width="1.00"/>
<circle cx="285.73" cy="278.44" r="21.43" fill="#cccccc" stroke="#000000" stroke-width="1.00"/>
<circle cx="221.43" cy="92.84" r="21.43" fill="#cccccc" stroke="#000000" stroke-width="1.00"/>
<circle cx="200.00" cy="55.72" r="21.43" fill="#cccccc" stroke="#000000" stroke-width="1.00"/>
<circle cx="242.86" cy="204.20" r="21.43" fill="#cccccc" stroke="#000000" stroke-width="1.00"/>
<circle cx="92.84" cy="315.57" r="21.43" fill="#cccccc" stroke="#000000" stroke-width="1.00"/>
<circle cx="200.00" cy="204.20" r="21.43" fill="#cccccc" stroke="#000000" stroke-width="1.00"/>
<circle cx="114.27" cy="204.20" r="21.43" fill="#cccccc" stroke="#000000" stroke-width="1.00"/>
<circle cx="221.43" cy="315.57" r="21.43" fill="#cccccc" stroke="#000000" stroke-width="1.00"/>
<circle cx="242.86" cy="129.96" r="21.43" fill="#cccccc" stroke="#000000" stroke-width="1.00"/>
<circle cx="200.00" cy="129.96" r="21.43" fill="#cccccc" stroke="#000000" stroke-width="1.00"/>
<circle cx="264.29" cy="167.08" r="21.43" fill="#cccccc" stroke="#000000" stroke-width="1.00"/>
<circle cx="157.14" cy="278.44" r="21.43" fill="#cccccc" stroke="#000000" stroke-width="1.00"/>
<circle cx="242.86" cy="278.44" r="21.43" fill="#cccccc" stroke="#000000" stroke-width="1.00"/>
<circle cx="178.57" cy="315.57" r="21.43" fill="#cccccc" stroke="#000000" stroke-width="1.00"/>
<circle cx="221.43" cy="241.32" r="21.43" fill="#cccccc" stroke="#000000" stroke-width="1.00"/>
<circle cx="157.14" cy="129.96" r="21.43" fill="#cccccc" stroke="#000000" stroke-width="1.00"/>
<circle cx="328.59" cy="278.44" r="21.43" fill="#cccccc" stroke="#000000" stroke-width="1.00"/>
<circle cx="92.84" cy="241.32" r="21.43" fill="#cccccc" stroke="#000000" stroke-width="1.00"/>
<circle cx="135.71" cy="241.32" r="21.43" fill="#cccccc" stroke="#000000" stroke-width="1.00"/>
<polygon points="200.00,12.86 12.86,337.00 387.14,337.00" fill="none" stroke="#000000" stroke-width="1.40"/>
</svg>