<svg xmlns="http://www.w3.org/2000/svg" width="400.0" height="349.7" viewBox="0 0 400.0 349.7">
<rect width="400.0" height="349.7" fill="white"/>
<circle cx="283.93" cy="224.80" r="20.27" fill="#cccccc" stroke="#000000" stroke-width="1.00"/>
<circle cx="189.18" cy="282.12" r="20.27" fill="#cccccc" stroke="#000000" stroke-width="1.00"/>
<circle cx="47.28" cy="317.23" r="20.27" fill="#cccccc" stroke="#000000" stroke-width="1.00"/>
<circle cx="209.46" cy="317.23" r="20.27" fill="#cccccc" stroke="#000000" stroke-width="1.00"/>
<circle cx="148.64" cy="211.89" r="20.27" fill="#cccccc" stroke="#000000" stroke-width="1.00"/>
<circle cx="168.91" cy="106.56" r="20.27" fill="#cccccc" stroke="#000000" stroke-width="1.00"/>
<circle cx="245.65" cy="158.50" r="20.27" fill="#cccccc" stroke="#000000" stroke-width="1.00"/>
<circle cx="108.09" cy="211.89" r="20.27" fill="#cccccc" stroke="#000000" stroke-width="1.00"/>
<circle cx="250.00" cy="317.23" r="20.27" fill="#cccccc" stroke="#000000" stroke-width="1.00"/>
<circle cx="206.99" cy="92.65" r="20.27" fill="#cccccc" stroke="#000000" stroke-width="1.00"/>
<circle cx="168.91" cy="247.01" r="20.27" fill="#cccccc" stroke="#000000" stroke-width="1.00"/>
<circle cx="189.18" cy="211.89" r="20.27" fill="#cccccc" stroke="#000000" stroke-width="1.00"/>
<circle cx="276.36" cy="184.97" r="20.27" fill="#cccccc" stroke="#000000" stroke-width="1.00"/>
<circle cx="209.46" cy="247.01" r="20.27" fill="#cccccc" stroke="#000000" stroke-width="1.00"/>
<circle cx="148.64" cy="282.12" r="20.27" fill="#cccccc" stroke="#000000" stroke-width="1.00"/>
<circle cx="194.13" cy="139.22" r="20.27" fill="#cccccc" stroke="#000000" stroke-width="1.00"/>
<circle cx="67.55" cy="282.12" r="20.27" fill="#cccccc" stroke="#000000" stroke-width="1.00"/>
<circle cx="314.64" cy="251.27" r="20.27" fill="#cccccc" stroke="#000000" stroke-width="1.00"/>
<circle cx="229.73" cy="282.12" r="20.27" fill="#cccccc" stroke="#000000" stroke-width="1.00"/>
<circle cx="352.72" cy="317.23" r="20.27" fill="#cccccc" stroke="#000000" stroke-width="1.00"/>
<circle cx="281.74" cy="274.98" r="20.27" fill="#cccccc" stroke="#000000" stroke-width="1.00"/>
<circle cx="238.08" cy="118.67" r="20.27" fill="#cccccc" stroke="#000000" stroke-width="1.00"/>
<circle cx="209.46" cy="176.78" r="20.27" fill="#cccccc" stroke="#000000" stroke-width="1.00"/>
<circle cx="321.63" cy="291.21" r="20.27" fill="#cccccc" stroke="#000000" stroke-width="1.00"/>
<circle cx="168.91" cy="317.23" r="20.27" fill="#cccccc" stroke="#000000" stroke-width="1.00"/>
<circle cx="239.92" cy="207.28" r="20.27" fill="#cccccc" stroke="#000000" stroke-width="1.00"/>
<circle cx="148.64" cy="141.67" r="20.27" fill="#cccccc" stroke="#000000" stroke-width="1.00"/>
<circle cx="200.00" cy="52.71" r="20.27" fill="#cccccc" stroke="#000000" stroke-width="1.00"/>
<circle cx="250.00" cy="247.01" r="20.27" fill="#cccccc" stroke="#000000" stroke-width="1.00"/>
<circle cx="128.37" cy="247.01" r="20.27" fill="#cccccc" stroke="#000000" stroke-width="1.00"/>
<circle cx="128.37" cy="317.23" r="20.27" fill="#cccccc" stroke="#000000" stroke-width="1.00"/>
<circle cx="168.91" cy="176.78" r="20.27" fill="#cccccc" stroke="#000000" stroke-width="1.00"/>
<circle cx="128.37" cy="176.78" r="20.27" fill="#cccccc" stroke="#000000" stroke-width="1.00"/>
<circle cx="87.82" cy="317.23" r="20.27" fill="#cccccc" stroke="#000000" stroke-width="1.00"/>
<circle cx="290.55" cy="317.23" r="20.27" fill="#cccccc" stroke="#000000" stroke-width="1.00"/>
<circle cx="108.09" cy="282.12" r="20.27" fill="#cccccc" stroke="#000000" stroke-width="1.00"/>
<circle cx="87.82" cy="247.01" r="20.27" fill="#cccccc" stroke="#000000" stroke-width="1.00"/>
<polygon points="200.00,12.16 12.16,337.51 387.84,337.51" fill="none" stroke="#000000" stroke-width="1.40"/>
</svg>