<svg xmlns="http://www.w3.org/2000/svg" width="400.0" height="349.6" viewBox="0 0 400.0 349.6">
<rect width="400.0" height="349.6" fill="white"/>
<circle cx="333.13" cy="282.76" r="20.07" fill="#cccccc" stroke="#000000" stroke-width="1.00"/>
<circle cx="86.94" cy="317.52" r="20.07" fill="#cccccc" stroke="#000000" stroke-width="1.00"/>
<circle cx="313.06" cy="248.00" r="20.07" fill="#cccccc" stroke="#000000" stroke-width="1.00"/>
<circle cx="107.02" cy="282.76" r="20.07" fill="#cccccc" stroke="#000000" stroke-width="1.00"/>
<circle cx="232.39" cy="247.77" r="20.07" fill="#cccccc" stroke="#000000" stroke-width="1.00"/>
<circle cx="272.91" cy="317.52" r="20.07" fill="#cccccc" stroke="#000000" stroke-width="1.00"/>
<circle cx="292.98" cy="282.76" r="20.07" fill="#cccccc" stroke="#000000" stroke-width="1.00"/>
<circle cx="179.93" cy="259.59" r="20.07" fill="#cccccc" stroke="#000000" stroke-width="1.00"/>
<circle cx="232.77" cy="178.47" r="20.07" fill="#cccccc" stroke="#000000" stroke-width="1.00"/>
<circle cx="353.20" cy="317.52" r="20.07" fill="#cccccc" stroke="#000000" stroke-width="1.00"/>
<circle cx="252.84" cy="213.24" r="20.07" fill="#cccccc" stroke="#000000" stroke-width="1.00"/>
<circle cx="200.00" cy="52.18" r="20.07" fill="#cccccc" stroke="#000000" stroke-width="1.00"/>
<circle cx="46.80" cy="317.52" r="20.07" fill="#cccccc" stroke="#000000" stroke-width="1.00"/>
<circle cx="139.79" cy="259.59" r="20.07" fill="#cccccc" stroke="#000000" stroke-width="1.00"/>
<circle cx="220.07" cy="86.94" r="20.07" fill="#cccccc" stroke="#000000" stroke-width="1.00"/>
<circle cx="252.84" cy="143.71" r="20.07" fill="#cccccc" stroke="#000000" stroke-width="1.00"/>
<circle cx="292.98" cy="213.24" r="20.07" fill="#cccccc" stroke="#000000" stroke-width="1.00"/>
<circle cx="232.77" cy="317.52" r="20.07" fill="#cccccc" stroke="#000000" stroke-width="1.00"/>
<circle cx="196.32" cy="161.68" r="20.07" fill="#cccccc" stroke="#000000" stroke-width="1.00"/>
<circle cx="159.86" cy="224.82" r="20.07" fill="#cccccc" stroke="#000000" stroke-width="1.00"/>
<circle cx="66.87" cy="282.76" r="20.07" fill="#cccccc" stroke="#000000" stroke-width="1.00"/>
<circle cx="176.25" cy="126.92" r="20.07" fill="#cccccc" stroke="#000000" stroke-width="1.00"/>
<circle cx="216.39" cy="126.92" r="20.07" fill="#cccccc" stroke="#000000" stroke-width="1.00"/>
<circle cx="252.84" cy="282.76" r="20.07" fill="#cccccc" stroke="#000000" stroke-width="1.00"/>
<circle cx="212.70" cy="282.76" r="20.07" fill="#cccccc" stroke="#000000" stroke-width="1.00"/>
<circle cx="179.93" cy="86.94" r="20.07" fill="#cccccc" stroke="#000000" stroke-width="1.00"/>
<circle cx="163.54" cy="184.85" r="20.07" fill="#cccccc" stroke="#000000" stroke-width="1.00"/>
<circle cx="159.86" cy="294.35" r="20.07" fill="#cccccc" stroke="#000000" stroke-width="1.00"/>
<circle cx="192.63" cy="317.52" r="20.07" fill="#cccccc" stroke="#000000" stroke-width="1.00"/>
<circle cx="143.47" cy="150.09" r="20.07" fill="#cccccc" stroke="#000000" stroke-width="1.00"/>
<circle cx="211.32" cy="213.07" r="20.07" fill="#cccccc" stroke="#000000" stroke-width="1.00"/>
<circle cx="272.91" cy="178.47" r="20.07" fill="#cccccc" stroke="#000000" stroke-width="1.00"/>
<circle cx="127.09" cy="317.52" r="20.07" fill="#cccccc" stroke="#000000" stroke-width="1.00"/>
<circle cx="272.91" cy="248.00" r="20.07" fill="#cccccc" stroke="#000000" stroke-width="1.00"/>
<circle cx="123.40" cy="184.85" r="20.07" fill="#cccccc" stroke="#000000" stroke-width="1.00"/>
<circle cx="86.94" cy="248.00" r="20.07" fill="#cccccc" stroke="#000000" stroke-width="1.00"/>
<circle cx="119.72" cy="224.82" r="20.07" fill="#cccccc" stroke="#000000" stroke-width="1.00"/>
<circle cx="313.06" cy="317.52" r="20.07" fill="#cccccc" stroke="#000000" stroke-width="1.00"/>
<polygon points="200.00,12.04 12.04,337.59 387.96,337.59" fill="none" stroke="#000000" stroke-width="1.40"/>
</svg>