<svg xmlns="http://www.w3.org/2000/svg" width="400.0" height="349.6" viewBox="0 0 400.0 349.6">
<rect width="400.0" height="349.6" fill="white"/>
<circle cx="165.61" cy="317.80" r="19.88" fill="#cccccc" stroke="#000000" stroke-width="1.00"/>
<circle cx="239.75" cy="229.01" r="19.88" fill="#cccccc" stroke="#000000" stroke-width="1.00"/>
<circle cx="219.88" cy="86.11" r="19.88" fill="#cccccc" stroke="#000000" stroke-width="1.00"/>
<circle cx="353.65" cy="317.80" r="19.88" fill="#cccccc" stroke="#000000" stroke-width="1.00"/>
<circle cx="196.51" cy="231.27" r="19.88" fill="#cccccc" stroke="#000000" stroke-width="1.00"/>
<circle cx="46.35" cy="317.80" r="19.88" fill="#cccccc" stroke="#000000" stroke-width="1.00"/>
<circle cx="185.49" cy="283.38" r="19.88" fill="#cccccc" stroke="#000000" stroke-width="1.00"/>
<circle cx="279.51" cy="229.01" r="19.88" fill="#cccccc" stroke="#000000" stroke-width="1.00"/>
<circle cx="86.11" cy="317.80" r="19.88" fill="#cccccc" stroke="#000000" stroke-width="1.00"/>
<circle cx="313.89" cy="248.95" r="19.88" fill="#cccccc" stroke="#000000" stroke-width="1.00"/>
<circle cx="205.36" cy="317.80" r="19.88" fill="#cccccc" stroke="#000000" stroke-width="1.00"/>
<circle cx="86.11" cy="248.95" r="19.88" fill="#cccccc" stroke="#000000" stroke-width="1.00"/>
<circle cx="118.44" cy="192.95" r="19.88" fill="#cccccc" stroke="#000000" stroke-width="1.00"/>
<circle cx="178.07" cy="158.52" r="19.88" fill="#cccccc" stroke="#000000" stroke-width="1.00"/>
<circle cx="219.88" cy="263.44" r="19.88" fill="#cccccc" stroke="#000000" stroke-width="1.00"/>
<circle cx="313.89" cy="317.80" r="19.88" fill="#cccccc" stroke="#000000" stroke-width="1.00"/>
<circle cx="180.12" cy="86.11" r="19.88" fill="#cccccc" stroke="#000000" stroke-width="1.00"/>
<circle cx="259.63" cy="263.44" r="19.88" fill="#cccccc" stroke="#000000" stroke-width="1.00"/>
<circle cx="125.86" cy="317.80" r="19.88" fill="#cccccc" stroke="#000000" stroke-width="1.00"/>
<circle cx="159.81" cy="193.83" r="19.88" fill="#cccccc" stroke="#000000" stroke-width="1.00"/>
<circle cx="66.23" cy="283.38" r="19.88" fill="#cccccc" stroke="#000000" stroke-width="1.00"/>
<circle cx="237.62" cy="121.68" r="19.88" fill="#cccccc" stroke="#000000" stroke-width="1.00"/>
<circle cx="259.56" cy="154.83" r="19.88" fill="#cccccc" stroke="#000000" stroke-width="1.00"/>
<circle cx="239.75" cy="297.86" r="19.88" fill="#cccccc" stroke="#000000" stroke-width="1.00"/>
<circle cx="200.00" cy="191.67" r="19.88" fill="#cccccc" stroke="#000000" stroke-width="1.00"/>
<circle cx="200.00" cy="51.68" r="19.88" fill="#cccccc" stroke="#000000" stroke-width="1.00"/>
<circle cx="138.31" cy="158.52" r="19.88" fill="#cccccc" stroke="#000000" stroke-width="1.00"/>
<circle cx="279.43" cy="189.26" r="19.88" fill="#cccccc" stroke="#000000" stroke-width="1.00"/>
<circle cx="239.68" cy="189.26" r="19.88" fill="#cccccc" stroke="#000000" stroke-width="1.00"/>
<circle cx="159.64" cy="246.14" r="19.88" fill="#cccccc" stroke="#000000" stroke-width="1.00"/>
<circle cx="145.73" cy="283.38" r="19.88" fill="#cccccc" stroke="#000000" stroke-width="1.00"/>
<circle cx="122.30" cy="232.51" r="19.88" fill="#cccccc" stroke="#000000" stroke-width="1.00"/>
<circle cx="158.19" cy="124.09" r="19.88" fill="#cccccc" stroke="#000000" stroke-width="1.00"/>
<circle cx="105.98" cy="283.38" r="19.88" fill="#cccccc" stroke="#000000" stroke-width="1.00"/>
<circle cx="274.14" cy="317.80" r="19.88" fill="#cccccc" stroke="#000000" stroke-width="1.00"/>
<circle cx="333.77" cy="283.38" r="19.88" fill="#cccccc" stroke="#000000" stroke-width="1.00"/>
<circle cx="217.75" cy="156.10" r="19.88" fill="#cccccc" stroke="#000000" stroke-width="1.00"/>
<circle cx="197.87" cy="121.68" r="19.88" fill="#cccccc" stroke="#000000" stroke-width="1.00"/>
<circle cx="294.02" cy="283.38" r="19.88" fill="#cccccc" stroke="#000000" stroke-width="1.00"/>
<polygon points="200.00,11.93 11.93,337.68 388.07,337.68" fill="none" stroke="#000000" stroke-width="1.40"/>
</svg>