<svg xmlns="http://www.w3.org/2000/svg" width="400.0" height="349.6" viewBox="0 0 400.0 349.6">
<rect width="400.0" height="349.6" fill="white"/>
<circle cx="46.34" cy="317.81" r="19.87" fill="#cccccc" stroke="#000000" stroke-width="1.00"/>
<circle cx="86.09" cy="317.81" r="19.87" fill="#cccccc" stroke="#000000" stroke-width="1.00"/>
<circle cx="66.22" cy="283.39" r="19.87" fill="#cccccc" stroke="#000000" stroke-width="1.00"/>
<circle cx="125.83" cy="317.81" r="19.87" fill="#cccccc" stroke="#000000" stroke-width="1.00"/>
<circle cx="105.96" cy="283.39" r="19.87" fill="#cccccc" stroke="#000000" stroke-width="1.00"/>
<circle cx="86.09" cy="248.97" r="19.87" fill="#cccccc" stroke="#000000" stroke-width="1.00"/>
<circle cx="165.58" cy="317.81" r="19.87" fill="#cccccc" stroke="#000000" stroke-width="1.00"/>
<circle cx="145.71" cy="283.39" r="19.87" fill="#cccccc" stroke="#000000" stroke-width="1.00"/>
<circle cx="125.83" cy="248.97" r="19.87" fill="#cccccc" stroke="#000000" stroke-width="1.00"/>
<circle cx="105.96" cy="214.55" r="19.87" fill="#cccccc" stroke="#000000" stroke-width="1.00"/>
<circle cx="353.66" cy="317.81" r="19.87" fill="#cccccc" stroke="#000000" stroke-width="1.00"/>
<circle cx="313.91" cy="317.81" r="19.87" fill="#cccccc" stroke="#000000" stroke-width="1.00"/>
<circle cx="333.78" cy="283.39" r="19.87" fill="#cccccc" stroke="#000000" stroke-width="1.00"/>
<circle cx="274.17" cy="317.81" r="19.87" fill="#cccccc" stroke="#000000" stroke-width="1.00"/>
<circle cx="294.04" cy="283.39" r="19.87" fill="#cccccc" stroke="#000000" stroke-width="1.00"/>
<circle cx="313.91" cy="248.97" r="19.87" fill="#cccccc" stroke="#000000" stroke-width="1.00"/>
<circle cx="234.42" cy="317.81" r="19.87" fill="#cccccc" stroke="#000000" stroke-width="1.00"/>
<circle cx="254.29" cy="283.39" r="19.87" fill="#cccccc" stroke="#000000" stroke-width="1.00"/>
<circle cx="274.17" cy="248.97" r="19.87" fill="#cccccc" stroke="#000000" stroke-width="1.00"/>
<circle cx="294.04" cy="214.55" r="19.87" fill="#cccccc" stroke="#000000" stroke-width="1.00"/>
<circle cx="200.00" cy="51.67" r="19.87" fill="#cccccc" stroke="#000000" stroke-width="1.00"/>
<circle cx="180.13" cy="86.09" r="19.87" fill="#cccccc" stroke="#000000" stroke-width="1.00"/>
<circle cx="219.87" cy="86.09" r="19.87" fill="#cccccc" stroke="#000000" stroke-width="1.00"/>
<circle cx="160.25" cy="120.51" r="19.87" fill="#cccccc" stroke="#000000" stroke-width="1.00"/>
<circle cx="200.00" cy="120.51" r="19.87" fill="#cccccc" stroke="#000000" stroke-width="1.00"/>
<circle cx="239.75" cy="120.51" r="19.87" fill="#cccccc" stroke="#000000" stroke-width="1.00"/>
<circle cx="140.38" cy="154.93" r="19.87" fill="#cccccc" stroke="#000000" stroke-width="1.00"/>
<circle cx="180.13" cy="154.93" r="19.87" fill="#cccccc" stroke="#000000" stroke-width="1.00"/>
<circle cx="219.87" cy="154.93" r="19.87" fill="#cccccc" stroke="#000000" stroke-width="1.00"/>
<circle cx="259.62" cy="154.93" r="19.87" fill="#cccccc" stroke="#000000" stroke-width="1.00"/>
<circle cx="259.62" cy="194.68" r="19.87" fill="#cccccc" stroke="#000000" stroke-width="1.00"/>
<circle cx="239.75" cy="229.10" r="19.87" fill="#cccccc" stroke="#000000" stroke-width="1.00"/>
<circle cx="219.87" cy="194.68" r="19.87" fill="#cccccc" stroke="#000000" stroke-width="1.00"/>
<circle cx="219.87" cy="263.52" r="19.87" fill="#cccccc" stroke="#000000" stroke-width="1.00"/>
<circle cx="200.00" cy="229.10" r="19.87" fill="#cccccc" stroke="#000000" stroke-width="1.00"/>
<circle cx="180.13" cy="194.68" r="19.87" fill="#cccccc" stroke="#000000" stroke-width="1.00"/>
<circle cx="200.00" cy="297.94" r="19.87" fill="#cccccc" stroke="#000000" stroke-width="1.00"/>
<circle cx="180.13" cy="263.52" r="19.87" fill="#cccccc" stroke="#000000" stroke-width="1.00"/>
<circle cx="160.25" cy="229.10" r="19.87" fill="#cccccc" stroke="#000000" stroke-width="1.00"/>
<circle cx="140.38" cy="194.68" r="19.87" fill="#cccccc" stroke="#000000" stroke-width="1.00"/>
<polygon points="200.00,11.92 11.92,337.68 388.08,337.68" fill="none" stroke="#000000" stroke-width="1.40"/>
</svg>