<svg xmlns="http://www.w3.org/2000/svg" width="400.0" height="349.5" viewBox="0 0 400.0 349.5">
<rect width="400.0" height="349.5" fill="white"/>
<circle cx="180.55" cy="151.62" r="19.45" fill="#cccccc" stroke="#000000" stroke-width="1.00"/>
<circle cx="130.04" cy="188.75" r="19.45" fill="#cccccc" stroke="#000000" stroke-width="1.00"/>
<circle cx="161.10" cy="117.94" r="19.45" fill="#cccccc" stroke="#000000" stroke-width="1.00"/>
<circle cx="141.65" cy="151.62" r="19.45" fill="#cccccc" stroke="#000000" stroke-width="1.00"/>
<circle cx="200.00" cy="50.57" r="19.45" fill="#cccccc" stroke="#000000" stroke-width="1.00"/>
<circle cx="180.55" cy="84.25" r="19.45" fill="#cccccc" stroke="#000000" stroke-width="1.00"/>
<circle cx="200.00" cy="117.94" r="19.45" fill="#cccccc" stroke="#000000" stroke-width="1.00"/>
<circle cx="219.45" cy="84.25" r="19.45" fill="#cccccc" stroke="#000000" stroke-width="1.00"/>
<circle cx="84.25" cy="251.05" r="19.45" fill="#cccccc" stroke="#000000" stroke-width="1.00"/>
<circle cx="276.85" cy="318.42" r="19.45" fill="#cccccc" stroke="#000000" stroke-width="1.00"/>
<circle cx="103.70" cy="284.73" r="19.45" fill="#cccccc" stroke="#000000" stroke-width="1.00"/>
<circle cx="142.60" cy="284.73" r="19.45" fill="#cccccc" stroke="#000000" stroke-width="1.00"/>
<circle cx="123.15" cy="318.42" r="19.45" fill="#cccccc" stroke="#000000" stroke-width="1.00"/>
<circle cx="237.96" cy="318.42" r="19.45" fill="#cccccc" stroke="#000000" stroke-width="1.00"/>
<circle cx="64.80" cy="284.73" r="19.45" fill="#cccccc" stroke="#000000" stroke-width="1.00"/>
<circle cx="162.04" cy="318.42" r="19.45" fill="#cccccc" stroke="#000000" stroke-width="1.00"/>
<circle cx="200.00" cy="309.91" r="19.45" fill="#cccccc" stroke="#000000" stroke-width="1.00"/>
<circle cx="45.35" cy="318.42" r="19.45" fill="#cccccc" stroke="#000000" stroke-width="1.00"/>
<circle cx="84.25" cy="318.42" r="19.45" fill="#cccccc" stroke="#000000" stroke-width="1.00"/>
<circle cx="238.90" cy="117.94" r="19.45" fill="#cccccc" stroke="#000000" stroke-width="1.00"/>
<circle cx="354.65" cy="318.42" r="19.45" fill="#cccccc" stroke="#000000" stroke-width="1.00"/>
<circle cx="258.35" cy="151.62" r="19.45" fill="#cccccc" stroke="#000000" stroke-width="1.00"/>
<circle cx="269.96" cy="188.75" r="19.45" fill="#cccccc" stroke="#000000" stroke-width="1.00"/>
<circle cx="296.30" cy="284.73" r="19.45" fill="#cccccc" stroke="#000000" stroke-width="1.00"/>
<circle cx="335.20" cy="284.73" r="19.45" fill="#cccccc" stroke="#000000" stroke-width="1.00"/>
<circle cx="234.15" cy="203.94" r="19.45" fill="#cccccc" stroke="#000000" stroke-width="1.00"/>
<circle cx="296.30" cy="217.36" r="19.45" fill="#cccccc" stroke="#000000" stroke-width="1.00"/>
<circle cx="315.75" cy="251.05" r="19.45" fill="#cccccc" stroke="#000000" stroke-width="1.00"/>
<circle cx="257.40" cy="284.73" r="19.45" fill="#cccccc" stroke="#000000" stroke-width="1.00"/>
<circle cx="315.75" cy="318.42" r="19.45" fill="#cccccc" stroke="#000000" stroke-width="1.00"/>
<circle cx="219.45" cy="276.23" r="19.45" fill="#cccccc" stroke="#000000" stroke-width="1.00"/>
<circle cx="103.70" cy="217.36" r="19.45" fill="#cccccc" stroke="#000000" stroke-width="1.00"/>
<circle cx="238.90" cy="242.54" r="19.45" fill="#cccccc" stroke="#000000" stroke-width="1.00"/>
<circle cx="180.55" cy="276.23" r="19.45" fill="#cccccc" stroke="#000000" stroke-width="1.00"/>
<circle cx="197.30" cy="228.29" r="19.45" fill="#cccccc" stroke="#000000" stroke-width="1.00"/>
<circle cx="165.85" cy="203.94" r="19.45" fill="#cccccc" stroke="#000000" stroke-width="1.00"/>
<circle cx="276.85" cy="251.05" r="19.45" fill="#cccccc" stroke="#000000" stroke-width="1.00"/>
<circle cx="161.10" cy="242.54" r="19.45" fill="#cccccc" stroke="#000000" stroke-width="1.00"/>
<circle cx="123.15" cy="251.05" r="19.45" fill="#cccccc" stroke="#000000" stroke-width="1.00"/>
<circle cx="219.45" cy="151.62" r="19.45" fill="#cccccc" stroke="#000000" stroke-width="1.00"/>
<circle cx="200.00" cy="185.31" r="19.45" fill="#cccccc" stroke="#000000" stroke-width="1.00"/>
<polygon points="200.00,11.67 11.67,337.87 388.33,337.87" fill="none" stroke="#000000" stroke-width="1.40"/>
</svg>