<svg xmlns="http://www.w3.org/2000/svg" width="400.0" height="349.5" viewBox="0 0 400.0 349.5">
<rect width="400.0" height="349.5" fill="white"/>
<circle cx="232.86" cy="120.51" r="19.41" fill="#cccccc" stroke="#000000" stroke-width="1.00"/>
<circle cx="122.35" cy="311.91" r="19.41" fill="#cccccc" stroke="#000000" stroke-width="1.00"/>
<circle cx="146.41" cy="198.20" r="19.41" fill="#cccccc" stroke="#000000" stroke-width="1.00"/>
<circle cx="257.67" cy="150.37" r="19.41" fill="#cccccc" stroke="#000000" stroke-width="1.00"/>
<circle cx="160.62" cy="318.47" r="19.41" fill="#cccccc" stroke="#000000" stroke-width="1.00"/>
<circle cx="354.73" cy="318.47" r="19.41" fill="#cccccc" stroke="#000000" stroke-width="1.00"/>
<circle cx="141.77" cy="278.29" r="19.41" fill="#cccccc" stroke="#000000" stroke-width="1.00"/>
<circle cx="108.91" cy="208.25" r="19.41" fill="#cccccc" stroke="#000000" stroke-width="1.00"/>
<circle cx="213.45" cy="154.13" r="19.41" fill="#cccccc" stroke="#000000" stroke-width="1.00"/>
<circle cx="136.36" cy="160.70" r="19.41" fill="#cccccc" stroke="#000000" stroke-width="1.00"/>
<circle cx="180.59" cy="84.09" r="19.41" fill="#cccccc" stroke="#000000" stroke-width="1.00"/>
<circle cx="64.68" cy="284.85" r="19.41" fill="#cccccc" stroke="#000000" stroke-width="1.00"/>
<circle cx="165.82" cy="231.82" r="19.41" fill="#cccccc" stroke="#000000" stroke-width="1.00"/>
<circle cx="194.03" cy="120.51" r="19.41" fill="#cccccc" stroke="#000000" stroke-width="1.00"/>
<circle cx="102.94" cy="278.29" r="19.41" fill="#cccccc" stroke="#000000" stroke-width="1.00"/>
<circle cx="185.23" cy="198.20" r="19.41" fill="#cccccc" stroke="#000000" stroke-width="1.00"/>
<circle cx="84.09" cy="318.47" r="19.41" fill="#cccccc" stroke="#000000" stroke-width="1.00"/>
<circle cx="219.41" cy="84.09" r="19.41" fill="#cccccc" stroke="#000000" stroke-width="1.00"/>
<circle cx="45.27" cy="318.47" r="19.41" fill="#cccccc" stroke="#000000" stroke-width="1.00"/>
<circle cx="200.00" cy="50.47" r="19.41" fill="#cccccc" stroke="#000000" stroke-width="1.00"/>
<circle cx="175.18" cy="160.70" r="19.41" fill="#cccccc" stroke="#000000" stroke-width="1.00"/>
<circle cx="89.50" cy="241.87" r="19.41" fill="#cccccc" stroke="#000000" stroke-width="1.00"/>
<circle cx="128.32" cy="241.87" r="19.41" fill="#cccccc" stroke="#000000" stroke-width="1.00"/>
<circle cx="155.77" cy="127.08" r="19.41" fill="#cccccc" stroke="#000000" stroke-width="1.00"/>
<circle cx="199.44" cy="251.23" r="19.41" fill="#cccccc" stroke="#000000" stroke-width="1.00"/>
<circle cx="315.91" cy="251.23" r="19.41" fill="#cccccc" stroke="#000000" stroke-width="1.00"/>
<circle cx="277.09" cy="318.47" r="19.41" fill="#cccccc" stroke="#000000" stroke-width="1.00"/>
<circle cx="218.85" cy="217.61" r="19.41" fill="#cccccc" stroke="#000000" stroke-width="1.00"/>
<circle cx="238.26" cy="183.99" r="19.41" fill="#cccccc" stroke="#000000" stroke-width="1.00"/>
<circle cx="180.03" cy="284.85" r="19.41" fill="#cccccc" stroke="#000000" stroke-width="1.00"/>
<circle cx="199.44" cy="318.47" r="19.41" fill="#cccccc" stroke="#000000" stroke-width="1.00"/>
<circle cx="296.50" cy="217.61" r="19.41" fill="#cccccc" stroke="#000000" stroke-width="1.00"/>
<circle cx="238.26" cy="318.47" r="19.41" fill="#cccccc" stroke="#000000" stroke-width="1.00"/>
<circle cx="277.09" cy="183.99" r="19.41" fill="#cccccc" stroke="#000000" stroke-width="1.00"/>
<circle cx="335.32" cy="284.85" r="19.41" fill="#cccccc" stroke="#000000" stroke-width="1.00"/>
<circle cx="315.91" cy="318.47" r="19.41" fill="#cccccc" stroke="#000000" stroke-width="1.00"/>
<circle cx="296.50" cy="284.85" r="19.41" fill="#cccccc" stroke="#000000" stroke-width="1.00"/>
<circle cx="238.26" cy="251.23" r="19.41" fill="#cccccc" stroke="#000000" stroke-width="1.00"/>
<circle cx="257.67" cy="217.61" r="19.41" fill="#cccccc" stroke="#000000" stroke-width="1.00"/>
<circle cx="218.85" cy="284.85" r="19.41" fill="#cccccc" stroke="#000000" stroke-width="1.00"/>
<circle cx="277.09" cy="251.23" r="19.41" fill="#cccccc" stroke="#000000" stroke-width="1.00"/>
<circle cx="257.67" cy="284.85" r="19.41" fill="#cccccc" stroke="#000000" stroke-width="1.00"/>
<polygon points="200.00,11.65 11.65,337.88 388.35,337.88" fill="none" stroke="#000000" stroke-width="1.40"/>
</svg>