<svg xmlns="http://www.w3.org/2000/svg" width="400.0" height="349.5" viewBox="0 0 400.0 349.5">
<rect width="400.0" height="349.5" fill="white"/>
<circle cx="160.17" cy="251.49" r="19.36" fill="#cccccc" stroke="#000000" stroke-width="1.00"/>
<circle cx="45.14" cy="318.55" r="19.36" fill="#cccccc" stroke="#000000" stroke-width="1.00"/>
<circle cx="277.43" cy="318.55" r="19.36" fill="#cccccc" stroke="#000000" stroke-width="1.00"/>
<circle cx="83.30" cy="312.00" r="19.36" fill="#cccccc" stroke="#000000" stroke-width="1.00"/>
<circle cx="238.72" cy="117.39" r="19.36" fill="#cccccc" stroke="#000000" stroke-width="1.00"/>
<circle cx="160.73" cy="184.76" r="19.36" fill="#cccccc" stroke="#000000" stroke-width="1.00"/>
<circle cx="135.43" cy="221.72" r="19.36" fill="#cccccc" stroke="#000000" stroke-width="1.00"/>
<circle cx="107.29" cy="265.66" r="19.36" fill="#cccccc" stroke="#000000" stroke-width="1.00"/>
<circle cx="258.07" cy="150.92" r="19.36" fill="#cccccc" stroke="#000000" stroke-width="1.00"/>
<circle cx="160.17" cy="318.55" r="19.36" fill="#cccccc" stroke="#000000" stroke-width="1.00"/>
<circle cx="122.02" cy="185.40" r="19.36" fill="#cccccc" stroke="#000000" stroke-width="1.00"/>
<circle cx="218.80" cy="285.35" r="19.36" fill="#cccccc" stroke="#000000" stroke-width="1.00"/>
<circle cx="219.36" cy="150.92" r="19.36" fill="#cccccc" stroke="#000000" stroke-width="1.00"/>
<circle cx="200.00" cy="50.33" r="19.36" fill="#cccccc" stroke="#000000" stroke-width="1.00"/>
<circle cx="97.27" cy="228.27" r="19.36" fill="#cccccc" stroke="#000000" stroke-width="1.00"/>
<circle cx="218.80" cy="218.29" r="19.36" fill="#cccccc" stroke="#000000" stroke-width="1.00"/>
<circle cx="180.64" cy="83.86" r="19.36" fill="#cccccc" stroke="#000000" stroke-width="1.00"/>
<circle cx="276.87" cy="184.76" r="19.36" fill="#cccccc" stroke="#000000" stroke-width="1.00"/>
<circle cx="354.86" cy="318.55" r="19.36" fill="#cccccc" stroke="#000000" stroke-width="1.00"/>
<circle cx="258.07" cy="285.02" r="19.36" fill="#cccccc" stroke="#000000" stroke-width="1.00"/>
<circle cx="238.71" cy="318.55" r="19.36" fill="#cccccc" stroke="#000000" stroke-width="1.00"/>
<circle cx="316.14" cy="251.49" r="19.36" fill="#cccccc" stroke="#000000" stroke-width="1.00"/>
<circle cx="180.64" cy="150.92" r="19.36" fill="#cccccc" stroke="#000000" stroke-width="1.00"/>
<circle cx="277.43" cy="251.49" r="19.36" fill="#cccccc" stroke="#000000" stroke-width="1.00"/>
<circle cx="238.16" cy="184.76" r="19.36" fill="#cccccc" stroke="#000000" stroke-width="1.00"/>
<circle cx="335.50" cy="285.02" r="19.36" fill="#cccccc" stroke="#000000" stroke-width="1.00"/>
<circle cx="121.46" cy="318.55" r="19.36" fill="#cccccc" stroke="#000000" stroke-width="1.00"/>
<circle cx="296.78" cy="285.02" r="19.36" fill="#cccccc" stroke="#000000" stroke-width="1.00"/>
<circle cx="257.52" cy="218.29" r="19.36" fill="#cccccc" stroke="#000000" stroke-width="1.00"/>
<circle cx="316.14" cy="318.55" r="19.36" fill="#cccccc" stroke="#000000" stroke-width="1.00"/>
<circle cx="296.78" cy="217.96" r="19.36" fill="#cccccc" stroke="#000000" stroke-width="1.00"/>
<circle cx="199.44" cy="184.76" r="19.36" fill="#cccccc" stroke="#000000" stroke-width="1.00"/>
<circle cx="199.44" cy="251.82" r="19.36" fill="#cccccc" stroke="#000000" stroke-width="1.00"/>
<circle cx="69.89" cy="275.68" r="19.36" fill="#cccccc" stroke="#000000" stroke-width="1.00"/>
<circle cx="140.82" cy="285.02" r="19.36" fill="#cccccc" stroke="#000000" stroke-width="1.00"/>
<circle cx="198.89" cy="318.55" r="19.36" fill="#cccccc" stroke="#000000" stroke-width="1.00"/>
<circle cx="161.28" cy="117.39" r="19.36" fill="#cccccc" stroke="#000000" stroke-width="1.00"/>
<circle cx="180.08" cy="218.29" r="19.36" fill="#cccccc" stroke="#000000" stroke-width="1.00"/>
<circle cx="238.16" cy="251.82" r="19.36" fill="#cccccc" stroke="#000000" stroke-width="1.00"/>
<circle cx="141.93" cy="150.92" r="19.36" fill="#cccccc" stroke="#000000" stroke-width="1.00"/>
<circle cx="179.53" cy="285.02" r="19.36" fill="#cccccc" stroke="#000000" stroke-width="1.00"/>
<circle cx="200.00" cy="117.39" r="19.36" fill="#cccccc" stroke="#000000" stroke-width="1.00"/>
<circle cx="219.36" cy="83.86" r="19.36" fill="#cccccc" stroke="#000000" stroke-width="1.00"/>
<polygon points="200.00,11.61 11.61,337.91 388.39,337.91" fill="none" stroke="#000000" stroke-width="1.40"/>
</svg>