<svg xmlns="http://www.w3.org/2000/svg" width="400.0" height="349.5" viewBox="0 0 400.0 349.5">
<rect width="400.0" height="349.5" fill="white"/>
<circle cx="83.86" cy="251.50" r="19.36" fill="#cccccc" stroke="#000000" stroke-width="1.00"/>
<circle cx="103.21" cy="285.02" r="19.36" fill="#cccccc" stroke="#000000" stroke-width="1.00"/>
<circle cx="122.57" cy="251.50" r="19.36" fill="#cccccc" stroke="#000000" stroke-width="1.00"/>
<circle cx="277.43" cy="184.44" r="19.36" fill="#cccccc" stroke="#000000" stroke-width="1.00"/>
<circle cx="219.36" cy="83.86" r="19.36" fill="#cccccc" stroke="#000000" stroke-width="1.00"/>
<circle cx="141.93" cy="217.97" r="19.36" fill="#cccccc" stroke="#000000" stroke-width="1.00"/>
<circle cx="180.64" cy="150.91" r="19.36" fill="#cccccc" stroke="#000000" stroke-width="1.00"/>
<circle cx="354.86" cy="318.55" r="19.36" fill="#cccccc" stroke="#000000" stroke-width="1.00"/>
<circle cx="335.50" cy="285.02" r="19.36" fill="#cccccc" stroke="#000000" stroke-width="1.00"/>
<circle cx="316.14" cy="251.50" r="19.36" fill="#cccccc" stroke="#000000" stroke-width="1.00"/>
<circle cx="296.79" cy="217.97" r="19.36" fill="#cccccc" stroke="#000000" stroke-width="1.00"/>
<circle cx="258.07" cy="150.91" r="19.36" fill="#cccccc" stroke="#000000" stroke-width="1.00"/>
<circle cx="141.93" cy="285.02" r="19.36" fill="#cccccc" stroke="#000000" stroke-width="1.00"/>
<circle cx="238.71" cy="251.50" r="19.36" fill="#cccccc" stroke="#000000" stroke-width="1.00"/>
<circle cx="296.79" cy="285.02" r="19.36" fill="#cccccc" stroke="#000000" stroke-width="1.00"/>
<circle cx="122.57" cy="184.44" r="19.36" fill="#cccccc" stroke="#000000" stroke-width="1.00"/>
<circle cx="258.07" cy="285.02" r="19.36" fill="#cccccc" stroke="#000000" stroke-width="1.00"/>
<circle cx="161.29" cy="318.55" r="19.36" fill="#cccccc" stroke="#000000" stroke-width="1.00"/>
<circle cx="161.29" cy="251.50" r="19.36" fill="#cccccc" stroke="#000000" stroke-width="1.00"/>
<circle cx="200.00" cy="117.38" r="19.36" fill="#cccccc" stroke="#000000" stroke-width="1.00"/>
<circle cx="277.43" cy="251.50" r="19.36" fill="#cccccc" stroke="#000000" stroke-width="1.00"/>
<circle cx="83.86" cy="318.55" r="19.36" fill="#cccccc" stroke="#000000" stroke-width="1.00"/>
<circle cx="200.00" cy="184.44" r="19.36" fill="#cccccc" stroke="#000000" stroke-width="1.00"/>
<circle cx="161.29" cy="184.44" r="19.36" fill="#cccccc" stroke="#000000" stroke-width="1.00"/>
<circle cx="122.57" cy="318.55" r="19.36" fill="#cccccc" stroke="#000000" stroke-width="1.00"/>
<circle cx="180.64" cy="83.86" r="19.36" fill="#cccccc" stroke="#000000" stroke-width="1.00"/>
<circle cx="238.71" cy="117.38" r="19.36" fill="#cccccc" stroke="#000000" stroke-width="1.00"/>
<circle cx="258.07" cy="217.97" r="19.36" fill="#cccccc" stroke="#000000" stroke-width="1.00"/>
<circle cx="219.36" cy="150.91" r="19.36" fill="#cccccc" stroke="#000000" stroke-width="1.00"/>
<circle cx="219.36" cy="285.02" r="19.36" fill="#cccccc" stroke="#000000" stroke-width="1.00"/>
<circle cx="316.14" cy="318.55" r="19.36" fill="#cccccc" stroke="#000000" stroke-width="1.00"/>
<circle cx="200.00" cy="50.33" r="19.36" fill="#cccccc" stroke="#000000" stroke-width="1.00"/>
<circle cx="161.29" cy="117.38" r="19.36" fill="#cccccc" stroke="#000000" stroke-width="1.00"/>
<circle cx="180.64" cy="217.97" r="19.36" fill="#cccccc" stroke="#000000" stroke-width="1.00"/>
<circle cx="277.43" cy="318.55" r="19.36" fill="#cccccc" stroke="#000000" stroke-width="1.00"/>
<circle cx="180.64" cy="285.02" r="19.36" fill="#cccccc" stroke="#000000" stroke-width="1.00"/>
<circle cx="141.93" cy="150.91" r="19.36" fill="#cccccc" stroke="#000000" stroke-width="1.00"/>
<circle cx="238.71" cy="184.44" r="19.36" fill="#cccccc" stroke="#000000" stroke-width="1.00"/>
<circle cx="219.36" cy="217.97" r="19.36" fill="#cccccc" stroke="#000000" stroke-width="1.00"/>
<circle cx="238.71" cy="318.55" r="19.36" fill="#cccccc" stroke="#000000" stroke-width="1.00"/>
<circle cx="103.21" cy="217.97" r="19.36" fill="#cccccc" stroke="#000000" stroke-width="1.00"/>
<circle cx="45.14" cy="318.55" r="19.36" fill="#cccccc" stroke="#000000" stroke-width="1.00"/>
<circle cx="200.00" cy="318.55" r="19.36" fill="#cccccc" stroke="#000000" stroke-width="1.00"/>
<circle cx="200.00" cy="251.50" r="19.36" fill="#cccccc" stroke="#000000" stroke-width="1.00"/>
<circle cx="64.50" cy="285.02" r="19.36" fill="#cccccc" stroke="#000000" stroke-width="1.00"/>
<polygon points="200.00,11.61 11.61,337.91 388.39,337.91" fill="none" stroke="#000000" stroke-width="1.40"/>
</svg>