<svg xmlns="http://www.w3.org/2000/svg" width="400.0" height="349.4" viewBox="0 0 400.0 349.4">
<rect width="400.0" height="349.4" fill="white"/>
<circle cx="200.00" cy="47.87" r="18.41" fill="#cccccc" stroke="#000000" stroke-width="1.00"/>
<circle cx="181.59" cy="79.75" r="18.41" fill="#cccccc" stroke="#000000" stroke-width="1.00"/>
<circle cx="218.41" cy="79.75" r="18.41" fill="#cccccc" stroke="#000000" stroke-width="1.00"/>
<circle cx="163.18" cy="111.64" r="18.41" fill="#cccccc" stroke="#000000" stroke-width="1.00"/>
<circle cx="200.00" cy="111.64" r="18.41" fill="#cccccc" stroke="#000000" stroke-width="1.00"/>
<circle cx="236.82" cy="111.64" r="18.41" fill="#cccccc" stroke="#000000" stroke-width="1.00"/>
<circle cx="144.77" cy="143.53" r="18.41" fill="#cccccc" stroke="#000000" stroke-width="1.00"/>
<circle cx="181.59" cy="143.53" r="18.41" fill="#cccccc" stroke="#000000" stroke-width="1.00"/>
<circle cx="218.41" cy="143.53" r="18.41" fill="#cccccc" stroke="#000000" stroke-width="1.00"/>
<circle cx="255.23" cy="143.53" r="18.41" fill="#cccccc" stroke="#000000" stroke-width="1.00"/>
<circle cx="126.36" cy="175.41" r="18.41" fill="#cccccc" stroke="#000000" stroke-width="1.00"/>
<circle cx="163.18" cy="175.41" r="18.41" fill="#cccccc" stroke="#000000" stroke-width="1.00"/>
<circle cx="200.00" cy="175.41" r="18.41" fill="#cccccc" stroke="#000000" stroke-width="1.00"/>
<circle cx="236.82" cy="175.41" r="18.41" fill="#cccccc" stroke="#000000" stroke-width="1.00"/>
<circle cx="273.64" cy="175.41" r="18.41" fill="#cccccc" stroke="#000000" stroke-width="1.00"/>
<circle cx="107.95" cy="207.30" r="18.41" fill="#cccccc" stroke="#000000" stroke-width="1.00"/>
<circle cx="144.77" cy="207.30" r="18.41" fill="#cccccc" stroke="#000000" stroke-width="1.00"/>
<circle cx="181.59" cy="207.30" r="18.41" fill="#cccccc" stroke="#000000" stroke-width="1.00"/>
<circle cx="218.41" cy="207.30" r="18.41" fill="#cccccc" stroke="#000000" stroke-width="1.00"/>
<circle cx="255.23" cy="207.30" r="18.41" fill="#cccccc" stroke="#000000" stroke-width="1.00"/>
<circle cx="292.05" cy="207.30" r="18.41" fill="#cccccc" stroke="#000000" stroke-width="1.00"/>
<circle cx="89.54" cy="239.19" r="18.41" fill="#cccccc" stroke="#000000" stroke-width="1.00"/>
<circle cx="126.36" cy="239.19" r="18.41" fill="#cccccc" stroke="#000000" stroke-width="1.00"/>
<circle cx="163.18" cy="239.19" r="18.41" fill="#cccccc" stroke="#000000" stroke-width="1.00"/>
<circle cx="200.00" cy="239.19" r="18.41" fill="#cccccc" stroke="#000000" stroke-width="1.00"/>
<circle cx="236.82" cy="239.19" r="18.41" fill="#cccccc" stroke="#000000" stroke-width="1.00"/>
<circle cx="306.96" cy="240.97" r="18.41" fill="#cccccc" stroke="#000000" stroke-width="1.00"/>
<circle cx="271.60" cy="251.26" r="18.41" fill="#cccccc" stroke="#000000" stroke-width="1.00"/>
<circle cx="71.13" cy="271.07" r="18.41" fill="#cccccc" stroke="#000000" stroke-width="1.00"/>
<circle cx="144.77" cy="271.07" r="18.41" fill="#cccccc" stroke="#000000" stroke-width="1.00"/>
<circle cx="218.41" cy="271.07" r="18.41" fill="#cccccc" stroke="#000000" stroke-width="1.00"/>
<circle cx="328.66" cy="270.71" r="18.41" fill="#cccccc" stroke="#000000" stroke-width="1.00"/>
<circle cx="253.19" cy="283.14" r="18.41" fill="#cccccc" stroke="#000000" stroke-width="1.00"/>
<circle cx="322.58" cy="307.02" r="18.41" fill="#cccccc" stroke="#000000" stroke-width="1.00"/>
<circle cx="77.54" cy="307.33" r="18.41" fill="#cccccc" stroke="#000000" stroke-width="1.00"/>
<circle cx="146.92" cy="307.83" r="18.41" fill="#cccccc" stroke="#000000" stroke-width="1.00"/>
<circle cx="216.48" cy="307.84" r="18.41" fill="#cccccc" stroke="#000000" stroke-width="1.00"/>
<circle cx="42.93" cy="319.91" r="18.41" fill="#cccccc" stroke="#000000" stroke-width="1.00"/>
<circle cx="112.14" cy="319.91" r="18.41" fill="#cccccc" stroke="#000000" stroke-width="1.00"/>
<circle cx="181.70" cy="319.91" r="18.41" fill="#cccccc" stroke="#000000" stroke-width="1.00"/>
<circle cx="251.27" cy="319.91" r="18.41" fill="#cccccc" stroke="#000000" stroke-width="1.00"/>
<circle cx="288.09" cy="319.91" r="18.41" fill="#cccccc" stroke="#000000" stroke-width="1.00"/>
<circle cx="357.07" cy="319.91" r="18.41" fill="#cccccc" stroke="#000000" stroke-width="1.00"/>
<circle cx="181.78" cy="281.05" r="18.41" fill="#cccccc" stroke="#000000" stroke-width="1.00"/>
<circle cx="109.54" cy="282.34" r="18.41" fill="#cccccc" stroke="#000000" stroke-width="1.00"/>
<circle cx="292.86" cy="282.20" r="18.41" fill="#cccccc" stroke="#000000" stroke-width="1.00"/>
<polygon points="200.00,11.05 11.05,338.32 388.95,338.32" fill="none" stroke="#000000" stroke-width="1.40"/>
</svg>