<svg xmlns="http://www.w3.org/2000/svg" width="400.0" height="349.3" viewBox="0 0 400.0 349.3">
<rect width="400.0" height="349.3" fill="white"/>
<circle cx="163.61" cy="110.33" r="18.19" fill="#cccccc" stroke="#000000" stroke-width="1.00"/>
<circle cx="42.43" cy="320.22" r="18.19" fill="#cccccc" stroke="#000000" stroke-width="1.00"/>
<circle cx="141.51" cy="219.31" r="18.19" fill="#cccccc" stroke="#000000" stroke-width="1.00"/>
<circle cx="97.01" cy="225.68" r="18.19" fill="#cccccc" stroke="#000000" stroke-width="1.00"/>
<circle cx="181.81" cy="141.85" r="18.19" fill="#cccccc" stroke="#000000" stroke-width="1.00"/>
<circle cx="218.19" cy="236.90" r="18.19" fill="#cccccc" stroke="#000000" stroke-width="1.00"/>
<circle cx="200.00" cy="47.31" r="18.19" fill="#cccccc" stroke="#000000" stroke-width="1.00"/>
<circle cx="145.42" cy="141.85" r="18.19" fill="#cccccc" stroke="#000000" stroke-width="1.00"/>
<circle cx="339.37" cy="288.71" r="18.19" fill="#cccccc" stroke="#000000" stroke-width="1.00"/>
<circle cx="200.00" cy="110.33" r="18.19" fill="#cccccc" stroke="#000000" stroke-width="1.00"/>
<circle cx="254.58" cy="141.85" r="18.19" fill="#cccccc" stroke="#000000" stroke-width="1.00"/>
<circle cx="78.82" cy="320.22" r="18.19" fill="#cccccc" stroke="#000000" stroke-width="1.00"/>
<circle cx="223.74" cy="200.94" r="18.19" fill="#cccccc" stroke="#000000" stroke-width="1.00"/>
<circle cx="302.99" cy="225.68" r="18.19" fill="#cccccc" stroke="#000000" stroke-width="1.00"/>
<circle cx="133.40" cy="288.71" r="18.19" fill="#cccccc" stroke="#000000" stroke-width="1.00"/>
<circle cx="181.81" cy="78.82" r="18.19" fill="#cccccc" stroke="#000000" stroke-width="1.00"/>
<circle cx="230.21" cy="288.71" r="18.19" fill="#cccccc" stroke="#000000" stroke-width="1.00"/>
<circle cx="284.79" cy="194.17" r="18.19" fill="#cccccc" stroke="#000000" stroke-width="1.00"/>
<circle cx="261.74" cy="222.81" r="18.19" fill="#cccccc" stroke="#000000" stroke-width="1.00"/>
<circle cx="115.21" cy="257.20" r="18.19" fill="#cccccc" stroke="#000000" stroke-width="1.00"/>
<circle cx="302.99" cy="288.71" r="18.19" fill="#cccccc" stroke="#000000" stroke-width="1.00"/>
<circle cx="200.00" cy="268.42" r="18.19" fill="#cccccc" stroke="#000000" stroke-width="1.00"/>
<circle cx="115.21" cy="320.22" r="18.19" fill="#cccccc" stroke="#000000" stroke-width="1.00"/>
<circle cx="236.39" cy="110.33" r="18.19" fill="#cccccc" stroke="#000000" stroke-width="1.00"/>
<circle cx="176.26" cy="200.94" r="18.19" fill="#cccccc" stroke="#000000" stroke-width="1.00"/>
<circle cx="78.82" cy="257.20" r="18.19" fill="#cccccc" stroke="#000000" stroke-width="1.00"/>
<circle cx="200.00" cy="173.36" r="18.19" fill="#cccccc" stroke="#000000" stroke-width="1.00"/>
<circle cx="169.79" cy="288.71" r="18.19" fill="#cccccc" stroke="#000000" stroke-width="1.00"/>
<circle cx="115.21" cy="194.17" r="18.19" fill="#cccccc" stroke="#000000" stroke-width="1.00"/>
<circle cx="181.81" cy="236.90" r="18.19" fill="#cccccc" stroke="#000000" stroke-width="1.00"/>
<circle cx="218.19" cy="78.82" r="18.19" fill="#cccccc" stroke="#000000" stroke-width="1.00"/>
<circle cx="205.01" cy="314.97" r="18.19" fill="#cccccc" stroke="#000000" stroke-width="1.00"/>
<circle cx="357.57" cy="320.22" r="18.19" fill="#cccccc" stroke="#000000" stroke-width="1.00"/>
<circle cx="147.89" cy="178.15" r="18.19" fill="#cccccc" stroke="#000000" stroke-width="1.00"/>
<circle cx="321.18" cy="257.20" r="18.19" fill="#cccccc" stroke="#000000" stroke-width="1.00"/>
<circle cx="60.63" cy="288.71" r="18.19" fill="#cccccc" stroke="#000000" stroke-width="1.00"/>
<circle cx="266.60" cy="288.71" r="18.19" fill="#cccccc" stroke="#000000" stroke-width="1.00"/>
<circle cx="248.40" cy="320.22" r="18.19" fill="#cccccc" stroke="#000000" stroke-width="1.00"/>
<circle cx="252.11" cy="178.15" r="18.19" fill="#cccccc" stroke="#000000" stroke-width="1.00"/>
<circle cx="321.18" cy="320.22" r="18.19" fill="#cccccc" stroke="#000000" stroke-width="1.00"/>
<circle cx="284.79" cy="257.20" r="18.19" fill="#cccccc" stroke="#000000" stroke-width="1.00"/>
<circle cx="248.40" cy="257.20" r="18.19" fill="#cccccc" stroke="#000000" stroke-width="1.00"/>
<circle cx="218.19" cy="141.85" r="18.19" fill="#cccccc" stroke="#000000" stroke-width="1.00"/>
<circle cx="284.79" cy="320.22" r="18.19" fill="#cccccc" stroke="#000000" stroke-width="1.00"/>
<circle cx="151.60" cy="320.22" r="18.19" fill="#cccccc" stroke="#000000" stroke-width="1.00"/>
<circle cx="151.60" cy="257.20" r="18.19" fill="#cccccc" stroke="#000000" stroke-width="1.00"/>
<circle cx="97.01" cy="288.71" r="18.19" fill="#cccccc" stroke="#000000" stroke-width="1.00"/>
<polygon points="200.00,10.92 10.92,338.42 389.08,338.42" fill="none" stroke="#000000" stroke-width="1.40"/>
</svg>