<svg xmlns="http://www.w3.org/2000/svg" width="400.0" height="349.3" viewBox="0 0 400.0 349.3">
<rect width="400.0" height="349.3" fill="white"/>
<circle cx="96.33" cy="286.88" r="18.08" fill="#cccccc" stroke="#000000" stroke-width="1.00"/>
<circle cx="176.99" cy="200.16" r="18.08" fill="#cccccc" stroke="#000000" stroke-width="1.00"/>
<circle cx="150.51" cy="320.39" r="18.08" fill="#cccccc" stroke="#000000" stroke-width="1.00"/>
<circle cx="116.35" cy="191.89" r="18.08" fill="#cccccc" stroke="#000000" stroke-width="1.00"/>
<circle cx="116.35" cy="254.52" r="18.08" fill="#cccccc" stroke="#000000" stroke-width="1.00"/>
<circle cx="254.24" cy="140.95" r="18.08" fill="#cccccc" stroke="#000000" stroke-width="1.00"/>
<circle cx="114.41" cy="318.19" r="18.08" fill="#cccccc" stroke="#000000" stroke-width="1.00"/>
<circle cx="78.32" cy="320.39" r="18.08" fill="#cccccc" stroke="#000000" stroke-width="1.00"/>
<circle cx="254.17" cy="302.37" r="18.08" fill="#cccccc" stroke="#000000" stroke-width="1.00"/>
<circle cx="200.00" cy="47.01" r="18.08" fill="#cccccc" stroke="#000000" stroke-width="1.00"/>
<circle cx="218.08" cy="203.58" r="18.08" fill="#cccccc" stroke="#000000" stroke-width="1.00"/>
<circle cx="200.00" cy="172.27" r="18.08" fill="#cccccc" stroke="#000000" stroke-width="1.00"/>
<circle cx="272.32" cy="172.27" r="18.08" fill="#cccccc" stroke="#000000" stroke-width="1.00"/>
<circle cx="80.19" cy="254.52" r="18.08" fill="#cccccc" stroke="#000000" stroke-width="1.00"/>
<circle cx="200.00" cy="109.64" r="18.08" fill="#cccccc" stroke="#000000" stroke-width="1.00"/>
<circle cx="272.25" cy="271.05" r="18.08" fill="#cccccc" stroke="#000000" stroke-width="1.00"/>
<circle cx="42.16" cy="320.39" r="18.08" fill="#cccccc" stroke="#000000" stroke-width="1.00"/>
<circle cx="218.08" cy="140.95" r="18.08" fill="#cccccc" stroke="#000000" stroke-width="1.00"/>
<circle cx="290.33" cy="239.74" r="18.08" fill="#cccccc" stroke="#000000" stroke-width="1.00"/>
<circle cx="285.52" cy="320.39" r="18.08" fill="#cccccc" stroke="#000000" stroke-width="1.00"/>
<circle cx="199.93" cy="271.05" r="18.08" fill="#cccccc" stroke="#000000" stroke-width="1.00"/>
<circle cx="60.24" cy="289.07" r="18.08" fill="#cccccc" stroke="#000000" stroke-width="1.00"/>
<circle cx="98.27" cy="223.21" r="18.08" fill="#cccccc" stroke="#000000" stroke-width="1.00"/>
<circle cx="303.60" cy="289.07" r="18.08" fill="#cccccc" stroke="#000000" stroke-width="1.00"/>
<circle cx="236.09" cy="271.05" r="18.08" fill="#cccccc" stroke="#000000" stroke-width="1.00"/>
<circle cx="321.68" cy="320.39" r="18.08" fill="#cccccc" stroke="#000000" stroke-width="1.00"/>
<circle cx="144.25" cy="216.56" r="18.08" fill="#cccccc" stroke="#000000" stroke-width="1.00"/>
<circle cx="218.01" cy="239.74" r="18.08" fill="#cccccc" stroke="#000000" stroke-width="1.00"/>
<circle cx="182.05" cy="235.96" r="18.08" fill="#cccccc" stroke="#000000" stroke-width="1.00"/>
<circle cx="236.16" cy="109.64" r="18.08" fill="#cccccc" stroke="#000000" stroke-width="1.00"/>
<circle cx="218.08" cy="78.32" r="18.08" fill="#cccccc" stroke="#000000" stroke-width="1.00"/>
<circle cx="254.17" cy="239.74" r="18.08" fill="#cccccc" stroke="#000000" stroke-width="1.00"/>
<circle cx="236.16" cy="172.27" r="18.08" fill="#cccccc" stroke="#000000" stroke-width="1.00"/>
<circle cx="152.44" cy="256.72" r="18.08" fill="#cccccc" stroke="#000000" stroke-width="1.00"/>
<circle cx="163.84" cy="109.64" r="18.08" fill="#cccccc" stroke="#000000" stroke-width="1.00"/>
<circle cx="132.49" cy="286.88" r="18.08" fill="#cccccc" stroke="#000000" stroke-width="1.00"/>
<circle cx="290.40" cy="203.58" r="18.08" fill="#cccccc" stroke="#000000" stroke-width="1.00"/>
<circle cx="186.66" cy="320.39" r="18.08" fill="#cccccc" stroke="#000000" stroke-width="1.00"/>
<circle cx="254.24" cy="203.58" r="18.08" fill="#cccccc" stroke="#000000" stroke-width="1.00"/>
<circle cx="168.59" cy="289.07" r="18.08" fill="#cccccc" stroke="#000000" stroke-width="1.00"/>
<circle cx="181.92" cy="140.95" r="18.08" fill="#cccccc" stroke="#000000" stroke-width="1.00"/>
<circle cx="339.76" cy="289.07" r="18.08" fill="#cccccc" stroke="#000000" stroke-width="1.00"/>
<circle cx="181.92" cy="78.32" r="18.08" fill="#cccccc" stroke="#000000" stroke-width="1.00"/>
<circle cx="145.76" cy="140.95" r="18.08" fill="#cccccc" stroke="#000000" stroke-width="1.00"/>
<circle cx="321.68" cy="257.76" r="18.08" fill="#cccccc" stroke="#000000" stroke-width="1.00"/>
<circle cx="218.01" cy="302.37" r="18.08" fill="#cccccc" stroke="#000000" stroke-width="1.00"/>
<circle cx="149.27" cy="176.94" r="18.08" fill="#cccccc" stroke="#000000" stroke-width="1.00"/>
<circle cx="357.84" cy="320.39" r="18.08" fill="#cccccc" stroke="#000000" stroke-width="1.00"/>
<polygon points="200.00,10.85 10.85,338.47 389.15,338.47" fill="none" stroke="#000000" stroke-width="1.40"/>
</svg>