<svg xmlns="http://www.w3.org/2000/svg" width="400.0" height="349.3" viewBox="0 0 400.0 349.3">
<rect width="400.0" height="349.3" fill="white"/>
<circle cx="42.16" cy="320.39" r="18.08" fill="#cccccc" stroke="#000000" stroke-width="1.00"/>
<circle cx="78.31" cy="320.39" r="18.08" fill="#cccccc" stroke="#000000" stroke-width="1.00"/>
<circle cx="60.23" cy="289.08" r="18.08" fill="#cccccc" stroke="#000000" stroke-width="1.00"/>
<circle cx="114.46" cy="320.39" r="18.08" fill="#cccccc" stroke="#000000" stroke-width="1.00"/>
<circle cx="96.38" cy="289.08" r="18.08" fill="#cccccc" stroke="#000000" stroke-width="1.00"/>
<circle cx="78.31" cy="257.78" r="18.08" fill="#cccccc" stroke="#000000" stroke-width="1.00"/>
<circle cx="150.61" cy="320.39" r="18.08" fill="#cccccc" stroke="#000000" stroke-width="1.00"/>
<circle cx="132.54" cy="289.08" r="18.08" fill="#cccccc" stroke="#000000" stroke-width="1.00"/>
<circle cx="114.46" cy="257.78" r="18.08" fill="#cccccc" stroke="#000000" stroke-width="1.00"/>
<circle cx="96.38" cy="226.47" r="18.08" fill="#cccccc" stroke="#000000" stroke-width="1.00"/>
<circle cx="357.84" cy="320.39" r="18.08" fill="#cccccc" stroke="#000000" stroke-width="1.00"/>
<circle cx="321.69" cy="320.39" r="18.08" fill="#cccccc" stroke="#000000" stroke-width="1.00"/>
<circle cx="339.77" cy="289.08" r="18.08" fill="#cccccc" stroke="#000000" stroke-width="1.00"/>
<circle cx="285.54" cy="320.39" r="18.08" fill="#cccccc" stroke="#000000" stroke-width="1.00"/>
<circle cx="303.62" cy="289.08" r="18.08" fill="#cccccc" stroke="#000000" stroke-width="1.00"/>
<circle cx="321.69" cy="257.78" r="18.08" fill="#cccccc" stroke="#000000" stroke-width="1.00"/>
<circle cx="249.39" cy="320.39" r="18.08" fill="#cccccc" stroke="#000000" stroke-width="1.00"/>
<circle cx="267.46" cy="289.08" r="18.08" fill="#cccccc" stroke="#000000" stroke-width="1.00"/>
<circle cx="285.54" cy="257.78" r="18.08" fill="#cccccc" stroke="#000000" stroke-width="1.00"/>
<circle cx="303.62" cy="226.47" r="18.08" fill="#cccccc" stroke="#000000" stroke-width="1.00"/>
<circle cx="200.00" cy="47.00" r="18.08" fill="#cccccc" stroke="#000000" stroke-width="1.00"/>
<circle cx="181.92" cy="78.31" r="18.08" fill="#cccccc" stroke="#000000" stroke-width="1.00"/>
<circle cx="218.08" cy="78.31" r="18.08" fill="#cccccc" stroke="#000000" stroke-width="1.00"/>
<circle cx="163.85" cy="109.62" r="18.08" fill="#cccccc" stroke="#000000" stroke-width="1.00"/>
<circle cx="200.00" cy="109.62" r="18.08" fill="#cccccc" stroke="#000000" stroke-width="1.00"/>
<circle cx="236.15" cy="109.62" r="18.08" fill="#cccccc" stroke="#000000" stroke-width="1.00"/>
<circle cx="145.77" cy="140.93" r="18.08" fill="#cccccc" stroke="#000000" stroke-width="1.00"/>
<circle cx="181.92" cy="140.93" r="18.08" fill="#cccccc" stroke="#000000" stroke-width="1.00"/>
<circle cx="218.08" cy="140.93" r="18.08" fill="#cccccc" stroke="#000000" stroke-width="1.00"/>
<circle cx="254.23" cy="140.93" r="18.08" fill="#cccccc" stroke="#000000" stroke-width="1.00"/>
<circle cx="127.59" cy="175.44" r="18.08" fill="#cccccc" stroke="#000000" stroke-width="1.00"/>
<circle cx="163.85" cy="172.24" r="18.08" fill="#cccccc" stroke="#000000" stroke-width="1.00"/>
<circle cx="200.00" cy="172.24" r="18.08" fill="#cccccc" stroke="#000000" stroke-width="1.00"/>
<circle cx="236.15" cy="172.24" r="18.08" fill="#cccccc" stroke="#000000" stroke-width="1.00"/>
<circle cx="272.31" cy="172.24" r="18.08" fill="#cccccc" stroke="#000000" stroke-width="1.00"/>
<circle cx="272.31" cy="208.39" r="18.08" fill="#cccccc" stroke="#000000" stroke-width="1.00"/>
<circle cx="254.23" cy="239.70" r="18.08" fill="#cccccc" stroke="#000000" stroke-width="1.00"/>
<circle cx="236.15" cy="208.39" r="18.08" fill="#cccccc" stroke="#000000" stroke-width="1.00"/>
<circle cx="236.15" cy="271.01" r="18.08" fill="#cccccc" stroke="#000000" stroke-width="1.00"/>
<circle cx="218.08" cy="239.70" r="18.08" fill="#cccccc" stroke="#000000" stroke-width="1.00"/>
<circle cx="200.00" cy="208.39" r="18.08" fill="#cccccc" stroke="#000000" stroke-width="1.00"/>
<circle cx="218.08" cy="302.32" r="18.08" fill="#cccccc" stroke="#000000" stroke-width="1.00"/>
<circle cx="200.00" cy="271.01" r="18.08" fill="#cccccc" stroke="#000000" stroke-width="1.00"/>
<circle cx="181.92" cy="239.70" r="18.08" fill="#cccccc" stroke="#000000" stroke-width="1.00"/>
<circle cx="163.85" cy="208.39" r="18.08" fill="#cccccc" stroke="#000000" stroke-width="1.00"/>
<circle cx="186.77" cy="320.39" r="18.08" fill="#cccccc" stroke="#000000" stroke-width="1.00"/>
<circle cx="168.69" cy="289.08" r="18.08" fill="#cccccc" stroke="#000000" stroke-width="1.00"/>
<circle cx="150.61" cy="257.78" r="18.08" fill="#cccccc" stroke="#000000" stroke-width="1.00"/>
<circle cx="132.54" cy="226.47" r="18.08" fill="#cccccc" stroke="#000000" stroke-width="1.00"/>
<polygon points="200.00,10.85 10.85,338.47 389.15,338.47" fill="none" stroke="#000000" stroke-width="1.40"/>
</svg>