<svg xmlns="http://www.w3.org/2000/svg" width="400.0" height="349.3" viewBox="0 0 400.0 349.3">
<rect width="400.0" height="349.3" fill="white"/>
<circle cx="57.93" cy="292.25" r="17.76" fill="#cccccc" stroke="#000000" stroke-width="1.00"/>
<circle cx="182.24" cy="199.97" r="17.76" fill="#cccccc" stroke="#000000" stroke-width="1.00"/>
<circle cx="150.03" cy="320.85" r="17.76" fill="#cccccc" stroke="#000000" stroke-width="1.00"/>
<circle cx="128.96" cy="169.21" r="17.76" fill="#cccccc" stroke="#000000" stroke-width="1.00"/>
<circle cx="114.51" cy="259.33" r="17.76" fill="#cccccc" stroke="#000000" stroke-width="1.00"/>
<circle cx="235.52" cy="107.69" r="17.76" fill="#cccccc" stroke="#000000" stroke-width="1.00"/>
<circle cx="96.75" cy="290.09" r="17.76" fill="#cccccc" stroke="#000000" stroke-width="1.00"/>
<circle cx="114.51" cy="320.85" r="17.76" fill="#cccccc" stroke="#000000" stroke-width="1.00"/>
<circle cx="237.12" cy="320.85" r="17.76" fill="#cccccc" stroke="#000000" stroke-width="1.00"/>
<circle cx="200.00" cy="46.17" r="17.76" fill="#cccccc" stroke="#000000" stroke-width="1.00"/>
<circle cx="217.76" cy="199.97" r="17.76" fill="#cccccc" stroke="#000000" stroke-width="1.00"/>
<circle cx="200.00" cy="169.21" r="17.76" fill="#cccccc" stroke="#000000" stroke-width="1.00"/>
<circle cx="271.04" cy="169.21" r="17.76" fill="#cccccc" stroke="#000000" stroke-width="1.00"/>
<circle cx="93.45" cy="230.73" r="17.76" fill="#cccccc" stroke="#000000" stroke-width="1.00"/>
<circle cx="200.00" cy="107.69" r="17.76" fill="#cccccc" stroke="#000000" stroke-width="1.00"/>
<circle cx="280.09" cy="265.08" r="17.76" fill="#cccccc" stroke="#000000" stroke-width="1.00"/>
<circle cx="78.99" cy="320.85" r="17.76" fill="#cccccc" stroke="#000000" stroke-width="1.00"/>
<circle cx="217.76" cy="138.45" r="17.76" fill="#cccccc" stroke="#000000" stroke-width="1.00"/>
<circle cx="262.33" cy="234.32" r="17.76" fill="#cccccc" stroke="#000000" stroke-width="1.00"/>
<circle cx="254.87" cy="290.09" r="17.76" fill="#cccccc" stroke="#000000" stroke-width="1.00"/>
<circle cx="193.57" cy="265.66" r="17.76" fill="#cccccc" stroke="#000000" stroke-width="1.00"/>
<circle cx="75.69" cy="261.49" r="17.76" fill="#cccccc" stroke="#000000" stroke-width="1.00"/>
<circle cx="111.20" cy="199.97" r="17.76" fill="#cccccc" stroke="#000000" stroke-width="1.00"/>
<circle cx="305.31" cy="290.09" r="17.76" fill="#cccccc" stroke="#000000" stroke-width="1.00"/>
<circle cx="237.12" cy="259.33" r="17.76" fill="#cccccc" stroke="#000000" stroke-width="1.00"/>
<circle cx="275.95" cy="320.71" r="17.76" fill="#cccccc" stroke="#000000" stroke-width="1.00"/>
<circle cx="146.72" cy="199.97" r="17.76" fill="#cccccc" stroke="#000000" stroke-width="1.00"/>
<circle cx="175.81" cy="234.90" r="17.76" fill="#cccccc" stroke="#000000" stroke-width="1.00"/>
<circle cx="158.05" cy="265.66" r="17.76" fill="#cccccc" stroke="#000000" stroke-width="1.00"/>
<circle cx="253.28" cy="138.45" r="17.76" fill="#cccccc" stroke="#000000" stroke-width="1.00"/>
<circle cx="217.76" cy="76.93" r="17.76" fill="#cccccc" stroke="#000000" stroke-width="1.00"/>
<circle cx="211.33" cy="234.90" r="17.76" fill="#cccccc" stroke="#000000" stroke-width="1.00"/>
<circle cx="235.52" cy="169.21" r="17.76" fill="#cccccc" stroke="#000000" stroke-width="1.00"/>
<circle cx="140.29" cy="234.90" r="17.76" fill="#cccccc" stroke="#000000" stroke-width="1.00"/>
<circle cx="164.48" cy="107.69" r="17.76" fill="#cccccc" stroke="#000000" stroke-width="1.00"/>
<circle cx="132.27" cy="290.09" r="17.76" fill="#cccccc" stroke="#000000" stroke-width="1.00"/>
<circle cx="297.85" cy="234.32" r="17.76" fill="#cccccc" stroke="#000000" stroke-width="1.00"/>
<circle cx="201.60" cy="320.85" r="17.76" fill="#cccccc" stroke="#000000" stroke-width="1.00"/>
<circle cx="253.28" cy="199.97" r="17.76" fill="#cccccc" stroke="#000000" stroke-width="1.00"/>
<circle cx="175.81" cy="296.42" r="17.76" fill="#cccccc" stroke="#000000" stroke-width="1.00"/>
<circle cx="182.24" cy="138.45" r="17.76" fill="#cccccc" stroke="#000000" stroke-width="1.00"/>
<circle cx="323.07" cy="320.85" r="17.76" fill="#cccccc" stroke="#000000" stroke-width="1.00"/>
<circle cx="182.24" cy="76.93" r="17.76" fill="#cccccc" stroke="#000000" stroke-width="1.00"/>
<circle cx="146.72" cy="138.45" r="17.76" fill="#cccccc" stroke="#000000" stroke-width="1.00"/>
<circle cx="323.07" cy="259.33" r="17.76" fill="#cccccc" stroke="#000000" stroke-width="1.00"/>
<circle cx="219.36" cy="290.09" r="17.76" fill="#cccccc" stroke="#000000" stroke-width="1.00"/>
<circle cx="164.48" cy="169.21" r="17.76" fill="#cccccc" stroke="#000000" stroke-width="1.00"/>
<circle cx="358.58" cy="320.85" r="17.76" fill="#cccccc" stroke="#000000" stroke-width="1.00"/>
<circle cx="340.83" cy="290.09" r="17.76" fill="#cccccc" stroke="#000000" stroke-width="1.00"/>
<circle cx="288.80" cy="199.97" r="17.76" fill="#cccccc" stroke="#000000" stroke-width="1.00"/>
<polygon points="200.00,10.66 10.66,338.61 389.34,338.61" fill="none" stroke="#000000" stroke-width="1.40"/>
</svg>