<svg xmlns="http://www.w3.org/2000/svg" width="400.0" height="349.3" viewBox="0 0 400.0 349.3">
<rect width="400.0" height="349.3" fill="white"/>
<circle cx="182.32" cy="137.86" r="17.68" fill="#cccccc" stroke="#000000" stroke-width="1.00"/>
<circle cx="217.68" cy="76.61" r="17.68" fill="#cccccc" stroke="#000000" stroke-width="1.00"/>
<circle cx="116.32" cy="201.41" r="17.68" fill="#cccccc" stroke="#000000" stroke-width="1.00"/>
<circle cx="94.29" cy="229.07" r="17.68" fill="#cccccc" stroke="#000000" stroke-width="1.00"/>
<circle cx="200.00" cy="107.23" r="17.68" fill="#cccccc" stroke="#000000" stroke-width="1.00"/>
<circle cx="200.00" cy="45.98" r="17.68" fill="#cccccc" stroke="#000000" stroke-width="1.00"/>
<circle cx="129.27" cy="168.49" r="17.68" fill="#cccccc" stroke="#000000" stroke-width="1.00"/>
<circle cx="76.61" cy="259.70" r="17.68" fill="#cccccc" stroke="#000000" stroke-width="1.00"/>
<circle cx="182.32" cy="76.61" r="17.68" fill="#cccccc" stroke="#000000" stroke-width="1.00"/>
<circle cx="146.95" cy="137.86" r="17.68" fill="#cccccc" stroke="#000000" stroke-width="1.00"/>
<circle cx="217.68" cy="137.86" r="17.68" fill="#cccccc" stroke="#000000" stroke-width="1.00"/>
<circle cx="164.63" cy="107.23" r="17.68" fill="#cccccc" stroke="#000000" stroke-width="1.00"/>
<circle cx="288.03" cy="320.96" r="17.68" fill="#cccccc" stroke="#000000" stroke-width="1.00"/>
<circle cx="182.32" cy="280.35" r="17.68" fill="#cccccc" stroke="#000000" stroke-width="1.00"/>
<circle cx="94.29" cy="290.33" r="17.68" fill="#cccccc" stroke="#000000" stroke-width="1.00"/>
<circle cx="111.97" cy="320.96" r="17.68" fill="#cccccc" stroke="#000000" stroke-width="1.00"/>
<circle cx="41.24" cy="320.96" r="17.68" fill="#cccccc" stroke="#000000" stroke-width="1.00"/>
<circle cx="182.32" cy="315.71" r="17.68" fill="#cccccc" stroke="#000000" stroke-width="1.00"/>
<circle cx="252.66" cy="320.96" r="17.68" fill="#cccccc" stroke="#000000" stroke-width="1.00"/>
<circle cx="217.29" cy="320.96" r="17.68" fill="#cccccc" stroke="#000000" stroke-width="1.00"/>
<circle cx="147.34" cy="320.96" r="17.68" fill="#cccccc" stroke="#000000" stroke-width="1.00"/>
<circle cx="58.92" cy="290.33" r="17.68" fill="#cccccc" stroke="#000000" stroke-width="1.00"/>
<circle cx="76.61" cy="320.96" r="17.68" fill="#cccccc" stroke="#000000" stroke-width="1.00"/>
<circle cx="111.97" cy="259.70" r="17.68" fill="#cccccc" stroke="#000000" stroke-width="1.00"/>
<circle cx="129.66" cy="290.33" r="17.68" fill="#cccccc" stroke="#000000" stroke-width="1.00"/>
<circle cx="358.76" cy="320.96" r="17.68" fill="#cccccc" stroke="#000000" stroke-width="1.00"/>
<circle cx="305.71" cy="229.07" r="17.68" fill="#cccccc" stroke="#000000" stroke-width="1.00"/>
<circle cx="253.05" cy="137.86" r="17.68" fill="#cccccc" stroke="#000000" stroke-width="1.00"/>
<circle cx="283.68" cy="201.41" r="17.68" fill="#cccccc" stroke="#000000" stroke-width="1.00"/>
<circle cx="270.28" cy="290.29" r="17.68" fill="#cccccc" stroke="#000000" stroke-width="1.00"/>
<circle cx="323.39" cy="259.70" r="17.68" fill="#cccccc" stroke="#000000" stroke-width="1.00"/>
<circle cx="341.08" cy="290.33" r="17.68" fill="#cccccc" stroke="#000000" stroke-width="1.00"/>
<circle cx="323.39" cy="320.96" r="17.68" fill="#cccccc" stroke="#000000" stroke-width="1.00"/>
<circle cx="305.71" cy="290.33" r="17.68" fill="#cccccc" stroke="#000000" stroke-width="1.00"/>
<circle cx="266.00" cy="232.03" r="17.68" fill="#cccccc" stroke="#000000" stroke-width="1.00"/>
<circle cx="288.03" cy="259.70" r="17.68" fill="#cccccc" stroke="#000000" stroke-width="1.00"/>
<circle cx="235.37" cy="107.23" r="17.68" fill="#cccccc" stroke="#000000" stroke-width="1.00"/>
<circle cx="270.73" cy="168.49" r="17.68" fill="#cccccc" stroke="#000000" stroke-width="1.00"/>
<circle cx="151.69" cy="201.41" r="17.68" fill="#cccccc" stroke="#000000" stroke-width="1.00"/>
<circle cx="151.69" cy="262.66" r="17.68" fill="#cccccc" stroke="#000000" stroke-width="1.00"/>
<circle cx="245.92" cy="264.13" r="17.68" fill="#cccccc" stroke="#000000" stroke-width="1.00"/>
<circle cx="198.84" cy="212.23" r="17.68" fill="#cccccc" stroke="#000000" stroke-width="1.00"/>
<circle cx="248.31" cy="201.41" r="17.68" fill="#cccccc" stroke="#000000" stroke-width="1.00"/>
<circle cx="169.37" cy="232.03" r="17.68" fill="#cccccc" stroke="#000000" stroke-width="1.00"/>
<circle cx="134.00" cy="232.03" r="17.68" fill="#cccccc" stroke="#000000" stroke-width="1.00"/>
<circle cx="164.63" cy="168.49" r="17.68" fill="#cccccc" stroke="#000000" stroke-width="1.00"/>
<circle cx="199.24" cy="176.86" r="17.68" fill="#cccccc" stroke="#000000" stroke-width="1.00"/>
<circle cx="230.63" cy="232.03" r="17.68" fill="#cccccc" stroke="#000000" stroke-width="1.00"/>
<circle cx="235.37" cy="168.49" r="17.68" fill="#cccccc" stroke="#000000" stroke-width="1.00"/>
<circle cx="217.38" cy="285.01" r="17.68" fill="#cccccc" stroke="#000000" stroke-width="1.00"/>
<circle cx="200.00" cy="249.72" r="17.68" fill="#cccccc" stroke="#000000" stroke-width="1.00"/>
<polygon points="200.00,10.61 10.61,338.64 389.39,338.64" fill="none" stroke="#000000" stroke-width="1.40"/>
</svg>