<svg xmlns="http://www.w3.org/2000/svg" width="400.0" height="349.2" viewBox="0 0 400.0 349.2">
<rect width="400.0" height="349.2" fill="white"/>
<circle cx="129.41" cy="290.44" r="17.65" fill="#cccccc" stroke="#000000" stroke-width="1.00"/>
<circle cx="129.91" cy="167.29" r="17.65" fill="#cccccc" stroke="#000000" stroke-width="1.00"/>
<circle cx="217.65" cy="198.14" r="17.65" fill="#cccccc" stroke="#000000" stroke-width="1.00"/>
<circle cx="147.06" cy="259.87" r="17.65" fill="#cccccc" stroke="#000000" stroke-width="1.00"/>
<circle cx="111.76" cy="321.01" r="17.65" fill="#cccccc" stroke="#000000" stroke-width="1.00"/>
<circle cx="323.55" cy="321.01" r="17.65" fill="#cccccc" stroke="#000000" stroke-width="1.00"/>
<circle cx="247.53" cy="128.21" r="17.65" fill="#cccccc" stroke="#000000" stroke-width="1.00"/>
<circle cx="305.89" cy="290.43" r="17.65" fill="#cccccc" stroke="#000000" stroke-width="1.00"/>
<circle cx="76.46" cy="259.87" r="17.65" fill="#cccccc" stroke="#000000" stroke-width="1.00"/>
<circle cx="200.00" cy="228.71" r="17.65" fill="#cccccc" stroke="#000000" stroke-width="1.00"/>
<circle cx="41.16" cy="321.01" r="17.65" fill="#cccccc" stroke="#000000" stroke-width="1.00"/>
<circle cx="164.70" cy="228.71" r="17.65" fill="#cccccc" stroke="#000000" stroke-width="1.00"/>
<circle cx="288.25" cy="321.01" r="17.65" fill="#cccccc" stroke="#000000" stroke-width="1.00"/>
<circle cx="270.59" cy="229.29" r="17.65" fill="#cccccc" stroke="#000000" stroke-width="1.00"/>
<circle cx="182.35" cy="259.28" r="17.65" fill="#cccccc" stroke="#000000" stroke-width="1.00"/>
<circle cx="94.11" cy="290.44" r="17.65" fill="#cccccc" stroke="#000000" stroke-width="1.00"/>
<circle cx="288.24" cy="198.72" r="17.65" fill="#cccccc" stroke="#000000" stroke-width="1.00"/>
<circle cx="165.21" cy="106.15" r="17.65" fill="#cccccc" stroke="#000000" stroke-width="1.00"/>
<circle cx="147.05" cy="198.14" r="17.65" fill="#cccccc" stroke="#000000" stroke-width="1.00"/>
<circle cx="164.70" cy="290.44" r="17.65" fill="#cccccc" stroke="#000000" stroke-width="1.00"/>
<circle cx="323.54" cy="259.86" r="17.65" fill="#cccccc" stroke="#000000" stroke-width="1.00"/>
<circle cx="213.43" cy="119.07" r="17.65" fill="#cccccc" stroke="#000000" stroke-width="1.00"/>
<circle cx="341.19" cy="290.43" r="17.65" fill="#cccccc" stroke="#000000" stroke-width="1.00"/>
<circle cx="111.76" cy="259.87" r="17.65" fill="#cccccc" stroke="#000000" stroke-width="1.00"/>
<circle cx="252.95" cy="321.01" r="17.65" fill="#cccccc" stroke="#000000" stroke-width="1.00"/>
<circle cx="182.35" cy="198.14" r="17.65" fill="#cccccc" stroke="#000000" stroke-width="1.00"/>
<circle cx="305.89" cy="229.29" r="17.65" fill="#cccccc" stroke="#000000" stroke-width="1.00"/>
<circle cx="129.41" cy="229.30" r="17.65" fill="#cccccc" stroke="#000000" stroke-width="1.00"/>
<circle cx="76.46" cy="321.01" r="17.65" fill="#cccccc" stroke="#000000" stroke-width="1.00"/>
<circle cx="200.00" cy="289.85" r="17.65" fill="#cccccc" stroke="#000000" stroke-width="1.00"/>
<circle cx="182.86" cy="136.72" r="17.65" fill="#cccccc" stroke="#000000" stroke-width="1.00"/>
<circle cx="235.30" cy="228.71" r="17.65" fill="#cccccc" stroke="#000000" stroke-width="1.00"/>
<circle cx="288.24" cy="259.86" r="17.65" fill="#cccccc" stroke="#000000" stroke-width="1.00"/>
<circle cx="147.56" cy="136.72" r="17.65" fill="#cccccc" stroke="#000000" stroke-width="1.00"/>
<circle cx="270.09" cy="167.29" r="17.65" fill="#cccccc" stroke="#000000" stroke-width="1.00"/>
<circle cx="165.21" cy="167.29" r="17.65" fill="#cccccc" stroke="#000000" stroke-width="1.00"/>
<circle cx="252.95" cy="198.14" r="17.65" fill="#cccccc" stroke="#000000" stroke-width="1.00"/>
<circle cx="235.29" cy="290.43" r="17.65" fill="#cccccc" stroke="#000000" stroke-width="1.00"/>
<circle cx="252.94" cy="259.86" r="17.65" fill="#cccccc" stroke="#000000" stroke-width="1.00"/>
<circle cx="235.30" cy="161.32" r="17.65" fill="#cccccc" stroke="#000000" stroke-width="1.00"/>
<circle cx="222.57" cy="84.97" r="17.65" fill="#cccccc" stroke="#000000" stroke-width="1.00"/>
<circle cx="58.81" cy="290.44" r="17.65" fill="#cccccc" stroke="#000000" stroke-width="1.00"/>
<circle cx="187.78" cy="79.00" r="17.65" fill="#cccccc" stroke="#000000" stroke-width="1.00"/>
<circle cx="217.65" cy="259.28" r="17.65" fill="#cccccc" stroke="#000000" stroke-width="1.00"/>
<circle cx="270.59" cy="290.43" r="17.65" fill="#cccccc" stroke="#000000" stroke-width="1.00"/>
<circle cx="200.00" cy="45.89" r="17.65" fill="#cccccc" stroke="#000000" stroke-width="1.00"/>
<circle cx="111.76" cy="198.73" r="17.65" fill="#cccccc" stroke="#000000" stroke-width="1.00"/>
<circle cx="147.06" cy="321.01" r="17.65" fill="#cccccc" stroke="#000000" stroke-width="1.00"/>
<circle cx="200.51" cy="167.29" r="17.65" fill="#cccccc" stroke="#000000" stroke-width="1.00"/>
<circle cx="94.11" cy="229.30" r="17.65" fill="#cccccc" stroke="#000000" stroke-width="1.00"/>
<circle cx="217.65" cy="321.01" r="17.65" fill="#cccccc" stroke="#000000" stroke-width="1.00"/>
<circle cx="182.35" cy="321.01" r="17.65" fill="#cccccc" stroke="#000000" stroke-width="1.00"/>
<polygon points="200.00,10.59 10.59,338.66 389.41,338.66" fill="none" stroke="#000000" stroke-width="1.40"/>
</svg>