<svg xmlns="http://www.w3.org/2000/svg" width="400.0" height="349.2" viewBox="0 0 400.0 349.2">
<rect width="400.0" height="349.2" fill="white"/>
<circle cx="358.84" cy="321.01" r="17.65" fill="#cccccc" stroke="#000000" stroke-width="1.00"/>
<circle cx="217.69" cy="196.94" r="17.65" fill="#cccccc" stroke="#000000" stroke-width="1.00"/>
<circle cx="305.89" cy="229.30" r="17.65" fill="#cccccc" stroke="#000000" stroke-width="1.00"/>
<circle cx="76.46" cy="321.01" r="17.65" fill="#cccccc" stroke="#000000" stroke-width="1.00"/>
<circle cx="252.95" cy="321.01" r="17.65" fill="#cccccc" stroke="#000000" stroke-width="1.00"/>
<circle cx="183.84" cy="135.01" r="17.65" fill="#cccccc" stroke="#000000" stroke-width="1.00"/>
<circle cx="147.05" cy="259.77" r="17.65" fill="#cccccc" stroke="#000000" stroke-width="1.00"/>
<circle cx="235.34" cy="166.37" r="17.65" fill="#cccccc" stroke="#000000" stroke-width="1.00"/>
<circle cx="270.60" cy="229.30" r="17.65" fill="#cccccc" stroke="#000000" stroke-width="1.00"/>
<circle cx="341.19" cy="290.44" r="17.65" fill="#cccccc" stroke="#000000" stroke-width="1.00"/>
<circle cx="323.54" cy="321.01" r="17.65" fill="#cccccc" stroke="#000000" stroke-width="1.00"/>
<circle cx="288.25" cy="198.73" r="17.65" fill="#cccccc" stroke="#000000" stroke-width="1.00"/>
<circle cx="58.81" cy="290.44" r="17.65" fill="#cccccc" stroke="#000000" stroke-width="1.00"/>
<circle cx="323.54" cy="259.87" r="17.65" fill="#cccccc" stroke="#000000" stroke-width="1.00"/>
<circle cx="111.75" cy="321.01" r="17.65" fill="#cccccc" stroke="#000000" stroke-width="1.00"/>
<circle cx="164.70" cy="290.34" r="17.65" fill="#cccccc" stroke="#000000" stroke-width="1.00"/>
<circle cx="129.40" cy="290.34" r="17.65" fill="#cccccc" stroke="#000000" stroke-width="1.00"/>
<circle cx="147.05" cy="320.91" r="17.65" fill="#cccccc" stroke="#000000" stroke-width="1.00"/>
<circle cx="111.84" cy="198.59" r="17.65" fill="#cccccc" stroke="#000000" stroke-width="1.00"/>
<circle cx="41.16" cy="321.01" r="17.65" fill="#cccccc" stroke="#000000" stroke-width="1.00"/>
<circle cx="251.42" cy="134.94" r="17.65" fill="#cccccc" stroke="#000000" stroke-width="1.00"/>
<circle cx="288.25" cy="259.87" r="17.65" fill="#cccccc" stroke="#000000" stroke-width="1.00"/>
<circle cx="76.46" cy="259.87" r="17.65" fill="#cccccc" stroke="#000000" stroke-width="1.00"/>
<circle cx="129.49" cy="168.02" r="17.65" fill="#cccccc" stroke="#000000" stroke-width="1.00"/>
<circle cx="191.89" cy="80.24" r="17.65" fill="#cccccc" stroke="#000000" stroke-width="1.00"/>
<circle cx="200.00" cy="290.44" r="17.65" fill="#cccccc" stroke="#000000" stroke-width="1.00"/>
<circle cx="270.60" cy="290.44" r="17.65" fill="#cccccc" stroke="#000000" stroke-width="1.00"/>
<circle cx="288.25" cy="321.01" r="17.65" fill="#cccccc" stroke="#000000" stroke-width="1.00"/>
<circle cx="305.89" cy="290.44" r="17.65" fill="#cccccc" stroke="#000000" stroke-width="1.00"/>
<circle cx="200.05" cy="227.51" r="17.65" fill="#cccccc" stroke="#000000" stroke-width="1.00"/>
<circle cx="129.49" cy="229.16" r="17.65" fill="#cccccc" stroke="#000000" stroke-width="1.00"/>
<circle cx="225.70" cy="90.40" r="17.65" fill="#cccccc" stroke="#000000" stroke-width="1.00"/>
<circle cx="252.95" cy="259.87" r="17.65" fill="#cccccc" stroke="#000000" stroke-width="1.00"/>
<circle cx="94.11" cy="290.44" r="17.65" fill="#cccccc" stroke="#000000" stroke-width="1.00"/>
<circle cx="182.40" cy="196.94" r="17.65" fill="#cccccc" stroke="#000000" stroke-width="1.00"/>
<circle cx="166.19" cy="104.44" r="17.65" fill="#cccccc" stroke="#000000" stroke-width="1.00"/>
<circle cx="200.05" cy="166.37" r="17.65" fill="#cccccc" stroke="#000000" stroke-width="1.00"/>
<circle cx="164.79" cy="229.16" r="17.65" fill="#cccccc" stroke="#000000" stroke-width="1.00"/>
<circle cx="200.00" cy="45.89" r="17.65" fill="#cccccc" stroke="#000000" stroke-width="1.00"/>
<circle cx="94.19" cy="229.16" r="17.65" fill="#cccccc" stroke="#000000" stroke-width="1.00"/>
<circle cx="111.75" cy="259.77" r="17.65" fill="#cccccc" stroke="#000000" stroke-width="1.00"/>
<circle cx="182.35" cy="321.01" r="17.65" fill="#cccccc" stroke="#000000" stroke-width="1.00"/>
<circle cx="235.30" cy="229.30" r="17.65" fill="#cccccc" stroke="#000000" stroke-width="1.00"/>
<circle cx="252.95" cy="198.73" r="17.65" fill="#cccccc" stroke="#000000" stroke-width="1.00"/>
<circle cx="217.65" cy="321.01" r="17.65" fill="#cccccc" stroke="#000000" stroke-width="1.00"/>
<circle cx="182.35" cy="259.77" r="17.65" fill="#cccccc" stroke="#000000" stroke-width="1.00"/>
<circle cx="235.30" cy="290.44" r="17.65" fill="#cccccc" stroke="#000000" stroke-width="1.00"/>
<circle cx="164.75" cy="166.37" r="17.65" fill="#cccccc" stroke="#000000" stroke-width="1.00"/>
<circle cx="148.55" cy="135.01" r="17.65" fill="#cccccc" stroke="#000000" stroke-width="1.00"/>
<circle cx="147.14" cy="198.59" r="17.65" fill="#cccccc" stroke="#000000" stroke-width="1.00"/>
<circle cx="217.62" cy="124.76" r="17.65" fill="#cccccc" stroke="#000000" stroke-width="1.00"/>
<circle cx="270.60" cy="168.16" r="17.65" fill="#cccccc" stroke="#000000" stroke-width="1.00"/>
<circle cx="217.65" cy="259.87" r="17.65" fill="#cccccc" stroke="#000000" stroke-width="1.00"/>
<polygon points="200.00,10.59 10.59,338.66 389.41,338.66" fill="none" stroke="#000000" stroke-width="1.40"/>
</svg>