<svg xmlns="http://www.w3.org/2000/svg" width="400.0" height="349.2" viewBox="0 0 400.0 349.2">
<rect width="400.0" height="349.2" fill="white"/>
<circle cx="288.25" cy="321.01" r="17.65" fill="#cccccc" stroke="#000000" stroke-width="1.00"/>
<circle cx="235.30" cy="229.30" r="17.65" fill="#cccccc" stroke="#000000" stroke-width="1.00"/>
<circle cx="147.05" cy="321.01" r="17.65" fill="#cccccc" stroke="#000000" stroke-width="1.00"/>
<circle cx="235.30" cy="107.03" r="17.65" fill="#cccccc" stroke="#000000" stroke-width="1.00"/>
<circle cx="182.35" cy="198.73" r="17.65" fill="#cccccc" stroke="#000000" stroke-width="1.00"/>
<circle cx="182.35" cy="321.01" r="17.65" fill="#cccccc" stroke="#000000" stroke-width="1.00"/>
<circle cx="217.65" cy="321.01" r="17.65" fill="#cccccc" stroke="#000000" stroke-width="1.00"/>
<circle cx="217.65" cy="76.46" r="17.65" fill="#cccccc" stroke="#000000" stroke-width="1.00"/>
<circle cx="41.16" cy="321.01" r="17.65" fill="#cccccc" stroke="#000000" stroke-width="1.00"/>
<circle cx="94.11" cy="290.44" r="17.65" fill="#cccccc" stroke="#000000" stroke-width="1.00"/>
<circle cx="235.30" cy="168.16" r="17.65" fill="#cccccc" stroke="#000000" stroke-width="1.00"/>
<circle cx="76.46" cy="259.87" r="17.65" fill="#cccccc" stroke="#000000" stroke-width="1.00"/>
<circle cx="252.95" cy="198.73" r="17.65" fill="#cccccc" stroke="#000000" stroke-width="1.00"/>
<circle cx="111.75" cy="198.73" r="17.65" fill="#cccccc" stroke="#000000" stroke-width="1.00"/>
<circle cx="76.46" cy="321.01" r="17.65" fill="#cccccc" stroke="#000000" stroke-width="1.00"/>
<circle cx="252.95" cy="259.87" r="17.65" fill="#cccccc" stroke="#000000" stroke-width="1.00"/>
<circle cx="200.00" cy="107.03" r="17.65" fill="#cccccc" stroke="#000000" stroke-width="1.00"/>
<circle cx="182.35" cy="76.46" r="17.65" fill="#cccccc" stroke="#000000" stroke-width="1.00"/>
<circle cx="129.40" cy="229.30" r="17.65" fill="#cccccc" stroke="#000000" stroke-width="1.00"/>
<circle cx="147.05" cy="259.87" r="17.65" fill="#cccccc" stroke="#000000" stroke-width="1.00"/>
<circle cx="129.40" cy="168.16" r="17.65" fill="#cccccc" stroke="#000000" stroke-width="1.00"/>
<circle cx="129.40" cy="290.44" r="17.65" fill="#cccccc" stroke="#000000" stroke-width="1.00"/>
<circle cx="217.65" cy="137.59" r="17.65" fill="#cccccc" stroke="#000000" stroke-width="1.00"/>
<circle cx="94.11" cy="229.30" r="17.65" fill="#cccccc" stroke="#000000" stroke-width="1.00"/>
<circle cx="182.35" cy="259.87" r="17.65" fill="#cccccc" stroke="#000000" stroke-width="1.00"/>
<circle cx="252.95" cy="321.01" r="17.65" fill="#cccccc" stroke="#000000" stroke-width="1.00"/>
<circle cx="111.75" cy="259.87" r="17.65" fill="#cccccc" stroke="#000000" stroke-width="1.00"/>
<circle cx="358.84" cy="321.01" r="17.65" fill="#cccccc" stroke="#000000" stroke-width="1.00"/>
<circle cx="323.54" cy="259.87" r="17.65" fill="#cccccc" stroke="#000000" stroke-width="1.00"/>
<circle cx="270.60" cy="229.30" r="17.65" fill="#cccccc" stroke="#000000" stroke-width="1.00"/>
<circle cx="164.70" cy="168.16" r="17.65" fill="#cccccc" stroke="#000000" stroke-width="1.00"/>
<circle cx="252.95" cy="137.59" r="17.65" fill="#cccccc" stroke="#000000" stroke-width="1.00"/>
<circle cx="200.00" cy="290.44" r="17.65" fill="#cccccc" stroke="#000000" stroke-width="1.00"/>
<circle cx="270.60" cy="290.44" r="17.65" fill="#cccccc" stroke="#000000" stroke-width="1.00"/>
<circle cx="323.54" cy="321.01" r="17.65" fill="#cccccc" stroke="#000000" stroke-width="1.00"/>
<circle cx="58.81" cy="290.44" r="17.65" fill="#cccccc" stroke="#000000" stroke-width="1.00"/>
<circle cx="164.70" cy="107.03" r="17.65" fill="#cccccc" stroke="#000000" stroke-width="1.00"/>
<circle cx="217.65" cy="198.73" r="17.65" fill="#cccccc" stroke="#000000" stroke-width="1.00"/>
<circle cx="147.05" cy="198.73" r="17.65" fill="#cccccc" stroke="#000000" stroke-width="1.00"/>
<circle cx="235.30" cy="290.44" r="17.65" fill="#cccccc" stroke="#000000" stroke-width="1.00"/>
<circle cx="182.35" cy="137.59" r="17.65" fill="#cccccc" stroke="#000000" stroke-width="1.00"/>
<circle cx="200.00" cy="168.16" r="17.65" fill="#cccccc" stroke="#000000" stroke-width="1.00"/>
<circle cx="305.89" cy="290.44" r="17.65" fill="#cccccc" stroke="#000000" stroke-width="1.00"/>
<circle cx="217.65" cy="259.87" r="17.65" fill="#cccccc" stroke="#000000" stroke-width="1.00"/>
<circle cx="288.25" cy="259.87" r="17.65" fill="#cccccc" stroke="#000000" stroke-width="1.00"/>
<circle cx="305.89" cy="229.30" r="17.65" fill="#cccccc" stroke="#000000" stroke-width="1.00"/>
<circle cx="147.05" cy="137.59" r="17.65" fill="#cccccc" stroke="#000000" stroke-width="1.00"/>
<circle cx="288.25" cy="198.73" r="17.65" fill="#cccccc" stroke="#000000" stroke-width="1.00"/>
<circle cx="200.00" cy="45.89" r="17.65" fill="#cccccc" stroke="#000000" stroke-width="1.00"/>
<circle cx="270.60" cy="168.16" r="17.65" fill="#cccccc" stroke="#000000" stroke-width="1.00"/>
<circle cx="341.19" cy="290.44" r="17.65" fill="#cccccc" stroke="#000000" stroke-width="1.00"/>
<circle cx="164.70" cy="229.30" r="17.65" fill="#cccccc" stroke="#000000" stroke-width="1.00"/>
<circle cx="111.75" cy="321.01" r="17.65" fill="#cccccc" stroke="#000000" stroke-width="1.00"/>
<circle cx="164.70" cy="290.44" r="17.65" fill="#cccccc" stroke="#000000" stroke-width="1.00"/>
<circle cx="200.00" cy="229.30" r="17.65" fill="#cccccc" stroke="#000000" stroke-width="1.00"/>
<polygon points="200.00,10.59 10.59,338.66 389.41,338.66" fill="none" stroke="#000000" stroke-width="1.40"/>
</svg>