<svg xmlns="http://www.w3.org/2000/svg" width="400.0" height="349.1" viewBox="0 0 400.0 349.1">
<rect width="400.0" height="349.1" fill="white"/>
<circle cx="360.59" cy="322.09" r="16.90" fill="#cccccc" stroke="#000000" stroke-width="1.00"/>
<circle cx="343.69" cy="292.82" r="16.90" fill="#cccccc" stroke="#000000" stroke-width="1.00"/>
<circle cx="326.79" cy="322.09" r="16.90" fill="#cccccc" stroke="#000000" stroke-width="1.00"/>
<circle cx="326.79" cy="263.55" r="16.90" fill="#cccccc" stroke="#000000" stroke-width="1.00"/>
<circle cx="309.89" cy="292.82" r="16.90" fill="#cccccc" stroke="#000000" stroke-width="1.00"/>
<circle cx="293.00" cy="322.09" r="16.90" fill="#cccccc" stroke="#000000" stroke-width="1.00"/>
<circle cx="309.89" cy="234.28" r="16.90" fill="#cccccc" stroke="#000000" stroke-width="1.00"/>
<circle cx="293.00" cy="263.55" r="16.90" fill="#cccccc" stroke="#000000" stroke-width="1.00"/>
<circle cx="276.10" cy="292.82" r="16.90" fill="#cccccc" stroke="#000000" stroke-width="1.00"/>
<circle cx="259.20" cy="322.09" r="16.90" fill="#cccccc" stroke="#000000" stroke-width="1.00"/>
<circle cx="293.00" cy="205.01" r="16.90" fill="#cccccc" stroke="#000000" stroke-width="1.00"/>
<circle cx="276.10" cy="234.28" r="16.90" fill="#cccccc" stroke="#000000" stroke-width="1.00"/>
<circle cx="259.20" cy="263.55" r="16.90" fill="#cccccc" stroke="#000000" stroke-width="1.00"/>
<circle cx="242.30" cy="292.82" r="16.90" fill="#cccccc" stroke="#000000" stroke-width="1.00"/>
<circle cx="225.40" cy="322.09" r="16.90" fill="#cccccc" stroke="#000000" stroke-width="1.00"/>
<circle cx="276.10" cy="175.74" r="16.90" fill="#cccccc" stroke="#000000" stroke-width="1.00"/>
<circle cx="259.20" cy="205.01" r="16.90" fill="#cccccc" stroke="#000000" stroke-width="1.00"/>
<circle cx="242.30" cy="234.28" r="16.90" fill="#cccccc" stroke="#000000" stroke-width="1.00"/>
<circle cx="225.40" cy="263.55" r="16.90" fill="#cccccc" stroke="#000000" stroke-width="1.00"/>
<circle cx="208.50" cy="292.82" r="16.90" fill="#cccccc" stroke="#000000" stroke-width="1.00"/>
<circle cx="191.60" cy="322.09" r="16.90" fill="#cccccc" stroke="#000000" stroke-width="1.00"/>
<circle cx="259.20" cy="146.47" r="16.90" fill="#cccccc" stroke="#000000" stroke-width="1.00"/>
<circle cx="242.30" cy="175.74" r="16.90" fill="#cccccc" stroke="#000000" stroke-width="1.00"/>
<circle cx="225.40" cy="205.01" r="16.90" fill="#cccccc" stroke="#000000" stroke-width="1.00"/>
<circle cx="208.50" cy="234.28" r="16.90" fill="#cccccc" stroke="#000000" stroke-width="1.00"/>
<circle cx="191.60" cy="263.55" r="16.90" fill="#cccccc" stroke="#000000" stroke-width="1.00"/>
<circle cx="174.70" cy="292.82" r="16.90" fill="#cccccc" stroke="#000000" stroke-width="1.00"/>
<circle cx="157.80" cy="322.09" r="16.90" fill="#cccccc" stroke="#000000" stroke-width="1.00"/>
<circle cx="242.30" cy="117.20" r="16.90" fill="#cccccc" stroke="#000000" stroke-width="1.00"/>
<circle cx="225.40" cy="146.47" r="16.90" fill="#cccccc" stroke="#000000" stroke-width="1.00"/>
<circle cx="208.50" cy="175.74" r="16.90" fill="#cccccc" stroke="#000000" stroke-width="1.00"/>
<circle cx="191.60" cy="205.01" r="16.90" fill="#cccccc" stroke="#000000" stroke-width="1.00"/>
<circle cx="174.70" cy="234.28" r="16.90" fill="#cccccc" stroke="#000000" stroke-width="1.00"/>
<circle cx="157.80" cy="263.55" r="16.90" fill="#cccccc" stroke="#000000" stroke-width="1.00"/>
<circle cx="140.91" cy="292.82" r="16.90" fill="#cccccc" stroke="#000000" stroke-width="1.00"/>
<circle cx="124.01" cy="322.09" r="16.90" fill="#cccccc" stroke="#000000" stroke-width="1.00"/>
<circle cx="225.40" cy="87.93" r="16.90" fill="#cccccc" stroke="#000000" stroke-width="1.00"/>
<circle cx="203.01" cy="113.26" r="16.90" fill="#cccccc" stroke="#000000" stroke-width="1.00"/>
<circle cx="191.60" cy="146.47" r="16.90" fill="#cccccc" stroke="#000000" stroke-width="1.00"/>
<circle cx="169.25" cy="172.59" r="16.90" fill="#cccccc" stroke="#000000" stroke-width="1.00"/>
<circle cx="157.80" cy="205.01" r="16.90" fill="#cccccc" stroke="#000000" stroke-width="1.00"/>
<circle cx="135.45" cy="231.13" r="16.90" fill="#cccccc" stroke="#000000" stroke-width="1.00"/>
<circle cx="124.01" cy="263.55" r="16.90" fill="#cccccc" stroke="#000000" stroke-width="1.00"/>
<circle cx="100.95" cy="290.03" r="16.90" fill="#cccccc" stroke="#000000" stroke-width="1.00"/>
<circle cx="90.21" cy="322.09" r="16.90" fill="#cccccc" stroke="#000000" stroke-width="1.00"/>
<circle cx="200.00" cy="43.94" r="16.90" fill="#cccccc" stroke="#000000" stroke-width="1.00"/>
<circle cx="193.39" cy="77.08" r="16.90" fill="#cccccc" stroke="#000000" stroke-width="1.00"/>
<circle cx="167.99" cy="99.38" r="16.90" fill="#cccccc" stroke="#000000" stroke-width="1.00"/>
<circle cx="160.86" cy="132.42" r="16.90" fill="#cccccc" stroke="#000000" stroke-width="1.00"/>
<circle cx="135.82" cy="155.11" r="16.90" fill="#cccccc" stroke="#000000" stroke-width="1.00"/>
<circle cx="128.53" cy="188.11" r="16.90" fill="#cccccc" stroke="#000000" stroke-width="1.00"/>
<circle cx="103.59" cy="210.92" r="16.90" fill="#cccccc" stroke="#000000" stroke-width="1.00"/>
<circle cx="96.47" cy="243.96" r="16.90" fill="#cccccc" stroke="#000000" stroke-width="1.00"/>
<circle cx="71.42" cy="266.65" r="16.90" fill="#cccccc" stroke="#000000" stroke-width="1.00"/>
<circle cx="64.81" cy="299.79" r="16.90" fill="#cccccc" stroke="#000000" stroke-width="1.00"/>
<circle cx="39.41" cy="322.09" r="16.90" fill="#cccccc" stroke="#000000" stroke-width="1.00"/>
<polygon points="200.00,10.14 10.14,338.99 389.86,338.99" fill="none" stroke="#000000" stroke-width="1.40"/>
</svg>