<svg xmlns="http://www.w3.org/2000/svg" width="400.0" height="349.1" viewBox="0 0 400.0 349.1">
<rect width="400.0" height="349.1" fill="white"/>
<circle cx="200.00" cy="43.67" r="16.80" fill="#cccccc" stroke="#000000" stroke-width="1.00"/>
<circle cx="87.14" cy="280.60" r="16.80" fill="#cccccc" stroke="#000000" stroke-width="1.00"/>
<circle cx="312.86" cy="280.60" r="16.80" fill="#cccccc" stroke="#000000" stroke-width="1.00"/>
<circle cx="168.70" cy="322.23" r="16.80" fill="#cccccc" stroke="#000000" stroke-width="1.00"/>
<circle cx="216.80" cy="247.34" r="16.80" fill="#cccccc" stroke="#000000" stroke-width="1.00"/>
<circle cx="296.06" cy="309.69" r="16.80" fill="#cccccc" stroke="#000000" stroke-width="1.00"/>
<circle cx="103.94" cy="309.69" r="16.80" fill="#cccccc" stroke="#000000" stroke-width="1.00"/>
<circle cx="200.00" cy="310.03" r="16.80" fill="#cccccc" stroke="#000000" stroke-width="1.00"/>
<circle cx="360.83" cy="322.23" r="16.80" fill="#cccccc" stroke="#000000" stroke-width="1.00"/>
<circle cx="183.20" cy="247.34" r="16.80" fill="#cccccc" stroke="#000000" stroke-width="1.00"/>
<circle cx="231.30" cy="322.23" r="16.80" fill="#cccccc" stroke="#000000" stroke-width="1.00"/>
<circle cx="39.17" cy="322.23" r="16.80" fill="#cccccc" stroke="#000000" stroke-width="1.00"/>
<circle cx="120.73" cy="280.60" r="16.80" fill="#cccccc" stroke="#000000" stroke-width="1.00"/>
<circle cx="279.27" cy="280.60" r="16.80" fill="#cccccc" stroke="#000000" stroke-width="1.00"/>
<circle cx="72.77" cy="322.23" r="16.80" fill="#cccccc" stroke="#000000" stroke-width="1.00"/>
<circle cx="327.23" cy="322.23" r="16.80" fill="#cccccc" stroke="#000000" stroke-width="1.00"/>
<circle cx="116.01" cy="247.34" r="16.80" fill="#cccccc" stroke="#000000" stroke-width="1.00"/>
<circle cx="283.99" cy="247.34" r="16.80" fill="#cccccc" stroke="#000000" stroke-width="1.00"/>
<circle cx="248.10" cy="293.14" r="16.80" fill="#cccccc" stroke="#000000" stroke-width="1.00"/>
<circle cx="264.90" cy="322.23" r="16.80" fill="#cccccc" stroke="#000000" stroke-width="1.00"/>
<circle cx="135.10" cy="322.23" r="16.80" fill="#cccccc" stroke="#000000" stroke-width="1.00"/>
<circle cx="151.90" cy="293.14" r="16.80" fill="#cccccc" stroke="#000000" stroke-width="1.00"/>
<circle cx="55.97" cy="293.14" r="16.80" fill="#cccccc" stroke="#000000" stroke-width="1.00"/>
<circle cx="317.58" cy="247.34" r="16.80" fill="#cccccc" stroke="#000000" stroke-width="1.00"/>
<circle cx="344.03" cy="293.14" r="16.80" fill="#cccccc" stroke="#000000" stroke-width="1.00"/>
<circle cx="82.42" cy="247.34" r="16.80" fill="#cccccc" stroke="#000000" stroke-width="1.00"/>
<circle cx="267.19" cy="160.05" r="16.80" fill="#cccccc" stroke="#000000" stroke-width="1.00"/>
<circle cx="183.20" cy="280.93" r="16.80" fill="#cccccc" stroke="#000000" stroke-width="1.00"/>
<circle cx="216.80" cy="280.93" r="16.80" fill="#cccccc" stroke="#000000" stroke-width="1.00"/>
<circle cx="132.81" cy="160.05" r="16.80" fill="#cccccc" stroke="#000000" stroke-width="1.00"/>
<circle cx="267.19" cy="218.24" r="16.80" fill="#cccccc" stroke="#000000" stroke-width="1.00"/>
<circle cx="132.81" cy="218.24" r="16.80" fill="#cccccc" stroke="#000000" stroke-width="1.00"/>
<circle cx="216.80" cy="72.77" r="16.80" fill="#cccccc" stroke="#000000" stroke-width="1.00"/>
<circle cx="283.99" cy="189.15" r="16.80" fill="#cccccc" stroke="#000000" stroke-width="1.00"/>
<circle cx="166.40" cy="101.86" r="16.80" fill="#cccccc" stroke="#000000" stroke-width="1.00"/>
<circle cx="116.01" cy="189.15" r="16.80" fill="#cccccc" stroke="#000000" stroke-width="1.00"/>
<circle cx="233.60" cy="101.86" r="16.80" fill="#cccccc" stroke="#000000" stroke-width="1.00"/>
<circle cx="183.20" cy="72.77" r="16.80" fill="#cccccc" stroke="#000000" stroke-width="1.00"/>
<circle cx="149.61" cy="130.96" r="16.80" fill="#cccccc" stroke="#000000" stroke-width="1.00"/>
<circle cx="250.39" cy="130.96" r="16.80" fill="#cccccc" stroke="#000000" stroke-width="1.00"/>
<circle cx="300.79" cy="218.24" r="16.80" fill="#cccccc" stroke="#000000" stroke-width="1.00"/>
<circle cx="99.21" cy="218.24" r="16.80" fill="#cccccc" stroke="#000000" stroke-width="1.00"/>
<circle cx="233.60" cy="218.24" r="16.80" fill="#cccccc" stroke="#000000" stroke-width="1.00"/>
<circle cx="166.40" cy="218.24" r="16.80" fill="#cccccc" stroke="#000000" stroke-width="1.00"/>
<circle cx="200.00" cy="160.05" r="16.80" fill="#cccccc" stroke="#000000" stroke-width="1.00"/>
<circle cx="233.60" cy="160.05" r="16.80" fill="#cccccc" stroke="#000000" stroke-width="1.00"/>
<circle cx="166.40" cy="160.05" r="16.80" fill="#cccccc" stroke="#000000" stroke-width="1.00"/>
<circle cx="200.00" cy="218.24" r="16.80" fill="#cccccc" stroke="#000000" stroke-width="1.00"/>
<circle cx="200.00" cy="101.86" r="16.80" fill="#cccccc" stroke="#000000" stroke-width="1.00"/>
<circle cx="149.61" cy="189.15" r="16.80" fill="#cccccc" stroke="#000000" stroke-width="1.00"/>
<circle cx="250.39" cy="189.15" r="16.80" fill="#cccccc" stroke="#000000" stroke-width="1.00"/>
<circle cx="216.80" cy="189.15" r="16.80" fill="#cccccc" stroke="#000000" stroke-width="1.00"/>
<circle cx="216.80" cy="130.96" r="16.80" fill="#cccccc" stroke="#000000" stroke-width="1.00"/>
<circle cx="183.20" cy="130.96" r="16.80" fill="#cccccc" stroke="#000000" stroke-width="1.00"/>
<circle cx="183.20" cy="189.15" r="16.80" fill="#cccccc" stroke="#000000" stroke-width="1.00"/>
<circle cx="149.31" cy="259.64" r="16.80" fill="#cccccc" stroke="#000000" stroke-width="1.00"/>
<circle cx="250.53" cy="259.63" r="16.80" fill="#cccccc" stroke="#000000" stroke-width="1.00"/>
<polygon points="200.00,10.08 10.08,339.03 389.92,339.03" fill="none" stroke="#000000" stroke-width="1.40"/>
</svg>