<svg xmlns="http://www.w3.org/2000/svg" width="400.0" height="349.1" viewBox="0 0 400.0 349.1">
<rect width="400.0" height="349.1" fill="white"/>
<circle cx="230.36" cy="211.86" r="16.72" fill="#cccccc" stroke="#000000" stroke-width="1.00"/>
<circle cx="172.70" cy="206.55" r="16.72" fill="#cccccc" stroke="#000000" stroke-width="1.00"/>
<circle cx="294.16" cy="322.35" r="16.72" fill="#cccccc" stroke="#000000" stroke-width="1.00"/>
<circle cx="206.13" cy="264.45" r="16.72" fill="#cccccc" stroke="#000000" stroke-width="1.00"/>
<circle cx="166.57" cy="101.36" r="16.72" fill="#cccccc" stroke="#000000" stroke-width="1.00"/>
<circle cx="239.57" cy="322.35" r="16.72" fill="#cccccc" stroke="#000000" stroke-width="1.00"/>
<circle cx="300.29" cy="245.15" r="16.72" fill="#cccccc" stroke="#000000" stroke-width="1.00"/>
<circle cx="139.27" cy="148.64" r="16.72" fill="#cccccc" stroke="#000000" stroke-width="1.00"/>
<circle cx="236.50" cy="134.65" r="16.72" fill="#cccccc" stroke="#000000" stroke-width="1.00"/>
<circle cx="266.86" cy="303.05" r="16.72" fill="#cccccc" stroke="#000000" stroke-width="1.00"/>
<circle cx="169.64" cy="134.65" r="16.72" fill="#cccccc" stroke="#000000" stroke-width="1.00"/>
<circle cx="327.59" cy="264.45" r="16.72" fill="#cccccc" stroke="#000000" stroke-width="1.00"/>
<circle cx="361.02" cy="322.35" r="16.72" fill="#cccccc" stroke="#000000" stroke-width="1.00"/>
<circle cx="233.43" cy="101.36" r="16.72" fill="#cccccc" stroke="#000000" stroke-width="1.00"/>
<circle cx="203.07" cy="192.56" r="16.72" fill="#cccccc" stroke="#000000" stroke-width="1.00"/>
<circle cx="263.79" cy="153.95" r="16.72" fill="#cccccc" stroke="#000000" stroke-width="1.00"/>
<circle cx="200.00" cy="43.46" r="16.72" fill="#cccccc" stroke="#000000" stroke-width="1.00"/>
<circle cx="297.22" cy="211.86" r="16.72" fill="#cccccc" stroke="#000000" stroke-width="1.00"/>
<circle cx="233.43" cy="245.15" r="16.72" fill="#cccccc" stroke="#000000" stroke-width="1.00"/>
<circle cx="155.99" cy="177.59" r="16.72" fill="#cccccc" stroke="#000000" stroke-width="1.00"/>
<circle cx="263.79" cy="211.86" r="16.72" fill="#cccccc" stroke="#000000" stroke-width="1.00"/>
<circle cx="327.59" cy="322.35" r="16.72" fill="#cccccc" stroke="#000000" stroke-width="1.00"/>
<circle cx="222.85" cy="293.40" r="16.72" fill="#cccccc" stroke="#000000" stroke-width="1.00"/>
<circle cx="38.98" cy="322.35" r="16.72" fill="#cccccc" stroke="#000000" stroke-width="1.00"/>
<circle cx="183.28" cy="72.41" r="16.72" fill="#cccccc" stroke="#000000" stroke-width="1.00"/>
<circle cx="247.08" cy="182.91" r="16.72" fill="#cccccc" stroke="#000000" stroke-width="1.00"/>
<circle cx="155.99" cy="235.50" r="16.72" fill="#cccccc" stroke="#000000" stroke-width="1.00"/>
<circle cx="172.70" cy="264.45" r="16.72" fill="#cccccc" stroke="#000000" stroke-width="1.00"/>
<circle cx="200.00" cy="101.36" r="16.72" fill="#cccccc" stroke="#000000" stroke-width="1.00"/>
<circle cx="203.07" cy="134.65" r="16.72" fill="#cccccc" stroke="#000000" stroke-width="1.00"/>
<circle cx="283.58" cy="274.10" r="16.72" fill="#cccccc" stroke="#000000" stroke-width="1.00"/>
<circle cx="186.35" cy="163.61" r="16.72" fill="#cccccc" stroke="#000000" stroke-width="1.00"/>
<circle cx="310.87" cy="293.40" r="16.72" fill="#cccccc" stroke="#000000" stroke-width="1.00"/>
<circle cx="250.15" cy="274.10" r="16.72" fill="#cccccc" stroke="#000000" stroke-width="1.00"/>
<circle cx="219.78" cy="163.61" r="16.72" fill="#cccccc" stroke="#000000" stroke-width="1.00"/>
<circle cx="139.27" cy="322.35" r="16.72" fill="#cccccc" stroke="#000000" stroke-width="1.00"/>
<circle cx="266.86" cy="245.15" r="16.72" fill="#cccccc" stroke="#000000" stroke-width="1.00"/>
<circle cx="72.41" cy="322.35" r="16.72" fill="#cccccc" stroke="#000000" stroke-width="1.00"/>
<circle cx="72.41" cy="264.45" r="16.72" fill="#cccccc" stroke="#000000" stroke-width="1.00"/>
<circle cx="105.84" cy="206.55" r="16.72" fill="#cccccc" stroke="#000000" stroke-width="1.00"/>
<circle cx="172.70" cy="322.35" r="16.72" fill="#cccccc" stroke="#000000" stroke-width="1.00"/>
<circle cx="206.13" cy="322.35" r="16.72" fill="#cccccc" stroke="#000000" stroke-width="1.00"/>
<circle cx="89.13" cy="235.50" r="16.72" fill="#cccccc" stroke="#000000" stroke-width="1.00"/>
<circle cx="105.84" cy="322.35" r="16.72" fill="#cccccc" stroke="#000000" stroke-width="1.00"/>
<circle cx="55.70" cy="293.40" r="16.72" fill="#cccccc" stroke="#000000" stroke-width="1.00"/>
<circle cx="344.30" cy="293.40" r="16.72" fill="#cccccc" stroke="#000000" stroke-width="1.00"/>
<circle cx="216.72" cy="72.41" r="16.72" fill="#cccccc" stroke="#000000" stroke-width="1.00"/>
<circle cx="122.56" cy="177.59" r="16.72" fill="#cccccc" stroke="#000000" stroke-width="1.00"/>
<circle cx="280.51" cy="182.91" r="16.72" fill="#cccccc" stroke="#000000" stroke-width="1.00"/>
<circle cx="122.56" cy="293.40" r="16.72" fill="#cccccc" stroke="#000000" stroke-width="1.00"/>
<circle cx="189.42" cy="293.40" r="16.72" fill="#cccccc" stroke="#000000" stroke-width="1.00"/>
<circle cx="105.84" cy="264.45" r="16.72" fill="#cccccc" stroke="#000000" stroke-width="1.00"/>
<circle cx="155.99" cy="293.40" r="16.72" fill="#cccccc" stroke="#000000" stroke-width="1.00"/>
<circle cx="139.27" cy="206.55" r="16.72" fill="#cccccc" stroke="#000000" stroke-width="1.00"/>
<circle cx="122.56" cy="235.50" r="16.72" fill="#cccccc" stroke="#000000" stroke-width="1.00"/>
<circle cx="139.27" cy="264.45" r="16.72" fill="#cccccc" stroke="#000000" stroke-width="1.00"/>
<circle cx="89.13" cy="293.40" r="16.72" fill="#cccccc" stroke="#000000" stroke-width="1.00"/>
<circle cx="199.85" cy="230.23" r="16.72" fill="#cccccc" stroke="#000000" stroke-width="1.00"/>
<polygon points="200.00,10.03 10.03,339.07 389.97,339.07" fill="none" stroke="#000000" stroke-width="1.40"/>
</svg>