<svg xmlns="http://www.w3.org/2000/svg" width="400.0" height="349.1" viewBox="0 0 400.0 349.1">
<rect width="400.0" height="349.1" fill="white"/>
<circle cx="71.82" cy="322.55" r="16.58" fill="#cccccc" stroke="#000000" stroke-width="1.00"/>
<circle cx="55.24" cy="293.84" r="16.58" fill="#cccccc" stroke="#000000" stroke-width="1.00"/>
<circle cx="104.97" cy="322.55" r="16.58" fill="#cccccc" stroke="#000000" stroke-width="1.00"/>
<circle cx="88.40" cy="293.84" r="16.58" fill="#cccccc" stroke="#000000" stroke-width="1.00"/>
<circle cx="71.82" cy="265.12" r="16.58" fill="#cccccc" stroke="#000000" stroke-width="1.00"/>
<circle cx="138.13" cy="322.55" r="16.58" fill="#cccccc" stroke="#000000" stroke-width="1.00"/>
<circle cx="121.55" cy="293.84" r="16.58" fill="#cccccc" stroke="#000000" stroke-width="1.00"/>
<circle cx="104.97" cy="265.12" r="16.58" fill="#cccccc" stroke="#000000" stroke-width="1.00"/>
<circle cx="88.40" cy="236.41" r="16.58" fill="#cccccc" stroke="#000000" stroke-width="1.00"/>
<circle cx="171.29" cy="322.55" r="16.58" fill="#cccccc" stroke="#000000" stroke-width="1.00"/>
<circle cx="154.71" cy="293.84" r="16.58" fill="#cccccc" stroke="#000000" stroke-width="1.00"/>
<circle cx="138.13" cy="265.12" r="16.58" fill="#cccccc" stroke="#000000" stroke-width="1.00"/>
<circle cx="121.55" cy="236.41" r="16.58" fill="#cccccc" stroke="#000000" stroke-width="1.00"/>
<circle cx="104.97" cy="207.69" r="16.58" fill="#cccccc" stroke="#000000" stroke-width="1.00"/>
<circle cx="361.34" cy="322.55" r="16.58" fill="#cccccc" stroke="#000000" stroke-width="1.00"/>
<circle cx="328.18" cy="322.55" r="16.58" fill="#cccccc" stroke="#000000" stroke-width="1.00"/>
<circle cx="344.76" cy="293.84" r="16.58" fill="#cccccc" stroke="#000000" stroke-width="1.00"/>
<circle cx="295.03" cy="322.55" r="16.58" fill="#cccccc" stroke="#000000" stroke-width="1.00"/>
<circle cx="311.60" cy="293.84" r="16.58" fill="#cccccc" stroke="#000000" stroke-width="1.00"/>
<circle cx="328.18" cy="265.12" r="16.58" fill="#cccccc" stroke="#000000" stroke-width="1.00"/>
<circle cx="261.87" cy="322.55" r="16.58" fill="#cccccc" stroke="#000000" stroke-width="1.00"/>
<circle cx="278.45" cy="293.84" r="16.58" fill="#cccccc" stroke="#000000" stroke-width="1.00"/>
<circle cx="295.03" cy="265.12" r="16.58" fill="#cccccc" stroke="#000000" stroke-width="1.00"/>
<circle cx="311.60" cy="236.41" r="16.58" fill="#cccccc" stroke="#000000" stroke-width="1.00"/>
<circle cx="228.71" cy="322.55" r="16.58" fill="#cccccc" stroke="#000000" stroke-width="1.00"/>
<circle cx="245.29" cy="293.84" r="16.58" fill="#cccccc" stroke="#000000" stroke-width="1.00"/>
<circle cx="261.87" cy="265.12" r="16.58" fill="#cccccc" stroke="#000000" stroke-width="1.00"/>
<circle cx="278.45" cy="236.41" r="16.58" fill="#cccccc" stroke="#000000" stroke-width="1.00"/>
<circle cx="295.03" cy="207.69" r="16.58" fill="#cccccc" stroke="#000000" stroke-width="1.00"/>
<circle cx="200.00" cy="43.10" r="16.58" fill="#cccccc" stroke="#000000" stroke-width="1.00"/>
<circle cx="183.42" cy="71.82" r="16.58" fill="#cccccc" stroke="#000000" stroke-width="1.00"/>
<circle cx="216.58" cy="71.82" r="16.58" fill="#cccccc" stroke="#000000" stroke-width="1.00"/>
<circle cx="166.84" cy="100.53" r="16.58" fill="#cccccc" stroke="#000000" stroke-width="1.00"/>
<circle cx="200.00" cy="100.53" r="16.58" fill="#cccccc" stroke="#000000" stroke-width="1.00"/>
<circle cx="233.16" cy="100.53" r="16.58" fill="#cccccc" stroke="#000000" stroke-width="1.00"/>
<circle cx="150.27" cy="129.25" r="16.58" fill="#cccccc" stroke="#000000" stroke-width="1.00"/>
<circle cx="183.42" cy="129.25" r="16.58" fill="#cccccc" stroke="#000000" stroke-width="1.00"/>
<circle cx="216.58" cy="129.25" r="16.58" fill="#cccccc" stroke="#000000" stroke-width="1.00"/>
<circle cx="249.73" cy="129.25" r="16.58" fill="#cccccc" stroke="#000000" stroke-width="1.00"/>
<circle cx="133.69" cy="157.96" r="16.58" fill="#cccccc" stroke="#000000" stroke-width="1.00"/>
<circle cx="166.84" cy="157.96" r="16.58" fill="#cccccc" stroke="#000000" stroke-width="1.00"/>
<circle cx="200.00" cy="157.96" r="16.58" fill="#cccccc" stroke="#000000" stroke-width="1.00"/>
<circle cx="233.16" cy="157.96" r="16.58" fill="#cccccc" stroke="#000000" stroke-width="1.00"/>
<circle cx="266.31" cy="157.96" r="16.58" fill="#cccccc" stroke="#000000" stroke-width="1.00"/>
<circle cx="266.31" cy="191.12" r="16.58" fill="#cccccc" stroke="#000000" stroke-width="1.00"/>
<circle cx="249.73" cy="219.83" r="16.58" fill="#cccccc" stroke="#000000" stroke-width="1.00"/>
<circle cx="233.16" cy="191.12" r="16.58" fill="#cccccc" stroke="#000000" stroke-width="1.00"/>
<circle cx="233.16" cy="248.54" r="16.58" fill="#cccccc" stroke="#000000" stroke-width="1.00"/>
<circle cx="216.58" cy="219.83" r="16.58" fill="#cccccc" stroke="#000000" stroke-width="1.00"/>
<circle cx="200.00" cy="191.12" r="16.58" fill="#cccccc" stroke="#000000" stroke-width="1.00"/>
<circle cx="216.58" cy="277.26" r="16.58" fill="#cccccc" stroke="#000000" stroke-width="1.00"/>
<circle cx="200.00" cy="248.54" r="16.58" fill="#cccccc" stroke="#000000" stroke-width="1.00"/>
<circle cx="183.42" cy="219.83" r="16.58" fill="#cccccc" stroke="#000000" stroke-width="1.00"/>
<circle cx="166.84" cy="191.12" r="16.58" fill="#cccccc" stroke="#000000" stroke-width="1.00"/>
<circle cx="200.00" cy="305.97" r="16.58" fill="#cccccc" stroke="#000000" stroke-width="1.00"/>
<circle cx="183.42" cy="277.26" r="16.58" fill="#cccccc" stroke="#000000" stroke-width="1.00"/>
<circle cx="166.84" cy="248.54" r="16.58" fill="#cccccc" stroke="#000000" stroke-width="1.00"/>
<circle cx="150.27" cy="219.83" r="16.58" fill="#cccccc" stroke="#000000" stroke-width="1.00"/>
<circle cx="133.69" cy="191.12" r="16.58" fill="#cccccc" stroke="#000000" stroke-width="1.00"/>
<polygon points="200.00,9.95 9.95,339.13 390.05,339.13" fill="none" stroke="#000000" stroke-width="1.40"/>
</svg>