<svg xmlns="http://www.w3.org/2000/svg" width="400.0" height="349.0" viewBox="0 0 400.0 349.0">
<rect width="400.0" height="349.0" fill="white"/>
<circle cx="168.52" cy="322.94" r="16.31" fill="#cccccc" stroke="#000000" stroke-width="1.00"/>
<circle cx="232.62" cy="257.86" r="16.31" fill="#cccccc" stroke="#000000" stroke-width="1.00"/>
<circle cx="216.36" cy="71.26" r="16.31" fill="#cccccc" stroke="#000000" stroke-width="1.00"/>
<circle cx="329.34" cy="322.94" r="16.31" fill="#cccccc" stroke="#000000" stroke-width="1.00"/>
<circle cx="168.52" cy="209.93" r="16.31" fill="#cccccc" stroke="#000000" stroke-width="1.00"/>
<circle cx="70.66" cy="322.94" r="16.31" fill="#cccccc" stroke="#000000" stroke-width="1.00"/>
<circle cx="184.84" cy="294.68" r="16.31" fill="#cccccc" stroke="#000000" stroke-width="1.00"/>
<circle cx="257.25" cy="198.07" r="16.31" fill="#cccccc" stroke="#000000" stroke-width="1.00"/>
<circle cx="103.28" cy="322.94" r="16.31" fill="#cccccc" stroke="#000000" stroke-width="1.00"/>
<circle cx="273.56" cy="226.32" r="16.31" fill="#cccccc" stroke="#000000" stroke-width="1.00"/>
<circle cx="233.77" cy="322.94" r="16.31" fill="#cccccc" stroke="#000000" stroke-width="1.00"/>
<circle cx="152.21" cy="181.68" r="16.31" fill="#cccccc" stroke="#000000" stroke-width="1.00"/>
<circle cx="119.59" cy="181.68" r="16.31" fill="#cccccc" stroke="#000000" stroke-width="1.00"/>
<circle cx="135.90" cy="153.43" r="16.31" fill="#cccccc" stroke="#000000" stroke-width="1.00"/>
<circle cx="201.15" cy="266.43" r="16.31" fill="#cccccc" stroke="#000000" stroke-width="1.00"/>
<circle cx="296.72" cy="322.94" r="16.31" fill="#cccccc" stroke="#000000" stroke-width="1.00"/>
<circle cx="168.52" cy="96.93" r="16.31" fill="#cccccc" stroke="#000000" stroke-width="1.00"/>
<circle cx="265.24" cy="257.86" r="16.31" fill="#cccccc" stroke="#000000" stroke-width="1.00"/>
<circle cx="38.04" cy="322.94" r="16.31" fill="#cccccc" stroke="#000000" stroke-width="1.00"/>
<circle cx="177.05" cy="160.52" r="16.31" fill="#cccccc" stroke="#000000" stroke-width="1.00"/>
<circle cx="70.66" cy="266.43" r="16.31" fill="#cccccc" stroke="#000000" stroke-width="1.00"/>
<circle cx="209.67" cy="160.52" r="16.31" fill="#cccccc" stroke="#000000" stroke-width="1.00"/>
<circle cx="249.88" cy="128.80" r="16.31" fill="#cccccc" stroke="#000000" stroke-width="1.00"/>
<circle cx="217.46" cy="294.68" r="16.31" fill="#cccccc" stroke="#000000" stroke-width="1.00"/>
<circle cx="193.36" cy="188.78" r="16.31" fill="#cccccc" stroke="#000000" stroke-width="1.00"/>
<circle cx="200.07" cy="42.54" r="16.31" fill="#cccccc" stroke="#000000" stroke-width="1.00"/>
<circle cx="152.21" cy="125.18" r="16.31" fill="#cccccc" stroke="#000000" stroke-width="1.00"/>
<circle cx="289.87" cy="198.07" r="16.31" fill="#cccccc" stroke="#000000" stroke-width="1.00"/>
<circle cx="225.98" cy="188.78" r="16.31" fill="#cccccc" stroke="#000000" stroke-width="1.00"/>
<circle cx="184.84" cy="238.18" r="16.31" fill="#cccccc" stroke="#000000" stroke-width="1.00"/>
<circle cx="152.21" cy="294.68" r="16.31" fill="#cccccc" stroke="#000000" stroke-width="1.00"/>
<circle cx="119.59" cy="238.18" r="16.31" fill="#cccccc" stroke="#000000" stroke-width="1.00"/>
<circle cx="184.63" cy="128.80" r="16.31" fill="#cccccc" stroke="#000000" stroke-width="1.00"/>
<circle cx="103.28" cy="266.43" r="16.31" fill="#cccccc" stroke="#000000" stroke-width="1.00"/>
<circle cx="265.24" cy="314.36" r="16.31" fill="#cccccc" stroke="#000000" stroke-width="1.00"/>
<circle cx="306.18" cy="226.32" r="16.31" fill="#cccccc" stroke="#000000" stroke-width="1.00"/>
<circle cx="209.67" cy="217.03" r="16.31" fill="#cccccc" stroke="#000000" stroke-width="1.00"/>
<circle cx="200.94" cy="100.55" r="16.31" fill="#cccccc" stroke="#000000" stroke-width="1.00"/>
<circle cx="297.86" cy="257.86" r="16.31" fill="#cccccc" stroke="#000000" stroke-width="1.00"/>
<circle cx="281.55" cy="286.11" r="16.31" fill="#cccccc" stroke="#000000" stroke-width="1.00"/>
<circle cx="86.97" cy="238.18" r="16.31" fill="#cccccc" stroke="#000000" stroke-width="1.00"/>
<circle cx="217.26" cy="128.80" r="16.31" fill="#cccccc" stroke="#000000" stroke-width="1.00"/>
<circle cx="103.28" cy="209.93" r="16.31" fill="#cccccc" stroke="#000000" stroke-width="1.00"/>
<circle cx="152.21" cy="238.18" r="16.31" fill="#cccccc" stroke="#000000" stroke-width="1.00"/>
<circle cx="345.65" cy="294.68" r="16.31" fill="#cccccc" stroke="#000000" stroke-width="1.00"/>
<circle cx="201.15" cy="322.94" r="16.31" fill="#cccccc" stroke="#000000" stroke-width="1.00"/>
<circle cx="135.90" cy="209.93" r="16.31" fill="#cccccc" stroke="#000000" stroke-width="1.00"/>
<circle cx="86.97" cy="294.68" r="16.31" fill="#cccccc" stroke="#000000" stroke-width="1.00"/>
<circle cx="248.93" cy="286.11" r="16.31" fill="#cccccc" stroke="#000000" stroke-width="1.00"/>
<circle cx="361.96" cy="322.94" r="16.31" fill="#cccccc" stroke="#000000" stroke-width="1.00"/>
<circle cx="119.59" cy="294.68" r="16.31" fill="#cccccc" stroke="#000000" stroke-width="1.00"/>
<circle cx="168.52" cy="266.43" r="16.31" fill="#cccccc" stroke="#000000" stroke-width="1.00"/>
<circle cx="273.56" cy="169.82" r="16.31" fill="#cccccc" stroke="#000000" stroke-width="1.00"/>
<circle cx="240.94" cy="226.32" r="16.31" fill="#cccccc" stroke="#000000" stroke-width="1.00"/>
<circle cx="135.90" cy="322.94" r="16.31" fill="#cccccc" stroke="#000000" stroke-width="1.00"/>
<circle cx="242.29" cy="160.52" r="16.31" fill="#cccccc" stroke="#000000" stroke-width="1.00"/>
<circle cx="329.34" cy="266.43" r="16.31" fill="#cccccc" stroke="#000000" stroke-width="1.00"/>
<circle cx="135.90" cy="266.43" r="16.31" fill="#cccccc" stroke="#000000" stroke-width="1.00"/>
<circle cx="313.03" cy="294.68" r="16.31" fill="#cccccc" stroke="#000000" stroke-width="1.00"/>
<circle cx="233.57" cy="100.55" r="16.31" fill="#cccccc" stroke="#000000" stroke-width="1.00"/>
<circle cx="54.35" cy="294.68" r="16.31" fill="#cccccc" stroke="#000000" stroke-width="1.00"/>
<polygon points="200.00,9.79 9.79,339.25 390.21,339.25" fill="none" stroke="#000000" stroke-width="1.40"/>
</svg>