<svg xmlns="http://www.w3.org/2000/svg" width="400.0" height="349.0" viewBox="0 0 400.0 349.0">
<rect width="400.0" height="349.0" fill="white"/>
<circle cx="118.72" cy="289.36" r="16.26" fill="#cccccc" stroke="#000000" stroke-width="1.00"/>
<circle cx="248.30" cy="294.86" r="16.26" fill="#cccccc" stroke="#000000" stroke-width="1.00"/>
<circle cx="199.53" cy="266.70" r="16.26" fill="#cccccc" stroke="#000000" stroke-width="1.00"/>
<circle cx="211.26" cy="129.08" r="16.26" fill="#cccccc" stroke="#000000" stroke-width="1.00"/>
<circle cx="70.42" cy="323.01" r="16.26" fill="#cccccc" stroke="#000000" stroke-width="1.00"/>
<circle cx="345.83" cy="294.86" r="16.26" fill="#cccccc" stroke="#000000" stroke-width="1.00"/>
<circle cx="200.00" cy="42.27" r="16.26" fill="#cccccc" stroke="#000000" stroke-width="1.00"/>
<circle cx="54.17" cy="294.86" r="16.26" fill="#cccccc" stroke="#000000" stroke-width="1.00"/>
<circle cx="329.58" cy="323.01" r="16.26" fill="#cccccc" stroke="#000000" stroke-width="1.00"/>
<circle cx="167.02" cy="323.01" r="16.26" fill="#cccccc" stroke="#000000" stroke-width="1.00"/>
<circle cx="187.63" cy="222.29" r="16.26" fill="#cccccc" stroke="#000000" stroke-width="1.00"/>
<circle cx="167.49" cy="98.58" r="16.26" fill="#cccccc" stroke="#000000" stroke-width="1.00"/>
<circle cx="280.81" cy="238.55" r="16.26" fill="#cccccc" stroke="#000000" stroke-width="1.00"/>
<circle cx="134.98" cy="317.52" r="16.26" fill="#cccccc" stroke="#000000" stroke-width="1.00"/>
<circle cx="329.58" cy="266.70" r="16.26" fill="#cccccc" stroke="#000000" stroke-width="1.00"/>
<circle cx="280.81" cy="182.23" r="16.26" fill="#cccccc" stroke="#000000" stroke-width="1.00"/>
<circle cx="123.72" cy="230.71" r="16.26" fill="#cccccc" stroke="#000000" stroke-width="1.00"/>
<circle cx="264.56" cy="210.39" r="16.26" fill="#cccccc" stroke="#000000" stroke-width="1.00"/>
<circle cx="139.97" cy="258.86" r="16.26" fill="#cccccc" stroke="#000000" stroke-width="1.00"/>
<circle cx="162.96" cy="162.73" r="16.26" fill="#cccccc" stroke="#000000" stroke-width="1.00"/>
<circle cx="313.32" cy="294.86" r="16.26" fill="#cccccc" stroke="#000000" stroke-width="1.00"/>
<circle cx="362.09" cy="323.01" r="16.26" fill="#cccccc" stroke="#000000" stroke-width="1.00"/>
<circle cx="215.79" cy="294.86" r="16.26" fill="#cccccc" stroke="#000000" stroke-width="1.00"/>
<circle cx="155.12" cy="222.29" r="16.26" fill="#cccccc" stroke="#000000" stroke-width="1.00"/>
<circle cx="195.00" cy="157.23" r="16.26" fill="#cccccc" stroke="#000000" stroke-width="1.00"/>
<circle cx="178.75" cy="129.08" r="16.26" fill="#cccccc" stroke="#000000" stroke-width="1.00"/>
<circle cx="171.38" cy="250.45" r="16.26" fill="#cccccc" stroke="#000000" stroke-width="1.00"/>
<circle cx="297.07" cy="323.01" r="16.26" fill="#cccccc" stroke="#000000" stroke-width="1.00"/>
<circle cx="199.53" cy="323.01" r="16.26" fill="#cccccc" stroke="#000000" stroke-width="1.00"/>
<circle cx="232.04" cy="323.01" r="16.26" fill="#cccccc" stroke="#000000" stroke-width="1.00"/>
<circle cx="183.28" cy="294.86" r="16.26" fill="#cccccc" stroke="#000000" stroke-width="1.00"/>
<circle cx="200.00" cy="98.58" r="16.26" fill="#cccccc" stroke="#000000" stroke-width="1.00"/>
<circle cx="138.86" cy="194.13" r="16.26" fill="#cccccc" stroke="#000000" stroke-width="1.00"/>
<circle cx="264.56" cy="266.70" r="16.26" fill="#cccccc" stroke="#000000" stroke-width="1.00"/>
<circle cx="151.23" cy="289.36" r="16.26" fill="#cccccc" stroke="#000000" stroke-width="1.00"/>
<circle cx="248.30" cy="182.23" r="16.26" fill="#cccccc" stroke="#000000" stroke-width="1.00"/>
<circle cx="227.52" cy="157.23" r="16.26" fill="#cccccc" stroke="#000000" stroke-width="1.00"/>
<circle cx="297.07" cy="266.70" r="16.26" fill="#cccccc" stroke="#000000" stroke-width="1.00"/>
<circle cx="215.79" cy="238.55" r="16.26" fill="#cccccc" stroke="#000000" stroke-width="1.00"/>
<circle cx="37.91" cy="323.01" r="16.26" fill="#cccccc" stroke="#000000" stroke-width="1.00"/>
<circle cx="264.56" cy="323.01" r="16.26" fill="#cccccc" stroke="#000000" stroke-width="1.00"/>
<circle cx="208.88" cy="187.13" r="16.26" fill="#cccccc" stroke="#000000" stroke-width="1.00"/>
<circle cx="102.93" cy="323.01" r="16.26" fill="#cccccc" stroke="#000000" stroke-width="1.00"/>
<circle cx="297.07" cy="210.39" r="16.26" fill="#cccccc" stroke="#000000" stroke-width="1.00"/>
<circle cx="107.46" cy="202.55" r="16.26" fill="#cccccc" stroke="#000000" stroke-width="1.00"/>
<circle cx="171.38" cy="194.13" r="16.26" fill="#cccccc" stroke="#000000" stroke-width="1.00"/>
<circle cx="264.56" cy="154.08" r="16.26" fill="#cccccc" stroke="#000000" stroke-width="1.00"/>
<circle cx="74.38" cy="259.88" r="16.26" fill="#cccccc" stroke="#000000" stroke-width="1.00"/>
<circle cx="313.32" cy="238.55" r="16.26" fill="#cccccc" stroke="#000000" stroke-width="1.00"/>
<circle cx="183.74" cy="70.42" r="16.26" fill="#cccccc" stroke="#000000" stroke-width="1.00"/>
<circle cx="91.20" cy="230.71" r="16.26" fill="#cccccc" stroke="#000000" stroke-width="1.00"/>
<circle cx="231.84" cy="210.27" r="16.26" fill="#cccccc" stroke="#000000" stroke-width="1.00"/>
<circle cx="232.51" cy="98.58" r="16.26" fill="#cccccc" stroke="#000000" stroke-width="1.00"/>
<circle cx="86.68" cy="294.86" r="16.26" fill="#cccccc" stroke="#000000" stroke-width="1.00"/>
<circle cx="216.26" cy="70.42" r="16.26" fill="#cccccc" stroke="#000000" stroke-width="1.00"/>
<circle cx="107.46" cy="258.86" r="16.26" fill="#cccccc" stroke="#000000" stroke-width="1.00"/>
<circle cx="280.81" cy="294.86" r="16.26" fill="#cccccc" stroke="#000000" stroke-width="1.00"/>
<circle cx="248.30" cy="238.55" r="16.26" fill="#cccccc" stroke="#000000" stroke-width="1.00"/>
<circle cx="232.04" cy="266.70" r="16.26" fill="#cccccc" stroke="#000000" stroke-width="1.00"/>
<circle cx="130.45" cy="162.73" r="16.26" fill="#cccccc" stroke="#000000" stroke-width="1.00"/>
<circle cx="146.71" cy="134.57" r="16.26" fill="#cccccc" stroke="#000000" stroke-width="1.00"/>
<circle cx="243.77" cy="129.08" r="16.26" fill="#cccccc" stroke="#000000" stroke-width="1.00"/>
<polygon points="200.00,9.75 9.75,339.27 390.25,339.27" fill="none" stroke="#000000" stroke-width="1.40"/>
</svg>