<svg xmlns="http://www.w3.org/2000/svg" width="400.0" height="349.0" viewBox="0 0 400.0 349.0">
<rect width="400.0" height="349.0" fill="white"/>
<circle cx="200.00" cy="42.19" r="16.23" fill="#cccccc" stroke="#000000" stroke-width="1.00"/>
<circle cx="311.02" cy="296.51" r="16.23" fill="#cccccc" stroke="#000000" stroke-width="1.00"/>
<circle cx="88.98" cy="296.51" r="16.23" fill="#cccccc" stroke="#000000" stroke-width="1.00"/>
<circle cx="362.15" cy="323.05" r="16.23" fill="#cccccc" stroke="#000000" stroke-width="1.00"/>
<circle cx="140.12" cy="323.05" r="16.23" fill="#cccccc" stroke="#000000" stroke-width="1.00"/>
<circle cx="37.85" cy="323.05" r="16.23" fill="#cccccc" stroke="#000000" stroke-width="1.00"/>
<circle cx="259.88" cy="323.05" r="16.23" fill="#cccccc" stroke="#000000" stroke-width="1.00"/>
<circle cx="183.77" cy="323.05" r="16.23" fill="#cccccc" stroke="#000000" stroke-width="1.00"/>
<circle cx="216.23" cy="323.05" r="16.23" fill="#cccccc" stroke="#000000" stroke-width="1.00"/>
<circle cx="200.00" cy="294.95" r="16.23" fill="#cccccc" stroke="#000000" stroke-width="1.00"/>
<circle cx="254.28" cy="270.92" r="16.23" fill="#cccccc" stroke="#000000" stroke-width="1.00"/>
<circle cx="145.72" cy="270.92" r="16.23" fill="#cccccc" stroke="#000000" stroke-width="1.00"/>
<circle cx="292.34" cy="323.05" r="16.23" fill="#cccccc" stroke="#000000" stroke-width="1.00"/>
<circle cx="107.66" cy="323.05" r="16.23" fill="#cccccc" stroke="#000000" stroke-width="1.00"/>
<circle cx="221.83" cy="270.92" r="16.23" fill="#cccccc" stroke="#000000" stroke-width="1.00"/>
<circle cx="178.17" cy="270.92" r="16.23" fill="#cccccc" stroke="#000000" stroke-width="1.00"/>
<circle cx="86.40" cy="238.95" r="16.23" fill="#cccccc" stroke="#000000" stroke-width="1.00"/>
<circle cx="70.30" cy="323.05" r="16.23" fill="#cccccc" stroke="#000000" stroke-width="1.00"/>
<circle cx="313.60" cy="238.95" r="16.23" fill="#cccccc" stroke="#000000" stroke-width="1.00"/>
<circle cx="238.06" cy="299.03" r="16.23" fill="#cccccc" stroke="#000000" stroke-width="1.00"/>
<circle cx="54.07" cy="294.95" r="16.23" fill="#cccccc" stroke="#000000" stroke-width="1.00"/>
<circle cx="345.93" cy="294.95" r="16.23" fill="#cccccc" stroke="#000000" stroke-width="1.00"/>
<circle cx="276.11" cy="294.95" r="16.23" fill="#cccccc" stroke="#000000" stroke-width="1.00"/>
<circle cx="123.89" cy="294.95" r="16.23" fill="#cccccc" stroke="#000000" stroke-width="1.00"/>
<circle cx="72.75" cy="268.40" r="16.23" fill="#cccccc" stroke="#000000" stroke-width="1.00"/>
<circle cx="329.70" cy="323.05" r="16.23" fill="#cccccc" stroke="#000000" stroke-width="1.00"/>
<circle cx="161.94" cy="299.03" r="16.23" fill="#cccccc" stroke="#000000" stroke-width="1.00"/>
<circle cx="327.25" cy="268.40" r="16.23" fill="#cccccc" stroke="#000000" stroke-width="1.00"/>
<circle cx="294.79" cy="268.40" r="16.23" fill="#cccccc" stroke="#000000" stroke-width="1.00"/>
<circle cx="105.21" cy="268.40" r="16.23" fill="#cccccc" stroke="#000000" stroke-width="1.00"/>
<circle cx="297.37" cy="210.85" r="16.23" fill="#cccccc" stroke="#000000" stroke-width="1.00"/>
<circle cx="151.31" cy="126.52" r="16.23" fill="#cccccc" stroke="#000000" stroke-width="1.00"/>
<circle cx="102.63" cy="210.85" r="16.23" fill="#cccccc" stroke="#000000" stroke-width="1.00"/>
<circle cx="248.69" cy="126.52" r="16.23" fill="#cccccc" stroke="#000000" stroke-width="1.00"/>
<circle cx="281.14" cy="182.74" r="16.23" fill="#cccccc" stroke="#000000" stroke-width="1.00"/>
<circle cx="216.23" cy="70.30" r="16.23" fill="#cccccc" stroke="#000000" stroke-width="1.00"/>
<circle cx="183.77" cy="70.30" r="16.23" fill="#cccccc" stroke="#000000" stroke-width="1.00"/>
<circle cx="135.09" cy="154.63" r="16.23" fill="#cccccc" stroke="#000000" stroke-width="1.00"/>
<circle cx="264.91" cy="154.63" r="16.23" fill="#cccccc" stroke="#000000" stroke-width="1.00"/>
<circle cx="232.46" cy="98.41" r="16.23" fill="#cccccc" stroke="#000000" stroke-width="1.00"/>
<circle cx="118.86" cy="182.74" r="16.23" fill="#cccccc" stroke="#000000" stroke-width="1.00"/>
<circle cx="167.54" cy="98.41" r="16.23" fill="#cccccc" stroke="#000000" stroke-width="1.00"/>
<circle cx="216.23" cy="238.95" r="16.23" fill="#cccccc" stroke="#000000" stroke-width="1.00"/>
<circle cx="151.31" cy="238.95" r="16.23" fill="#cccccc" stroke="#000000" stroke-width="1.00"/>
<circle cx="118.86" cy="238.95" r="16.23" fill="#cccccc" stroke="#000000" stroke-width="1.00"/>
<circle cx="281.14" cy="238.95" r="16.23" fill="#cccccc" stroke="#000000" stroke-width="1.00"/>
<circle cx="200.00" cy="210.85" r="16.23" fill="#cccccc" stroke="#000000" stroke-width="1.00"/>
<circle cx="248.69" cy="238.95" r="16.23" fill="#cccccc" stroke="#000000" stroke-width="1.00"/>
<circle cx="183.77" cy="238.95" r="16.23" fill="#cccccc" stroke="#000000" stroke-width="1.00"/>
<circle cx="232.46" cy="210.85" r="16.23" fill="#cccccc" stroke="#000000" stroke-width="1.00"/>
<circle cx="167.54" cy="210.85" r="16.23" fill="#cccccc" stroke="#000000" stroke-width="1.00"/>
<circle cx="264.91" cy="210.85" r="16.23" fill="#cccccc" stroke="#000000" stroke-width="1.00"/>
<circle cx="216.23" cy="126.52" r="16.23" fill="#cccccc" stroke="#000000" stroke-width="1.00"/>
<circle cx="135.09" cy="210.85" r="16.23" fill="#cccccc" stroke="#000000" stroke-width="1.00"/>
<circle cx="183.77" cy="126.52" r="16.23" fill="#cccccc" stroke="#000000" stroke-width="1.00"/>
<circle cx="200.00" cy="98.41" r="16.23" fill="#cccccc" stroke="#000000" stroke-width="1.00"/>
<circle cx="200.00" cy="154.63" r="16.23" fill="#cccccc" stroke="#000000" stroke-width="1.00"/>
<circle cx="216.23" cy="182.74" r="16.23" fill="#cccccc" stroke="#000000" stroke-width="1.00"/>
<circle cx="151.31" cy="182.74" r="16.23" fill="#cccccc" stroke="#000000" stroke-width="1.00"/>
<circle cx="248.69" cy="182.74" r="16.23" fill="#cccccc" stroke="#000000" stroke-width="1.00"/>
<circle cx="183.77" cy="182.74" r="16.23" fill="#cccccc" stroke="#000000" stroke-width="1.00"/>
<circle cx="232.46" cy="154.63" r="16.23" fill="#cccccc" stroke="#000000" stroke-width="1.00"/>
<circle cx="167.54" cy="154.63" r="16.23" fill="#cccccc" stroke="#000000" stroke-width="1.00"/>
<polygon points="200.00,9.74 9.74,339.28 390.26,339.28" fill="none" stroke="#000000" stroke-width="1.40"/>
</svg>