<svg xmlns="http://www.w3.org/2000/svg" width="400.0" height="349.0" viewBox="0 0 400.0 349.0">
<rect width="400.0" height="349.0" fill="white"/>
<circle cx="297.31" cy="266.89" r="16.22" fill="#cccccc" stroke="#000000" stroke-width="1.00"/>
<circle cx="102.69" cy="210.71" r="16.22" fill="#cccccc" stroke="#000000" stroke-width="1.00"/>
<circle cx="183.78" cy="182.62" r="16.22" fill="#cccccc" stroke="#000000" stroke-width="1.00"/>
<circle cx="216.22" cy="238.80" r="16.22" fill="#cccccc" stroke="#000000" stroke-width="1.00"/>
<circle cx="151.35" cy="294.98" r="16.22" fill="#cccccc" stroke="#000000" stroke-width="1.00"/>
<circle cx="200.00" cy="98.35" r="16.22" fill="#cccccc" stroke="#000000" stroke-width="1.00"/>
<circle cx="200.00" cy="42.17" r="16.22" fill="#cccccc" stroke="#000000" stroke-width="1.00"/>
<circle cx="54.04" cy="294.98" r="16.22" fill="#cccccc" stroke="#000000" stroke-width="1.00"/>
<circle cx="200.00" cy="210.71" r="16.22" fill="#cccccc" stroke="#000000" stroke-width="1.00"/>
<circle cx="297.31" cy="323.07" r="16.22" fill="#cccccc" stroke="#000000" stroke-width="1.00"/>
<circle cx="151.35" cy="182.62" r="16.22" fill="#cccccc" stroke="#000000" stroke-width="1.00"/>
<circle cx="70.26" cy="266.89" r="16.22" fill="#cccccc" stroke="#000000" stroke-width="1.00"/>
<circle cx="135.13" cy="266.89" r="16.22" fill="#cccccc" stroke="#000000" stroke-width="1.00"/>
<circle cx="183.78" cy="238.80" r="16.22" fill="#cccccc" stroke="#000000" stroke-width="1.00"/>
<circle cx="232.44" cy="266.89" r="16.22" fill="#cccccc" stroke="#000000" stroke-width="1.00"/>
<circle cx="281.09" cy="182.62" r="16.22" fill="#cccccc" stroke="#000000" stroke-width="1.00"/>
<circle cx="313.53" cy="238.80" r="16.22" fill="#cccccc" stroke="#000000" stroke-width="1.00"/>
<circle cx="183.78" cy="126.44" r="16.22" fill="#cccccc" stroke="#000000" stroke-width="1.00"/>
<circle cx="183.78" cy="294.98" r="16.22" fill="#cccccc" stroke="#000000" stroke-width="1.00"/>
<circle cx="345.96" cy="294.98" r="16.22" fill="#cccccc" stroke="#000000" stroke-width="1.00"/>
<circle cx="102.69" cy="323.07" r="16.22" fill="#cccccc" stroke="#000000" stroke-width="1.00"/>
<circle cx="167.56" cy="210.71" r="16.22" fill="#cccccc" stroke="#000000" stroke-width="1.00"/>
<circle cx="281.09" cy="294.98" r="16.22" fill="#cccccc" stroke="#000000" stroke-width="1.00"/>
<circle cx="232.44" cy="323.07" r="16.22" fill="#cccccc" stroke="#000000" stroke-width="1.00"/>
<circle cx="135.13" cy="323.07" r="16.22" fill="#cccccc" stroke="#000000" stroke-width="1.00"/>
<circle cx="281.09" cy="238.80" r="16.22" fill="#cccccc" stroke="#000000" stroke-width="1.00"/>
<circle cx="167.56" cy="266.89" r="16.22" fill="#cccccc" stroke="#000000" stroke-width="1.00"/>
<circle cx="118.91" cy="182.62" r="16.22" fill="#cccccc" stroke="#000000" stroke-width="1.00"/>
<circle cx="216.22" cy="70.26" r="16.22" fill="#cccccc" stroke="#000000" stroke-width="1.00"/>
<circle cx="232.44" cy="154.53" r="16.22" fill="#cccccc" stroke="#000000" stroke-width="1.00"/>
<circle cx="264.87" cy="266.89" r="16.22" fill="#cccccc" stroke="#000000" stroke-width="1.00"/>
<circle cx="264.87" cy="210.71" r="16.22" fill="#cccccc" stroke="#000000" stroke-width="1.00"/>
<circle cx="248.65" cy="126.44" r="16.22" fill="#cccccc" stroke="#000000" stroke-width="1.00"/>
<circle cx="248.65" cy="238.80" r="16.22" fill="#cccccc" stroke="#000000" stroke-width="1.00"/>
<circle cx="216.22" cy="126.44" r="16.22" fill="#cccccc" stroke="#000000" stroke-width="1.00"/>
<circle cx="313.53" cy="294.98" r="16.22" fill="#cccccc" stroke="#000000" stroke-width="1.00"/>
<circle cx="118.91" cy="238.80" r="16.22" fill="#cccccc" stroke="#000000" stroke-width="1.00"/>
<circle cx="232.44" cy="210.71" r="16.22" fill="#cccccc" stroke="#000000" stroke-width="1.00"/>
<circle cx="167.56" cy="98.35" r="16.22" fill="#cccccc" stroke="#000000" stroke-width="1.00"/>
<circle cx="86.47" cy="294.98" r="16.22" fill="#cccccc" stroke="#000000" stroke-width="1.00"/>
<circle cx="264.87" cy="323.07" r="16.22" fill="#cccccc" stroke="#000000" stroke-width="1.00"/>
<circle cx="329.74" cy="323.07" r="16.22" fill="#cccccc" stroke="#000000" stroke-width="1.00"/>
<circle cx="118.91" cy="294.98" r="16.22" fill="#cccccc" stroke="#000000" stroke-width="1.00"/>
<circle cx="86.47" cy="238.80" r="16.22" fill="#cccccc" stroke="#000000" stroke-width="1.00"/>
<circle cx="37.82" cy="323.07" r="16.22" fill="#cccccc" stroke="#000000" stroke-width="1.00"/>
<circle cx="151.35" cy="126.44" r="16.22" fill="#cccccc" stroke="#000000" stroke-width="1.00"/>
<circle cx="216.22" cy="182.62" r="16.22" fill="#cccccc" stroke="#000000" stroke-width="1.00"/>
<circle cx="329.74" cy="266.89" r="16.22" fill="#cccccc" stroke="#000000" stroke-width="1.00"/>
<circle cx="135.13" cy="210.71" r="16.22" fill="#cccccc" stroke="#000000" stroke-width="1.00"/>
<circle cx="297.31" cy="210.71" r="16.22" fill="#cccccc" stroke="#000000" stroke-width="1.00"/>
<circle cx="135.13" cy="154.53" r="16.22" fill="#cccccc" stroke="#000000" stroke-width="1.00"/>
<circle cx="200.00" cy="323.07" r="16.22" fill="#cccccc" stroke="#000000" stroke-width="1.00"/>
<circle cx="248.65" cy="182.62" r="16.22" fill="#cccccc" stroke="#000000" stroke-width="1.00"/>
<circle cx="200.00" cy="266.89" r="16.22" fill="#cccccc" stroke="#000000" stroke-width="1.00"/>
<circle cx="167.56" cy="154.53" r="16.22" fill="#cccccc" stroke="#000000" stroke-width="1.00"/>
<circle cx="151.35" cy="238.80" r="16.22" fill="#cccccc" stroke="#000000" stroke-width="1.00"/>
<circle cx="102.69" cy="266.89" r="16.22" fill="#cccccc" stroke="#000000" stroke-width="1.00"/>
<circle cx="248.65" cy="294.98" r="16.22" fill="#cccccc" stroke="#000000" stroke-width="1.00"/>
<circle cx="362.18" cy="323.07" r="16.22" fill="#cccccc" stroke="#000000" stroke-width="1.00"/>
<circle cx="264.87" cy="154.53" r="16.22" fill="#cccccc" stroke="#000000" stroke-width="1.00"/>
<circle cx="232.44" cy="98.35" r="16.22" fill="#cccccc" stroke="#000000" stroke-width="1.00"/>
<circle cx="200.00" cy="154.53" r="16.22" fill="#cccccc" stroke="#000000" stroke-width="1.00"/>
<circle cx="216.22" cy="294.98" r="16.22" fill="#cccccc" stroke="#000000" stroke-width="1.00"/>
<circle cx="167.56" cy="323.07" r="16.22" fill="#cccccc" stroke="#000000" stroke-width="1.00"/>
<polygon points="200.00,9.73 9.73,339.29 390.27,339.29" fill="none" stroke="#000000" stroke-width="1.40"/>
</svg>