<svg xmlns="http://www.w3.org/2000/svg" width="400.0" height="348.9" viewBox="0 0 400.0 348.9">
<rect width="400.0" height="348.9" fill="white"/>
<circle cx="36.34" cy="323.98" r="15.58" fill="#cccccc" stroke="#000000" stroke-width="1.00"/>
<circle cx="67.51" cy="323.98" r="15.58" fill="#cccccc" stroke="#000000" stroke-width="1.00"/>
<circle cx="51.93" cy="296.99" r="15.58" fill="#cccccc" stroke="#000000" stroke-width="1.00"/>
<circle cx="98.68" cy="323.98" r="15.58" fill="#cccccc" stroke="#000000" stroke-width="1.00"/>
<circle cx="83.09" cy="296.99" r="15.58" fill="#cccccc" stroke="#000000" stroke-width="1.00"/>
<circle cx="67.51" cy="270.00" r="15.58" fill="#cccccc" stroke="#000000" stroke-width="1.00"/>
<circle cx="129.84" cy="323.98" r="15.58" fill="#cccccc" stroke="#000000" stroke-width="1.00"/>
<circle cx="114.26" cy="296.99" r="15.58" fill="#cccccc" stroke="#000000" stroke-width="1.00"/>
<circle cx="98.68" cy="270.00" r="15.58" fill="#cccccc" stroke="#000000" stroke-width="1.00"/>
<circle cx="83.09" cy="243.01" r="15.58" fill="#cccccc" stroke="#000000" stroke-width="1.00"/>
<circle cx="161.01" cy="323.98" r="15.58" fill="#cccccc" stroke="#000000" stroke-width="1.00"/>
<circle cx="145.43" cy="296.99" r="15.58" fill="#cccccc" stroke="#000000" stroke-width="1.00"/>
<circle cx="129.84" cy="270.00" r="15.58" fill="#cccccc" stroke="#000000" stroke-width="1.00"/>
<circle cx="114.26" cy="243.01" r="15.58" fill="#cccccc" stroke="#000000" stroke-width="1.00"/>
<circle cx="98.68" cy="216.01" r="15.58" fill="#cccccc" stroke="#000000" stroke-width="1.00"/>
<circle cx="192.18" cy="323.98" r="15.58" fill="#cccccc" stroke="#000000" stroke-width="1.00"/>
<circle cx="176.60" cy="296.99" r="15.58" fill="#cccccc" stroke="#000000" stroke-width="1.00"/>
<circle cx="161.01" cy="270.00" r="15.58" fill="#cccccc" stroke="#000000" stroke-width="1.00"/>
<circle cx="145.43" cy="243.01" r="15.58" fill="#cccccc" stroke="#000000" stroke-width="1.00"/>
<circle cx="129.84" cy="216.01" r="15.58" fill="#cccccc" stroke="#000000" stroke-width="1.00"/>
<circle cx="114.26" cy="189.02" r="15.58" fill="#cccccc" stroke="#000000" stroke-width="1.00"/>
<circle cx="223.35" cy="323.98" r="15.58" fill="#cccccc" stroke="#000000" stroke-width="1.00"/>
<circle cx="207.76" cy="296.99" r="15.58" fill="#cccccc" stroke="#000000" stroke-width="1.00"/>
<circle cx="192.18" cy="270.00" r="15.58" fill="#cccccc" stroke="#000000" stroke-width="1.00"/>
<circle cx="176.60" cy="243.01" r="15.58" fill="#cccccc" stroke="#000000" stroke-width="1.00"/>
<circle cx="161.01" cy="216.01" r="15.58" fill="#cccccc" stroke="#000000" stroke-width="1.00"/>
<circle cx="145.43" cy="189.02" r="15.58" fill="#cccccc" stroke="#000000" stroke-width="1.00"/>
<circle cx="129.84" cy="162.03" r="15.58" fill="#cccccc" stroke="#000000" stroke-width="1.00"/>
<circle cx="254.51" cy="323.98" r="15.58" fill="#cccccc" stroke="#000000" stroke-width="1.00"/>
<circle cx="238.93" cy="296.99" r="15.58" fill="#cccccc" stroke="#000000" stroke-width="1.00"/>
<circle cx="223.35" cy="270.00" r="15.58" fill="#cccccc" stroke="#000000" stroke-width="1.00"/>
<circle cx="207.76" cy="243.01" r="15.58" fill="#cccccc" stroke="#000000" stroke-width="1.00"/>
<circle cx="192.18" cy="216.01" r="15.58" fill="#cccccc" stroke="#000000" stroke-width="1.00"/>
<circle cx="176.60" cy="189.02" r="15.58" fill="#cccccc" stroke="#000000" stroke-width="1.00"/>
<circle cx="161.01" cy="162.03" r="15.58" fill="#cccccc" stroke="#000000" stroke-width="1.00"/>
<circle cx="145.43" cy="135.04" r="15.58" fill="#cccccc" stroke="#000000" stroke-width="1.00"/>
<circle cx="285.68" cy="323.98" r="15.58" fill="#cccccc" stroke="#000000" stroke-width="1.00"/>
<circle cx="279.56" cy="293.42" r="15.58" fill="#cccccc" stroke="#000000" stroke-width="1.00"/>
<circle cx="257.18" cy="271.73" r="15.58" fill="#cccccc" stroke="#000000" stroke-width="1.00"/>
<circle cx="238.93" cy="243.01" r="15.58" fill="#cccccc" stroke="#000000" stroke-width="1.00"/>
<circle cx="223.35" cy="216.01" r="15.58" fill="#cccccc" stroke="#000000" stroke-width="1.00"/>
<circle cx="207.76" cy="189.02" r="15.58" fill="#cccccc" stroke="#000000" stroke-width="1.00"/>
<circle cx="192.18" cy="162.03" r="15.58" fill="#cccccc" stroke="#000000" stroke-width="1.00"/>
<circle cx="176.60" cy="135.04" r="15.58" fill="#cccccc" stroke="#000000" stroke-width="1.00"/>
<circle cx="161.01" cy="108.05" r="15.58" fill="#cccccc" stroke="#000000" stroke-width="1.00"/>
<circle cx="316.85" cy="323.98" r="15.58" fill="#cccccc" stroke="#000000" stroke-width="1.00"/>
<circle cx="310.73" cy="293.42" r="15.58" fill="#cccccc" stroke="#000000" stroke-width="1.00"/>
<circle cx="294.42" cy="265.85" r="15.58" fill="#cccccc" stroke="#000000" stroke-width="1.00"/>
<circle cx="270.10" cy="243.36" r="15.58" fill="#cccccc" stroke="#000000" stroke-width="1.00"/>
<circle cx="238.93" cy="189.02" r="15.58" fill="#cccccc" stroke="#000000" stroke-width="1.00"/>
<circle cx="230.88" cy="157.01" r="15.58" fill="#cccccc" stroke="#000000" stroke-width="1.00"/>
<circle cx="207.76" cy="135.04" r="15.58" fill="#cccccc" stroke="#000000" stroke-width="1.00"/>
<circle cx="200.00" cy="101.65" r="15.58" fill="#cccccc" stroke="#000000" stroke-width="1.00"/>
<circle cx="176.60" cy="81.06" r="15.58" fill="#cccccc" stroke="#000000" stroke-width="1.00"/>
<circle cx="363.66" cy="323.98" r="15.58" fill="#cccccc" stroke="#000000" stroke-width="1.00"/>
<circle cx="340.25" cy="303.40" r="15.58" fill="#cccccc" stroke="#000000" stroke-width="1.00"/>
<circle cx="334.13" cy="272.84" r="15.58" fill="#cccccc" stroke="#000000" stroke-width="1.00"/>
<circle cx="318.55" cy="245.85" r="15.58" fill="#cccccc" stroke="#000000" stroke-width="1.00"/>
<circle cx="295.32" cy="225.06" r="15.58" fill="#cccccc" stroke="#000000" stroke-width="1.00"/>
<circle cx="288.93" cy="194.55" r="15.58" fill="#cccccc" stroke="#000000" stroke-width="1.00"/>
<circle cx="259.21" cy="143.07" r="15.58" fill="#cccccc" stroke="#000000" stroke-width="1.00"/>
<circle cx="236.13" cy="122.12" r="15.58" fill="#cccccc" stroke="#000000" stroke-width="1.00"/>
<circle cx="229.53" cy="91.66" r="15.58" fill="#cccccc" stroke="#000000" stroke-width="1.00"/>
<circle cx="206.12" cy="71.08" r="15.58" fill="#cccccc" stroke="#000000" stroke-width="1.00"/>
<circle cx="200.00" cy="40.52" r="15.58" fill="#cccccc" stroke="#000000" stroke-width="1.00"/>
<circle cx="265.96" cy="173.50" r="15.58" fill="#cccccc" stroke="#000000" stroke-width="1.00"/>
<circle cx="263.33" cy="212.34" r="15.58" fill="#cccccc" stroke="#000000" stroke-width="1.00"/>
<polygon points="200.00,9.35 9.35,339.57 390.65,339.57" fill="none" stroke="#000000" stroke-width="1.40"/>
</svg>