<svg xmlns="http://www.w3.org/2000/svg" width="400.0" height="348.9" viewBox="0 0 400.0 348.9">
<rect width="400.0" height="348.9" fill="white"/>
<circle cx="292.84" cy="254.62" r="15.47" fill="#cccccc" stroke="#000000" stroke-width="1.00"/>
<circle cx="67.03" cy="324.14" r="15.47" fill="#cccccc" stroke="#000000" stroke-width="1.00"/>
<circle cx="82.50" cy="243.74" r="15.47" fill="#cccccc" stroke="#000000" stroke-width="1.00"/>
<circle cx="169.02" cy="266.79" r="15.47" fill="#cccccc" stroke="#000000" stroke-width="1.00"/>
<circle cx="230.95" cy="93.83" r="15.47" fill="#cccccc" stroke="#000000" stroke-width="1.00"/>
<circle cx="261.89" cy="201.03" r="15.47" fill="#cccccc" stroke="#000000" stroke-width="1.00"/>
<circle cx="363.92" cy="324.14" r="15.47" fill="#cccccc" stroke="#000000" stroke-width="1.00"/>
<circle cx="277.36" cy="227.82" r="15.47" fill="#cccccc" stroke="#000000" stroke-width="1.00"/>
<circle cx="97.97" cy="270.54" r="15.47" fill="#cccccc" stroke="#000000" stroke-width="1.00"/>
<circle cx="323.78" cy="254.62" r="15.47" fill="#cccccc" stroke="#000000" stroke-width="1.00"/>
<circle cx="277.36" cy="174.23" r="15.47" fill="#cccccc" stroke="#000000" stroke-width="1.00"/>
<circle cx="215.47" cy="120.63" r="15.47" fill="#cccccc" stroke="#000000" stroke-width="1.00"/>
<circle cx="261.89" cy="254.62" r="15.47" fill="#cccccc" stroke="#000000" stroke-width="1.00"/>
<circle cx="233.37" cy="282.38" r="15.47" fill="#cccccc" stroke="#000000" stroke-width="1.00"/>
<circle cx="319.93" cy="285.33" r="15.47" fill="#cccccc" stroke="#000000" stroke-width="1.00"/>
<circle cx="260.46" cy="297.34" r="15.47" fill="#cccccc" stroke="#000000" stroke-width="1.00"/>
<circle cx="128.92" cy="270.54" r="15.47" fill="#cccccc" stroke="#000000" stroke-width="1.00"/>
<circle cx="97.97" cy="324.14" r="15.47" fill="#cccccc" stroke="#000000" stroke-width="1.00"/>
<circle cx="159.86" cy="324.14" r="15.47" fill="#cccccc" stroke="#000000" stroke-width="1.00"/>
<circle cx="172.91" cy="231.73" r="15.47" fill="#cccccc" stroke="#000000" stroke-width="1.00"/>
<circle cx="169.05" cy="147.43" r="15.47" fill="#cccccc" stroke="#000000" stroke-width="1.00"/>
<circle cx="36.08" cy="324.14" r="15.47" fill="#cccccc" stroke="#000000" stroke-width="1.00"/>
<circle cx="190.81" cy="324.14" r="15.47" fill="#cccccc" stroke="#000000" stroke-width="1.00"/>
<circle cx="246.42" cy="227.82" r="15.47" fill="#cccccc" stroke="#000000" stroke-width="1.00"/>
<circle cx="246.42" cy="120.63" r="15.47" fill="#cccccc" stroke="#000000" stroke-width="1.00"/>
<circle cx="246.42" cy="174.23" r="15.47" fill="#cccccc" stroke="#000000" stroke-width="1.00"/>
<circle cx="141.96" cy="178.13" r="15.47" fill="#cccccc" stroke="#000000" stroke-width="1.00"/>
<circle cx="157.44" cy="204.93" r="15.47" fill="#cccccc" stroke="#000000" stroke-width="1.00"/>
<circle cx="308.31" cy="227.82" r="15.47" fill="#cccccc" stroke="#000000" stroke-width="1.00"/>
<circle cx="215.47" cy="67.03" r="15.47" fill="#cccccc" stroke="#000000" stroke-width="1.00"/>
<circle cx="292.84" cy="201.03" r="15.47" fill="#cccccc" stroke="#000000" stroke-width="1.00"/>
<circle cx="128.92" cy="324.14" r="15.47" fill="#cccccc" stroke="#000000" stroke-width="1.00"/>
<circle cx="244.99" cy="324.14" r="15.47" fill="#cccccc" stroke="#000000" stroke-width="1.00"/>
<circle cx="304.45" cy="312.13" r="15.47" fill="#cccccc" stroke="#000000" stroke-width="1.00"/>
<circle cx="153.58" cy="120.63" r="15.47" fill="#cccccc" stroke="#000000" stroke-width="1.00"/>
<circle cx="217.90" cy="309.18" r="15.47" fill="#cccccc" stroke="#000000" stroke-width="1.00"/>
<circle cx="175.34" cy="297.34" r="15.47" fill="#cccccc" stroke="#000000" stroke-width="1.00"/>
<circle cx="113.45" cy="297.34" r="15.47" fill="#cccccc" stroke="#000000" stroke-width="1.00"/>
<circle cx="82.50" cy="297.34" r="15.47" fill="#cccccc" stroke="#000000" stroke-width="1.00"/>
<circle cx="144.39" cy="243.74" r="15.47" fill="#cccccc" stroke="#000000" stroke-width="1.00"/>
<circle cx="348.44" cy="297.34" r="15.47" fill="#cccccc" stroke="#000000" stroke-width="1.00"/>
<circle cx="188.38" cy="204.93" r="15.47" fill="#cccccc" stroke="#000000" stroke-width="1.00"/>
<circle cx="209.67" cy="177.93" r="15.47" fill="#cccccc" stroke="#000000" stroke-width="1.00"/>
<circle cx="113.45" cy="190.14" r="15.47" fill="#cccccc" stroke="#000000" stroke-width="1.00"/>
<circle cx="200.00" cy="40.23" r="15.47" fill="#cccccc" stroke="#000000" stroke-width="1.00"/>
<circle cx="184.53" cy="120.63" r="15.47" fill="#cccccc" stroke="#000000" stroke-width="1.00"/>
<circle cx="200.00" cy="93.83" r="15.47" fill="#cccccc" stroke="#000000" stroke-width="1.00"/>
<circle cx="202.43" cy="282.38" r="15.47" fill="#cccccc" stroke="#000000" stroke-width="1.00"/>
<circle cx="227.18" cy="252.06" r="15.47" fill="#cccccc" stroke="#000000" stroke-width="1.00"/>
<circle cx="113.45" cy="243.74" r="15.47" fill="#cccccc" stroke="#000000" stroke-width="1.00"/>
<circle cx="288.98" cy="285.33" r="15.47" fill="#cccccc" stroke="#000000" stroke-width="1.00"/>
<circle cx="67.03" cy="270.54" r="15.47" fill="#cccccc" stroke="#000000" stroke-width="1.00"/>
<circle cx="172.91" cy="178.13" r="15.47" fill="#cccccc" stroke="#000000" stroke-width="1.00"/>
<circle cx="332.97" cy="324.14" r="15.47" fill="#cccccc" stroke="#000000" stroke-width="1.00"/>
<circle cx="97.97" cy="216.94" r="15.47" fill="#cccccc" stroke="#000000" stroke-width="1.00"/>
<circle cx="200.00" cy="147.43" r="15.47" fill="#cccccc" stroke="#000000" stroke-width="1.00"/>
<circle cx="230.95" cy="147.43" r="15.47" fill="#cccccc" stroke="#000000" stroke-width="1.00"/>
<circle cx="144.39" cy="297.34" r="15.47" fill="#cccccc" stroke="#000000" stroke-width="1.00"/>
<circle cx="230.95" cy="201.03" r="15.47" fill="#cccccc" stroke="#000000" stroke-width="1.00"/>
<circle cx="261.89" cy="147.43" r="15.47" fill="#cccccc" stroke="#000000" stroke-width="1.00"/>
<circle cx="275.94" cy="324.14" r="15.47" fill="#cccccc" stroke="#000000" stroke-width="1.00"/>
<circle cx="184.53" cy="67.03" r="15.47" fill="#cccccc" stroke="#000000" stroke-width="1.00"/>
<circle cx="211.71" cy="225.27" r="15.47" fill="#cccccc" stroke="#000000" stroke-width="1.00"/>
<circle cx="138.11" cy="147.43" r="15.47" fill="#cccccc" stroke="#000000" stroke-width="1.00"/>
<circle cx="128.92" cy="216.94" r="15.47" fill="#cccccc" stroke="#000000" stroke-width="1.00"/>
<circle cx="196.24" cy="252.06" r="15.47" fill="#cccccc" stroke="#000000" stroke-width="1.00"/>
<circle cx="51.56" cy="297.34" r="15.47" fill="#cccccc" stroke="#000000" stroke-width="1.00"/>
<circle cx="169.05" cy="93.83" r="15.47" fill="#cccccc" stroke="#000000" stroke-width="1.00"/>
<polygon points="200.00,9.28 9.28,339.61 390.72,339.61" fill="none" stroke="#000000" stroke-width="1.40"/>
</svg>