<svg xmlns="http://www.w3.org/2000/svg" width="400.0" height="348.9" viewBox="0 0 400.0 348.9">
<rect width="400.0" height="348.9" fill="white"/>
<circle cx="153.82" cy="120.01" r="15.39" fill="#cccccc" stroke="#000000" stroke-width="1.00"/>
<circle cx="184.61" cy="120.01" r="15.39" fill="#cccccc" stroke="#000000" stroke-width="1.00"/>
<circle cx="200.00" cy="40.02" r="15.39" fill="#cccccc" stroke="#000000" stroke-width="1.00"/>
<circle cx="125.12" cy="223.04" r="15.39" fill="#cccccc" stroke="#000000" stroke-width="1.00"/>
<circle cx="200.00" cy="93.35" r="15.39" fill="#cccccc" stroke="#000000" stroke-width="1.00"/>
<circle cx="138.42" cy="146.68" r="15.39" fill="#cccccc" stroke="#000000" stroke-width="1.00"/>
<circle cx="92.24" cy="253.76" r="15.39" fill="#cccccc" stroke="#000000" stroke-width="1.00"/>
<circle cx="204.69" cy="143.34" r="15.39" fill="#cccccc" stroke="#000000" stroke-width="1.00"/>
<circle cx="109.73" cy="196.38" r="15.39" fill="#cccccc" stroke="#000000" stroke-width="1.00"/>
<circle cx="133.73" cy="177.10" r="15.39" fill="#cccccc" stroke="#000000" stroke-width="1.00"/>
<circle cx="169.21" cy="93.35" r="15.39" fill="#cccccc" stroke="#000000" stroke-width="1.00"/>
<circle cx="169.21" cy="146.68" r="15.39" fill="#cccccc" stroke="#000000" stroke-width="1.00"/>
<circle cx="215.39" cy="66.69" r="15.39" fill="#cccccc" stroke="#000000" stroke-width="1.00"/>
<circle cx="94.33" cy="223.04" r="15.39" fill="#cccccc" stroke="#000000" stroke-width="1.00"/>
<circle cx="184.61" cy="66.69" r="15.39" fill="#cccccc" stroke="#000000" stroke-width="1.00"/>
<circle cx="51.29" cy="297.59" r="15.39" fill="#cccccc" stroke="#000000" stroke-width="1.00"/>
<circle cx="123.03" cy="307.09" r="15.39" fill="#cccccc" stroke="#000000" stroke-width="1.00"/>
<circle cx="153.82" cy="253.76" r="15.39" fill="#cccccc" stroke="#000000" stroke-width="1.00"/>
<circle cx="302.53" cy="324.25" r="15.39" fill="#cccccc" stroke="#000000" stroke-width="1.00"/>
<circle cx="138.42" cy="280.42" r="15.39" fill="#cccccc" stroke="#000000" stroke-width="1.00"/>
<circle cx="66.69" cy="270.93" r="15.39" fill="#cccccc" stroke="#000000" stroke-width="1.00"/>
<circle cx="97.47" cy="324.25" r="15.39" fill="#cccccc" stroke="#000000" stroke-width="1.00"/>
<circle cx="210.16" cy="324.25" r="15.39" fill="#cccccc" stroke="#000000" stroke-width="1.00"/>
<circle cx="35.90" cy="324.25" r="15.39" fill="#cccccc" stroke="#000000" stroke-width="1.00"/>
<circle cx="271.74" cy="324.25" r="15.39" fill="#cccccc" stroke="#000000" stroke-width="1.00"/>
<circle cx="179.38" cy="324.25" r="15.39" fill="#cccccc" stroke="#000000" stroke-width="1.00"/>
<circle cx="66.69" cy="324.25" r="15.39" fill="#cccccc" stroke="#000000" stroke-width="1.00"/>
<circle cx="82.08" cy="297.59" r="15.39" fill="#cccccc" stroke="#000000" stroke-width="1.00"/>
<circle cx="107.64" cy="280.42" r="15.39" fill="#cccccc" stroke="#000000" stroke-width="1.00"/>
<circle cx="163.98" cy="297.59" r="15.39" fill="#cccccc" stroke="#000000" stroke-width="1.00"/>
<circle cx="240.95" cy="324.25" r="15.39" fill="#cccccc" stroke="#000000" stroke-width="1.00"/>
<circle cx="123.03" cy="253.76" r="15.39" fill="#cccccc" stroke="#000000" stroke-width="1.00"/>
<circle cx="148.59" cy="324.25" r="15.39" fill="#cccccc" stroke="#000000" stroke-width="1.00"/>
<circle cx="287.13" cy="297.59" r="15.39" fill="#cccccc" stroke="#000000" stroke-width="1.00"/>
<circle cx="302.53" cy="217.60" r="15.39" fill="#cccccc" stroke="#000000" stroke-width="1.00"/>
<circle cx="256.34" cy="137.61" r="15.39" fill="#cccccc" stroke="#000000" stroke-width="1.00"/>
<circle cx="364.10" cy="324.25" r="15.39" fill="#cccccc" stroke="#000000" stroke-width="1.00"/>
<circle cx="271.74" cy="164.28" r="15.39" fill="#cccccc" stroke="#000000" stroke-width="1.00"/>
<circle cx="256.34" cy="244.27" r="15.39" fill="#cccccc" stroke="#000000" stroke-width="1.00"/>
<circle cx="302.53" cy="270.93" r="15.39" fill="#cccccc" stroke="#000000" stroke-width="1.00"/>
<circle cx="317.92" cy="244.27" r="15.39" fill="#cccccc" stroke="#000000" stroke-width="1.00"/>
<circle cx="271.74" cy="270.93" r="15.39" fill="#cccccc" stroke="#000000" stroke-width="1.00"/>
<circle cx="348.71" cy="297.59" r="15.39" fill="#cccccc" stroke="#000000" stroke-width="1.00"/>
<circle cx="317.92" cy="297.59" r="15.39" fill="#cccccc" stroke="#000000" stroke-width="1.00"/>
<circle cx="287.13" cy="244.27" r="15.39" fill="#cccccc" stroke="#000000" stroke-width="1.00"/>
<circle cx="271.74" cy="217.60" r="15.39" fill="#cccccc" stroke="#000000" stroke-width="1.00"/>
<circle cx="228.70" cy="124.07" r="15.39" fill="#cccccc" stroke="#000000" stroke-width="1.00"/>
<circle cx="287.13" cy="190.94" r="15.39" fill="#cccccc" stroke="#000000" stroke-width="1.00"/>
<circle cx="333.31" cy="324.25" r="15.39" fill="#cccccc" stroke="#000000" stroke-width="1.00"/>
<circle cx="230.79" cy="93.35" r="15.39" fill="#cccccc" stroke="#000000" stroke-width="1.00"/>
<circle cx="333.31" cy="270.93" r="15.39" fill="#cccccc" stroke="#000000" stroke-width="1.00"/>
<circle cx="239.12" cy="163.25" r="15.39" fill="#cccccc" stroke="#000000" stroke-width="1.00"/>
<circle cx="210.16" cy="217.60" r="15.39" fill="#cccccc" stroke="#000000" stroke-width="1.00"/>
<circle cx="194.77" cy="297.59" r="15.39" fill="#cccccc" stroke="#000000" stroke-width="1.00"/>
<circle cx="149.13" cy="203.77" r="15.39" fill="#cccccc" stroke="#000000" stroke-width="1.00"/>
<circle cx="210.16" cy="270.93" r="15.39" fill="#cccccc" stroke="#000000" stroke-width="1.00"/>
<circle cx="240.95" cy="217.60" r="15.39" fill="#cccccc" stroke="#000000" stroke-width="1.00"/>
<circle cx="225.56" cy="190.94" r="15.39" fill="#cccccc" stroke="#000000" stroke-width="1.00"/>
<circle cx="194.77" cy="244.27" r="15.39" fill="#cccccc" stroke="#000000" stroke-width="1.00"/>
<circle cx="256.34" cy="190.94" r="15.39" fill="#cccccc" stroke="#000000" stroke-width="1.00"/>
<circle cx="169.21" cy="227.10" r="15.39" fill="#cccccc" stroke="#000000" stroke-width="1.00"/>
<circle cx="200.00" cy="173.77" r="15.39" fill="#cccccc" stroke="#000000" stroke-width="1.00"/>
<circle cx="225.56" cy="244.27" r="15.39" fill="#cccccc" stroke="#000000" stroke-width="1.00"/>
<circle cx="240.95" cy="270.93" r="15.39" fill="#cccccc" stroke="#000000" stroke-width="1.00"/>
<circle cx="256.34" cy="297.59" r="15.39" fill="#cccccc" stroke="#000000" stroke-width="1.00"/>
<circle cx="179.38" cy="270.93" r="15.39" fill="#cccccc" stroke="#000000" stroke-width="1.00"/>
<circle cx="164.52" cy="177.10" r="15.39" fill="#cccccc" stroke="#000000" stroke-width="1.00"/>
<circle cx="225.56" cy="297.59" r="15.39" fill="#cccccc" stroke="#000000" stroke-width="1.00"/>
<circle cx="184.61" cy="200.44" r="15.39" fill="#cccccc" stroke="#000000" stroke-width="1.00"/>
<polygon points="200.00,9.24 9.24,339.65 390.76,339.65" fill="none" stroke="#000000" stroke-width="1.40"/>
</svg>