<svg xmlns="http://www.w3.org/2000/svg" width="400.0" height="348.9" viewBox="0 0 400.0 348.9">
<rect width="400.0" height="348.9" fill="white"/>
<circle cx="169.38" cy="145.88" r="15.31" fill="#cccccc" stroke="#000000" stroke-width="1.00"/>
<circle cx="200.00" cy="92.84" r="15.31" fill="#cccccc" stroke="#000000" stroke-width="1.00"/>
<circle cx="96.92" cy="218.34" r="15.31" fill="#cccccc" stroke="#000000" stroke-width="1.00"/>
<circle cx="169.38" cy="92.84" r="15.31" fill="#cccccc" stroke="#000000" stroke-width="1.00"/>
<circle cx="82.58" cy="245.39" r="15.31" fill="#cccccc" stroke="#000000" stroke-width="1.00"/>
<circle cx="230.62" cy="145.88" r="15.31" fill="#cccccc" stroke="#000000" stroke-width="1.00"/>
<circle cx="112.23" cy="191.82" r="15.31" fill="#cccccc" stroke="#000000" stroke-width="1.00"/>
<circle cx="138.76" cy="145.88" r="15.31" fill="#cccccc" stroke="#000000" stroke-width="1.00"/>
<circle cx="184.69" cy="66.32" r="15.31" fill="#cccccc" stroke="#000000" stroke-width="1.00"/>
<circle cx="66.32" cy="271.34" r="15.31" fill="#cccccc" stroke="#000000" stroke-width="1.00"/>
<circle cx="200.00" cy="145.88" r="15.31" fill="#cccccc" stroke="#000000" stroke-width="1.00"/>
<circle cx="154.07" cy="119.36" r="15.31" fill="#cccccc" stroke="#000000" stroke-width="1.00"/>
<circle cx="184.69" cy="119.36" r="15.31" fill="#cccccc" stroke="#000000" stroke-width="1.00"/>
<circle cx="200.00" cy="39.81" r="15.31" fill="#cccccc" stroke="#000000" stroke-width="1.00"/>
<circle cx="215.31" cy="66.32" r="15.31" fill="#cccccc" stroke="#000000" stroke-width="1.00"/>
<circle cx="138.74" cy="176.50" r="15.31" fill="#cccccc" stroke="#000000" stroke-width="1.00"/>
<circle cx="66.32" cy="324.38" r="15.31" fill="#cccccc" stroke="#000000" stroke-width="1.00"/>
<circle cx="155.01" cy="307.52" r="15.31" fill="#cccccc" stroke="#000000" stroke-width="1.00"/>
<circle cx="143.80" cy="246.39" r="15.31" fill="#cccccc" stroke="#000000" stroke-width="1.00"/>
<circle cx="303.06" cy="324.38" r="15.31" fill="#cccccc" stroke="#000000" stroke-width="1.00"/>
<circle cx="113.20" cy="298.43" r="15.31" fill="#cccccc" stroke="#000000" stroke-width="1.00"/>
<circle cx="51.01" cy="297.86" r="15.31" fill="#cccccc" stroke="#000000" stroke-width="1.00"/>
<circle cx="129.45" cy="324.38" r="15.31" fill="#cccccc" stroke="#000000" stroke-width="1.00"/>
<circle cx="211.20" cy="324.38" r="15.31" fill="#cccccc" stroke="#000000" stroke-width="1.00"/>
<circle cx="35.70" cy="324.38" r="15.31" fill="#cccccc" stroke="#000000" stroke-width="1.00"/>
<circle cx="272.44" cy="324.38" r="15.31" fill="#cccccc" stroke="#000000" stroke-width="1.00"/>
<circle cx="195.61" cy="297.70" r="15.31" fill="#cccccc" stroke="#000000" stroke-width="1.00"/>
<circle cx="96.94" cy="324.38" r="15.31" fill="#cccccc" stroke="#000000" stroke-width="1.00"/>
<circle cx="81.63" cy="297.86" r="15.31" fill="#cccccc" stroke="#000000" stroke-width="1.00"/>
<circle cx="97.89" cy="271.91" r="15.31" fill="#cccccc" stroke="#000000" stroke-width="1.00"/>
<circle cx="132.93" cy="275.02" r="15.31" fill="#cccccc" stroke="#000000" stroke-width="1.00"/>
<circle cx="241.82" cy="324.38" r="15.31" fill="#cccccc" stroke="#000000" stroke-width="1.00"/>
<circle cx="113.20" cy="245.39" r="15.31" fill="#cccccc" stroke="#000000" stroke-width="1.00"/>
<circle cx="180.58" cy="324.38" r="15.31" fill="#cccccc" stroke="#000000" stroke-width="1.00"/>
<circle cx="287.75" cy="297.86" r="15.31" fill="#cccccc" stroke="#000000" stroke-width="1.00"/>
<circle cx="303.06" cy="218.31" r="15.31" fill="#cccccc" stroke="#000000" stroke-width="1.00"/>
<circle cx="245.93" cy="119.36" r="15.31" fill="#cccccc" stroke="#000000" stroke-width="1.00"/>
<circle cx="364.30" cy="324.38" r="15.31" fill="#cccccc" stroke="#000000" stroke-width="1.00"/>
<circle cx="262.90" cy="161.72" r="15.31" fill="#cccccc" stroke="#000000" stroke-width="1.00"/>
<circle cx="257.13" cy="244.82" r="15.31" fill="#cccccc" stroke="#000000" stroke-width="1.00"/>
<circle cx="303.06" cy="271.34" r="15.31" fill="#cccccc" stroke="#000000" stroke-width="1.00"/>
<circle cx="318.37" cy="244.82" r="15.31" fill="#cccccc" stroke="#000000" stroke-width="1.00"/>
<circle cx="272.44" cy="271.34" r="15.31" fill="#cccccc" stroke="#000000" stroke-width="1.00"/>
<circle cx="348.99" cy="297.86" r="15.31" fill="#cccccc" stroke="#000000" stroke-width="1.00"/>
<circle cx="318.37" cy="297.86" r="15.31" fill="#cccccc" stroke="#000000" stroke-width="1.00"/>
<circle cx="287.75" cy="244.82" r="15.31" fill="#cccccc" stroke="#000000" stroke-width="1.00"/>
<circle cx="272.44" cy="218.31" r="15.31" fill="#cccccc" stroke="#000000" stroke-width="1.00"/>
<circle cx="215.31" cy="119.36" r="15.31" fill="#cccccc" stroke="#000000" stroke-width="1.00"/>
<circle cx="287.75" cy="191.79" r="15.31" fill="#cccccc" stroke="#000000" stroke-width="1.00"/>
<circle cx="333.68" cy="324.38" r="15.31" fill="#cccccc" stroke="#000000" stroke-width="1.00"/>
<circle cx="230.62" cy="92.84" r="15.31" fill="#cccccc" stroke="#000000" stroke-width="1.00"/>
<circle cx="333.68" cy="271.34" r="15.31" fill="#cccccc" stroke="#000000" stroke-width="1.00"/>
<circle cx="230.60" cy="176.50" r="15.31" fill="#cccccc" stroke="#000000" stroke-width="1.00"/>
<circle cx="199.98" cy="229.53" r="15.31" fill="#cccccc" stroke="#000000" stroke-width="1.00"/>
<circle cx="163.40" cy="278.07" r="15.31" fill="#cccccc" stroke="#000000" stroke-width="1.00"/>
<circle cx="154.05" cy="203.01" r="15.31" fill="#cccccc" stroke="#000000" stroke-width="1.00"/>
<circle cx="211.20" cy="271.34" r="15.31" fill="#cccccc" stroke="#000000" stroke-width="1.00"/>
<circle cx="241.82" cy="218.31" r="15.31" fill="#cccccc" stroke="#000000" stroke-width="1.00"/>
<circle cx="215.29" cy="203.01" r="15.31" fill="#cccccc" stroke="#000000" stroke-width="1.00"/>
<circle cx="169.36" cy="229.53" r="15.31" fill="#cccccc" stroke="#000000" stroke-width="1.00"/>
<circle cx="257.13" cy="191.79" r="15.31" fill="#cccccc" stroke="#000000" stroke-width="1.00"/>
<circle cx="127.54" cy="218.34" r="15.31" fill="#cccccc" stroke="#000000" stroke-width="1.00"/>
<circle cx="199.98" cy="176.50" r="15.31" fill="#cccccc" stroke="#000000" stroke-width="1.00"/>
<circle cx="226.51" cy="244.82" r="15.31" fill="#cccccc" stroke="#000000" stroke-width="1.00"/>
<circle cx="241.82" cy="271.34" r="15.31" fill="#cccccc" stroke="#000000" stroke-width="1.00"/>
<circle cx="257.13" cy="297.86" r="15.31" fill="#cccccc" stroke="#000000" stroke-width="1.00"/>
<circle cx="184.67" cy="256.05" r="15.31" fill="#cccccc" stroke="#000000" stroke-width="1.00"/>
<circle cx="169.36" cy="176.50" r="15.31" fill="#cccccc" stroke="#000000" stroke-width="1.00"/>
<circle cx="226.51" cy="297.86" r="15.31" fill="#cccccc" stroke="#000000" stroke-width="1.00"/>
<circle cx="184.67" cy="203.01" r="15.31" fill="#cccccc" stroke="#000000" stroke-width="1.00"/>
<polygon points="200.00,9.19 9.19,339.69 390.81,339.69" fill="none" stroke="#000000" stroke-width="1.40"/>
</svg>