<svg xmlns="http://www.w3.org/2000/svg" width="400.0" height="348.9" viewBox="0 0 400.0 348.9">
<rect width="400.0" height="348.9" fill="white"/>
<circle cx="364.30" cy="324.38" r="15.31" fill="#cccccc" stroke="#000000" stroke-width="1.00"/>
<circle cx="348.99" cy="297.86" r="15.31" fill="#cccccc" stroke="#000000" stroke-width="1.00"/>
<circle cx="333.68" cy="324.38" r="15.31" fill="#cccccc" stroke="#000000" stroke-width="1.00"/>
<circle cx="333.68" cy="271.34" r="15.31" fill="#cccccc" stroke="#000000" stroke-width="1.00"/>
<circle cx="318.37" cy="297.86" r="15.31" fill="#cccccc" stroke="#000000" stroke-width="1.00"/>
<circle cx="303.06" cy="324.38" r="15.31" fill="#cccccc" stroke="#000000" stroke-width="1.00"/>
<circle cx="318.37" cy="244.83" r="15.31" fill="#cccccc" stroke="#000000" stroke-width="1.00"/>
<circle cx="303.06" cy="271.34" r="15.31" fill="#cccccc" stroke="#000000" stroke-width="1.00"/>
<circle cx="287.75" cy="297.86" r="15.31" fill="#cccccc" stroke="#000000" stroke-width="1.00"/>
<circle cx="272.44" cy="324.38" r="15.31" fill="#cccccc" stroke="#000000" stroke-width="1.00"/>
<circle cx="303.06" cy="218.31" r="15.31" fill="#cccccc" stroke="#000000" stroke-width="1.00"/>
<circle cx="287.75" cy="244.83" r="15.31" fill="#cccccc" stroke="#000000" stroke-width="1.00"/>
<circle cx="272.44" cy="271.34" r="15.31" fill="#cccccc" stroke="#000000" stroke-width="1.00"/>
<circle cx="257.13" cy="297.86" r="15.31" fill="#cccccc" stroke="#000000" stroke-width="1.00"/>
<circle cx="241.83" cy="324.38" r="15.31" fill="#cccccc" stroke="#000000" stroke-width="1.00"/>
<circle cx="200.00" cy="39.80" r="15.31" fill="#cccccc" stroke="#000000" stroke-width="1.00"/>
<circle cx="215.31" cy="66.32" r="15.31" fill="#cccccc" stroke="#000000" stroke-width="1.00"/>
<circle cx="184.69" cy="66.32" r="15.31" fill="#cccccc" stroke="#000000" stroke-width="1.00"/>
<circle cx="230.62" cy="92.84" r="15.31" fill="#cccccc" stroke="#000000" stroke-width="1.00"/>
<circle cx="200.00" cy="92.84" r="15.31" fill="#cccccc" stroke="#000000" stroke-width="1.00"/>
<circle cx="169.38" cy="92.84" r="15.31" fill="#cccccc" stroke="#000000" stroke-width="1.00"/>
<circle cx="245.93" cy="119.35" r="15.31" fill="#cccccc" stroke="#000000" stroke-width="1.00"/>
<circle cx="215.31" cy="119.35" r="15.31" fill="#cccccc" stroke="#000000" stroke-width="1.00"/>
<circle cx="184.69" cy="119.35" r="15.31" fill="#cccccc" stroke="#000000" stroke-width="1.00"/>
<circle cx="154.07" cy="119.35" r="15.31" fill="#cccccc" stroke="#000000" stroke-width="1.00"/>
<circle cx="261.24" cy="145.87" r="15.31" fill="#cccccc" stroke="#000000" stroke-width="1.00"/>
<circle cx="230.62" cy="145.87" r="15.31" fill="#cccccc" stroke="#000000" stroke-width="1.00"/>
<circle cx="200.00" cy="145.87" r="15.31" fill="#cccccc" stroke="#000000" stroke-width="1.00"/>
<circle cx="169.38" cy="145.87" r="15.31" fill="#cccccc" stroke="#000000" stroke-width="1.00"/>
<circle cx="138.76" cy="145.87" r="15.31" fill="#cccccc" stroke="#000000" stroke-width="1.00"/>
<circle cx="35.70" cy="324.38" r="15.31" fill="#cccccc" stroke="#000000" stroke-width="1.00"/>
<circle cx="66.32" cy="324.38" r="15.31" fill="#cccccc" stroke="#000000" stroke-width="1.00"/>
<circle cx="51.01" cy="297.86" r="15.31" fill="#cccccc" stroke="#000000" stroke-width="1.00"/>
<circle cx="96.94" cy="324.38" r="15.31" fill="#cccccc" stroke="#000000" stroke-width="1.00"/>
<circle cx="81.63" cy="297.86" r="15.31" fill="#cccccc" stroke="#000000" stroke-width="1.00"/>
<circle cx="66.32" cy="271.34" r="15.31" fill="#cccccc" stroke="#000000" stroke-width="1.00"/>
<circle cx="127.56" cy="324.38" r="15.31" fill="#cccccc" stroke="#000000" stroke-width="1.00"/>
<circle cx="112.25" cy="297.86" r="15.31" fill="#cccccc" stroke="#000000" stroke-width="1.00"/>
<circle cx="96.94" cy="271.34" r="15.31" fill="#cccccc" stroke="#000000" stroke-width="1.00"/>
<circle cx="81.63" cy="244.83" r="15.31" fill="#cccccc" stroke="#000000" stroke-width="1.00"/>
<circle cx="158.17" cy="324.38" r="15.31" fill="#cccccc" stroke="#000000" stroke-width="1.00"/>
<circle cx="142.87" cy="297.86" r="15.31" fill="#cccccc" stroke="#000000" stroke-width="1.00"/>
<circle cx="127.56" cy="271.34" r="15.31" fill="#cccccc" stroke="#000000" stroke-width="1.00"/>
<circle cx="112.25" cy="244.83" r="15.31" fill="#cccccc" stroke="#000000" stroke-width="1.00"/>
<circle cx="96.94" cy="218.31" r="15.31" fill="#cccccc" stroke="#000000" stroke-width="1.00"/>
<circle cx="188.79" cy="324.38" r="15.31" fill="#cccccc" stroke="#000000" stroke-width="1.00"/>
<circle cx="173.48" cy="297.86" r="15.31" fill="#cccccc" stroke="#000000" stroke-width="1.00"/>
<circle cx="158.17" cy="271.34" r="15.31" fill="#cccccc" stroke="#000000" stroke-width="1.00"/>
<circle cx="142.87" cy="244.83" r="15.31" fill="#cccccc" stroke="#000000" stroke-width="1.00"/>
<circle cx="127.56" cy="218.31" r="15.31" fill="#cccccc" stroke="#000000" stroke-width="1.00"/>
<circle cx="114.61" cy="187.70" r="15.31" fill="#cccccc" stroke="#000000" stroke-width="1.00"/>
<circle cx="154.07" cy="172.38" r="15.31" fill="#cccccc" stroke="#000000" stroke-width="1.00"/>
<circle cx="154.07" cy="203.00" r="15.31" fill="#cccccc" stroke="#000000" stroke-width="1.00"/>
<circle cx="184.69" cy="172.38" r="15.31" fill="#cccccc" stroke="#000000" stroke-width="1.00"/>
<circle cx="184.69" cy="203.00" r="15.31" fill="#cccccc" stroke="#000000" stroke-width="1.00"/>
<circle cx="169.38" cy="229.52" r="15.31" fill="#cccccc" stroke="#000000" stroke-width="1.00"/>
<circle cx="215.31" cy="172.38" r="15.31" fill="#cccccc" stroke="#000000" stroke-width="1.00"/>
<circle cx="215.31" cy="203.00" r="15.31" fill="#cccccc" stroke="#000000" stroke-width="1.00"/>
<circle cx="200.00" cy="229.52" r="15.31" fill="#cccccc" stroke="#000000" stroke-width="1.00"/>
<circle cx="184.69" cy="256.04" r="15.31" fill="#cccccc" stroke="#000000" stroke-width="1.00"/>
<circle cx="245.93" cy="172.38" r="15.31" fill="#cccccc" stroke="#000000" stroke-width="1.00"/>
<circle cx="245.93" cy="203.00" r="15.31" fill="#cccccc" stroke="#000000" stroke-width="1.00"/>
<circle cx="230.62" cy="229.52" r="15.31" fill="#cccccc" stroke="#000000" stroke-width="1.00"/>
<circle cx="215.31" cy="256.04" r="15.31" fill="#cccccc" stroke="#000000" stroke-width="1.00"/>
<circle cx="200.00" cy="282.55" r="15.31" fill="#cccccc" stroke="#000000" stroke-width="1.00"/>
<circle cx="276.55" cy="172.38" r="15.31" fill="#cccccc" stroke="#000000" stroke-width="1.00"/>
<circle cx="276.55" cy="203.00" r="15.31" fill="#cccccc" stroke="#000000" stroke-width="1.00"/>
<circle cx="261.24" cy="229.52" r="15.31" fill="#cccccc" stroke="#000000" stroke-width="1.00"/>
<circle cx="245.93" cy="256.04" r="15.31" fill="#cccccc" stroke="#000000" stroke-width="1.00"/>
<circle cx="230.62" cy="282.55" r="15.31" fill="#cccccc" stroke="#000000" stroke-width="1.00"/>
<circle cx="215.31" cy="309.07" r="15.31" fill="#cccccc" stroke="#000000" stroke-width="1.00"/>
<polygon points="200.00,9.19 9.19,339.69 390.81,339.69" fill="none" stroke="#000000" stroke-width="1.40"/>
</svg>