<svg xmlns="http://www.w3.org/2000/svg" width="400.0" height="348.8" viewBox="0 0 400.0 348.8">
<rect width="400.0" height="348.8" fill="white"/>
<circle cx="80.53" cy="298.52" r="15.10" fill="#cccccc" stroke="#000000" stroke-width="1.00"/>
<circle cx="213.75" cy="272.36" r="15.10" fill="#cccccc" stroke="#000000" stroke-width="1.00"/>
<circle cx="191.60" cy="251.83" r="15.10" fill="#cccccc" stroke="#000000" stroke-width="1.00"/>
<circle cx="200.00" cy="143.90" r="15.10" fill="#cccccc" stroke="#000000" stroke-width="1.00"/>
<circle cx="95.63" cy="324.67" r="15.10" fill="#cccccc" stroke="#000000" stroke-width="1.00"/>
<circle cx="349.68" cy="298.52" r="15.10" fill="#cccccc" stroke="#000000" stroke-width="1.00"/>
<circle cx="200.00" cy="39.27" r="15.10" fill="#cccccc" stroke="#000000" stroke-width="1.00"/>
<circle cx="50.32" cy="298.52" r="15.10" fill="#cccccc" stroke="#000000" stroke-width="1.00"/>
<circle cx="334.57" cy="324.67" r="15.10" fill="#cccccc" stroke="#000000" stroke-width="1.00"/>
<circle cx="198.65" cy="298.52" r="15.10" fill="#cccccc" stroke="#000000" stroke-width="1.00"/>
<circle cx="174.95" cy="226.62" r="15.10" fill="#cccccc" stroke="#000000" stroke-width="1.00"/>
<circle cx="154.69" cy="117.74" r="15.10" fill="#cccccc" stroke="#000000" stroke-width="1.00"/>
<circle cx="289.27" cy="246.20" r="15.10" fill="#cccccc" stroke="#000000" stroke-width="1.00"/>
<circle cx="154.69" cy="315.75" r="15.10" fill="#cccccc" stroke="#000000" stroke-width="1.00"/>
<circle cx="334.57" cy="272.36" r="15.10" fill="#cccccc" stroke="#000000" stroke-width="1.00"/>
<circle cx="289.27" cy="193.88" r="15.10" fill="#cccccc" stroke="#000000" stroke-width="1.00"/>
<circle cx="109.53" cy="237.77" r="15.10" fill="#cccccc" stroke="#000000" stroke-width="1.00"/>
<circle cx="252.01" cy="199.51" r="15.10" fill="#cccccc" stroke="#000000" stroke-width="1.00"/>
<circle cx="127.92" cy="261.73" r="15.10" fill="#cccccc" stroke="#000000" stroke-width="1.00"/>
<circle cx="176.50" cy="173.35" r="15.10" fill="#cccccc" stroke="#000000" stroke-width="1.00"/>
<circle cx="319.47" cy="298.52" r="15.10" fill="#cccccc" stroke="#000000" stroke-width="1.00"/>
<circle cx="364.78" cy="324.67" r="15.10" fill="#cccccc" stroke="#000000" stroke-width="1.00"/>
<circle cx="228.86" cy="298.52" r="15.10" fill="#cccccc" stroke="#000000" stroke-width="1.00"/>
<circle cx="144.21" cy="236.29" r="15.10" fill="#cccccc" stroke="#000000" stroke-width="1.00"/>
<circle cx="206.70" cy="173.35" r="15.10" fill="#cccccc" stroke="#000000" stroke-width="1.00"/>
<circle cx="169.79" cy="143.90" r="15.10" fill="#cccccc" stroke="#000000" stroke-width="1.00"/>
<circle cx="162.59" cy="260.26" r="15.10" fill="#cccccc" stroke="#000000" stroke-width="1.00"/>
<circle cx="304.37" cy="324.67" r="15.10" fill="#cccccc" stroke="#000000" stroke-width="1.00"/>
<circle cx="213.75" cy="324.67" r="15.10" fill="#cccccc" stroke="#000000" stroke-width="1.00"/>
<circle cx="243.96" cy="324.67" r="15.10" fill="#cccccc" stroke="#000000" stroke-width="1.00"/>
<circle cx="169.79" cy="289.59" r="15.10" fill="#cccccc" stroke="#000000" stroke-width="1.00"/>
<circle cx="184.90" cy="117.74" r="15.10" fill="#cccccc" stroke="#000000" stroke-width="1.00"/>
<circle cx="161.39" cy="199.51" r="15.10" fill="#cccccc" stroke="#000000" stroke-width="1.00"/>
<circle cx="274.16" cy="272.36" r="15.10" fill="#cccccc" stroke="#000000" stroke-width="1.00"/>
<circle cx="139.59" cy="289.59" r="15.10" fill="#cccccc" stroke="#000000" stroke-width="1.00"/>
<circle cx="267.11" cy="173.35" r="15.10" fill="#cccccc" stroke="#000000" stroke-width="1.00"/>
<circle cx="230.21" cy="143.90" r="15.10" fill="#cccccc" stroke="#000000" stroke-width="1.00"/>
<circle cx="304.37" cy="272.36" r="15.10" fill="#cccccc" stroke="#000000" stroke-width="1.00"/>
<circle cx="206.70" cy="225.67" r="15.10" fill="#cccccc" stroke="#000000" stroke-width="1.00"/>
<circle cx="65.43" cy="324.67" r="15.10" fill="#cccccc" stroke="#000000" stroke-width="1.00"/>
<circle cx="274.16" cy="324.67" r="15.10" fill="#cccccc" stroke="#000000" stroke-width="1.00"/>
<circle cx="236.91" cy="173.35" r="15.10" fill="#cccccc" stroke="#000000" stroke-width="1.00"/>
<circle cx="125.84" cy="324.67" r="15.10" fill="#cccccc" stroke="#000000" stroke-width="1.00"/>
<circle cx="274.16" cy="220.04" r="15.10" fill="#cccccc" stroke="#000000" stroke-width="1.00"/>
<circle cx="117.43" cy="182.28" r="15.10" fill="#cccccc" stroke="#000000" stroke-width="1.00"/>
<circle cx="191.60" cy="199.51" r="15.10" fill="#cccccc" stroke="#000000" stroke-width="1.00"/>
<circle cx="260.41" cy="143.90" r="15.10" fill="#cccccc" stroke="#000000" stroke-width="1.00"/>
<circle cx="80.53" cy="246.20" r="15.10" fill="#cccccc" stroke="#000000" stroke-width="1.00"/>
<circle cx="304.37" cy="220.04" r="15.10" fill="#cccccc" stroke="#000000" stroke-width="1.00"/>
<circle cx="184.90" cy="65.43" r="15.10" fill="#cccccc" stroke="#000000" stroke-width="1.00"/>
<circle cx="102.33" cy="208.43" r="15.10" fill="#cccccc" stroke="#000000" stroke-width="1.00"/>
<circle cx="221.80" cy="199.51" r="15.10" fill="#cccccc" stroke="#000000" stroke-width="1.00"/>
<circle cx="230.21" cy="91.58" r="15.10" fill="#cccccc" stroke="#000000" stroke-width="1.00"/>
<circle cx="110.73" cy="298.52" r="15.10" fill="#cccccc" stroke="#000000" stroke-width="1.00"/>
<circle cx="200.00" cy="91.58" r="15.10" fill="#cccccc" stroke="#000000" stroke-width="1.00"/>
<circle cx="97.54" cy="271.34" r="15.10" fill="#cccccc" stroke="#000000" stroke-width="1.00"/>
<circle cx="289.27" cy="298.52" r="15.10" fill="#cccccc" stroke="#000000" stroke-width="1.00"/>
<circle cx="259.06" cy="246.20" r="15.10" fill="#cccccc" stroke="#000000" stroke-width="1.00"/>
<circle cx="243.96" cy="272.36" r="15.10" fill="#cccccc" stroke="#000000" stroke-width="1.00"/>
<circle cx="132.54" cy="208.43" r="15.10" fill="#cccccc" stroke="#000000" stroke-width="1.00"/>
<circle cx="139.59" cy="143.90" r="15.10" fill="#cccccc" stroke="#000000" stroke-width="1.00"/>
<circle cx="215.10" cy="117.74" r="15.10" fill="#cccccc" stroke="#000000" stroke-width="1.00"/>
<circle cx="259.06" cy="298.52" r="15.10" fill="#cccccc" stroke="#000000" stroke-width="1.00"/>
<circle cx="35.22" cy="324.67" r="15.10" fill="#cccccc" stroke="#000000" stroke-width="1.00"/>
<circle cx="228.86" cy="246.20" r="15.10" fill="#cccccc" stroke="#000000" stroke-width="1.00"/>
<circle cx="183.55" cy="324.67" r="15.10" fill="#cccccc" stroke="#000000" stroke-width="1.00"/>
<circle cx="319.47" cy="246.20" r="15.10" fill="#cccccc" stroke="#000000" stroke-width="1.00"/>
<circle cx="215.10" cy="65.43" r="15.10" fill="#cccccc" stroke="#000000" stroke-width="1.00"/>
<circle cx="169.79" cy="91.58" r="15.10" fill="#cccccc" stroke="#000000" stroke-width="1.00"/>
<circle cx="245.31" cy="117.74" r="15.10" fill="#cccccc" stroke="#000000" stroke-width="1.00"/>
<circle cx="65.43" cy="272.36" r="15.10" fill="#cccccc" stroke="#000000" stroke-width="1.00"/>
<circle cx="146.29" cy="173.35" r="15.10" fill="#cccccc" stroke="#000000" stroke-width="1.00"/>
<polygon points="200.00,9.06 9.06,339.78 390.94,339.78" fill="none" stroke="#000000" stroke-width="1.40"/>
</svg>