<svg xmlns="http://www.w3.org/2000/svg" width="400.0" height="348.8" viewBox="0 0 400.0 348.8">
<rect width="400.0" height="348.8" fill="white"/>
<circle cx="169.92" cy="143.29" r="15.04" fill="#cccccc" stroke="#000000" stroke-width="1.00"/>
<circle cx="200.00" cy="91.19" r="15.04" fill="#cccccc" stroke="#000000" stroke-width="1.00"/>
<circle cx="95.22" cy="220.58" r="15.04" fill="#cccccc" stroke="#000000" stroke-width="1.00"/>
<circle cx="169.92" cy="91.19" r="15.04" fill="#cccccc" stroke="#000000" stroke-width="1.00"/>
<circle cx="80.19" cy="246.62" r="15.04" fill="#cccccc" stroke="#000000" stroke-width="1.00"/>
<circle cx="215.04" cy="117.24" r="15.04" fill="#cccccc" stroke="#000000" stroke-width="1.00"/>
<circle cx="110.26" cy="194.53" r="15.04" fill="#cccccc" stroke="#000000" stroke-width="1.00"/>
<circle cx="139.85" cy="143.29" r="15.04" fill="#cccccc" stroke="#000000" stroke-width="1.00"/>
<circle cx="184.96" cy="65.15" r="15.04" fill="#cccccc" stroke="#000000" stroke-width="1.00"/>
<circle cx="65.15" cy="272.67" r="15.04" fill="#cccccc" stroke="#000000" stroke-width="1.00"/>
<circle cx="200.00" cy="143.30" r="15.04" fill="#cccccc" stroke="#000000" stroke-width="1.00"/>
<circle cx="154.88" cy="117.24" r="15.04" fill="#cccccc" stroke="#000000" stroke-width="1.00"/>
<circle cx="184.96" cy="117.24" r="15.04" fill="#cccccc" stroke="#000000" stroke-width="1.00"/>
<circle cx="200.00" cy="39.10" r="15.04" fill="#cccccc" stroke="#000000" stroke-width="1.00"/>
<circle cx="215.04" cy="65.15" r="15.04" fill="#cccccc" stroke="#000000" stroke-width="1.00"/>
<circle cx="129.75" cy="171.62" r="15.04" fill="#cccccc" stroke="#000000" stroke-width="1.00"/>
<circle cx="214.55" cy="324.77" r="15.04" fill="#cccccc" stroke="#000000" stroke-width="1.00"/>
<circle cx="154.88" cy="267.25" r="15.04" fill="#cccccc" stroke="#000000" stroke-width="1.00"/>
<circle cx="184.96" cy="319.35" r="15.04" fill="#cccccc" stroke="#000000" stroke-width="1.00"/>
<circle cx="274.70" cy="324.77" r="15.04" fill="#cccccc" stroke="#000000" stroke-width="1.00"/>
<circle cx="244.62" cy="324.77" r="15.04" fill="#cccccc" stroke="#000000" stroke-width="1.00"/>
<circle cx="125.30" cy="324.77" r="15.04" fill="#cccccc" stroke="#000000" stroke-width="1.00"/>
<circle cx="50.11" cy="298.72" r="15.04" fill="#cccccc" stroke="#000000" stroke-width="1.00"/>
<circle cx="140.34" cy="298.72" r="15.04" fill="#cccccc" stroke="#000000" stroke-width="1.00"/>
<circle cx="169.92" cy="293.30" r="15.04" fill="#cccccc" stroke="#000000" stroke-width="1.00"/>
<circle cx="95.22" cy="272.67" r="15.04" fill="#cccccc" stroke="#000000" stroke-width="1.00"/>
<circle cx="35.07" cy="324.77" r="15.04" fill="#cccccc" stroke="#000000" stroke-width="1.00"/>
<circle cx="229.58" cy="298.72" r="15.04" fill="#cccccc" stroke="#000000" stroke-width="1.00"/>
<circle cx="65.15" cy="324.77" r="15.04" fill="#cccccc" stroke="#000000" stroke-width="1.00"/>
<circle cx="80.19" cy="298.72" r="15.04" fill="#cccccc" stroke="#000000" stroke-width="1.00"/>
<circle cx="125.30" cy="272.67" r="15.04" fill="#cccccc" stroke="#000000" stroke-width="1.00"/>
<circle cx="95.22" cy="324.77" r="15.04" fill="#cccccc" stroke="#000000" stroke-width="1.00"/>
<circle cx="155.38" cy="324.77" r="15.04" fill="#cccccc" stroke="#000000" stroke-width="1.00"/>
<circle cx="110.26" cy="298.72" r="15.04" fill="#cccccc" stroke="#000000" stroke-width="1.00"/>
<circle cx="110.26" cy="246.62" r="15.04" fill="#cccccc" stroke="#000000" stroke-width="1.00"/>
<circle cx="334.85" cy="272.67" r="15.04" fill="#cccccc" stroke="#000000" stroke-width="1.00"/>
<circle cx="260.15" cy="143.29" r="15.04" fill="#cccccc" stroke="#000000" stroke-width="1.00"/>
<circle cx="349.89" cy="298.72" r="15.04" fill="#cccccc" stroke="#000000" stroke-width="1.00"/>
<circle cx="364.93" cy="324.77" r="15.04" fill="#cccccc" stroke="#000000" stroke-width="1.00"/>
<circle cx="334.85" cy="324.77" r="15.04" fill="#cccccc" stroke="#000000" stroke-width="1.00"/>
<circle cx="304.78" cy="272.67" r="15.04" fill="#cccccc" stroke="#000000" stroke-width="1.00"/>
<circle cx="255.12" cy="197.72" r="15.04" fill="#cccccc" stroke="#000000" stroke-width="1.00"/>
<circle cx="319.81" cy="246.62" r="15.04" fill="#cccccc" stroke="#000000" stroke-width="1.00"/>
<circle cx="304.78" cy="220.58" r="15.04" fill="#cccccc" stroke="#000000" stroke-width="1.00"/>
<circle cx="245.12" cy="117.24" r="15.04" fill="#cccccc" stroke="#000000" stroke-width="1.00"/>
<circle cx="259.66" cy="298.72" r="15.04" fill="#cccccc" stroke="#000000" stroke-width="1.00"/>
<circle cx="304.78" cy="324.77" r="15.04" fill="#cccccc" stroke="#000000" stroke-width="1.00"/>
<circle cx="274.70" cy="272.67" r="15.04" fill="#cccccc" stroke="#000000" stroke-width="1.00"/>
<circle cx="275.21" cy="169.38" r="15.04" fill="#cccccc" stroke="#000000" stroke-width="1.00"/>
<circle cx="285.20" cy="197.75" r="15.04" fill="#cccccc" stroke="#000000" stroke-width="1.00"/>
<circle cx="289.74" cy="298.72" r="15.04" fill="#cccccc" stroke="#000000" stroke-width="1.00"/>
<circle cx="319.81" cy="298.72" r="15.04" fill="#cccccc" stroke="#000000" stroke-width="1.00"/>
<circle cx="289.74" cy="246.62" r="15.04" fill="#cccccc" stroke="#000000" stroke-width="1.00"/>
<circle cx="230.08" cy="91.19" r="15.04" fill="#cccccc" stroke="#000000" stroke-width="1.00"/>
<circle cx="150.13" cy="237.55" r="15.04" fill="#cccccc" stroke="#000000" stroke-width="1.00"/>
<circle cx="184.96" cy="267.25" r="15.04" fill="#cccccc" stroke="#000000" stroke-width="1.00"/>
<circle cx="172.89" cy="208.38" r="15.04" fill="#cccccc" stroke="#000000" stroke-width="1.00"/>
<circle cx="144.79" cy="197.67" r="15.04" fill="#cccccc" stroke="#000000" stroke-width="1.00"/>
<circle cx="125.30" cy="220.58" r="15.04" fill="#cccccc" stroke="#000000" stroke-width="1.00"/>
<circle cx="187.93" cy="182.33" r="15.04" fill="#cccccc" stroke="#000000" stroke-width="1.00"/>
<circle cx="270.16" cy="223.79" r="15.04" fill="#cccccc" stroke="#000000" stroke-width="1.00"/>
<circle cx="204.17" cy="219.38" r="15.04" fill="#cccccc" stroke="#000000" stroke-width="1.00"/>
<circle cx="180.21" cy="237.55" r="15.04" fill="#cccccc" stroke="#000000" stroke-width="1.00"/>
<circle cx="231.70" cy="268.72" r="15.04" fill="#cccccc" stroke="#000000" stroke-width="1.00"/>
<circle cx="245.14" cy="169.35" r="15.04" fill="#cccccc" stroke="#000000" stroke-width="1.00"/>
<circle cx="159.83" cy="171.62" r="15.04" fill="#cccccc" stroke="#000000" stroke-width="1.00"/>
<circle cx="225.04" cy="197.72" r="15.04" fill="#cccccc" stroke="#000000" stroke-width="1.00"/>
<circle cx="255.12" cy="249.84" r="15.04" fill="#cccccc" stroke="#000000" stroke-width="1.00"/>
<circle cx="208.92" cy="249.07" r="15.04" fill="#cccccc" stroke="#000000" stroke-width="1.00"/>
<circle cx="230.08" cy="143.29" r="15.04" fill="#cccccc" stroke="#000000" stroke-width="1.00"/>
<circle cx="215.06" cy="169.35" r="15.04" fill="#cccccc" stroke="#000000" stroke-width="1.00"/>
<circle cx="234.49" cy="226.90" r="15.04" fill="#cccccc" stroke="#000000" stroke-width="1.00"/>
<circle cx="200.00" cy="293.30" r="15.04" fill="#cccccc" stroke="#000000" stroke-width="1.00"/>
<polygon points="200.00,9.02 9.02,339.80 390.98,339.80" fill="none" stroke="#000000" stroke-width="1.40"/>
</svg>