<svg xmlns="http://www.w3.org/2000/svg" width="400.0" height="348.8" viewBox="0 0 400.0 348.8">
<rect width="400.0" height="348.8" fill="white"/>
<circle cx="215.01" cy="117.02" r="15.01" fill="#cccccc" stroke="#000000" stroke-width="1.00"/>
<circle cx="169.98" cy="143.02" r="15.01" fill="#cccccc" stroke="#000000" stroke-width="1.00"/>
<circle cx="154.97" cy="117.02" r="15.01" fill="#cccccc" stroke="#000000" stroke-width="1.00"/>
<circle cx="139.96" cy="143.02" r="15.01" fill="#cccccc" stroke="#000000" stroke-width="1.00"/>
<circle cx="110.06" cy="194.81" r="15.01" fill="#cccccc" stroke="#000000" stroke-width="1.00"/>
<circle cx="200.00" cy="39.03" r="15.01" fill="#cccccc" stroke="#000000" stroke-width="1.00"/>
<circle cx="215.01" cy="65.03" r="15.01" fill="#cccccc" stroke="#000000" stroke-width="1.00"/>
<circle cx="65.03" cy="272.81" r="15.01" fill="#cccccc" stroke="#000000" stroke-width="1.00"/>
<circle cx="169.98" cy="91.02" r="15.01" fill="#cccccc" stroke="#000000" stroke-width="1.00"/>
<circle cx="200.00" cy="143.02" r="15.01" fill="#cccccc" stroke="#000000" stroke-width="1.00"/>
<circle cx="184.99" cy="65.03" r="15.01" fill="#cccccc" stroke="#000000" stroke-width="1.00"/>
<circle cx="95.05" cy="220.81" r="15.01" fill="#cccccc" stroke="#000000" stroke-width="1.00"/>
<circle cx="80.04" cy="246.81" r="15.01" fill="#cccccc" stroke="#000000" stroke-width="1.00"/>
<circle cx="127.33" cy="170.26" r="15.01" fill="#cccccc" stroke="#000000" stroke-width="1.00"/>
<circle cx="184.99" cy="117.02" r="15.01" fill="#cccccc" stroke="#000000" stroke-width="1.00"/>
<circle cx="200.00" cy="91.02" r="15.01" fill="#cccccc" stroke="#000000" stroke-width="1.00"/>
<circle cx="230.02" cy="143.02" r="15.01" fill="#cccccc" stroke="#000000" stroke-width="1.00"/>
<circle cx="214.89" cy="324.81" r="15.01" fill="#cccccc" stroke="#000000" stroke-width="1.00"/>
<circle cx="162.17" cy="267.14" r="15.01" fill="#cccccc" stroke="#000000" stroke-width="1.00"/>
<circle cx="184.99" cy="322.12" r="15.01" fill="#cccccc" stroke="#000000" stroke-width="1.00"/>
<circle cx="274.93" cy="324.81" r="15.01" fill="#cccccc" stroke="#000000" stroke-width="1.00"/>
<circle cx="244.91" cy="324.81" r="15.01" fill="#cccccc" stroke="#000000" stroke-width="1.00"/>
<circle cx="125.07" cy="324.81" r="15.01" fill="#cccccc" stroke="#000000" stroke-width="1.00"/>
<circle cx="50.02" cy="298.81" r="15.01" fill="#cccccc" stroke="#000000" stroke-width="1.00"/>
<circle cx="140.08" cy="298.81" r="15.01" fill="#cccccc" stroke="#000000" stroke-width="1.00"/>
<circle cx="169.98" cy="296.12" r="15.01" fill="#cccccc" stroke="#000000" stroke-width="1.00"/>
<circle cx="95.05" cy="272.81" r="15.01" fill="#cccccc" stroke="#000000" stroke-width="1.00"/>
<circle cx="35.01" cy="324.81" r="15.01" fill="#cccccc" stroke="#000000" stroke-width="1.00"/>
<circle cx="229.90" cy="298.81" r="15.01" fill="#cccccc" stroke="#000000" stroke-width="1.00"/>
<circle cx="65.03" cy="324.81" r="15.01" fill="#cccccc" stroke="#000000" stroke-width="1.00"/>
<circle cx="80.04" cy="298.81" r="15.01" fill="#cccccc" stroke="#000000" stroke-width="1.00"/>
<circle cx="125.07" cy="272.81" r="15.01" fill="#cccccc" stroke="#000000" stroke-width="1.00"/>
<circle cx="95.05" cy="324.81" r="15.01" fill="#cccccc" stroke="#000000" stroke-width="1.00"/>
<circle cx="155.09" cy="324.81" r="15.01" fill="#cccccc" stroke="#000000" stroke-width="1.00"/>
<circle cx="110.06" cy="298.81" r="15.01" fill="#cccccc" stroke="#000000" stroke-width="1.00"/>
<circle cx="110.06" cy="246.81" r="15.01" fill="#cccccc" stroke="#000000" stroke-width="1.00"/>
<circle cx="334.97" cy="272.81" r="15.01" fill="#cccccc" stroke="#000000" stroke-width="1.00"/>
<circle cx="260.04" cy="143.02" r="15.01" fill="#cccccc" stroke="#000000" stroke-width="1.00"/>
<circle cx="349.98" cy="298.81" r="15.01" fill="#cccccc" stroke="#000000" stroke-width="1.00"/>
<circle cx="364.99" cy="324.81" r="15.01" fill="#cccccc" stroke="#000000" stroke-width="1.00"/>
<circle cx="334.97" cy="324.81" r="15.01" fill="#cccccc" stroke="#000000" stroke-width="1.00"/>
<circle cx="304.95" cy="272.81" r="15.01" fill="#cccccc" stroke="#000000" stroke-width="1.00"/>
<circle cx="274.93" cy="220.81" r="15.01" fill="#cccccc" stroke="#000000" stroke-width="1.00"/>
<circle cx="319.96" cy="246.81" r="15.01" fill="#cccccc" stroke="#000000" stroke-width="1.00"/>
<circle cx="304.95" cy="220.81" r="15.01" fill="#cccccc" stroke="#000000" stroke-width="1.00"/>
<circle cx="245.03" cy="117.02" r="15.01" fill="#cccccc" stroke="#000000" stroke-width="1.00"/>
<circle cx="259.92" cy="298.81" r="15.01" fill="#cccccc" stroke="#000000" stroke-width="1.00"/>
<circle cx="304.95" cy="324.81" r="15.01" fill="#cccccc" stroke="#000000" stroke-width="1.00"/>
<circle cx="274.93" cy="272.81" r="15.01" fill="#cccccc" stroke="#000000" stroke-width="1.00"/>
<circle cx="272.67" cy="170.26" r="15.01" fill="#cccccc" stroke="#000000" stroke-width="1.00"/>
<circle cx="289.94" cy="194.81" r="15.01" fill="#cccccc" stroke="#000000" stroke-width="1.00"/>
<circle cx="289.94" cy="298.81" r="15.01" fill="#cccccc" stroke="#000000" stroke-width="1.00"/>
<circle cx="319.96" cy="298.81" r="15.01" fill="#cccccc" stroke="#000000" stroke-width="1.00"/>
<circle cx="289.94" cy="246.81" r="15.01" fill="#cccccc" stroke="#000000" stroke-width="1.00"/>
<circle cx="230.02" cy="91.02" r="15.01" fill="#cccccc" stroke="#000000" stroke-width="1.00"/>
<circle cx="140.08" cy="246.81" r="15.01" fill="#cccccc" stroke="#000000" stroke-width="1.00"/>
<circle cx="192.19" cy="267.14" r="15.01" fill="#cccccc" stroke="#000000" stroke-width="1.00"/>
<circle cx="169.98" cy="207.98" r="15.01" fill="#cccccc" stroke="#000000" stroke-width="1.00"/>
<circle cx="142.34" cy="196.26" r="15.01" fill="#cccccc" stroke="#000000" stroke-width="1.00"/>
<circle cx="125.07" cy="220.81" r="15.01" fill="#cccccc" stroke="#000000" stroke-width="1.00"/>
<circle cx="227.64" cy="196.26" r="15.01" fill="#cccccc" stroke="#000000" stroke-width="1.00"/>
<circle cx="259.92" cy="246.81" r="15.01" fill="#cccccc" stroke="#000000" stroke-width="1.00"/>
<circle cx="200.00" cy="207.98" r="15.01" fill="#cccccc" stroke="#000000" stroke-width="1.00"/>
<circle cx="169.40" cy="238.00" r="15.01" fill="#cccccc" stroke="#000000" stroke-width="1.00"/>
<circle cx="244.91" cy="272.81" r="15.01" fill="#cccccc" stroke="#000000" stroke-width="1.00"/>
<circle cx="242.65" cy="170.26" r="15.01" fill="#cccccc" stroke="#000000" stroke-width="1.00"/>
<circle cx="157.35" cy="170.26" r="15.01" fill="#cccccc" stroke="#000000" stroke-width="1.00"/>
<circle cx="257.66" cy="196.26" r="15.01" fill="#cccccc" stroke="#000000" stroke-width="1.00"/>
<circle cx="227.64" cy="248.26" r="15.01" fill="#cccccc" stroke="#000000" stroke-width="1.00"/>
<circle cx="199.42" cy="238.00" r="15.01" fill="#cccccc" stroke="#000000" stroke-width="1.00"/>
<circle cx="212.63" cy="170.26" r="15.01" fill="#cccccc" stroke="#000000" stroke-width="1.00"/>
<circle cx="184.99" cy="181.98" r="15.01" fill="#cccccc" stroke="#000000" stroke-width="1.00"/>
<circle cx="242.65" cy="222.26" r="15.01" fill="#cccccc" stroke="#000000" stroke-width="1.00"/>
<circle cx="200.00" cy="296.12" r="15.01" fill="#cccccc" stroke="#000000" stroke-width="1.00"/>
<polygon points="200.00,9.01 9.01,339.82 390.99,339.82" fill="none" stroke="#000000" stroke-width="1.40"/>
</svg>