<svg xmlns="http://www.w3.org/2000/svg" width="400.0" height="348.8" viewBox="0 0 400.0 348.8">
<rect width="400.0" height="348.8" fill="white"/>
<circle cx="275.01" cy="272.85" r="15.00" fill="#cccccc" stroke="#000000" stroke-width="1.00"/>
<circle cx="64.99" cy="324.82" r="15.00" fill="#cccccc" stroke="#000000" stroke-width="1.00"/>
<circle cx="290.01" cy="246.87" r="15.00" fill="#cccccc" stroke="#000000" stroke-width="1.00"/>
<circle cx="109.99" cy="246.87" r="15.00" fill="#cccccc" stroke="#000000" stroke-width="1.00"/>
<circle cx="200.00" cy="246.87" r="15.00" fill="#cccccc" stroke="#000000" stroke-width="1.00"/>
<circle cx="245.00" cy="324.82" r="15.00" fill="#cccccc" stroke="#000000" stroke-width="1.00"/>
<circle cx="230.00" cy="246.87" r="15.00" fill="#cccccc" stroke="#000000" stroke-width="1.00"/>
<circle cx="155.00" cy="272.85" r="15.00" fill="#cccccc" stroke="#000000" stroke-width="1.00"/>
<circle cx="215.00" cy="168.92" r="15.00" fill="#cccccc" stroke="#000000" stroke-width="1.00"/>
<circle cx="350.01" cy="298.84" r="15.00" fill="#cccccc" stroke="#000000" stroke-width="1.00"/>
<circle cx="230.00" cy="194.90" r="15.00" fill="#cccccc" stroke="#000000" stroke-width="1.00"/>
<circle cx="200.00" cy="39.00" r="15.00" fill="#cccccc" stroke="#000000" stroke-width="1.00"/>
<circle cx="34.98" cy="324.82" r="15.00" fill="#cccccc" stroke="#000000" stroke-width="1.00"/>
<circle cx="124.99" cy="272.85" r="15.00" fill="#cccccc" stroke="#000000" stroke-width="1.00"/>
<circle cx="215.00" cy="64.99" r="15.00" fill="#cccccc" stroke="#000000" stroke-width="1.00"/>
<circle cx="275.01" cy="168.92" r="15.00" fill="#cccccc" stroke="#000000" stroke-width="1.00"/>
<circle cx="290.01" cy="194.90" r="15.00" fill="#cccccc" stroke="#000000" stroke-width="1.00"/>
<circle cx="200.00" cy="298.84" r="15.00" fill="#cccccc" stroke="#000000" stroke-width="1.00"/>
<circle cx="170.00" cy="142.94" r="15.00" fill="#cccccc" stroke="#000000" stroke-width="1.00"/>
<circle cx="170.00" cy="246.87" r="15.00" fill="#cccccc" stroke="#000000" stroke-width="1.00"/>
<circle cx="109.99" cy="194.90" r="15.00" fill="#cccccc" stroke="#000000" stroke-width="1.00"/>
<circle cx="215.00" cy="116.95" r="15.00" fill="#cccccc" stroke="#000000" stroke-width="1.00"/>
<circle cx="200.00" cy="142.94" r="15.00" fill="#cccccc" stroke="#000000" stroke-width="1.00"/>
<circle cx="230.00" cy="298.84" r="15.00" fill="#cccccc" stroke="#000000" stroke-width="1.00"/>
<circle cx="185.00" cy="272.85" r="15.00" fill="#cccccc" stroke="#000000" stroke-width="1.00"/>
<circle cx="139.99" cy="142.94" r="15.00" fill="#cccccc" stroke="#000000" stroke-width="1.00"/>
<circle cx="139.99" cy="194.90" r="15.00" fill="#cccccc" stroke="#000000" stroke-width="1.00"/>
<circle cx="79.99" cy="298.84" r="15.00" fill="#cccccc" stroke="#000000" stroke-width="1.00"/>
<circle cx="170.00" cy="298.84" r="15.00" fill="#cccccc" stroke="#000000" stroke-width="1.00"/>
<circle cx="155.00" cy="168.92" r="15.00" fill="#cccccc" stroke="#000000" stroke-width="1.00"/>
<circle cx="215.00" cy="220.89" r="15.00" fill="#cccccc" stroke="#000000" stroke-width="1.00"/>
<circle cx="260.01" cy="194.90" r="15.00" fill="#cccccc" stroke="#000000" stroke-width="1.00"/>
<circle cx="124.99" cy="324.82" r="15.00" fill="#cccccc" stroke="#000000" stroke-width="1.00"/>
<circle cx="275.01" cy="220.89" r="15.00" fill="#cccccc" stroke="#000000" stroke-width="1.00"/>
<circle cx="124.99" cy="168.92" r="15.00" fill="#cccccc" stroke="#000000" stroke-width="1.00"/>
<circle cx="124.99" cy="220.89" r="15.00" fill="#cccccc" stroke="#000000" stroke-width="1.00"/>
<circle cx="185.00" cy="220.89" r="15.00" fill="#cccccc" stroke="#000000" stroke-width="1.00"/>
<circle cx="260.01" cy="298.84" r="15.00" fill="#cccccc" stroke="#000000" stroke-width="1.00"/>
<circle cx="260.01" cy="246.87" r="15.00" fill="#cccccc" stroke="#000000" stroke-width="1.00"/>
<circle cx="155.00" cy="220.89" r="15.00" fill="#cccccc" stroke="#000000" stroke-width="1.00"/>
<circle cx="305.01" cy="220.89" r="15.00" fill="#cccccc" stroke="#000000" stroke-width="1.00"/>
<circle cx="245.00" cy="220.89" r="15.00" fill="#cccccc" stroke="#000000" stroke-width="1.00"/>
<circle cx="305.01" cy="272.85" r="15.00" fill="#cccccc" stroke="#000000" stroke-width="1.00"/>
<circle cx="320.01" cy="246.87" r="15.00" fill="#cccccc" stroke="#000000" stroke-width="1.00"/>
<circle cx="290.01" cy="298.84" r="15.00" fill="#cccccc" stroke="#000000" stroke-width="1.00"/>
<circle cx="79.99" cy="246.87" r="15.00" fill="#cccccc" stroke="#000000" stroke-width="1.00"/>
<circle cx="320.01" cy="298.84" r="15.00" fill="#cccccc" stroke="#000000" stroke-width="1.00"/>
<circle cx="215.00" cy="324.82" r="15.00" fill="#cccccc" stroke="#000000" stroke-width="1.00"/>
<circle cx="230.00" cy="90.97" r="15.00" fill="#cccccc" stroke="#000000" stroke-width="1.00"/>
<circle cx="245.00" cy="168.92" r="15.00" fill="#cccccc" stroke="#000000" stroke-width="1.00"/>
<circle cx="305.01" cy="324.82" r="15.00" fill="#cccccc" stroke="#000000" stroke-width="1.00"/>
<circle cx="94.99" cy="324.82" r="15.00" fill="#cccccc" stroke="#000000" stroke-width="1.00"/>
<circle cx="185.00" cy="116.95" r="15.00" fill="#cccccc" stroke="#000000" stroke-width="1.00"/>
<circle cx="215.00" cy="272.85" r="15.00" fill="#cccccc" stroke="#000000" stroke-width="1.00"/>
<circle cx="200.00" cy="90.97" r="15.00" fill="#cccccc" stroke="#000000" stroke-width="1.00"/>
<circle cx="200.00" cy="194.90" r="15.00" fill="#cccccc" stroke="#000000" stroke-width="1.00"/>
<circle cx="139.99" cy="246.87" r="15.00" fill="#cccccc" stroke="#000000" stroke-width="1.00"/>
<circle cx="64.99" cy="272.85" r="15.00" fill="#cccccc" stroke="#000000" stroke-width="1.00"/>
<circle cx="94.99" cy="272.85" r="15.00" fill="#cccccc" stroke="#000000" stroke-width="1.00"/>
<circle cx="155.00" cy="116.95" r="15.00" fill="#cccccc" stroke="#000000" stroke-width="1.00"/>
<circle cx="170.00" cy="90.97" r="15.00" fill="#cccccc" stroke="#000000" stroke-width="1.00"/>
<circle cx="275.01" cy="324.82" r="15.00" fill="#cccccc" stroke="#000000" stroke-width="1.00"/>
<circle cx="260.01" cy="142.94" r="15.00" fill="#cccccc" stroke="#000000" stroke-width="1.00"/>
<circle cx="245.00" cy="116.95" r="15.00" fill="#cccccc" stroke="#000000" stroke-width="1.00"/>
<circle cx="94.99" cy="220.89" r="15.00" fill="#cccccc" stroke="#000000" stroke-width="1.00"/>
<circle cx="109.99" cy="298.84" r="15.00" fill="#cccccc" stroke="#000000" stroke-width="1.00"/>
<circle cx="139.99" cy="298.84" r="15.00" fill="#cccccc" stroke="#000000" stroke-width="1.00"/>
<circle cx="155.00" cy="324.82" r="15.00" fill="#cccccc" stroke="#000000" stroke-width="1.00"/>
<circle cx="245.00" cy="272.85" r="15.00" fill="#cccccc" stroke="#000000" stroke-width="1.00"/>
<circle cx="170.00" cy="194.90" r="15.00" fill="#cccccc" stroke="#000000" stroke-width="1.00"/>
<circle cx="49.99" cy="298.84" r="15.00" fill="#cccccc" stroke="#000000" stroke-width="1.00"/>
<circle cx="230.00" cy="142.94" r="15.00" fill="#cccccc" stroke="#000000" stroke-width="1.00"/>
<circle cx="185.00" cy="64.99" r="15.00" fill="#cccccc" stroke="#000000" stroke-width="1.00"/>
<circle cx="185.00" cy="324.82" r="15.00" fill="#cccccc" stroke="#000000" stroke-width="1.00"/>
<circle cx="335.01" cy="324.82" r="15.00" fill="#cccccc" stroke="#000000" stroke-width="1.00"/>
<circle cx="185.00" cy="168.92" r="15.00" fill="#cccccc" stroke="#000000" stroke-width="1.00"/>
<circle cx="335.01" cy="272.85" r="15.00" fill="#cccccc" stroke="#000000" stroke-width="1.00"/>
<polygon points="200.00,9.00 9.00,339.82 391.00,339.82" fill="none" stroke="#000000" stroke-width="1.40"/>
</svg>