<svg xmlns="http://www.w3.org/2000/svg" width="400.0" height="348.7" viewBox="0 0 400.0 348.7">
<rect width="400.0" height="348.7" fill="white"/>
<circle cx="366.23" cy="325.57" r="14.48" fill="#cccccc" stroke="#000000" stroke-width="1.00"/>
<circle cx="351.75" cy="300.49" r="14.48" fill="#cccccc" stroke="#000000" stroke-width="1.00"/>
<circle cx="337.27" cy="325.57" r="14.48" fill="#cccccc" stroke="#000000" stroke-width="1.00"/>
<circle cx="337.27" cy="275.40" r="14.48" fill="#cccccc" stroke="#000000" stroke-width="1.00"/>
<circle cx="322.79" cy="300.49" r="14.48" fill="#cccccc" stroke="#000000" stroke-width="1.00"/>
<circle cx="308.30" cy="325.57" r="14.48" fill="#cccccc" stroke="#000000" stroke-width="1.00"/>
<circle cx="322.79" cy="250.32" r="14.48" fill="#cccccc" stroke="#000000" stroke-width="1.00"/>
<circle cx="308.30" cy="275.40" r="14.48" fill="#cccccc" stroke="#000000" stroke-width="1.00"/>
<circle cx="293.82" cy="300.49" r="14.48" fill="#cccccc" stroke="#000000" stroke-width="1.00"/>
<circle cx="279.34" cy="325.57" r="14.48" fill="#cccccc" stroke="#000000" stroke-width="1.00"/>
<circle cx="308.30" cy="225.24" r="14.48" fill="#cccccc" stroke="#000000" stroke-width="1.00"/>
<circle cx="293.82" cy="250.32" r="14.48" fill="#cccccc" stroke="#000000" stroke-width="1.00"/>
<circle cx="279.34" cy="275.40" r="14.48" fill="#cccccc" stroke="#000000" stroke-width="1.00"/>
<circle cx="264.86" cy="300.49" r="14.48" fill="#cccccc" stroke="#000000" stroke-width="1.00"/>
<circle cx="250.38" cy="325.57" r="14.48" fill="#cccccc" stroke="#000000" stroke-width="1.00"/>
<circle cx="293.82" cy="200.16" r="14.48" fill="#cccccc" stroke="#000000" stroke-width="1.00"/>
<circle cx="279.34" cy="225.24" r="14.48" fill="#cccccc" stroke="#000000" stroke-width="1.00"/>
<circle cx="264.86" cy="250.32" r="14.48" fill="#cccccc" stroke="#000000" stroke-width="1.00"/>
<circle cx="250.38" cy="275.40" r="14.48" fill="#cccccc" stroke="#000000" stroke-width="1.00"/>
<circle cx="235.90" cy="300.49" r="14.48" fill="#cccccc" stroke="#000000" stroke-width="1.00"/>
<circle cx="221.42" cy="325.57" r="14.48" fill="#cccccc" stroke="#000000" stroke-width="1.00"/>
<circle cx="279.34" cy="175.08" r="14.48" fill="#cccccc" stroke="#000000" stroke-width="1.00"/>
<circle cx="264.86" cy="200.16" r="14.48" fill="#cccccc" stroke="#000000" stroke-width="1.00"/>
<circle cx="250.38" cy="225.24" r="14.48" fill="#cccccc" stroke="#000000" stroke-width="1.00"/>
<circle cx="235.90" cy="250.32" r="14.48" fill="#cccccc" stroke="#000000" stroke-width="1.00"/>
<circle cx="221.42" cy="275.40" r="14.48" fill="#cccccc" stroke="#000000" stroke-width="1.00"/>
<circle cx="206.94" cy="300.49" r="14.48" fill="#cccccc" stroke="#000000" stroke-width="1.00"/>
<circle cx="192.45" cy="325.57" r="14.48" fill="#cccccc" stroke="#000000" stroke-width="1.00"/>
<circle cx="264.86" cy="149.99" r="14.48" fill="#cccccc" stroke="#000000" stroke-width="1.00"/>
<circle cx="250.38" cy="175.08" r="14.48" fill="#cccccc" stroke="#000000" stroke-width="1.00"/>
<circle cx="235.90" cy="200.16" r="14.48" fill="#cccccc" stroke="#000000" stroke-width="1.00"/>
<circle cx="221.42" cy="225.24" r="14.48" fill="#cccccc" stroke="#000000" stroke-width="1.00"/>
<circle cx="206.94" cy="250.32" r="14.48" fill="#cccccc" stroke="#000000" stroke-width="1.00"/>
<circle cx="192.45" cy="275.40" r="14.48" fill="#cccccc" stroke="#000000" stroke-width="1.00"/>
<circle cx="177.97" cy="300.49" r="14.48" fill="#cccccc" stroke="#000000" stroke-width="1.00"/>
<circle cx="163.49" cy="325.57" r="14.48" fill="#cccccc" stroke="#000000" stroke-width="1.00"/>
<circle cx="250.38" cy="124.91" r="14.48" fill="#cccccc" stroke="#000000" stroke-width="1.00"/>
<circle cx="235.90" cy="149.99" r="14.48" fill="#cccccc" stroke="#000000" stroke-width="1.00"/>
<circle cx="221.42" cy="175.08" r="14.48" fill="#cccccc" stroke="#000000" stroke-width="1.00"/>
<circle cx="206.94" cy="200.16" r="14.48" fill="#cccccc" stroke="#000000" stroke-width="1.00"/>
<circle cx="192.45" cy="225.24" r="14.48" fill="#cccccc" stroke="#000000" stroke-width="1.00"/>
<circle cx="177.97" cy="250.32" r="14.48" fill="#cccccc" stroke="#000000" stroke-width="1.00"/>
<circle cx="163.49" cy="275.40" r="14.48" fill="#cccccc" stroke="#000000" stroke-width="1.00"/>
<circle cx="149.01" cy="300.49" r="14.48" fill="#cccccc" stroke="#000000" stroke-width="1.00"/>
<circle cx="134.53" cy="325.57" r="14.48" fill="#cccccc" stroke="#000000" stroke-width="1.00"/>
<circle cx="235.90" cy="99.83" r="14.48" fill="#cccccc" stroke="#000000" stroke-width="1.00"/>
<circle cx="221.42" cy="124.91" r="14.48" fill="#cccccc" stroke="#000000" stroke-width="1.00"/>
<circle cx="206.94" cy="149.99" r="14.48" fill="#cccccc" stroke="#000000" stroke-width="1.00"/>
<circle cx="192.45" cy="175.08" r="14.48" fill="#cccccc" stroke="#000000" stroke-width="1.00"/>
<circle cx="177.97" cy="200.16" r="14.48" fill="#cccccc" stroke="#000000" stroke-width="1.00"/>
<circle cx="163.49" cy="225.24" r="14.48" fill="#cccccc" stroke="#000000" stroke-width="1.00"/>
<circle cx="149.01" cy="250.32" r="14.48" fill="#cccccc" stroke="#000000" stroke-width="1.00"/>
<circle cx="134.53" cy="275.40" r="14.48" fill="#cccccc" stroke="#000000" stroke-width="1.00"/>
<circle cx="120.05" cy="300.49" r="14.48" fill="#cccccc" stroke="#000000" stroke-width="1.00"/>
<circle cx="105.57" cy="325.57" r="14.48" fill="#cccccc" stroke="#000000" stroke-width="1.00"/>
<circle cx="221.42" cy="74.75" r="14.48" fill="#cccccc" stroke="#000000" stroke-width="1.00"/>
<circle cx="201.95" cy="96.19" r="14.48" fill="#cccccc" stroke="#000000" stroke-width="1.00"/>
<circle cx="192.45" cy="124.91" r="14.48" fill="#cccccc" stroke="#000000" stroke-width="1.00"/>
<circle cx="173.41" cy="146.74" r="14.48" fill="#cccccc" stroke="#000000" stroke-width="1.00"/>
<circle cx="163.49" cy="175.08" r="14.48" fill="#cccccc" stroke="#000000" stroke-width="1.00"/>
<circle cx="144.24" cy="197.40" r="14.48" fill="#cccccc" stroke="#000000" stroke-width="1.00"/>
<circle cx="134.53" cy="225.24" r="14.48" fill="#cccccc" stroke="#000000" stroke-width="1.00"/>
<circle cx="114.95" cy="248.00" r="14.48" fill="#cccccc" stroke="#000000" stroke-width="1.00"/>
<circle cx="105.57" cy="275.40" r="14.48" fill="#cccccc" stroke="#000000" stroke-width="1.00"/>
<circle cx="85.45" cy="297.99" r="14.48" fill="#cccccc" stroke="#000000" stroke-width="1.00"/>
<circle cx="76.61" cy="325.57" r="14.48" fill="#cccccc" stroke="#000000" stroke-width="1.00"/>
<circle cx="200.00" cy="37.65" r="14.48" fill="#cccccc" stroke="#000000" stroke-width="1.00"/>
<circle cx="193.82" cy="65.95" r="14.48" fill="#cccccc" stroke="#000000" stroke-width="1.00"/>
<circle cx="172.41" cy="85.44" r="14.48" fill="#cccccc" stroke="#000000" stroke-width="1.00"/>
<circle cx="165.78" cy="113.64" r="14.48" fill="#cccccc" stroke="#000000" stroke-width="1.00"/>
<circle cx="144.68" cy="133.48" r="14.48" fill="#cccccc" stroke="#000000" stroke-width="1.00"/>
<circle cx="137.84" cy="161.62" r="14.48" fill="#cccccc" stroke="#000000" stroke-width="1.00"/>
<circle cx="116.89" cy="181.61" r="14.48" fill="#cccccc" stroke="#000000" stroke-width="1.00"/>
<circle cx="110.05" cy="209.76" r="14.48" fill="#cccccc" stroke="#000000" stroke-width="1.00"/>
<circle cx="89.10" cy="229.74" r="14.48" fill="#cccccc" stroke="#000000" stroke-width="1.00"/>
<circle cx="82.47" cy="257.94" r="14.48" fill="#cccccc" stroke="#000000" stroke-width="1.00"/>
<circle cx="61.36" cy="277.78" r="14.48" fill="#cccccc" stroke="#000000" stroke-width="1.00"/>
<circle cx="55.19" cy="306.07" r="14.48" fill="#cccccc" stroke="#000000" stroke-width="1.00"/>
<circle cx="33.77" cy="325.57" r="14.48" fill="#cccccc" stroke="#000000" stroke-width="1.00"/>
<polygon points="200.00,8.69 8.69,340.05 391.31,340.05" fill="none" stroke="#000000" stroke-width="1.40"/>
</svg>