<svg xmlns="http://www.w3.org/2000/svg" width="400.0" height="348.7" viewBox="0 0 400.0 348.7">
<rect width="400.0" height="348.7" fill="white"/>
<circle cx="314.89" cy="236.34" r="14.36" fill="#cccccc" stroke="#000000" stroke-width="1.00"/>
<circle cx="119.66" cy="275.99" r="14.36" fill="#cccccc" stroke="#000000" stroke-width="1.00"/>
<circle cx="148.38" cy="226.54" r="14.36" fill="#cccccc" stroke="#000000" stroke-width="1.00"/>
<circle cx="105.30" cy="201.37" r="14.36" fill="#cccccc" stroke="#000000" stroke-width="1.00"/>
<circle cx="337.78" cy="325.74" r="14.36" fill="#cccccc" stroke="#000000" stroke-width="1.00"/>
<circle cx="270.48" cy="300.87" r="14.36" fill="#cccccc" stroke="#000000" stroke-width="1.00"/>
<circle cx="136.40" cy="252.65" r="14.36" fill="#cccccc" stroke="#000000" stroke-width="1.00"/>
<circle cx="174.75" cy="215.15" r="14.36" fill="#cccccc" stroke="#000000" stroke-width="1.00"/>
<circle cx="286.17" cy="236.34" r="14.36" fill="#cccccc" stroke="#000000" stroke-width="1.00"/>
<circle cx="105.30" cy="251.12" r="14.36" fill="#cccccc" stroke="#000000" stroke-width="1.00"/>
<circle cx="214.36" cy="62.22" r="14.36" fill="#cccccc" stroke="#000000" stroke-width="1.00"/>
<circle cx="296.95" cy="289.71" r="14.36" fill="#cccccc" stroke="#000000" stroke-width="1.00"/>
<circle cx="271.81" cy="161.72" r="14.36" fill="#cccccc" stroke="#000000" stroke-width="1.00"/>
<circle cx="271.81" cy="211.47" r="14.36" fill="#cccccc" stroke="#000000" stroke-width="1.00"/>
<circle cx="119.66" cy="226.24" r="14.36" fill="#cccccc" stroke="#000000" stroke-width="1.00"/>
<circle cx="199.99" cy="137.50" r="14.36" fill="#cccccc" stroke="#000000" stroke-width="1.00"/>
<circle cx="105.30" cy="300.87" r="14.36" fill="#cccccc" stroke="#000000" stroke-width="1.00"/>
<circle cx="311.31" cy="314.59" r="14.36" fill="#cccccc" stroke="#000000" stroke-width="1.00"/>
<circle cx="329.25" cy="261.22" r="14.36" fill="#cccccc" stroke="#000000" stroke-width="1.00"/>
<circle cx="210.79" cy="258.86" r="14.36" fill="#cccccc" stroke="#000000" stroke-width="1.00"/>
<circle cx="191.47" cy="300.87" r="14.36" fill="#cccccc" stroke="#000000" stroke-width="1.00"/>
<circle cx="185.64" cy="62.22" r="14.36" fill="#cccccc" stroke="#000000" stroke-width="1.00"/>
<circle cx="206.45" cy="165.98" r="14.36" fill="#cccccc" stroke="#000000" stroke-width="1.00"/>
<circle cx="210.87" cy="209.09" r="14.36" fill="#cccccc" stroke="#000000" stroke-width="1.00"/>
<circle cx="156.92" cy="111.97" r="14.36" fill="#cccccc" stroke="#000000" stroke-width="1.00"/>
<circle cx="134.02" cy="300.87" r="14.36" fill="#cccccc" stroke="#000000" stroke-width="1.00"/>
<circle cx="200.00" cy="37.34" r="14.36" fill="#cccccc" stroke="#000000" stroke-width="1.00"/>
<circle cx="142.55" cy="136.84" r="14.36" fill="#cccccc" stroke="#000000" stroke-width="1.00"/>
<circle cx="171.28" cy="87.09" r="14.36" fill="#cccccc" stroke="#000000" stroke-width="1.00"/>
<circle cx="90.94" cy="226.24" r="14.36" fill="#cccccc" stroke="#000000" stroke-width="1.00"/>
<circle cx="196.45" cy="233.97" r="14.36" fill="#cccccc" stroke="#000000" stroke-width="1.00"/>
<circle cx="174.86" cy="165.34" r="14.36" fill="#cccccc" stroke="#000000" stroke-width="1.00"/>
<circle cx="185.64" cy="272.74" r="14.36" fill="#cccccc" stroke="#000000" stroke-width="1.00"/>
<circle cx="228.72" cy="87.09" r="14.36" fill="#cccccc" stroke="#000000" stroke-width="1.00"/>
<circle cx="47.85" cy="300.87" r="14.36" fill="#cccccc" stroke="#000000" stroke-width="1.00"/>
<circle cx="185.64" cy="111.97" r="14.36" fill="#cccccc" stroke="#000000" stroke-width="1.00"/>
<circle cx="300.53" cy="211.47" r="14.36" fill="#cccccc" stroke="#000000" stroke-width="1.00"/>
<circle cx="243.08" cy="111.97" r="14.36" fill="#cccccc" stroke="#000000" stroke-width="1.00"/>
<circle cx="76.58" cy="300.87" r="14.36" fill="#cccccc" stroke="#000000" stroke-width="1.00"/>
<circle cx="62.22" cy="325.74" r="14.36" fill="#cccccc" stroke="#000000" stroke-width="1.00"/>
<circle cx="239.59" cy="258.84" r="14.36" fill="#cccccc" stroke="#000000" stroke-width="1.00"/>
<circle cx="245.34" cy="286.98" r="14.36" fill="#cccccc" stroke="#000000" stroke-width="1.00"/>
<circle cx="228.71" cy="136.85" r="14.36" fill="#cccccc" stroke="#000000" stroke-width="1.00"/>
<circle cx="243.08" cy="161.72" r="14.36" fill="#cccccc" stroke="#000000" stroke-width="1.00"/>
<circle cx="216.61" cy="286.98" r="14.36" fill="#cccccc" stroke="#000000" stroke-width="1.00"/>
<circle cx="300.53" cy="261.22" r="14.36" fill="#cccccc" stroke="#000000" stroke-width="1.00"/>
<circle cx="230.98" cy="311.86" r="14.36" fill="#cccccc" stroke="#000000" stroke-width="1.00"/>
<circle cx="76.58" cy="251.12" r="14.36" fill="#cccccc" stroke="#000000" stroke-width="1.00"/>
<circle cx="286.17" cy="186.59" r="14.36" fill="#cccccc" stroke="#000000" stroke-width="1.00"/>
<circle cx="200.00" cy="87.09" r="14.36" fill="#cccccc" stroke="#000000" stroke-width="1.00"/>
<circle cx="171.28" cy="136.84" r="14.36" fill="#cccccc" stroke="#000000" stroke-width="1.00"/>
<circle cx="162.75" cy="300.87" r="14.36" fill="#cccccc" stroke="#000000" stroke-width="1.00"/>
<circle cx="256.12" cy="325.74" r="14.36" fill="#cccccc" stroke="#000000" stroke-width="1.00"/>
<circle cx="62.22" cy="275.99" r="14.36" fill="#cccccc" stroke="#000000" stroke-width="1.00"/>
<circle cx="366.51" cy="325.74" r="14.36" fill="#cccccc" stroke="#000000" stroke-width="1.00"/>
<circle cx="214.36" cy="111.97" r="14.36" fill="#cccccc" stroke="#000000" stroke-width="1.00"/>
<circle cx="225.18" cy="234.00" r="14.36" fill="#cccccc" stroke="#000000" stroke-width="1.00"/>
<circle cx="160.49" cy="190.21" r="14.36" fill="#cccccc" stroke="#000000" stroke-width="1.00"/>
<circle cx="134.02" cy="201.37" r="14.36" fill="#cccccc" stroke="#000000" stroke-width="1.00"/>
<circle cx="177.11" cy="325.74" r="14.36" fill="#cccccc" stroke="#000000" stroke-width="1.00"/>
<circle cx="325.68" cy="289.71" r="14.36" fill="#cccccc" stroke="#000000" stroke-width="1.00"/>
<circle cx="148.38" cy="325.74" r="14.36" fill="#cccccc" stroke="#000000" stroke-width="1.00"/>
<circle cx="33.49" cy="325.74" r="14.36" fill="#cccccc" stroke="#000000" stroke-width="1.00"/>
<circle cx="257.45" cy="136.84" r="14.36" fill="#cccccc" stroke="#000000" stroke-width="1.00"/>
<circle cx="205.83" cy="325.74" r="14.36" fill="#cccccc" stroke="#000000" stroke-width="1.00"/>
<circle cx="228.72" cy="186.59" r="14.36" fill="#cccccc" stroke="#000000" stroke-width="1.00"/>
<circle cx="257.45" cy="186.59" r="14.36" fill="#cccccc" stroke="#000000" stroke-width="1.00"/>
<circle cx="119.66" cy="325.74" r="14.36" fill="#cccccc" stroke="#000000" stroke-width="1.00"/>
<circle cx="269.77" cy="263.94" r="14.36" fill="#cccccc" stroke="#000000" stroke-width="1.00"/>
<circle cx="90.94" cy="275.99" r="14.36" fill="#cccccc" stroke="#000000" stroke-width="1.00"/>
<circle cx="156.92" cy="272.74" r="14.36" fill="#cccccc" stroke="#000000" stroke-width="1.00"/>
<circle cx="243.08" cy="211.47" r="14.36" fill="#cccccc" stroke="#000000" stroke-width="1.00"/>
<circle cx="352.15" cy="300.87" r="14.36" fill="#cccccc" stroke="#000000" stroke-width="1.00"/>
<circle cx="119.66" cy="176.49" r="14.36" fill="#cccccc" stroke="#000000" stroke-width="1.00"/>
<circle cx="146.13" cy="165.34" r="14.36" fill="#cccccc" stroke="#000000" stroke-width="1.00"/>
<circle cx="170.36" cy="246.16" r="14.36" fill="#cccccc" stroke="#000000" stroke-width="1.00"/>
<circle cx="257.45" cy="236.34" r="14.36" fill="#cccccc" stroke="#000000" stroke-width="1.00"/>
<circle cx="189.22" cy="190.21" r="14.36" fill="#cccccc" stroke="#000000" stroke-width="1.00"/>
<circle cx="90.94" cy="325.74" r="14.36" fill="#cccccc" stroke="#000000" stroke-width="1.00"/>
<circle cx="284.84" cy="325.74" r="14.36" fill="#cccccc" stroke="#000000" stroke-width="1.00"/>
<polygon points="200.00,8.62 8.62,340.10 391.38,340.10" fill="none" stroke="#000000" stroke-width="1.40"/>
</svg>