<svg xmlns="http://www.w3.org/2000/svg" width="400.0" height="348.7" viewBox="0 0 400.0 348.7">
<rect width="400.0" height="348.7" fill="white"/>
<circle cx="255.04" cy="166.84" r="14.25" fill="#cccccc" stroke="#000000" stroke-width="1.00"/>
<circle cx="267.06" cy="301.23" r="14.25" fill="#cccccc" stroke="#000000" stroke-width="1.00"/>
<circle cx="210.08" cy="251.89" r="14.25" fill="#cccccc" stroke="#000000" stroke-width="1.00"/>
<circle cx="90.20" cy="325.91" r="14.25" fill="#cccccc" stroke="#000000" stroke-width="1.00"/>
<circle cx="244.38" cy="113.90" r="14.25" fill="#cccccc" stroke="#000000" stroke-width="1.00"/>
<circle cx="128.77" cy="286.40" r="14.25" fill="#cccccc" stroke="#000000" stroke-width="1.00"/>
<circle cx="214.25" cy="61.71" r="14.25" fill="#cccccc" stroke="#000000" stroke-width="1.00"/>
<circle cx="281.31" cy="227.21" r="14.25" fill="#cccccc" stroke="#000000" stroke-width="1.00"/>
<circle cx="172.20" cy="183.89" r="14.25" fill="#cccccc" stroke="#000000" stroke-width="1.00"/>
<circle cx="75.96" cy="301.23" r="14.25" fill="#cccccc" stroke="#000000" stroke-width="1.00"/>
<circle cx="115.21" cy="183.90" r="14.25" fill="#cccccc" stroke="#000000" stroke-width="1.00"/>
<circle cx="90.20" cy="276.56" r="14.25" fill="#cccccc" stroke="#000000" stroke-width="1.00"/>
<circle cx="352.53" cy="301.23" r="14.25" fill="#cccccc" stroke="#000000" stroke-width="1.00"/>
<circle cx="215.95" cy="111.97" r="14.25" fill="#cccccc" stroke="#000000" stroke-width="1.00"/>
<circle cx="47.47" cy="301.23" r="14.25" fill="#cccccc" stroke="#000000" stroke-width="1.00"/>
<circle cx="33.22" cy="325.91" r="14.25" fill="#cccccc" stroke="#000000" stroke-width="1.00"/>
<circle cx="238.57" cy="301.23" r="14.25" fill="#cccccc" stroke="#000000" stroke-width="1.00"/>
<circle cx="129.46" cy="159.22" r="14.25" fill="#cccccc" stroke="#000000" stroke-width="1.00"/>
<circle cx="210.08" cy="301.23" r="14.25" fill="#cccccc" stroke="#000000" stroke-width="1.00"/>
<circle cx="224.32" cy="227.21" r="14.25" fill="#cccccc" stroke="#000000" stroke-width="1.00"/>
<circle cx="295.55" cy="301.23" r="14.25" fill="#cccccc" stroke="#000000" stroke-width="1.00"/>
<circle cx="129.46" cy="208.57" r="14.25" fill="#cccccc" stroke="#000000" stroke-width="1.00"/>
<circle cx="186.44" cy="208.57" r="14.25" fill="#cccccc" stroke="#000000" stroke-width="1.00"/>
<circle cx="252.82" cy="325.91" r="14.25" fill="#cccccc" stroke="#000000" stroke-width="1.00"/>
<circle cx="366.78" cy="325.91" r="14.25" fill="#cccccc" stroke="#000000" stroke-width="1.00"/>
<circle cx="295.55" cy="251.89" r="14.25" fill="#cccccc" stroke="#000000" stroke-width="1.00"/>
<circle cx="295.55" cy="202.54" r="14.25" fill="#cccccc" stroke="#000000" stroke-width="1.00"/>
<circle cx="281.31" cy="177.86" r="14.25" fill="#cccccc" stroke="#000000" stroke-width="1.00"/>
<circle cx="128.77" cy="237.05" r="14.25" fill="#cccccc" stroke="#000000" stroke-width="1.00"/>
<circle cx="185.34" cy="151.38" r="14.25" fill="#cccccc" stroke="#000000" stroke-width="1.00"/>
<circle cx="224.32" cy="276.56" r="14.25" fill="#cccccc" stroke="#000000" stroke-width="1.00"/>
<circle cx="309.80" cy="325.91" r="14.25" fill="#cccccc" stroke="#000000" stroke-width="1.00"/>
<circle cx="226.56" cy="165.98" r="14.25" fill="#cccccc" stroke="#000000" stroke-width="1.00"/>
<circle cx="157.95" cy="159.22" r="14.25" fill="#cccccc" stroke="#000000" stroke-width="1.00"/>
<circle cx="143.02" cy="311.07" r="14.25" fill="#cccccc" stroke="#000000" stroke-width="1.00"/>
<circle cx="267.06" cy="251.89" r="14.25" fill="#cccccc" stroke="#000000" stroke-width="1.00"/>
<circle cx="228.49" cy="137.55" r="14.25" fill="#cccccc" stroke="#000000" stroke-width="1.00"/>
<circle cx="200.00" cy="37.04" r="14.25" fill="#cccccc" stroke="#000000" stroke-width="1.00"/>
<circle cx="200.02" cy="87.57" r="14.25" fill="#cccccc" stroke="#000000" stroke-width="1.00"/>
<circle cx="100.28" cy="237.05" r="14.25" fill="#cccccc" stroke="#000000" stroke-width="1.00"/>
<circle cx="258.62" cy="138.57" r="14.25" fill="#cccccc" stroke="#000000" stroke-width="1.00"/>
<circle cx="238.57" cy="251.89" r="14.25" fill="#cccccc" stroke="#000000" stroke-width="1.00"/>
<circle cx="338.29" cy="276.56" r="14.25" fill="#cccccc" stroke="#000000" stroke-width="1.00"/>
<circle cx="281.31" cy="325.91" r="14.25" fill="#cccccc" stroke="#000000" stroke-width="1.00"/>
<circle cx="157.95" cy="208.57" r="14.25" fill="#cccccc" stroke="#000000" stroke-width="1.00"/>
<circle cx="185.75" cy="61.71" r="14.25" fill="#cccccc" stroke="#000000" stroke-width="1.00"/>
<circle cx="143.70" cy="134.55" r="14.25" fill="#cccccc" stroke="#000000" stroke-width="1.00"/>
<circle cx="100.97" cy="208.57" r="14.25" fill="#cccccc" stroke="#000000" stroke-width="1.00"/>
<circle cx="104.45" cy="301.23" r="14.25" fill="#cccccc" stroke="#000000" stroke-width="1.00"/>
<circle cx="61.71" cy="276.56" r="14.25" fill="#cccccc" stroke="#000000" stroke-width="1.00"/>
<circle cx="324.04" cy="301.23" r="14.25" fill="#cccccc" stroke="#000000" stroke-width="1.00"/>
<circle cx="252.82" cy="276.56" r="14.25" fill="#cccccc" stroke="#000000" stroke-width="1.00"/>
<circle cx="199.85" cy="175.90" r="14.25" fill="#cccccc" stroke="#000000" stroke-width="1.00"/>
<circle cx="75.96" cy="251.89" r="14.25" fill="#cccccc" stroke="#000000" stroke-width="1.00"/>
<circle cx="157.26" cy="286.40" r="14.25" fill="#cccccc" stroke="#000000" stroke-width="1.00"/>
<circle cx="224.32" cy="325.91" r="14.25" fill="#cccccc" stroke="#000000" stroke-width="1.00"/>
<circle cx="181.59" cy="301.23" r="14.25" fill="#cccccc" stroke="#000000" stroke-width="1.00"/>
<circle cx="228.49" cy="86.39" r="14.25" fill="#cccccc" stroke="#000000" stroke-width="1.00"/>
<circle cx="171.51" cy="261.73" r="14.25" fill="#cccccc" stroke="#000000" stroke-width="1.00"/>
<circle cx="171.51" cy="86.39" r="14.25" fill="#cccccc" stroke="#000000" stroke-width="1.00"/>
<circle cx="143.70" cy="183.90" r="14.25" fill="#cccccc" stroke="#000000" stroke-width="1.00"/>
<circle cx="157.26" cy="237.05" r="14.25" fill="#cccccc" stroke="#000000" stroke-width="1.00"/>
<circle cx="252.82" cy="227.21" r="14.25" fill="#cccccc" stroke="#000000" stroke-width="1.00"/>
<circle cx="189.78" cy="123.24" r="14.25" fill="#cccccc" stroke="#000000" stroke-width="1.00"/>
<circle cx="61.71" cy="325.91" r="14.25" fill="#cccccc" stroke="#000000" stroke-width="1.00"/>
<circle cx="167.34" cy="325.91" r="14.25" fill="#cccccc" stroke="#000000" stroke-width="1.00"/>
<circle cx="195.83" cy="325.91" r="14.25" fill="#cccccc" stroke="#000000" stroke-width="1.00"/>
<circle cx="114.53" cy="261.73" r="14.25" fill="#cccccc" stroke="#000000" stroke-width="1.00"/>
<circle cx="324.04" cy="251.89" r="14.25" fill="#cccccc" stroke="#000000" stroke-width="1.00"/>
<circle cx="195.83" cy="276.56" r="14.25" fill="#cccccc" stroke="#000000" stroke-width="1.00"/>
<circle cx="162.98" cy="113.57" r="14.25" fill="#cccccc" stroke="#000000" stroke-width="1.00"/>
<circle cx="309.80" cy="227.21" r="14.25" fill="#cccccc" stroke="#000000" stroke-width="1.00"/>
<circle cx="281.31" cy="276.56" r="14.25" fill="#cccccc" stroke="#000000" stroke-width="1.00"/>
<circle cx="309.80" cy="276.56" r="14.25" fill="#cccccc" stroke="#000000" stroke-width="1.00"/>
<circle cx="267.06" cy="202.54" r="14.25" fill="#cccccc" stroke="#000000" stroke-width="1.00"/>
<circle cx="240.79" cy="191.51" r="14.25" fill="#cccccc" stroke="#000000" stroke-width="1.00"/>
<circle cx="143.02" cy="261.73" r="14.25" fill="#cccccc" stroke="#000000" stroke-width="1.00"/>
<circle cx="118.69" cy="325.91" r="14.25" fill="#cccccc" stroke="#000000" stroke-width="1.00"/>
<circle cx="185.75" cy="237.05" r="14.25" fill="#cccccc" stroke="#000000" stroke-width="1.00"/>
<circle cx="338.29" cy="325.91" r="14.25" fill="#cccccc" stroke="#000000" stroke-width="1.00"/>
<circle cx="213.83" cy="200.72" r="14.25" fill="#cccccc" stroke="#000000" stroke-width="1.00"/>
<polygon points="200.00,8.55 8.55,340.15 391.45,340.15" fill="none" stroke="#000000" stroke-width="1.40"/>
</svg>