<svg xmlns="http://www.w3.org/2000/svg" width="400.0" height="348.7" viewBox="0 0 400.0 348.7">
<rect width="400.0" height="348.7" fill="white"/>
<circle cx="279.97" cy="325.94" r="14.22" fill="#cccccc" stroke="#000000" stroke-width="1.00"/>
<circle cx="157.35" cy="237.84" r="14.22" fill="#cccccc" stroke="#000000" stroke-width="1.00"/>
<circle cx="61.61" cy="276.68" r="14.22" fill="#cccccc" stroke="#000000" stroke-width="1.00"/>
<circle cx="352.62" cy="301.31" r="14.22" fill="#cccccc" stroke="#000000" stroke-width="1.00"/>
<circle cx="295.73" cy="252.08" r="14.22" fill="#cccccc" stroke="#000000" stroke-width="1.00"/>
<circle cx="280.74" cy="277.14" r="14.22" fill="#cccccc" stroke="#000000" stroke-width="1.00"/>
<circle cx="185.78" cy="61.61" r="14.22" fill="#cccccc" stroke="#000000" stroke-width="1.00"/>
<circle cx="256.88" cy="135.50" r="14.22" fill="#cccccc" stroke="#000000" stroke-width="1.00"/>
<circle cx="104.27" cy="301.31" r="14.22" fill="#cccccc" stroke="#000000" stroke-width="1.00"/>
<circle cx="128.90" cy="160.13" r="14.22" fill="#cccccc" stroke="#000000" stroke-width="1.00"/>
<circle cx="146.93" cy="276.68" r="14.22" fill="#cccccc" stroke="#000000" stroke-width="1.00"/>
<circle cx="223.45" cy="306.39" r="14.22" fill="#cccccc" stroke="#000000" stroke-width="1.00"/>
<circle cx="157.34" cy="160.13" r="14.22" fill="#cccccc" stroke="#000000" stroke-width="1.00"/>
<circle cx="171.57" cy="213.20" r="14.22" fill="#cccccc" stroke="#000000" stroke-width="1.00"/>
<circle cx="338.39" cy="325.94" r="14.22" fill="#cccccc" stroke="#000000" stroke-width="1.00"/>
<circle cx="200.00" cy="135.50" r="14.22" fill="#cccccc" stroke="#000000" stroke-width="1.00"/>
<circle cx="309.18" cy="277.14" r="14.22" fill="#cccccc" stroke="#000000" stroke-width="1.00"/>
<circle cx="228.44" cy="86.24" r="14.22" fill="#cccccc" stroke="#000000" stroke-width="1.00"/>
<circle cx="214.22" cy="61.61" r="14.22" fill="#cccccc" stroke="#000000" stroke-width="1.00"/>
<circle cx="252.30" cy="277.14" r="14.22" fill="#cccccc" stroke="#000000" stroke-width="1.00"/>
<circle cx="33.16" cy="325.94" r="14.22" fill="#cccccc" stroke="#000000" stroke-width="1.00"/>
<circle cx="214.22" cy="160.13" r="14.22" fill="#cccccc" stroke="#000000" stroke-width="1.00"/>
<circle cx="75.83" cy="252.05" r="14.22" fill="#cccccc" stroke="#000000" stroke-width="1.00"/>
<circle cx="244.11" cy="325.94" r="14.22" fill="#cccccc" stroke="#000000" stroke-width="1.00"/>
<circle cx="242.66" cy="110.87" r="14.22" fill="#cccccc" stroke="#000000" stroke-width="1.00"/>
<circle cx="185.78" cy="110.87" r="14.22" fill="#cccccc" stroke="#000000" stroke-width="1.00"/>
<circle cx="228.44" cy="135.50" r="14.22" fill="#cccccc" stroke="#000000" stroke-width="1.00"/>
<circle cx="199.03" cy="291.81" r="14.22" fill="#cccccc" stroke="#000000" stroke-width="1.00"/>
<circle cx="324.17" cy="301.31" r="14.22" fill="#cccccc" stroke="#000000" stroke-width="1.00"/>
<circle cx="174.86" cy="320.58" r="14.22" fill="#cccccc" stroke="#000000" stroke-width="1.00"/>
<circle cx="200.01" cy="213.20" r="14.22" fill="#cccccc" stroke="#000000" stroke-width="1.00"/>
<circle cx="185.78" cy="160.13" r="14.22" fill="#cccccc" stroke="#000000" stroke-width="1.00"/>
<circle cx="338.39" cy="276.68" r="14.22" fill="#cccccc" stroke="#000000" stroke-width="1.00"/>
<circle cx="104.27" cy="252.05" r="14.22" fill="#cccccc" stroke="#000000" stroke-width="1.00"/>
<circle cx="143.13" cy="213.20" r="14.22" fill="#cccccc" stroke="#000000" stroke-width="1.00"/>
<circle cx="118.49" cy="325.94" r="14.22" fill="#cccccc" stroke="#000000" stroke-width="1.00"/>
<circle cx="281.51" cy="227.45" r="14.22" fill="#cccccc" stroke="#000000" stroke-width="1.00"/>
<circle cx="90.05" cy="227.42" r="14.22" fill="#cccccc" stroke="#000000" stroke-width="1.00"/>
<circle cx="202.79" cy="325.94" r="14.22" fill="#cccccc" stroke="#000000" stroke-width="1.00"/>
<circle cx="214.23" cy="188.57" r="14.22" fill="#cccccc" stroke="#000000" stroke-width="1.00"/>
<circle cx="118.49" cy="276.68" r="14.22" fill="#cccccc" stroke="#000000" stroke-width="1.00"/>
<circle cx="143.12" cy="135.50" r="14.22" fill="#cccccc" stroke="#000000" stroke-width="1.00"/>
<circle cx="118.49" cy="227.42" r="14.22" fill="#cccccc" stroke="#000000" stroke-width="1.00"/>
<circle cx="228.45" cy="213.20" r="14.22" fill="#cccccc" stroke="#000000" stroke-width="1.00"/>
<circle cx="90.05" cy="276.68" r="14.22" fill="#cccccc" stroke="#000000" stroke-width="1.00"/>
<circle cx="171.57" cy="262.47" r="14.22" fill="#cccccc" stroke="#000000" stroke-width="1.00"/>
<circle cx="274.83" cy="167.42" r="14.22" fill="#cccccc" stroke="#000000" stroke-width="1.00"/>
<circle cx="104.27" cy="202.79" r="14.22" fill="#cccccc" stroke="#000000" stroke-width="1.00"/>
<circle cx="267.29" cy="202.82" r="14.22" fill="#cccccc" stroke="#000000" stroke-width="1.00"/>
<circle cx="267.29" cy="252.08" r="14.22" fill="#cccccc" stroke="#000000" stroke-width="1.00"/>
<circle cx="200.01" cy="262.47" r="14.22" fill="#cccccc" stroke="#000000" stroke-width="1.00"/>
<circle cx="132.71" cy="301.31" r="14.22" fill="#cccccc" stroke="#000000" stroke-width="1.00"/>
<circle cx="238.85" cy="252.08" r="14.22" fill="#cccccc" stroke="#000000" stroke-width="1.00"/>
<circle cx="132.71" cy="252.05" r="14.22" fill="#cccccc" stroke="#000000" stroke-width="1.00"/>
<circle cx="185.79" cy="237.84" r="14.22" fill="#cccccc" stroke="#000000" stroke-width="1.00"/>
<circle cx="242.66" cy="160.13" r="14.22" fill="#cccccc" stroke="#000000" stroke-width="1.00"/>
<circle cx="309.95" cy="227.42" r="14.22" fill="#cccccc" stroke="#000000" stroke-width="1.00"/>
<circle cx="200.00" cy="86.24" r="14.22" fill="#cccccc" stroke="#000000" stroke-width="1.00"/>
<circle cx="170.60" cy="292.46" r="14.22" fill="#cccccc" stroke="#000000" stroke-width="1.00"/>
<circle cx="171.56" cy="135.50" r="14.22" fill="#cccccc" stroke="#000000" stroke-width="1.00"/>
<circle cx="47.38" cy="301.31" r="14.22" fill="#cccccc" stroke="#000000" stroke-width="1.00"/>
<circle cx="185.79" cy="188.57" r="14.22" fill="#cccccc" stroke="#000000" stroke-width="1.00"/>
<circle cx="366.84" cy="325.94" r="14.22" fill="#cccccc" stroke="#000000" stroke-width="1.00"/>
<circle cx="200.00" cy="36.97" r="14.22" fill="#cccccc" stroke="#000000" stroke-width="1.00"/>
<circle cx="157.35" cy="188.57" r="14.22" fill="#cccccc" stroke="#000000" stroke-width="1.00"/>
<circle cx="295.73" cy="202.79" r="14.22" fill="#cccccc" stroke="#000000" stroke-width="1.00"/>
<circle cx="157.34" cy="110.87" r="14.22" fill="#cccccc" stroke="#000000" stroke-width="1.00"/>
<circle cx="262.04" cy="303.86" r="14.22" fill="#cccccc" stroke="#000000" stroke-width="1.00"/>
<circle cx="253.07" cy="227.45" r="14.22" fill="#cccccc" stroke="#000000" stroke-width="1.00"/>
<circle cx="146.93" cy="325.94" r="14.22" fill="#cccccc" stroke="#000000" stroke-width="1.00"/>
<circle cx="214.23" cy="237.84" r="14.22" fill="#cccccc" stroke="#000000" stroke-width="1.00"/>
<circle cx="294.96" cy="301.77" r="14.22" fill="#cccccc" stroke="#000000" stroke-width="1.00"/>
<circle cx="171.56" cy="86.24" r="14.22" fill="#cccccc" stroke="#000000" stroke-width="1.00"/>
<circle cx="90.05" cy="325.94" r="14.22" fill="#cccccc" stroke="#000000" stroke-width="1.00"/>
<circle cx="214.22" cy="110.87" r="14.22" fill="#cccccc" stroke="#000000" stroke-width="1.00"/>
<circle cx="75.83" cy="301.31" r="14.22" fill="#cccccc" stroke="#000000" stroke-width="1.00"/>
<circle cx="242.67" cy="188.57" r="14.22" fill="#cccccc" stroke="#000000" stroke-width="1.00"/>
<circle cx="309.95" cy="325.94" r="14.22" fill="#cccccc" stroke="#000000" stroke-width="1.00"/>
<circle cx="128.90" cy="188.57" r="14.22" fill="#cccccc" stroke="#000000" stroke-width="1.00"/>
<circle cx="223.87" cy="277.95" r="14.22" fill="#cccccc" stroke="#000000" stroke-width="1.00"/>
<circle cx="324.17" cy="252.05" r="14.22" fill="#cccccc" stroke="#000000" stroke-width="1.00"/>
<circle cx="61.61" cy="325.94" r="14.22" fill="#cccccc" stroke="#000000" stroke-width="1.00"/>
<polygon points="200.00,8.53 8.53,340.16 391.47,340.16" fill="none" stroke="#000000" stroke-width="1.40"/>
</svg>