<svg xmlns="http://www.w3.org/2000/svg" width="400.0" height="348.7" viewBox="0 0 400.0 348.7">
<rect width="400.0" height="348.7" fill="white"/>
<circle cx="158.01" cy="206.11" r="14.00" fill="#cccccc" stroke="#000000" stroke-width="1.00"/>
<circle cx="200.00" cy="181.87" r="14.00" fill="#cccccc" stroke="#000000" stroke-width="1.00"/>
<circle cx="186.00" cy="109.13" r="14.00" fill="#cccccc" stroke="#000000" stroke-width="1.00"/>
<circle cx="46.64" cy="302.02" r="14.00" fill="#cccccc" stroke="#000000" stroke-width="1.00"/>
<circle cx="214.00" cy="109.13" r="14.00" fill="#cccccc" stroke="#000000" stroke-width="1.00"/>
<circle cx="158.01" cy="109.13" r="14.00" fill="#cccccc" stroke="#000000" stroke-width="1.00"/>
<circle cx="60.64" cy="277.77" r="14.00" fill="#cccccc" stroke="#000000" stroke-width="1.00"/>
<circle cx="311.36" cy="326.26" r="14.00" fill="#cccccc" stroke="#000000" stroke-width="1.00"/>
<circle cx="182.15" cy="276.33" r="14.00" fill="#cccccc" stroke="#000000" stroke-width="1.00"/>
<circle cx="121.40" cy="281.24" r="14.00" fill="#cccccc" stroke="#000000" stroke-width="1.00"/>
<circle cx="186.00" cy="157.62" r="14.00" fill="#cccccc" stroke="#000000" stroke-width="1.00"/>
<circle cx="283.37" cy="326.26" r="14.00" fill="#cccccc" stroke="#000000" stroke-width="1.00"/>
<circle cx="228.00" cy="133.38" r="14.00" fill="#cccccc" stroke="#000000" stroke-width="1.00"/>
<circle cx="60.64" cy="326.26" r="14.00" fill="#cccccc" stroke="#000000" stroke-width="1.00"/>
<circle cx="172.00" cy="133.38" r="14.00" fill="#cccccc" stroke="#000000" stroke-width="1.00"/>
<circle cx="232.10" cy="259.09" r="14.00" fill="#cccccc" stroke="#000000" stroke-width="1.00"/>
<circle cx="339.36" cy="277.77" r="14.00" fill="#cccccc" stroke="#000000" stroke-width="1.00"/>
<circle cx="353.36" cy="302.02" r="14.00" fill="#cccccc" stroke="#000000" stroke-width="1.00"/>
<circle cx="168.16" cy="302.02" r="14.00" fill="#cccccc" stroke="#000000" stroke-width="1.00"/>
<circle cx="367.36" cy="326.26" r="14.00" fill="#cccccc" stroke="#000000" stroke-width="1.00"/>
<circle cx="196.15" cy="302.02" r="14.00" fill="#cccccc" stroke="#000000" stroke-width="1.00"/>
<circle cx="278.60" cy="232.75" r="14.00" fill="#cccccc" stroke="#000000" stroke-width="1.00"/>
<circle cx="116.01" cy="181.87" r="14.00" fill="#cccccc" stroke="#000000" stroke-width="1.00"/>
<circle cx="311.36" cy="277.77" r="14.00" fill="#cccccc" stroke="#000000" stroke-width="1.00"/>
<circle cx="210.15" cy="326.26" r="14.00" fill="#cccccc" stroke="#000000" stroke-width="1.00"/>
<circle cx="74.64" cy="302.02" r="14.00" fill="#cccccc" stroke="#000000" stroke-width="1.00"/>
<circle cx="255.99" cy="133.38" r="14.00" fill="#cccccc" stroke="#000000" stroke-width="1.00"/>
<circle cx="130.01" cy="157.62" r="14.00" fill="#cccccc" stroke="#000000" stroke-width="1.00"/>
<circle cx="140.16" cy="302.02" r="14.00" fill="#cccccc" stroke="#000000" stroke-width="1.00"/>
<circle cx="325.36" cy="302.02" r="14.00" fill="#cccccc" stroke="#000000" stroke-width="1.00"/>
<circle cx="292.60" cy="257.00" r="14.00" fill="#cccccc" stroke="#000000" stroke-width="1.00"/>
<circle cx="214.00" cy="60.64" r="14.00" fill="#cccccc" stroke="#000000" stroke-width="1.00"/>
<circle cx="200.00" cy="84.89" r="14.00" fill="#cccccc" stroke="#000000" stroke-width="1.00"/>
<circle cx="250.61" cy="232.75" r="14.00" fill="#cccccc" stroke="#000000" stroke-width="1.00"/>
<circle cx="144.01" cy="181.87" r="14.00" fill="#cccccc" stroke="#000000" stroke-width="1.00"/>
<circle cx="79.40" cy="257.00" r="14.00" fill="#cccccc" stroke="#000000" stroke-width="1.00"/>
<circle cx="296.68" cy="301.62" r="14.00" fill="#cccccc" stroke="#000000" stroke-width="1.00"/>
<circle cx="154.16" cy="277.77" r="14.00" fill="#cccccc" stroke="#000000" stroke-width="1.00"/>
<circle cx="144.01" cy="230.36" r="14.00" fill="#cccccc" stroke="#000000" stroke-width="1.00"/>
<circle cx="172.00" cy="84.89" r="14.00" fill="#cccccc" stroke="#000000" stroke-width="1.00"/>
<circle cx="283.99" cy="181.87" r="14.00" fill="#cccccc" stroke="#000000" stroke-width="1.00"/>
<circle cx="214.00" cy="157.62" r="14.00" fill="#cccccc" stroke="#000000" stroke-width="1.00"/>
<circle cx="126.16" cy="326.26" r="14.00" fill="#cccccc" stroke="#000000" stroke-width="1.00"/>
<circle cx="228.00" cy="84.89" r="14.00" fill="#cccccc" stroke="#000000" stroke-width="1.00"/>
<circle cx="264.63" cy="305.46" r="14.00" fill="#cccccc" stroke="#000000" stroke-width="1.00"/>
<circle cx="88.02" cy="230.36" r="14.00" fill="#cccccc" stroke="#000000" stroke-width="1.00"/>
<circle cx="135.40" cy="257.00" r="14.00" fill="#cccccc" stroke="#000000" stroke-width="1.00"/>
<circle cx="204.53" cy="254.13" r="14.00" fill="#cccccc" stroke="#000000" stroke-width="1.00"/>
<circle cx="246.31" cy="283.46" r="14.00" fill="#cccccc" stroke="#000000" stroke-width="1.00"/>
<circle cx="214.00" cy="206.11" r="14.00" fill="#cccccc" stroke="#000000" stroke-width="1.00"/>
<circle cx="130.01" cy="206.11" r="14.00" fill="#cccccc" stroke="#000000" stroke-width="1.00"/>
<circle cx="269.99" cy="206.11" r="14.00" fill="#cccccc" stroke="#000000" stroke-width="1.00"/>
<circle cx="241.99" cy="157.62" r="14.00" fill="#cccccc" stroke="#000000" stroke-width="1.00"/>
<circle cx="260.10" cy="259.09" r="14.00" fill="#cccccc" stroke="#000000" stroke-width="1.00"/>
<circle cx="214.02" cy="280.47" r="14.00" fill="#cccccc" stroke="#000000" stroke-width="1.00"/>
<circle cx="162.77" cy="251.13" r="14.00" fill="#cccccc" stroke="#000000" stroke-width="1.00"/>
<circle cx="245.89" cy="326.26" r="14.00" fill="#cccccc" stroke="#000000" stroke-width="1.00"/>
<circle cx="172.00" cy="181.87" r="14.00" fill="#cccccc" stroke="#000000" stroke-width="1.00"/>
<circle cx="158.01" cy="157.62" r="14.00" fill="#cccccc" stroke="#000000" stroke-width="1.00"/>
<circle cx="306.60" cy="232.75" r="14.00" fill="#cccccc" stroke="#000000" stroke-width="1.00"/>
<circle cx="228.02" cy="304.71" r="14.00" fill="#cccccc" stroke="#000000" stroke-width="1.00"/>
<circle cx="93.40" cy="281.24" r="14.00" fill="#cccccc" stroke="#000000" stroke-width="1.00"/>
<circle cx="241.99" cy="109.13" r="14.00" fill="#cccccc" stroke="#000000" stroke-width="1.00"/>
<circle cx="222.61" cy="232.75" r="14.00" fill="#cccccc" stroke="#000000" stroke-width="1.00"/>
<circle cx="186.00" cy="206.11" r="14.00" fill="#cccccc" stroke="#000000" stroke-width="1.00"/>
<circle cx="32.64" cy="326.26" r="14.00" fill="#cccccc" stroke="#000000" stroke-width="1.00"/>
<circle cx="182.16" cy="326.26" r="14.00" fill="#cccccc" stroke="#000000" stroke-width="1.00"/>
<circle cx="102.01" cy="206.11" r="14.00" fill="#cccccc" stroke="#000000" stroke-width="1.00"/>
<circle cx="269.99" cy="157.62" r="14.00" fill="#cccccc" stroke="#000000" stroke-width="1.00"/>
<circle cx="88.64" cy="326.26" r="14.00" fill="#cccccc" stroke="#000000" stroke-width="1.00"/>
<circle cx="339.36" cy="326.26" r="14.00" fill="#cccccc" stroke="#000000" stroke-width="1.00"/>
<circle cx="277.81" cy="280.77" r="14.00" fill="#cccccc" stroke="#000000" stroke-width="1.00"/>
<circle cx="325.36" cy="253.53" r="14.00" fill="#cccccc" stroke="#000000" stroke-width="1.00"/>
<circle cx="154.16" cy="326.26" r="14.00" fill="#cccccc" stroke="#000000" stroke-width="1.00"/>
<circle cx="107.40" cy="257.00" r="14.00" fill="#cccccc" stroke="#000000" stroke-width="1.00"/>
<circle cx="107.40" cy="305.49" r="14.00" fill="#cccccc" stroke="#000000" stroke-width="1.00"/>
<circle cx="144.01" cy="133.38" r="14.00" fill="#cccccc" stroke="#000000" stroke-width="1.00"/>
<circle cx="297.99" cy="206.11" r="14.00" fill="#cccccc" stroke="#000000" stroke-width="1.00"/>
<circle cx="184.98" cy="234.09" r="14.00" fill="#cccccc" stroke="#000000" stroke-width="1.00"/>
<circle cx="200.00" cy="36.39" r="14.00" fill="#cccccc" stroke="#000000" stroke-width="1.00"/>
<circle cx="116.01" cy="230.36" r="14.00" fill="#cccccc" stroke="#000000" stroke-width="1.00"/>
<circle cx="255.99" cy="181.87" r="14.00" fill="#cccccc" stroke="#000000" stroke-width="1.00"/>
<circle cx="241.99" cy="206.11" r="14.00" fill="#cccccc" stroke="#000000" stroke-width="1.00"/>
<circle cx="228.00" cy="181.87" r="14.00" fill="#cccccc" stroke="#000000" stroke-width="1.00"/>
<circle cx="200.00" cy="133.38" r="14.00" fill="#cccccc" stroke="#000000" stroke-width="1.00"/>
<polygon points="200.00,8.40 8.40,340.26 391.60,340.26" fill="none" stroke="#000000" stroke-width="1.40"/>
</svg>