<svg xmlns="http://www.w3.org/2000/svg" width="400.0" height="348.7" viewBox="0 0 400.0 348.7">
<rect width="400.0" height="348.7" fill="white"/>
<circle cx="200.00" cy="133.30" r="13.99" fill="#cccccc" stroke="#000000" stroke-width="1.00"/>
<circle cx="172.02" cy="133.30" r="13.99" fill="#cccccc" stroke="#000000" stroke-width="1.00"/>
<circle cx="200.00" cy="36.37" r="13.99" fill="#cccccc" stroke="#000000" stroke-width="1.00"/>
<circle cx="172.02" cy="84.84" r="13.99" fill="#cccccc" stroke="#000000" stroke-width="1.00"/>
<circle cx="144.04" cy="133.30" r="13.99" fill="#cccccc" stroke="#000000" stroke-width="1.00"/>
<circle cx="130.05" cy="157.53" r="13.99" fill="#cccccc" stroke="#000000" stroke-width="1.00"/>
<circle cx="213.99" cy="109.07" r="13.99" fill="#cccccc" stroke="#000000" stroke-width="1.00"/>
<circle cx="186.01" cy="109.07" r="13.99" fill="#cccccc" stroke="#000000" stroke-width="1.00"/>
<circle cx="158.03" cy="157.53" r="13.99" fill="#cccccc" stroke="#000000" stroke-width="1.00"/>
<circle cx="106.93" cy="208.22" r="13.99" fill="#cccccc" stroke="#000000" stroke-width="1.00"/>
<circle cx="213.99" cy="157.53" r="13.99" fill="#cccccc" stroke="#000000" stroke-width="1.00"/>
<circle cx="158.03" cy="109.07" r="13.99" fill="#cccccc" stroke="#000000" stroke-width="1.00"/>
<circle cx="227.98" cy="133.30" r="13.99" fill="#cccccc" stroke="#000000" stroke-width="1.00"/>
<circle cx="74.60" cy="253.58" r="13.99" fill="#cccccc" stroke="#000000" stroke-width="1.00"/>
<circle cx="116.06" cy="181.77" r="13.99" fill="#cccccc" stroke="#000000" stroke-width="1.00"/>
<circle cx="186.01" cy="157.53" r="13.99" fill="#cccccc" stroke="#000000" stroke-width="1.00"/>
<circle cx="186.01" cy="60.61" r="13.99" fill="#cccccc" stroke="#000000" stroke-width="1.00"/>
<circle cx="200.00" cy="84.84" r="13.99" fill="#cccccc" stroke="#000000" stroke-width="1.00"/>
<circle cx="88.59" cy="229.35" r="13.99" fill="#cccccc" stroke="#000000" stroke-width="1.00"/>
<circle cx="213.99" cy="60.61" r="13.99" fill="#cccccc" stroke="#000000" stroke-width="1.00"/>
<circle cx="135.86" cy="257.54" r="13.99" fill="#cccccc" stroke="#000000" stroke-width="1.00"/>
<circle cx="102.58" cy="302.04" r="13.99" fill="#cccccc" stroke="#000000" stroke-width="1.00"/>
<circle cx="171.96" cy="298.28" r="13.99" fill="#cccccc" stroke="#000000" stroke-width="1.00"/>
<circle cx="46.62" cy="302.04" r="13.99" fill="#cccccc" stroke="#000000" stroke-width="1.00"/>
<circle cx="255.45" cy="326.27" r="13.99" fill="#cccccc" stroke="#000000" stroke-width="1.00"/>
<circle cx="283.43" cy="326.27" r="13.99" fill="#cccccc" stroke="#000000" stroke-width="1.00"/>
<circle cx="74.60" cy="302.04" r="13.99" fill="#cccccc" stroke="#000000" stroke-width="1.00"/>
<circle cx="116.57" cy="326.27" r="13.99" fill="#cccccc" stroke="#000000" stroke-width="1.00"/>
<circle cx="60.61" cy="277.81" r="13.99" fill="#cccccc" stroke="#000000" stroke-width="1.00"/>
<circle cx="199.49" cy="326.27" r="13.99" fill="#cccccc" stroke="#000000" stroke-width="1.00"/>
<circle cx="102.88" cy="253.40" r="13.99" fill="#cccccc" stroke="#000000" stroke-width="1.00"/>
<circle cx="116.57" cy="277.81" r="13.99" fill="#cccccc" stroke="#000000" stroke-width="1.00"/>
<circle cx="311.41" cy="326.27" r="13.99" fill="#cccccc" stroke="#000000" stroke-width="1.00"/>
<circle cx="88.59" cy="277.81" r="13.99" fill="#cccccc" stroke="#000000" stroke-width="1.00"/>
<circle cx="60.61" cy="326.27" r="13.99" fill="#cccccc" stroke="#000000" stroke-width="1.00"/>
<circle cx="139.88" cy="293.29" r="13.99" fill="#cccccc" stroke="#000000" stroke-width="1.00"/>
<circle cx="88.59" cy="326.27" r="13.99" fill="#cccccc" stroke="#000000" stroke-width="1.00"/>
<circle cx="32.63" cy="326.27" r="13.99" fill="#cccccc" stroke="#000000" stroke-width="1.00"/>
<circle cx="171.51" cy="326.27" r="13.99" fill="#cccccc" stroke="#000000" stroke-width="1.00"/>
<circle cx="159.28" cy="273.12" r="13.99" fill="#cccccc" stroke="#000000" stroke-width="1.00"/>
<circle cx="144.04" cy="320.95" r="13.99" fill="#cccccc" stroke="#000000" stroke-width="1.00"/>
<circle cx="227.47" cy="326.27" r="13.99" fill="#cccccc" stroke="#000000" stroke-width="1.00"/>
<circle cx="255.96" cy="133.30" r="13.99" fill="#cccccc" stroke="#000000" stroke-width="1.00"/>
<circle cx="297.42" cy="302.04" r="13.99" fill="#cccccc" stroke="#000000" stroke-width="1.00"/>
<circle cx="293.07" cy="208.22" r="13.99" fill="#cccccc" stroke="#000000" stroke-width="1.00"/>
<circle cx="251.10" cy="280.91" r="13.99" fill="#cccccc" stroke="#000000" stroke-width="1.00"/>
<circle cx="325.40" cy="253.58" r="13.99" fill="#cccccc" stroke="#000000" stroke-width="1.00"/>
<circle cx="353.38" cy="302.04" r="13.99" fill="#cccccc" stroke="#000000" stroke-width="1.00"/>
<circle cx="279.08" cy="232.45" r="13.99" fill="#cccccc" stroke="#000000" stroke-width="1.00"/>
<circle cx="283.43" cy="277.81" r="13.99" fill="#cccccc" stroke="#000000" stroke-width="1.00"/>
<circle cx="265.09" cy="256.68" r="13.99" fill="#cccccc" stroke="#000000" stroke-width="1.00"/>
<circle cx="339.39" cy="277.81" r="13.99" fill="#cccccc" stroke="#000000" stroke-width="1.00"/>
<circle cx="227.98" cy="84.84" r="13.99" fill="#cccccc" stroke="#000000" stroke-width="1.00"/>
<circle cx="269.95" cy="157.53" r="13.99" fill="#cccccc" stroke="#000000" stroke-width="1.00"/>
<circle cx="367.37" cy="326.27" r="13.99" fill="#cccccc" stroke="#000000" stroke-width="1.00"/>
<circle cx="241.97" cy="109.07" r="13.99" fill="#cccccc" stroke="#000000" stroke-width="1.00"/>
<circle cx="269.44" cy="302.04" r="13.99" fill="#cccccc" stroke="#000000" stroke-width="1.00"/>
<circle cx="283.94" cy="181.77" r="13.99" fill="#cccccc" stroke="#000000" stroke-width="1.00"/>
<circle cx="311.41" cy="277.81" r="13.99" fill="#cccccc" stroke="#000000" stroke-width="1.00"/>
<circle cx="229.21" cy="298.35" r="13.99" fill="#cccccc" stroke="#000000" stroke-width="1.00"/>
<circle cx="325.40" cy="302.04" r="13.99" fill="#cccccc" stroke="#000000" stroke-width="1.00"/>
<circle cx="311.41" cy="229.35" r="13.99" fill="#cccccc" stroke="#000000" stroke-width="1.00"/>
<circle cx="297.42" cy="253.58" r="13.99" fill="#cccccc" stroke="#000000" stroke-width="1.00"/>
<circle cx="339.39" cy="326.27" r="13.99" fill="#cccccc" stroke="#000000" stroke-width="1.00"/>
<circle cx="187.24" cy="274.12" r="13.99" fill="#cccccc" stroke="#000000" stroke-width="1.00"/>
<circle cx="227.98" cy="181.77" r="13.99" fill="#cccccc" stroke="#000000" stroke-width="1.00"/>
<circle cx="150.15" cy="233.13" r="13.99" fill="#cccccc" stroke="#000000" stroke-width="1.00"/>
<circle cx="265.09" cy="208.22" r="13.99" fill="#cccccc" stroke="#000000" stroke-width="1.00"/>
<circle cx="134.91" cy="208.22" r="13.99" fill="#cccccc" stroke="#000000" stroke-width="1.00"/>
<circle cx="144.04" cy="181.77" r="13.99" fill="#cccccc" stroke="#000000" stroke-width="1.00"/>
<circle cx="237.11" cy="256.68" r="13.99" fill="#cccccc" stroke="#000000" stroke-width="1.00"/>
<circle cx="237.11" cy="208.22" r="13.99" fill="#cccccc" stroke="#000000" stroke-width="1.00"/>
<circle cx="251.10" cy="232.45" r="13.99" fill="#cccccc" stroke="#000000" stroke-width="1.00"/>
<circle cx="162.89" cy="208.22" r="13.99" fill="#cccccc" stroke="#000000" stroke-width="1.00"/>
<circle cx="201.23" cy="298.35" r="13.99" fill="#cccccc" stroke="#000000" stroke-width="1.00"/>
<circle cx="201.23" cy="249.88" r="13.99" fill="#cccccc" stroke="#000000" stroke-width="1.00"/>
<circle cx="122.17" cy="233.13" r="13.99" fill="#cccccc" stroke="#000000" stroke-width="1.00"/>
<circle cx="215.22" cy="274.12" r="13.99" fill="#cccccc" stroke="#000000" stroke-width="1.00"/>
<circle cx="241.97" cy="157.53" r="13.99" fill="#cccccc" stroke="#000000" stroke-width="1.00"/>
<circle cx="186.01" cy="223.98" r="13.99" fill="#cccccc" stroke="#000000" stroke-width="1.00"/>
<circle cx="209.13" cy="208.22" r="13.99" fill="#cccccc" stroke="#000000" stroke-width="1.00"/>
<circle cx="255.96" cy="181.77" r="13.99" fill="#cccccc" stroke="#000000" stroke-width="1.00"/>
<circle cx="200.00" cy="181.77" r="13.99" fill="#cccccc" stroke="#000000" stroke-width="1.00"/>
<circle cx="173.27" cy="248.89" r="13.99" fill="#cccccc" stroke="#000000" stroke-width="1.00"/>
<circle cx="223.12" cy="232.45" r="13.99" fill="#cccccc" stroke="#000000" stroke-width="1.00"/>
<circle cx="172.02" cy="181.77" r="13.99" fill="#cccccc" stroke="#000000" stroke-width="1.00"/>
<polygon points="200.00,8.39 8.39,340.27 391.61,340.27" fill="none" stroke="#000000" stroke-width="1.40"/>
</svg>