<svg xmlns="http://www.w3.org/2000/svg" width="400.0" height="348.7" viewBox="0 0 400.0 348.7">
<rect width="400.0" height="348.7" fill="white"/>
<circle cx="102.29" cy="251.95" r="13.96" fill="#cccccc" stroke="#000000" stroke-width="1.00"/>
<circle cx="164.78" cy="145.65" r="13.96" fill="#cccccc" stroke="#000000" stroke-width="1.00"/>
<circle cx="213.96" cy="60.47" r="13.96" fill="#cccccc" stroke="#000000" stroke-width="1.00"/>
<circle cx="200.54" cy="167.78" r="13.96" fill="#cccccc" stroke="#000000" stroke-width="1.00"/>
<circle cx="136.86" cy="145.65" r="13.96" fill="#cccccc" stroke="#000000" stroke-width="1.00"/>
<circle cx="60.47" cy="277.96" r="13.96" fill="#cccccc" stroke="#000000" stroke-width="1.00"/>
<circle cx="150.82" cy="121.47" r="13.96" fill="#cccccc" stroke="#000000" stroke-width="1.00"/>
<circle cx="172.08" cy="84.65" r="13.96" fill="#cccccc" stroke="#000000" stroke-width="1.00"/>
<circle cx="103.91" cy="202.73" r="13.96" fill="#cccccc" stroke="#000000" stroke-width="1.00"/>
<circle cx="219.00" cy="136.29" r="13.96" fill="#cccccc" stroke="#000000" stroke-width="1.00"/>
<circle cx="173.00" cy="172.33" r="13.96" fill="#cccccc" stroke="#000000" stroke-width="1.00"/>
<circle cx="117.86" cy="178.56" r="13.96" fill="#cccccc" stroke="#000000" stroke-width="1.00"/>
<circle cx="145.08" cy="172.33" r="13.96" fill="#cccccc" stroke="#000000" stroke-width="1.00"/>
<circle cx="186.04" cy="60.47" r="13.96" fill="#cccccc" stroke="#000000" stroke-width="1.00"/>
<circle cx="177.12" cy="112.11" r="13.96" fill="#cccccc" stroke="#000000" stroke-width="1.00"/>
<circle cx="191.08" cy="136.29" r="13.96" fill="#cccccc" stroke="#000000" stroke-width="1.00"/>
<circle cx="200.00" cy="36.29" r="13.96" fill="#cccccc" stroke="#000000" stroke-width="1.00"/>
<circle cx="205.04" cy="112.11" r="13.96" fill="#cccccc" stroke="#000000" stroke-width="1.00"/>
<circle cx="74.43" cy="253.79" r="13.96" fill="#cccccc" stroke="#000000" stroke-width="1.00"/>
<circle cx="200.00" cy="84.65" r="13.96" fill="#cccccc" stroke="#000000" stroke-width="1.00"/>
<circle cx="89.95" cy="226.91" r="13.96" fill="#cccccc" stroke="#000000" stroke-width="1.00"/>
<circle cx="144.16" cy="276.13" r="13.96" fill="#cccccc" stroke="#000000" stroke-width="1.00"/>
<circle cx="102.35" cy="302.14" r="13.96" fill="#cccccc" stroke="#000000" stroke-width="1.00"/>
<circle cx="186.04" cy="300.31" r="13.96" fill="#cccccc" stroke="#000000" stroke-width="1.00"/>
<circle cx="46.51" cy="302.14" r="13.96" fill="#cccccc" stroke="#000000" stroke-width="1.00"/>
<circle cx="255.78" cy="326.32" r="13.96" fill="#cccccc" stroke="#000000" stroke-width="1.00"/>
<circle cx="283.69" cy="326.32" r="13.96" fill="#cccccc" stroke="#000000" stroke-width="1.00"/>
<circle cx="88.39" cy="277.96" r="13.96" fill="#cccccc" stroke="#000000" stroke-width="1.00"/>
<circle cx="116.31" cy="326.32" r="13.96" fill="#cccccc" stroke="#000000" stroke-width="1.00"/>
<circle cx="74.43" cy="302.14" r="13.96" fill="#cccccc" stroke="#000000" stroke-width="1.00"/>
<circle cx="199.94" cy="326.32" r="13.96" fill="#cccccc" stroke="#000000" stroke-width="1.00"/>
<circle cx="130.21" cy="251.95" r="13.96" fill="#cccccc" stroke="#000000" stroke-width="1.00"/>
<circle cx="130.27" cy="302.14" r="13.96" fill="#cccccc" stroke="#000000" stroke-width="1.00"/>
<circle cx="311.61" cy="326.32" r="13.96" fill="#cccccc" stroke="#000000" stroke-width="1.00"/>
<circle cx="116.31" cy="277.96" r="13.96" fill="#cccccc" stroke="#000000" stroke-width="1.00"/>
<circle cx="60.47" cy="326.32" r="13.96" fill="#cccccc" stroke="#000000" stroke-width="1.00"/>
<circle cx="158.12" cy="300.31" r="13.96" fill="#cccccc" stroke="#000000" stroke-width="1.00"/>
<circle cx="88.39" cy="326.32" r="13.96" fill="#cccccc" stroke="#000000" stroke-width="1.00"/>
<circle cx="32.55" cy="326.32" r="13.96" fill="#cccccc" stroke="#000000" stroke-width="1.00"/>
<circle cx="172.08" cy="324.49" r="13.96" fill="#cccccc" stroke="#000000" stroke-width="1.00"/>
<circle cx="172.08" cy="276.13" r="13.96" fill="#cccccc" stroke="#000000" stroke-width="1.00"/>
<circle cx="144.22" cy="326.32" r="13.96" fill="#cccccc" stroke="#000000" stroke-width="1.00"/>
<circle cx="227.86" cy="326.32" r="13.96" fill="#cccccc" stroke="#000000" stroke-width="1.00"/>
<circle cx="254.22" cy="130.20" r="13.96" fill="#cccccc" stroke="#000000" stroke-width="1.00"/>
<circle cx="297.65" cy="302.14" r="13.96" fill="#cccccc" stroke="#000000" stroke-width="1.00"/>
<circle cx="297.65" cy="205.43" r="13.96" fill="#cccccc" stroke="#000000" stroke-width="1.00"/>
<circle cx="255.78" cy="277.96" r="13.96" fill="#cccccc" stroke="#000000" stroke-width="1.00"/>
<circle cx="325.57" cy="253.79" r="13.96" fill="#cccccc" stroke="#000000" stroke-width="1.00"/>
<circle cx="353.49" cy="302.14" r="13.96" fill="#cccccc" stroke="#000000" stroke-width="1.00"/>
<circle cx="283.69" cy="229.61" r="13.96" fill="#cccccc" stroke="#000000" stroke-width="1.00"/>
<circle cx="283.69" cy="277.96" r="13.96" fill="#cccccc" stroke="#000000" stroke-width="1.00"/>
<circle cx="269.73" cy="253.79" r="13.96" fill="#cccccc" stroke="#000000" stroke-width="1.00"/>
<circle cx="339.53" cy="277.96" r="13.96" fill="#cccccc" stroke="#000000" stroke-width="1.00"/>
<circle cx="227.92" cy="84.65" r="13.96" fill="#cccccc" stroke="#000000" stroke-width="1.00"/>
<circle cx="268.18" cy="154.38" r="13.96" fill="#cccccc" stroke="#000000" stroke-width="1.00"/>
<circle cx="367.45" cy="326.32" r="13.96" fill="#cccccc" stroke="#000000" stroke-width="1.00"/>
<circle cx="232.96" cy="112.11" r="13.96" fill="#cccccc" stroke="#000000" stroke-width="1.00"/>
<circle cx="269.73" cy="302.14" r="13.96" fill="#cccccc" stroke="#000000" stroke-width="1.00"/>
<circle cx="282.14" cy="178.56" r="13.96" fill="#cccccc" stroke="#000000" stroke-width="1.00"/>
<circle cx="311.61" cy="277.96" r="13.96" fill="#cccccc" stroke="#000000" stroke-width="1.00"/>
<circle cx="241.82" cy="302.14" r="13.96" fill="#cccccc" stroke="#000000" stroke-width="1.00"/>
<circle cx="325.57" cy="302.14" r="13.96" fill="#cccccc" stroke="#000000" stroke-width="1.00"/>
<circle cx="311.61" cy="229.61" r="13.96" fill="#cccccc" stroke="#000000" stroke-width="1.00"/>
<circle cx="297.65" cy="253.79" r="13.96" fill="#cccccc" stroke="#000000" stroke-width="1.00"/>
<circle cx="339.53" cy="326.32" r="13.96" fill="#cccccc" stroke="#000000" stroke-width="1.00"/>
<circle cx="200.00" cy="276.13" r="13.96" fill="#cccccc" stroke="#000000" stroke-width="1.00"/>
<circle cx="226.30" cy="178.55" r="13.96" fill="#cccccc" stroke="#000000" stroke-width="1.00"/>
<circle cx="158.12" cy="251.95" r="13.96" fill="#cccccc" stroke="#000000" stroke-width="1.00"/>
<circle cx="269.79" cy="203.60" r="13.96" fill="#cccccc" stroke="#000000" stroke-width="1.00"/>
<circle cx="145.78" cy="226.91" r="13.96" fill="#cccccc" stroke="#000000" stroke-width="1.00"/>
<circle cx="131.82" cy="202.73" r="13.96" fill="#cccccc" stroke="#000000" stroke-width="1.00"/>
<circle cx="241.88" cy="251.95" r="13.96" fill="#cccccc" stroke="#000000" stroke-width="1.00"/>
<circle cx="241.88" cy="203.60" r="13.96" fill="#cccccc" stroke="#000000" stroke-width="1.00"/>
<circle cx="255.84" cy="227.78" r="13.96" fill="#cccccc" stroke="#000000" stroke-width="1.00"/>
<circle cx="173.00" cy="220.69" r="13.96" fill="#cccccc" stroke="#000000" stroke-width="1.00"/>
<circle cx="213.90" cy="302.14" r="13.96" fill="#cccccc" stroke="#000000" stroke-width="1.00"/>
<circle cx="213.96" cy="251.95" r="13.96" fill="#cccccc" stroke="#000000" stroke-width="1.00"/>
<circle cx="117.86" cy="226.91" r="13.96" fill="#cccccc" stroke="#000000" stroke-width="1.00"/>
<circle cx="227.92" cy="276.13" r="13.96" fill="#cccccc" stroke="#000000" stroke-width="1.00"/>
<circle cx="240.26" cy="154.38" r="13.96" fill="#cccccc" stroke="#000000" stroke-width="1.00"/>
<circle cx="200.00" cy="227.78" r="13.96" fill="#cccccc" stroke="#000000" stroke-width="1.00"/>
<circle cx="213.96" cy="203.60" r="13.96" fill="#cccccc" stroke="#000000" stroke-width="1.00"/>
<circle cx="254.22" cy="178.56" r="13.96" fill="#cccccc" stroke="#000000" stroke-width="1.00"/>
<circle cx="186.96" cy="196.51" r="13.96" fill="#cccccc" stroke="#000000" stroke-width="1.00"/>
<circle cx="186.04" cy="251.95" r="13.96" fill="#cccccc" stroke="#000000" stroke-width="1.00"/>
<circle cx="227.92" cy="227.78" r="13.96" fill="#cccccc" stroke="#000000" stroke-width="1.00"/>
<circle cx="159.04" cy="196.51" r="13.96" fill="#cccccc" stroke="#000000" stroke-width="1.00"/>
<polygon points="200.00,8.38 8.38,340.28 391.62,340.28" fill="none" stroke="#000000" stroke-width="1.40"/>
</svg>