<svg xmlns="http://www.w3.org/2000/svg" width="400.0" height="348.7" viewBox="0 0 400.0 348.7">
<rect width="400.0" height="348.7" fill="white"/>
<circle cx="144.17" cy="228.27" r="13.96" fill="#cccccc" stroke="#000000" stroke-width="1.00"/>
<circle cx="74.42" cy="302.15" r="13.96" fill="#cccccc" stroke="#000000" stroke-width="1.00"/>
<circle cx="339.54" cy="277.97" r="13.96" fill="#cccccc" stroke="#000000" stroke-width="1.00"/>
<circle cx="144.20" cy="326.32" r="13.96" fill="#cccccc" stroke="#000000" stroke-width="1.00"/>
<circle cx="241.87" cy="204.10" r="13.96" fill="#cccccc" stroke="#000000" stroke-width="1.00"/>
<circle cx="88.38" cy="326.32" r="13.96" fill="#cccccc" stroke="#000000" stroke-width="1.00"/>
<circle cx="255.83" cy="228.27" r="13.96" fill="#cccccc" stroke="#000000" stroke-width="1.00"/>
<circle cx="186.04" cy="60.46" r="13.96" fill="#cccccc" stroke="#000000" stroke-width="1.00"/>
<circle cx="269.75" cy="253.80" r="13.96" fill="#cccccc" stroke="#000000" stroke-width="1.00"/>
<circle cx="158.16" cy="302.15" r="13.96" fill="#cccccc" stroke="#000000" stroke-width="1.00"/>
<circle cx="173.27" cy="130.93" r="13.96" fill="#cccccc" stroke="#000000" stroke-width="1.00"/>
<circle cx="283.71" cy="229.63" r="13.96" fill="#cccccc" stroke="#000000" stroke-width="1.00"/>
<circle cx="282.55" cy="179.28" r="13.96" fill="#cccccc" stroke="#000000" stroke-width="1.00"/>
<circle cx="325.58" cy="302.15" r="13.96" fill="#cccccc" stroke="#000000" stroke-width="1.00"/>
<circle cx="172.12" cy="326.32" r="13.96" fill="#cccccc" stroke="#000000" stroke-width="1.00"/>
<circle cx="241.87" cy="147.04" r="13.96" fill="#cccccc" stroke="#000000" stroke-width="1.00"/>
<circle cx="254.64" cy="179.28" r="13.96" fill="#cccccc" stroke="#000000" stroke-width="1.00"/>
<circle cx="213.96" cy="252.45" r="13.96" fill="#cccccc" stroke="#000000" stroke-width="1.00"/>
<circle cx="173.27" cy="179.28" r="13.96" fill="#cccccc" stroke="#000000" stroke-width="1.00"/>
<circle cx="130.21" cy="204.10" r="13.96" fill="#cccccc" stroke="#000000" stroke-width="1.00"/>
<circle cx="187.23" cy="155.10" r="13.96" fill="#cccccc" stroke="#000000" stroke-width="1.00"/>
<circle cx="186.04" cy="204.10" r="13.96" fill="#cccccc" stroke="#000000" stroke-width="1.00"/>
<circle cx="144.20" cy="277.97" r="13.96" fill="#cccccc" stroke="#000000" stroke-width="1.00"/>
<circle cx="255.80" cy="326.32" r="13.96" fill="#cccccc" stroke="#000000" stroke-width="1.00"/>
<circle cx="60.46" cy="277.97" r="13.96" fill="#cccccc" stroke="#000000" stroke-width="1.00"/>
<circle cx="159.32" cy="155.10" r="13.96" fill="#cccccc" stroke="#000000" stroke-width="1.00"/>
<circle cx="297.67" cy="205.45" r="13.96" fill="#cccccc" stroke="#000000" stroke-width="1.00"/>
<circle cx="268.60" cy="155.10" r="13.96" fill="#cccccc" stroke="#000000" stroke-width="1.00"/>
<circle cx="269.79" cy="204.10" r="13.96" fill="#cccccc" stroke="#000000" stroke-width="1.00"/>
<circle cx="200.00" cy="324.97" r="13.96" fill="#cccccc" stroke="#000000" stroke-width="1.00"/>
<circle cx="88.38" cy="277.97" r="13.96" fill="#cccccc" stroke="#000000" stroke-width="1.00"/>
<circle cx="227.88" cy="326.32" r="13.96" fill="#cccccc" stroke="#000000" stroke-width="1.00"/>
<circle cx="353.49" cy="302.15" r="13.96" fill="#cccccc" stroke="#000000" stroke-width="1.00"/>
<circle cx="241.87" cy="252.45" r="13.96" fill="#cccccc" stroke="#000000" stroke-width="1.00"/>
<circle cx="227.91" cy="228.27" r="13.96" fill="#cccccc" stroke="#000000" stroke-width="1.00"/>
<circle cx="234.30" cy="95.69" r="13.96" fill="#cccccc" stroke="#000000" stroke-width="1.00"/>
<circle cx="213.96" cy="204.10" r="13.96" fill="#cccccc" stroke="#000000" stroke-width="1.00"/>
<circle cx="159.32" cy="106.75" r="13.96" fill="#cccccc" stroke="#000000" stroke-width="1.00"/>
<circle cx="102.33" cy="253.80" r="13.96" fill="#cccccc" stroke="#000000" stroke-width="1.00"/>
<circle cx="311.62" cy="326.32" r="13.96" fill="#cccccc" stroke="#000000" stroke-width="1.00"/>
<circle cx="117.45" cy="179.28" r="13.96" fill="#cccccc" stroke="#000000" stroke-width="1.00"/>
<circle cx="367.45" cy="326.32" r="13.96" fill="#cccccc" stroke="#000000" stroke-width="1.00"/>
<circle cx="283.71" cy="326.32" r="13.96" fill="#cccccc" stroke="#000000" stroke-width="1.00"/>
<circle cx="311.62" cy="229.63" r="13.96" fill="#cccccc" stroke="#000000" stroke-width="1.00"/>
<circle cx="102.33" cy="205.45" r="13.96" fill="#cccccc" stroke="#000000" stroke-width="1.00"/>
<circle cx="283.71" cy="277.97" r="13.96" fill="#cccccc" stroke="#000000" stroke-width="1.00"/>
<circle cx="60.46" cy="326.32" r="13.96" fill="#cccccc" stroke="#000000" stroke-width="1.00"/>
<circle cx="186.04" cy="252.45" r="13.96" fill="#cccccc" stroke="#000000" stroke-width="1.00"/>
<circle cx="116.29" cy="326.32" r="13.96" fill="#cccccc" stroke="#000000" stroke-width="1.00"/>
<circle cx="186.04" cy="300.80" r="13.96" fill="#cccccc" stroke="#000000" stroke-width="1.00"/>
<circle cx="172.09" cy="228.27" r="13.96" fill="#cccccc" stroke="#000000" stroke-width="1.00"/>
<circle cx="116.29" cy="229.63" r="13.96" fill="#cccccc" stroke="#000000" stroke-width="1.00"/>
<circle cx="325.58" cy="253.80" r="13.96" fill="#cccccc" stroke="#000000" stroke-width="1.00"/>
<circle cx="172.09" cy="276.62" r="13.96" fill="#cccccc" stroke="#000000" stroke-width="1.00"/>
<circle cx="339.54" cy="326.32" r="13.96" fill="#cccccc" stroke="#000000" stroke-width="1.00"/>
<circle cx="130.25" cy="302.15" r="13.96" fill="#cccccc" stroke="#000000" stroke-width="1.00"/>
<circle cx="193.62" cy="111.81" r="13.96" fill="#cccccc" stroke="#000000" stroke-width="1.00"/>
<circle cx="220.34" cy="119.87" r="13.96" fill="#cccccc" stroke="#000000" stroke-width="1.00"/>
<circle cx="88.38" cy="229.63" r="13.96" fill="#cccccc" stroke="#000000" stroke-width="1.00"/>
<circle cx="297.67" cy="302.15" r="13.96" fill="#cccccc" stroke="#000000" stroke-width="1.00"/>
<circle cx="158.13" cy="252.45" r="13.96" fill="#cccccc" stroke="#000000" stroke-width="1.00"/>
<circle cx="227.91" cy="276.62" r="13.96" fill="#cccccc" stroke="#000000" stroke-width="1.00"/>
<circle cx="207.57" cy="87.64" r="13.96" fill="#cccccc" stroke="#000000" stroke-width="1.00"/>
<circle cx="145.36" cy="179.28" r="13.96" fill="#cccccc" stroke="#000000" stroke-width="1.00"/>
<circle cx="131.40" cy="155.10" r="13.96" fill="#cccccc" stroke="#000000" stroke-width="1.00"/>
<circle cx="145.36" cy="130.93" r="13.96" fill="#cccccc" stroke="#000000" stroke-width="1.00"/>
<circle cx="74.42" cy="253.80" r="13.96" fill="#cccccc" stroke="#000000" stroke-width="1.00"/>
<circle cx="201.19" cy="179.28" r="13.96" fill="#cccccc" stroke="#000000" stroke-width="1.00"/>
<circle cx="116.29" cy="277.97" r="13.96" fill="#cccccc" stroke="#000000" stroke-width="1.00"/>
<circle cx="269.75" cy="302.15" r="13.96" fill="#cccccc" stroke="#000000" stroke-width="1.00"/>
<circle cx="46.51" cy="302.15" r="13.96" fill="#cccccc" stroke="#000000" stroke-width="1.00"/>
<circle cx="311.62" cy="277.97" r="13.96" fill="#cccccc" stroke="#000000" stroke-width="1.00"/>
<circle cx="200.00" cy="276.62" r="13.96" fill="#cccccc" stroke="#000000" stroke-width="1.00"/>
<circle cx="297.67" cy="253.80" r="13.96" fill="#cccccc" stroke="#000000" stroke-width="1.00"/>
<circle cx="213.96" cy="60.46" r="13.96" fill="#cccccc" stroke="#000000" stroke-width="1.00"/>
<circle cx="130.25" cy="253.80" r="13.96" fill="#cccccc" stroke="#000000" stroke-width="1.00"/>
<circle cx="158.13" cy="204.10" r="13.96" fill="#cccccc" stroke="#000000" stroke-width="1.00"/>
<circle cx="32.55" cy="326.32" r="13.96" fill="#cccccc" stroke="#000000" stroke-width="1.00"/>
<circle cx="227.91" cy="171.22" r="13.96" fill="#cccccc" stroke="#000000" stroke-width="1.00"/>
<circle cx="213.96" cy="147.04" r="13.96" fill="#cccccc" stroke="#000000" stroke-width="1.00"/>
<circle cx="241.84" cy="302.15" r="13.96" fill="#cccccc" stroke="#000000" stroke-width="1.00"/>
<circle cx="200.00" cy="228.27" r="13.96" fill="#cccccc" stroke="#000000" stroke-width="1.00"/>
<circle cx="248.26" cy="119.87" r="13.96" fill="#cccccc" stroke="#000000" stroke-width="1.00"/>
<circle cx="200.00" cy="36.29" r="13.96" fill="#cccccc" stroke="#000000" stroke-width="1.00"/>
<circle cx="213.96" cy="300.80" r="13.96" fill="#cccccc" stroke="#000000" stroke-width="1.00"/>
<circle cx="255.80" cy="277.97" r="13.96" fill="#cccccc" stroke="#000000" stroke-width="1.00"/>
<circle cx="179.66" cy="87.64" r="13.96" fill="#cccccc" stroke="#000000" stroke-width="1.00"/>
<circle cx="102.33" cy="302.15" r="13.96" fill="#cccccc" stroke="#000000" stroke-width="1.00"/>
<polygon points="200.00,8.37 8.37,340.28 391.63,340.28" fill="none" stroke="#000000" stroke-width="1.40"/>
</svg>