<svg xmlns="http://www.w3.org/2000/svg" width="400.0" height="348.7" viewBox="0 0 400.0 348.7">
<rect width="400.0" height="348.7" fill="white"/>
<circle cx="130.23" cy="253.82" r="13.95" fill="#cccccc" stroke="#000000" stroke-width="1.00"/>
<circle cx="74.41" cy="302.16" r="13.95" fill="#cccccc" stroke="#000000" stroke-width="1.00"/>
<circle cx="325.59" cy="302.16" r="13.95" fill="#cccccc" stroke="#000000" stroke-width="1.00"/>
<circle cx="144.18" cy="326.33" r="13.95" fill="#cccccc" stroke="#000000" stroke-width="1.00"/>
<circle cx="213.95" cy="157.13" r="13.95" fill="#cccccc" stroke="#000000" stroke-width="1.00"/>
<circle cx="88.36" cy="326.33" r="13.95" fill="#cccccc" stroke="#000000" stroke-width="1.00"/>
<circle cx="269.77" cy="205.47" r="13.95" fill="#cccccc" stroke="#000000" stroke-width="1.00"/>
<circle cx="186.05" cy="60.45" r="13.95" fill="#cccccc" stroke="#000000" stroke-width="1.00"/>
<circle cx="297.68" cy="253.82" r="13.95" fill="#cccccc" stroke="#000000" stroke-width="1.00"/>
<circle cx="158.14" cy="302.16" r="13.95" fill="#cccccc" stroke="#000000" stroke-width="1.00"/>
<circle cx="158.14" cy="108.79" r="13.95" fill="#cccccc" stroke="#000000" stroke-width="1.00"/>
<circle cx="325.59" cy="253.82" r="13.95" fill="#cccccc" stroke="#000000" stroke-width="1.00"/>
<circle cx="297.68" cy="205.47" r="13.95" fill="#cccccc" stroke="#000000" stroke-width="1.00"/>
<circle cx="297.68" cy="302.16" r="13.95" fill="#cccccc" stroke="#000000" stroke-width="1.00"/>
<circle cx="172.09" cy="326.33" r="13.95" fill="#cccccc" stroke="#000000" stroke-width="1.00"/>
<circle cx="241.86" cy="157.13" r="13.95" fill="#cccccc" stroke="#000000" stroke-width="1.00"/>
<circle cx="283.73" cy="181.30" r="13.95" fill="#cccccc" stroke="#000000" stroke-width="1.00"/>
<circle cx="227.91" cy="229.64" r="13.95" fill="#cccccc" stroke="#000000" stroke-width="1.00"/>
<circle cx="158.14" cy="157.13" r="13.95" fill="#cccccc" stroke="#000000" stroke-width="1.00"/>
<circle cx="130.23" cy="205.47" r="13.95" fill="#cccccc" stroke="#000000" stroke-width="1.00"/>
<circle cx="186.05" cy="157.13" r="13.95" fill="#cccccc" stroke="#000000" stroke-width="1.00"/>
<circle cx="200.00" cy="181.30" r="13.95" fill="#cccccc" stroke="#000000" stroke-width="1.00"/>
<circle cx="172.09" cy="277.99" r="13.95" fill="#cccccc" stroke="#000000" stroke-width="1.00"/>
<circle cx="227.91" cy="326.33" r="13.95" fill="#cccccc" stroke="#000000" stroke-width="1.00"/>
<circle cx="60.45" cy="277.99" r="13.95" fill="#cccccc" stroke="#000000" stroke-width="1.00"/>
<circle cx="144.18" cy="181.30" r="13.95" fill="#cccccc" stroke="#000000" stroke-width="1.00"/>
<circle cx="311.64" cy="229.64" r="13.95" fill="#cccccc" stroke="#000000" stroke-width="1.00"/>
<circle cx="269.77" cy="157.13" r="13.95" fill="#cccccc" stroke="#000000" stroke-width="1.00"/>
<circle cx="283.73" cy="229.64" r="13.95" fill="#cccccc" stroke="#000000" stroke-width="1.00"/>
<circle cx="186.05" cy="302.16" r="13.95" fill="#cccccc" stroke="#000000" stroke-width="1.00"/>
<circle cx="88.36" cy="277.99" r="13.95" fill="#cccccc" stroke="#000000" stroke-width="1.00"/>
<circle cx="200.00" cy="326.33" r="13.95" fill="#cccccc" stroke="#000000" stroke-width="1.00"/>
<circle cx="367.46" cy="326.33" r="13.95" fill="#cccccc" stroke="#000000" stroke-width="1.00"/>
<circle cx="255.82" cy="229.64" r="13.95" fill="#cccccc" stroke="#000000" stroke-width="1.00"/>
<circle cx="241.86" cy="205.47" r="13.95" fill="#cccccc" stroke="#000000" stroke-width="1.00"/>
<circle cx="241.86" cy="108.79" r="13.95" fill="#cccccc" stroke="#000000" stroke-width="1.00"/>
<circle cx="213.95" cy="205.47" r="13.95" fill="#cccccc" stroke="#000000" stroke-width="1.00"/>
<circle cx="172.09" cy="84.62" r="13.95" fill="#cccccc" stroke="#000000" stroke-width="1.00"/>
<circle cx="102.32" cy="253.82" r="13.95" fill="#cccccc" stroke="#000000" stroke-width="1.00"/>
<circle cx="283.73" cy="326.33" r="13.95" fill="#cccccc" stroke="#000000" stroke-width="1.00"/>
<circle cx="116.27" cy="181.30" r="13.95" fill="#cccccc" stroke="#000000" stroke-width="1.00"/>
<circle cx="339.55" cy="326.33" r="13.95" fill="#cccccc" stroke="#000000" stroke-width="1.00"/>
<circle cx="255.82" cy="326.33" r="13.95" fill="#cccccc" stroke="#000000" stroke-width="1.00"/>
<circle cx="339.55" cy="277.99" r="13.95" fill="#cccccc" stroke="#000000" stroke-width="1.00"/>
<circle cx="102.32" cy="205.47" r="13.95" fill="#cccccc" stroke="#000000" stroke-width="1.00"/>
<circle cx="269.77" cy="253.82" r="13.95" fill="#cccccc" stroke="#000000" stroke-width="1.00"/>
<circle cx="60.45" cy="326.33" r="13.95" fill="#cccccc" stroke="#000000" stroke-width="1.00"/>
<circle cx="186.05" cy="253.82" r="13.95" fill="#cccccc" stroke="#000000" stroke-width="1.00"/>
<circle cx="116.27" cy="326.33" r="13.95" fill="#cccccc" stroke="#000000" stroke-width="1.00"/>
<circle cx="200.00" cy="277.99" r="13.95" fill="#cccccc" stroke="#000000" stroke-width="1.00"/>
<circle cx="200.00" cy="229.64" r="13.95" fill="#cccccc" stroke="#000000" stroke-width="1.00"/>
<circle cx="116.27" cy="229.64" r="13.95" fill="#cccccc" stroke="#000000" stroke-width="1.00"/>
<circle cx="353.50" cy="302.16" r="13.95" fill="#cccccc" stroke="#000000" stroke-width="1.00"/>
<circle cx="158.14" cy="253.82" r="13.95" fill="#cccccc" stroke="#000000" stroke-width="1.00"/>
<circle cx="311.64" cy="326.33" r="13.95" fill="#cccccc" stroke="#000000" stroke-width="1.00"/>
<circle cx="130.23" cy="302.16" r="13.95" fill="#cccccc" stroke="#000000" stroke-width="1.00"/>
<circle cx="172.09" cy="132.96" r="13.95" fill="#cccccc" stroke="#000000" stroke-width="1.00"/>
<circle cx="213.95" cy="108.79" r="13.95" fill="#cccccc" stroke="#000000" stroke-width="1.00"/>
<circle cx="88.36" cy="229.64" r="13.95" fill="#cccccc" stroke="#000000" stroke-width="1.00"/>
<circle cx="269.77" cy="302.16" r="13.95" fill="#cccccc" stroke="#000000" stroke-width="1.00"/>
<circle cx="172.09" cy="229.64" r="13.95" fill="#cccccc" stroke="#000000" stroke-width="1.00"/>
<circle cx="241.86" cy="253.82" r="13.95" fill="#cccccc" stroke="#000000" stroke-width="1.00"/>
<circle cx="186.05" cy="108.79" r="13.95" fill="#cccccc" stroke="#000000" stroke-width="1.00"/>
<circle cx="158.14" cy="205.47" r="13.95" fill="#cccccc" stroke="#000000" stroke-width="1.00"/>
<circle cx="130.23" cy="157.13" r="13.95" fill="#cccccc" stroke="#000000" stroke-width="1.00"/>
<circle cx="144.18" cy="132.96" r="13.95" fill="#cccccc" stroke="#000000" stroke-width="1.00"/>
<circle cx="74.41" cy="253.82" r="13.95" fill="#cccccc" stroke="#000000" stroke-width="1.00"/>
<circle cx="172.09" cy="181.30" r="13.95" fill="#cccccc" stroke="#000000" stroke-width="1.00"/>
<circle cx="144.18" cy="277.99" r="13.95" fill="#cccccc" stroke="#000000" stroke-width="1.00"/>
<circle cx="241.86" cy="302.16" r="13.95" fill="#cccccc" stroke="#000000" stroke-width="1.00"/>
<circle cx="46.50" cy="302.16" r="13.95" fill="#cccccc" stroke="#000000" stroke-width="1.00"/>
<circle cx="283.73" cy="277.99" r="13.95" fill="#cccccc" stroke="#000000" stroke-width="1.00"/>
<circle cx="213.95" cy="253.82" r="13.95" fill="#cccccc" stroke="#000000" stroke-width="1.00"/>
<circle cx="311.64" cy="277.99" r="13.95" fill="#cccccc" stroke="#000000" stroke-width="1.00"/>
<circle cx="227.91" cy="84.62" r="13.95" fill="#cccccc" stroke="#000000" stroke-width="1.00"/>
<circle cx="116.27" cy="277.99" r="13.95" fill="#cccccc" stroke="#000000" stroke-width="1.00"/>
<circle cx="144.18" cy="229.64" r="13.95" fill="#cccccc" stroke="#000000" stroke-width="1.00"/>
<circle cx="32.54" cy="326.33" r="13.95" fill="#cccccc" stroke="#000000" stroke-width="1.00"/>
<circle cx="227.91" cy="181.30" r="13.95" fill="#cccccc" stroke="#000000" stroke-width="1.00"/>
<circle cx="200.00" cy="132.96" r="13.95" fill="#cccccc" stroke="#000000" stroke-width="1.00"/>
<circle cx="213.95" cy="302.16" r="13.95" fill="#cccccc" stroke="#000000" stroke-width="1.00"/>
<circle cx="186.05" cy="205.47" r="13.95" fill="#cccccc" stroke="#000000" stroke-width="1.00"/>
<circle cx="255.82" cy="132.96" r="13.95" fill="#cccccc" stroke="#000000" stroke-width="1.00"/>
<circle cx="213.95" cy="60.45" r="13.95" fill="#cccccc" stroke="#000000" stroke-width="1.00"/>
<circle cx="227.91" cy="277.99" r="13.95" fill="#cccccc" stroke="#000000" stroke-width="1.00"/>
<circle cx="255.82" cy="277.99" r="13.95" fill="#cccccc" stroke="#000000" stroke-width="1.00"/>
<circle cx="200.00" cy="84.62" r="13.95" fill="#cccccc" stroke="#000000" stroke-width="1.00"/>
<circle cx="102.32" cy="302.16" r="13.95" fill="#cccccc" stroke="#000000" stroke-width="1.00"/>
<circle cx="255.82" cy="181.30" r="13.95" fill="#cccccc" stroke="#000000" stroke-width="1.00"/>
<circle cx="227.91" cy="132.96" r="13.95" fill="#cccccc" stroke="#000000" stroke-width="1.00"/>
<polygon points="200.00,8.37 8.37,340.28 391.63,340.28" fill="none" stroke="#000000" stroke-width="1.40"/>
</svg>