<svg xmlns="http://www.w3.org/2000/svg" width="400.0" height="348.6" viewBox="0 0 400.0 348.6">
<rect width="400.0" height="348.6" fill="white"/>
<circle cx="165.94" cy="163.24" r="13.50" fill="#cccccc" stroke="#000000" stroke-width="1.00"/>
<circle cx="138.93" cy="210.02" r="13.50" fill="#cccccc" stroke="#000000" stroke-width="1.00"/>
<circle cx="192.95" cy="116.46" r="13.50" fill="#cccccc" stroke="#000000" stroke-width="1.00"/>
<circle cx="70.73" cy="259.01" r="13.50" fill="#cccccc" stroke="#000000" stroke-width="1.00"/>
<circle cx="174.26" cy="79.69" r="13.50" fill="#cccccc" stroke="#000000" stroke-width="1.00"/>
<circle cx="219.96" cy="69.68" r="13.50" fill="#cccccc" stroke="#000000" stroke-width="1.00"/>
<circle cx="111.93" cy="257.05" r="13.50" fill="#cccccc" stroke="#000000" stroke-width="1.00"/>
<circle cx="194.22" cy="61.49" r="13.50" fill="#cccccc" stroke="#000000" stroke-width="1.00"/>
<circle cx="104.20" cy="300.59" r="13.50" fill="#cccccc" stroke="#000000" stroke-width="1.00"/>
<circle cx="148.40" cy="124.49" r="13.50" fill="#cccccc" stroke="#000000" stroke-width="1.00"/>
<circle cx="116.08" cy="195.63" r="13.50" fill="#cccccc" stroke="#000000" stroke-width="1.00"/>
<circle cx="122.48" cy="169.39" r="13.50" fill="#cccccc" stroke="#000000" stroke-width="1.00"/>
<circle cx="123.34" cy="281.53" r="13.50" fill="#cccccc" stroke="#000000" stroke-width="1.00"/>
<circle cx="96.55" cy="214.28" r="13.50" fill="#cccccc" stroke="#000000" stroke-width="1.00"/>
<circle cx="90.51" cy="240.61" r="13.50" fill="#cccccc" stroke="#000000" stroke-width="1.00"/>
<circle cx="142.01" cy="150.73" r="13.50" fill="#cccccc" stroke="#000000" stroke-width="1.00"/>
<circle cx="200.00" cy="35.11" r="13.50" fill="#cccccc" stroke="#000000" stroke-width="1.00"/>
<circle cx="31.49" cy="326.97" r="13.50" fill="#cccccc" stroke="#000000" stroke-width="1.00"/>
<circle cx="51.45" cy="308.78" r="13.50" fill="#cccccc" stroke="#000000" stroke-width="1.00"/>
<circle cx="168.06" cy="105.98" r="13.50" fill="#cccccc" stroke="#000000" stroke-width="1.00"/>
<circle cx="71.41" cy="326.97" r="13.50" fill="#cccccc" stroke="#000000" stroke-width="1.00"/>
<circle cx="125.43" cy="326.97" r="13.50" fill="#cccccc" stroke="#000000" stroke-width="1.00"/>
<circle cx="57.23" cy="282.40" r="13.50" fill="#cccccc" stroke="#000000" stroke-width="1.00"/>
<circle cx="233.46" cy="93.07" r="13.50" fill="#cccccc" stroke="#000000" stroke-width="1.00"/>
<circle cx="98.42" cy="326.97" r="13.50" fill="#cccccc" stroke="#000000" stroke-width="1.00"/>
<circle cx="233.46" cy="326.97" r="13.50" fill="#cccccc" stroke="#000000" stroke-width="1.00"/>
<circle cx="206.46" cy="326.97" r="13.50" fill="#cccccc" stroke="#000000" stroke-width="1.00"/>
<circle cx="287.48" cy="186.63" r="13.50" fill="#cccccc" stroke="#000000" stroke-width="1.00"/>
<circle cx="138.93" cy="256.80" r="13.50" fill="#cccccc" stroke="#000000" stroke-width="1.00"/>
<circle cx="368.51" cy="326.97" r="13.50" fill="#cccccc" stroke="#000000" stroke-width="1.00"/>
<circle cx="300.99" cy="210.02" r="13.50" fill="#cccccc" stroke="#000000" stroke-width="1.00"/>
<circle cx="246.97" cy="116.46" r="13.50" fill="#cccccc" stroke="#000000" stroke-width="1.00"/>
<circle cx="152.44" cy="326.97" r="13.50" fill="#cccccc" stroke="#000000" stroke-width="1.00"/>
<circle cx="77.19" cy="300.59" r="13.50" fill="#cccccc" stroke="#000000" stroke-width="1.00"/>
<circle cx="260.47" cy="139.85" r="13.50" fill="#cccccc" stroke="#000000" stroke-width="1.00"/>
<circle cx="314.49" cy="326.97" r="13.50" fill="#cccccc" stroke="#000000" stroke-width="1.00"/>
<circle cx="341.50" cy="280.19" r="13.50" fill="#cccccc" stroke="#000000" stroke-width="1.00"/>
<circle cx="314.49" cy="233.41" r="13.50" fill="#cccccc" stroke="#000000" stroke-width="1.00"/>
<circle cx="138.93" cy="303.58" r="13.50" fill="#cccccc" stroke="#000000" stroke-width="1.00"/>
<circle cx="152.44" cy="280.19" r="13.50" fill="#cccccc" stroke="#000000" stroke-width="1.00"/>
<circle cx="273.98" cy="163.24" r="13.50" fill="#cccccc" stroke="#000000" stroke-width="1.00"/>
<circle cx="179.45" cy="326.97" r="13.50" fill="#cccccc" stroke="#000000" stroke-width="1.00"/>
<circle cx="355.00" cy="303.58" r="13.50" fill="#cccccc" stroke="#000000" stroke-width="1.00"/>
<circle cx="260.47" cy="326.97" r="13.50" fill="#cccccc" stroke="#000000" stroke-width="1.00"/>
<circle cx="341.50" cy="326.97" r="13.50" fill="#cccccc" stroke="#000000" stroke-width="1.00"/>
<circle cx="152.44" cy="233.41" r="13.50" fill="#cccccc" stroke="#000000" stroke-width="1.00"/>
<circle cx="206.46" cy="139.85" r="13.50" fill="#cccccc" stroke="#000000" stroke-width="1.00"/>
<circle cx="179.45" cy="186.63" r="13.50" fill="#cccccc" stroke="#000000" stroke-width="1.00"/>
<circle cx="192.95" cy="163.24" r="13.50" fill="#cccccc" stroke="#000000" stroke-width="1.00"/>
<circle cx="327.99" cy="256.80" r="13.50" fill="#cccccc" stroke="#000000" stroke-width="1.00"/>
<circle cx="192.95" cy="256.80" r="13.50" fill="#cccccc" stroke="#000000" stroke-width="1.00"/>
<circle cx="165.94" cy="303.58" r="13.50" fill="#cccccc" stroke="#000000" stroke-width="1.00"/>
<circle cx="246.97" cy="163.24" r="13.50" fill="#cccccc" stroke="#000000" stroke-width="1.00"/>
<circle cx="287.48" cy="326.97" r="13.50" fill="#cccccc" stroke="#000000" stroke-width="1.00"/>
<circle cx="219.96" cy="116.46" r="13.50" fill="#cccccc" stroke="#000000" stroke-width="1.00"/>
<circle cx="273.98" cy="303.58" r="13.50" fill="#cccccc" stroke="#000000" stroke-width="1.00"/>
<circle cx="287.48" cy="233.41" r="13.50" fill="#cccccc" stroke="#000000" stroke-width="1.00"/>
<circle cx="165.94" cy="210.02" r="13.50" fill="#cccccc" stroke="#000000" stroke-width="1.00"/>
<circle cx="233.46" cy="280.19" r="13.50" fill="#cccccc" stroke="#000000" stroke-width="1.00"/>
<circle cx="219.96" cy="210.02" r="13.50" fill="#cccccc" stroke="#000000" stroke-width="1.00"/>
<circle cx="206.46" cy="233.41" r="13.50" fill="#cccccc" stroke="#000000" stroke-width="1.00"/>
<circle cx="300.99" cy="256.80" r="13.50" fill="#cccccc" stroke="#000000" stroke-width="1.00"/>
<circle cx="233.46" cy="186.63" r="13.50" fill="#cccccc" stroke="#000000" stroke-width="1.00"/>
<circle cx="179.45" cy="280.19" r="13.50" fill="#cccccc" stroke="#000000" stroke-width="1.00"/>
<circle cx="273.98" cy="210.02" r="13.50" fill="#cccccc" stroke="#000000" stroke-width="1.00"/>
<circle cx="260.47" cy="280.19" r="13.50" fill="#cccccc" stroke="#000000" stroke-width="1.00"/>
<circle cx="273.98" cy="256.80" r="13.50" fill="#cccccc" stroke="#000000" stroke-width="1.00"/>
<circle cx="287.48" cy="280.19" r="13.50" fill="#cccccc" stroke="#000000" stroke-width="1.00"/>
<circle cx="219.96" cy="303.58" r="13.50" fill="#cccccc" stroke="#000000" stroke-width="1.00"/>
<circle cx="260.47" cy="233.41" r="13.50" fill="#cccccc" stroke="#000000" stroke-width="1.00"/>
<circle cx="246.97" cy="303.58" r="13.50" fill="#cccccc" stroke="#000000" stroke-width="1.00"/>
<circle cx="233.46" cy="139.85" r="13.50" fill="#cccccc" stroke="#000000" stroke-width="1.00"/>
<circle cx="206.46" cy="186.63" r="13.50" fill="#cccccc" stroke="#000000" stroke-width="1.00"/>
<circle cx="246.97" cy="256.80" r="13.50" fill="#cccccc" stroke="#000000" stroke-width="1.00"/>
<circle cx="327.99" cy="303.58" r="13.50" fill="#cccccc" stroke="#000000" stroke-width="1.00"/>
<circle cx="192.95" cy="210.02" r="13.50" fill="#cccccc" stroke="#000000" stroke-width="1.00"/>
<circle cx="179.45" cy="233.41" r="13.50" fill="#cccccc" stroke="#000000" stroke-width="1.00"/>
<circle cx="165.94" cy="256.80" r="13.50" fill="#cccccc" stroke="#000000" stroke-width="1.00"/>
<circle cx="219.96" cy="163.24" r="13.50" fill="#cccccc" stroke="#000000" stroke-width="1.00"/>
<circle cx="246.97" cy="210.02" r="13.50" fill="#cccccc" stroke="#000000" stroke-width="1.00"/>
<circle cx="192.95" cy="303.58" r="13.50" fill="#cccccc" stroke="#000000" stroke-width="1.00"/>
<circle cx="300.99" cy="303.58" r="13.50" fill="#cccccc" stroke="#000000" stroke-width="1.00"/>
<circle cx="233.46" cy="233.41" r="13.50" fill="#cccccc" stroke="#000000" stroke-width="1.00"/>
<circle cx="219.96" cy="256.80" r="13.50" fill="#cccccc" stroke="#000000" stroke-width="1.00"/>
<circle cx="206.46" cy="280.19" r="13.50" fill="#cccccc" stroke="#000000" stroke-width="1.00"/>
<circle cx="314.49" cy="280.19" r="13.50" fill="#cccccc" stroke="#000000" stroke-width="1.00"/>
<circle cx="260.47" cy="186.63" r="13.50" fill="#cccccc" stroke="#000000" stroke-width="1.00"/>
<circle cx="90.69" cy="277.20" r="13.50" fill="#cccccc" stroke="#000000" stroke-width="1.00"/>
<circle cx="145.73" cy="183.21" r="13.50" fill="#cccccc" stroke="#000000" stroke-width="1.00"/>
<circle cx="118.73" cy="229.99" r="13.50" fill="#cccccc" stroke="#000000" stroke-width="1.00"/>
<circle cx="173.06" cy="135.81" r="13.50" fill="#cccccc" stroke="#000000" stroke-width="1.00"/>
<circle cx="200.00" cy="87.90" r="13.50" fill="#cccccc" stroke="#000000" stroke-width="1.00"/>
<polygon points="200.00,8.10 8.10,340.48 391.90,340.48" fill="none" stroke="#000000" stroke-width="1.40"/>
</svg>