<svg xmlns="http://www.w3.org/2000/svg" width="400.0" height="348.6" viewBox="0 0 400.0 348.6">
<rect width="400.0" height="348.6" fill="white"/>
<circle cx="269.15" cy="219.10" r="13.45" fill="#cccccc" stroke="#000000" stroke-width="1.00"/>
<circle cx="243.75" cy="175.10" r="13.45" fill="#cccccc" stroke="#000000" stroke-width="1.00"/>
<circle cx="302.99" cy="259.97" r="13.45" fill="#cccccc" stroke="#000000" stroke-width="1.00"/>
<circle cx="264.13" cy="192.66" r="13.45" fill="#cccccc" stroke="#000000" stroke-width="1.00"/>
<circle cx="341.72" cy="327.05" r="13.45" fill="#cccccc" stroke="#000000" stroke-width="1.00"/>
<circle cx="225.27" cy="125.36" r="13.45" fill="#cccccc" stroke="#000000" stroke-width="1.00"/>
<circle cx="329.90" cy="259.97" r="13.45" fill="#cccccc" stroke="#000000" stroke-width="1.00"/>
<circle cx="291.04" cy="192.66" r="13.45" fill="#cccccc" stroke="#000000" stroke-width="1.00"/>
<circle cx="186.55" cy="58.28" r="13.45" fill="#cccccc" stroke="#000000" stroke-width="1.00"/>
<circle cx="355.17" cy="303.74" r="13.45" fill="#cccccc" stroke="#000000" stroke-width="1.00"/>
<circle cx="213.45" cy="58.28" r="13.45" fill="#cccccc" stroke="#000000" stroke-width="1.00"/>
<circle cx="252.18" cy="125.36" r="13.45" fill="#cccccc" stroke="#000000" stroke-width="1.00"/>
<circle cx="204.64" cy="108.09" r="13.45" fill="#cccccc" stroke="#000000" stroke-width="1.00"/>
<circle cx="238.73" cy="102.06" r="13.45" fill="#cccccc" stroke="#000000" stroke-width="1.00"/>
<circle cx="316.44" cy="236.66" r="13.45" fill="#cccccc" stroke="#000000" stroke-width="1.00"/>
<circle cx="307.63" cy="286.47" r="13.45" fill="#cccccc" stroke="#000000" stroke-width="1.00"/>
<circle cx="277.59" cy="169.36" r="13.45" fill="#cccccc" stroke="#000000" stroke-width="1.00"/>
<circle cx="287.00" cy="303.74" r="13.45" fill="#cccccc" stroke="#000000" stroke-width="1.00"/>
<circle cx="179.37" cy="117.32" r="13.45" fill="#cccccc" stroke="#000000" stroke-width="1.00"/>
<circle cx="230.29" cy="151.80" r="13.45" fill="#cccccc" stroke="#000000" stroke-width="1.00"/>
<circle cx="282.60" cy="242.40" r="13.45" fill="#cccccc" stroke="#000000" stroke-width="1.00"/>
<circle cx="368.62" cy="327.05" r="13.45" fill="#cccccc" stroke="#000000" stroke-width="1.00"/>
<circle cx="165.91" cy="94.02" r="13.45" fill="#cccccc" stroke="#000000" stroke-width="1.00"/>
<circle cx="219.73" cy="187.23" r="13.45" fill="#cccccc" stroke="#000000" stroke-width="1.00"/>
<circle cx="300.45" cy="327.05" r="13.45" fill="#cccccc" stroke="#000000" stroke-width="1.00"/>
<circle cx="260.09" cy="257.14" r="13.45" fill="#cccccc" stroke="#000000" stroke-width="1.00"/>
<circle cx="321.08" cy="309.77" r="13.45" fill="#cccccc" stroke="#000000" stroke-width="1.00"/>
<circle cx="191.19" cy="84.79" r="13.45" fill="#cccccc" stroke="#000000" stroke-width="1.00"/>
<circle cx="200.00" cy="34.98" r="13.45" fill="#cccccc" stroke="#000000" stroke-width="1.00"/>
<circle cx="31.38" cy="327.05" r="13.45" fill="#cccccc" stroke="#000000" stroke-width="1.00"/>
<circle cx="246.64" cy="233.84" r="13.45" fill="#cccccc" stroke="#000000" stroke-width="1.00"/>
<circle cx="206.28" cy="163.93" r="13.45" fill="#cccccc" stroke="#000000" stroke-width="1.00"/>
<circle cx="334.54" cy="286.47" r="13.45" fill="#cccccc" stroke="#000000" stroke-width="1.00"/>
<circle cx="218.10" cy="84.79" r="13.45" fill="#cccccc" stroke="#000000" stroke-width="1.00"/>
<circle cx="296.06" cy="219.10" r="13.45" fill="#cccccc" stroke="#000000" stroke-width="1.00"/>
<circle cx="246.64" cy="327.05" r="13.45" fill="#cccccc" stroke="#000000" stroke-width="1.00"/>
<circle cx="257.20" cy="151.80" r="13.45" fill="#cccccc" stroke="#000000" stroke-width="1.00"/>
<circle cx="139.01" cy="140.62" r="13.45" fill="#cccccc" stroke="#000000" stroke-width="1.00"/>
<circle cx="192.82" cy="327.05" r="13.45" fill="#cccccc" stroke="#000000" stroke-width="1.00"/>
<circle cx="112.10" cy="187.23" r="13.45" fill="#cccccc" stroke="#000000" stroke-width="1.00"/>
<circle cx="112.10" cy="327.05" r="13.45" fill="#cccccc" stroke="#000000" stroke-width="1.00"/>
<circle cx="165.91" cy="327.05" r="13.45" fill="#cccccc" stroke="#000000" stroke-width="1.00"/>
<circle cx="165.91" cy="140.62" r="13.45" fill="#cccccc" stroke="#000000" stroke-width="1.00"/>
<circle cx="71.74" cy="257.14" r="13.45" fill="#cccccc" stroke="#000000" stroke-width="1.00"/>
<circle cx="98.64" cy="210.53" r="13.45" fill="#cccccc" stroke="#000000" stroke-width="1.00"/>
<circle cx="58.28" cy="327.05" r="13.45" fill="#cccccc" stroke="#000000" stroke-width="1.00"/>
<circle cx="260.09" cy="303.74" r="13.45" fill="#cccccc" stroke="#000000" stroke-width="1.00"/>
<circle cx="219.73" cy="233.84" r="13.45" fill="#cccccc" stroke="#000000" stroke-width="1.00"/>
<circle cx="246.64" cy="280.44" r="13.45" fill="#cccccc" stroke="#000000" stroke-width="1.00"/>
<circle cx="179.37" cy="163.93" r="13.45" fill="#cccccc" stroke="#000000" stroke-width="1.00"/>
<circle cx="44.83" cy="303.74" r="13.45" fill="#cccccc" stroke="#000000" stroke-width="1.00"/>
<circle cx="206.28" cy="210.53" r="13.45" fill="#cccccc" stroke="#000000" stroke-width="1.00"/>
<circle cx="273.54" cy="327.05" r="13.45" fill="#cccccc" stroke="#000000" stroke-width="1.00"/>
<circle cx="85.19" cy="233.84" r="13.45" fill="#cccccc" stroke="#000000" stroke-width="1.00"/>
<circle cx="139.01" cy="327.05" r="13.45" fill="#cccccc" stroke="#000000" stroke-width="1.00"/>
<circle cx="152.46" cy="117.32" r="13.45" fill="#cccccc" stroke="#000000" stroke-width="1.00"/>
<circle cx="219.73" cy="327.05" r="13.45" fill="#cccccc" stroke="#000000" stroke-width="1.00"/>
<circle cx="58.28" cy="280.44" r="13.45" fill="#cccccc" stroke="#000000" stroke-width="1.00"/>
<circle cx="125.55" cy="163.93" r="13.45" fill="#cccccc" stroke="#000000" stroke-width="1.00"/>
<circle cx="85.19" cy="327.05" r="13.45" fill="#cccccc" stroke="#000000" stroke-width="1.00"/>
<circle cx="179.37" cy="210.53" r="13.45" fill="#cccccc" stroke="#000000" stroke-width="1.00"/>
<circle cx="152.46" cy="303.74" r="13.45" fill="#cccccc" stroke="#000000" stroke-width="1.00"/>
<circle cx="165.91" cy="187.23" r="13.45" fill="#cccccc" stroke="#000000" stroke-width="1.00"/>
<circle cx="139.01" cy="233.84" r="13.45" fill="#cccccc" stroke="#000000" stroke-width="1.00"/>
<circle cx="233.18" cy="303.74" r="13.45" fill="#cccccc" stroke="#000000" stroke-width="1.00"/>
<circle cx="152.46" cy="257.14" r="13.45" fill="#cccccc" stroke="#000000" stroke-width="1.00"/>
<circle cx="125.55" cy="210.53" r="13.45" fill="#cccccc" stroke="#000000" stroke-width="1.00"/>
<circle cx="139.01" cy="280.44" r="13.45" fill="#cccccc" stroke="#000000" stroke-width="1.00"/>
<circle cx="98.64" cy="303.74" r="13.45" fill="#cccccc" stroke="#000000" stroke-width="1.00"/>
<circle cx="192.82" cy="233.84" r="13.45" fill="#cccccc" stroke="#000000" stroke-width="1.00"/>
<circle cx="219.73" cy="280.44" r="13.45" fill="#cccccc" stroke="#000000" stroke-width="1.00"/>
<circle cx="206.28" cy="257.14" r="13.45" fill="#cccccc" stroke="#000000" stroke-width="1.00"/>
<circle cx="112.10" cy="233.84" r="13.45" fill="#cccccc" stroke="#000000" stroke-width="1.00"/>
<circle cx="152.46" cy="163.93" r="13.45" fill="#cccccc" stroke="#000000" stroke-width="1.00"/>
<circle cx="165.91" cy="280.44" r="13.45" fill="#cccccc" stroke="#000000" stroke-width="1.00"/>
<circle cx="125.55" cy="257.14" r="13.45" fill="#cccccc" stroke="#000000" stroke-width="1.00"/>
<circle cx="85.19" cy="280.44" r="13.45" fill="#cccccc" stroke="#000000" stroke-width="1.00"/>
<circle cx="179.37" cy="303.74" r="13.45" fill="#cccccc" stroke="#000000" stroke-width="1.00"/>
<circle cx="233.18" cy="257.14" r="13.45" fill="#cccccc" stroke="#000000" stroke-width="1.00"/>
<circle cx="98.64" cy="257.14" r="13.45" fill="#cccccc" stroke="#000000" stroke-width="1.00"/>
<circle cx="192.82" cy="187.23" r="13.45" fill="#cccccc" stroke="#000000" stroke-width="1.00"/>
<circle cx="112.10" cy="280.44" r="13.45" fill="#cccccc" stroke="#000000" stroke-width="1.00"/>
<circle cx="139.01" cy="187.23" r="13.45" fill="#cccccc" stroke="#000000" stroke-width="1.00"/>
<circle cx="192.82" cy="280.44" r="13.45" fill="#cccccc" stroke="#000000" stroke-width="1.00"/>
<circle cx="71.74" cy="303.74" r="13.45" fill="#cccccc" stroke="#000000" stroke-width="1.00"/>
<circle cx="125.55" cy="303.74" r="13.45" fill="#cccccc" stroke="#000000" stroke-width="1.00"/>
<circle cx="152.46" cy="210.53" r="13.45" fill="#cccccc" stroke="#000000" stroke-width="1.00"/>
<circle cx="206.28" cy="303.74" r="13.45" fill="#cccccc" stroke="#000000" stroke-width="1.00"/>
<circle cx="179.37" cy="257.14" r="13.45" fill="#cccccc" stroke="#000000" stroke-width="1.00"/>
<circle cx="165.91" cy="233.84" r="13.45" fill="#cccccc" stroke="#000000" stroke-width="1.00"/>
<circle cx="200.08" cy="134.90" r="13.45" fill="#cccccc" stroke="#000000" stroke-width="1.00"/>
<circle cx="282.23" cy="277.16" r="13.45" fill="#cccccc" stroke="#000000" stroke-width="1.00"/>
<circle cx="241.12" cy="206.62" r="13.45" fill="#cccccc" stroke="#000000" stroke-width="1.00"/>
<polygon points="200.00,8.07 8.07,340.50 391.93,340.50" fill="none" stroke="#000000" stroke-width="1.40"/>
</svg>