<svg xmlns="http://www.w3.org/2000/svg" width="400.0" height="348.6" viewBox="0 0 400.0 348.6">
<rect width="400.0" height="348.6" fill="white"/>
<circle cx="306.92" cy="242.30" r="13.36" fill="#cccccc" stroke="#000000" stroke-width="1.00"/>
<circle cx="202.45" cy="200.25" r="13.36" fill="#cccccc" stroke="#000000" stroke-width="1.00"/>
<circle cx="240.09" cy="104.19" r="13.36" fill="#cccccc" stroke="#000000" stroke-width="1.00"/>
<circle cx="328.74" cy="257.73" r="13.36" fill="#cccccc" stroke="#000000" stroke-width="1.00"/>
<circle cx="266.82" cy="311.74" r="13.36" fill="#cccccc" stroke="#000000" stroke-width="1.00"/>
<circle cx="200.00" cy="34.75" r="13.36" fill="#cccccc" stroke="#000000" stroke-width="1.00"/>
<circle cx="242.55" cy="130.81" r="13.36" fill="#cccccc" stroke="#000000" stroke-width="1.00"/>
<circle cx="226.73" cy="242.30" r="13.36" fill="#cccccc" stroke="#000000" stroke-width="1.00"/>
<circle cx="368.83" cy="327.18" r="13.36" fill="#cccccc" stroke="#000000" stroke-width="1.00"/>
<circle cx="31.17" cy="327.18" r="13.36" fill="#cccccc" stroke="#000000" stroke-width="1.00"/>
<circle cx="162.36" cy="130.81" r="13.36" fill="#cccccc" stroke="#000000" stroke-width="1.00"/>
<circle cx="251.01" cy="215.68" r="13.36" fill="#cccccc" stroke="#000000" stroke-width="1.00"/>
<circle cx="302.01" cy="304.03" r="13.36" fill="#cccccc" stroke="#000000" stroke-width="1.00"/>
<circle cx="264.37" cy="146.24" r="13.36" fill="#cccccc" stroke="#000000" stroke-width="1.00"/>
<circle cx="288.65" cy="327.18" r="13.36" fill="#cccccc" stroke="#000000" stroke-width="1.00"/>
<circle cx="224.28" cy="215.68" r="13.36" fill="#cccccc" stroke="#000000" stroke-width="1.00"/>
<circle cx="237.64" cy="192.54" r="13.36" fill="#cccccc" stroke="#000000" stroke-width="1.00"/>
<circle cx="138.08" cy="141.99" r="13.36" fill="#cccccc" stroke="#000000" stroke-width="1.00"/>
<circle cx="164.81" cy="327.18" r="13.36" fill="#cccccc" stroke="#000000" stroke-width="1.00"/>
<circle cx="186.64" cy="104.19" r="13.36" fill="#cccccc" stroke="#000000" stroke-width="1.00"/>
<circle cx="159.91" cy="104.19" r="13.36" fill="#cccccc" stroke="#000000" stroke-width="1.00"/>
<circle cx="97.99" cy="211.44" r="13.36" fill="#cccccc" stroke="#000000" stroke-width="1.00"/>
<circle cx="245.00" cy="327.18" r="13.36" fill="#cccccc" stroke="#000000" stroke-width="1.00"/>
<circle cx="304.46" cy="215.68" r="13.36" fill="#cccccc" stroke="#000000" stroke-width="1.00"/>
<circle cx="204.90" cy="257.73" r="13.36" fill="#cccccc" stroke="#000000" stroke-width="1.00"/>
<circle cx="178.18" cy="211.44" r="13.36" fill="#cccccc" stroke="#000000" stroke-width="1.00"/>
<circle cx="218.27" cy="280.88" r="13.36" fill="#cccccc" stroke="#000000" stroke-width="1.00"/>
<circle cx="291.10" cy="192.54" r="13.36" fill="#cccccc" stroke="#000000" stroke-width="1.00"/>
<circle cx="253.46" cy="288.60" r="13.36" fill="#cccccc" stroke="#000000" stroke-width="1.00"/>
<circle cx="213.36" cy="104.19" r="13.36" fill="#cccccc" stroke="#000000" stroke-width="1.00"/>
<circle cx="277.73" cy="169.39" r="13.36" fill="#cccccc" stroke="#000000" stroke-width="1.00"/>
<circle cx="175.72" cy="153.96" r="13.36" fill="#cccccc" stroke="#000000" stroke-width="1.00"/>
<circle cx="342.10" cy="280.88" r="13.36" fill="#cccccc" stroke="#000000" stroke-width="1.00"/>
<circle cx="178.18" cy="257.73" r="13.36" fill="#cccccc" stroke="#000000" stroke-width="1.00"/>
<circle cx="57.90" cy="280.88" r="13.36" fill="#cccccc" stroke="#000000" stroke-width="1.00"/>
<circle cx="226.73" cy="81.04" r="13.36" fill="#cccccc" stroke="#000000" stroke-width="1.00"/>
<circle cx="173.27" cy="81.04" r="13.36" fill="#cccccc" stroke="#000000" stroke-width="1.00"/>
<circle cx="84.62" cy="327.18" r="13.36" fill="#cccccc" stroke="#000000" stroke-width="1.00"/>
<circle cx="231.63" cy="304.03" r="13.36" fill="#cccccc" stroke="#000000" stroke-width="1.00"/>
<circle cx="151.45" cy="165.14" r="13.36" fill="#cccccc" stroke="#000000" stroke-width="1.00"/>
<circle cx="164.81" cy="188.29" r="13.36" fill="#cccccc" stroke="#000000" stroke-width="1.00"/>
<circle cx="164.81" cy="234.58" r="13.36" fill="#cccccc" stroke="#000000" stroke-width="1.00"/>
<circle cx="57.90" cy="327.18" r="13.36" fill="#cccccc" stroke="#000000" stroke-width="1.00"/>
<circle cx="277.73" cy="215.68" r="13.36" fill="#cccccc" stroke="#000000" stroke-width="1.00"/>
<circle cx="138.08" cy="327.18" r="13.36" fill="#cccccc" stroke="#000000" stroke-width="1.00"/>
<circle cx="315.38" cy="280.88" r="13.36" fill="#cccccc" stroke="#000000" stroke-width="1.00"/>
<circle cx="189.09" cy="130.81" r="13.36" fill="#cccccc" stroke="#000000" stroke-width="1.00"/>
<circle cx="315.38" cy="327.18" r="13.36" fill="#cccccc" stroke="#000000" stroke-width="1.00"/>
<circle cx="251.01" cy="169.39" r="13.36" fill="#cccccc" stroke="#000000" stroke-width="1.00"/>
<circle cx="215.82" cy="130.81" r="13.36" fill="#cccccc" stroke="#000000" stroke-width="1.00"/>
<circle cx="44.53" cy="304.03" r="13.36" fill="#cccccc" stroke="#000000" stroke-width="1.00"/>
<circle cx="138.08" cy="280.88" r="13.36" fill="#cccccc" stroke="#000000" stroke-width="1.00"/>
<circle cx="293.55" cy="265.45" r="13.36" fill="#cccccc" stroke="#000000" stroke-width="1.00"/>
<circle cx="111.35" cy="188.29" r="13.36" fill="#cccccc" stroke="#000000" stroke-width="1.00"/>
<circle cx="342.10" cy="327.18" r="13.36" fill="#cccccc" stroke="#000000" stroke-width="1.00"/>
<circle cx="253.46" cy="242.30" r="13.36" fill="#cccccc" stroke="#000000" stroke-width="1.00"/>
<circle cx="186.64" cy="57.90" r="13.36" fill="#cccccc" stroke="#000000" stroke-width="1.00"/>
<circle cx="84.62" cy="234.58" r="13.36" fill="#cccccc" stroke="#000000" stroke-width="1.00"/>
<circle cx="71.26" cy="257.73" r="13.36" fill="#cccccc" stroke="#000000" stroke-width="1.00"/>
<circle cx="215.82" cy="177.10" r="13.36" fill="#cccccc" stroke="#000000" stroke-width="1.00"/>
<circle cx="111.35" cy="327.18" r="13.36" fill="#cccccc" stroke="#000000" stroke-width="1.00"/>
<circle cx="280.19" cy="288.60" r="13.36" fill="#cccccc" stroke="#000000" stroke-width="1.00"/>
<circle cx="218.27" cy="327.18" r="13.36" fill="#cccccc" stroke="#000000" stroke-width="1.00"/>
<circle cx="124.72" cy="257.73" r="13.36" fill="#cccccc" stroke="#000000" stroke-width="1.00"/>
<circle cx="124.72" cy="165.14" r="13.36" fill="#cccccc" stroke="#000000" stroke-width="1.00"/>
<circle cx="213.36" cy="57.90" r="13.36" fill="#cccccc" stroke="#000000" stroke-width="1.00"/>
<circle cx="191.54" cy="327.18" r="13.36" fill="#cccccc" stroke="#000000" stroke-width="1.00"/>
<circle cx="189.09" cy="177.10" r="13.36" fill="#cccccc" stroke="#000000" stroke-width="1.00"/>
<circle cx="355.47" cy="304.03" r="13.36" fill="#cccccc" stroke="#000000" stroke-width="1.00"/>
<circle cx="71.26" cy="304.03" r="13.36" fill="#cccccc" stroke="#000000" stroke-width="1.00"/>
<circle cx="240.09" cy="265.45" r="13.36" fill="#cccccc" stroke="#000000" stroke-width="1.00"/>
<circle cx="111.35" cy="234.58" r="13.36" fill="#cccccc" stroke="#000000" stroke-width="1.00"/>
<circle cx="138.08" cy="188.29" r="13.36" fill="#cccccc" stroke="#000000" stroke-width="1.00"/>
<circle cx="151.45" cy="304.03" r="13.36" fill="#cccccc" stroke="#000000" stroke-width="1.00"/>
<circle cx="204.90" cy="304.03" r="13.36" fill="#cccccc" stroke="#000000" stroke-width="1.00"/>
<circle cx="178.18" cy="304.03" r="13.36" fill="#cccccc" stroke="#000000" stroke-width="1.00"/>
<circle cx="97.99" cy="304.03" r="13.36" fill="#cccccc" stroke="#000000" stroke-width="1.00"/>
<circle cx="264.37" cy="192.54" r="13.36" fill="#cccccc" stroke="#000000" stroke-width="1.00"/>
<circle cx="111.35" cy="280.88" r="13.36" fill="#cccccc" stroke="#000000" stroke-width="1.00"/>
<circle cx="84.62" cy="280.88" r="13.36" fill="#cccccc" stroke="#000000" stroke-width="1.00"/>
<circle cx="280.19" cy="242.30" r="13.36" fill="#cccccc" stroke="#000000" stroke-width="1.00"/>
<circle cx="151.45" cy="257.73" r="13.36" fill="#cccccc" stroke="#000000" stroke-width="1.00"/>
<circle cx="124.72" cy="211.44" r="13.36" fill="#cccccc" stroke="#000000" stroke-width="1.00"/>
<circle cx="229.18" cy="153.96" r="13.36" fill="#cccccc" stroke="#000000" stroke-width="1.00"/>
<circle cx="266.82" cy="265.45" r="13.36" fill="#cccccc" stroke="#000000" stroke-width="1.00"/>
<circle cx="200.00" cy="81.04" r="13.36" fill="#cccccc" stroke="#000000" stroke-width="1.00"/>
<circle cx="328.74" cy="304.03" r="13.36" fill="#cccccc" stroke="#000000" stroke-width="1.00"/>
<circle cx="202.45" cy="153.96" r="13.36" fill="#cccccc" stroke="#000000" stroke-width="1.00"/>
<circle cx="151.45" cy="211.44" r="13.36" fill="#cccccc" stroke="#000000" stroke-width="1.00"/>
<circle cx="191.54" cy="280.88" r="13.36" fill="#cccccc" stroke="#000000" stroke-width="1.00"/>
<circle cx="97.99" cy="257.73" r="13.36" fill="#cccccc" stroke="#000000" stroke-width="1.00"/>
<circle cx="138.08" cy="234.58" r="13.36" fill="#cccccc" stroke="#000000" stroke-width="1.00"/>
<circle cx="124.72" cy="304.03" r="13.36" fill="#cccccc" stroke="#000000" stroke-width="1.00"/>
<circle cx="164.81" cy="280.88" r="13.36" fill="#cccccc" stroke="#000000" stroke-width="1.00"/>
<circle cx="201.87" cy="230.26" r="13.36" fill="#cccccc" stroke="#000000" stroke-width="1.00"/>
<polygon points="200.00,8.02 8.02,340.54 391.98,340.54" fill="none" stroke="#000000" stroke-width="1.40"/>
</svg>