<svg xmlns="http://www.w3.org/2000/svg" width="400.0" height="348.5" viewBox="0 0 400.0 348.5">
<rect width="400.0" height="348.5" fill="white"/>
<circle cx="369.04" cy="327.30" r="13.28" fill="#cccccc" stroke="#000000" stroke-width="1.00"/>
<circle cx="355.76" cy="304.31" r="13.28" fill="#cccccc" stroke="#000000" stroke-width="1.00"/>
<circle cx="342.49" cy="327.30" r="13.28" fill="#cccccc" stroke="#000000" stroke-width="1.00"/>
<circle cx="342.49" cy="281.31" r="13.28" fill="#cccccc" stroke="#000000" stroke-width="1.00"/>
<circle cx="329.21" cy="304.31" r="13.28" fill="#cccccc" stroke="#000000" stroke-width="1.00"/>
<circle cx="315.93" cy="327.30" r="13.28" fill="#cccccc" stroke="#000000" stroke-width="1.00"/>
<circle cx="329.21" cy="258.31" r="13.28" fill="#cccccc" stroke="#000000" stroke-width="1.00"/>
<circle cx="315.93" cy="281.31" r="13.28" fill="#cccccc" stroke="#000000" stroke-width="1.00"/>
<circle cx="302.66" cy="304.31" r="13.28" fill="#cccccc" stroke="#000000" stroke-width="1.00"/>
<circle cx="289.38" cy="327.30" r="13.28" fill="#cccccc" stroke="#000000" stroke-width="1.00"/>
<circle cx="315.93" cy="235.32" r="13.28" fill="#cccccc" stroke="#000000" stroke-width="1.00"/>
<circle cx="302.66" cy="258.31" r="13.28" fill="#cccccc" stroke="#000000" stroke-width="1.00"/>
<circle cx="289.38" cy="281.31" r="13.28" fill="#cccccc" stroke="#000000" stroke-width="1.00"/>
<circle cx="276.10" cy="304.31" r="13.28" fill="#cccccc" stroke="#000000" stroke-width="1.00"/>
<circle cx="262.83" cy="327.30" r="13.28" fill="#cccccc" stroke="#000000" stroke-width="1.00"/>
<circle cx="302.66" cy="212.32" r="13.28" fill="#cccccc" stroke="#000000" stroke-width="1.00"/>
<circle cx="289.38" cy="235.32" r="13.28" fill="#cccccc" stroke="#000000" stroke-width="1.00"/>
<circle cx="276.10" cy="258.31" r="13.28" fill="#cccccc" stroke="#000000" stroke-width="1.00"/>
<circle cx="262.83" cy="281.31" r="13.28" fill="#cccccc" stroke="#000000" stroke-width="1.00"/>
<circle cx="249.55" cy="304.31" r="13.28" fill="#cccccc" stroke="#000000" stroke-width="1.00"/>
<circle cx="236.27" cy="327.30" r="13.28" fill="#cccccc" stroke="#000000" stroke-width="1.00"/>
<circle cx="200.00" cy="34.52" r="13.28" fill="#cccccc" stroke="#000000" stroke-width="1.00"/>
<circle cx="213.28" cy="57.51" r="13.28" fill="#cccccc" stroke="#000000" stroke-width="1.00"/>
<circle cx="186.72" cy="57.51" r="13.28" fill="#cccccc" stroke="#000000" stroke-width="1.00"/>
<circle cx="226.55" cy="80.51" r="13.28" fill="#cccccc" stroke="#000000" stroke-width="1.00"/>
<circle cx="200.00" cy="80.51" r="13.28" fill="#cccccc" stroke="#000000" stroke-width="1.00"/>
<circle cx="173.45" cy="80.51" r="13.28" fill="#cccccc" stroke="#000000" stroke-width="1.00"/>
<circle cx="239.83" cy="103.51" r="13.28" fill="#cccccc" stroke="#000000" stroke-width="1.00"/>
<circle cx="213.28" cy="103.51" r="13.28" fill="#cccccc" stroke="#000000" stroke-width="1.00"/>
<circle cx="186.72" cy="103.51" r="13.28" fill="#cccccc" stroke="#000000" stroke-width="1.00"/>
<circle cx="160.17" cy="103.51" r="13.28" fill="#cccccc" stroke="#000000" stroke-width="1.00"/>
<circle cx="253.11" cy="126.50" r="13.28" fill="#cccccc" stroke="#000000" stroke-width="1.00"/>
<circle cx="226.55" cy="126.50" r="13.28" fill="#cccccc" stroke="#000000" stroke-width="1.00"/>
<circle cx="200.00" cy="126.50" r="13.28" fill="#cccccc" stroke="#000000" stroke-width="1.00"/>
<circle cx="173.45" cy="126.50" r="13.28" fill="#cccccc" stroke="#000000" stroke-width="1.00"/>
<circle cx="146.89" cy="126.50" r="13.28" fill="#cccccc" stroke="#000000" stroke-width="1.00"/>
<circle cx="266.38" cy="149.50" r="13.28" fill="#cccccc" stroke="#000000" stroke-width="1.00"/>
<circle cx="239.83" cy="149.50" r="13.28" fill="#cccccc" stroke="#000000" stroke-width="1.00"/>
<circle cx="213.28" cy="149.50" r="13.28" fill="#cccccc" stroke="#000000" stroke-width="1.00"/>
<circle cx="186.72" cy="149.50" r="13.28" fill="#cccccc" stroke="#000000" stroke-width="1.00"/>
<circle cx="160.17" cy="149.50" r="13.28" fill="#cccccc" stroke="#000000" stroke-width="1.00"/>
<circle cx="133.62" cy="149.50" r="13.28" fill="#cccccc" stroke="#000000" stroke-width="1.00"/>
<circle cx="280.39" cy="175.19" r="13.28" fill="#cccccc" stroke="#000000" stroke-width="1.00"/>
<circle cx="253.11" cy="172.49" r="13.28" fill="#cccccc" stroke="#000000" stroke-width="1.00"/>
<circle cx="226.55" cy="172.49" r="13.28" fill="#cccccc" stroke="#000000" stroke-width="1.00"/>
<circle cx="200.00" cy="172.49" r="13.28" fill="#cccccc" stroke="#000000" stroke-width="1.00"/>
<circle cx="173.45" cy="172.49" r="13.28" fill="#cccccc" stroke="#000000" stroke-width="1.00"/>
<circle cx="146.89" cy="172.49" r="13.28" fill="#cccccc" stroke="#000000" stroke-width="1.00"/>
<circle cx="120.34" cy="172.49" r="13.28" fill="#cccccc" stroke="#000000" stroke-width="1.00"/>
<circle cx="30.96" cy="327.30" r="13.28" fill="#cccccc" stroke="#000000" stroke-width="1.00"/>
<circle cx="57.51" cy="327.30" r="13.28" fill="#cccccc" stroke="#000000" stroke-width="1.00"/>
<circle cx="44.24" cy="304.31" r="13.28" fill="#cccccc" stroke="#000000" stroke-width="1.00"/>
<circle cx="84.07" cy="327.30" r="13.28" fill="#cccccc" stroke="#000000" stroke-width="1.00"/>
<circle cx="70.79" cy="304.31" r="13.28" fill="#cccccc" stroke="#000000" stroke-width="1.00"/>
<circle cx="57.51" cy="281.31" r="13.28" fill="#cccccc" stroke="#000000" stroke-width="1.00"/>
<circle cx="110.62" cy="327.30" r="13.28" fill="#cccccc" stroke="#000000" stroke-width="1.00"/>
<circle cx="97.34" cy="304.31" r="13.28" fill="#cccccc" stroke="#000000" stroke-width="1.00"/>
<circle cx="84.07" cy="281.31" r="13.28" fill="#cccccc" stroke="#000000" stroke-width="1.00"/>
<circle cx="70.79" cy="258.31" r="13.28" fill="#cccccc" stroke="#000000" stroke-width="1.00"/>
<circle cx="137.17" cy="327.30" r="13.28" fill="#cccccc" stroke="#000000" stroke-width="1.00"/>
<circle cx="123.90" cy="304.31" r="13.28" fill="#cccccc" stroke="#000000" stroke-width="1.00"/>
<circle cx="110.62" cy="281.31" r="13.28" fill="#cccccc" stroke="#000000" stroke-width="1.00"/>
<circle cx="97.34" cy="258.31" r="13.28" fill="#cccccc" stroke="#000000" stroke-width="1.00"/>
<circle cx="84.07" cy="235.32" r="13.28" fill="#cccccc" stroke="#000000" stroke-width="1.00"/>
<circle cx="163.73" cy="327.30" r="13.28" fill="#cccccc" stroke="#000000" stroke-width="1.00"/>
<circle cx="150.45" cy="304.31" r="13.28" fill="#cccccc" stroke="#000000" stroke-width="1.00"/>
<circle cx="137.17" cy="281.31" r="13.28" fill="#cccccc" stroke="#000000" stroke-width="1.00"/>
<circle cx="123.90" cy="258.31" r="13.28" fill="#cccccc" stroke="#000000" stroke-width="1.00"/>
<circle cx="110.62" cy="235.32" r="13.28" fill="#cccccc" stroke="#000000" stroke-width="1.00"/>
<circle cx="97.34" cy="212.32" r="13.28" fill="#cccccc" stroke="#000000" stroke-width="1.00"/>
<circle cx="120.34" cy="199.05" r="13.28" fill="#cccccc" stroke="#000000" stroke-width="1.00"/>
<circle cx="146.89" cy="199.05" r="13.28" fill="#cccccc" stroke="#000000" stroke-width="1.00"/>
<circle cx="133.62" cy="222.04" r="13.28" fill="#cccccc" stroke="#000000" stroke-width="1.00"/>
<circle cx="173.45" cy="199.05" r="13.28" fill="#cccccc" stroke="#000000" stroke-width="1.00"/>
<circle cx="160.17" cy="222.04" r="13.28" fill="#cccccc" stroke="#000000" stroke-width="1.00"/>
<circle cx="146.89" cy="245.04" r="13.28" fill="#cccccc" stroke="#000000" stroke-width="1.00"/>
<circle cx="200.00" cy="199.05" r="13.28" fill="#cccccc" stroke="#000000" stroke-width="1.00"/>
<circle cx="186.72" cy="222.04" r="13.28" fill="#cccccc" stroke="#000000" stroke-width="1.00"/>
<circle cx="173.45" cy="245.04" r="13.28" fill="#cccccc" stroke="#000000" stroke-width="1.00"/>
<circle cx="160.17" cy="268.03" r="13.28" fill="#cccccc" stroke="#000000" stroke-width="1.00"/>
<circle cx="226.55" cy="199.05" r="13.28" fill="#cccccc" stroke="#000000" stroke-width="1.00"/>
<circle cx="213.28" cy="222.04" r="13.28" fill="#cccccc" stroke="#000000" stroke-width="1.00"/>
<circle cx="200.00" cy="245.04" r="13.28" fill="#cccccc" stroke="#000000" stroke-width="1.00"/>
<circle cx="186.72" cy="268.03" r="13.28" fill="#cccccc" stroke="#000000" stroke-width="1.00"/>
<circle cx="173.45" cy="291.03" r="13.28" fill="#cccccc" stroke="#000000" stroke-width="1.00"/>
<circle cx="253.11" cy="199.05" r="13.28" fill="#cccccc" stroke="#000000" stroke-width="1.00"/>
<circle cx="239.83" cy="222.04" r="13.28" fill="#cccccc" stroke="#000000" stroke-width="1.00"/>
<circle cx="226.55" cy="245.04" r="13.28" fill="#cccccc" stroke="#000000" stroke-width="1.00"/>
<circle cx="213.28" cy="268.03" r="13.28" fill="#cccccc" stroke="#000000" stroke-width="1.00"/>
<circle cx="200.00" cy="291.03" r="13.28" fill="#cccccc" stroke="#000000" stroke-width="1.00"/>
<circle cx="186.72" cy="314.03" r="13.28" fill="#cccccc" stroke="#000000" stroke-width="1.00"/>
<circle cx="276.10" cy="212.32" r="13.28" fill="#cccccc" stroke="#000000" stroke-width="1.00"/>
<circle cx="262.83" cy="235.32" r="13.28" fill="#cccccc" stroke="#000000" stroke-width="1.00"/>
<circle cx="249.55" cy="258.31" r="13.28" fill="#cccccc" stroke="#000000" stroke-width="1.00"/>
<circle cx="236.27" cy="281.31" r="13.28" fill="#cccccc" stroke="#000000" stroke-width="1.00"/>
<circle cx="223.00" cy="304.31" r="13.28" fill="#cccccc" stroke="#000000" stroke-width="1.00"/>
<circle cx="209.72" cy="327.30" r="13.28" fill="#cccccc" stroke="#000000" stroke-width="1.00"/>
<polygon points="200.00,7.97 7.97,340.58 392.03,340.58" fill="none" stroke="#000000" stroke-width="1.40"/>
</svg>