<svg xmlns="http://www.w3.org/2000/svg" width="400.0" height="348.5" viewBox="0 0 400.0 348.5">
<rect width="400.0" height="348.5" fill="white"/>
<circle cx="77.61" cy="327.54" r="13.11" fill="#cccccc" stroke="#000000" stroke-width="1.00"/>
<circle cx="200.00" cy="34.09" r="13.11" fill="#cccccc" stroke="#000000" stroke-width="1.00"/>
<circle cx="77.97" cy="283.97" r="13.11" fill="#cccccc" stroke="#000000" stroke-width="1.00"/>
<circle cx="251.41" cy="168.56" r="13.11" fill="#cccccc" stroke="#000000" stroke-width="1.00"/>
<circle cx="213.11" cy="56.80" r="13.11" fill="#cccccc" stroke="#000000" stroke-width="1.00"/>
<circle cx="180.03" cy="150.41" r="13.11" fill="#cccccc" stroke="#000000" stroke-width="1.00"/>
<circle cx="70.19" cy="258.92" r="13.11" fill="#cccccc" stroke="#000000" stroke-width="1.00"/>
<circle cx="356.31" cy="304.83" r="13.11" fill="#cccccc" stroke="#000000" stroke-width="1.00"/>
<circle cx="122.46" cy="303.70" r="13.11" fill="#cccccc" stroke="#000000" stroke-width="1.00"/>
<circle cx="212.07" cy="282.11" r="13.11" fill="#cccccc" stroke="#000000" stroke-width="1.00"/>
<circle cx="369.42" cy="327.54" r="13.11" fill="#cccccc" stroke="#000000" stroke-width="1.00"/>
<circle cx="121.54" cy="251.39" r="13.11" fill="#cccccc" stroke="#000000" stroke-width="1.00"/>
<circle cx="225.18" cy="213.98" r="13.11" fill="#cccccc" stroke="#000000" stroke-width="1.00"/>
<circle cx="316.97" cy="327.54" r="13.11" fill="#cccccc" stroke="#000000" stroke-width="1.00"/>
<circle cx="245.59" cy="127.70" r="13.11" fill="#cccccc" stroke="#000000" stroke-width="1.00"/>
<circle cx="239.34" cy="102.23" r="13.11" fill="#cccccc" stroke="#000000" stroke-width="1.00"/>
<circle cx="277.63" cy="168.56" r="13.11" fill="#cccccc" stroke="#000000" stroke-width="1.00"/>
<circle cx="343.20" cy="327.54" r="13.11" fill="#cccccc" stroke="#000000" stroke-width="1.00"/>
<circle cx="198.96" cy="304.83" r="13.11" fill="#cccccc" stroke="#000000" stroke-width="1.00"/>
<circle cx="212.07" cy="236.69" r="13.11" fill="#cccccc" stroke="#000000" stroke-width="1.00"/>
<circle cx="131.01" cy="275.88" r="13.11" fill="#cccccc" stroke="#000000" stroke-width="1.00"/>
<circle cx="92.39" cy="305.87" r="13.11" fill="#cccccc" stroke="#000000" stroke-width="1.00"/>
<circle cx="264.52" cy="145.85" r="13.11" fill="#cccccc" stroke="#000000" stroke-width="1.00"/>
<circle cx="198.96" cy="259.40" r="13.11" fill="#cccccc" stroke="#000000" stroke-width="1.00"/>
<circle cx="147.76" cy="251.39" r="13.11" fill="#cccccc" stroke="#000000" stroke-width="1.00"/>
<circle cx="212.07" cy="327.54" r="13.11" fill="#cccccc" stroke="#000000" stroke-width="1.00"/>
<circle cx="277.63" cy="304.83" r="13.11" fill="#cccccc" stroke="#000000" stroke-width="1.00"/>
<circle cx="232.48" cy="150.41" r="13.11" fill="#cccccc" stroke="#000000" stroke-width="1.00"/>
<circle cx="238.30" cy="282.11" r="13.11" fill="#cccccc" stroke="#000000" stroke-width="1.00"/>
<circle cx="166.91" cy="127.70" r="13.11" fill="#cccccc" stroke="#000000" stroke-width="1.00"/>
<circle cx="219.36" cy="127.70" r="13.11" fill="#cccccc" stroke="#000000" stroke-width="1.00"/>
<circle cx="128.62" cy="157.73" r="13.11" fill="#cccccc" stroke="#000000" stroke-width="1.00"/>
<circle cx="185.84" cy="282.11" r="13.11" fill="#cccccc" stroke="#000000" stroke-width="1.00"/>
<circle cx="264.52" cy="327.54" r="13.11" fill="#cccccc" stroke="#000000" stroke-width="1.00"/>
<circle cx="343.20" cy="282.11" r="13.11" fill="#cccccc" stroke="#000000" stroke-width="1.00"/>
<circle cx="173.77" cy="79.52" r="13.11" fill="#cccccc" stroke="#000000" stroke-width="1.00"/>
<circle cx="186.89" cy="102.23" r="13.11" fill="#cccccc" stroke="#000000" stroke-width="1.00"/>
<circle cx="147.76" cy="296.81" r="13.11" fill="#cccccc" stroke="#000000" stroke-width="1.00"/>
<circle cx="264.52" cy="236.69" r="13.11" fill="#cccccc" stroke="#000000" stroke-width="1.00"/>
<circle cx="303.86" cy="304.83" r="13.11" fill="#cccccc" stroke="#000000" stroke-width="1.00"/>
<circle cx="251.41" cy="213.98" r="13.11" fill="#cccccc" stroke="#000000" stroke-width="1.00"/>
<circle cx="303.86" cy="213.98" r="13.11" fill="#cccccc" stroke="#000000" stroke-width="1.00"/>
<circle cx="206.25" cy="150.41" r="13.11" fill="#cccccc" stroke="#000000" stroke-width="1.00"/>
<circle cx="264.52" cy="191.27" r="13.11" fill="#cccccc" stroke="#000000" stroke-width="1.00"/>
<circle cx="277.63" cy="259.40" r="13.11" fill="#cccccc" stroke="#000000" stroke-width="1.00"/>
<circle cx="102.39" cy="203.15" r="13.11" fill="#cccccc" stroke="#000000" stroke-width="1.00"/>
<circle cx="316.97" cy="236.69" r="13.11" fill="#cccccc" stroke="#000000" stroke-width="1.00"/>
<circle cx="54.09" cy="315.93" r="13.11" fill="#cccccc" stroke="#000000" stroke-width="1.00"/>
<circle cx="206.25" cy="195.83" r="13.11" fill="#cccccc" stroke="#000000" stroke-width="1.00"/>
<circle cx="154.84" cy="203.15" r="13.11" fill="#cccccc" stroke="#000000" stroke-width="1.00"/>
<circle cx="238.30" cy="191.27" r="13.11" fill="#cccccc" stroke="#000000" stroke-width="1.00"/>
<circle cx="238.30" cy="327.54" r="13.11" fill="#cccccc" stroke="#000000" stroke-width="1.00"/>
<circle cx="154.84" cy="157.73" r="13.11" fill="#cccccc" stroke="#000000" stroke-width="1.00"/>
<circle cx="225.18" cy="259.40" r="13.11" fill="#cccccc" stroke="#000000" stroke-width="1.00"/>
<circle cx="160.88" cy="228.67" r="13.11" fill="#cccccc" stroke="#000000" stroke-width="1.00"/>
<circle cx="141.73" cy="180.44" r="13.11" fill="#cccccc" stroke="#000000" stroke-width="1.00"/>
<circle cx="83.31" cy="236.21" r="13.11" fill="#cccccc" stroke="#000000" stroke-width="1.00"/>
<circle cx="107.17" cy="327.54" r="13.11" fill="#cccccc" stroke="#000000" stroke-width="1.00"/>
<circle cx="187.10" cy="228.67" r="13.11" fill="#cccccc" stroke="#000000" stroke-width="1.00"/>
<circle cx="238.30" cy="236.69" r="13.11" fill="#cccccc" stroke="#000000" stroke-width="1.00"/>
<circle cx="172.73" cy="304.83" r="13.11" fill="#cccccc" stroke="#000000" stroke-width="1.00"/>
<circle cx="219.36" cy="173.12" r="13.11" fill="#cccccc" stroke="#000000" stroke-width="1.00"/>
<circle cx="277.63" cy="213.98" r="13.11" fill="#cccccc" stroke="#000000" stroke-width="1.00"/>
<circle cx="128.62" cy="203.15" r="13.11" fill="#cccccc" stroke="#000000" stroke-width="1.00"/>
<circle cx="108.42" cy="228.67" r="13.11" fill="#cccccc" stroke="#000000" stroke-width="1.00"/>
<circle cx="193.14" cy="127.70" r="13.11" fill="#cccccc" stroke="#000000" stroke-width="1.00"/>
<circle cx="290.75" cy="191.27" r="13.11" fill="#cccccc" stroke="#000000" stroke-width="1.00"/>
<circle cx="160.88" cy="274.10" r="13.11" fill="#cccccc" stroke="#000000" stroke-width="1.00"/>
<circle cx="185.84" cy="327.54" r="13.11" fill="#cccccc" stroke="#000000" stroke-width="1.00"/>
<circle cx="303.86" cy="259.40" r="13.11" fill="#cccccc" stroke="#000000" stroke-width="1.00"/>
<circle cx="159.62" cy="327.54" r="13.11" fill="#cccccc" stroke="#000000" stroke-width="1.00"/>
<circle cx="141.73" cy="135.02" r="13.11" fill="#cccccc" stroke="#000000" stroke-width="1.00"/>
<circle cx="290.75" cy="282.11" r="13.11" fill="#cccccc" stroke="#000000" stroke-width="1.00"/>
<circle cx="30.58" cy="327.54" r="13.11" fill="#cccccc" stroke="#000000" stroke-width="1.00"/>
<circle cx="115.51" cy="180.44" r="13.11" fill="#cccccc" stroke="#000000" stroke-width="1.00"/>
<circle cx="316.97" cy="282.11" r="13.11" fill="#cccccc" stroke="#000000" stroke-width="1.00"/>
<circle cx="52.39" cy="289.76" r="13.11" fill="#cccccc" stroke="#000000" stroke-width="1.00"/>
<circle cx="134.65" cy="228.67" r="13.11" fill="#cccccc" stroke="#000000" stroke-width="1.00"/>
<circle cx="226.23" cy="79.52" r="13.11" fill="#cccccc" stroke="#000000" stroke-width="1.00"/>
<circle cx="105.88" cy="283.38" r="13.11" fill="#cccccc" stroke="#000000" stroke-width="1.00"/>
<circle cx="133.39" cy="327.54" r="13.11" fill="#cccccc" stroke="#000000" stroke-width="1.00"/>
<circle cx="160.66" cy="102.23" r="13.11" fill="#cccccc" stroke="#000000" stroke-width="1.00"/>
<circle cx="181.07" cy="203.15" r="13.11" fill="#cccccc" stroke="#000000" stroke-width="1.00"/>
<circle cx="330.08" cy="259.40" r="13.11" fill="#cccccc" stroke="#000000" stroke-width="1.00"/>
<circle cx="96.42" cy="258.92" r="13.11" fill="#cccccc" stroke="#000000" stroke-width="1.00"/>
<circle cx="330.08" cy="304.83" r="13.11" fill="#cccccc" stroke="#000000" stroke-width="1.00"/>
<circle cx="251.41" cy="304.83" r="13.11" fill="#cccccc" stroke="#000000" stroke-width="1.00"/>
<circle cx="225.18" cy="304.83" r="13.11" fill="#cccccc" stroke="#000000" stroke-width="1.00"/>
<circle cx="173.99" cy="251.39" r="13.11" fill="#cccccc" stroke="#000000" stroke-width="1.00"/>
<circle cx="290.75" cy="236.69" r="13.11" fill="#cccccc" stroke="#000000" stroke-width="1.00"/>
<circle cx="290.75" cy="327.54" r="13.11" fill="#cccccc" stroke="#000000" stroke-width="1.00"/>
<circle cx="251.41" cy="259.40" r="13.11" fill="#cccccc" stroke="#000000" stroke-width="1.00"/>
<circle cx="193.14" cy="173.12" r="13.11" fill="#cccccc" stroke="#000000" stroke-width="1.00"/>
<circle cx="213.11" cy="102.23" r="13.11" fill="#cccccc" stroke="#000000" stroke-width="1.00"/>
<circle cx="264.52" cy="282.11" r="13.11" fill="#cccccc" stroke="#000000" stroke-width="1.00"/>
<circle cx="167.96" cy="180.44" r="13.11" fill="#cccccc" stroke="#000000" stroke-width="1.00"/>
<circle cx="200.00" cy="79.52" r="13.11" fill="#cccccc" stroke="#000000" stroke-width="1.00"/>
<circle cx="186.89" cy="56.80" r="13.11" fill="#cccccc" stroke="#000000" stroke-width="1.00"/>
<polygon points="200.00,7.87 7.87,340.65 392.13,340.65" fill="none" stroke="#000000" stroke-width="1.40"/>
</svg>