<svg xmlns="http://www.w3.org/2000/svg" width="400.0" height="348.5" viewBox="0 0 400.0 348.5">
<rect width="400.0" height="348.5" fill="white"/>
<circle cx="172.87" cy="304.85" r="13.10" fill="#cccccc" stroke="#000000" stroke-width="1.00"/>
<circle cx="159.93" cy="103.48" r="13.10" fill="#cccccc" stroke="#000000" stroke-width="1.00"/>
<circle cx="134.48" cy="275.27" r="13.10" fill="#cccccc" stroke="#000000" stroke-width="1.00"/>
<circle cx="173.03" cy="80.78" r="13.10" fill="#cccccc" stroke="#000000" stroke-width="1.00"/>
<circle cx="140.90" cy="181.83" r="13.10" fill="#cccccc" stroke="#000000" stroke-width="1.00"/>
<circle cx="343.23" cy="327.55" r="13.10" fill="#cccccc" stroke="#000000" stroke-width="1.00"/>
<circle cx="238.39" cy="191.36" r="13.10" fill="#cccccc" stroke="#000000" stroke-width="1.00"/>
<circle cx="290.81" cy="327.55" r="13.10" fill="#cccccc" stroke="#000000" stroke-width="1.00"/>
<circle cx="179.13" cy="151.67" r="13.10" fill="#cccccc" stroke="#000000" stroke-width="1.00"/>
<circle cx="69.87" cy="259.46" r="13.10" fill="#cccccc" stroke="#000000" stroke-width="1.00"/>
<circle cx="303.92" cy="259.46" r="13.10" fill="#cccccc" stroke="#000000" stroke-width="1.00"/>
<circle cx="251.50" cy="214.06" r="13.10" fill="#cccccc" stroke="#000000" stroke-width="1.00"/>
<circle cx="251.50" cy="123.27" r="13.10" fill="#cccccc" stroke="#000000" stroke-width="1.00"/>
<circle cx="167.11" cy="227.23" r="13.10" fill="#cccccc" stroke="#000000" stroke-width="1.00"/>
<circle cx="192.23" cy="174.37" r="13.10" fill="#cccccc" stroke="#000000" stroke-width="1.00"/>
<circle cx="290.81" cy="282.15" r="13.10" fill="#cccccc" stroke="#000000" stroke-width="1.00"/>
<circle cx="147.58" cy="297.97" r="13.10" fill="#cccccc" stroke="#000000" stroke-width="1.00"/>
<circle cx="134.48" cy="320.66" r="13.10" fill="#cccccc" stroke="#000000" stroke-width="1.00"/>
<circle cx="303.92" cy="304.85" r="13.10" fill="#cccccc" stroke="#000000" stroke-width="1.00"/>
<circle cx="114.69" cy="181.83" r="13.10" fill="#cccccc" stroke="#000000" stroke-width="1.00"/>
<circle cx="82.98" cy="327.55" r="13.10" fill="#cccccc" stroke="#000000" stroke-width="1.00"/>
<circle cx="199.08" cy="259.46" r="13.10" fill="#cccccc" stroke="#000000" stroke-width="1.00"/>
<circle cx="356.33" cy="304.85" r="13.10" fill="#cccccc" stroke="#000000" stroke-width="1.00"/>
<circle cx="173.79" cy="252.57" r="13.10" fill="#cccccc" stroke="#000000" stroke-width="1.00"/>
<circle cx="199.24" cy="80.78" r="13.10" fill="#cccccc" stroke="#000000" stroke-width="1.00"/>
<circle cx="154.00" cy="204.53" r="13.10" fill="#cccccc" stroke="#000000" stroke-width="1.00"/>
<circle cx="114.69" cy="227.23" r="13.10" fill="#cccccc" stroke="#000000" stroke-width="1.00"/>
<circle cx="212.18" cy="236.76" r="13.10" fill="#cccccc" stroke="#000000" stroke-width="1.00"/>
<circle cx="152.92" cy="151.67" r="13.10" fill="#cccccc" stroke="#000000" stroke-width="1.00"/>
<circle cx="30.56" cy="327.55" r="13.10" fill="#cccccc" stroke="#000000" stroke-width="1.00"/>
<circle cx="101.59" cy="204.53" r="13.10" fill="#cccccc" stroke="#000000" stroke-width="1.00"/>
<circle cx="212.35" cy="103.48" r="13.10" fill="#cccccc" stroke="#000000" stroke-width="1.00"/>
<circle cx="264.60" cy="282.15" r="13.10" fill="#cccccc" stroke="#000000" stroke-width="1.00"/>
<circle cx="69.87" cy="304.85" r="13.10" fill="#cccccc" stroke="#000000" stroke-width="1.00"/>
<circle cx="238.39" cy="100.57" r="13.10" fill="#cccccc" stroke="#000000" stroke-width="1.00"/>
<circle cx="96.08" cy="304.85" r="13.10" fill="#cccccc" stroke="#000000" stroke-width="1.00"/>
<circle cx="108.27" cy="275.27" r="13.10" fill="#cccccc" stroke="#000000" stroke-width="1.00"/>
<circle cx="95.16" cy="252.57" r="13.10" fill="#cccccc" stroke="#000000" stroke-width="1.00"/>
<circle cx="238.39" cy="236.76" r="13.10" fill="#cccccc" stroke="#000000" stroke-width="1.00"/>
<circle cx="212.18" cy="327.55" r="13.10" fill="#cccccc" stroke="#000000" stroke-width="1.00"/>
<circle cx="330.13" cy="259.46" r="13.10" fill="#cccccc" stroke="#000000" stroke-width="1.00"/>
<circle cx="277.71" cy="214.06" r="13.10" fill="#cccccc" stroke="#000000" stroke-width="1.00"/>
<circle cx="199.08" cy="304.85" r="13.10" fill="#cccccc" stroke="#000000" stroke-width="1.00"/>
<circle cx="127.80" cy="159.13" r="13.10" fill="#cccccc" stroke="#000000" stroke-width="1.00"/>
<circle cx="251.50" cy="304.85" r="13.10" fill="#cccccc" stroke="#000000" stroke-width="1.00"/>
<circle cx="290.81" cy="191.36" r="13.10" fill="#cccccc" stroke="#000000" stroke-width="1.00"/>
<circle cx="147.58" cy="252.57" r="13.10" fill="#cccccc" stroke="#000000" stroke-width="1.00"/>
<circle cx="186.14" cy="103.48" r="13.10" fill="#cccccc" stroke="#000000" stroke-width="1.00"/>
<circle cx="127.80" cy="204.53" r="13.10" fill="#cccccc" stroke="#000000" stroke-width="1.00"/>
<circle cx="199.24" cy="126.18" r="13.10" fill="#cccccc" stroke="#000000" stroke-width="1.00"/>
<circle cx="140.90" cy="227.23" r="13.10" fill="#cccccc" stroke="#000000" stroke-width="1.00"/>
<circle cx="56.77" cy="282.15" r="13.10" fill="#cccccc" stroke="#000000" stroke-width="1.00"/>
<circle cx="225.29" cy="259.46" r="13.10" fill="#cccccc" stroke="#000000" stroke-width="1.00"/>
<circle cx="43.67" cy="304.85" r="13.10" fill="#cccccc" stroke="#000000" stroke-width="1.00"/>
<circle cx="225.29" cy="214.06" r="13.10" fill="#cccccc" stroke="#000000" stroke-width="1.00"/>
<circle cx="317.02" cy="282.15" r="13.10" fill="#cccccc" stroke="#000000" stroke-width="1.00"/>
<circle cx="290.81" cy="236.76" r="13.10" fill="#cccccc" stroke="#000000" stroke-width="1.00"/>
<circle cx="218.44" cy="174.37" r="13.10" fill="#cccccc" stroke="#000000" stroke-width="1.00"/>
<circle cx="109.19" cy="327.55" r="13.10" fill="#cccccc" stroke="#000000" stroke-width="1.00"/>
<circle cx="303.92" cy="214.06" r="13.10" fill="#cccccc" stroke="#000000" stroke-width="1.00"/>
<circle cx="88.48" cy="227.23" r="13.10" fill="#cccccc" stroke="#000000" stroke-width="1.00"/>
<circle cx="121.37" cy="297.97" r="13.10" fill="#cccccc" stroke="#000000" stroke-width="1.00"/>
<circle cx="225.29" cy="304.85" r="13.10" fill="#cccccc" stroke="#000000" stroke-width="1.00"/>
<circle cx="212.18" cy="55.18" r="13.10" fill="#cccccc" stroke="#000000" stroke-width="1.00"/>
<circle cx="225.29" cy="77.87" r="13.10" fill="#cccccc" stroke="#000000" stroke-width="1.00"/>
<circle cx="179.13" cy="197.06" r="13.10" fill="#cccccc" stroke="#000000" stroke-width="1.00"/>
<circle cx="264.60" cy="236.76" r="13.10" fill="#cccccc" stroke="#000000" stroke-width="1.00"/>
<circle cx="82.98" cy="282.15" r="13.10" fill="#cccccc" stroke="#000000" stroke-width="1.00"/>
<circle cx="343.23" cy="282.15" r="13.10" fill="#cccccc" stroke="#000000" stroke-width="1.00"/>
<circle cx="264.60" cy="145.97" r="13.10" fill="#cccccc" stroke="#000000" stroke-width="1.00"/>
<circle cx="330.13" cy="304.85" r="13.10" fill="#cccccc" stroke="#000000" stroke-width="1.00"/>
<circle cx="205.34" cy="197.06" r="13.10" fill="#cccccc" stroke="#000000" stroke-width="1.00"/>
<circle cx="185.97" cy="327.55" r="13.10" fill="#cccccc" stroke="#000000" stroke-width="1.00"/>
<circle cx="251.50" cy="259.46" r="13.10" fill="#cccccc" stroke="#000000" stroke-width="1.00"/>
<circle cx="277.71" cy="168.66" r="13.10" fill="#cccccc" stroke="#000000" stroke-width="1.00"/>
<circle cx="212.18" cy="282.15" r="13.10" fill="#cccccc" stroke="#000000" stroke-width="1.00"/>
<circle cx="277.71" cy="304.85" r="13.10" fill="#cccccc" stroke="#000000" stroke-width="1.00"/>
<circle cx="317.02" cy="236.76" r="13.10" fill="#cccccc" stroke="#000000" stroke-width="1.00"/>
<circle cx="264.60" cy="191.36" r="13.10" fill="#cccccc" stroke="#000000" stroke-width="1.00"/>
<circle cx="192.23" cy="219.76" r="13.10" fill="#cccccc" stroke="#000000" stroke-width="1.00"/>
<circle cx="369.44" cy="327.55" r="13.10" fill="#cccccc" stroke="#000000" stroke-width="1.00"/>
<circle cx="185.97" cy="282.15" r="13.10" fill="#cccccc" stroke="#000000" stroke-width="1.00"/>
<circle cx="56.77" cy="327.55" r="13.10" fill="#cccccc" stroke="#000000" stroke-width="1.00"/>
<circle cx="173.03" cy="126.18" r="13.10" fill="#cccccc" stroke="#000000" stroke-width="1.00"/>
<circle cx="317.02" cy="327.55" r="13.10" fill="#cccccc" stroke="#000000" stroke-width="1.00"/>
<circle cx="225.45" cy="126.18" r="13.10" fill="#cccccc" stroke="#000000" stroke-width="1.00"/>
<circle cx="251.50" cy="168.66" r="13.10" fill="#cccccc" stroke="#000000" stroke-width="1.00"/>
<circle cx="231.55" cy="151.67" r="13.10" fill="#cccccc" stroke="#000000" stroke-width="1.00"/>
<circle cx="146.82" cy="126.18" r="13.10" fill="#cccccc" stroke="#000000" stroke-width="1.00"/>
<circle cx="160.69" cy="275.27" r="13.10" fill="#cccccc" stroke="#000000" stroke-width="1.00"/>
<circle cx="264.60" cy="327.55" r="13.10" fill="#cccccc" stroke="#000000" stroke-width="1.00"/>
<circle cx="121.37" cy="252.57" r="13.10" fill="#cccccc" stroke="#000000" stroke-width="1.00"/>
<circle cx="205.34" cy="151.67" r="13.10" fill="#cccccc" stroke="#000000" stroke-width="1.00"/>
<circle cx="277.71" cy="259.46" r="13.10" fill="#cccccc" stroke="#000000" stroke-width="1.00"/>
<circle cx="166.02" cy="174.37" r="13.10" fill="#cccccc" stroke="#000000" stroke-width="1.00"/>
<circle cx="238.39" cy="282.15" r="13.10" fill="#cccccc" stroke="#000000" stroke-width="1.00"/>
<circle cx="186.14" cy="58.08" r="13.10" fill="#cccccc" stroke="#000000" stroke-width="1.00"/>
<circle cx="159.77" cy="327.55" r="13.10" fill="#cccccc" stroke="#000000" stroke-width="1.00"/>
<circle cx="238.39" cy="327.55" r="13.10" fill="#cccccc" stroke="#000000" stroke-width="1.00"/>
<polygon points="200.00,7.86 7.86,340.65 392.14,340.65" fill="none" stroke="#000000" stroke-width="1.40"/>
</svg>