<svg xmlns="http://www.w3.org/2000/svg" width="241.2" height="400.0" viewBox="0 0 241.2 400.0">
<rect width="241.2" height="400.0" fill="white"/>
<circle cx="47.14" cy="367.66" r="20.21" fill="#cccccc" stroke="#000000" stroke-width="1.00"/>
<circle cx="87.57" cy="367.66" r="20.21" fill="#cccccc" stroke="#000000" stroke-width="1.00"/>
<circle cx="127.99" cy="367.66" r="20.21" fill="#cccccc" stroke="#000000" stroke-width="1.00"/>
<circle cx="168.42" cy="367.66" r="20.21" fill="#cccccc" stroke="#000000" stroke-width="1.00"/>
<circle cx="208.85" cy="367.66" r="20.21" fill="#cccccc" stroke="#000000" stroke-width="1.00"/>
<circle cx="67.35" cy="332.65" r="20.21" fill="#cccccc" stroke="#000000" stroke-width="1.00"/>
<circle cx="107.78" cy="332.65" r="20.21" fill="#cccccc" stroke="#000000" stroke-width="1.00"/>
<circle cx="148.21" cy="332.65" r="20.21" fill="#cccccc" stroke="#000000" stroke-width="1.00"/>
<circle cx="188.64" cy="332.65" r="20.21" fill="#cccccc" stroke="#000000" stroke-width="1.00"/>
<circle cx="87.57" cy="297.64" r="20.21" fill="#cccccc" stroke="#000000" stroke-width="1.00"/>
<circle cx="127.99" cy="297.64" r="20.21" fill="#cccccc" stroke="#000000" stroke-width="1.00"/>
<circle cx="168.42" cy="297.64" r="20.21" fill="#cccccc" stroke="#000000" stroke-width="1.00"/>
<circle cx="208.85" cy="297.64" r="20.21" fill="#cccccc" stroke="#000000" stroke-width="1.00"/>
<circle cx="107.78" cy="262.62" r="20.21" fill="#cccccc" stroke="#000000" stroke-width="1.00"/>
<circle cx="148.21" cy="262.62" r="20.21" fill="#cccccc" stroke="#000000" stroke-width="1.00"/>
<circle cx="188.64" cy="262.62" r="20.21" fill="#cccccc" stroke="#000000" stroke-width="1.00"/>
<circle cx="127.99" cy="227.61" r="20.21" fill="#cccccc" stroke="#000000" stroke-width="1.00"/>
<circle cx="168.42" cy="227.61" r="20.21" fill="#cccccc" stroke="#000000" stroke-width="1.00"/>
<circle cx="208.85" cy="227.61" r="20.21" fill="#cccccc" stroke="#000000" stroke-width="1.00"/>
<circle cx="148.21" cy="192.60" r="20.21" fill="#cccccc" stroke="#000000" stroke-width="1.00"/>
<circle cx="188.64" cy="192.60" r="20.21" fill="#cccccc" stroke="#000000" stroke-width="1.00"/>
<circle cx="168.42" cy="157.59" r="20.21" fill="#cccccc" stroke="#000000" stroke-width="1.00"/>
<circle cx="208.85" cy="157.59" r="20.21" fill="#cccccc" stroke="#000000" stroke-width="1.00"/>
<circle cx="188.64" cy="122.58" r="20.21" fill="#cccccc" stroke="#000000" stroke-width="1.00"/>
<circle cx="208.85" cy="87.57" r="20.21" fill="#cccccc" stroke="#000000" stroke-width="1.00"/>
<polygon points="12.13,387.87 229.06,387.87 229.06,12.13" fill="none" stroke="#000000" stroke-width="1.40"/>
</svg>