<svg xmlns="http://www.w3.org/2000/svg" width="400.0" height="344.3" viewBox="0 0 400.0 344.3">
<rect width="400.0" height="344.3" fill="white"/>
<circle cx="306.69" cy="308.04" r="22.64" fill="#cccccc" stroke="#000000" stroke-width="1.00"/>
<circle cx="163.20" cy="167.56" r="22.64" fill="#cccccc" stroke="#000000" stroke-width="1.00"/>
<circle cx="136.16" cy="203.89" r="22.64" fill="#cccccc" stroke="#000000" stroke-width="1.00"/>
<circle cx="217.27" cy="94.90" r="22.64" fill="#cccccc" stroke="#000000" stroke-width="1.00"/>
<circle cx="351.98" cy="308.04" r="22.64" fill="#cccccc" stroke="#000000" stroke-width="1.00"/>
<circle cx="190.24" cy="131.23" r="22.64" fill="#cccccc" stroke="#000000" stroke-width="1.00"/>
<circle cx="199.09" cy="250.72" r="22.64" fill="#cccccc" stroke="#000000" stroke-width="1.00"/>
<circle cx="244.31" cy="58.57" r="22.64" fill="#cccccc" stroke="#000000" stroke-width="1.00"/>
<circle cx="271.11" cy="219.63" r="22.64" fill="#cccccc" stroke="#000000" stroke-width="1.00"/>
<circle cx="181.15" cy="209.14" r="22.64" fill="#cccccc" stroke="#000000" stroke-width="1.00"/>
<circle cx="298.14" cy="183.30" r="22.64" fill="#cccccc" stroke="#000000" stroke-width="1.00"/>
<circle cx="176.81" cy="290.14" r="22.64" fill="#cccccc" stroke="#000000" stroke-width="1.00"/>
<circle cx="334.03" cy="266.46" r="22.64" fill="#cccccc" stroke="#000000" stroke-width="1.00"/>
<circle cx="253.16" cy="178.06" r="22.64" fill="#cccccc" stroke="#000000" stroke-width="1.00"/>
<circle cx="135.21" cy="308.04" r="22.64" fill="#cccccc" stroke="#000000" stroke-width="1.00"/>
<circle cx="208.18" cy="172.81" r="22.64" fill="#cccccc" stroke="#000000" stroke-width="1.00"/>
<circle cx="226.13" cy="214.39" r="22.64" fill="#cccccc" stroke="#000000" stroke-width="1.00"/>
<circle cx="280.20" cy="141.72" r="22.64" fill="#cccccc" stroke="#000000" stroke-width="1.00"/>
<circle cx="109.13" cy="240.22" r="22.64" fill="#cccccc" stroke="#000000" stroke-width="1.00"/>
<circle cx="154.11" cy="245.47" r="22.64" fill="#cccccc" stroke="#000000" stroke-width="1.00"/>
<circle cx="262.55" cy="297.93" r="22.64" fill="#cccccc" stroke="#000000" stroke-width="1.00"/>
<circle cx="235.22" cy="136.48" r="22.64" fill="#cccccc" stroke="#000000" stroke-width="1.00"/>
<circle cx="262.25" cy="100.15" r="22.64" fill="#cccccc" stroke="#000000" stroke-width="1.00"/>
<circle cx="289.05" cy="261.21" r="22.64" fill="#cccccc" stroke="#000000" stroke-width="1.00"/>
<circle cx="243.99" cy="256.62" r="22.64" fill="#cccccc" stroke="#000000" stroke-width="1.00"/>
<circle cx="218.41" cy="308.04" r="22.64" fill="#cccccc" stroke="#000000" stroke-width="1.00"/>
<circle cx="58.66" cy="308.04" r="22.64" fill="#cccccc" stroke="#000000" stroke-width="1.00"/>
<circle cx="316.09" cy="224.88" r="22.64" fill="#cccccc" stroke="#000000" stroke-width="1.00"/>
<circle cx="96.93" cy="283.83" r="22.64" fill="#cccccc" stroke="#000000" stroke-width="1.00"/>
<polygon points="13.59,330.68 386.41,330.68 249.55,13.59" fill="none" stroke="#000000" stroke-width="1.40"/>
</svg>