<svg xmlns="http://www.w3.org/2000/svg" width="400.0" height="336.3" viewBox="0 0 400.0 336.3">
<rect width="400.0" height="336.3" fill="white"/>
<circle cx="297.19" cy="137.73" r="21.75" fill="#cccccc" stroke="#000000" stroke-width="1.00"/>
<circle cx="326.61" cy="219.60" r="21.75" fill="#cccccc" stroke="#000000" stroke-width="1.00"/>
<circle cx="269.10" cy="170.93" r="21.75" fill="#cccccc" stroke="#000000" stroke-width="1.00"/>
<circle cx="254.39" cy="130.00" r="21.75" fill="#cccccc" stroke="#000000" stroke-width="1.00"/>
<circle cx="298.51" cy="252.80" r="21.75" fill="#cccccc" stroke="#000000" stroke-width="1.00"/>
<circle cx="239.68" cy="89.06" r="21.75" fill="#cccccc" stroke="#000000" stroke-width="1.00"/>
<circle cx="158.83" cy="301.47" r="21.75" fill="#cccccc" stroke="#000000" stroke-width="1.00"/>
<circle cx="283.80" cy="211.87" r="21.75" fill="#cccccc" stroke="#000000" stroke-width="1.00"/>
<circle cx="226.29" cy="163.20" r="21.75" fill="#cccccc" stroke="#000000" stroke-width="1.00"/>
<circle cx="127.29" cy="221.88" r="21.75" fill="#cccccc" stroke="#000000" stroke-width="1.00"/>
<circle cx="135.87" cy="264.52" r="21.75" fill="#cccccc" stroke="#000000" stroke-width="1.00"/>
<circle cx="183.49" cy="155.47" r="21.75" fill="#cccccc" stroke="#000000" stroke-width="1.00"/>
<circle cx="241.00" cy="204.14" r="21.75" fill="#cccccc" stroke="#000000" stroke-width="1.00"/>
<circle cx="282.49" cy="96.79" r="21.75" fill="#cccccc" stroke="#000000" stroke-width="1.00"/>
<circle cx="211.58" cy="122.27" r="21.75" fill="#cccccc" stroke="#000000" stroke-width="1.00"/>
<circle cx="198.19" cy="196.41" r="21.75" fill="#cccccc" stroke="#000000" stroke-width="1.00"/>
<circle cx="230.54" cy="301.47" r="21.75" fill="#cccccc" stroke="#000000" stroke-width="1.00"/>
<circle cx="212.90" cy="237.34" r="21.75" fill="#cccccc" stroke="#000000" stroke-width="1.00"/>
<circle cx="169.17" cy="236.53" r="21.75" fill="#cccccc" stroke="#000000" stroke-width="1.00"/>
<circle cx="112.92" cy="301.47" r="21.75" fill="#cccccc" stroke="#000000" stroke-width="1.00"/>
<circle cx="267.78" cy="55.86" r="21.75" fill="#cccccc" stroke="#000000" stroke-width="1.00"/>
<circle cx="255.70" cy="245.12" r="21.75" fill="#cccccc" stroke="#000000" stroke-width="1.00"/>
<circle cx="92.40" cy="263.12" r="21.75" fill="#cccccc" stroke="#000000" stroke-width="1.00"/>
<circle cx="341.32" cy="260.54" r="21.75" fill="#cccccc" stroke="#000000" stroke-width="1.00"/>
<circle cx="194.69" cy="276.84" r="21.75" fill="#cccccc" stroke="#000000" stroke-width="1.00"/>
<circle cx="68.90" cy="301.47" r="21.75" fill="#cccccc" stroke="#000000" stroke-width="1.00"/>
<circle cx="271.53" cy="286.93" r="21.75" fill="#cccccc" stroke="#000000" stroke-width="1.00"/>
<circle cx="311.90" cy="178.66" r="21.75" fill="#cccccc" stroke="#000000" stroke-width="1.00"/>
<circle cx="312.53" cy="301.47" r="21.75" fill="#cccccc" stroke="#000000" stroke-width="1.00"/>
<circle cx="155.39" cy="188.68" r="21.75" fill="#cccccc" stroke="#000000" stroke-width="1.00"/>
<circle cx="356.03" cy="301.47" r="21.75" fill="#cccccc" stroke="#000000" stroke-width="1.00"/>
<polygon points="13.05,323.22 386.95,323.22 275.51,13.05" fill="none" stroke="#000000" stroke-width="1.40"/>
</svg>