<svg xmlns="http://www.w3.org/2000/svg" width="400.0" height="339.1" viewBox="0 0 400.0 339.1">
<rect width="400.0" height="339.1" fill="white"/>
<circle cx="207.73" cy="95.45" r="21.13" fill="#cccccc" stroke="#000000" stroke-width="1.00"/>
<circle cx="242.26" cy="195.46" r="21.13" fill="#cccccc" stroke="#000000" stroke-width="1.00"/>
<circle cx="306.20" cy="231.75" r="21.13" fill="#cccccc" stroke="#000000" stroke-width="1.00"/>
<circle cx="178.86" cy="305.26" r="21.13" fill="#cccccc" stroke="#000000" stroke-width="1.00"/>
<circle cx="285.88" cy="268.81" r="21.13" fill="#cccccc" stroke="#000000" stroke-width="1.00"/>
<circle cx="307.28" cy="305.26" r="21.13" fill="#cccccc" stroke="#000000" stroke-width="1.00"/>
<circle cx="240.64" cy="121.97" r="21.13" fill="#cccccc" stroke="#000000" stroke-width="1.00"/>
<circle cx="92.72" cy="305.26" r="21.13" fill="#cccccc" stroke="#000000" stroke-width="1.00"/>
<circle cx="264.48" cy="305.26" r="21.13" fill="#cccccc" stroke="#000000" stroke-width="1.00"/>
<circle cx="157.74" cy="195.45" r="21.13" fill="#cccccc" stroke="#000000" stroke-width="1.00"/>
<circle cx="136.06" cy="232.37" r="21.13" fill="#cccccc" stroke="#000000" stroke-width="1.00"/>
<circle cx="157.19" cy="268.97" r="21.13" fill="#cccccc" stroke="#000000" stroke-width="1.00"/>
<circle cx="220.05" cy="158.87" r="21.13" fill="#cccccc" stroke="#000000" stroke-width="1.00"/>
<circle cx="114.12" cy="268.81" r="21.13" fill="#cccccc" stroke="#000000" stroke-width="1.00"/>
<circle cx="221.13" cy="305.26" r="21.13" fill="#cccccc" stroke="#000000" stroke-width="1.00"/>
<circle cx="178.94" cy="149.04" r="21.13" fill="#cccccc" stroke="#000000" stroke-width="1.00"/>
<circle cx="349.54" cy="305.24" r="21.13" fill="#cccccc" stroke="#000000" stroke-width="1.00"/>
<circle cx="49.95" cy="305.23" r="21.13" fill="#cccccc" stroke="#000000" stroke-width="1.00"/>
<circle cx="242.80" cy="268.97" r="21.13" fill="#cccccc" stroke="#000000" stroke-width="1.00"/>
<circle cx="167.48" cy="108.36" r="21.13" fill="#cccccc" stroke="#000000" stroke-width="1.00"/>
<circle cx="200.00" cy="196.08" r="21.13" fill="#cccccc" stroke="#000000" stroke-width="1.00"/>
<circle cx="263.94" cy="232.37" r="21.13" fill="#cccccc" stroke="#000000" stroke-width="1.00"/>
<circle cx="200.00" cy="268.65" r="21.13" fill="#cccccc" stroke="#000000" stroke-width="1.00"/>
<circle cx="200.00" cy="53.90" r="21.13" fill="#cccccc" stroke="#000000" stroke-width="1.00"/>
<circle cx="135.53" cy="305.26" r="21.13" fill="#cccccc" stroke="#000000" stroke-width="1.00"/>
<circle cx="262.31" cy="158.25" r="21.13" fill="#cccccc" stroke="#000000" stroke-width="1.00"/>
<circle cx="137.69" cy="158.25" r="21.13" fill="#cccccc" stroke="#000000" stroke-width="1.00"/>
<circle cx="328.14" cy="268.50" r="21.13" fill="#cccccc" stroke="#000000" stroke-width="1.00"/>
<circle cx="93.80" cy="231.75" r="21.13" fill="#cccccc" stroke="#000000" stroke-width="1.00"/>
<circle cx="221.67" cy="232.37" r="21.13" fill="#cccccc" stroke="#000000" stroke-width="1.00"/>
<circle cx="178.33" cy="232.37" r="21.13" fill="#cccccc" stroke="#000000" stroke-width="1.00"/>
<circle cx="284.53" cy="195.46" r="21.13" fill="#cccccc" stroke="#000000" stroke-width="1.00"/>
<circle cx="71.86" cy="268.50" r="21.13" fill="#cccccc" stroke="#000000" stroke-width="1.00"/>
<circle cx="115.48" cy="195.45" r="21.13" fill="#cccccc" stroke="#000000" stroke-width="1.00"/>
<polygon points="12.68,326.39 387.32,326.39 200.00,12.68" fill="none" stroke="#000000" stroke-width="1.40"/>
</svg>