<svg xmlns="http://www.w3.org/2000/svg" width="400.0" height="239.7" viewBox="0 0 400.0 239.7">
<rect width="400.0" height="239.7" fill="white"/>
<circle cx="209.03" cy="212.58" r="16.95" fill="#cccccc" stroke="#000000" stroke-width="1.00"/>
<circle cx="124.28" cy="65.79" r="16.95" fill="#cccccc" stroke="#000000" stroke-width="1.00"/>
<circle cx="192.12" cy="124.48" r="16.95" fill="#cccccc" stroke="#000000" stroke-width="1.00"/>
<circle cx="344.40" cy="212.58" r="16.95" fill="#cccccc" stroke="#000000" stroke-width="1.00"/>
<circle cx="141.23" cy="36.43" r="16.95" fill="#cccccc" stroke="#000000" stroke-width="1.00"/>
<circle cx="107.33" cy="153.86" r="16.95" fill="#cccccc" stroke="#000000" stroke-width="1.00"/>
<circle cx="209.03" cy="153.86" r="16.95" fill="#cccccc" stroke="#000000" stroke-width="1.00"/>
<circle cx="260.00" cy="183.29" r="16.95" fill="#cccccc" stroke="#000000" stroke-width="1.00"/>
<circle cx="226.10" cy="183.15" r="16.95" fill="#cccccc" stroke="#000000" stroke-width="1.00"/>
<circle cx="234.29" cy="117.11" r="16.95" fill="#cccccc" stroke="#000000" stroke-width="1.00"/>
<circle cx="124.28" cy="183.22" r="16.95" fill="#cccccc" stroke="#000000" stroke-width="1.00"/>
<circle cx="192.08" cy="183.22" r="16.95" fill="#cccccc" stroke="#000000" stroke-width="1.00"/>
<circle cx="277.08" cy="212.58" r="16.95" fill="#cccccc" stroke="#000000" stroke-width="1.00"/>
<circle cx="141.23" cy="212.58" r="16.95" fill="#cccccc" stroke="#000000" stroke-width="1.00"/>
<circle cx="175.13" cy="153.86" r="16.95" fill="#cccccc" stroke="#000000" stroke-width="1.00"/>
<circle cx="166.84" cy="58.64" r="16.95" fill="#cccccc" stroke="#000000" stroke-width="1.00"/>
<circle cx="158.21" cy="124.48" r="16.95" fill="#cccccc" stroke="#000000" stroke-width="1.00"/>
<circle cx="242.93" cy="212.58" r="16.95" fill="#cccccc" stroke="#000000" stroke-width="1.00"/>
<circle cx="124.28" cy="124.50" r="16.95" fill="#cccccc" stroke="#000000" stroke-width="1.00"/>
<circle cx="141.23" cy="153.86" r="16.95" fill="#cccccc" stroke="#000000" stroke-width="1.00"/>
<circle cx="302.02" cy="175.83" r="16.95" fill="#cccccc" stroke="#000000" stroke-width="1.00"/>
<circle cx="276.40" cy="153.62" r="16.95" fill="#cccccc" stroke="#000000" stroke-width="1.00"/>
<circle cx="310.74" cy="208.59" r="16.95" fill="#cccccc" stroke="#000000" stroke-width="1.00"/>
<circle cx="141.23" cy="95.15" r="16.95" fill="#cccccc" stroke="#000000" stroke-width="1.00"/>
<circle cx="208.67" cy="94.90" r="16.95" fill="#cccccc" stroke="#000000" stroke-width="1.00"/>
<circle cx="90.38" cy="183.22" r="16.95" fill="#cccccc" stroke="#000000" stroke-width="1.00"/>
<circle cx="73.43" cy="153.86" r="16.95" fill="#cccccc" stroke="#000000" stroke-width="1.00"/>
<circle cx="73.43" cy="212.58" r="16.95" fill="#cccccc" stroke="#000000" stroke-width="1.00"/>
<circle cx="175.13" cy="212.58" r="16.95" fill="#cccccc" stroke="#000000" stroke-width="1.00"/>
<circle cx="39.53" cy="212.58" r="16.95" fill="#cccccc" stroke="#000000" stroke-width="1.00"/>
<circle cx="107.33" cy="95.15" r="16.95" fill="#cccccc" stroke="#000000" stroke-width="1.00"/>
<circle cx="56.48" cy="183.22" r="16.95" fill="#cccccc" stroke="#000000" stroke-width="1.00"/>
<circle cx="242.70" cy="149.95" r="16.95" fill="#cccccc" stroke="#000000" stroke-width="1.00"/>
<circle cx="174.94" cy="91.56" r="16.95" fill="#cccccc" stroke="#000000" stroke-width="1.00"/>
<circle cx="158.18" cy="183.22" r="16.95" fill="#cccccc" stroke="#000000" stroke-width="1.00"/>
<circle cx="107.33" cy="212.58" r="16.95" fill="#cccccc" stroke="#000000" stroke-width="1.00"/>
<circle cx="90.38" cy="124.50" r="16.95" fill="#cccccc" stroke="#000000" stroke-width="1.00"/>
<polygon points="10.17,229.53 389.83,229.53 136.82,10.17" fill="none" stroke="#000000" stroke-width="1.40"/>
</svg>