<svg xmlns="http://www.w3.org/2000/svg" width="400.0" height="369.6" viewBox="0 0 400.0 369.6">
<rect width="400.0" height="369.6" fill="white"/>
<circle cx="118.46" cy="314.65" r="20.14" fill="#cccccc" stroke="#000000" stroke-width="1.00"/>
<circle cx="44.97" cy="337.42" r="20.14" fill="#cccccc" stroke="#000000" stroke-width="1.00"/>
<circle cx="138.60" cy="279.77" r="20.14" fill="#cccccc" stroke="#000000" stroke-width="1.00"/>
<circle cx="158.73" cy="244.89" r="20.14" fill="#cccccc" stroke="#000000" stroke-width="1.00"/>
<circle cx="312.77" cy="337.42" r="20.14" fill="#cccccc" stroke="#000000" stroke-width="1.00"/>
<circle cx="210.33" cy="90.25" r="20.14" fill="#cccccc" stroke="#000000" stroke-width="1.00"/>
<circle cx="353.04" cy="337.42" r="20.14" fill="#cccccc" stroke="#000000" stroke-width="1.00"/>
<circle cx="191.95" cy="267.67" r="20.14" fill="#cccccc" stroke="#000000" stroke-width="1.00"/>
<circle cx="189.44" cy="55.67" r="20.14" fill="#cccccc" stroke="#000000" stroke-width="1.00"/>
<circle cx="292.63" cy="302.54" r="20.14" fill="#cccccc" stroke="#000000" stroke-width="1.00"/>
<circle cx="170.11" cy="92.30" r="20.14" fill="#cccccc" stroke="#000000" stroke-width="1.00"/>
<circle cx="81.55" cy="265.78" r="20.14" fill="#cccccc" stroke="#000000" stroke-width="1.00"/>
<circle cx="272.50" cy="337.42" r="20.14" fill="#cccccc" stroke="#000000" stroke-width="1.00"/>
<circle cx="151.78" cy="128.20" r="20.14" fill="#cccccc" stroke="#000000" stroke-width="1.00"/>
<circle cx="191.95" cy="337.42" r="20.14" fill="#cccccc" stroke="#000000" stroke-width="1.00"/>
<circle cx="210.58" cy="162.12" r="20.14" fill="#cccccc" stroke="#000000" stroke-width="1.00"/>
<circle cx="232.22" cy="128.16" r="20.14" fill="#cccccc" stroke="#000000" stroke-width="1.00"/>
<circle cx="232.22" cy="197.91" r="20.14" fill="#cccccc" stroke="#000000" stroke-width="1.00"/>
<circle cx="232.22" cy="337.42" r="20.14" fill="#cccccc" stroke="#000000" stroke-width="1.00"/>
<circle cx="252.36" cy="302.54" r="20.14" fill="#cccccc" stroke="#000000" stroke-width="1.00"/>
<circle cx="272.50" cy="267.67" r="20.14" fill="#cccccc" stroke="#000000" stroke-width="1.00"/>
<circle cx="312.77" cy="267.67" r="20.14" fill="#cccccc" stroke="#000000" stroke-width="1.00"/>
<circle cx="116.64" cy="246.01" r="20.14" fill="#cccccc" stroke="#000000" stroke-width="1.00"/>
<circle cx="332.90" cy="302.54" r="20.14" fill="#cccccc" stroke="#000000" stroke-width="1.00"/>
<circle cx="151.68" cy="337.42" r="20.14" fill="#cccccc" stroke="#000000" stroke-width="1.00"/>
<circle cx="85.24" cy="337.42" r="20.14" fill="#cccccc" stroke="#000000" stroke-width="1.00"/>
<circle cx="192.00" cy="126.10" r="20.14" fill="#cccccc" stroke="#000000" stroke-width="1.00"/>
<circle cx="252.36" cy="232.79" r="20.14" fill="#cccccc" stroke="#000000" stroke-width="1.00"/>
<circle cx="232.22" cy="267.67" r="20.14" fill="#cccccc" stroke="#000000" stroke-width="1.00"/>
<circle cx="212.09" cy="232.79" r="20.14" fill="#cccccc" stroke="#000000" stroke-width="1.00"/>
<circle cx="65.11" cy="302.54" r="20.14" fill="#cccccc" stroke="#000000" stroke-width="1.00"/>
<circle cx="112.07" cy="206.00" r="20.14" fill="#cccccc" stroke="#000000" stroke-width="1.00"/>
<circle cx="292.63" cy="232.79" r="20.14" fill="#cccccc" stroke="#000000" stroke-width="1.00"/>
<circle cx="171.81" cy="302.54" r="20.14" fill="#cccccc" stroke="#000000" stroke-width="1.00"/>
<circle cx="170.19" cy="164.03" r="20.14" fill="#cccccc" stroke="#000000" stroke-width="1.00"/>
<circle cx="272.50" cy="197.91" r="20.14" fill="#cccccc" stroke="#000000" stroke-width="1.00"/>
<circle cx="191.95" cy="197.91" r="20.14" fill="#cccccc" stroke="#000000" stroke-width="1.00"/>
<circle cx="152.33" cy="205.13" r="20.14" fill="#cccccc" stroke="#000000" stroke-width="1.00"/>
<circle cx="212.09" cy="302.54" r="20.14" fill="#cccccc" stroke="#000000" stroke-width="1.00"/>
<circle cx="130.38" cy="170.13" r="20.14" fill="#cccccc" stroke="#000000" stroke-width="1.00"/>
<circle cx="252.36" cy="163.03" r="20.14" fill="#cccccc" stroke="#000000" stroke-width="1.00"/>
<polygon points="12.08,357.56 387.92,357.56 188.46,12.08" fill="none" stroke="#000000" stroke-width="1.40"/>
</svg>