<svg xmlns="http://www.w3.org/2000/svg" width="400.0" height="329.3" viewBox="0 0 400.0 329.3">
<rect width="400.0" height="329.3" fill="white"/>
<circle cx="208.94" cy="150.68" r="18.90" fill="#cccccc" stroke="#000000" stroke-width="1.00"/>
<circle cx="242.50" cy="233.59" r="18.90" fill="#cccccc" stroke="#000000" stroke-width="1.00"/>
<circle cx="189.95" cy="79.08" r="18.90" fill="#cccccc" stroke="#000000" stroke-width="1.00"/>
<circle cx="280.30" cy="168.11" r="18.90" fill="#cccccc" stroke="#000000" stroke-width="1.00"/>
<circle cx="242.50" cy="168.11" r="18.90" fill="#cccccc" stroke="#000000" stroke-width="1.00"/>
<circle cx="88.65" cy="234.19" r="18.90" fill="#cccccc" stroke="#000000" stroke-width="1.00"/>
<circle cx="134.72" cy="163.65" r="18.90" fill="#cccccc" stroke="#000000" stroke-width="1.00"/>
<circle cx="337.01" cy="266.33" r="18.90" fill="#cccccc" stroke="#000000" stroke-width="1.00"/>
<circle cx="318.11" cy="299.07" r="18.90" fill="#cccccc" stroke="#000000" stroke-width="1.00"/>
<circle cx="204.69" cy="299.07" r="18.90" fill="#cccccc" stroke="#000000" stroke-width="1.00"/>
<circle cx="261.40" cy="200.85" r="18.90" fill="#cccccc" stroke="#000000" stroke-width="1.00"/>
<circle cx="280.30" cy="233.59" r="18.90" fill="#cccccc" stroke="#000000" stroke-width="1.00"/>
<circle cx="242.50" cy="299.07" r="18.90" fill="#cccccc" stroke="#000000" stroke-width="1.00"/>
<circle cx="165.33" cy="232.74" r="18.90" fill="#cccccc" stroke="#000000" stroke-width="1.00"/>
<circle cx="129.07" cy="299.07" r="18.90" fill="#cccccc" stroke="#000000" stroke-width="1.00"/>
<circle cx="355.92" cy="299.07" r="18.90" fill="#cccccc" stroke="#000000" stroke-width="1.00"/>
<circle cx="261.40" cy="135.36" r="18.90" fill="#cccccc" stroke="#000000" stroke-width="1.00"/>
<circle cx="185.78" cy="266.33" r="18.90" fill="#cccccc" stroke="#000000" stroke-width="1.00"/>
<circle cx="204.69" cy="233.59" r="18.90" fill="#cccccc" stroke="#000000" stroke-width="1.00"/>
<circle cx="148.02" cy="199.04" r="18.90" fill="#cccccc" stroke="#000000" stroke-width="1.00"/>
<circle cx="110.27" cy="201.09" r="18.90" fill="#cccccc" stroke="#000000" stroke-width="1.00"/>
<circle cx="185.78" cy="200.85" r="18.90" fill="#cccccc" stroke="#000000" stroke-width="1.00"/>
<circle cx="299.21" cy="200.85" r="18.90" fill="#cccccc" stroke="#000000" stroke-width="1.00"/>
<circle cx="67.97" cy="265.84" r="18.90" fill="#cccccc" stroke="#000000" stroke-width="1.00"/>
<circle cx="147.98" cy="266.33" r="18.90" fill="#cccccc" stroke="#000000" stroke-width="1.00"/>
<circle cx="261.40" cy="266.33" r="18.90" fill="#cccccc" stroke="#000000" stroke-width="1.00"/>
<circle cx="299.21" cy="266.33" r="18.90" fill="#cccccc" stroke="#000000" stroke-width="1.00"/>
<circle cx="318.11" cy="233.59" r="18.90" fill="#cccccc" stroke="#000000" stroke-width="1.00"/>
<circle cx="280.30" cy="299.07" r="18.90" fill="#cccccc" stroke="#000000" stroke-width="1.00"/>
<circle cx="190.05" cy="116.89" r="18.90" fill="#cccccc" stroke="#000000" stroke-width="1.00"/>
<circle cx="173.93" cy="164.95" r="18.90" fill="#cccccc" stroke="#000000" stroke-width="1.00"/>
<circle cx="210.63" cy="47.43" r="18.90" fill="#cccccc" stroke="#000000" stroke-width="1.00"/>
<circle cx="166.88" cy="299.07" r="18.90" fill="#cccccc" stroke="#000000" stroke-width="1.00"/>
<circle cx="155.40" cy="132.00" r="18.90" fill="#cccccc" stroke="#000000" stroke-width="1.00"/>
<circle cx="227.85" cy="117.94" r="18.90" fill="#cccccc" stroke="#000000" stroke-width="1.00"/>
<circle cx="107.54" cy="268.00" r="18.90" fill="#cccccc" stroke="#000000" stroke-width="1.00"/>
<circle cx="86.00" cy="299.07" r="18.90" fill="#cccccc" stroke="#000000" stroke-width="1.00"/>
<circle cx="223.59" cy="200.85" r="18.90" fill="#cccccc" stroke="#000000" stroke-width="1.00"/>
<circle cx="47.47" cy="297.73" r="18.90" fill="#cccccc" stroke="#000000" stroke-width="1.00"/>
<circle cx="229.53" cy="80.17" r="18.90" fill="#cccccc" stroke="#000000" stroke-width="1.00"/>
<circle cx="126.44" cy="235.26" r="18.90" fill="#cccccc" stroke="#000000" stroke-width="1.00"/>
<circle cx="223.59" cy="266.33" r="18.90" fill="#cccccc" stroke="#000000" stroke-width="1.00"/>
<polygon points="11.34,317.98 388.66,317.98 211.62,11.34" fill="none" stroke="#000000" stroke-width="1.40"/>
</svg>