<svg xmlns="http://www.w3.org/2000/svg" width="400.0" height="346.3" viewBox="0 0 400.0 346.3">
<rect width="400.0" height="346.3" fill="white"/>
<circle cx="122.12" cy="315.48" r="19.29" fill="#cccccc" stroke="#000000" stroke-width="1.00"/>
<circle cx="237.84" cy="248.67" r="19.29" fill="#cccccc" stroke="#000000" stroke-width="1.00"/>
<circle cx="179.98" cy="282.08" r="19.29" fill="#cccccc" stroke="#000000" stroke-width="1.00"/>
<circle cx="198.33" cy="49.86" r="19.29" fill="#cccccc" stroke="#000000" stroke-width="1.00"/>
<circle cx="315.84" cy="315.48" r="19.29" fill="#cccccc" stroke="#000000" stroke-width="1.00"/>
<circle cx="199.27" cy="315.48" r="19.29" fill="#cccccc" stroke="#000000" stroke-width="1.00"/>
<circle cx="160.70" cy="315.48" r="19.29" fill="#cccccc" stroke="#000000" stroke-width="1.00"/>
<circle cx="276.42" cy="315.48" r="19.29" fill="#cccccc" stroke="#000000" stroke-width="1.00"/>
<circle cx="334.98" cy="281.99" r="19.29" fill="#cccccc" stroke="#000000" stroke-width="1.00"/>
<circle cx="214.78" cy="131.81" r="19.29" fill="#cccccc" stroke="#000000" stroke-width="1.00"/>
<circle cx="186.84" cy="86.69" r="19.29" fill="#cccccc" stroke="#000000" stroke-width="1.00"/>
<circle cx="237.54" cy="177.00" r="19.29" fill="#cccccc" stroke="#000000" stroke-width="1.00"/>
<circle cx="275.84" cy="181.53" r="19.29" fill="#cccccc" stroke="#000000" stroke-width="1.00"/>
<circle cx="295.70" cy="215.27" r="19.29" fill="#cccccc" stroke="#000000" stroke-width="1.00"/>
<circle cx="141.41" cy="282.08" r="19.29" fill="#cccccc" stroke="#000000" stroke-width="1.00"/>
<circle cx="64.26" cy="282.08" r="19.29" fill="#cccccc" stroke="#000000" stroke-width="1.00"/>
<circle cx="199.27" cy="181.86" r="19.29" fill="#cccccc" stroke="#000000" stroke-width="1.00"/>
<circle cx="218.56" cy="215.26" r="19.29" fill="#cccccc" stroke="#000000" stroke-width="1.00"/>
<circle cx="257.13" cy="282.08" r="19.29" fill="#cccccc" stroke="#000000" stroke-width="1.00"/>
<circle cx="141.41" cy="148.45" r="19.29" fill="#cccccc" stroke="#000000" stroke-width="1.00"/>
<circle cx="83.55" cy="315.48" r="19.29" fill="#cccccc" stroke="#000000" stroke-width="1.00"/>
<circle cx="315.41" cy="248.75" r="19.29" fill="#cccccc" stroke="#000000" stroke-width="1.00"/>
<circle cx="83.55" cy="248.67" r="19.29" fill="#cccccc" stroke="#000000" stroke-width="1.00"/>
<circle cx="102.84" cy="215.26" r="19.29" fill="#cccccc" stroke="#000000" stroke-width="1.00"/>
<circle cx="199.27" cy="248.67" r="19.29" fill="#cccccc" stroke="#000000" stroke-width="1.00"/>
<circle cx="354.68" cy="315.47" r="19.29" fill="#cccccc" stroke="#000000" stroke-width="1.00"/>
<circle cx="122.12" cy="248.67" r="19.29" fill="#cccccc" stroke="#000000" stroke-width="1.00"/>
<circle cx="296.13" cy="282.32" r="19.29" fill="#cccccc" stroke="#000000" stroke-width="1.00"/>
<circle cx="122.12" cy="181.86" r="19.29" fill="#cccccc" stroke="#000000" stroke-width="1.00"/>
<circle cx="276.84" cy="248.92" r="19.29" fill="#cccccc" stroke="#000000" stroke-width="1.00"/>
<circle cx="252.16" cy="141.31" r="19.29" fill="#cccccc" stroke="#000000" stroke-width="1.00"/>
<circle cx="257.13" cy="215.26" r="19.29" fill="#cccccc" stroke="#000000" stroke-width="1.00"/>
<circle cx="160.70" cy="115.05" r="19.29" fill="#cccccc" stroke="#000000" stroke-width="1.00"/>
<circle cx="102.84" cy="282.08" r="19.29" fill="#cccccc" stroke="#000000" stroke-width="1.00"/>
<circle cx="179.98" cy="215.26" r="19.29" fill="#cccccc" stroke="#000000" stroke-width="1.00"/>
<circle cx="179.98" cy="148.45" r="19.29" fill="#cccccc" stroke="#000000" stroke-width="1.00"/>
<circle cx="160.70" cy="248.67" r="19.29" fill="#cccccc" stroke="#000000" stroke-width="1.00"/>
<circle cx="44.98" cy="315.48" r="19.29" fill="#cccccc" stroke="#000000" stroke-width="1.00"/>
<circle cx="224.61" cy="94.51" r="19.29" fill="#cccccc" stroke="#000000" stroke-width="1.00"/>
<circle cx="218.56" cy="282.08" r="19.29" fill="#cccccc" stroke="#000000" stroke-width="1.00"/>
<circle cx="160.70" cy="181.86" r="19.29" fill="#cccccc" stroke="#000000" stroke-width="1.00"/>
<circle cx="141.41" cy="215.26" r="19.29" fill="#cccccc" stroke="#000000" stroke-width="1.00"/>
<circle cx="237.84" cy="315.48" r="19.29" fill="#cccccc" stroke="#000000" stroke-width="1.00"/>
<polygon points="11.57,334.77 388.43,334.77 198.17,11.57" fill="none" stroke="#000000" stroke-width="1.40"/>
</svg>