<svg xmlns="http://www.w3.org/2000/svg" width="400.0" height="400.0" viewBox="0 0 400.0 400.0">
<rect width="400.0" height="400.0" fill="white"/>
<circle cx="125.53" cy="74.44" r="16.68" fill="#cccccc" stroke="#000000" stroke-width="1.00"/>
<circle cx="26.69" cy="188.92" r="16.68" fill="#cccccc" stroke="#000000" stroke-width="1.00"/>
<circle cx="313.99" cy="283.47" r="16.68" fill="#cccccc" stroke="#000000" stroke-width="1.00"/>
<circle cx="26.69" cy="289.00" r="16.68" fill="#cccccc" stroke="#000000" stroke-width="1.00"/>
<circle cx="55.58" cy="238.96" r="16.68" fill="#cccccc" stroke="#000000" stroke-width="1.00"/>
<circle cx="248.68" cy="216.68" r="16.68" fill="#cccccc" stroke="#000000" stroke-width="1.00"/>
<circle cx="277.03" cy="250.30" r="16.68" fill="#cccccc" stroke="#000000" stroke-width="1.00"/>
<circle cx="84.48" cy="255.64" r="16.68" fill="#cccccc" stroke="#000000" stroke-width="1.00"/>
<circle cx="344.35" cy="233.25" r="16.68" fill="#cccccc" stroke="#000000" stroke-width="1.00"/>
<circle cx="304.72" cy="315.52" r="16.68" fill="#cccccc" stroke="#000000" stroke-width="1.00"/>
<circle cx="26.69" cy="322.37" r="16.68" fill="#cccccc" stroke="#000000" stroke-width="1.00"/>
<circle cx="142.26" cy="255.64" r="16.68" fill="#cccccc" stroke="#000000" stroke-width="1.00"/>
<circle cx="183.32" cy="74.44" r="16.68" fill="#cccccc" stroke="#000000" stroke-width="1.00"/>
<circle cx="171.16" cy="238.96" r="16.68" fill="#cccccc" stroke="#000000" stroke-width="1.00"/>
<circle cx="154.59" cy="344.42" r="16.68" fill="#cccccc" stroke="#000000" stroke-width="1.00"/>
<circle cx="26.69" cy="155.55" r="16.68" fill="#cccccc" stroke="#000000" stroke-width="1.00"/>
<circle cx="315.39" cy="216.68" r="16.68" fill="#cccccc" stroke="#000000" stroke-width="1.00"/>
<circle cx="282.04" cy="217.32" r="16.68" fill="#cccccc" stroke="#000000" stroke-width="1.00"/>
<circle cx="115.51" cy="275.58" r="16.68" fill="#cccccc" stroke="#000000" stroke-width="1.00"/>
<circle cx="55.58" cy="172.23" r="16.68" fill="#cccccc" stroke="#000000" stroke-width="1.00"/>
<circle cx="67.45" cy="373.31" r="16.68" fill="#cccccc" stroke="#000000" stroke-width="1.00"/>
<circle cx="373.31" cy="316.68" r="16.68" fill="#cccccc" stroke="#000000" stroke-width="1.00"/>
<circle cx="215.32" cy="217.32" r="16.68" fill="#cccccc" stroke="#000000" stroke-width="1.00"/>
<circle cx="67.75" cy="107.80" r="16.68" fill="#cccccc" stroke="#000000" stroke-width="1.00"/>
<circle cx="254.68" cy="344.42" r="16.68" fill="#cccccc" stroke="#000000" stroke-width="1.00"/>
<circle cx="142.26" cy="26.69" r="16.68" fill="#cccccc" stroke="#000000" stroke-width="1.00"/>
<circle cx="354.76" cy="344.42" r="16.68" fill="#cccccc" stroke="#000000" stroke-width="1.00"/>
<circle cx="171.27" cy="373.31" r="16.68" fill="#cccccc" stroke="#000000" stroke-width="1.00"/>
<circle cx="338.17" cy="315.35" r="16.68" fill="#cccccc" stroke="#000000" stroke-width="1.00"/>
<circle cx="84.48" cy="26.69" r="16.68" fill="#cccccc" stroke="#000000" stroke-width="1.00"/>
<circle cx="183.32" cy="207.89" r="16.68" fill="#cccccc" stroke="#000000" stroke-width="1.00"/>
<circle cx="26.69" cy="255.64" r="16.68" fill="#cccccc" stroke="#000000" stroke-width="1.00"/>
<circle cx="154.43" cy="191.21" r="16.68" fill="#cccccc" stroke="#000000" stroke-width="1.00"/>
<circle cx="27.89" cy="371.81" r="16.68" fill="#cccccc" stroke="#000000" stroke-width="1.00"/>
<circle cx="154.49" cy="286.68" r="16.68" fill="#cccccc" stroke="#000000" stroke-width="1.00"/>
<circle cx="125.53" cy="174.53" r="16.68" fill="#cccccc" stroke="#000000" stroke-width="1.00"/>
<circle cx="84.48" cy="60.05" r="16.68" fill="#cccccc" stroke="#000000" stroke-width="1.00"/>
<circle cx="372.67" cy="372.57" r="16.68" fill="#cccccc" stroke="#000000" stroke-width="1.00"/>
<circle cx="67.75" cy="141.17" r="16.68" fill="#cccccc" stroke="#000000" stroke-width="1.00"/>
<circle cx="321.40" cy="344.42" r="16.68" fill="#cccccc" stroke="#000000" stroke-width="1.00"/>
<circle cx="84.48" cy="222.28" r="16.68" fill="#cccccc" stroke="#000000" stroke-width="1.00"/>
<circle cx="55.58" cy="43.37" r="16.68" fill="#cccccc" stroke="#000000" stroke-width="1.00"/>
<circle cx="304.72" cy="373.31" r="16.68" fill="#cccccc" stroke="#000000" stroke-width="1.00"/>
<circle cx="125.53" cy="141.17" r="16.68" fill="#cccccc" stroke="#000000" stroke-width="1.00"/>
<circle cx="237.99" cy="314.89" r="16.68" fill="#cccccc" stroke="#000000" stroke-width="1.00"/>
<circle cx="180.55" cy="32.30" r="16.68" fill="#cccccc" stroke="#000000" stroke-width="1.00"/>
<circle cx="55.58" cy="76.74" r="16.68" fill="#cccccc" stroke="#000000" stroke-width="1.00"/>
<circle cx="84.48" cy="188.92" r="16.68" fill="#cccccc" stroke="#000000" stroke-width="1.00"/>
<circle cx="187.95" cy="344.42" r="16.68" fill="#cccccc" stroke="#000000" stroke-width="1.00"/>
<circle cx="26.69" cy="26.69" r="16.68" fill="#cccccc" stroke="#000000" stroke-width="1.00"/>
<circle cx="280.62" cy="283.47" r="16.68" fill="#cccccc" stroke="#000000" stroke-width="1.00"/>
<circle cx="183.39" cy="270.00" r="16.68" fill="#cccccc" stroke="#000000" stroke-width="1.00"/>
<circle cx="342.75" cy="266.58" r="16.68" fill="#cccccc" stroke="#000000" stroke-width="1.00"/>
<circle cx="96.64" cy="124.48" r="16.68" fill="#cccccc" stroke="#000000" stroke-width="1.00"/>
<circle cx="183.32" cy="107.80" r="16.68" fill="#cccccc" stroke="#000000" stroke-width="1.00"/>
<circle cx="26.69" cy="222.28" r="16.68" fill="#cccccc" stroke="#000000" stroke-width="1.00"/>
<circle cx="171.27" cy="315.52" r="16.68" fill="#cccccc" stroke="#000000" stroke-width="1.00"/>
<circle cx="183.32" cy="174.53" r="16.68" fill="#cccccc" stroke="#000000" stroke-width="1.00"/>
<circle cx="104.45" cy="315.73" r="16.68" fill="#cccccc" stroke="#000000" stroke-width="1.00"/>
<circle cx="271.36" cy="315.52" r="16.68" fill="#cccccc" stroke="#000000" stroke-width="1.00"/>
<circle cx="55.58" cy="205.60" r="16.68" fill="#cccccc" stroke="#000000" stroke-width="1.00"/>
<circle cx="371.59" cy="283.36" r="16.68" fill="#cccccc" stroke="#000000" stroke-width="1.00"/>
<circle cx="119.36" cy="345.58" r="16.68" fill="#cccccc" stroke="#000000" stroke-width="1.00"/>
<circle cx="26.69" cy="93.42" r="16.68" fill="#cccccc" stroke="#000000" stroke-width="1.00"/>
<circle cx="125.53" cy="107.80" r="16.68" fill="#cccccc" stroke="#000000" stroke-width="1.00"/>
<circle cx="137.90" cy="373.31" r="16.68" fill="#cccccc" stroke="#000000" stroke-width="1.00"/>
<circle cx="338.08" cy="373.31" r="16.68" fill="#cccccc" stroke="#000000" stroke-width="1.00"/>
<circle cx="243.68" cy="249.67" r="16.68" fill="#cccccc" stroke="#000000" stroke-width="1.00"/>
<circle cx="142.26" cy="222.28" r="16.68" fill="#cccccc" stroke="#000000" stroke-width="1.00"/>
<circle cx="237.99" cy="373.31" r="16.68" fill="#cccccc" stroke="#000000" stroke-width="1.00"/>
<circle cx="288.04" cy="344.42" r="16.68" fill="#cccccc" stroke="#000000" stroke-width="1.00"/>
<circle cx="113.37" cy="43.37" r="16.68" fill="#cccccc" stroke="#000000" stroke-width="1.00"/>
<circle cx="154.43" cy="124.48" r="16.68" fill="#cccccc" stroke="#000000" stroke-width="1.00"/>
<circle cx="310.75" cy="249.80" r="16.68" fill="#cccccc" stroke="#000000" stroke-width="1.00"/>
<circle cx="26.69" cy="60.05" r="16.68" fill="#cccccc" stroke="#000000" stroke-width="1.00"/>
<circle cx="373.31" cy="250.04" r="16.68" fill="#cccccc" stroke="#000000" stroke-width="1.00"/>
<circle cx="113.37" cy="238.96" r="16.68" fill="#cccccc" stroke="#000000" stroke-width="1.00"/>
<circle cx="96.64" cy="157.85" r="16.68" fill="#cccccc" stroke="#000000" stroke-width="1.00"/>
<circle cx="213.91" cy="283.48" r="16.68" fill="#cccccc" stroke="#000000" stroke-width="1.00"/>
<circle cx="52.54" cy="343.46" r="16.68" fill="#cccccc" stroke="#000000" stroke-width="1.00"/>
<circle cx="204.63" cy="373.31" r="16.68" fill="#cccccc" stroke="#000000" stroke-width="1.00"/>
<circle cx="85.90" cy="343.46" r="16.68" fill="#cccccc" stroke="#000000" stroke-width="1.00"/>
<circle cx="113.37" cy="205.60" r="16.68" fill="#cccccc" stroke="#000000" stroke-width="1.00"/>
<circle cx="183.32" cy="141.17" r="16.68" fill="#cccccc" stroke="#000000" stroke-width="1.00"/>
<circle cx="373.31" cy="216.68" r="16.68" fill="#cccccc" stroke="#000000" stroke-width="1.00"/>
<circle cx="247.27" cy="282.84" r="16.68" fill="#cccccc" stroke="#000000" stroke-width="1.00"/>
<circle cx="57.99" cy="310.40" r="16.68" fill="#cccccc" stroke="#000000" stroke-width="1.00"/>
<circle cx="84.48" cy="289.00" r="16.68" fill="#cccccc" stroke="#000000" stroke-width="1.00"/>
<circle cx="154.43" cy="57.76" r="16.68" fill="#cccccc" stroke="#000000" stroke-width="1.00"/>
<circle cx="210.32" cy="250.31" r="16.68" fill="#cccccc" stroke="#000000" stroke-width="1.00"/>
<circle cx="221.31" cy="344.42" r="16.68" fill="#cccccc" stroke="#000000" stroke-width="1.00"/>
<circle cx="271.36" cy="373.31" r="16.68" fill="#cccccc" stroke="#000000" stroke-width="1.00"/>
<circle cx="204.63" cy="315.52" r="16.68" fill="#cccccc" stroke="#000000" stroke-width="1.00"/>
<circle cx="96.64" cy="91.12" r="16.68" fill="#cccccc" stroke="#000000" stroke-width="1.00"/>
<circle cx="55.58" cy="272.32" r="16.68" fill="#cccccc" stroke="#000000" stroke-width="1.00"/>
<circle cx="38.85" cy="124.48" r="16.68" fill="#cccccc" stroke="#000000" stroke-width="1.00"/>
<circle cx="154.43" cy="157.85" r="16.68" fill="#cccccc" stroke="#000000" stroke-width="1.00"/>
<circle cx="100.81" cy="373.31" r="16.68" fill="#cccccc" stroke="#000000" stroke-width="1.00"/>
<circle cx="154.43" cy="91.12" r="16.68" fill="#cccccc" stroke="#000000" stroke-width="1.00"/>
<circle cx="137.81" cy="315.58" r="16.68" fill="#cccccc" stroke="#000000" stroke-width="1.00"/>
<polygon points="10.01,389.99 389.99,389.99 389.99,200.00 200.00,200.00 200.00,10.01 10.01,10.01" fill="none" stroke="#000000" stroke-width="1.40"/>
</svg>