<svg xmlns="http://www.w3.org/2000/svg" width="720.0" height="720.0" viewBox="0 0 720.0 720.0">
<defs><clipPath id="inside"><polygon points="59.979,660.021 660.021,660.021 660.021,360.000 360.000,360.000 360.000,59.979 59.979,59.979"/></clipPath></defs>
<rect width="720.0" height="720.0" fill="white"/>
<circle cx="300.021" cy="119.957" r="59.979" fill="#7fb3d5" fill-opacity="0.65" stroke="#1f4e79" stroke-width="1" clip-path="url(#inside)"/>
<circle cx="300.021" cy="119.957" r="1.4" fill="#1f4e79"/>
<circle cx="600.043" cy="419.979" r="59.979" fill="#7fb3d5" fill-opacity="0.65" stroke="#1f4e79" stroke-width="1" clip-path="url(#inside)"/>
<circle cx="600.043" cy="419.979" r="1.4" fill="#1f4e79"/>
<circle cx="362.226" cy="510.011" r="59.979" fill="#7fb3d5" fill-opacity="0.65" stroke="#1f4e79" stroke-width="1" clip-path="url(#inside)"/>
<circle cx="362.226" cy="510.011" r="1.4" fill="#1f4e79"/>
<circle cx="235.783" cy="489.749" r="59.979" fill="#7fb3d5" fill-opacity="0.65" stroke="#1f4e79" stroke-width="1" clip-path="url(#inside)"/>
<circle cx="235.783" cy="489.749" r="1.4" fill="#1f4e79"/>
<circle cx="143.217" cy="600.043" r="59.979" fill="#7fb3d5" fill-opacity="0.65" stroke="#1f4e79" stroke-width="1" clip-path="url(#inside)"/>
<circle cx="143.217" cy="600.043" r="1.4" fill="#1f4e79"/>
<circle cx="441.498" cy="600.043" r="59.979" fill="#7fb3d5" fill-opacity="0.65" stroke="#1f4e79" stroke-width="1" clip-path="url(#inside)"/>
<circle cx="441.498" cy="600.043" r="1.4" fill="#1f4e79"/>
<circle cx="300.021" cy="280.705" r="59.979" fill="#7fb3d5" fill-opacity="0.65" stroke="#1f4e79" stroke-width="1" clip-path="url(#inside)"/>
<circle cx="300.021" cy="280.705" r="1.4" fill="#1f4e79"/>
<circle cx="119.957" cy="458.537" r="59.979" fill="#7fb3d5" fill-opacity="0.65" stroke="#1f4e79" stroke-width="1" clip-path="url(#inside)"/>
<circle cx="119.957" cy="458.537" r="1.4" fill="#1f4e79"/>
<circle cx="199.230" cy="368.506" r="59.979" fill="#7fb3d5" fill-opacity="0.65" stroke="#1f4e79" stroke-width="1" clip-path="url(#inside)"/>
<circle cx="199.230" cy="368.506" r="1.4" fill="#1f4e79"/>
<circle cx="600.043" cy="600.043" r="59.979" fill="#7fb3d5" fill-opacity="0.65" stroke="#1f4e79" stroke-width="1" clip-path="url(#inside)"/>
<circle cx="600.043" cy="600.043" r="1.4" fill="#1f4e79"/>
<circle cx="121.920" cy="119.960" r="59.979" fill="#7fb3d5" fill-opacity="0.65" stroke="#1f4e79" stroke-width="1" clip-path="url(#inside)"/>
<circle cx="121.920" cy="119.960" r="1.4" fill="#1f4e79"/>
<circle cx="315.055" cy="399.717" r="59.979" fill="#7fb3d5" fill-opacity="0.65" stroke="#1f4e79" stroke-width="1" clip-path="url(#inside)"/>
<circle cx="315.055" cy="399.717" r="1.4" fill="#1f4e79"/>
<circle cx="282.954" cy="600.043" r="59.979" fill="#7fb3d5" fill-opacity="0.65" stroke="#1f4e79" stroke-width="1" clip-path="url(#inside)"/>
<circle cx="282.954" cy="600.043" r="1.4" fill="#1f4e79"/>
<circle cx="119.957" cy="278.474" r="59.979" fill="#7fb3d5" fill-opacity="0.65" stroke="#1f4e79" stroke-width="1" clip-path="url(#inside)"/>
<circle cx="119.957" cy="278.474" r="1.4" fill="#1f4e79"/>
<circle cx="520.770" cy="510.011" r="59.979" fill="#7fb3d5" fill-opacity="0.65" stroke="#1f4e79" stroke-width="1" clip-path="url(#inside)"/>
<circle cx="520.770" cy="510.011" r="1.4" fill="#1f4e79"/>
<circle cx="210.972" cy="200.331" r="59.979" fill="#7fb3d5" fill-opacity="0.65" stroke="#1f4e79" stroke-width="1" clip-path="url(#inside)"/>
<circle cx="210.972" cy="200.331" r="1.4" fill="#1f4e79"/>
<circle cx="441.498" cy="419.979" r="59.979" fill="#7fb3d5" fill-opacity="0.65" stroke="#1f4e79" stroke-width="1" clip-path="url(#inside)"/>
<circle cx="441.498" cy="419.979" r="1.4" fill="#1f4e79"/>
<path d="M 54.581,54.581 L 365.398,54.581 L 365.398,354.602 L 665.419,354.602 L 665.419,665.419 L 54.581,665.419 L 54.581,54.581 Z M 660.021,660.021 L 660.021,360.000 L 360.000,360.000 L 360.000,59.979 L 59.979,59.979 L 59.979,660.021 L 660.021,660.021 Z" fill="#000000" fill-rule="evenodd"/>
<text x="6" y="16" font-family="sans-serif" font-size="13" fill="#222">circles in L-tromino  n=17  s=10.004254</text>
</svg>