<svg xmlns="http://www.w3.org/2000/svg" width="720.0" height="720.0" viewBox="0 0 720.0 720.0">
<defs><clipPath id="inside"><polygon points="57.762,662.238 662.238,662.238 662.238,360.000 360.000,360.000 360.000,57.762 57.762,57.762"/></clipPath></defs>
<rect width="720.0" height="720.0" fill="white"/>
<circle cx="513.492" cy="604.476" r="57.762" fill="#7fb3d5" fill-opacity="0.65" stroke="#1f4e79" stroke-width="1" clip-path="url(#inside)"/>
<circle cx="513.492" cy="604.476" r="1.4" fill="#1f4e79"/>
<circle cx="434.861" cy="519.841" r="57.762" fill="#7fb3d5" fill-opacity="0.65" stroke="#1f4e79" stroke-width="1" clip-path="url(#inside)"/>
<circle cx="434.861" cy="519.841" r="1.4" fill="#1f4e79"/>
<circle cx="115.524" cy="604.476" r="57.762" fill="#7fb3d5" fill-opacity="0.65" stroke="#1f4e79" stroke-width="1" clip-path="url(#inside)"/>
<circle cx="115.524" cy="604.476" r="1.4" fill="#1f4e79"/>
<circle cx="235.877" cy="407.281" r="57.762" fill="#7fb3d5" fill-opacity="0.65" stroke="#1f4e79" stroke-width="1" clip-path="url(#inside)"/>
<circle cx="235.877" cy="407.281" r="1.4" fill="#1f4e79"/>
<circle cx="356.229" cy="604.476" r="57.762" fill="#7fb3d5" fill-opacity="0.65" stroke="#1f4e79" stroke-width="1" clip-path="url(#inside)"/>
<circle cx="356.229" cy="604.476" r="1.4" fill="#1f4e79"/>
<circle cx="181.885" cy="115.524" r="57.762" fill="#7fb3d5" fill-opacity="0.65" stroke="#1f4e79" stroke-width="1" clip-path="url(#inside)"/>
<circle cx="181.885" cy="115.524" r="1.4" fill="#1f4e79"/>
<circle cx="174.143" cy="309.635" r="57.762" fill="#7fb3d5" fill-opacity="0.65" stroke="#1f4e79" stroke-width="1" clip-path="url(#inside)"/>
<circle cx="174.143" cy="309.635" r="1.4" fill="#1f4e79"/>
<circle cx="300.215" cy="115.556" r="57.762" fill="#7fb3d5" fill-opacity="0.65" stroke="#1f4e79" stroke-width="1" clip-path="url(#inside)"/>
<circle cx="300.215" cy="115.556" r="1.4" fill="#1f4e79"/>
<circle cx="177.258" cy="506.829" r="57.762" fill="#7fb3d5" fill-opacity="0.65" stroke="#1f4e79" stroke-width="1" clip-path="url(#inside)"/>
<circle cx="177.258" cy="506.829" r="1.4" fill="#1f4e79"/>
<circle cx="115.524" cy="409.183" r="57.762" fill="#7fb3d5" fill-opacity="0.65" stroke="#1f4e79" stroke-width="1" clip-path="url(#inside)"/>
<circle cx="115.524" cy="409.183" r="1.4" fill="#1f4e79"/>
<circle cx="115.524" cy="210.087" r="57.762" fill="#7fb3d5" fill-opacity="0.65" stroke="#1f4e79" stroke-width="1" clip-path="url(#inside)"/>
<circle cx="115.524" cy="210.087" r="1.4" fill="#1f4e79"/>
<circle cx="240.504" cy="215.072" r="57.762" fill="#7fb3d5" fill-opacity="0.65" stroke="#1f4e79" stroke-width="1" clip-path="url(#inside)"/>
<circle cx="240.504" cy="215.072" r="1.4" fill="#1f4e79"/>
<circle cx="238.992" cy="604.476" r="57.762" fill="#7fb3d5" fill-opacity="0.65" stroke="#1f4e79" stroke-width="1" clip-path="url(#inside)"/>
<circle cx="238.992" cy="604.476" r="1.4" fill="#1f4e79"/>
<circle cx="373.427" cy="417.762" r="57.762" fill="#7fb3d5" fill-opacity="0.65" stroke="#1f4e79" stroke-width="1" clip-path="url(#inside)"/>
<circle cx="373.427" cy="417.762" r="1.4" fill="#1f4e79"/>
<circle cx="488.951" cy="417.762" r="57.762" fill="#7fb3d5" fill-opacity="0.65" stroke="#1f4e79" stroke-width="1" clip-path="url(#inside)"/>
<circle cx="488.951" cy="417.762" r="1.4" fill="#1f4e79"/>
<circle cx="302.238" cy="312.719" r="57.762" fill="#7fb3d5" fill-opacity="0.65" stroke="#1f4e79" stroke-width="1" clip-path="url(#inside)"/>
<circle cx="302.238" cy="312.719" r="1.4" fill="#1f4e79"/>
<circle cx="604.476" cy="417.762" r="57.762" fill="#7fb3d5" fill-opacity="0.65" stroke="#1f4e79" stroke-width="1" clip-path="url(#inside)"/>
<circle cx="604.476" cy="417.762" r="1.4" fill="#1f4e79"/>
<circle cx="604.476" cy="533.287" r="57.762" fill="#7fb3d5" fill-opacity="0.65" stroke="#1f4e79" stroke-width="1" clip-path="url(#inside)"/>
<circle cx="604.476" cy="533.287" r="1.4" fill="#1f4e79"/>
<circle cx="297.611" cy="504.928" r="57.762" fill="#7fb3d5" fill-opacity="0.65" stroke="#1f4e79" stroke-width="1" clip-path="url(#inside)"/>
<circle cx="297.611" cy="504.928" r="1.4" fill="#1f4e79"/>
<path d="M 52.564,52.564 L 365.199,52.564 L 365.199,354.801 L 667.436,354.801 L 667.436,667.436 L 52.564,667.436 L 52.564,52.564 Z M 662.238,662.238 L 662.238,360.000 L 360.000,360.000 L 360.000,57.762 L 57.762,57.762 L 57.762,662.238 L 662.238,662.238 Z" fill="#000000" fill-rule="evenodd"/>
<text x="6" y="16" font-family="sans-serif" font-size="13" fill="#222">circles in L-tromino  n=19  s=10.464897</text>
</svg>