<svg xmlns="http://www.w3.org/2000/svg" width="400.0" height="400.0" viewBox="0 0 400.0 400.0">
<rect width="400.0" height="400.0" fill="white"/>
<circle cx="291.12" cy="345.13" r="34.29" fill="#cccccc" stroke="#000000" stroke-width="1.00"/>
<circle cx="244.44" cy="294.89" r="34.29" fill="#cccccc" stroke="#000000" stroke-width="1.00"/>
<circle cx="54.87" cy="345.13" r="34.29" fill="#cccccc" stroke="#000000" stroke-width="1.00"/>
<circle cx="126.31" cy="228.07" r="34.29" fill="#cccccc" stroke="#000000" stroke-width="1.00"/>
<circle cx="197.76" cy="345.13" r="34.29" fill="#cccccc" stroke="#000000" stroke-width="1.00"/>
<circle cx="94.26" cy="54.87" r="34.29" fill="#cccccc" stroke="#000000" stroke-width="1.00"/>
<circle cx="89.66" cy="170.10" r="34.29" fill="#cccccc" stroke="#000000" stroke-width="1.00"/>
<circle cx="164.51" cy="54.88" r="34.29" fill="#cccccc" stroke="#000000" stroke-width="1.00"/>
<circle cx="91.51" cy="287.17" r="34.29" fill="#cccccc" stroke="#000000" stroke-width="1.00"/>
<circle cx="54.87" cy="229.20" r="34.29" fill="#cccccc" stroke="#000000" stroke-width="1.00"/>
<circle cx="54.87" cy="111.00" r="34.29" fill="#cccccc" stroke="#000000" stroke-width="1.00"/>
<circle cx="129.06" cy="113.96" r="34.29" fill="#cccccc" stroke="#000000" stroke-width="1.00"/>
<circle cx="128.16" cy="345.13" r="34.29" fill="#cccccc" stroke="#000000" stroke-width="1.00"/>
<circle cx="207.97" cy="234.29" r="34.29" fill="#cccccc" stroke="#000000" stroke-width="1.00"/>
<circle cx="276.55" cy="234.29" r="34.29" fill="#cccccc" stroke="#000000" stroke-width="1.00"/>
<circle cx="165.71" cy="171.93" r="34.29" fill="#cccccc" stroke="#000000" stroke-width="1.00"/>
<circle cx="345.13" cy="234.29" r="34.29" fill="#cccccc" stroke="#000000" stroke-width="1.00"/>
<circle cx="345.13" cy="302.87" r="34.29" fill="#cccccc" stroke="#000000" stroke-width="1.00"/>
<circle cx="162.96" cy="286.04" r="34.29" fill="#cccccc" stroke="#000000" stroke-width="1.00"/>
<polygon points="20.57,379.43 379.43,379.43 379.43,200.00 200.00,200.00 200.00,20.57 20.57,20.57" fill="none" stroke="#000000" stroke-width="1.40"/>
</svg>