<svg xmlns="http://www.w3.org/2000/svg" width="720.0" height="720.0" viewBox="0 0 720.0 720.0">
<defs><clipPath id="inside"><polygon points="57.067,662.933 662.933,662.933 662.933,360.000 360.000,360.000 360.000,57.067 57.067,57.067"/></clipPath></defs>
<rect width="720.0" height="720.0" fill="white"/>
<circle cx="605.865" cy="604.423" r="57.067" fill="#7fb3d5" fill-opacity="0.65" stroke="#1f4e79" stroke-width="1" clip-path="url(#inside)"/>
<circle cx="605.865" cy="604.423" r="1.4" fill="#1f4e79"/>
<circle cx="275.602" cy="502.007" r="57.067" fill="#7fb3d5" fill-opacity="0.65" stroke="#1f4e79" stroke-width="1" clip-path="url(#inside)"/>
<circle cx="275.602" cy="502.007" r="1.4" fill="#1f4e79"/>
<circle cx="161.467" cy="502.007" r="57.067" fill="#7fb3d5" fill-opacity="0.65" stroke="#1f4e79" stroke-width="1" clip-path="url(#inside)"/>
<circle cx="161.467" cy="502.007" r="1.4" fill="#1f4e79"/>
<circle cx="188.798" cy="114.135" r="57.067" fill="#7fb3d5" fill-opacity="0.65" stroke="#1f4e79" stroke-width="1" clip-path="url(#inside)"/>
<circle cx="188.798" cy="114.135" r="1.4" fill="#1f4e79"/>
<circle cx="470.392" cy="417.067" r="57.067" fill="#7fb3d5" fill-opacity="0.65" stroke="#1f4e79" stroke-width="1" clip-path="url(#inside)"/>
<circle cx="470.392" cy="417.067" r="1.4" fill="#1f4e79"/>
<circle cx="302.933" cy="114.135" r="57.067" fill="#7fb3d5" fill-opacity="0.65" stroke="#1f4e79" stroke-width="1" clip-path="url(#inside)"/>
<circle cx="302.933" cy="114.135" r="1.4" fill="#1f4e79"/>
<circle cx="410.141" cy="514.003" r="57.067" fill="#7fb3d5" fill-opacity="0.65" stroke="#1f4e79" stroke-width="1" clip-path="url(#inside)"/>
<circle cx="410.141" cy="514.003" r="1.4" fill="#1f4e79"/>
<circle cx="245.865" cy="212.979" r="57.067" fill="#7fb3d5" fill-opacity="0.65" stroke="#1f4e79" stroke-width="1" clip-path="url(#inside)"/>
<circle cx="245.865" cy="212.979" r="1.4" fill="#1f4e79"/>
<circle cx="228.270" cy="605.865" r="57.067" fill="#7fb3d5" fill-opacity="0.65" stroke="#1f4e79" stroke-width="1" clip-path="url(#inside)"/>
<circle cx="228.270" cy="605.865" r="1.4" fill="#1f4e79"/>
<circle cx="477.877" cy="605.865" r="57.067" fill="#7fb3d5" fill-opacity="0.65" stroke="#1f4e79" stroke-width="1" clip-path="url(#inside)"/>
<circle cx="477.877" cy="605.865" r="1.4" fill="#1f4e79"/>
<circle cx="114.135" cy="398.149" r="57.067" fill="#7fb3d5" fill-opacity="0.65" stroke="#1f4e79" stroke-width="1" clip-path="url(#inside)"/>
<circle cx="114.135" cy="398.149" r="1.4" fill="#1f4e79"/>
<circle cx="351.043" cy="416.360" r="57.067" fill="#7fb3d5" fill-opacity="0.65" stroke="#1f4e79" stroke-width="1" clip-path="url(#inside)"/>
<circle cx="351.043" cy="416.360" r="1.4" fill="#1f4e79"/>
<circle cx="171.202" cy="299.305" r="57.067" fill="#7fb3d5" fill-opacity="0.65" stroke="#1f4e79" stroke-width="1" clip-path="url(#inside)"/>
<circle cx="171.202" cy="299.305" r="1.4" fill="#1f4e79"/>
<circle cx="114.135" cy="605.865" r="57.067" fill="#7fb3d5" fill-opacity="0.65" stroke="#1f4e79" stroke-width="1" clip-path="url(#inside)"/>
<circle cx="114.135" cy="605.865" r="1.4" fill="#1f4e79"/>
<circle cx="342.405" cy="605.865" r="57.067" fill="#7fb3d5" fill-opacity="0.65" stroke="#1f4e79" stroke-width="1" clip-path="url(#inside)"/>
<circle cx="342.405" cy="605.865" r="1.4" fill="#1f4e79"/>
<circle cx="605.865" cy="417.067" r="57.067" fill="#7fb3d5" fill-opacity="0.65" stroke="#1f4e79" stroke-width="1" clip-path="url(#inside)"/>
<circle cx="605.865" cy="417.067" r="1.4" fill="#1f4e79"/>
<circle cx="538.129" cy="508.929" r="57.067" fill="#7fb3d5" fill-opacity="0.65" stroke="#1f4e79" stroke-width="1" clip-path="url(#inside)"/>
<circle cx="538.129" cy="508.929" r="1.4" fill="#1f4e79"/>
<circle cx="302.933" cy="311.822" r="57.067" fill="#7fb3d5" fill-opacity="0.65" stroke="#1f4e79" stroke-width="1" clip-path="url(#inside)"/>
<circle cx="302.933" cy="311.822" r="1.4" fill="#1f4e79"/>
<circle cx="114.135" cy="200.461" r="57.067" fill="#7fb3d5" fill-opacity="0.65" stroke="#1f4e79" stroke-width="1" clip-path="url(#inside)"/>
<circle cx="114.135" cy="200.461" r="1.4" fill="#1f4e79"/>
<circle cx="228.270" cy="398.149" r="57.067" fill="#7fb3d5" fill-opacity="0.65" stroke="#1f4e79" stroke-width="1" clip-path="url(#inside)"/>
<circle cx="228.270" cy="398.149" r="1.4" fill="#1f4e79"/>
<path d="M 51.931,51.931 L 365.136,51.931 L 365.136,354.864 L 668.069,354.864 L 668.069,668.069 L 51.931,668.069 L 51.931,51.931 Z M 662.933,662.933 L 662.933,360.000 L 360.000,360.000 L 360.000,57.067 L 57.067,57.067 L 57.067,662.933 L 662.933,662.933 Z" fill="#000000" fill-rule="evenodd"/>
<text x="6" y="16" font-family="sans-serif" font-size="13" fill="#222">circles in L-tromino  n=20  s=10.616645</text>
</svg>