<svg xmlns="http://www.w3.org/2000/svg" width="720.0" height="720.0" viewBox="0 0 720.0 720.0">
<defs><clipPath id="inside"><polygon points="56.138,663.862 663.862,663.862 663.862,360.000 360.000,360.000 360.000,56.138 56.138,56.138"/></clipPath>
<mask id="outside"><rect width="720.0" height="720.0" fill="white"/><polygon points="56.138,663.862 663.862,663.862 663.862,360.000 360.000,360.000 360.000,56.138 56.138,56.138" fill="black"/></mask></defs>
<rect width="720.0" height="720.0" fill="white"/>
<circle cx="607.725" cy="416.138" r="56.138" fill="#7fb3d5" fill-opacity="0.65" stroke="#1f4e79" stroke-width="1" clip-path="url(#inside)"/>
<circle cx="607.725" cy="416.138" r="1.4" fill="#1f4e79"/>
<circle cx="191.148" cy="309.299" r="56.138" fill="#7fb3d5" fill-opacity="0.65" stroke="#1f4e79" stroke-width="1" clip-path="url(#inside)"/>
<circle cx="191.148" cy="309.299" r="1.4" fill="#1f4e79"/>
<circle cx="138.116" cy="498.464" r="56.138" fill="#7fb3d5" fill-opacity="0.65" stroke="#1f4e79" stroke-width="1" clip-path="url(#inside)"/>
<circle cx="138.116" cy="498.464" r="1.4" fill="#1f4e79"/>
<circle cx="221.413" cy="581.299" r="56.138" fill="#7fb3d5" fill-opacity="0.65" stroke="#1f4e79" stroke-width="1" clip-path="url(#inside)"/>
<circle cx="221.413" cy="581.299" r="1.4" fill="#1f4e79"/>
<circle cx="112.275" cy="112.275" r="56.138" fill="#7fb3d5" fill-opacity="0.65" stroke="#1f4e79" stroke-width="1" clip-path="url(#inside)"/>
<circle cx="112.275" cy="112.275" r="1.4" fill="#1f4e79"/>
<circle cx="219.818" cy="421.455" r="56.138" fill="#7fb3d5" fill-opacity="0.65" stroke="#1f4e79" stroke-width="1" clip-path="url(#inside)"/>
<circle cx="219.818" cy="421.455" r="1.4" fill="#1f4e79"/>
<circle cx="549.165" cy="511.931" r="56.138" fill="#7fb3d5" fill-opacity="0.65" stroke="#1f4e79" stroke-width="1" clip-path="url(#inside)"/>
<circle cx="549.165" cy="511.931" r="1.4" fill="#1f4e79"/>
<circle cx="112.275" cy="389.203" r="56.138" fill="#7fb3d5" fill-opacity="0.65" stroke="#1f4e79" stroke-width="1" clip-path="url(#inside)"/>
<circle cx="112.275" cy="389.203" r="1.4" fill="#1f4e79"/>
<circle cx="303.862" cy="112.275" r="56.138" fill="#7fb3d5" fill-opacity="0.65" stroke="#1f4e79" stroke-width="1" clip-path="url(#inside)"/>
<circle cx="303.862" cy="112.275" r="1.4" fill="#1f4e79"/>
<circle cx="303.862" cy="229.394" r="56.138" fill="#7fb3d5" fill-opacity="0.65" stroke="#1f4e79" stroke-width="1" clip-path="url(#inside)"/>
<circle cx="303.862" cy="229.394" r="1.4" fill="#1f4e79"/>
<circle cx="112.275" cy="229.394" r="56.138" fill="#7fb3d5" fill-opacity="0.65" stroke="#1f4e79" stroke-width="1" clip-path="url(#inside)"/>
<circle cx="112.275" cy="229.394" r="1.4" fill="#1f4e79"/>
<circle cx="378.419" cy="420.602" r="56.138" fill="#7fb3d5" fill-opacity="0.65" stroke="#1f4e79" stroke-width="1" clip-path="url(#inside)"/>
<circle cx="378.419" cy="420.602" r="1.4" fill="#1f4e79"/>
<circle cx="411.733" cy="527.820" r="56.138" fill="#7fb3d5" fill-opacity="0.65" stroke="#1f4e79" stroke-width="1" clip-path="url(#inside)"/>
<circle cx="411.733" cy="527.820" r="1.4" fill="#1f4e79"/>
<circle cx="112.275" cy="607.725" r="56.138" fill="#7fb3d5" fill-opacity="0.65" stroke="#1f4e79" stroke-width="1" clip-path="url(#inside)"/>
<circle cx="112.275" cy="607.725" r="1.4" fill="#1f4e79"/>
<circle cx="332.860" cy="607.725" r="56.138" fill="#7fb3d5" fill-opacity="0.65" stroke="#1f4e79" stroke-width="1" clip-path="url(#inside)"/>
<circle cx="332.860" cy="607.725" r="1.4" fill="#1f4e79"/>
<circle cx="208.069" cy="170.835" r="56.138" fill="#7fb3d5" fill-opacity="0.65" stroke="#1f4e79" stroke-width="1" clip-path="url(#inside)"/>
<circle cx="208.069" cy="170.835" r="1.4" fill="#1f4e79"/>
<circle cx="299.546" cy="500.506" r="56.138" fill="#7fb3d5" fill-opacity="0.65" stroke="#1f4e79" stroke-width="1" clip-path="url(#inside)"/>
<circle cx="299.546" cy="500.506" r="1.4" fill="#1f4e79"/>
<circle cx="607.725" cy="607.725" r="56.138" fill="#7fb3d5" fill-opacity="0.65" stroke="#1f4e79" stroke-width="1" clip-path="url(#inside)"/>
<circle cx="607.725" cy="607.725" r="1.4" fill="#1f4e79"/>
<circle cx="490.606" cy="607.725" r="56.138" fill="#7fb3d5" fill-opacity="0.65" stroke="#1f4e79" stroke-width="1" clip-path="url(#inside)"/>
<circle cx="490.606" cy="607.725" r="1.4" fill="#1f4e79"/>
<circle cx="298.691" cy="341.550" r="56.138" fill="#7fb3d5" fill-opacity="0.65" stroke="#1f4e79" stroke-width="1" clip-path="url(#inside)"/>
<circle cx="298.691" cy="341.550" r="1.4" fill="#1f4e79"/>
<circle cx="490.606" cy="416.138" r="56.138" fill="#7fb3d5" fill-opacity="0.65" stroke="#1f4e79" stroke-width="1" clip-path="url(#inside)"/>
<circle cx="490.606" cy="416.138" r="1.4" fill="#1f4e79"/>
<polygon points="56.138,663.862 663.862,663.862 663.862,360.000 360.000,360.000 360.000,56.138 56.138,56.138" fill="none" stroke="#000000" stroke-width="3" mask="url(#outside)"/>
<text x="6" y="16" font-family="sans-serif" font-size="13" fill="#222">circles in L-tromino  n=21  s=10.825650</text>
</svg>