<svg xmlns="http://www.w3.org/2000/svg" width="720.0" height="720.0" viewBox="0 0 720.0 720.0">
<defs><clipPath id="inside"><polygon points="55.817,664.183 664.183,664.183 664.183,360.000 360.000,360.000 360.000,55.817 55.817,55.817"/></clipPath>
<mask id="outside"><rect width="720.0" height="720.0" fill="white"/><polygon points="55.817,664.183 664.183,664.183 664.183,360.000 360.000,360.000 360.000,55.817 55.817,55.817" fill="black"/></mask></defs>
<rect width="720.0" height="720.0" fill="white"/>
<circle cx="113.944" cy="577.808" r="55.817" fill="#7fb3d5" fill-opacity="0.65" stroke="#1f4e79" stroke-width="1" clip-path="url(#inside)"/>
<circle cx="113.944" cy="577.808" r="1.4" fill="#1f4e79"/>
<circle cx="383.711" cy="415.997" r="55.817" fill="#7fb3d5" fill-opacity="0.65" stroke="#1f4e79" stroke-width="1" clip-path="url(#inside)"/>
<circle cx="383.711" cy="415.997" r="1.4" fill="#1f4e79"/>
<circle cx="207.518" cy="281.816" r="55.817" fill="#7fb3d5" fill-opacity="0.65" stroke="#1f4e79" stroke-width="1" clip-path="url(#inside)"/>
<circle cx="207.518" cy="281.816" r="1.4" fill="#1f4e79"/>
<circle cx="208.798" cy="395.654" r="55.817" fill="#7fb3d5" fill-opacity="0.65" stroke="#1f4e79" stroke-width="1" clip-path="url(#inside)"/>
<circle cx="208.798" cy="395.654" r="1.4" fill="#1f4e79"/>
<circle cx="111.634" cy="224.645" r="55.817" fill="#7fb3d5" fill-opacity="0.65" stroke="#1f4e79" stroke-width="1" clip-path="url(#inside)"/>
<circle cx="111.634" cy="224.645" r="1.4" fill="#1f4e79"/>
<circle cx="111.635" cy="111.767" r="55.817" fill="#7fb3d5" fill-opacity="0.65" stroke="#1f4e79" stroke-width="1" clip-path="url(#inside)"/>
<circle cx="111.635" cy="111.767" r="1.4" fill="#1f4e79"/>
<circle cx="304.183" cy="111.634" r="55.817" fill="#7fb3d5" fill-opacity="0.65" stroke="#1f4e79" stroke-width="1" clip-path="url(#inside)"/>
<circle cx="304.183" cy="111.634" r="1.4" fill="#1f4e79"/>
<circle cx="608.366" cy="415.817" r="55.817" fill="#7fb3d5" fill-opacity="0.65" stroke="#1f4e79" stroke-width="1" clip-path="url(#inside)"/>
<circle cx="608.366" cy="415.817" r="1.4" fill="#1f4e79"/>
<circle cx="304.183" cy="225.977" r="55.817" fill="#7fb3d5" fill-opacity="0.65" stroke="#1f4e79" stroke-width="1" clip-path="url(#inside)"/>
<circle cx="304.183" cy="225.977" r="1.4" fill="#1f4e79"/>
<circle cx="495.345" cy="608.366" r="55.817" fill="#7fb3d5" fill-opacity="0.65" stroke="#1f4e79" stroke-width="1" clip-path="url(#inside)"/>
<circle cx="495.345" cy="608.366" r="1.4" fill="#1f4e79"/>
<circle cx="431.088" cy="517.080" r="55.817" fill="#7fb3d5" fill-opacity="0.65" stroke="#1f4e79" stroke-width="1" clip-path="url(#inside)"/>
<circle cx="431.088" cy="517.080" r="1.4" fill="#1f4e79"/>
<circle cx="255.196" cy="608.366" r="55.817" fill="#7fb3d5" fill-opacity="0.65" stroke="#1f4e79" stroke-width="1" clip-path="url(#inside)"/>
<circle cx="255.196" cy="608.366" r="1.4" fill="#1f4e79"/>
<circle cx="208.299" cy="168.805" r="55.817" fill="#7fb3d5" fill-opacity="0.65" stroke="#1f4e79" stroke-width="1" clip-path="url(#inside)"/>
<circle cx="208.299" cy="168.805" r="1.4" fill="#1f4e79"/>
<circle cx="551.855" cy="512.091" r="55.817" fill="#7fb3d5" fill-opacity="0.65" stroke="#1f4e79" stroke-width="1" clip-path="url(#inside)"/>
<circle cx="551.855" cy="512.091" r="1.4" fill="#1f4e79"/>
<circle cx="608.366" cy="608.366" r="55.817" fill="#7fb3d5" fill-opacity="0.65" stroke="#1f4e79" stroke-width="1" clip-path="url(#inside)"/>
<circle cx="608.366" cy="608.366" r="1.4" fill="#1f4e79"/>
<circle cx="111.634" cy="338.987" r="55.817" fill="#7fb3d5" fill-opacity="0.65" stroke="#1f4e79" stroke-width="1" clip-path="url(#inside)"/>
<circle cx="111.634" cy="338.987" r="1.4" fill="#1f4e79"/>
<circle cx="495.345" cy="415.817" r="55.817" fill="#7fb3d5" fill-opacity="0.65" stroke="#1f4e79" stroke-width="1" clip-path="url(#inside)"/>
<circle cx="495.345" cy="415.817" r="1.4" fill="#1f4e79"/>
<circle cx="319.454" cy="507.284" r="55.817" fill="#7fb3d5" fill-opacity="0.65" stroke="#1f4e79" stroke-width="1" clip-path="url(#inside)"/>
<circle cx="319.454" cy="507.284" r="1.4" fill="#1f4e79"/>
<circle cx="111.634" cy="450.621" r="55.817" fill="#7fb3d5" fill-opacity="0.65" stroke="#1f4e79" stroke-width="1" clip-path="url(#inside)"/>
<circle cx="111.634" cy="450.621" r="1.4" fill="#1f4e79"/>
<circle cx="304.183" cy="337.655" r="55.817" fill="#7fb3d5" fill-opacity="0.65" stroke="#1f4e79" stroke-width="1" clip-path="url(#inside)"/>
<circle cx="304.183" cy="337.655" r="1.4" fill="#1f4e79"/>
<circle cx="366.830" cy="608.366" r="55.817" fill="#7fb3d5" fill-opacity="0.65" stroke="#1f4e79" stroke-width="1" clip-path="url(#inside)"/>
<circle cx="366.830" cy="608.366" r="1.4" fill="#1f4e79"/>
<circle cx="207.819" cy="507.284" r="55.817" fill="#7fb3d5" fill-opacity="0.65" stroke="#1f4e79" stroke-width="1" clip-path="url(#inside)"/>
<circle cx="207.819" cy="507.284" r="1.4" fill="#1f4e79"/>
<polygon points="55.817,664.183 664.183,664.183 664.183,360.000 360.000,360.000 360.000,55.817 55.817,55.817" fill="none" stroke="#000000" stroke-width="3" mask="url(#outside)"/>
<text x="6" y="16" font-family="sans-serif" font-size="13" fill="#222">circles in L-tromino  n=22  s=10.899276</text>
</svg>