<svg xmlns="http://www.w3.org/2000/svg" width="400.0" height="400.0" viewBox="0 0 400.0 400.0">
<rect width="400.0" height="400.0" fill="white"/>
<circle cx="54.26" cy="329.01" r="33.06" fill="#cccccc" stroke="#000000" stroke-width="1.00"/>
<circle cx="214.04" cy="233.17" r="33.06" fill="#cccccc" stroke="#000000" stroke-width="1.00"/>
<circle cx="109.69" cy="153.69" r="33.06" fill="#cccccc" stroke="#000000" stroke-width="1.00"/>
<circle cx="110.44" cy="221.12" r="33.06" fill="#cccccc" stroke="#000000" stroke-width="1.00"/>
<circle cx="52.90" cy="119.83" r="33.06" fill="#cccccc" stroke="#000000" stroke-width="1.00"/>
<circle cx="52.90" cy="52.97" r="33.06" fill="#cccccc" stroke="#000000" stroke-width="1.00"/>
<circle cx="166.94" cy="52.90" r="33.06" fill="#cccccc" stroke="#000000" stroke-width="1.00"/>
<circle cx="347.10" cy="233.06" r="33.06" fill="#cccccc" stroke="#000000" stroke-width="1.00"/>
<circle cx="166.94" cy="120.62" r="33.06" fill="#cccccc" stroke="#000000" stroke-width="1.00"/>
<circle cx="280.16" cy="347.10" r="33.06" fill="#cccccc" stroke="#000000" stroke-width="1.00"/>
<circle cx="242.10" cy="293.04" r="33.06" fill="#cccccc" stroke="#000000" stroke-width="1.00"/>
<circle cx="137.93" cy="347.10" r="33.06" fill="#cccccc" stroke="#000000" stroke-width="1.00"/>
<circle cx="110.15" cy="86.76" r="33.06" fill="#cccccc" stroke="#000000" stroke-width="1.00"/>
<circle cx="313.63" cy="290.08" r="33.06" fill="#cccccc" stroke="#000000" stroke-width="1.00"/>
<circle cx="347.10" cy="347.10" r="33.06" fill="#cccccc" stroke="#000000" stroke-width="1.00"/>
<circle cx="52.90" cy="187.55" r="33.06" fill="#cccccc" stroke="#000000" stroke-width="1.00"/>
<circle cx="280.16" cy="233.06" r="33.06" fill="#cccccc" stroke="#000000" stroke-width="1.00"/>
<circle cx="175.98" cy="287.23" r="33.06" fill="#cccccc" stroke="#000000" stroke-width="1.00"/>
<circle cx="52.90" cy="253.67" r="33.06" fill="#cccccc" stroke="#000000" stroke-width="1.00"/>
<circle cx="166.94" cy="186.77" r="33.06" fill="#cccccc" stroke="#000000" stroke-width="1.00"/>
<circle cx="204.05" cy="347.10" r="33.06" fill="#cccccc" stroke="#000000" stroke-width="1.00"/>
<circle cx="109.87" cy="287.23" r="33.06" fill="#cccccc" stroke="#000000" stroke-width="1.00"/>
<polygon points="19.84,380.16 380.16,380.16 380.16,200.00 200.00,200.00 200.00,19.84 19.84,19.84" fill="none" stroke="#000000" stroke-width="1.40"/>
</svg>