<svg xmlns="http://www.w3.org/2000/svg" width="720.0" height="720.0" viewBox="0 0 720.0 720.0">
<defs><clipPath id="inside"><polygon points="54.472,665.528 665.528,665.528 665.528,360.000 360.000,360.000 360.000,54.472 54.472,54.472"/></clipPath></defs>
<rect width="720.0" height="720.0" fill="white"/>
<circle cx="108.944" cy="108.944" r="54.472" fill="#7fb3d5" fill-opacity="0.65" stroke="#1f4e79" stroke-width="1" clip-path="url(#inside)"/>
<circle cx="108.944" cy="108.944" r="1.4" fill="#1f4e79"/>
<circle cx="502.441" cy="602.599" r="54.472" fill="#7fb3d5" fill-opacity="0.65" stroke="#1f4e79" stroke-width="1" clip-path="url(#inside)"/>
<circle cx="502.441" cy="602.599" r="1.4" fill="#1f4e79"/>
<circle cx="305.528" cy="326.832" r="54.472" fill="#7fb3d5" fill-opacity="0.65" stroke="#1f4e79" stroke-width="1" clip-path="url(#inside)"/>
<circle cx="305.528" cy="326.832" r="1.4" fill="#1f4e79"/>
<circle cx="611.056" cy="414.472" r="54.472" fill="#7fb3d5" fill-opacity="0.65" stroke="#1f4e79" stroke-width="1" clip-path="url(#inside)"/>
<circle cx="611.056" cy="414.472" r="1.4" fill="#1f4e79"/>
<circle cx="195.911" cy="501.392" r="54.472" fill="#7fb3d5" fill-opacity="0.65" stroke="#1f4e79" stroke-width="1" clip-path="url(#inside)"/>
<circle cx="195.911" cy="501.392" r="1.4" fill="#1f4e79"/>
<circle cx="108.944" cy="326.832" r="54.472" fill="#7fb3d5" fill-opacity="0.65" stroke="#1f4e79" stroke-width="1" clip-path="url(#inside)"/>
<circle cx="108.944" cy="326.832" r="1.4" fill="#1f4e79"/>
<circle cx="208.586" cy="611.056" r="54.472" fill="#7fb3d5" fill-opacity="0.65" stroke="#1f4e79" stroke-width="1" clip-path="url(#inside)"/>
<circle cx="208.586" cy="611.056" r="1.4" fill="#1f4e79"/>
<circle cx="207.236" cy="264.871" r="54.472" fill="#7fb3d5" fill-opacity="0.65" stroke="#1f4e79" stroke-width="1" clip-path="url(#inside)"/>
<circle cx="207.236" cy="264.871" r="1.4" fill="#1f4e79"/>
<circle cx="564.073" cy="512.764" r="54.472" fill="#7fb3d5" fill-opacity="0.65" stroke="#1f4e79" stroke-width="1" clip-path="url(#inside)"/>
<circle cx="564.073" cy="512.764" r="1.4" fill="#1f4e79"/>
<circle cx="108.944" cy="217.888" r="54.472" fill="#7fb3d5" fill-opacity="0.65" stroke="#1f4e79" stroke-width="1" clip-path="url(#inside)"/>
<circle cx="108.944" cy="217.888" r="1.4" fill="#1f4e79"/>
<circle cx="502.441" cy="422.929" r="54.472" fill="#7fb3d5" fill-opacity="0.65" stroke="#1f4e79" stroke-width="1" clip-path="url(#inside)"/>
<circle cx="502.441" cy="422.929" r="1.4" fill="#1f4e79"/>
<circle cx="108.944" cy="435.776" r="54.472" fill="#7fb3d5" fill-opacity="0.65" stroke="#1f4e79" stroke-width="1" clip-path="url(#inside)"/>
<circle cx="108.944" cy="435.776" r="1.4" fill="#1f4e79"/>
<circle cx="305.528" cy="108.944" r="54.472" fill="#7fb3d5" fill-opacity="0.65" stroke="#1f4e79" stroke-width="1" clip-path="url(#inside)"/>
<circle cx="305.528" cy="108.944" r="1.4" fill="#1f4e79"/>
<circle cx="301.206" cy="553.695" r="54.472" fill="#7fb3d5" fill-opacity="0.65" stroke="#1f4e79" stroke-width="1" clip-path="url(#inside)"/>
<circle cx="301.206" cy="553.695" r="1.4" fill="#1f4e79"/>
<circle cx="108.944" cy="567.008" r="54.472" fill="#7fb3d5" fill-opacity="0.65" stroke="#1f4e79" stroke-width="1" clip-path="url(#inside)"/>
<circle cx="108.944" cy="567.008" r="1.4" fill="#1f4e79"/>
<circle cx="393.826" cy="611.056" r="54.472" fill="#7fb3d5" fill-opacity="0.65" stroke="#1f4e79" stroke-width="1" clip-path="url(#inside)"/>
<circle cx="393.826" cy="611.056" r="1.4" fill="#1f4e79"/>
<circle cx="207.236" cy="155.927" r="54.472" fill="#7fb3d5" fill-opacity="0.65" stroke="#1f4e79" stroke-width="1" clip-path="url(#inside)"/>
<circle cx="207.236" cy="155.927" r="1.4" fill="#1f4e79"/>
<circle cx="611.056" cy="611.056" r="54.472" fill="#7fb3d5" fill-opacity="0.65" stroke="#1f4e79" stroke-width="1" clip-path="url(#inside)"/>
<circle cx="611.056" cy="611.056" r="1.4" fill="#1f4e79"/>
<circle cx="289.363" cy="445.396" r="54.472" fill="#7fb3d5" fill-opacity="0.65" stroke="#1f4e79" stroke-width="1" clip-path="url(#inside)"/>
<circle cx="289.363" cy="445.396" r="1.4" fill="#1f4e79"/>
<circle cx="207.236" cy="373.815" r="54.472" fill="#7fb3d5" fill-opacity="0.65" stroke="#1f4e79" stroke-width="1" clip-path="url(#inside)"/>
<circle cx="207.236" cy="373.815" r="1.4" fill="#1f4e79"/>
<circle cx="440.809" cy="512.764" r="54.472" fill="#7fb3d5" fill-opacity="0.65" stroke="#1f4e79" stroke-width="1" clip-path="url(#inside)"/>
<circle cx="440.809" cy="512.764" r="1.4" fill="#1f4e79"/>
<circle cx="305.528" cy="217.888" r="54.472" fill="#7fb3d5" fill-opacity="0.65" stroke="#1f4e79" stroke-width="1" clip-path="url(#inside)"/>
<circle cx="305.528" cy="217.888" r="1.4" fill="#1f4e79"/>
<circle cx="393.826" cy="414.472" r="54.472" fill="#7fb3d5" fill-opacity="0.65" stroke="#1f4e79" stroke-width="1" clip-path="url(#inside)"/>
<circle cx="393.826" cy="414.472" r="1.4" fill="#1f4e79"/>
<path d="M 49.569,49.569 L 364.902,49.569 L 364.902,355.098 L 670.431,355.098 L 670.431,670.431 L 49.569,670.431 L 49.569,49.569 Z M 665.528,665.528 L 665.528,360.000 L 360.000,360.000 L 360.000,54.472 L 54.472,54.472 L 54.472,665.528 L 665.528,665.528 Z" fill="#000000" fill-rule="evenodd"/>
<text x="6" y="16" font-family="sans-serif" font-size="13" fill="#222">circles in L-tromino  n=23  s=11.217812</text>
</svg>