<svg xmlns="http://www.w3.org/2000/svg" width="720.0" height="720.0" viewBox="0 0 720.0 720.0">
<defs><clipPath id="inside"><polygon points="53.682,666.318 666.318,666.318 666.318,360.000 360.000,360.000 360.000,53.682 53.682,53.682"/></clipPath>
<mask id="outside"><rect width="720.0" height="720.0" fill="white"/><polygon points="53.682,666.318 666.318,666.318 666.318,360.000 360.000,360.000 360.000,53.682 53.682,53.682" fill="black"/></mask></defs>
<rect width="720.0" height="720.0" fill="white"/>
<circle cx="107.365" cy="107.365" r="53.682" fill="#7fb3d5" fill-opacity="0.65" stroke="#1f4e79" stroke-width="1" clip-path="url(#inside)"/>
<circle cx="107.365" cy="107.365" r="1.4" fill="#1f4e79"/>
<circle cx="306.318" cy="107.365" r="53.682" fill="#7fb3d5" fill-opacity="0.65" stroke="#1f4e79" stroke-width="1" clip-path="url(#inside)"/>
<circle cx="306.318" cy="107.365" r="1.4" fill="#1f4e79"/>
<circle cx="115.002" cy="429.186" r="53.682" fill="#7fb3d5" fill-opacity="0.65" stroke="#1f4e79" stroke-width="1" clip-path="url(#inside)"/>
<circle cx="115.002" cy="429.186" r="1.4" fill="#1f4e79"/>
<circle cx="612.635" cy="612.635" r="53.682" fill="#7fb3d5" fill-opacity="0.65" stroke="#1f4e79" stroke-width="1" clip-path="url(#inside)"/>
<circle cx="612.635" cy="612.635" r="1.4" fill="#1f4e79"/>
<circle cx="612.635" cy="413.682" r="53.682" fill="#7fb3d5" fill-opacity="0.65" stroke="#1f4e79" stroke-width="1" clip-path="url(#inside)"/>
<circle cx="612.635" cy="413.682" r="1.4" fill="#1f4e79"/>
<circle cx="206.841" cy="147.757" r="53.682" fill="#7fb3d5" fill-opacity="0.65" stroke="#1f4e79" stroke-width="1" clip-path="url(#inside)"/>
<circle cx="206.841" cy="147.757" r="1.4" fill="#1f4e79"/>
<circle cx="397.906" cy="413.682" r="53.682" fill="#7fb3d5" fill-opacity="0.65" stroke="#1f4e79" stroke-width="1" clip-path="url(#inside)"/>
<circle cx="397.906" cy="413.682" r="1.4" fill="#1f4e79"/>
<circle cx="357.513" cy="513.159" r="53.682" fill="#7fb3d5" fill-opacity="0.65" stroke="#1f4e79" stroke-width="1" clip-path="url(#inside)"/>
<circle cx="357.513" cy="513.159" r="1.4" fill="#1f4e79"/>
<circle cx="306.318" cy="214.729" r="53.682" fill="#7fb3d5" fill-opacity="0.65" stroke="#1f4e79" stroke-width="1" clip-path="url(#inside)"/>
<circle cx="306.318" cy="214.729" r="1.4" fill="#1f4e79"/>
<circle cx="183.223" cy="612.635" r="53.682" fill="#7fb3d5" fill-opacity="0.65" stroke="#1f4e79" stroke-width="1" clip-path="url(#inside)"/>
<circle cx="183.223" cy="612.635" r="1.4" fill="#1f4e79"/>
<circle cx="505.271" cy="612.635" r="53.682" fill="#7fb3d5" fill-opacity="0.65" stroke="#1f4e79" stroke-width="1" clip-path="url(#inside)"/>
<circle cx="505.271" cy="612.635" r="1.4" fill="#1f4e79"/>
<circle cx="464.878" cy="513.159" r="53.682" fill="#7fb3d5" fill-opacity="0.65" stroke="#1f4e79" stroke-width="1" clip-path="url(#inside)"/>
<circle cx="464.878" cy="513.159" r="1.4" fill="#1f4e79"/>
<circle cx="107.385" cy="536.632" r="53.682" fill="#7fb3d5" fill-opacity="0.65" stroke="#1f4e79" stroke-width="1" clip-path="url(#inside)"/>
<circle cx="107.385" cy="536.632" r="1.4" fill="#1f4e79"/>
<circle cx="107.365" cy="322.094" r="53.682" fill="#7fb3d5" fill-opacity="0.65" stroke="#1f4e79" stroke-width="1" clip-path="url(#inside)"/>
<circle cx="107.365" cy="322.094" r="1.4" fill="#1f4e79"/>
<circle cx="397.906" cy="612.635" r="53.682" fill="#7fb3d5" fill-opacity="0.65" stroke="#1f4e79" stroke-width="1" clip-path="url(#inside)"/>
<circle cx="397.906" cy="612.635" r="1.4" fill="#1f4e79"/>
<circle cx="505.271" cy="413.682" r="53.682" fill="#7fb3d5" fill-opacity="0.65" stroke="#1f4e79" stroke-width="1" clip-path="url(#inside)"/>
<circle cx="505.271" cy="413.682" r="1.4" fill="#1f4e79"/>
<circle cx="306.318" cy="322.094" r="53.682" fill="#7fb3d5" fill-opacity="0.65" stroke="#1f4e79" stroke-width="1" clip-path="url(#inside)"/>
<circle cx="306.318" cy="322.094" r="1.4" fill="#1f4e79"/>
<circle cx="206.841" cy="362.487" r="53.682" fill="#7fb3d5" fill-opacity="0.65" stroke="#1f4e79" stroke-width="1" clip-path="url(#inside)"/>
<circle cx="206.841" cy="362.487" r="1.4" fill="#1f4e79"/>
<circle cx="220.677" cy="509.140" r="53.682" fill="#7fb3d5" fill-opacity="0.65" stroke="#1f4e79" stroke-width="1" clip-path="url(#inside)"/>
<circle cx="220.677" cy="509.140" r="1.4" fill="#1f4e79"/>
<circle cx="107.365" cy="214.729" r="53.682" fill="#7fb3d5" fill-opacity="0.65" stroke="#1f4e79" stroke-width="1" clip-path="url(#inside)"/>
<circle cx="107.365" cy="214.729" r="1.4" fill="#1f4e79"/>
<circle cx="291.561" cy="428.439" r="53.682" fill="#7fb3d5" fill-opacity="0.65" stroke="#1f4e79" stroke-width="1" clip-path="url(#inside)"/>
<circle cx="291.561" cy="428.439" r="1.4" fill="#1f4e79"/>
<circle cx="206.841" cy="255.122" r="53.682" fill="#7fb3d5" fill-opacity="0.65" stroke="#1f4e79" stroke-width="1" clip-path="url(#inside)"/>
<circle cx="206.841" cy="255.122" r="1.4" fill="#1f4e79"/>
<circle cx="572.243" cy="513.159" r="53.682" fill="#7fb3d5" fill-opacity="0.65" stroke="#1f4e79" stroke-width="1" clip-path="url(#inside)"/>
<circle cx="572.243" cy="513.159" r="1.4" fill="#1f4e79"/>
<circle cx="290.565" cy="610.406" r="53.682" fill="#7fb3d5" fill-opacity="0.65" stroke="#1f4e79" stroke-width="1" clip-path="url(#inside)"/>
<circle cx="290.565" cy="610.406" r="1.4" fill="#1f4e79"/>
<polygon points="53.682,666.318 666.318,666.318 666.318,360.000 360.000,360.000 360.000,53.682 53.682,53.682" fill="none" stroke="#000000" stroke-width="3" mask="url(#outside)"/>
<text x="6" y="16" font-family="sans-serif" font-size="13" fill="#222">circles in L-tromino  n=24  s=11.412241</text>
</svg>