<svg xmlns="http://www.w3.org/2000/svg" width="400.0" height="400.0" viewBox="0 0 400.0 400.0">
<rect width="400.0" height="400.0" fill="white"/>
<circle cx="289.78" cy="232.66" r="30.63" fill="#cccccc" stroke="#000000" stroke-width="1.00"/>
<circle cx="351.00" cy="230.63" r="30.63" fill="#cccccc" stroke="#000000" stroke-width="1.00"/>
<circle cx="108.17" cy="126.08" r="30.63" fill="#cccccc" stroke="#000000" stroke-width="1.00"/>
<circle cx="273.92" cy="291.83" r="30.63" fill="#cccccc" stroke="#000000" stroke-width="1.00"/>
<circle cx="228.56" cy="230.63" r="30.63" fill="#cccccc" stroke="#000000" stroke-width="1.00"/>
<circle cx="108.17" cy="248.52" r="30.63" fill="#cccccc" stroke="#000000" stroke-width="1.00"/>
<circle cx="51.04" cy="49.00" r="30.63" fill="#cccccc" stroke="#000000" stroke-width="1.00"/>
<circle cx="49.00" cy="110.22" r="30.63" fill="#cccccc" stroke="#000000" stroke-width="1.00"/>
<circle cx="212.70" cy="289.79" r="30.63" fill="#cccccc" stroke="#000000" stroke-width="1.00"/>
<circle cx="169.37" cy="49.00" r="30.63" fill="#cccccc" stroke="#000000" stroke-width="1.00"/>
<circle cx="335.14" cy="289.79" r="30.63" fill="#cccccc" stroke="#000000" stroke-width="1.00"/>
<circle cx="51.04" cy="171.44" r="30.63" fill="#cccccc" stroke="#000000" stroke-width="1.00"/>
<circle cx="289.78" cy="351.00" r="30.63" fill="#cccccc" stroke="#000000" stroke-width="1.00"/>
<circle cx="169.37" cy="171.44" r="30.63" fill="#cccccc" stroke="#000000" stroke-width="1.00"/>
<circle cx="49.00" cy="232.66" r="30.63" fill="#cccccc" stroke="#000000" stroke-width="1.00"/>
<circle cx="151.48" cy="291.83" r="30.63" fill="#cccccc" stroke="#000000" stroke-width="1.00"/>
<circle cx="167.34" cy="110.22" r="30.63" fill="#cccccc" stroke="#000000" stroke-width="1.00"/>
<circle cx="64.86" cy="291.83" r="30.63" fill="#cccccc" stroke="#000000" stroke-width="1.00"/>
<circle cx="108.17" cy="335.14" r="30.63" fill="#cccccc" stroke="#000000" stroke-width="1.00"/>
<circle cx="228.56" cy="348.96" r="30.63" fill="#cccccc" stroke="#000000" stroke-width="1.00"/>
<circle cx="167.34" cy="232.66" r="30.63" fill="#cccccc" stroke="#000000" stroke-width="1.00"/>
<circle cx="110.21" cy="187.30" r="30.63" fill="#cccccc" stroke="#000000" stroke-width="1.00"/>
<circle cx="167.34" cy="351.00" r="30.63" fill="#cccccc" stroke="#000000" stroke-width="1.00"/>
<circle cx="351.00" cy="348.96" r="30.63" fill="#cccccc" stroke="#000000" stroke-width="1.00"/>
<circle cx="49.00" cy="351.00" r="30.63" fill="#cccccc" stroke="#000000" stroke-width="1.00"/>
<circle cx="110.21" cy="64.86" r="30.63" fill="#cccccc" stroke="#000000" stroke-width="1.00"/>
<polygon points="18.38,381.62 381.62,381.62 381.62,200.00 200.00,200.00 200.00,18.38 18.38,18.38" fill="none" stroke="#000000" stroke-width="1.40"/>
</svg>