<svg xmlns="http://www.w3.org/2000/svg" width="720.0" height="720.0" viewBox="0 0 720.0 720.0">
<defs><clipPath id="inside"><polygon points="51.947,668.053 668.053,668.053 668.053,360.000 360.000,360.000 360.000,51.947 51.947,51.947"/></clipPath>
<mask id="outside"><rect width="720.0" height="720.0" fill="white"/><polygon points="51.947,668.053 668.053,668.053 668.053,360.000 360.000,360.000 360.000,51.947 51.947,51.947" fill="black"/></mask></defs>
<rect width="720.0" height="720.0" fill="white"/>
<circle cx="512.271" cy="415.401" r="51.947" fill="#7fb3d5" fill-opacity="0.65" stroke="#1f4e79" stroke-width="1" clip-path="url(#inside)"/>
<circle cx="512.271" cy="415.401" r="1.4" fill="#1f4e79"/>
<circle cx="616.107" cy="411.947" r="51.947" fill="#7fb3d5" fill-opacity="0.65" stroke="#1f4e79" stroke-width="1" clip-path="url(#inside)"/>
<circle cx="616.107" cy="411.947" r="1.4" fill="#1f4e79"/>
<circle cx="204.246" cy="234.619" r="51.947" fill="#7fb3d5" fill-opacity="0.65" stroke="#1f4e79" stroke-width="1" clip-path="url(#inside)"/>
<circle cx="204.246" cy="234.619" r="1.4" fill="#1f4e79"/>
<circle cx="485.381" cy="515.754" r="51.947" fill="#7fb3d5" fill-opacity="0.65" stroke="#1f4e79" stroke-width="1" clip-path="url(#inside)"/>
<circle cx="485.381" cy="515.754" r="1.4" fill="#1f4e79"/>
<circle cx="408.435" cy="411.947" r="51.947" fill="#7fb3d5" fill-opacity="0.65" stroke="#1f4e79" stroke-width="1" clip-path="url(#inside)"/>
<circle cx="408.435" cy="411.947" r="1.4" fill="#1f4e79"/>
<circle cx="204.246" cy="442.290" r="51.947" fill="#7fb3d5" fill-opacity="0.65" stroke="#1f4e79" stroke-width="1" clip-path="url(#inside)"/>
<circle cx="204.246" cy="442.290" r="1.4" fill="#1f4e79"/>
<circle cx="107.347" cy="103.893" r="51.947" fill="#7fb3d5" fill-opacity="0.65" stroke="#1f4e79" stroke-width="1" clip-path="url(#inside)"/>
<circle cx="107.347" cy="103.893" r="1.4" fill="#1f4e79"/>
<circle cx="103.893" cy="207.729" r="51.947" fill="#7fb3d5" fill-opacity="0.65" stroke="#1f4e79" stroke-width="1" clip-path="url(#inside)"/>
<circle cx="103.893" cy="207.729" r="1.4" fill="#1f4e79"/>
<circle cx="381.546" cy="512.300" r="51.947" fill="#7fb3d5" fill-opacity="0.65" stroke="#1f4e79" stroke-width="1" clip-path="url(#inside)"/>
<circle cx="381.546" cy="512.300" r="1.4" fill="#1f4e79"/>
<circle cx="308.053" cy="103.893" r="51.947" fill="#7fb3d5" fill-opacity="0.65" stroke="#1f4e79" stroke-width="1" clip-path="url(#inside)"/>
<circle cx="308.053" cy="103.893" r="1.4" fill="#1f4e79"/>
<circle cx="589.217" cy="512.300" r="51.947" fill="#7fb3d5" fill-opacity="0.65" stroke="#1f4e79" stroke-width="1" clip-path="url(#inside)"/>
<circle cx="589.217" cy="512.300" r="1.4" fill="#1f4e79"/>
<circle cx="107.347" cy="311.565" r="51.947" fill="#7fb3d5" fill-opacity="0.65" stroke="#1f4e79" stroke-width="1" clip-path="url(#inside)"/>
<circle cx="107.347" cy="311.565" r="1.4" fill="#1f4e79"/>
<circle cx="512.271" cy="616.107" r="51.947" fill="#7fb3d5" fill-opacity="0.65" stroke="#1f4e79" stroke-width="1" clip-path="url(#inside)"/>
<circle cx="512.271" cy="616.107" r="1.4" fill="#1f4e79"/>
<circle cx="308.053" cy="311.565" r="51.947" fill="#7fb3d5" fill-opacity="0.65" stroke="#1f4e79" stroke-width="1" clip-path="url(#inside)"/>
<circle cx="308.053" cy="311.565" r="1.4" fill="#1f4e79"/>
<circle cx="103.893" cy="415.401" r="51.947" fill="#7fb3d5" fill-opacity="0.65" stroke="#1f4e79" stroke-width="1" clip-path="url(#inside)"/>
<circle cx="103.893" cy="415.401" r="1.4" fill="#1f4e79"/>
<circle cx="277.710" cy="515.754" r="51.947" fill="#7fb3d5" fill-opacity="0.65" stroke="#1f4e79" stroke-width="1" clip-path="url(#inside)"/>
<circle cx="277.710" cy="515.754" r="1.4" fill="#1f4e79"/>
<circle cx="304.599" cy="207.729" r="51.947" fill="#7fb3d5" fill-opacity="0.65" stroke="#1f4e79" stroke-width="1" clip-path="url(#inside)"/>
<circle cx="304.599" cy="207.729" r="1.4" fill="#1f4e79"/>
<circle cx="130.783" cy="515.754" r="51.947" fill="#7fb3d5" fill-opacity="0.65" stroke="#1f4e79" stroke-width="1" clip-path="url(#inside)"/>
<circle cx="130.783" cy="515.754" r="1.4" fill="#1f4e79"/>
<circle cx="204.246" cy="589.217" r="51.947" fill="#7fb3d5" fill-opacity="0.65" stroke="#1f4e79" stroke-width="1" clip-path="url(#inside)"/>
<circle cx="204.246" cy="589.217" r="1.4" fill="#1f4e79"/>
<circle cx="408.435" cy="612.653" r="51.947" fill="#7fb3d5" fill-opacity="0.65" stroke="#1f4e79" stroke-width="1" clip-path="url(#inside)"/>
<circle cx="408.435" cy="612.653" r="1.4" fill="#1f4e79"/>
<circle cx="304.599" cy="415.401" r="51.947" fill="#7fb3d5" fill-opacity="0.65" stroke="#1f4e79" stroke-width="1" clip-path="url(#inside)"/>
<circle cx="304.599" cy="415.401" r="1.4" fill="#1f4e79"/>
<circle cx="207.700" cy="338.454" r="51.947" fill="#7fb3d5" fill-opacity="0.65" stroke="#1f4e79" stroke-width="1" clip-path="url(#inside)"/>
<circle cx="207.700" cy="338.454" r="1.4" fill="#1f4e79"/>
<circle cx="304.599" cy="616.107" r="51.947" fill="#7fb3d5" fill-opacity="0.65" stroke="#1f4e79" stroke-width="1" clip-path="url(#inside)"/>
<circle cx="304.599" cy="616.107" r="1.4" fill="#1f4e79"/>
<circle cx="616.107" cy="612.653" r="51.947" fill="#7fb3d5" fill-opacity="0.65" stroke="#1f4e79" stroke-width="1" clip-path="url(#inside)"/>
<circle cx="616.107" cy="612.653" r="1.4" fill="#1f4e79"/>
<circle cx="103.893" cy="616.107" r="51.947" fill="#7fb3d5" fill-opacity="0.65" stroke="#1f4e79" stroke-width="1" clip-path="url(#inside)"/>
<circle cx="103.893" cy="616.107" r="1.4" fill="#1f4e79"/>
<circle cx="207.700" cy="130.783" r="51.947" fill="#7fb3d5" fill-opacity="0.65" stroke="#1f4e79" stroke-width="1" clip-path="url(#inside)"/>
<circle cx="207.700" cy="130.783" r="1.4" fill="#1f4e79"/>
<polygon points="51.947,668.053 668.053,668.053 668.053,360.000 360.000,360.000 360.000,51.947 51.947,51.947" fill="none" stroke="#000000" stroke-width="3" mask="url(#outside)"/>
<text x="6" y="16" font-family="sans-serif" font-size="13" fill="#222">circles in L-tromino  n=26  s=11.860387</text>
</svg>