<svg xmlns="http://www.w3.org/2000/svg" width="720.0" height="720.0" viewBox="0 0 720.0 720.0">
<rect width="720.0" height="720.0" fill="white"/>
<polygon points="49.666,670.334 670.334,670.334 670.334,360.000 360.000,360.000 360.000,49.666 49.666,49.666 49.666,670.334" fill="none" stroke="#000000" stroke-width="2"/>
<circle cx="454.540" cy="620.668" r="49.666" fill="#7fb3d5" fill-opacity="0.65" stroke="#1f4e79" stroke-width="1"/>
<circle cx="454.540" cy="620.668" r="1.4" fill="#1f4e79"/>
<circle cx="617.542" cy="409.702" r="49.666" fill="#7fb3d5" fill-opacity="0.65" stroke="#1f4e79" stroke-width="1"/>
<circle cx="617.542" cy="409.702" r="1.4" fill="#1f4e79"/>
<circle cx="255.875" cy="620.668" r="49.666" fill="#7fb3d5" fill-opacity="0.65" stroke="#1f4e79" stroke-width="1"/>
<circle cx="255.875" cy="620.668" r="1.4" fill="#1f4e79"/>
<circle cx="99.332" cy="538.485" r="49.666" fill="#7fb3d5" fill-opacity="0.65" stroke="#1f4e79" stroke-width="1"/>
<circle cx="99.332" cy="538.485" r="1.4" fill="#1f4e79"/>
<circle cx="204.833" cy="267.668" r="49.666" fill="#7fb3d5" fill-opacity="0.65" stroke="#1f4e79" stroke-width="1"/>
<circle cx="204.833" cy="267.668" r="1.4" fill="#1f4e79"/>
<circle cx="450.862" cy="409.666" r="49.666" fill="#7fb3d5" fill-opacity="0.65" stroke="#1f4e79" stroke-width="1"/>
<circle cx="450.862" cy="409.666" r="1.4" fill="#1f4e79"/>
<circle cx="537.604" cy="566.195" r="49.666" fill="#7fb3d5" fill-opacity="0.65" stroke="#1f4e79" stroke-width="1"/>
<circle cx="537.604" cy="566.195" r="1.4" fill="#1f4e79"/>
<circle cx="155.126" cy="620.668" r="49.666" fill="#7fb3d5" fill-opacity="0.65" stroke="#1f4e79" stroke-width="1"/>
<circle cx="155.126" cy="620.668" r="1.4" fill="#1f4e79"/>
<circle cx="255.167" cy="449.032" r="49.666" fill="#7fb3d5" fill-opacity="0.65" stroke="#1f4e79" stroke-width="1"/>
<circle cx="255.167" cy="449.032" r="1.4" fill="#1f4e79"/>
<circle cx="446.638" cy="519.541" r="49.666" fill="#7fb3d5" fill-opacity="0.65" stroke="#1f4e79" stroke-width="1"/>
<circle cx="446.638" cy="519.541" r="1.4" fill="#1f4e79"/>
<circle cx="205.501" cy="535.056" r="49.666" fill="#7fb3d5" fill-opacity="0.65" stroke="#1f4e79" stroke-width="1"/>
<circle cx="205.501" cy="535.056" r="1.4" fill="#1f4e79"/>
<circle cx="99.332" cy="99.332" r="49.666" fill="#7fb3d5" fill-opacity="0.65" stroke="#1f4e79" stroke-width="1"/>
<circle cx="99.332" cy="99.332" r="1.4" fill="#1f4e79"/>
<circle cx="305.541" cy="534.644" r="49.666" fill="#7fb3d5" fill-opacity="0.65" stroke="#1f4e79" stroke-width="1"/>
<circle cx="305.541" cy="534.644" r="1.4" fill="#1f4e79"/>
<circle cx="99.332" cy="267.931" r="49.666" fill="#7fb3d5" fill-opacity="0.65" stroke="#1f4e79" stroke-width="1"/>
<circle cx="99.332" cy="267.931" r="1.4" fill="#1f4e79"/>
<circle cx="620.668" cy="620.668" r="49.666" fill="#7fb3d5" fill-opacity="0.65" stroke="#1f4e79" stroke-width="1"/>
<circle cx="620.668" cy="620.668" r="1.4" fill="#1f4e79"/>
<circle cx="310.334" cy="99.332" r="49.666" fill="#7fb3d5" fill-opacity="0.65" stroke="#1f4e79" stroke-width="1"/>
<circle cx="310.334" cy="99.332" r="1.4" fill="#1f4e79"/>
<circle cx="204.414" cy="99.332" r="49.666" fill="#7fb3d5" fill-opacity="0.65" stroke="#1f4e79" stroke-width="1"/>
<circle cx="204.414" cy="99.332" r="1.4" fill="#1f4e79"/>
<circle cx="310.334" cy="267.405" r="49.666" fill="#7fb3d5" fill-opacity="0.65" stroke="#1f4e79" stroke-width="1"/>
<circle cx="310.334" cy="267.405" r="1.4" fill="#1f4e79"/>
<circle cx="199.373" cy="366.850" r="49.666" fill="#7fb3d5" fill-opacity="0.65" stroke="#1f4e79" stroke-width="1"/>
<circle cx="199.373" cy="366.850" r="1.4" fill="#1f4e79"/>
<circle cx="361.167" cy="452.348" r="49.666" fill="#7fb3d5" fill-opacity="0.65" stroke="#1f4e79" stroke-width="1"/>
<circle cx="361.167" cy="452.348" r="1.4" fill="#1f4e79"/>
<circle cx="149.707" cy="452.874" r="49.666" fill="#7fb3d5" fill-opacity="0.65" stroke="#1f4e79" stroke-width="1"/>
<circle cx="149.707" cy="452.874" r="1.4" fill="#1f4e79"/>
<circle cx="151.873" cy="183.631" r="49.666" fill="#7fb3d5" fill-opacity="0.65" stroke="#1f4e79" stroke-width="1"/>
<circle cx="151.873" cy="183.631" r="1.4" fill="#1f4e79"/>
<circle cx="355.207" cy="620.668" r="49.666" fill="#7fb3d5" fill-opacity="0.65" stroke="#1f4e79" stroke-width="1"/>
<circle cx="355.207" cy="620.668" r="1.4" fill="#1f4e79"/>
<circle cx="257.374" cy="183.369" r="49.666" fill="#7fb3d5" fill-opacity="0.65" stroke="#1f4e79" stroke-width="1"/>
<circle cx="257.374" cy="183.369" r="1.4" fill="#1f4e79"/>
<circle cx="99.332" cy="367.263" r="49.666" fill="#7fb3d5" fill-opacity="0.65" stroke="#1f4e79" stroke-width="1"/>
<circle cx="99.332" cy="367.263" r="1.4" fill="#1f4e79"/>
<circle cx="620.668" cy="511.723" r="49.666" fill="#7fb3d5" fill-opacity="0.65" stroke="#1f4e79" stroke-width="1"/>
<circle cx="620.668" cy="511.723" r="1.4" fill="#1f4e79"/>
<circle cx="310.793" cy="366.736" r="49.666" fill="#7fb3d5" fill-opacity="0.65" stroke="#1f4e79" stroke-width="1"/>
<circle cx="310.793" cy="366.736" r="1.4" fill="#1f4e79"/>
<circle cx="531.961" cy="467.023" r="49.666" fill="#7fb3d5" fill-opacity="0.65" stroke="#1f4e79" stroke-width="1"/>
<circle cx="531.961" cy="467.023" r="1.4" fill="#1f4e79"/>
<text x="6" y="16" font-family="sans-serif" font-size="13" fill="#222">circles in L-tromino  n=28  s=12.496806</text>
</svg>