<svg xmlns="http://www.w3.org/2000/svg" width="400.0" height="400.0" viewBox="0 0 400.0 400.0">
<rect width="400.0" height="400.0" fill="white"/>
<circle cx="108.65" cy="143.01" r="28.83" fill="#cccccc" stroke="#000000" stroke-width="1.00"/>
<circle cx="347.32" cy="296.59" r="28.83" fill="#cccccc" stroke="#000000" stroke-width="1.00"/>
<circle cx="171.17" cy="143.43" r="28.83" fill="#cccccc" stroke="#000000" stroke-width="1.00"/>
<circle cx="140.24" cy="94.78" r="28.83" fill="#cccccc" stroke="#000000" stroke-width="1.00"/>
<circle cx="353.88" cy="239.31" r="28.83" fill="#cccccc" stroke="#000000" stroke-width="1.00"/>
<circle cx="74.76" cy="353.88" r="28.83" fill="#cccccc" stroke="#000000" stroke-width="1.00"/>
<circle cx="103.78" cy="304.05" r="28.83" fill="#cccccc" stroke="#000000" stroke-width="1.00"/>
<circle cx="353.88" cy="353.88" r="28.83" fill="#cccccc" stroke="#000000" stroke-width="1.00"/>
<circle cx="71.45" cy="252.04" r="28.83" fill="#cccccc" stroke="#000000" stroke-width="1.00"/>
<circle cx="272.12" cy="280.75" r="28.83" fill="#cccccc" stroke="#000000" stroke-width="1.00"/>
<circle cx="161.62" cy="303.94" r="28.83" fill="#cccccc" stroke="#000000" stroke-width="1.00"/>
<circle cx="297.18" cy="228.83" r="28.83" fill="#cccccc" stroke="#000000" stroke-width="1.00"/>
<circle cx="171.17" cy="46.12" r="28.83" fill="#cccccc" stroke="#000000" stroke-width="1.00"/>
<circle cx="46.12" cy="303.84" r="28.83" fill="#cccccc" stroke="#000000" stroke-width="1.00"/>
<circle cx="132.79" cy="353.88" r="28.83" fill="#cccccc" stroke="#000000" stroke-width="1.00"/>
<circle cx="46.12" cy="46.12" r="28.83" fill="#cccccc" stroke="#000000" stroke-width="1.00"/>
<circle cx="161.43" cy="200.26" r="28.83" fill="#cccccc" stroke="#000000" stroke-width="1.00"/>
<circle cx="186.76" cy="252.06" r="28.83" fill="#cccccc" stroke="#000000" stroke-width="1.00"/>
<circle cx="46.12" cy="142.59" r="28.83" fill="#cccccc" stroke="#000000" stroke-width="1.00"/>
<circle cx="239.53" cy="228.83" r="28.83" fill="#cccccc" stroke="#000000" stroke-width="1.00"/>
<circle cx="129.10" cy="252.26" r="28.83" fill="#cccccc" stroke="#000000" stroke-width="1.00"/>
<circle cx="77.71" cy="94.36" r="28.83" fill="#cccccc" stroke="#000000" stroke-width="1.00"/>
<circle cx="248.11" cy="353.88" r="28.83" fill="#cccccc" stroke="#000000" stroke-width="1.00"/>
<circle cx="190.45" cy="353.88" r="28.83" fill="#cccccc" stroke="#000000" stroke-width="1.00"/>
<circle cx="103.78" cy="200.46" r="28.83" fill="#cccccc" stroke="#000000" stroke-width="1.00"/>
<circle cx="109.30" cy="46.12" r="28.83" fill="#cccccc" stroke="#000000" stroke-width="1.00"/>
<circle cx="300.99" cy="330.91" r="28.83" fill="#cccccc" stroke="#000000" stroke-width="1.00"/>
<circle cx="219.28" cy="303.81" r="28.83" fill="#cccccc" stroke="#000000" stroke-width="1.00"/>
<circle cx="46.12" cy="200.24" r="28.83" fill="#cccccc" stroke="#000000" stroke-width="1.00"/>
<polygon points="17.30,382.70 382.70,382.70 382.70,200.00 200.00,200.00 200.00,17.30 17.30,17.30" fill="none" stroke="#000000" stroke-width="1.40"/>
</svg>