<svg xmlns="http://www.w3.org/2000/svg" width="720.0" height="720.0" viewBox="0 0 720.0 720.0">
<rect width="720.0" height="720.0" fill="white"/>
<polygon points="49.061,670.939 670.939,670.939 670.939,360.000 360.000,360.000 360.000,49.061 49.061,49.061 49.061,670.939" fill="none" stroke="#000000" stroke-width="2"/>
<circle cx="204.531" cy="263.009" r="49.061" fill="#7fb3d5" fill-opacity="0.65" stroke="#1f4e79" stroke-width="1"/>
<circle cx="204.531" cy="263.009" r="1.4" fill="#1f4e79"/>
<circle cx="610.720" cy="524.391" r="49.061" fill="#7fb3d5" fill-opacity="0.65" stroke="#1f4e79" stroke-width="1"/>
<circle cx="610.720" cy="524.391" r="1.4" fill="#1f4e79"/>
<circle cx="310.939" cy="263.728" r="49.061" fill="#7fb3d5" fill-opacity="0.65" stroke="#1f4e79" stroke-width="1"/>
<circle cx="310.939" cy="263.728" r="1.4" fill="#1f4e79"/>
<circle cx="258.292" cy="180.925" r="49.061" fill="#7fb3d5" fill-opacity="0.65" stroke="#1f4e79" stroke-width="1"/>
<circle cx="258.292" cy="180.925" r="1.4" fill="#1f4e79"/>
<circle cx="621.877" cy="426.905" r="49.061" fill="#7fb3d5" fill-opacity="0.65" stroke="#1f4e79" stroke-width="1"/>
<circle cx="621.877" cy="426.905" r="1.4" fill="#1f4e79"/>
<circle cx="146.864" cy="621.877" r="49.061" fill="#7fb3d5" fill-opacity="0.65" stroke="#1f4e79" stroke-width="1"/>
<circle cx="146.864" cy="621.877" r="1.4" fill="#1f4e79"/>
<circle cx="196.244" cy="537.086" r="49.061" fill="#7fb3d5" fill-opacity="0.65" stroke="#1f4e79" stroke-width="1"/>
<circle cx="196.244" cy="537.086" r="1.4" fill="#1f4e79"/>
<circle cx="621.877" cy="621.877" r="49.061" fill="#7fb3d5" fill-opacity="0.65" stroke="#1f4e79" stroke-width="1"/>
<circle cx="621.877" cy="621.877" r="1.4" fill="#1f4e79"/>
<circle cx="141.218" cy="448.565" r="49.061" fill="#7fb3d5" fill-opacity="0.65" stroke="#1f4e79" stroke-width="1"/>
<circle cx="141.218" cy="448.565" r="1.4" fill="#1f4e79"/>
<circle cx="482.739" cy="497.429" r="49.061" fill="#7fb3d5" fill-opacity="0.65" stroke="#1f4e79" stroke-width="1"/>
<circle cx="482.739" cy="497.429" r="1.4" fill="#1f4e79"/>
<circle cx="294.686" cy="536.901" r="49.061" fill="#7fb3d5" fill-opacity="0.65" stroke="#1f4e79" stroke-width="1"/>
<circle cx="294.686" cy="536.901" r="1.4" fill="#1f4e79"/>
<circle cx="525.391" cy="409.061" r="49.061" fill="#7fb3d5" fill-opacity="0.65" stroke="#1f4e79" stroke-width="1"/>
<circle cx="525.391" cy="409.061" r="1.4" fill="#1f4e79"/>
<circle cx="310.939" cy="98.123" r="49.061" fill="#7fb3d5" fill-opacity="0.65" stroke="#1f4e79" stroke-width="1"/>
<circle cx="310.939" cy="98.123" r="1.4" fill="#1f4e79"/>
<circle cx="98.123" cy="536.717" r="49.061" fill="#7fb3d5" fill-opacity="0.65" stroke="#1f4e79" stroke-width="1"/>
<circle cx="98.123" cy="536.717" r="1.4" fill="#1f4e79"/>
<circle cx="245.624" cy="621.877" r="49.061" fill="#7fb3d5" fill-opacity="0.65" stroke="#1f4e79" stroke-width="1"/>
<circle cx="245.624" cy="621.877" r="1.4" fill="#1f4e79"/>
<circle cx="98.123" cy="98.123" r="49.061" fill="#7fb3d5" fill-opacity="0.65" stroke="#1f4e79" stroke-width="1"/>
<circle cx="98.123" cy="98.123" r="1.4" fill="#1f4e79"/>
<circle cx="294.366" cy="360.441" r="49.061" fill="#7fb3d5" fill-opacity="0.65" stroke="#1f4e79" stroke-width="1"/>
<circle cx="294.366" cy="360.441" r="1.4" fill="#1f4e79"/>
<circle cx="337.462" cy="448.593" r="49.061" fill="#7fb3d5" fill-opacity="0.65" stroke="#1f4e79" stroke-width="1"/>
<circle cx="337.462" cy="448.593" r="1.4" fill="#1f4e79"/>
<circle cx="98.123" cy="262.290" r="49.061" fill="#7fb3d5" fill-opacity="0.65" stroke="#1f4e79" stroke-width="1"/>
<circle cx="98.123" cy="262.290" r="1.4" fill="#1f4e79"/>
<circle cx="427.269" cy="409.061" r="49.061" fill="#7fb3d5" fill-opacity="0.65" stroke="#1f4e79" stroke-width="1"/>
<circle cx="427.269" cy="409.061" r="1.4" fill="#1f4e79"/>
<circle cx="239.340" cy="448.934" r="49.061" fill="#7fb3d5" fill-opacity="0.65" stroke="#1f4e79" stroke-width="1"/>
<circle cx="239.340" cy="448.934" r="1.4" fill="#1f4e79"/>
<circle cx="151.884" cy="180.206" r="49.061" fill="#7fb3d5" fill-opacity="0.65" stroke="#1f4e79" stroke-width="1"/>
<circle cx="151.884" cy="180.206" r="1.4" fill="#1f4e79"/>
<circle cx="441.869" cy="621.877" r="49.061" fill="#7fb3d5" fill-opacity="0.65" stroke="#1f4e79" stroke-width="1"/>
<circle cx="441.869" cy="621.877" r="1.4" fill="#1f4e79"/>
<circle cx="343.747" cy="621.877" r="49.061" fill="#7fb3d5" fill-opacity="0.65" stroke="#1f4e79" stroke-width="1"/>
<circle cx="343.747" cy="621.877" r="1.4" fill="#1f4e79"/>
<circle cx="196.244" cy="360.781" r="49.061" fill="#7fb3d5" fill-opacity="0.65" stroke="#1f4e79" stroke-width="1"/>
<circle cx="196.244" cy="360.781" r="1.4" fill="#1f4e79"/>
<circle cx="205.645" cy="98.123" r="49.061" fill="#7fb3d5" fill-opacity="0.65" stroke="#1f4e79" stroke-width="1"/>
<circle cx="205.645" cy="98.123" r="1.4" fill="#1f4e79"/>
<circle cx="531.873" cy="582.797" r="49.061" fill="#7fb3d5" fill-opacity="0.65" stroke="#1f4e79" stroke-width="1"/>
<circle cx="531.873" cy="582.797" r="1.4" fill="#1f4e79"/>
<circle cx="392.808" cy="536.678" r="49.061" fill="#7fb3d5" fill-opacity="0.65" stroke="#1f4e79" stroke-width="1"/>
<circle cx="392.808" cy="536.678" r="1.4" fill="#1f4e79"/>
<circle cx="98.123" cy="360.413" r="49.061" fill="#7fb3d5" fill-opacity="0.65" stroke="#1f4e79" stroke-width="1"/>
<circle cx="98.123" cy="360.413" r="1.4" fill="#1f4e79"/>
<text x="6" y="16" font-family="sans-serif" font-size="13" fill="#222">circles in L-tromino  n=29  s=12.675530</text>
</svg>