<svg xmlns="http://www.w3.org/2000/svg" width="400.0" height="400.0" viewBox="0 0 400.0 400.0">
<rect width="400.0" height="400.0" fill="white"/>
<circle cx="244.80" cy="341.41" r="28.28" fill="#cccccc" stroke="#000000" stroke-width="1.00"/>
<circle cx="354.75" cy="341.41" r="28.28" fill="#cccccc" stroke="#000000" stroke-width="1.00"/>
<circle cx="171.72" cy="100.20" r="28.28" fill="#cccccc" stroke="#000000" stroke-width="1.00"/>
<circle cx="45.25" cy="265.96" r="28.28" fill="#cccccc" stroke="#000000" stroke-width="1.00"/>
<circle cx="188.78" cy="292.64" r="28.28" fill="#cccccc" stroke="#000000" stroke-width="1.00"/>
<circle cx="354.75" cy="228.28" r="28.28" fill="#cccccc" stroke="#000000" stroke-width="1.00"/>
<circle cx="188.78" cy="236.07" r="28.28" fill="#cccccc" stroke="#000000" stroke-width="1.00"/>
<circle cx="71.30" cy="95.46" r="28.28" fill="#cccccc" stroke="#000000" stroke-width="1.00"/>
<circle cx="93.05" cy="296.21" r="28.28" fill="#cccccc" stroke="#000000" stroke-width="1.00"/>
<circle cx="189.83" cy="354.75" r="28.28" fill="#cccccc" stroke="#000000" stroke-width="1.00"/>
<circle cx="45.25" cy="145.68" r="28.28" fill="#cccccc" stroke="#000000" stroke-width="1.00"/>
<circle cx="94.24" cy="354.75" r="28.28" fill="#cccccc" stroke="#000000" stroke-width="1.00"/>
<circle cx="142.04" cy="324.49" r="28.28" fill="#cccccc" stroke="#000000" stroke-width="1.00"/>
<circle cx="45.25" cy="202.24" r="28.28" fill="#cccccc" stroke="#000000" stroke-width="1.00"/>
<circle cx="158.27" cy="45.25" r="28.28" fill="#cccccc" stroke="#000000" stroke-width="1.00"/>
<circle cx="140.98" cy="205.82" r="28.28" fill="#cccccc" stroke="#000000" stroke-width="1.00"/>
<circle cx="120.29" cy="123.75" r="28.28" fill="#cccccc" stroke="#000000" stroke-width="1.00"/>
<circle cx="299.78" cy="241.62" r="28.28" fill="#cccccc" stroke="#000000" stroke-width="1.00"/>
<circle cx="244.80" cy="284.85" r="28.28" fill="#cccccc" stroke="#000000" stroke-width="1.00"/>
<circle cx="171.72" cy="157.64" r="28.28" fill="#cccccc" stroke="#000000" stroke-width="1.00"/>
<circle cx="299.78" cy="298.18" r="28.28" fill="#cccccc" stroke="#000000" stroke-width="1.00"/>
<circle cx="45.25" cy="45.25" r="28.28" fill="#cccccc" stroke="#000000" stroke-width="1.00"/>
<circle cx="45.25" cy="326.46" r="28.28" fill="#cccccc" stroke="#000000" stroke-width="1.00"/>
<circle cx="354.75" cy="284.85" r="28.28" fill="#cccccc" stroke="#000000" stroke-width="1.00"/>
<circle cx="101.76" cy="47.80" r="28.28" fill="#cccccc" stroke="#000000" stroke-width="1.00"/>
<circle cx="299.78" cy="354.75" r="28.28" fill="#cccccc" stroke="#000000" stroke-width="1.00"/>
<circle cx="91.99" cy="234.10" r="28.28" fill="#cccccc" stroke="#000000" stroke-width="1.00"/>
<circle cx="94.24" cy="173.96" r="28.28" fill="#cccccc" stroke="#000000" stroke-width="1.00"/>
<circle cx="139.79" cy="264.35" r="28.28" fill="#cccccc" stroke="#000000" stroke-width="1.00"/>
<circle cx="244.80" cy="228.28" r="28.28" fill="#cccccc" stroke="#000000" stroke-width="1.00"/>
<polygon points="16.97,383.03 383.03,383.03 383.03,200.00 200.00,200.00 200.00,16.97 16.97,16.97" fill="none" stroke="#000000" stroke-width="1.40"/>
</svg>