<svg xmlns="http://www.w3.org/2000/svg" width="720.0" height="720.0" viewBox="0 0 720.0 720.0">
<rect width="720.0" height="720.0" fill="white"/>
<polygon points="47.606,672.394 672.394,672.394 672.394,360.000 360.000,360.000 360.000,47.606 47.606,47.606 47.606,672.394" fill="none" stroke="#000000" stroke-width="2"/>
<circle cx="143.094" cy="542.491" r="47.606" fill="#7fb3d5" fill-opacity="0.65" stroke="#1f4e79" stroke-width="1"/>
<circle cx="143.094" cy="542.491" r="1.4" fill="#1f4e79"/>
<circle cx="285.637" cy="277.963" r="47.606" fill="#7fb3d5" fill-opacity="0.65" stroke="#1f4e79" stroke-width="1"/>
<circle cx="285.637" cy="277.963" r="1.4" fill="#1f4e79"/>
<circle cx="313.267" cy="369.079" r="47.606" fill="#7fb3d5" fill-opacity="0.65" stroke="#1f4e79" stroke-width="1"/>
<circle cx="313.267" cy="369.079" r="1.4" fill="#1f4e79"/>
<circle cx="287.863" cy="624.788" r="47.606" fill="#7fb3d5" fill-opacity="0.65" stroke="#1f4e79" stroke-width="1"/>
<circle cx="287.863" cy="624.788" r="1.4" fill="#1f4e79"/>
<circle cx="190.425" cy="95.212" r="47.606" fill="#7fb3d5" fill-opacity="0.65" stroke="#1f4e79" stroke-width="1"/>
<circle cx="190.425" cy="95.212" r="1.4" fill="#1f4e79"/>
<circle cx="535.067" cy="469.386" r="47.606" fill="#7fb3d5" fill-opacity="0.65" stroke="#1f4e79" stroke-width="1"/>
<circle cx="535.067" cy="469.386" r="1.4" fill="#1f4e79"/>
<circle cx="384.658" cy="624.788" r="47.606" fill="#7fb3d5" fill-opacity="0.65" stroke="#1f4e79" stroke-width="1"/>
<circle cx="384.658" cy="624.788" r="1.4" fill="#1f4e79"/>
<circle cx="285.637" cy="95.212" r="47.606" fill="#7fb3d5" fill-opacity="0.65" stroke="#1f4e79" stroke-width="1"/>
<circle cx="285.637" cy="95.212" r="1.4" fill="#1f4e79"/>
<circle cx="217.181" cy="186.588" r="47.606" fill="#7fb3d5" fill-opacity="0.65" stroke="#1f4e79" stroke-width="1"/>
<circle cx="217.181" cy="186.588" r="1.4" fill="#1f4e79"/>
<circle cx="462.619" cy="407.606" r="47.606" fill="#7fb3d5" fill-opacity="0.65" stroke="#1f4e79" stroke-width="1"/>
<circle cx="462.619" cy="407.606" r="1.4" fill="#1f4e79"/>
<circle cx="624.788" cy="624.788" r="47.606" fill="#7fb3d5" fill-opacity="0.65" stroke="#1f4e79" stroke-width="1"/>
<circle cx="624.788" cy="624.788" r="1.4" fill="#1f4e79"/>
<circle cx="218.055" cy="369.079" r="47.606" fill="#7fb3d5" fill-opacity="0.65" stroke="#1f4e79" stroke-width="1"/>
<circle cx="218.055" cy="369.079" r="1.4" fill="#1f4e79"/>
<circle cx="190.975" cy="624.788" r="47.606" fill="#7fb3d5" fill-opacity="0.65" stroke="#1f4e79" stroke-width="1"/>
<circle cx="190.975" cy="624.788" r="1.4" fill="#1f4e79"/>
<circle cx="624.788" cy="501.254" r="47.606" fill="#7fb3d5" fill-opacity="0.65" stroke="#1f4e79" stroke-width="1"/>
<circle cx="624.788" cy="501.254" r="1.4" fill="#1f4e79"/>
<circle cx="95.212" cy="277.963" r="47.606" fill="#7fb3d5" fill-opacity="0.65" stroke="#1f4e79" stroke-width="1"/>
<circle cx="95.212" cy="277.963" r="1.4" fill="#1f4e79"/>
<circle cx="191.538" cy="460.524" r="47.606" fill="#7fb3d5" fill-opacity="0.65" stroke="#1f4e79" stroke-width="1"/>
<circle cx="191.538" cy="460.524" r="1.4" fill="#1f4e79"/>
<circle cx="312.394" cy="186.588" r="47.606" fill="#7fb3d5" fill-opacity="0.65" stroke="#1f4e79" stroke-width="1"/>
<circle cx="312.394" cy="186.588" r="1.4" fill="#1f4e79"/>
<circle cx="190.425" cy="277.963" r="47.606" fill="#7fb3d5" fill-opacity="0.65" stroke="#1f4e79" stroke-width="1"/>
<circle cx="190.425" cy="277.963" r="1.4" fill="#1f4e79"/>
<circle cx="95.212" cy="460.194" r="47.606" fill="#7fb3d5" fill-opacity="0.65" stroke="#1f4e79" stroke-width="1"/>
<circle cx="95.212" cy="460.194" r="1.4" fill="#1f4e79"/>
<circle cx="95.212" cy="95.212" r="47.606" fill="#7fb3d5" fill-opacity="0.65" stroke="#1f4e79" stroke-width="1"/>
<circle cx="95.212" cy="95.212" r="1.4" fill="#1f4e79"/>
<circle cx="239.419" cy="542.821" r="47.606" fill="#7fb3d5" fill-opacity="0.65" stroke="#1f4e79" stroke-width="1"/>
<circle cx="239.419" cy="542.821" r="1.4" fill="#1f4e79"/>
<circle cx="287.817" cy="460.826" r="47.606" fill="#7fb3d5" fill-opacity="0.65" stroke="#1f4e79" stroke-width="1"/>
<circle cx="287.817" cy="460.826" r="1.4" fill="#1f4e79"/>
<circle cx="121.969" cy="186.588" r="47.606" fill="#7fb3d5" fill-opacity="0.65" stroke="#1f4e79" stroke-width="1"/>
<circle cx="121.969" cy="186.588" r="1.4" fill="#1f4e79"/>
<circle cx="95.212" cy="624.788" r="47.606" fill="#7fb3d5" fill-opacity="0.65" stroke="#1f4e79" stroke-width="1"/>
<circle cx="95.212" cy="624.788" r="1.4" fill="#1f4e79"/>
<circle cx="479.871" cy="624.788" r="47.606" fill="#7fb3d5" fill-opacity="0.65" stroke="#1f4e79" stroke-width="1"/>
<circle cx="479.871" cy="624.788" r="1.4" fill="#1f4e79"/>
<circle cx="456.605" cy="528.839" r="47.606" fill="#7fb3d5" fill-opacity="0.65" stroke="#1f4e79" stroke-width="1"/>
<circle cx="456.605" cy="528.839" r="1.4" fill="#1f4e79"/>
<circle cx="383.024" cy="459.856" r="47.606" fill="#7fb3d5" fill-opacity="0.65" stroke="#1f4e79" stroke-width="1"/>
<circle cx="383.024" cy="459.856" r="1.4" fill="#1f4e79"/>
<circle cx="552.329" cy="563.021" r="47.606" fill="#7fb3d5" fill-opacity="0.65" stroke="#1f4e79" stroke-width="1"/>
<circle cx="552.329" cy="563.021" r="1.4" fill="#1f4e79"/>
<circle cx="122.843" cy="369.079" r="47.606" fill="#7fb3d5" fill-opacity="0.65" stroke="#1f4e79" stroke-width="1"/>
<circle cx="122.843" cy="369.079" r="1.4" fill="#1f4e79"/>
<circle cx="336.261" cy="542.793" r="47.606" fill="#7fb3d5" fill-opacity="0.65" stroke="#1f4e79" stroke-width="1"/>
<circle cx="336.261" cy="542.793" r="1.4" fill="#1f4e79"/>
<circle cx="607.515" cy="407.606" r="47.606" fill="#7fb3d5" fill-opacity="0.65" stroke="#1f4e79" stroke-width="1"/>
<circle cx="607.515" cy="407.606" r="1.4" fill="#1f4e79"/>
<text x="6" y="16" font-family="sans-serif" font-size="13" fill="#222">circles in L-tromino  n=31  s=13.124081</text>
</svg>