<svg xmlns="http://www.w3.org/2000/svg" width="720.0" height="720.0" viewBox="0 0 720.0 720.0">
<rect width="720.0" height="720.0" fill="white"/>
<polygon points="47.050,672.950 672.950,672.950 672.950,360.000 360.000,360.000 360.000,47.050 47.050,47.050 47.050,672.950" fill="none" stroke="#000000" stroke-width="2"/>
<circle cx="359.900" cy="625.900" r="47.050" fill="#7fb3d5" fill-opacity="0.65" stroke="#1f4e79" stroke-width="1"/>
<circle cx="359.900" cy="625.900" r="1.4" fill="#1f4e79"/>
<circle cx="94.100" cy="625.900" r="47.050" fill="#7fb3d5" fill-opacity="0.65" stroke="#1f4e79" stroke-width="1"/>
<circle cx="94.100" cy="625.900" r="1.4" fill="#1f4e79"/>
<circle cx="448.567" cy="594.386" r="47.050" fill="#7fb3d5" fill-opacity="0.65" stroke="#1f4e79" stroke-width="1"/>
<circle cx="448.567" cy="594.386" r="1.4" fill="#1f4e79"/>
<circle cx="94.100" cy="188.201" r="47.050" fill="#7fb3d5" fill-opacity="0.65" stroke="#1f4e79" stroke-width="1"/>
<circle cx="94.100" cy="188.201" r="1.4" fill="#1f4e79"/>
<circle cx="528.223" cy="532.232" r="47.050" fill="#7fb3d5" fill-opacity="0.65" stroke="#1f4e79" stroke-width="1"/>
<circle cx="528.223" cy="532.232" r="1.4" fill="#1f4e79"/>
<circle cx="350.890" cy="532.232" r="47.050" fill="#7fb3d5" fill-opacity="0.65" stroke="#1f4e79" stroke-width="1"/>
<circle cx="350.890" cy="532.232" r="1.4" fill="#1f4e79"/>
<circle cx="312.950" cy="263.925" r="47.050" fill="#7fb3d5" fill-opacity="0.65" stroke="#1f4e79" stroke-width="1"/>
<circle cx="312.950" cy="263.925" r="1.4" fill="#1f4e79"/>
<circle cx="439.556" cy="500.718" r="47.050" fill="#7fb3d5" fill-opacity="0.65" stroke="#1f4e79" stroke-width="1"/>
<circle cx="439.556" cy="500.718" r="1.4" fill="#1f4e79"/>
<circle cx="311.260" cy="358.010" r="47.050" fill="#7fb3d5" fill-opacity="0.65" stroke="#1f4e79" stroke-width="1"/>
<circle cx="311.260" cy="358.010" r="1.4" fill="#1f4e79"/>
<circle cx="94.100" cy="94.100" r="47.050" fill="#7fb3d5" fill-opacity="0.65" stroke="#1f4e79" stroke-width="1"/>
<circle cx="94.100" cy="94.100" r="1.4" fill="#1f4e79"/>
<circle cx="259.557" cy="436.668" r="47.050" fill="#7fb3d5" fill-opacity="0.65" stroke="#1f4e79" stroke-width="1"/>
<circle cx="259.557" cy="436.668" r="1.4" fill="#1f4e79"/>
<circle cx="265.800" cy="625.900" r="47.050" fill="#7fb3d5" fill-opacity="0.65" stroke="#1f4e79" stroke-width="1"/>
<circle cx="265.800" cy="625.900" r="1.4" fill="#1f4e79"/>
<circle cx="312.950" cy="169.825" r="47.050" fill="#7fb3d5" fill-opacity="0.65" stroke="#1f4e79" stroke-width="1"/>
<circle cx="312.950" cy="169.825" r="1.4" fill="#1f4e79"/>
<circle cx="359.900" cy="438.564" r="47.050" fill="#7fb3d5" fill-opacity="0.65" stroke="#1f4e79" stroke-width="1"/>
<circle cx="359.900" cy="438.564" r="1.4" fill="#1f4e79"/>
<circle cx="537.233" cy="625.900" r="47.050" fill="#7fb3d5" fill-opacity="0.65" stroke="#1f4e79" stroke-width="1"/>
<circle cx="537.233" cy="625.900" r="1.4" fill="#1f4e79"/>
<circle cx="175.594" cy="141.150" r="47.050" fill="#7fb3d5" fill-opacity="0.65" stroke="#1f4e79" stroke-width="1"/>
<circle cx="175.594" cy="141.150" r="1.4" fill="#1f4e79"/>
<circle cx="176.726" cy="388.687" r="47.050" fill="#7fb3d5" fill-opacity="0.65" stroke="#1f4e79" stroke-width="1"/>
<circle cx="176.726" cy="388.687" r="1.4" fill="#1f4e79"/>
<circle cx="448.567" cy="407.050" r="47.050" fill="#7fb3d5" fill-opacity="0.65" stroke="#1f4e79" stroke-width="1"/>
<circle cx="448.567" cy="407.050" r="1.4" fill="#1f4e79"/>
<circle cx="616.889" cy="500.718" r="47.050" fill="#7fb3d5" fill-opacity="0.65" stroke="#1f4e79" stroke-width="1"/>
<circle cx="616.889" cy="500.718" r="1.4" fill="#1f4e79"/>
<circle cx="94.100" cy="437.756" r="47.050" fill="#7fb3d5" fill-opacity="0.65" stroke="#1f4e79" stroke-width="1"/>
<circle cx="94.100" cy="437.756" r="1.4" fill="#1f4e79"/>
<circle cx="96.415" cy="531.828" r="47.050" fill="#7fb3d5" fill-opacity="0.65" stroke="#1f4e79" stroke-width="1"/>
<circle cx="96.415" cy="531.828" r="1.4" fill="#1f4e79"/>
<circle cx="229.766" cy="310.960" r="47.050" fill="#7fb3d5" fill-opacity="0.65" stroke="#1f4e79" stroke-width="1"/>
<circle cx="229.766" cy="310.960" r="1.4" fill="#1f4e79"/>
<circle cx="537.233" cy="438.564" r="47.050" fill="#7fb3d5" fill-opacity="0.65" stroke="#1f4e79" stroke-width="1"/>
<circle cx="537.233" cy="438.564" r="1.4" fill="#1f4e79"/>
<circle cx="179.546" cy="586.023" r="47.050" fill="#7fb3d5" fill-opacity="0.65" stroke="#1f4e79" stroke-width="1"/>
<circle cx="179.546" cy="586.023" r="1.4" fill="#1f4e79"/>
<circle cx="176.726" cy="482.788" r="47.050" fill="#7fb3d5" fill-opacity="0.65" stroke="#1f4e79" stroke-width="1"/>
<circle cx="176.726" cy="482.788" r="1.4" fill="#1f4e79"/>
<circle cx="256.789" cy="532.232" r="47.050" fill="#7fb3d5" fill-opacity="0.65" stroke="#1f4e79" stroke-width="1"/>
<circle cx="256.789" cy="532.232" r="1.4" fill="#1f4e79"/>
<circle cx="625.900" cy="594.386" r="47.050" fill="#7fb3d5" fill-opacity="0.65" stroke="#1f4e79" stroke-width="1"/>
<circle cx="625.900" cy="594.386" r="1.4" fill="#1f4e79"/>
<circle cx="231.457" cy="216.875" r="47.050" fill="#7fb3d5" fill-opacity="0.65" stroke="#1f4e79" stroke-width="1"/>
<circle cx="231.457" cy="216.875" r="1.4" fill="#1f4e79"/>
<circle cx="625.900" cy="407.050" r="47.050" fill="#7fb3d5" fill-opacity="0.65" stroke="#1f4e79" stroke-width="1"/>
<circle cx="625.900" cy="407.050" r="1.4" fill="#1f4e79"/>
<circle cx="94.100" cy="343.656" r="47.050" fill="#7fb3d5" fill-opacity="0.65" stroke="#1f4e79" stroke-width="1"/>
<circle cx="94.100" cy="343.656" r="1.4" fill="#1f4e79"/>
<circle cx="257.087" cy="94.100" r="47.050" fill="#7fb3d5" fill-opacity="0.65" stroke="#1f4e79" stroke-width="1"/>
<circle cx="257.087" cy="94.100" r="1.4" fill="#1f4e79"/>
<circle cx="147.141" cy="265.928" r="47.050" fill="#7fb3d5" fill-opacity="0.65" stroke="#1f4e79" stroke-width="1"/>
<circle cx="147.141" cy="265.928" r="1.4" fill="#1f4e79"/>
<text x="6" y="16" font-family="sans-serif" font-size="13" fill="#222">circles in L-tromino  n=32  s=13.302824</text>
</svg>