<svg xmlns="http://www.w3.org/2000/svg" width="720.0" height="720.0" viewBox="0 0 720.0 720.0">
<defs><clipPath id="inside"><polygon points="46.360,673.640 673.640,673.640 673.640,360.000 360.000,360.000 360.000,46.360 46.360,46.360"/></clipPath></defs>
<rect width="720.0" height="720.0" fill="white"/>
<circle cx="128.198" cy="92.721" r="46.360" fill="#7fb3d5" fill-opacity="0.65" stroke="#1f4e79" stroke-width="1" clip-path="url(#inside)"/>
<circle cx="128.198" cy="92.721" r="1.4" fill="#1f4e79"/>
<circle cx="627.279" cy="534.859" r="46.360" fill="#7fb3d5" fill-opacity="0.65" stroke="#1f4e79" stroke-width="1" clip-path="url(#inside)"/>
<circle cx="627.279" cy="534.859" r="1.4" fill="#1f4e79"/>
<circle cx="625.277" cy="441.421" r="46.360" fill="#7fb3d5" fill-opacity="0.65" stroke="#1f4e79" stroke-width="1" clip-path="url(#inside)"/>
<circle cx="625.277" cy="441.421" r="1.4" fill="#1f4e79"/>
<circle cx="128.198" cy="264.052" r="46.360" fill="#7fb3d5" fill-opacity="0.65" stroke="#1f4e79" stroke-width="1" clip-path="url(#inside)"/>
<circle cx="128.198" cy="264.052" r="1.4" fill="#1f4e79"/>
<circle cx="448.991" cy="627.279" r="46.360" fill="#7fb3d5" fill-opacity="0.65" stroke="#1f4e79" stroke-width="1" clip-path="url(#inside)"/>
<circle cx="448.991" cy="627.279" r="1.4" fill="#1f4e79"/>
<circle cx="278.163" cy="349.717" r="46.360" fill="#7fb3d5" fill-opacity="0.65" stroke="#1f4e79" stroke-width="1" clip-path="url(#inside)"/>
<circle cx="278.163" cy="349.717" r="1.4" fill="#1f4e79"/>
<circle cx="285.623" cy="534.859" r="46.360" fill="#7fb3d5" fill-opacity="0.65" stroke="#1f4e79" stroke-width="1" clip-path="url(#inside)"/>
<circle cx="285.623" cy="534.859" r="1.4" fill="#1f4e79"/>
<circle cx="220.919" cy="264.052" r="46.360" fill="#7fb3d5" fill-opacity="0.65" stroke="#1f4e79" stroke-width="1" clip-path="url(#inside)"/>
<circle cx="220.919" cy="264.052" r="1.4" fill="#1f4e79"/>
<circle cx="541.865" cy="498.781" r="46.360" fill="#7fb3d5" fill-opacity="0.65" stroke="#1f4e79" stroke-width="1" clip-path="url(#inside)"/>
<circle cx="541.865" cy="498.781" r="1.4" fill="#1f4e79"/>
<circle cx="92.721" cy="178.386" r="46.360" fill="#7fb3d5" fill-opacity="0.65" stroke="#1f4e79" stroke-width="1" clip-path="url(#inside)"/>
<circle cx="92.721" cy="178.386" r="1.4" fill="#1f4e79"/>
<circle cx="192.902" cy="534.859" r="46.360" fill="#7fb3d5" fill-opacity="0.65" stroke="#1f4e79" stroke-width="1" clip-path="url(#inside)"/>
<circle cx="192.902" cy="534.859" r="1.4" fill="#1f4e79"/>
<circle cx="220.919" cy="92.721" r="46.360" fill="#7fb3d5" fill-opacity="0.65" stroke="#1f4e79" stroke-width="1" clip-path="url(#inside)"/>
<circle cx="220.919" cy="92.721" r="1.4" fill="#1f4e79"/>
<circle cx="619.819" cy="627.279" r="46.360" fill="#7fb3d5" fill-opacity="0.65" stroke="#1f4e79" stroke-width="1" clip-path="url(#inside)"/>
<circle cx="619.819" cy="627.279" r="1.4" fill="#1f4e79"/>
<circle cx="278.163" cy="627.279" r="46.360" fill="#7fb3d5" fill-opacity="0.65" stroke="#1f4e79" stroke-width="1" clip-path="url(#inside)"/>
<circle cx="278.163" cy="627.279" r="1.4" fill="#1f4e79"/>
<circle cx="92.721" cy="627.279" r="46.360" fill="#7fb3d5" fill-opacity="0.65" stroke="#1f4e79" stroke-width="1" clip-path="url(#inside)"/>
<circle cx="92.721" cy="627.279" r="1.4" fill="#1f4e79"/>
<circle cx="185.442" cy="627.279" r="46.360" fill="#7fb3d5" fill-opacity="0.65" stroke="#1f4e79" stroke-width="1" clip-path="url(#inside)"/>
<circle cx="185.442" cy="627.279" r="1.4" fill="#1f4e79"/>
<circle cx="313.640" cy="92.721" r="46.360" fill="#7fb3d5" fill-opacity="0.65" stroke="#1f4e79" stroke-width="1" clip-path="url(#inside)"/>
<circle cx="313.640" cy="92.721" r="1.4" fill="#1f4e79"/>
<circle cx="185.442" cy="442.438" r="46.360" fill="#7fb3d5" fill-opacity="0.65" stroke="#1f4e79" stroke-width="1" clip-path="url(#inside)"/>
<circle cx="185.442" cy="442.438" r="1.4" fill="#1f4e79"/>
<circle cx="92.721" cy="442.438" r="46.360" fill="#7fb3d5" fill-opacity="0.65" stroke="#1f4e79" stroke-width="1" clip-path="url(#inside)"/>
<circle cx="92.721" cy="442.438" r="1.4" fill="#1f4e79"/>
<circle cx="456.451" cy="534.859" r="46.360" fill="#7fb3d5" fill-opacity="0.65" stroke="#1f4e79" stroke-width="1" clip-path="url(#inside)"/>
<circle cx="456.451" cy="534.859" r="1.4" fill="#1f4e79"/>
<circle cx="313.640" cy="264.052" r="46.360" fill="#7fb3d5" fill-opacity="0.65" stroke="#1f4e79" stroke-width="1" clip-path="url(#inside)"/>
<circle cx="313.640" cy="264.052" r="1.4" fill="#1f4e79"/>
<circle cx="534.405" cy="591.201" r="46.360" fill="#7fb3d5" fill-opacity="0.65" stroke="#1f4e79" stroke-width="1" clip-path="url(#inside)"/>
<circle cx="534.405" cy="591.201" r="1.4" fill="#1f4e79"/>
<circle cx="185.442" cy="178.386" r="46.360" fill="#7fb3d5" fill-opacity="0.65" stroke="#1f4e79" stroke-width="1" clip-path="url(#inside)"/>
<circle cx="185.442" cy="178.386" r="1.4" fill="#1f4e79"/>
<circle cx="448.991" cy="442.438" r="46.360" fill="#7fb3d5" fill-opacity="0.65" stroke="#1f4e79" stroke-width="1" clip-path="url(#inside)"/>
<circle cx="448.991" cy="442.438" r="1.4" fill="#1f4e79"/>
<circle cx="278.163" cy="442.438" r="46.360" fill="#7fb3d5" fill-opacity="0.65" stroke="#1f4e79" stroke-width="1" clip-path="url(#inside)"/>
<circle cx="278.163" cy="442.438" r="1.4" fill="#1f4e79"/>
<circle cx="534.405" cy="406.360" r="46.360" fill="#7fb3d5" fill-opacity="0.65" stroke="#1f4e79" stroke-width="1" clip-path="url(#inside)"/>
<circle cx="534.405" cy="406.360" r="1.4" fill="#1f4e79"/>
<circle cx="371.037" cy="498.781" r="46.360" fill="#7fb3d5" fill-opacity="0.65" stroke="#1f4e79" stroke-width="1" clip-path="url(#inside)"/>
<circle cx="371.037" cy="498.781" r="1.4" fill="#1f4e79"/>
<circle cx="278.163" cy="178.386" r="46.360" fill="#7fb3d5" fill-opacity="0.65" stroke="#1f4e79" stroke-width="1" clip-path="url(#inside)"/>
<circle cx="278.163" cy="178.386" r="1.4" fill="#1f4e79"/>
<circle cx="363.577" cy="406.360" r="46.360" fill="#7fb3d5" fill-opacity="0.65" stroke="#1f4e79" stroke-width="1" clip-path="url(#inside)"/>
<circle cx="363.577" cy="406.360" r="1.4" fill="#1f4e79"/>
<circle cx="185.442" cy="349.717" r="46.360" fill="#7fb3d5" fill-opacity="0.65" stroke="#1f4e79" stroke-width="1" clip-path="url(#inside)"/>
<circle cx="185.442" cy="349.717" r="1.4" fill="#1f4e79"/>
<circle cx="100.181" cy="534.859" r="46.360" fill="#7fb3d5" fill-opacity="0.65" stroke="#1f4e79" stroke-width="1" clip-path="url(#inside)"/>
<circle cx="100.181" cy="534.859" r="1.4" fill="#1f4e79"/>
<circle cx="92.721" cy="349.717" r="46.360" fill="#7fb3d5" fill-opacity="0.65" stroke="#1f4e79" stroke-width="1" clip-path="url(#inside)"/>
<circle cx="92.721" cy="349.717" r="1.4" fill="#1f4e79"/>
<circle cx="363.577" cy="591.201" r="46.360" fill="#7fb3d5" fill-opacity="0.65" stroke="#1f4e79" stroke-width="1" clip-path="url(#inside)"/>
<circle cx="363.577" cy="591.201" r="1.4" fill="#1f4e79"/>
<path d="M 42.188,42.188 L 364.172,42.188 L 364.172,355.828 L 677.812,355.828 L 677.812,677.812 L 42.188,677.812 L 42.188,42.188 Z M 673.640,673.640 L 673.640,360.000 L 360.000,360.000 L 360.000,46.360 L 46.360,46.360 L 46.360,673.640 L 673.640,673.640 Z" fill="#000000" fill-rule="evenodd"/>
<text x="6" y="16" font-family="sans-serif" font-size="13" fill="#222">circles in L-tromino  n=33  s=13.530472</text>
</svg>