<svg xmlns="http://www.w3.org/2000/svg" width="720.0" height="720.0" viewBox="0 0 720.0 720.0">
<defs><clipPath id="inside"><polygon points="45.789,674.211 674.211,674.211 674.211,360.000 360.000,360.000 360.000,45.789 45.789,45.789"/></clipPath>
<mask id="outside"><rect width="720.0" height="720.0" fill="white"/><polygon points="45.789,674.211 674.211,674.211 674.211,360.000 360.000,360.000 360.000,45.789 45.789,45.789" fill="black"/></mask></defs>
<rect width="720.0" height="720.0" fill="white"/>
<circle cx="314.211" cy="340.228" r="45.789" fill="#7fb3d5" fill-opacity="0.65" stroke="#1f4e79" stroke-width="1" clip-path="url(#inside)"/>
<circle cx="314.211" cy="340.228" r="1.4" fill="#1f4e79"/>
<circle cx="471.351" cy="564.409" r="45.789" fill="#7fb3d5" fill-opacity="0.65" stroke="#1f4e79" stroke-width="1" clip-path="url(#inside)"/>
<circle cx="471.351" cy="564.409" r="1.4" fill="#1f4e79"/>
<circle cx="91.579" cy="497.297" r="45.789" fill="#7fb3d5" fill-opacity="0.65" stroke="#1f4e79" stroke-width="1" clip-path="url(#inside)"/>
<circle cx="91.579" cy="497.297" r="1.4" fill="#1f4e79"/>
<circle cx="91.579" cy="183.158" r="45.789" fill="#7fb3d5" fill-opacity="0.65" stroke="#1f4e79" stroke-width="1" clip-path="url(#inside)"/>
<circle cx="91.579" cy="183.158" r="1.4" fill="#1f4e79"/>
<circle cx="314.211" cy="157.070" r="45.789" fill="#7fb3d5" fill-opacity="0.65" stroke="#1f4e79" stroke-width="1" clip-path="url(#inside)"/>
<circle cx="314.211" cy="157.070" r="1.4" fill="#1f4e79"/>
<circle cx="91.579" cy="314.140" r="45.789" fill="#7fb3d5" fill-opacity="0.65" stroke="#1f4e79" stroke-width="1" clip-path="url(#inside)"/>
<circle cx="91.579" cy="314.140" r="1.4" fill="#1f4e79"/>
<circle cx="234.901" cy="202.859" r="45.789" fill="#7fb3d5" fill-opacity="0.65" stroke="#1f4e79" stroke-width="1" clip-path="url(#inside)"/>
<circle cx="234.901" cy="202.859" r="1.4" fill="#1f4e79"/>
<circle cx="562.930" cy="405.789" r="45.789" fill="#7fb3d5" fill-opacity="0.65" stroke="#1f4e79" stroke-width="1" clip-path="url(#inside)"/>
<circle cx="562.930" cy="405.789" r="1.4" fill="#1f4e79"/>
<circle cx="299.058" cy="628.421" r="45.789" fill="#7fb3d5" fill-opacity="0.65" stroke="#1f4e79" stroke-width="1" clip-path="url(#inside)"/>
<circle cx="299.058" cy="628.421" r="1.4" fill="#1f4e79"/>
<circle cx="628.421" cy="628.421" r="45.789" fill="#7fb3d5" fill-opacity="0.65" stroke="#1f4e79" stroke-width="1" clip-path="url(#inside)"/>
<circle cx="628.421" cy="628.421" r="1.4" fill="#1f4e79"/>
<circle cx="352.459" cy="554.023" r="45.789" fill="#7fb3d5" fill-opacity="0.65" stroke="#1f4e79" stroke-width="1" clip-path="url(#inside)"/>
<circle cx="352.459" cy="554.023" r="1.4" fill="#1f4e79"/>
<circle cx="314.211" cy="248.649" r="45.789" fill="#7fb3d5" fill-opacity="0.65" stroke="#1f4e79" stroke-width="1" clip-path="url(#inside)"/>
<circle cx="314.211" cy="248.649" r="1.4" fill="#1f4e79"/>
<circle cx="628.421" cy="469.802" r="45.789" fill="#7fb3d5" fill-opacity="0.65" stroke="#1f4e79" stroke-width="1" clip-path="url(#inside)"/>
<circle cx="628.421" cy="469.802" r="1.4" fill="#1f4e79"/>
<circle cx="261.353" cy="544.735" r="45.789" fill="#7fb3d5" fill-opacity="0.65" stroke="#1f4e79" stroke-width="1" clip-path="url(#inside)"/>
<circle cx="261.353" cy="544.735" r="1.4" fill="#1f4e79"/>
<circle cx="517.141" cy="485.099" r="45.789" fill="#7fb3d5" fill-opacity="0.65" stroke="#1f4e79" stroke-width="1" clip-path="url(#inside)"/>
<circle cx="517.141" cy="485.099" r="1.4" fill="#1f4e79"/>
<circle cx="91.579" cy="405.719" r="45.789" fill="#7fb3d5" fill-opacity="0.65" stroke="#1f4e79" stroke-width="1" clip-path="url(#inside)"/>
<circle cx="91.579" cy="405.719" r="1.4" fill="#1f4e79"/>
<circle cx="172.017" cy="453.410" r="45.789" fill="#7fb3d5" fill-opacity="0.65" stroke="#1f4e79" stroke-width="1" clip-path="url(#inside)"/>
<circle cx="172.017" cy="453.410" r="1.4" fill="#1f4e79"/>
<circle cx="234.901" cy="294.438" r="45.789" fill="#7fb3d5" fill-opacity="0.65" stroke="#1f4e79" stroke-width="1" clip-path="url(#inside)"/>
<circle cx="234.901" cy="294.438" r="1.4" fill="#1f4e79"/>
<circle cx="379.772" cy="405.789" r="45.789" fill="#7fb3d5" fill-opacity="0.65" stroke="#1f4e79" stroke-width="1" clip-path="url(#inside)"/>
<circle cx="379.772" cy="405.789" r="1.4" fill="#1f4e79"/>
<circle cx="155.591" cy="248.649" r="45.789" fill="#7fb3d5" fill-opacity="0.65" stroke="#1f4e79" stroke-width="1" clip-path="url(#inside)"/>
<circle cx="155.591" cy="248.649" r="1.4" fill="#1f4e79"/>
<circle cx="250.198" cy="405.719" r="45.789" fill="#7fb3d5" fill-opacity="0.65" stroke="#1f4e79" stroke-width="1" clip-path="url(#inside)"/>
<circle cx="250.198" cy="405.719" r="1.4" fill="#1f4e79"/>
<circle cx="92.600" cy="626.558" r="45.789" fill="#7fb3d5" fill-opacity="0.65" stroke="#1f4e79" stroke-width="1" clip-path="url(#inside)"/>
<circle cx="92.600" cy="626.558" r="1.4" fill="#1f4e79"/>
<circle cx="314.950" cy="470.479" r="45.789" fill="#7fb3d5" fill-opacity="0.65" stroke="#1f4e79" stroke-width="1" clip-path="url(#inside)"/>
<circle cx="314.950" cy="470.479" r="1.4" fill="#1f4e79"/>
<circle cx="207.480" cy="628.421" r="45.789" fill="#7fb3d5" fill-opacity="0.65" stroke="#1f4e79" stroke-width="1" clip-path="url(#inside)"/>
<circle cx="207.480" cy="628.421" r="1.4" fill="#1f4e79"/>
<circle cx="91.579" cy="91.579" r="45.789" fill="#7fb3d5" fill-opacity="0.65" stroke="#1f4e79" stroke-width="1" clip-path="url(#inside)"/>
<circle cx="91.579" cy="91.579" r="1.4" fill="#1f4e79"/>
<circle cx="582.632" cy="549.112" r="45.789" fill="#7fb3d5" fill-opacity="0.65" stroke="#1f4e79" stroke-width="1" clip-path="url(#inside)"/>
<circle cx="582.632" cy="549.112" r="1.4" fill="#1f4e79"/>
<circle cx="169.774" cy="544.965" r="45.789" fill="#7fb3d5" fill-opacity="0.65" stroke="#1f4e79" stroke-width="1" clip-path="url(#inside)"/>
<circle cx="169.774" cy="544.965" r="1.4" fill="#1f4e79"/>
<circle cx="405.860" cy="628.421" r="45.789" fill="#7fb3d5" fill-opacity="0.65" stroke="#1f4e79" stroke-width="1" clip-path="url(#inside)"/>
<circle cx="405.860" cy="628.421" r="1.4" fill="#1f4e79"/>
<circle cx="471.351" cy="405.789" r="45.789" fill="#7fb3d5" fill-opacity="0.65" stroke="#1f4e79" stroke-width="1" clip-path="url(#inside)"/>
<circle cx="471.351" cy="405.789" r="1.4" fill="#1f4e79"/>
<circle cx="170.888" cy="137.368" r="45.789" fill="#7fb3d5" fill-opacity="0.65" stroke="#1f4e79" stroke-width="1" clip-path="url(#inside)"/>
<circle cx="170.888" cy="137.368" r="1.4" fill="#1f4e79"/>
<circle cx="250.198" cy="91.579" r="45.789" fill="#7fb3d5" fill-opacity="0.65" stroke="#1f4e79" stroke-width="1" clip-path="url(#inside)"/>
<circle cx="250.198" cy="91.579" r="1.4" fill="#1f4e79"/>
<circle cx="536.842" cy="628.421" r="45.789" fill="#7fb3d5" fill-opacity="0.65" stroke="#1f4e79" stroke-width="1" clip-path="url(#inside)"/>
<circle cx="536.842" cy="628.421" r="1.4" fill="#1f4e79"/>
<circle cx="170.888" cy="359.929" r="45.789" fill="#7fb3d5" fill-opacity="0.65" stroke="#1f4e79" stroke-width="1" clip-path="url(#inside)"/>
<circle cx="170.888" cy="359.929" r="1.4" fill="#1f4e79"/>
<circle cx="424.476" cy="485.736" r="45.789" fill="#7fb3d5" fill-opacity="0.65" stroke="#1f4e79" stroke-width="1" clip-path="url(#inside)"/>
<circle cx="424.476" cy="485.736" r="1.4" fill="#1f4e79"/>
<polygon points="45.789,674.211 674.211,674.211 674.211,360.000 360.000,360.000 360.000,45.789 45.789,45.789" fill="none" stroke="#000000" stroke-width="3" mask="url(#outside)"/>
<text x="6" y="16" font-family="sans-serif" font-size="13" fill="#222">circles in L-tromino  n=34  s=13.724158</text>
</svg>