<svg xmlns="http://www.w3.org/2000/svg" width="720.0" height="720.0" viewBox="0 0 720.0 720.0">
<defs><clipPath id="inside"><polygon points="45.351,674.649 674.649,674.649 674.649,360.000 360.000,360.000 360.000,45.351 45.351,45.351"/></clipPath>
<mask id="outside"><rect width="720.0" height="720.0" fill="white"/><polygon points="45.351,674.649 674.649,674.649 674.649,360.000 360.000,360.000 360.000,45.351 45.351,45.351" fill="black"/></mask></defs>
<rect width="720.0" height="720.0" fill="white"/>
<circle cx="314.649" cy="288.520" r="45.351" fill="#7fb3d5" fill-opacity="0.65" stroke="#1f4e79" stroke-width="1" clip-path="url(#inside)"/>
<circle cx="314.649" cy="288.520" r="1.4" fill="#1f4e79"/>
<circle cx="169.254" cy="90.703" r="45.351" fill="#7fb3d5" fill-opacity="0.65" stroke="#1f4e79" stroke-width="1" clip-path="url(#inside)"/>
<circle cx="169.254" cy="90.703" r="1.4" fill="#1f4e79"/>
<circle cx="90.703" cy="440.985" r="45.351" fill="#7fb3d5" fill-opacity="0.65" stroke="#1f4e79" stroke-width="1" clip-path="url(#inside)"/>
<circle cx="90.703" cy="440.985" r="1.4" fill="#1f4e79"/>
<circle cx="522.920" cy="405.351" r="45.351" fill="#7fb3d5" fill-opacity="0.65" stroke="#1f4e79" stroke-width="1" clip-path="url(#inside)"/>
<circle cx="522.920" cy="405.351" r="1.4" fill="#1f4e79"/>
<circle cx="613.623" cy="405.351" r="45.351" fill="#7fb3d5" fill-opacity="0.65" stroke="#1f4e79" stroke-width="1" clip-path="url(#inside)"/>
<circle cx="613.623" cy="405.351" r="1.4" fill="#1f4e79"/>
<circle cx="324.654" cy="549.908" r="45.351" fill="#7fb3d5" fill-opacity="0.65" stroke="#1f4e79" stroke-width="1" clip-path="url(#inside)"/>
<circle cx="324.654" cy="549.908" r="1.4" fill="#1f4e79"/>
<circle cx="169.254" cy="486.336" r="45.351" fill="#7fb3d5" fill-opacity="0.65" stroke="#1f4e79" stroke-width="1" clip-path="url(#inside)"/>
<circle cx="169.254" cy="486.336" r="1.4" fill="#1f4e79"/>
<circle cx="312.677" cy="99.144" r="45.351" fill="#7fb3d5" fill-opacity="0.65" stroke="#1f4e79" stroke-width="1" clip-path="url(#inside)"/>
<circle cx="312.677" cy="99.144" r="1.4" fill="#1f4e79"/>
<circle cx="277.819" cy="629.297" r="45.351" fill="#7fb3d5" fill-opacity="0.65" stroke="#1f4e79" stroke-width="1" clip-path="url(#inside)"/>
<circle cx="277.819" cy="629.297" r="1.4" fill="#1f4e79"/>
<circle cx="90.703" cy="629.297" r="45.351" fill="#7fb3d5" fill-opacity="0.65" stroke="#1f4e79" stroke-width="1" clip-path="url(#inside)"/>
<circle cx="90.703" cy="629.297" r="1.4" fill="#1f4e79"/>
<circle cx="432.217" cy="405.351" r="45.351" fill="#7fb3d5" fill-opacity="0.65" stroke="#1f4e79" stroke-width="1" clip-path="url(#inside)"/>
<circle cx="432.217" cy="405.351" r="1.4" fill="#1f4e79"/>
<circle cx="90.703" cy="257.002" r="45.351" fill="#7fb3d5" fill-opacity="0.65" stroke="#1f4e79" stroke-width="1" clip-path="url(#inside)"/>
<circle cx="90.703" cy="257.002" r="1.4" fill="#1f4e79"/>
<circle cx="168.496" cy="303.642" r="45.351" fill="#7fb3d5" fill-opacity="0.65" stroke="#1f4e79" stroke-width="1" clip-path="url(#inside)"/>
<circle cx="168.496" cy="303.642" r="1.4" fill="#1f4e79"/>
<circle cx="247.047" cy="348.993" r="45.351" fill="#7fb3d5" fill-opacity="0.65" stroke="#1f4e79" stroke-width="1" clip-path="url(#inside)"/>
<circle cx="247.047" cy="348.993" r="1.4" fill="#1f4e79"/>
<circle cx="236.097" cy="243.168" r="45.351" fill="#7fb3d5" fill-opacity="0.65" stroke="#1f4e79" stroke-width="1" clip-path="url(#inside)"/>
<circle cx="236.097" cy="243.168" r="1.4" fill="#1f4e79"/>
<circle cx="549.928" cy="538.594" r="45.351" fill="#7fb3d5" fill-opacity="0.65" stroke="#1f4e79" stroke-width="1" clip-path="url(#inside)"/>
<circle cx="549.928" cy="538.594" r="1.4" fill="#1f4e79"/>
<circle cx="629.297" cy="494.690" r="45.351" fill="#7fb3d5" fill-opacity="0.65" stroke="#1f4e79" stroke-width="1" clip-path="url(#inside)"/>
<circle cx="629.297" cy="494.690" r="1.4" fill="#1f4e79"/>
<circle cx="185.872" cy="629.297" r="45.351" fill="#7fb3d5" fill-opacity="0.65" stroke="#1f4e79" stroke-width="1" clip-path="url(#inside)"/>
<circle cx="185.872" cy="629.297" r="1.4" fill="#1f4e79"/>
<circle cx="370.005" cy="471.357" r="45.351" fill="#7fb3d5" fill-opacity="0.65" stroke="#1f4e79" stroke-width="1" clip-path="url(#inside)"/>
<circle cx="370.005" cy="471.357" r="1.4" fill="#1f4e79"/>
<circle cx="459.225" cy="629.297" r="45.351" fill="#7fb3d5" fill-opacity="0.65" stroke="#1f4e79" stroke-width="1" clip-path="url(#inside)"/>
<circle cx="459.225" cy="629.297" r="1.4" fill="#1f4e79"/>
<circle cx="327.244" cy="391.366" r="45.351" fill="#7fb3d5" fill-opacity="0.65" stroke="#1f4e79" stroke-width="1" clip-path="url(#inside)"/>
<circle cx="327.244" cy="391.366" r="1.4" fill="#1f4e79"/>
<circle cx="368.522" cy="629.297" r="45.351" fill="#7fb3d5" fill-opacity="0.65" stroke="#1f4e79" stroke-width="1" clip-path="url(#inside)"/>
<circle cx="368.522" cy="629.297" r="1.4" fill="#1f4e79"/>
<circle cx="158.304" cy="196.528" r="45.351" fill="#7fb3d5" fill-opacity="0.65" stroke="#1f4e79" stroke-width="1" clip-path="url(#inside)"/>
<circle cx="158.304" cy="196.528" r="1.4" fill="#1f4e79"/>
<circle cx="270.265" cy="463.940" r="45.351" fill="#7fb3d5" fill-opacity="0.65" stroke="#1f4e79" stroke-width="1" clip-path="url(#inside)"/>
<circle cx="270.265" cy="463.940" r="1.4" fill="#1f4e79"/>
<circle cx="415.357" cy="549.908" r="45.351" fill="#7fb3d5" fill-opacity="0.65" stroke="#1f4e79" stroke-width="1" clip-path="url(#inside)"/>
<circle cx="415.357" cy="549.908" r="1.4" fill="#1f4e79"/>
<circle cx="477.569" cy="483.903" r="45.351" fill="#7fb3d5" fill-opacity="0.65" stroke="#1f4e79" stroke-width="1" clip-path="url(#inside)"/>
<circle cx="477.569" cy="483.903" r="1.4" fill="#1f4e79"/>
<circle cx="236.855" cy="151.177" r="45.351" fill="#7fb3d5" fill-opacity="0.65" stroke="#1f4e79" stroke-width="1" clip-path="url(#inside)"/>
<circle cx="236.855" cy="151.177" r="1.4" fill="#1f4e79"/>
<circle cx="90.703" cy="538.556" r="45.351" fill="#7fb3d5" fill-opacity="0.65" stroke="#1f4e79" stroke-width="1" clip-path="url(#inside)"/>
<circle cx="90.703" cy="538.556" r="1.4" fill="#1f4e79"/>
<circle cx="314.649" cy="197.817" r="45.351" fill="#7fb3d5" fill-opacity="0.65" stroke="#1f4e79" stroke-width="1" clip-path="url(#inside)"/>
<circle cx="314.649" cy="197.817" r="1.4" fill="#1f4e79"/>
<circle cx="549.928" cy="629.297" r="45.351" fill="#7fb3d5" fill-opacity="0.65" stroke="#1f4e79" stroke-width="1" clip-path="url(#inside)"/>
<circle cx="549.928" cy="629.297" r="1.4" fill="#1f4e79"/>
<circle cx="90.703" cy="350.282" r="45.351" fill="#7fb3d5" fill-opacity="0.65" stroke="#1f4e79" stroke-width="1" clip-path="url(#inside)"/>
<circle cx="90.703" cy="350.282" r="1.4" fill="#1f4e79"/>
<circle cx="169.254" cy="395.633" r="45.351" fill="#7fb3d5" fill-opacity="0.65" stroke="#1f4e79" stroke-width="1" clip-path="url(#inside)"/>
<circle cx="169.254" cy="395.633" r="1.4" fill="#1f4e79"/>
<circle cx="90.703" cy="136.054" r="45.351" fill="#7fb3d5" fill-opacity="0.65" stroke="#1f4e79" stroke-width="1" clip-path="url(#inside)"/>
<circle cx="90.703" cy="136.054" r="1.4" fill="#1f4e79"/>
<circle cx="233.951" cy="549.908" r="45.351" fill="#7fb3d5" fill-opacity="0.65" stroke="#1f4e79" stroke-width="1" clip-path="url(#inside)"/>
<circle cx="233.951" cy="549.908" r="1.4" fill="#1f4e79"/>
<circle cx="629.297" cy="585.393" r="45.351" fill="#7fb3d5" fill-opacity="0.65" stroke="#1f4e79" stroke-width="1" clip-path="url(#inside)"/>
<circle cx="629.297" cy="585.393" r="1.4" fill="#1f4e79"/>
<polygon points="45.351,674.649 674.649,674.649 674.649,360.000 360.000,360.000 360.000,45.351 45.351,45.351" fill="none" stroke="#000000" stroke-width="3" mask="url(#outside)"/>
<text x="6" y="16" font-family="sans-serif" font-size="13" fill="#222">circles in L-tromino  n=35  s=13.875994</text>
</svg>