<svg xmlns="http://www.w3.org/2000/svg" width="400.0" height="400.0" viewBox="0 0 400.0 400.0">
<rect width="400.0" height="400.0" fill="white"/>
<circle cx="173.47" cy="158.18" r="26.53" fill="#cccccc" stroke="#000000" stroke-width="1.00"/>
<circle cx="88.41" cy="42.45" r="26.53" fill="#cccccc" stroke="#000000" stroke-width="1.00"/>
<circle cx="42.45" cy="247.38" r="26.53" fill="#cccccc" stroke="#000000" stroke-width="1.00"/>
<circle cx="295.31" cy="226.53" r="26.53" fill="#cccccc" stroke="#000000" stroke-width="1.00"/>
<circle cx="348.38" cy="226.53" r="26.53" fill="#cccccc" stroke="#000000" stroke-width="1.00"/>
<circle cx="179.32" cy="311.10" r="26.53" fill="#cccccc" stroke="#000000" stroke-width="1.00"/>
<circle cx="88.41" cy="273.91" r="26.53" fill="#cccccc" stroke="#000000" stroke-width="1.00"/>
<circle cx="172.31" cy="47.39" r="26.53" fill="#cccccc" stroke="#000000" stroke-width="1.00"/>
<circle cx="151.92" cy="357.55" r="26.53" fill="#cccccc" stroke="#000000" stroke-width="1.00"/>
<circle cx="42.45" cy="357.55" r="26.53" fill="#cccccc" stroke="#000000" stroke-width="1.00"/>
<circle cx="242.25" cy="226.53" r="26.53" fill="#cccccc" stroke="#000000" stroke-width="1.00"/>
<circle cx="42.45" cy="139.74" r="26.53" fill="#cccccc" stroke="#000000" stroke-width="1.00"/>
<circle cx="87.96" cy="167.03" r="26.53" fill="#cccccc" stroke="#000000" stroke-width="1.00"/>
<circle cx="133.92" cy="193.56" r="26.53" fill="#cccccc" stroke="#000000" stroke-width="1.00"/>
<circle cx="127.51" cy="131.65" r="26.53" fill="#cccccc" stroke="#000000" stroke-width="1.00"/>
<circle cx="311.11" cy="304.48" r="26.53" fill="#cccccc" stroke="#000000" stroke-width="1.00"/>
<circle cx="357.55" cy="278.80" r="26.53" fill="#cccccc" stroke="#000000" stroke-width="1.00"/>
<circle cx="98.13" cy="357.55" r="26.53" fill="#cccccc" stroke="#000000" stroke-width="1.00"/>
<circle cx="205.85" cy="265.15" r="26.53" fill="#cccccc" stroke="#000000" stroke-width="1.00"/>
<circle cx="258.05" cy="357.55" r="26.53" fill="#cccccc" stroke="#000000" stroke-width="1.00"/>
<circle cx="180.84" cy="218.35" r="26.53" fill="#cccccc" stroke="#000000" stroke-width="1.00"/>
<circle cx="204.99" cy="357.55" r="26.53" fill="#cccccc" stroke="#000000" stroke-width="1.00"/>
<circle cx="82.00" cy="104.36" r="26.53" fill="#cccccc" stroke="#000000" stroke-width="1.00"/>
<circle cx="147.50" cy="260.81" r="26.53" fill="#cccccc" stroke="#000000" stroke-width="1.00"/>
<circle cx="232.39" cy="311.10" r="26.53" fill="#cccccc" stroke="#000000" stroke-width="1.00"/>
<circle cx="268.78" cy="272.49" r="26.53" fill="#cccccc" stroke="#000000" stroke-width="1.00"/>
<circle cx="127.96" cy="77.83" r="26.53" fill="#cccccc" stroke="#000000" stroke-width="1.00"/>
<circle cx="42.45" cy="304.46" r="26.53" fill="#cccccc" stroke="#000000" stroke-width="1.00"/>
<circle cx="173.47" cy="105.12" r="26.53" fill="#cccccc" stroke="#000000" stroke-width="1.00"/>
<circle cx="311.11" cy="357.55" r="26.53" fill="#cccccc" stroke="#000000" stroke-width="1.00"/>
<circle cx="42.45" cy="194.31" r="26.53" fill="#cccccc" stroke="#000000" stroke-width="1.00"/>
<circle cx="88.41" cy="220.85" r="26.53" fill="#cccccc" stroke="#000000" stroke-width="1.00"/>
<circle cx="42.45" cy="68.98" r="26.53" fill="#cccccc" stroke="#000000" stroke-width="1.00"/>
<circle cx="126.26" cy="311.10" r="26.53" fill="#cccccc" stroke="#000000" stroke-width="1.00"/>
<circle cx="357.55" cy="331.86" r="26.53" fill="#cccccc" stroke="#000000" stroke-width="1.00"/>
<polygon points="15.92,384.08 384.08,384.08 384.08,200.00 200.00,200.00 200.00,15.92 15.92,15.92" fill="none" stroke="#000000" stroke-width="1.40"/>
</svg>