<svg xmlns="http://www.w3.org/2000/svg" width="720.0" height="720.0" viewBox="0 0 720.0 720.0">
<defs><clipPath id="inside"><polygon points="44.968,675.032 675.032,675.032 675.032,360.000 360.000,360.000 360.000,44.968 44.968,44.968"/></clipPath></defs>
<rect width="720.0" height="720.0" fill="white"/>
<circle cx="482.837" cy="560.740" r="44.968" fill="#7fb3d5" fill-opacity="0.65" stroke="#1f4e79" stroke-width="1" clip-path="url(#inside)"/>
<circle cx="482.837" cy="560.740" r="1.4" fill="#1f4e79"/>
<circle cx="425.545" cy="630.065" r="44.968" fill="#7fb3d5" fill-opacity="0.65" stroke="#1f4e79" stroke-width="1" clip-path="url(#inside)"/>
<circle cx="425.545" cy="630.065" r="1.4" fill="#1f4e79"/>
<circle cx="482.837" cy="404.968" r="44.968" fill="#7fb3d5" fill-opacity="0.65" stroke="#1f4e79" stroke-width="1" clip-path="url(#inside)"/>
<circle cx="482.837" cy="404.968" r="1.4" fill="#1f4e79"/>
<circle cx="392.902" cy="404.968" r="44.968" fill="#7fb3d5" fill-opacity="0.65" stroke="#1f4e79" stroke-width="1" clip-path="url(#inside)"/>
<circle cx="392.902" cy="404.968" r="1.4" fill="#1f4e79"/>
<circle cx="315.032" cy="147.215" r="44.968" fill="#7fb3d5" fill-opacity="0.65" stroke="#1f4e79" stroke-width="1" clip-path="url(#inside)"/>
<circle cx="315.032" cy="147.215" r="1.4" fill="#1f4e79"/>
<circle cx="437.870" cy="482.854" r="44.968" fill="#7fb3d5" fill-opacity="0.65" stroke="#1f4e79" stroke-width="1" clip-path="url(#inside)"/>
<circle cx="437.870" cy="482.854" r="1.4" fill="#1f4e79"/>
<circle cx="527.805" cy="482.854" r="44.968" fill="#7fb3d5" fill-opacity="0.65" stroke="#1f4e79" stroke-width="1" clip-path="url(#inside)"/>
<circle cx="527.805" cy="482.854" r="1.4" fill="#1f4e79"/>
<circle cx="89.935" cy="474.415" r="44.968" fill="#7fb3d5" fill-opacity="0.65" stroke="#1f4e79" stroke-width="1" clip-path="url(#inside)"/>
<circle cx="89.935" cy="474.415" r="1.4" fill="#1f4e79"/>
<circle cx="245.675" cy="474.375" r="44.968" fill="#7fb3d5" fill-opacity="0.65" stroke="#1f4e79" stroke-width="1" clip-path="url(#inside)"/>
<circle cx="245.675" cy="474.375" r="1.4" fill="#1f4e79"/>
<circle cx="380.577" cy="552.179" r="44.968" fill="#7fb3d5" fill-opacity="0.65" stroke="#1f4e79" stroke-width="1" clip-path="url(#inside)"/>
<circle cx="380.577" cy="552.179" r="1.4" fill="#1f4e79"/>
<circle cx="237.151" cy="282.144" r="44.968" fill="#7fb3d5" fill-opacity="0.65" stroke="#1f4e79" stroke-width="1" clip-path="url(#inside)"/>
<circle cx="237.151" cy="282.144" r="1.4" fill="#1f4e79"/>
<circle cx="245.698" cy="89.935" r="44.968" fill="#7fb3d5" fill-opacity="0.65" stroke="#1f4e79" stroke-width="1" clip-path="url(#inside)"/>
<circle cx="245.698" cy="89.935" r="1.4" fill="#1f4e79"/>
<circle cx="159.270" cy="237.168" r="44.968" fill="#7fb3d5" fill-opacity="0.65" stroke="#1f4e79" stroke-width="1" clip-path="url(#inside)"/>
<circle cx="159.270" cy="237.168" r="1.4" fill="#1f4e79"/>
<circle cx="335.610" cy="630.065" r="44.968" fill="#7fb3d5" fill-opacity="0.65" stroke="#1f4e79" stroke-width="1" clip-path="url(#inside)"/>
<circle cx="335.610" cy="630.065" r="1.4" fill="#1f4e79"/>
<circle cx="630.065" cy="474.292" r="44.968" fill="#7fb3d5" fill-opacity="0.65" stroke="#1f4e79" stroke-width="1" clip-path="url(#inside)"/>
<circle cx="630.065" cy="474.292" r="1.4" fill="#1f4e79"/>
<circle cx="288.440" cy="553.492" r="44.968" fill="#7fb3d5" fill-opacity="0.65" stroke="#1f4e79" stroke-width="1" clip-path="url(#inside)"/>
<circle cx="288.440" cy="553.492" r="1.4" fill="#1f4e79"/>
<circle cx="89.935" cy="564.350" r="44.968" fill="#7fb3d5" fill-opacity="0.65" stroke="#1f4e79" stroke-width="1" clip-path="url(#inside)"/>
<circle cx="89.935" cy="564.350" r="1.4" fill="#1f4e79"/>
<circle cx="630.065" cy="630.065" r="44.968" fill="#7fb3d5" fill-opacity="0.65" stroke="#1f4e79" stroke-width="1" clip-path="url(#inside)"/>
<circle cx="630.065" cy="630.065" r="1.4" fill="#1f4e79"/>
<circle cx="167.849" cy="339.464" r="44.968" fill="#7fb3d5" fill-opacity="0.65" stroke="#1f4e79" stroke-width="1" clip-path="url(#inside)"/>
<circle cx="167.849" cy="339.464" r="1.4" fill="#1f4e79"/>
<circle cx="315.032" cy="327.120" r="44.968" fill="#7fb3d5" fill-opacity="0.65" stroke="#1f4e79" stroke-width="1" clip-path="url(#inside)"/>
<circle cx="315.032" cy="327.120" r="1.4" fill="#1f4e79"/>
<circle cx="89.935" cy="179.888" r="44.968" fill="#7fb3d5" fill-opacity="0.65" stroke="#1f4e79" stroke-width="1" clip-path="url(#inside)"/>
<circle cx="89.935" cy="179.888" r="1.4" fill="#1f4e79"/>
<circle cx="89.935" cy="294.448" r="44.968" fill="#7fb3d5" fill-opacity="0.65" stroke="#1f4e79" stroke-width="1" clip-path="url(#inside)"/>
<circle cx="89.935" cy="294.448" r="1.4" fill="#1f4e79"/>
<circle cx="572.773" cy="404.968" r="44.968" fill="#7fb3d5" fill-opacity="0.65" stroke="#1f4e79" stroke-width="1" clip-path="url(#inside)"/>
<circle cx="572.773" cy="404.968" r="1.4" fill="#1f4e79"/>
<circle cx="585.097" cy="552.179" r="44.968" fill="#7fb3d5" fill-opacity="0.65" stroke="#1f4e79" stroke-width="1" clip-path="url(#inside)"/>
<circle cx="585.097" cy="552.179" r="1.4" fill="#1f4e79"/>
<circle cx="335.610" cy="474.292" r="44.968" fill="#7fb3d5" fill-opacity="0.65" stroke="#1f4e79" stroke-width="1" clip-path="url(#inside)"/>
<circle cx="335.610" cy="474.292" r="1.4" fill="#1f4e79"/>
<circle cx="89.935" cy="384.383" r="44.968" fill="#7fb3d5" fill-opacity="0.65" stroke="#1f4e79" stroke-width="1" clip-path="url(#inside)"/>
<circle cx="89.935" cy="384.383" r="1.4" fill="#1f4e79"/>
<circle cx="89.935" cy="89.935" r="44.968" fill="#7fb3d5" fill-opacity="0.65" stroke="#1f4e79" stroke-width="1" clip-path="url(#inside)"/>
<circle cx="89.935" cy="89.935" r="1.4" fill="#1f4e79"/>
<circle cx="237.151" cy="192.192" r="44.968" fill="#7fb3d5" fill-opacity="0.65" stroke="#1f4e79" stroke-width="1" clip-path="url(#inside)"/>
<circle cx="237.151" cy="192.192" r="1.4" fill="#1f4e79"/>
<circle cx="174.153" cy="532.796" r="44.968" fill="#7fb3d5" fill-opacity="0.65" stroke="#1f4e79" stroke-width="1" clip-path="url(#inside)"/>
<circle cx="174.153" cy="532.796" r="1.4" fill="#1f4e79"/>
<circle cx="151.335" cy="630.065" r="44.968" fill="#7fb3d5" fill-opacity="0.65" stroke="#1f4e79" stroke-width="1" clip-path="url(#inside)"/>
<circle cx="151.335" cy="630.065" r="1.4" fill="#1f4e79"/>
<circle cx="245.730" cy="384.440" r="44.968" fill="#7fb3d5" fill-opacity="0.65" stroke="#1f4e79" stroke-width="1" clip-path="url(#inside)"/>
<circle cx="245.730" cy="384.440" r="1.4" fill="#1f4e79"/>
<circle cx="167.793" cy="429.399" r="44.968" fill="#7fb3d5" fill-opacity="0.65" stroke="#1f4e79" stroke-width="1" clip-path="url(#inside)"/>
<circle cx="167.793" cy="429.399" r="1.4" fill="#1f4e79"/>
<circle cx="167.816" cy="134.911" r="44.968" fill="#7fb3d5" fill-opacity="0.65" stroke="#1f4e79" stroke-width="1" clip-path="url(#inside)"/>
<circle cx="167.816" cy="134.911" r="1.4" fill="#1f4e79"/>
<circle cx="315.032" cy="237.168" r="44.968" fill="#7fb3d5" fill-opacity="0.65" stroke="#1f4e79" stroke-width="1" clip-path="url(#inside)"/>
<circle cx="315.032" cy="237.168" r="1.4" fill="#1f4e79"/>
<circle cx="540.130" cy="630.065" r="44.968" fill="#7fb3d5" fill-opacity="0.65" stroke="#1f4e79" stroke-width="1" clip-path="url(#inside)"/>
<circle cx="540.130" cy="630.065" r="1.4" fill="#1f4e79"/>
<circle cx="241.270" cy="630.065" r="44.968" fill="#7fb3d5" fill-opacity="0.65" stroke="#1f4e79" stroke-width="1" clip-path="url(#inside)"/>
<circle cx="241.270" cy="630.065" r="1.4" fill="#1f4e79"/>
<path d="M 40.921,40.921 L 364.047,40.921 L 364.047,355.953 L 679.079,355.953 L 679.079,679.079 L 40.921,679.079 L 40.921,40.921 Z M 675.032,675.032 L 675.032,360.000 L 360.000,360.000 L 360.000,44.968 L 44.968,44.968 L 44.968,675.032 L 675.032,675.032 Z" fill="#000000" fill-rule="evenodd"/>
<text x="6" y="16" font-family="sans-serif" font-size="13" fill="#222">circles in L-tromino  n=36  s=14.011528</text>
</svg>