<svg xmlns="http://www.w3.org/2000/svg" width="400.0" height="400.0" viewBox="0 0 400.0 400.0">
<rect width="400.0" height="400.0" fill="white"/>
<circle cx="271.83" cy="317.39" r="26.30" fill="#cccccc" stroke="#000000" stroke-width="1.00"/>
<circle cx="238.33" cy="357.93" r="26.30" fill="#cccccc" stroke="#000000" stroke-width="1.00"/>
<circle cx="271.83" cy="226.30" r="26.30" fill="#cccccc" stroke="#000000" stroke-width="1.00"/>
<circle cx="219.24" cy="226.30" r="26.30" fill="#cccccc" stroke="#000000" stroke-width="1.00"/>
<circle cx="173.70" cy="75.57" r="26.30" fill="#cccccc" stroke="#000000" stroke-width="1.00"/>
<circle cx="245.54" cy="271.84" r="26.30" fill="#cccccc" stroke="#000000" stroke-width="1.00"/>
<circle cx="298.13" cy="271.84" r="26.30" fill="#cccccc" stroke="#000000" stroke-width="1.00"/>
<circle cx="42.07" cy="266.91" r="26.30" fill="#cccccc" stroke="#000000" stroke-width="1.00"/>
<circle cx="133.15" cy="266.88" r="26.30" fill="#cccccc" stroke="#000000" stroke-width="1.00"/>
<circle cx="212.03" cy="312.38" r="26.30" fill="#cccccc" stroke="#000000" stroke-width="1.00"/>
<circle cx="128.16" cy="154.47" r="26.30" fill="#cccccc" stroke="#000000" stroke-width="1.00"/>
<circle cx="133.16" cy="42.07" r="26.30" fill="#cccccc" stroke="#000000" stroke-width="1.00"/>
<circle cx="82.62" cy="128.17" r="26.30" fill="#cccccc" stroke="#000000" stroke-width="1.00"/>
<circle cx="185.74" cy="357.93" r="26.30" fill="#cccccc" stroke="#000000" stroke-width="1.00"/>
<circle cx="357.93" cy="266.84" r="26.30" fill="#cccccc" stroke="#000000" stroke-width="1.00"/>
<circle cx="158.15" cy="313.15" r="26.30" fill="#cccccc" stroke="#000000" stroke-width="1.00"/>
<circle cx="42.07" cy="319.50" r="26.30" fill="#cccccc" stroke="#000000" stroke-width="1.00"/>
<circle cx="357.93" cy="357.93" r="26.30" fill="#cccccc" stroke="#000000" stroke-width="1.00"/>
<circle cx="87.64" cy="187.99" r="26.30" fill="#cccccc" stroke="#000000" stroke-width="1.00"/>
<circle cx="173.70" cy="180.77" r="26.30" fill="#cccccc" stroke="#000000" stroke-width="1.00"/>
<circle cx="42.07" cy="94.68" r="26.30" fill="#cccccc" stroke="#000000" stroke-width="1.00"/>
<circle cx="42.07" cy="161.67" r="26.30" fill="#cccccc" stroke="#000000" stroke-width="1.00"/>
<circle cx="324.42" cy="226.30" r="26.30" fill="#cccccc" stroke="#000000" stroke-width="1.00"/>
<circle cx="331.63" cy="312.38" r="26.30" fill="#cccccc" stroke="#000000" stroke-width="1.00"/>
<circle cx="185.74" cy="266.84" r="26.30" fill="#cccccc" stroke="#000000" stroke-width="1.00"/>
<circle cx="42.07" cy="214.26" r="26.30" fill="#cccccc" stroke="#000000" stroke-width="1.00"/>
<circle cx="42.07" cy="42.07" r="26.30" fill="#cccccc" stroke="#000000" stroke-width="1.00"/>
<circle cx="128.16" cy="101.87" r="26.30" fill="#cccccc" stroke="#000000" stroke-width="1.00"/>
<circle cx="91.32" cy="301.05" r="26.30" fill="#cccccc" stroke="#000000" stroke-width="1.00"/>
<circle cx="77.98" cy="357.93" r="26.30" fill="#cccccc" stroke="#000000" stroke-width="1.00"/>
<circle cx="133.18" cy="214.29" r="26.30" fill="#cccccc" stroke="#000000" stroke-width="1.00"/>
<circle cx="87.60" cy="240.58" r="26.30" fill="#cccccc" stroke="#000000" stroke-width="1.00"/>
<circle cx="87.62" cy="68.37" r="26.30" fill="#cccccc" stroke="#000000" stroke-width="1.00"/>
<circle cx="173.70" cy="128.17" r="26.30" fill="#cccccc" stroke="#000000" stroke-width="1.00"/>
<circle cx="305.33" cy="357.93" r="26.30" fill="#cccccc" stroke="#000000" stroke-width="1.00"/>
<circle cx="130.57" cy="357.93" r="26.30" fill="#cccccc" stroke="#000000" stroke-width="1.00"/>
<polygon points="15.78,384.22 384.22,384.22 384.22,200.00 200.00,200.00 200.00,15.78 15.78,15.78" fill="none" stroke="#000000" stroke-width="1.40"/>
</svg>