<svg xmlns="http://www.w3.org/2000/svg" width="720.0" height="720.0" viewBox="0 0 720.0 720.0">
<rect width="720.0" height="720.0" fill="white"/>
<polygon points="44.694,675.306 675.306,675.306 675.306,360.000 360.000,360.000 360.000,44.694 44.694,44.694 44.694,675.306" fill="none" stroke="#000000" stroke-width="2"/>
<circle cx="90.161" cy="630.612" r="44.694" fill="#7fb3d5" fill-opacity="0.65" stroke="#1f4e79" stroke-width="1"/>
<circle cx="90.161" cy="630.612" r="1.4" fill="#1f4e79"/>
<circle cx="399.507" cy="540.703" r="44.694" fill="#7fb3d5" fill-opacity="0.65" stroke="#1f4e79" stroke-width="1"/>
<circle cx="399.507" cy="540.703" r="1.4" fill="#1f4e79"/>
<circle cx="553.503" cy="539.297" r="44.694" fill="#7fb3d5" fill-opacity="0.65" stroke="#1f4e79" stroke-width="1"/>
<circle cx="553.503" cy="539.297" r="1.4" fill="#1f4e79"/>
<circle cx="167.574" cy="585.918" r="44.694" fill="#7fb3d5" fill-opacity="0.65" stroke="#1f4e79" stroke-width="1"/>
<circle cx="167.574" cy="585.918" r="1.4" fill="#1f4e79"/>
<circle cx="322.398" cy="585.918" r="44.694" fill="#7fb3d5" fill-opacity="0.65" stroke="#1f4e79" stroke-width="1"/>
<circle cx="322.398" cy="585.918" r="1.4" fill="#1f4e79"/>
<circle cx="630.612" cy="584.513" r="44.694" fill="#7fb3d5" fill-opacity="0.65" stroke="#1f4e79" stroke-width="1"/>
<circle cx="630.612" cy="584.513" r="1.4" fill="#1f4e79"/>
<circle cx="89.388" cy="362.451" r="44.694" fill="#7fb3d5" fill-opacity="0.65" stroke="#1f4e79" stroke-width="1"/>
<circle cx="89.388" cy="362.451" r="1.4" fill="#1f4e79"/>
<circle cx="475.787" cy="404.694" r="44.694" fill="#7fb3d5" fill-opacity="0.65" stroke="#1f4e79" stroke-width="1"/>
<circle cx="475.787" cy="404.694" r="1.4" fill="#1f4e79"/>
<circle cx="244.986" cy="630.612" r="44.694" fill="#7fb3d5" fill-opacity="0.65" stroke="#1f4e79" stroke-width="1"/>
<circle cx="244.986" cy="630.612" r="1.4" fill="#1f4e79"/>
<circle cx="176.264" cy="198.828" r="44.694" fill="#7fb3d5" fill-opacity="0.65" stroke="#1f4e79" stroke-width="1"/>
<circle cx="176.264" cy="198.828" r="1.4" fill="#1f4e79"/>
<circle cx="89.388" cy="541.227" r="44.694" fill="#7fb3d5" fill-opacity="0.65" stroke="#1f4e79" stroke-width="1"/>
<circle cx="89.388" cy="541.227" r="1.4" fill="#1f4e79"/>
<circle cx="192.047" cy="89.388" r="44.694" fill="#7fb3d5" fill-opacity="0.65" stroke="#1f4e79" stroke-width="1"/>
<circle cx="192.047" cy="89.388" r="1.4" fill="#1f4e79"/>
<circle cx="244.213" cy="362.451" r="44.694" fill="#7fb3d5" fill-opacity="0.65" stroke="#1f4e79" stroke-width="1"/>
<circle cx="244.213" cy="362.451" r="1.4" fill="#1f4e79"/>
<circle cx="244.213" cy="451.839" r="44.694" fill="#7fb3d5" fill-opacity="0.65" stroke="#1f4e79" stroke-width="1"/>
<circle cx="244.213" cy="451.839" r="1.4" fill="#1f4e79"/>
<circle cx="89.388" cy="267.201" r="44.694" fill="#7fb3d5" fill-opacity="0.65" stroke="#1f4e79" stroke-width="1"/>
<circle cx="89.388" cy="267.201" r="1.4" fill="#1f4e79"/>
<circle cx="253.676" cy="154.134" r="44.694" fill="#7fb3d5" fill-opacity="0.65" stroke="#1f4e79" stroke-width="1"/>
<circle cx="253.676" cy="154.134" r="1.4" fill="#1f4e79"/>
<circle cx="166.800" cy="317.757" r="44.694" fill="#7fb3d5" fill-opacity="0.65" stroke="#1f4e79" stroke-width="1"/>
<circle cx="166.800" cy="317.757" r="1.4" fill="#1f4e79"/>
<circle cx="166.800" cy="407.145" r="44.694" fill="#7fb3d5" fill-opacity="0.65" stroke="#1f4e79" stroke-width="1"/>
<circle cx="166.800" cy="407.145" r="1.4" fill="#1f4e79"/>
<circle cx="326.684" cy="396.928" r="44.694" fill="#7fb3d5" fill-opacity="0.65" stroke="#1f4e79" stroke-width="1"/>
<circle cx="326.684" cy="396.928" r="1.4" fill="#1f4e79"/>
<circle cx="630.612" cy="404.694" r="44.694" fill="#7fb3d5" fill-opacity="0.65" stroke="#1f4e79" stroke-width="1"/>
<circle cx="630.612" cy="404.694" r="1.4" fill="#1f4e79"/>
<circle cx="237.894" cy="263.573" r="44.694" fill="#7fb3d5" fill-opacity="0.65" stroke="#1f4e79" stroke-width="1"/>
<circle cx="237.894" cy="263.573" r="1.4" fill="#1f4e79"/>
<circle cx="399.810" cy="630.612" r="44.694" fill="#7fb3d5" fill-opacity="0.65" stroke="#1f4e79" stroke-width="1"/>
<circle cx="399.810" cy="630.612" r="1.4" fill="#1f4e79"/>
<circle cx="315.306" cy="218.879" r="44.694" fill="#7fb3d5" fill-opacity="0.65" stroke="#1f4e79" stroke-width="1"/>
<circle cx="315.306" cy="218.879" r="1.4" fill="#1f4e79"/>
<circle cx="315.306" cy="308.267" r="44.694" fill="#7fb3d5" fill-opacity="0.65" stroke="#1f4e79" stroke-width="1"/>
<circle cx="315.306" cy="308.267" r="1.4" fill="#1f4e79"/>
<circle cx="553.200" cy="449.388" r="44.694" fill="#7fb3d5" fill-opacity="0.65" stroke="#1f4e79" stroke-width="1"/>
<circle cx="553.200" cy="449.388" r="1.4" fill="#1f4e79"/>
<circle cx="630.612" cy="494.082" r="44.694" fill="#7fb3d5" fill-opacity="0.65" stroke="#1f4e79" stroke-width="1"/>
<circle cx="630.612" cy="494.082" r="1.4" fill="#1f4e79"/>
<circle cx="554.028" cy="630.612" r="44.694" fill="#7fb3d5" fill-opacity="0.65" stroke="#1f4e79" stroke-width="1"/>
<circle cx="554.028" cy="630.612" r="1.4" fill="#1f4e79"/>
<circle cx="166.800" cy="496.533" r="44.694" fill="#7fb3d5" fill-opacity="0.65" stroke="#1f4e79" stroke-width="1"/>
<circle cx="166.800" cy="496.533" r="1.4" fill="#1f4e79"/>
<circle cx="244.986" cy="541.224" r="44.694" fill="#7fb3d5" fill-opacity="0.65" stroke="#1f4e79" stroke-width="1"/>
<circle cx="244.986" cy="541.224" r="1.4" fill="#1f4e79"/>
<circle cx="476.091" cy="494.603" r="44.694" fill="#7fb3d5" fill-opacity="0.65" stroke="#1f4e79" stroke-width="1"/>
<circle cx="476.091" cy="494.603" r="1.4" fill="#1f4e79"/>
<circle cx="102.659" cy="89.388" r="44.694" fill="#7fb3d5" fill-opacity="0.65" stroke="#1f4e79" stroke-width="1"/>
<circle cx="102.659" cy="89.388" r="1.4" fill="#1f4e79"/>
<circle cx="476.919" cy="585.397" r="44.694" fill="#7fb3d5" fill-opacity="0.65" stroke="#1f4e79" stroke-width="1"/>
<circle cx="476.919" cy="585.397" r="1.4" fill="#1f4e79"/>
<circle cx="398.679" cy="449.909" r="44.694" fill="#7fb3d5" fill-opacity="0.65" stroke="#1f4e79" stroke-width="1"/>
<circle cx="398.679" cy="449.909" r="1.4" fill="#1f4e79"/>
<circle cx="89.388" cy="451.839" r="44.694" fill="#7fb3d5" fill-opacity="0.65" stroke="#1f4e79" stroke-width="1"/>
<circle cx="89.388" cy="451.839" r="1.4" fill="#1f4e79"/>
<circle cx="89.388" cy="177.785" r="44.694" fill="#7fb3d5" fill-opacity="0.65" stroke="#1f4e79" stroke-width="1"/>
<circle cx="89.388" cy="177.785" r="1.4" fill="#1f4e79"/>
<circle cx="322.095" cy="496.009" r="44.694" fill="#7fb3d5" fill-opacity="0.65" stroke="#1f4e79" stroke-width="1"/>
<circle cx="322.095" cy="496.009" r="1.4" fill="#1f4e79"/>
<circle cx="315.306" cy="89.388" r="44.694" fill="#7fb3d5" fill-opacity="0.65" stroke="#1f4e79" stroke-width="1"/>
<circle cx="315.306" cy="89.388" r="1.4" fill="#1f4e79"/>
<text x="6" y="16" font-family="sans-serif" font-size="13" fill="#222">circles in L-tromino  n=37  s=14.109546</text>
</svg>