<svg xmlns="http://www.w3.org/2000/svg" width="720.0" height="720.0" viewBox="0 0 720.0 720.0">
<defs><clipPath id="inside"><polygon points="44.342,675.658 675.658,675.658 675.658,360.000 360.000,360.000 360.000,44.342 44.342,44.342"/></clipPath>
<mask id="outside"><rect width="720.0" height="720.0" fill="white"/><polygon points="44.342,675.658 675.658,675.658 675.658,360.000 360.000,360.000 360.000,44.342 44.342,44.342" fill="black"/></mask></defs>
<rect width="720.0" height="720.0" fill="white"/>
<circle cx="448.469" cy="481.145" r="44.342" fill="#7fb3d5" fill-opacity="0.65" stroke="#1f4e79" stroke-width="1" clip-path="url(#inside)"/>
<circle cx="448.469" cy="481.145" r="1.4" fill="#1f4e79"/>
<circle cx="315.658" cy="242.290" r="44.342" fill="#7fb3d5" fill-opacity="0.65" stroke="#1f4e79" stroke-width="1" clip-path="url(#inside)"/>
<circle cx="315.658" cy="242.290" r="1.4" fill="#1f4e79"/>
<circle cx="88.684" cy="315.826" r="44.342" fill="#7fb3d5" fill-opacity="0.65" stroke="#1f4e79" stroke-width="1" clip-path="url(#inside)"/>
<circle cx="88.684" cy="315.826" r="1.4" fill="#1f4e79"/>
<circle cx="221.730" cy="392.596" r="44.342" fill="#7fb3d5" fill-opacity="0.65" stroke="#1f4e79" stroke-width="1" clip-path="url(#inside)"/>
<circle cx="221.730" cy="392.596" r="1.4" fill="#1f4e79"/>
<circle cx="88.684" cy="631.316" r="44.342" fill="#7fb3d5" fill-opacity="0.65" stroke="#1f4e79" stroke-width="1" clip-path="url(#inside)"/>
<circle cx="88.684" cy="631.316" r="1.4" fill="#1f4e79"/>
<circle cx="182.627" cy="165.490" r="44.342" fill="#7fb3d5" fill-opacity="0.65" stroke="#1f4e79" stroke-width="1" clip-path="url(#inside)"/>
<circle cx="182.627" cy="165.490" r="1.4" fill="#1f4e79"/>
<circle cx="130.453" cy="548.858" r="44.342" fill="#7fb3d5" fill-opacity="0.65" stroke="#1f4e79" stroke-width="1" clip-path="url(#inside)"/>
<circle cx="130.453" cy="548.858" r="1.4" fill="#1f4e79"/>
<circle cx="354.306" cy="631.316" r="44.342" fill="#7fb3d5" fill-opacity="0.65" stroke="#1f4e79" stroke-width="1" clip-path="url(#inside)"/>
<circle cx="354.306" cy="631.316" r="1.4" fill="#1f4e79"/>
<circle cx="309.964" cy="554.513" r="44.342" fill="#7fb3d5" fill-opacity="0.65" stroke="#1f4e79" stroke-width="1" clip-path="url(#inside)"/>
<circle cx="309.964" cy="554.513" r="1.4" fill="#1f4e79"/>
<circle cx="631.316" cy="477.710" r="44.342" fill="#7fb3d5" fill-opacity="0.65" stroke="#1f4e79" stroke-width="1" clip-path="url(#inside)"/>
<circle cx="631.316" cy="477.710" r="1.4" fill="#1f4e79"/>
<circle cx="631.316" cy="631.316" r="44.342" fill="#7fb3d5" fill-opacity="0.65" stroke="#1f4e79" stroke-width="1" clip-path="url(#inside)"/>
<circle cx="631.316" cy="631.316" r="1.4" fill="#1f4e79"/>
<circle cx="404.126" cy="404.342" r="44.342" fill="#7fb3d5" fill-opacity="0.65" stroke="#1f4e79" stroke-width="1" clip-path="url(#inside)"/>
<circle cx="404.126" cy="404.342" r="1.4" fill="#1f4e79"/>
<circle cx="88.684" cy="162.198" r="44.342" fill="#7fb3d5" fill-opacity="0.65" stroke="#1f4e79" stroke-width="1" clip-path="url(#inside)"/>
<circle cx="88.684" cy="162.198" r="1.4" fill="#1f4e79"/>
<circle cx="315.658" cy="88.684" r="44.342" fill="#7fb3d5" fill-opacity="0.65" stroke="#1f4e79" stroke-width="1" clip-path="url(#inside)"/>
<circle cx="315.658" cy="88.684" r="1.4" fill="#1f4e79"/>
<circle cx="266.008" cy="469.436" r="44.342" fill="#7fb3d5" fill-opacity="0.65" stroke="#1f4e79" stroke-width="1" clip-path="url(#inside)"/>
<circle cx="266.008" cy="469.436" r="1.4" fill="#1f4e79"/>
<circle cx="537.153" cy="481.145" r="44.342" fill="#7fb3d5" fill-opacity="0.65" stroke="#1f4e79" stroke-width="1" clip-path="url(#inside)"/>
<circle cx="537.153" cy="481.145" r="1.4" fill="#1f4e79"/>
<circle cx="177.346" cy="471.415" r="44.342" fill="#7fb3d5" fill-opacity="0.65" stroke="#1f4e79" stroke-width="1" clip-path="url(#inside)"/>
<circle cx="177.346" cy="471.415" r="1.4" fill="#1f4e79"/>
<circle cx="133.046" cy="392.618" r="44.342" fill="#7fb3d5" fill-opacity="0.65" stroke="#1f4e79" stroke-width="1" clip-path="url(#inside)"/>
<circle cx="133.046" cy="392.618" r="1.4" fill="#1f4e79"/>
<circle cx="354.306" cy="477.710" r="44.342" fill="#7fb3d5" fill-opacity="0.65" stroke="#1f4e79" stroke-width="1" clip-path="url(#inside)"/>
<circle cx="354.306" cy="477.710" r="1.4" fill="#1f4e79"/>
<circle cx="133.008" cy="239.012" r="44.342" fill="#7fb3d5" fill-opacity="0.65" stroke="#1f4e79" stroke-width="1" clip-path="url(#inside)"/>
<circle cx="133.008" cy="239.012" r="1.4" fill="#1f4e79"/>
<circle cx="492.811" cy="557.948" r="44.342" fill="#7fb3d5" fill-opacity="0.65" stroke="#1f4e79" stroke-width="1" clip-path="url(#inside)"/>
<circle cx="492.811" cy="557.948" r="1.4" fill="#1f4e79"/>
<circle cx="398.648" cy="554.513" r="44.342" fill="#7fb3d5" fill-opacity="0.65" stroke="#1f4e79" stroke-width="1" clip-path="url(#inside)"/>
<circle cx="398.648" cy="554.513" r="1.4" fill="#1f4e79"/>
<circle cx="442.990" cy="631.316" r="44.342" fill="#7fb3d5" fill-opacity="0.65" stroke="#1f4e79" stroke-width="1" clip-path="url(#inside)"/>
<circle cx="442.990" cy="631.316" r="1.4" fill="#1f4e79"/>
<circle cx="265.621" cy="631.316" r="44.342" fill="#7fb3d5" fill-opacity="0.65" stroke="#1f4e79" stroke-width="1" clip-path="url(#inside)"/>
<circle cx="265.621" cy="631.316" r="1.4" fill="#1f4e79"/>
<circle cx="221.495" cy="548.330" r="44.342" fill="#7fb3d5" fill-opacity="0.65" stroke="#1f4e79" stroke-width="1" clip-path="url(#inside)"/>
<circle cx="221.495" cy="548.330" r="1.4" fill="#1f4e79"/>
<circle cx="271.550" cy="319.228" r="44.342" fill="#7fb3d5" fill-opacity="0.65" stroke="#1f4e79" stroke-width="1" clip-path="url(#inside)"/>
<circle cx="271.550" cy="319.228" r="1.4" fill="#1f4e79"/>
<circle cx="581.495" cy="404.342" r="44.342" fill="#7fb3d5" fill-opacity="0.65" stroke="#1f4e79" stroke-width="1" clip-path="url(#inside)"/>
<circle cx="581.495" cy="404.342" r="1.4" fill="#1f4e79"/>
<circle cx="177.369" cy="315.804" r="44.342" fill="#7fb3d5" fill-opacity="0.65" stroke="#1f4e79" stroke-width="1" clip-path="url(#inside)"/>
<circle cx="177.369" cy="315.804" r="1.4" fill="#1f4e79"/>
<circle cx="88.684" cy="469.410" r="44.342" fill="#7fb3d5" fill-opacity="0.65" stroke="#1f4e79" stroke-width="1" clip-path="url(#inside)"/>
<circle cx="88.684" cy="469.410" r="1.4" fill="#1f4e79"/>
<circle cx="226.973" cy="88.684" r="44.342" fill="#7fb3d5" fill-opacity="0.65" stroke="#1f4e79" stroke-width="1" clip-path="url(#inside)"/>
<circle cx="226.973" cy="88.684" r="1.4" fill="#1f4e79"/>
<circle cx="226.973" cy="242.290" r="44.342" fill="#7fb3d5" fill-opacity="0.65" stroke="#1f4e79" stroke-width="1" clip-path="url(#inside)"/>
<circle cx="226.973" cy="242.290" r="1.4" fill="#1f4e79"/>
<circle cx="315.829" cy="396.068" r="44.342" fill="#7fb3d5" fill-opacity="0.65" stroke="#1f4e79" stroke-width="1" clip-path="url(#inside)"/>
<circle cx="315.829" cy="396.068" r="1.4" fill="#1f4e79"/>
<circle cx="492.811" cy="404.342" r="44.342" fill="#7fb3d5" fill-opacity="0.65" stroke="#1f4e79" stroke-width="1" clip-path="url(#inside)"/>
<circle cx="492.811" cy="404.342" r="1.4" fill="#1f4e79"/>
<circle cx="586.973" cy="554.513" r="44.342" fill="#7fb3d5" fill-opacity="0.65" stroke="#1f4e79" stroke-width="1" clip-path="url(#inside)"/>
<circle cx="586.973" cy="554.513" r="1.4" fill="#1f4e79"/>
<circle cx="271.316" cy="165.487" r="44.342" fill="#7fb3d5" fill-opacity="0.65" stroke="#1f4e79" stroke-width="1" clip-path="url(#inside)"/>
<circle cx="271.316" cy="165.487" r="1.4" fill="#1f4e79"/>
<circle cx="138.289" cy="88.684" r="44.342" fill="#7fb3d5" fill-opacity="0.65" stroke="#1f4e79" stroke-width="1" clip-path="url(#inside)"/>
<circle cx="138.289" cy="88.684" r="1.4" fill="#1f4e79"/>
<circle cx="177.153" cy="625.132" r="44.342" fill="#7fb3d5" fill-opacity="0.65" stroke="#1f4e79" stroke-width="1" clip-path="url(#inside)"/>
<circle cx="177.153" cy="625.132" r="1.4" fill="#1f4e79"/>
<circle cx="542.631" cy="631.316" r="44.342" fill="#7fb3d5" fill-opacity="0.65" stroke="#1f4e79" stroke-width="1" clip-path="url(#inside)"/>
<circle cx="542.631" cy="631.316" r="1.4" fill="#1f4e79"/>
<polygon points="44.342,675.658 675.658,675.658 675.658,360.000 360.000,360.000 360.000,44.342 44.342,44.342" fill="none" stroke="#000000" stroke-width="3" mask="url(#outside)"/>
<text x="6" y="16" font-family="sans-serif" font-size="13" fill="#222">circles in L-tromino  n=38  s=14.237364</text>
</svg>