<svg xmlns="http://www.w3.org/2000/svg" width="720.0" height="720.0" viewBox="0 0 720.0 720.0">
<defs><clipPath id="inside"><polygon points="44.157,675.843 675.843,675.843 675.843,360.000 360.000,360.000 360.000,44.157 44.157,44.157"/></clipPath></defs>
<rect width="720.0" height="720.0" fill="white"/>
<circle cx="240.752" cy="360.469" r="44.157" fill="#7fb3d5" fill-opacity="0.65" stroke="#1f4e79" stroke-width="1" clip-path="url(#inside)"/>
<circle cx="240.752" cy="360.469" r="1.4" fill="#1f4e79"/>
<circle cx="540.226" cy="480.629" r="44.157" fill="#7fb3d5" fill-opacity="0.65" stroke="#1f4e79" stroke-width="1" clip-path="url(#inside)"/>
<circle cx="540.226" cy="480.629" r="1.4" fill="#1f4e79"/>
<circle cx="164.795" cy="132.470" r="44.157" fill="#7fb3d5" fill-opacity="0.65" stroke="#1f4e79" stroke-width="1" clip-path="url(#inside)"/>
<circle cx="164.795" cy="132.470" r="1.4" fill="#1f4e79"/>
<circle cx="316.250" cy="555.214" r="44.157" fill="#7fb3d5" fill-opacity="0.65" stroke="#1f4e79" stroke-width="1" clip-path="url(#inside)"/>
<circle cx="316.250" cy="555.214" r="1.4" fill="#1f4e79"/>
<circle cx="496.054" cy="404.157" r="44.157" fill="#7fb3d5" fill-opacity="0.65" stroke="#1f4e79" stroke-width="1" clip-path="url(#inside)"/>
<circle cx="496.054" cy="404.157" r="1.4" fill="#1f4e79"/>
<circle cx="164.271" cy="404.625" r="44.157" fill="#7fb3d5" fill-opacity="0.65" stroke="#1f4e79" stroke-width="1" clip-path="url(#inside)"/>
<circle cx="164.271" cy="404.625" r="1.4" fill="#1f4e79"/>
<circle cx="448.764" cy="631.687" r="44.157" fill="#7fb3d5" fill-opacity="0.65" stroke="#1f4e79" stroke-width="1" clip-path="url(#inside)"/>
<circle cx="448.764" cy="631.687" r="1.4" fill="#1f4e79"/>
<circle cx="496.054" cy="557.102" r="44.157" fill="#7fb3d5" fill-opacity="0.65" stroke="#1f4e79" stroke-width="1" clip-path="url(#inside)"/>
<circle cx="496.054" cy="557.102" r="1.4" fill="#1f4e79"/>
<circle cx="239.362" cy="179.787" r="44.157" fill="#7fb3d5" fill-opacity="0.65" stroke="#1f4e79" stroke-width="1" clip-path="url(#inside)"/>
<circle cx="239.362" cy="179.787" r="1.4" fill="#1f4e79"/>
<circle cx="165.308" cy="492.932" r="44.157" fill="#7fb3d5" fill-opacity="0.65" stroke="#1f4e79" stroke-width="1" clip-path="url(#inside)"/>
<circle cx="165.308" cy="492.932" r="1.4" fill="#1f4e79"/>
<circle cx="162.881" cy="223.943" r="44.157" fill="#7fb3d5" fill-opacity="0.65" stroke="#1f4e79" stroke-width="1" clip-path="url(#inside)"/>
<circle cx="162.881" cy="223.943" r="1.4" fill="#1f4e79"/>
<circle cx="451.883" cy="480.629" r="44.157" fill="#7fb3d5" fill-opacity="0.65" stroke="#1f4e79" stroke-width="1" clip-path="url(#inside)"/>
<circle cx="451.883" cy="480.629" r="1.4" fill="#1f4e79"/>
<circle cx="88.313" cy="271.260" r="44.157" fill="#7fb3d5" fill-opacity="0.65" stroke="#1f4e79" stroke-width="1" clip-path="url(#inside)"/>
<circle cx="88.313" cy="271.260" r="1.4" fill="#1f4e79"/>
<circle cx="407.711" cy="404.157" r="44.157" fill="#7fb3d5" fill-opacity="0.65" stroke="#1f4e79" stroke-width="1" clip-path="url(#inside)"/>
<circle cx="407.711" cy="404.157" r="1.4" fill="#1f4e79"/>
<circle cx="89.567" cy="538.950" r="44.157" fill="#7fb3d5" fill-opacity="0.65" stroke="#1f4e79" stroke-width="1" clip-path="url(#inside)"/>
<circle cx="89.567" cy="538.950" r="1.4" fill="#1f4e79"/>
<circle cx="88.313" cy="176.626" r="44.157" fill="#7fb3d5" fill-opacity="0.65" stroke="#1f4e79" stroke-width="1" clip-path="url(#inside)"/>
<circle cx="88.313" cy="176.626" r="1.4" fill="#1f4e79"/>
<circle cx="164.795" cy="315.417" r="44.157" fill="#7fb3d5" fill-opacity="0.65" stroke="#1f4e79" stroke-width="1" clip-path="url(#inside)"/>
<circle cx="164.795" cy="315.417" r="1.4" fill="#1f4e79"/>
<circle cx="315.843" cy="312.256" r="44.157" fill="#7fb3d5" fill-opacity="0.65" stroke="#1f4e79" stroke-width="1" clip-path="url(#inside)"/>
<circle cx="315.843" cy="312.256" r="1.4" fill="#1f4e79"/>
<circle cx="631.687" cy="631.687" r="44.157" fill="#7fb3d5" fill-opacity="0.65" stroke="#1f4e79" stroke-width="1" clip-path="url(#inside)"/>
<circle cx="631.687" cy="631.687" r="1.4" fill="#1f4e79"/>
<circle cx="360.421" cy="478.741" r="44.157" fill="#7fb3d5" fill-opacity="0.65" stroke="#1f4e79" stroke-width="1" clip-path="url(#inside)"/>
<circle cx="360.421" cy="478.741" r="1.4" fill="#1f4e79"/>
<circle cx="88.313" cy="359.573" r="44.157" fill="#7fb3d5" fill-opacity="0.65" stroke="#1f4e79" stroke-width="1" clip-path="url(#inside)"/>
<circle cx="88.313" cy="359.573" r="1.4" fill="#1f4e79"/>
<circle cx="631.687" cy="478.741" r="44.157" fill="#7fb3d5" fill-opacity="0.65" stroke="#1f4e79" stroke-width="1" clip-path="url(#inside)"/>
<circle cx="631.687" cy="478.741" r="1.4" fill="#1f4e79"/>
<circle cx="227.937" cy="555.197" r="44.157" fill="#7fb3d5" fill-opacity="0.65" stroke="#1f4e79" stroke-width="1" clip-path="url(#inside)"/>
<circle cx="227.937" cy="555.197" r="1.4" fill="#1f4e79"/>
<circle cx="88.313" cy="449.677" r="44.157" fill="#7fb3d5" fill-opacity="0.65" stroke="#1f4e79" stroke-width="1" clip-path="url(#inside)"/>
<circle cx="88.313" cy="449.677" r="1.4" fill="#1f4e79"/>
<circle cx="241.276" cy="88.313" r="44.157" fill="#7fb3d5" fill-opacity="0.65" stroke="#1f4e79" stroke-width="1" clip-path="url(#inside)"/>
<circle cx="241.276" cy="88.313" r="1.4" fill="#1f4e79"/>
<circle cx="250.614" cy="456.698" r="44.157" fill="#7fb3d5" fill-opacity="0.65" stroke="#1f4e79" stroke-width="1" clip-path="url(#inside)"/>
<circle cx="250.614" cy="456.698" r="1.4" fill="#1f4e79"/>
<circle cx="88.313" cy="88.313" r="44.157" fill="#7fb3d5" fill-opacity="0.65" stroke="#1f4e79" stroke-width="1" clip-path="url(#inside)"/>
<circle cx="88.313" cy="88.313" r="1.4" fill="#1f4e79"/>
<circle cx="272.078" cy="631.687" r="44.157" fill="#7fb3d5" fill-opacity="0.65" stroke="#1f4e79" stroke-width="1" clip-path="url(#inside)"/>
<circle cx="272.078" cy="631.687" r="1.4" fill="#1f4e79"/>
<circle cx="315.843" cy="223.943" r="44.157" fill="#7fb3d5" fill-opacity="0.65" stroke="#1f4e79" stroke-width="1" clip-path="url(#inside)"/>
<circle cx="315.843" cy="223.943" r="1.4" fill="#1f4e79"/>
<circle cx="584.397" cy="404.157" r="44.157" fill="#7fb3d5" fill-opacity="0.65" stroke="#1f4e79" stroke-width="1" clip-path="url(#inside)"/>
<circle cx="584.397" cy="404.157" r="1.4" fill="#1f4e79"/>
<circle cx="88.313" cy="631.687" r="44.157" fill="#7fb3d5" fill-opacity="0.65" stroke="#1f4e79" stroke-width="1" clip-path="url(#inside)"/>
<circle cx="88.313" cy="631.687" r="1.4" fill="#1f4e79"/>
<circle cx="587.515" cy="555.214" r="44.157" fill="#7fb3d5" fill-opacity="0.65" stroke="#1f4e79" stroke-width="1" clip-path="url(#inside)"/>
<circle cx="587.515" cy="555.214" r="1.4" fill="#1f4e79"/>
<circle cx="315.843" cy="135.630" r="44.157" fill="#7fb3d5" fill-opacity="0.65" stroke="#1f4e79" stroke-width="1" clip-path="url(#inside)"/>
<circle cx="315.843" cy="135.630" r="1.4" fill="#1f4e79"/>
<circle cx="360.421" cy="631.687" r="44.157" fill="#7fb3d5" fill-opacity="0.65" stroke="#1f4e79" stroke-width="1" clip-path="url(#inside)"/>
<circle cx="360.421" cy="631.687" r="1.4" fill="#1f4e79"/>
<circle cx="319.474" cy="400.495" r="44.157" fill="#7fb3d5" fill-opacity="0.65" stroke="#1f4e79" stroke-width="1" clip-path="url(#inside)"/>
<circle cx="319.474" cy="400.495" r="1.4" fill="#1f4e79"/>
<circle cx="404.593" cy="555.214" r="44.157" fill="#7fb3d5" fill-opacity="0.65" stroke="#1f4e79" stroke-width="1" clip-path="url(#inside)"/>
<circle cx="404.593" cy="555.214" r="1.4" fill="#1f4e79"/>
<circle cx="239.362" cy="268.100" r="44.157" fill="#7fb3d5" fill-opacity="0.65" stroke="#1f4e79" stroke-width="1" clip-path="url(#inside)"/>
<circle cx="239.362" cy="268.100" r="1.4" fill="#1f4e79"/>
<circle cx="543.344" cy="631.687" r="44.157" fill="#7fb3d5" fill-opacity="0.65" stroke="#1f4e79" stroke-width="1" clip-path="url(#inside)"/>
<circle cx="543.344" cy="631.687" r="1.4" fill="#1f4e79"/>
<circle cx="177.834" cy="631.473" r="44.157" fill="#7fb3d5" fill-opacity="0.65" stroke="#1f4e79" stroke-width="1" clip-path="url(#inside)"/>
<circle cx="177.834" cy="631.473" r="1.4" fill="#1f4e79"/>
<path d="M 40.182,40.182 L 363.974,40.182 L 363.974,356.026 L 679.818,356.026 L 679.818,679.818 L 40.182,679.818 L 40.182,40.182 Z M 675.843,675.843 L 675.843,360.000 L 360.000,360.000 L 360.000,44.157 L 44.157,44.157 L 44.157,675.843 L 675.843,675.843 Z" fill="#000000" fill-rule="evenodd"/>
<text x="6" y="16" font-family="sans-serif" font-size="13" fill="#222">circles in L-tromino  n=39  s=14.305617</text>
</svg>