<svg xmlns="http://www.w3.org/2000/svg" width="720.0" height="720.0" viewBox="0 0 720.0 720.0">
<defs><clipPath id="inside"><polygon points="43.505,676.495 676.495,676.495 676.495,360.000 360.000,360.000 360.000,43.505 43.505,43.505"/></clipPath>
<mask id="outside"><rect width="720.0" height="720.0" fill="white"/><polygon points="43.505,676.495 676.495,676.495 676.495,360.000 360.000,360.000 360.000,43.505 43.505,43.505" fill="black"/></mask></defs>
<rect width="720.0" height="720.0" fill="white"/>
<circle cx="324.731" cy="632.990" r="43.505" fill="#7fb3d5" fill-opacity="0.65" stroke="#1f4e79" stroke-width="1" clip-path="url(#inside)"/>
<circle cx="324.731" cy="632.990" r="1.4" fill="#1f4e79"/>
<circle cx="87.010" cy="482.377" r="43.505" fill="#7fb3d5" fill-opacity="0.65" stroke="#1f4e79" stroke-width="1" clip-path="url(#inside)"/>
<circle cx="87.010" cy="482.377" r="1.4" fill="#1f4e79"/>
<circle cx="237.713" cy="395.359" r="43.505" fill="#7fb3d5" fill-opacity="0.65" stroke="#1f4e79" stroke-width="1" clip-path="url(#inside)"/>
<circle cx="237.713" cy="395.359" r="1.4" fill="#1f4e79"/>
<circle cx="415.667" cy="484.690" r="43.505" fill="#7fb3d5" fill-opacity="0.65" stroke="#1f4e79" stroke-width="1" clip-path="url(#inside)"/>
<circle cx="415.667" cy="484.690" r="1.4" fill="#1f4e79"/>
<circle cx="159.900" cy="260.825" r="43.505" fill="#7fb3d5" fill-opacity="0.65" stroke="#1f4e79" stroke-width="1" clip-path="url(#inside)"/>
<circle cx="159.900" cy="260.825" r="1.4" fill="#1f4e79"/>
<circle cx="87.010" cy="213.307" r="43.505" fill="#7fb3d5" fill-opacity="0.65" stroke="#1f4e79" stroke-width="1" clip-path="url(#inside)"/>
<circle cx="87.010" cy="213.307" r="1.4" fill="#1f4e79"/>
<circle cx="146.387" cy="632.990" r="43.505" fill="#7fb3d5" fill-opacity="0.65" stroke="#1f4e79" stroke-width="1" clip-path="url(#inside)"/>
<circle cx="146.387" cy="632.990" r="1.4" fill="#1f4e79"/>
<circle cx="87.010" cy="569.387" r="43.505" fill="#7fb3d5" fill-opacity="0.65" stroke="#1f4e79" stroke-width="1" clip-path="url(#inside)"/>
<circle cx="87.010" cy="569.387" r="1.4" fill="#1f4e79"/>
<circle cx="87.010" cy="126.297" r="43.505" fill="#7fb3d5" fill-opacity="0.65" stroke="#1f4e79" stroke-width="1" clip-path="url(#inside)"/>
<circle cx="87.010" cy="126.297" r="1.4" fill="#1f4e79"/>
<circle cx="316.495" cy="261.031" r="43.505" fill="#7fb3d5" fill-opacity="0.65" stroke="#1f4e79" stroke-width="1" clip-path="url(#inside)"/>
<circle cx="316.495" cy="261.031" r="1.4" fill="#1f4e79"/>
<circle cx="506.603" cy="632.990" r="43.505" fill="#7fb3d5" fill-opacity="0.65" stroke="#1f4e79" stroke-width="1" clip-path="url(#inside)"/>
<circle cx="506.603" cy="632.990" r="1.4" fill="#1f4e79"/>
<circle cx="316.478" cy="87.010" r="43.505" fill="#7fb3d5" fill-opacity="0.65" stroke="#1f4e79" stroke-width="1" clip-path="url(#inside)"/>
<circle cx="316.478" cy="87.010" r="1.4" fill="#1f4e79"/>
<circle cx="279.064" cy="558.926" r="43.505" fill="#7fb3d5" fill-opacity="0.65" stroke="#1f4e79" stroke-width="1" clip-path="url(#inside)"/>
<circle cx="279.064" cy="558.926" r="1.4" fill="#1f4e79"/>
<circle cx="233.397" cy="632.990" r="43.505" fill="#7fb3d5" fill-opacity="0.65" stroke="#1f4e79" stroke-width="1" clip-path="url(#inside)"/>
<circle cx="233.397" cy="632.990" r="1.4" fill="#1f4e79"/>
<circle cx="632.990" cy="403.524" r="43.505" fill="#7fb3d5" fill-opacity="0.65" stroke="#1f4e79" stroke-width="1" clip-path="url(#inside)"/>
<circle cx="632.990" cy="403.524" r="1.4" fill="#1f4e79"/>
<circle cx="241.137" cy="217.519" r="43.505" fill="#7fb3d5" fill-opacity="0.65" stroke="#1f4e79" stroke-width="1" clip-path="url(#inside)"/>
<circle cx="241.137" cy="217.519" r="1.4" fill="#1f4e79"/>
<circle cx="502.482" cy="478.863" r="43.505" fill="#7fb3d5" fill-opacity="0.65" stroke="#1f4e79" stroke-width="1" clip-path="url(#inside)"/>
<circle cx="502.482" cy="478.863" r="1.4" fill="#1f4e79"/>
<circle cx="164.647" cy="87.010" r="43.505" fill="#7fb3d5" fill-opacity="0.65" stroke="#1f4e79" stroke-width="1" clip-path="url(#inside)"/>
<circle cx="164.647" cy="87.010" r="1.4" fill="#1f4e79"/>
<circle cx="368.236" cy="557.636" r="43.505" fill="#7fb3d5" fill-opacity="0.65" stroke="#1f4e79" stroke-width="1" clip-path="url(#inside)"/>
<circle cx="368.236" cy="557.636" r="1.4" fill="#1f4e79"/>
<circle cx="545.987" cy="554.216" r="43.505" fill="#7fb3d5" fill-opacity="0.65" stroke="#1f4e79" stroke-width="1" clip-path="url(#inside)"/>
<circle cx="545.987" cy="554.216" r="1.4" fill="#1f4e79"/>
<circle cx="316.495" cy="174.021" r="43.505" fill="#7fb3d5" fill-opacity="0.65" stroke="#1f4e79" stroke-width="1" clip-path="url(#inside)"/>
<circle cx="316.495" cy="174.021" r="1.4" fill="#1f4e79"/>
<circle cx="411.741" cy="632.990" r="43.505" fill="#7fb3d5" fill-opacity="0.65" stroke="#1f4e79" stroke-width="1" clip-path="url(#inside)"/>
<circle cx="411.741" cy="632.990" r="1.4" fill="#1f4e79"/>
<circle cx="87.010" cy="308.342" r="43.505" fill="#7fb3d5" fill-opacity="0.65" stroke="#1f4e79" stroke-width="1" clip-path="url(#inside)"/>
<circle cx="87.010" cy="308.342" r="1.4" fill="#1f4e79"/>
<circle cx="162.364" cy="351.847" r="43.505" fill="#7fb3d5" fill-opacity="0.65" stroke="#1f4e79" stroke-width="1" clip-path="url(#inside)"/>
<circle cx="162.364" cy="351.847" r="1.4" fill="#1f4e79"/>
<circle cx="632.990" cy="555.399" r="43.505" fill="#7fb3d5" fill-opacity="0.65" stroke="#1f4e79" stroke-width="1" clip-path="url(#inside)"/>
<circle cx="632.990" cy="555.399" r="1.4" fill="#1f4e79"/>
<circle cx="324.723" cy="482.287" r="43.505" fill="#7fb3d5" fill-opacity="0.65" stroke="#1f4e79" stroke-width="1" clip-path="url(#inside)"/>
<circle cx="324.723" cy="482.287" r="1.4" fill="#1f4e79"/>
<circle cx="87.010" cy="395.353" r="43.505" fill="#7fb3d5" fill-opacity="0.65" stroke="#1f4e79" stroke-width="1" clip-path="url(#inside)"/>
<circle cx="87.010" cy="395.353" r="1.4" fill="#1f4e79"/>
<circle cx="458.969" cy="403.505" r="43.505" fill="#7fb3d5" fill-opacity="0.65" stroke="#1f4e79" stroke-width="1" clip-path="url(#inside)"/>
<circle cx="458.969" cy="403.505" r="1.4" fill="#1f4e79"/>
<circle cx="593.614" cy="632.990" r="43.505" fill="#7fb3d5" fill-opacity="0.65" stroke="#1f4e79" stroke-width="1" clip-path="url(#inside)"/>
<circle cx="593.614" cy="632.990" r="1.4" fill="#1f4e79"/>
<circle cx="310.603" cy="347.842" r="43.505" fill="#7fb3d5" fill-opacity="0.65" stroke="#1f4e79" stroke-width="1" clip-path="url(#inside)"/>
<circle cx="310.603" cy="347.842" r="1.4" fill="#1f4e79"/>
<circle cx="240.562" cy="129.527" r="43.505" fill="#7fb3d5" fill-opacity="0.65" stroke="#1f4e79" stroke-width="1" clip-path="url(#inside)"/>
<circle cx="240.562" cy="129.527" r="1.4" fill="#1f4e79"/>
<circle cx="459.172" cy="560.044" r="43.505" fill="#7fb3d5" fill-opacity="0.65" stroke="#1f4e79" stroke-width="1" clip-path="url(#inside)"/>
<circle cx="459.172" cy="560.044" r="1.4" fill="#1f4e79"/>
<circle cx="235.253" cy="304.330" r="43.505" fill="#7fb3d5" fill-opacity="0.65" stroke="#1f4e79" stroke-width="1" clip-path="url(#inside)"/>
<circle cx="235.253" cy="304.330" r="1.4" fill="#1f4e79"/>
<circle cx="372.154" cy="409.341" r="43.505" fill="#7fb3d5" fill-opacity="0.65" stroke="#1f4e79" stroke-width="1" clip-path="url(#inside)"/>
<circle cx="372.154" cy="409.341" r="1.4" fill="#1f4e79"/>
<circle cx="237.713" cy="482.370" r="43.505" fill="#7fb3d5" fill-opacity="0.65" stroke="#1f4e79" stroke-width="1" clip-path="url(#inside)"/>
<circle cx="237.713" cy="482.370" r="1.4" fill="#1f4e79"/>
<circle cx="162.360" cy="438.865" r="43.505" fill="#7fb3d5" fill-opacity="0.65" stroke="#1f4e79" stroke-width="1" clip-path="url(#inside)"/>
<circle cx="162.360" cy="438.865" r="1.4" fill="#1f4e79"/>
<circle cx="176.019" cy="549.031" r="43.505" fill="#7fb3d5" fill-opacity="0.65" stroke="#1f4e79" stroke-width="1" clip-path="url(#inside)"/>
<circle cx="176.019" cy="549.031" r="1.4" fill="#1f4e79"/>
<circle cx="545.979" cy="403.505" r="43.505" fill="#7fb3d5" fill-opacity="0.65" stroke="#1f4e79" stroke-width="1" clip-path="url(#inside)"/>
<circle cx="545.979" cy="403.505" r="1.4" fill="#1f4e79"/>
<circle cx="165.784" cy="174.013" r="43.505" fill="#7fb3d5" fill-opacity="0.65" stroke="#1f4e79" stroke-width="1" clip-path="url(#inside)"/>
<circle cx="165.784" cy="174.013" r="1.4" fill="#1f4e79"/>
<circle cx="590.512" cy="479.461" r="43.505" fill="#7fb3d5" fill-opacity="0.65" stroke="#1f4e79" stroke-width="1" clip-path="url(#inside)"/>
<circle cx="590.512" cy="479.461" r="1.4" fill="#1f4e79"/>
<polygon points="43.505,676.495 676.495,676.495 676.495,360.000 360.000,360.000 360.000,43.505 43.505,43.505" fill="none" stroke="#000000" stroke-width="3" mask="url(#outside)"/>
<text x="6" y="16" font-family="sans-serif" font-size="13" fill="#222">circles in L-tromino  n=40  s=14.549743</text>
</svg>