<svg xmlns="http://www.w3.org/2000/svg" width="400.0" height="400.0" viewBox="0 0 400.0 400.0">
<rect width="400.0" height="400.0" fill="white"/>
<circle cx="179.41" cy="359.36" r="25.40" fill="#cccccc" stroke="#000000" stroke-width="1.00"/>
<circle cx="40.64" cy="271.44" r="25.40" fill="#cccccc" stroke="#000000" stroke-width="1.00"/>
<circle cx="128.61" cy="220.64" r="25.40" fill="#cccccc" stroke="#000000" stroke-width="1.00"/>
<circle cx="232.50" cy="272.79" r="25.40" fill="#cccccc" stroke="#000000" stroke-width="1.00"/>
<circle cx="83.19" cy="142.10" r="25.40" fill="#cccccc" stroke="#000000" stroke-width="1.00"/>
<circle cx="40.64" cy="114.36" r="25.40" fill="#cccccc" stroke="#000000" stroke-width="1.00"/>
<circle cx="75.30" cy="359.36" r="25.40" fill="#cccccc" stroke="#000000" stroke-width="1.00"/>
<circle cx="40.64" cy="322.23" r="25.40" fill="#cccccc" stroke="#000000" stroke-width="1.00"/>
<circle cx="40.64" cy="63.57" r="25.40" fill="#cccccc" stroke="#000000" stroke-width="1.00"/>
<circle cx="174.60" cy="142.22" r="25.40" fill="#cccccc" stroke="#000000" stroke-width="1.00"/>
<circle cx="285.58" cy="359.36" r="25.40" fill="#cccccc" stroke="#000000" stroke-width="1.00"/>
<circle cx="174.59" cy="40.64" r="25.40" fill="#cccccc" stroke="#000000" stroke-width="1.00"/>
<circle cx="152.75" cy="316.13" r="25.40" fill="#cccccc" stroke="#000000" stroke-width="1.00"/>
<circle cx="126.09" cy="359.36" r="25.40" fill="#cccccc" stroke="#000000" stroke-width="1.00"/>
<circle cx="359.36" cy="225.41" r="25.40" fill="#cccccc" stroke="#000000" stroke-width="1.00"/>
<circle cx="130.61" cy="116.82" r="25.40" fill="#cccccc" stroke="#000000" stroke-width="1.00"/>
<circle cx="283.18" cy="269.39" r="25.40" fill="#cccccc" stroke="#000000" stroke-width="1.00"/>
<circle cx="85.96" cy="40.64" r="25.40" fill="#cccccc" stroke="#000000" stroke-width="1.00"/>
<circle cx="204.81" cy="315.38" r="25.40" fill="#cccccc" stroke="#000000" stroke-width="1.00"/>
<circle cx="308.57" cy="313.38" r="25.40" fill="#cccccc" stroke="#000000" stroke-width="1.00"/>
<circle cx="174.60" cy="91.43" r="25.40" fill="#cccccc" stroke="#000000" stroke-width="1.00"/>
<circle cx="230.21" cy="359.36" r="25.40" fill="#cccccc" stroke="#000000" stroke-width="1.00"/>
<circle cx="40.64" cy="169.84" r="25.40" fill="#cccccc" stroke="#000000" stroke-width="1.00"/>
<circle cx="84.62" cy="195.24" r="25.40" fill="#cccccc" stroke="#000000" stroke-width="1.00"/>
<circle cx="359.36" cy="314.07" r="25.40" fill="#cccccc" stroke="#000000" stroke-width="1.00"/>
<circle cx="179.41" cy="271.39" r="25.40" fill="#cccccc" stroke="#000000" stroke-width="1.00"/>
<circle cx="40.64" cy="220.64" r="25.40" fill="#cccccc" stroke="#000000" stroke-width="1.00"/>
<circle cx="257.78" cy="225.40" r="25.40" fill="#cccccc" stroke="#000000" stroke-width="1.00"/>
<circle cx="336.38" cy="359.36" r="25.40" fill="#cccccc" stroke="#000000" stroke-width="1.00"/>
<circle cx="171.16" cy="192.90" r="25.40" fill="#cccccc" stroke="#000000" stroke-width="1.00"/>
<circle cx="130.28" cy="65.46" r="25.40" fill="#cccccc" stroke="#000000" stroke-width="1.00"/>
<circle cx="257.89" cy="316.78" r="25.40" fill="#cccccc" stroke="#000000" stroke-width="1.00"/>
<circle cx="127.18" cy="167.50" r="25.40" fill="#cccccc" stroke="#000000" stroke-width="1.00"/>
<circle cx="207.10" cy="228.80" r="25.40" fill="#cccccc" stroke="#000000" stroke-width="1.00"/>
<circle cx="128.61" cy="271.44" r="25.40" fill="#cccccc" stroke="#000000" stroke-width="1.00"/>
<circle cx="84.62" cy="246.04" r="25.40" fill="#cccccc" stroke="#000000" stroke-width="1.00"/>
<circle cx="92.60" cy="310.35" r="25.40" fill="#cccccc" stroke="#000000" stroke-width="1.00"/>
<circle cx="308.57" cy="225.40" r="25.40" fill="#cccccc" stroke="#000000" stroke-width="1.00"/>
<circle cx="86.62" cy="91.43" r="25.40" fill="#cccccc" stroke="#000000" stroke-width="1.00"/>
<circle cx="334.57" cy="269.74" r="25.40" fill="#cccccc" stroke="#000000" stroke-width="1.00"/>
<polygon points="15.24,384.76 384.76,384.76 384.76,200.00 200.00,200.00 200.00,15.24 15.24,15.24" fill="none" stroke="#000000" stroke-width="1.40"/>
</svg>