<svg xmlns="http://www.w3.org/2000/svg" width="400.0" height="400.0" viewBox="0 0 400.0 400.0">
<rect width="400.0" height="400.0" fill="white"/>
<circle cx="140.95" cy="359.73" r="25.17" fill="#cccccc" stroke="#000000" stroke-width="1.00"/>
<circle cx="342.32" cy="359.73" r="25.17" fill="#cccccc" stroke="#000000" stroke-width="1.00"/>
<circle cx="40.27" cy="359.73" r="25.17" fill="#cccccc" stroke="#000000" stroke-width="1.00"/>
<circle cx="309.39" cy="225.17" r="25.17" fill="#cccccc" stroke="#000000" stroke-width="1.00"/>
<circle cx="291.98" cy="359.73" r="25.17" fill="#cccccc" stroke="#000000" stroke-width="1.00"/>
<circle cx="87.40" cy="246.48" r="25.17" fill="#cccccc" stroke="#000000" stroke-width="1.00"/>
<circle cx="359.73" cy="225.17" r="25.17" fill="#cccccc" stroke="#000000" stroke-width="1.00"/>
<circle cx="174.83" cy="140.95" r="25.17" fill="#cccccc" stroke="#000000" stroke-width="1.00"/>
<circle cx="84.65" cy="140.95" r="25.17" fill="#cccccc" stroke="#000000" stroke-width="1.00"/>
<circle cx="174.83" cy="90.61" r="25.17" fill="#cccccc" stroke="#000000" stroke-width="1.00"/>
<circle cx="129.74" cy="62.66" r="25.17" fill="#cccccc" stroke="#000000" stroke-width="1.00"/>
<circle cx="129.74" cy="163.34" r="25.17" fill="#cccccc" stroke="#000000" stroke-width="1.00"/>
<circle cx="171.67" cy="191.20" r="25.17" fill="#cccccc" stroke="#000000" stroke-width="1.00"/>
<circle cx="359.73" cy="312.49" r="25.17" fill="#cccccc" stroke="#000000" stroke-width="1.00"/>
<circle cx="191.30" cy="359.73" r="25.17" fill="#cccccc" stroke="#000000" stroke-width="1.00"/>
<circle cx="108.02" cy="312.49" r="25.17" fill="#cccccc" stroke="#000000" stroke-width="1.00"/>
<circle cx="174.83" cy="40.27" r="25.17" fill="#cccccc" stroke="#000000" stroke-width="1.00"/>
<circle cx="129.50" cy="218.69" r="25.17" fill="#cccccc" stroke="#000000" stroke-width="1.00"/>
<circle cx="90.61" cy="359.73" r="25.17" fill="#cccccc" stroke="#000000" stroke-width="1.00"/>
<circle cx="284.22" cy="268.77" r="25.17" fill="#cccccc" stroke="#000000" stroke-width="1.00"/>
<circle cx="259.05" cy="225.17" r="25.17" fill="#cccccc" stroke="#000000" stroke-width="1.00"/>
<circle cx="309.39" cy="312.36" r="25.17" fill="#cccccc" stroke="#000000" stroke-width="1.00"/>
<circle cx="40.27" cy="164.72" r="25.17" fill="#cccccc" stroke="#000000" stroke-width="1.00"/>
<circle cx="334.65" cy="268.82" r="25.17" fill="#cccccc" stroke="#000000" stroke-width="1.00"/>
<circle cx="259.05" cy="312.49" r="25.17" fill="#cccccc" stroke="#000000" stroke-width="1.00"/>
<circle cx="208.70" cy="312.49" r="25.17" fill="#cccccc" stroke="#000000" stroke-width="1.00"/>
<circle cx="133.19" cy="268.90" r="25.17" fill="#cccccc" stroke="#000000" stroke-width="1.00"/>
<circle cx="57.68" cy="312.49" r="25.17" fill="#cccccc" stroke="#000000" stroke-width="1.00"/>
<circle cx="40.27" cy="114.38" r="25.17" fill="#cccccc" stroke="#000000" stroke-width="1.00"/>
<circle cx="233.88" cy="268.90" r="25.17" fill="#cccccc" stroke="#000000" stroke-width="1.00"/>
<circle cx="208.70" cy="225.30" r="25.17" fill="#cccccc" stroke="#000000" stroke-width="1.00"/>
<circle cx="40.27" cy="265.26" r="25.17" fill="#cccccc" stroke="#000000" stroke-width="1.00"/>
<circle cx="87.32" cy="191.23" r="25.17" fill="#cccccc" stroke="#000000" stroke-width="1.00"/>
<circle cx="129.74" cy="113.00" r="25.17" fill="#cccccc" stroke="#000000" stroke-width="1.00"/>
<circle cx="42.94" cy="214.99" r="25.17" fill="#cccccc" stroke="#000000" stroke-width="1.00"/>
<circle cx="84.65" cy="40.27" r="25.17" fill="#cccccc" stroke="#000000" stroke-width="1.00"/>
<circle cx="40.27" cy="64.03" r="25.17" fill="#cccccc" stroke="#000000" stroke-width="1.00"/>
<circle cx="241.64" cy="359.73" r="25.17" fill="#cccccc" stroke="#000000" stroke-width="1.00"/>
<circle cx="158.36" cy="312.49" r="25.17" fill="#cccccc" stroke="#000000" stroke-width="1.00"/>
<circle cx="84.65" cy="90.61" r="25.17" fill="#cccccc" stroke="#000000" stroke-width="1.00"/>
<circle cx="183.53" cy="268.90" r="25.17" fill="#cccccc" stroke="#000000" stroke-width="1.00"/>
<polygon points="15.10,384.90 384.90,384.90 384.90,200.00 200.00,200.00 200.00,15.10 15.10,15.10" fill="none" stroke="#000000" stroke-width="1.40"/>
</svg>