<svg xmlns="http://www.w3.org/2000/svg" width="400.0" height="400.0" viewBox="0 0 400.0 400.0">
<rect width="400.0" height="400.0" fill="white"/>
<circle cx="39.96" cy="289.73" r="24.83" fill="#cccccc" stroke="#000000" stroke-width="1.00"/>
<circle cx="39.73" cy="89.83" r="24.83" fill="#cccccc" stroke="#000000" stroke-width="1.00"/>
<circle cx="84.80" cy="360.27" r="24.83" fill="#cccccc" stroke="#000000" stroke-width="1.00"/>
<circle cx="290.38" cy="356.00" r="24.83" fill="#cccccc" stroke="#000000" stroke-width="1.00"/>
<circle cx="82.63" cy="215.04" r="24.83" fill="#cccccc" stroke="#000000" stroke-width="1.00"/>
<circle cx="97.33" cy="312.21" r="24.83" fill="#cccccc" stroke="#000000" stroke-width="1.00"/>
<circle cx="235.12" cy="267.24" r="24.83" fill="#cccccc" stroke="#000000" stroke-width="1.00"/>
<circle cx="310.79" cy="310.73" r="24.83" fill="#cccccc" stroke="#000000" stroke-width="1.00"/>
<circle cx="209.27" cy="224.83" r="24.83" fill="#cccccc" stroke="#000000" stroke-width="1.00"/>
<circle cx="184.57" cy="269.52" r="24.83" fill="#cccccc" stroke="#000000" stroke-width="1.00"/>
<circle cx="82.62" cy="164.97" r="24.83" fill="#cccccc" stroke="#000000" stroke-width="1.00"/>
<circle cx="240.89" cy="360.27" r="24.83" fill="#cccccc" stroke="#000000" stroke-width="1.00"/>
<circle cx="39.73" cy="39.73" r="24.83" fill="#cccccc" stroke="#000000" stroke-width="1.00"/>
<circle cx="134.21" cy="278.94" r="24.83" fill="#cccccc" stroke="#000000" stroke-width="1.00"/>
<circle cx="339.23" cy="269.82" r="24.83" fill="#cccccc" stroke="#000000" stroke-width="1.00"/>
<circle cx="125.50" cy="89.83" r="24.83" fill="#cccccc" stroke="#000000" stroke-width="1.00"/>
<circle cx="39.73" cy="240.07" r="24.83" fill="#cccccc" stroke="#000000" stroke-width="1.00"/>
<circle cx="360.27" cy="314.99" r="24.83" fill="#cccccc" stroke="#000000" stroke-width="1.00"/>
<circle cx="39.73" cy="139.92" r="24.83" fill="#cccccc" stroke="#000000" stroke-width="1.00"/>
<circle cx="82.62" cy="64.78" r="24.83" fill="#cccccc" stroke="#000000" stroke-width="1.00"/>
<circle cx="151.44" cy="232.36" r="24.83" fill="#cccccc" stroke="#000000" stroke-width="1.00"/>
<circle cx="191.23" cy="360.27" r="24.83" fill="#cccccc" stroke="#000000" stroke-width="1.00"/>
<circle cx="162.85" cy="319.51" r="24.83" fill="#cccccc" stroke="#000000" stroke-width="1.00"/>
<circle cx="125.50" cy="39.73" r="24.83" fill="#cccccc" stroke="#000000" stroke-width="1.00"/>
<circle cx="310.62" cy="226.01" r="24.83" fill="#cccccc" stroke="#000000" stroke-width="1.00"/>
<circle cx="260.97" cy="224.83" r="24.83" fill="#cccccc" stroke="#000000" stroke-width="1.00"/>
<circle cx="175.17" cy="139.06" r="24.83" fill="#cccccc" stroke="#000000" stroke-width="1.00"/>
<circle cx="175.17" cy="89.40" r="24.83" fill="#cccccc" stroke="#000000" stroke-width="1.00"/>
<circle cx="261.30" cy="314.99" r="24.83" fill="#cccccc" stroke="#000000" stroke-width="1.00"/>
<circle cx="39.73" cy="339.40" r="24.83" fill="#cccccc" stroke="#000000" stroke-width="1.00"/>
<circle cx="339.86" cy="360.27" r="24.83" fill="#cccccc" stroke="#000000" stroke-width="1.00"/>
<circle cx="360.27" cy="224.83" r="24.83" fill="#cccccc" stroke="#000000" stroke-width="1.00"/>
<circle cx="211.79" cy="311.09" r="24.83" fill="#cccccc" stroke="#000000" stroke-width="1.00"/>
<circle cx="82.86" cy="264.70" r="24.83" fill="#cccccc" stroke="#000000" stroke-width="1.00"/>
<circle cx="125.51" cy="139.92" r="24.83" fill="#cccccc" stroke="#000000" stroke-width="1.00"/>
<circle cx="284.77" cy="268.42" r="24.83" fill="#cccccc" stroke="#000000" stroke-width="1.00"/>
<circle cx="175.17" cy="39.73" r="24.83" fill="#cccccc" stroke="#000000" stroke-width="1.00"/>
<circle cx="175.17" cy="188.73" r="24.83" fill="#cccccc" stroke="#000000" stroke-width="1.00"/>
<circle cx="125.52" cy="190.00" r="24.83" fill="#cccccc" stroke="#000000" stroke-width="1.00"/>
<circle cx="134.46" cy="360.27" r="24.83" fill="#cccccc" stroke="#000000" stroke-width="1.00"/>
<circle cx="82.62" cy="114.88" r="24.83" fill="#cccccc" stroke="#000000" stroke-width="1.00"/>
<circle cx="39.73" cy="190.01" r="24.83" fill="#cccccc" stroke="#000000" stroke-width="1.00"/>
<polygon points="14.90,385.10 385.10,385.10 385.10,200.00 200.00,200.00 200.00,14.90 14.90,14.90" fill="none" stroke="#000000" stroke-width="1.40"/>
</svg>