<svg xmlns="http://www.w3.org/2000/svg" width="400.0" height="400.0" viewBox="0 0 400.0 400.0">
<rect width="400.0" height="400.0" fill="white"/>
<circle cx="360.65" cy="311.41" r="24.59" fill="#cccccc" stroke="#000000" stroke-width="1.00"/>
<circle cx="169.69" cy="284.00" r="24.59" fill="#cccccc" stroke="#000000" stroke-width="1.00"/>
<circle cx="81.86" cy="237.56" r="24.59" fill="#cccccc" stroke="#000000" stroke-width="1.00"/>
<circle cx="88.31" cy="39.35" r="24.59" fill="#cccccc" stroke="#000000" stroke-width="1.00"/>
<circle cx="311.47" cy="311.47" r="24.59" fill="#cccccc" stroke="#000000" stroke-width="1.00"/>
<circle cx="39.35" cy="311.47" r="24.59" fill="#cccccc" stroke="#000000" stroke-width="1.00"/>
<circle cx="89.93" cy="137.19" r="24.59" fill="#cccccc" stroke="#000000" stroke-width="1.00"/>
<circle cx="173.88" cy="39.35" r="24.59" fill="#cccccc" stroke="#000000" stroke-width="1.00"/>
<circle cx="127.92" cy="360.65" r="24.59" fill="#cccccc" stroke="#000000" stroke-width="1.00"/>
<circle cx="360.65" cy="360.59" r="24.59" fill="#cccccc" stroke="#000000" stroke-width="1.00"/>
<circle cx="132.62" cy="161.94" r="24.59" fill="#cccccc" stroke="#000000" stroke-width="1.00"/>
<circle cx="84.10" cy="88.35" r="24.59" fill="#cccccc" stroke="#000000" stroke-width="1.00"/>
<circle cx="170.51" cy="336.06" r="24.59" fill="#cccccc" stroke="#000000" stroke-width="1.00"/>
<circle cx="175.41" cy="137.69" r="24.59" fill="#cccccc" stroke="#000000" stroke-width="1.00"/>
<circle cx="122.67" cy="210.11" r="24.59" fill="#cccccc" stroke="#000000" stroke-width="1.00"/>
<circle cx="132.62" cy="112.76" r="24.59" fill="#cccccc" stroke="#000000" stroke-width="1.00"/>
<circle cx="311.47" cy="360.65" r="24.59" fill="#cccccc" stroke="#000000" stroke-width="1.00"/>
<circle cx="127.92" cy="311.47" r="24.59" fill="#cccccc" stroke="#000000" stroke-width="1.00"/>
<circle cx="262.34" cy="226.25" r="24.59" fill="#cccccc" stroke="#000000" stroke-width="1.00"/>
<circle cx="83.63" cy="290.07" r="24.59" fill="#cccccc" stroke="#000000" stroke-width="1.00"/>
<circle cx="336.01" cy="268.85" r="24.59" fill="#cccccc" stroke="#000000" stroke-width="1.00"/>
<circle cx="39.35" cy="157.93" r="24.59" fill="#cccccc" stroke="#000000" stroke-width="1.00"/>
<circle cx="213.19" cy="224.59" r="24.59" fill="#cccccc" stroke="#000000" stroke-width="1.00"/>
<circle cx="175.41" cy="186.87" r="24.59" fill="#cccccc" stroke="#000000" stroke-width="1.00"/>
<circle cx="175.41" cy="88.51" r="24.59" fill="#cccccc" stroke="#000000" stroke-width="1.00"/>
<circle cx="236.33" cy="267.99" r="24.59" fill="#cccccc" stroke="#000000" stroke-width="1.00"/>
<circle cx="165.11" cy="234.97" r="24.59" fill="#cccccc" stroke="#000000" stroke-width="1.00"/>
<circle cx="39.35" cy="360.65" r="24.59" fill="#cccccc" stroke="#000000" stroke-width="1.00"/>
<circle cx="39.35" cy="212.84" r="24.59" fill="#cccccc" stroke="#000000" stroke-width="1.00"/>
<circle cx="262.29" cy="360.65" r="24.59" fill="#cccccc" stroke="#000000" stroke-width="1.00"/>
<circle cx="124.30" cy="262.42" r="24.59" fill="#cccccc" stroke="#000000" stroke-width="1.00"/>
<circle cx="213.00" cy="311.29" r="24.59" fill="#cccccc" stroke="#000000" stroke-width="1.00"/>
<circle cx="39.35" cy="108.75" r="24.59" fill="#cccccc" stroke="#000000" stroke-width="1.00"/>
<circle cx="39.35" cy="262.29" r="24.59" fill="#cccccc" stroke="#000000" stroke-width="1.00"/>
<circle cx="80.15" cy="185.39" r="24.59" fill="#cccccc" stroke="#000000" stroke-width="1.00"/>
<circle cx="360.65" cy="226.28" r="24.59" fill="#cccccc" stroke="#000000" stroke-width="1.00"/>
<circle cx="131.10" cy="63.60" r="24.59" fill="#cccccc" stroke="#000000" stroke-width="1.00"/>
<circle cx="262.18" cy="311.47" r="24.59" fill="#cccccc" stroke="#000000" stroke-width="1.00"/>
<circle cx="83.63" cy="339.26" r="24.59" fill="#cccccc" stroke="#000000" stroke-width="1.00"/>
<circle cx="311.50" cy="224.59" r="24.59" fill="#cccccc" stroke="#000000" stroke-width="1.00"/>
<circle cx="286.83" cy="268.91" r="24.59" fill="#cccccc" stroke="#000000" stroke-width="1.00"/>
<circle cx="40.20" cy="59.46" r="24.59" fill="#cccccc" stroke="#000000" stroke-width="1.00"/>
<circle cx="213.10" cy="360.65" r="24.59" fill="#cccccc" stroke="#000000" stroke-width="1.00"/>
<polygon points="14.75,385.25 385.25,385.25 385.25,200.00 200.00,200.00 200.00,14.75 14.75,14.75" fill="none" stroke="#000000" stroke-width="1.40"/>
</svg>