<svg xmlns="http://www.w3.org/2000/svg" width="400.0" height="400.0" viewBox="0 0 400.0 400.0">
<rect width="400.0" height="400.0" fill="white"/>
<circle cx="83.01" cy="156.24" r="24.29" fill="#cccccc" stroke="#000000" stroke-width="1.00"/>
<circle cx="38.86" cy="87.43" r="24.29" fill="#cccccc" stroke="#000000" stroke-width="1.00"/>
<circle cx="83.01" cy="107.67" r="24.29" fill="#cccccc" stroke="#000000" stroke-width="1.00"/>
<circle cx="265.22" cy="309.10" r="24.29" fill="#cccccc" stroke="#000000" stroke-width="1.00"/>
<circle cx="313.13" cy="317.12" r="24.29" fill="#cccccc" stroke="#000000" stroke-width="1.00"/>
<circle cx="93.67" cy="361.14" r="24.29" fill="#cccccc" stroke="#000000" stroke-width="1.00"/>
<circle cx="38.86" cy="281.29" r="24.29" fill="#cccccc" stroke="#000000" stroke-width="1.00"/>
<circle cx="244.11" cy="358.32" r="24.29" fill="#cccccc" stroke="#000000" stroke-width="1.00"/>
<circle cx="175.71" cy="40.53" r="24.29" fill="#cccccc" stroke="#000000" stroke-width="1.00"/>
<circle cx="361.14" cy="309.78" r="24.29" fill="#cccccc" stroke="#000000" stroke-width="1.00"/>
<circle cx="175.71" cy="186.25" r="24.29" fill="#cccccc" stroke="#000000" stroke-width="1.00"/>
<circle cx="193.14" cy="275.67" r="24.29" fill="#cccccc" stroke="#000000" stroke-width="1.00"/>
<circle cx="117.95" cy="319.08" r="24.29" fill="#cccccc" stroke="#000000" stroke-width="1.00"/>
<circle cx="215.42" cy="224.29" r="24.29" fill="#cccccc" stroke="#000000" stroke-width="1.00"/>
<circle cx="361.14" cy="224.29" r="24.29" fill="#cccccc" stroke="#000000" stroke-width="1.00"/>
<circle cx="195.62" cy="361.14" r="24.29" fill="#cccccc" stroke="#000000" stroke-width="1.00"/>
<circle cx="43.41" cy="232.93" r="24.29" fill="#cccccc" stroke="#000000" stroke-width="1.00"/>
<circle cx="127.17" cy="38.86" r="24.29" fill="#cccccc" stroke="#000000" stroke-width="1.00"/>
<circle cx="127.17" cy="184.58" r="24.29" fill="#cccccc" stroke="#000000" stroke-width="1.00"/>
<circle cx="38.87" cy="360.83" r="24.29" fill="#cccccc" stroke="#000000" stroke-width="1.00"/>
<circle cx="168.93" cy="320.56" r="24.29" fill="#cccccc" stroke="#000000" stroke-width="1.00"/>
<circle cx="38.86" cy="184.58" r="24.29" fill="#cccccc" stroke="#000000" stroke-width="1.00"/>
<circle cx="264.00" cy="224.29" r="24.29" fill="#cccccc" stroke="#000000" stroke-width="1.00"/>
<circle cx="38.86" cy="136.00" r="24.29" fill="#cccccc" stroke="#000000" stroke-width="1.00"/>
<circle cx="217.42" cy="317.74" r="24.29" fill="#cccccc" stroke="#000000" stroke-width="1.00"/>
<circle cx="175.71" cy="137.68" r="24.29" fill="#cccccc" stroke="#000000" stroke-width="1.00"/>
<circle cx="142.24" cy="361.14" r="24.29" fill="#cccccc" stroke="#000000" stroke-width="1.00"/>
<circle cx="167.87" cy="234.19" r="24.29" fill="#cccccc" stroke="#000000" stroke-width="1.00"/>
<circle cx="83.01" cy="59.09" r="24.29" fill="#cccccc" stroke="#000000" stroke-width="1.00"/>
<circle cx="38.86" cy="38.86" r="24.29" fill="#cccccc" stroke="#000000" stroke-width="1.00"/>
<circle cx="312.57" cy="224.29" r="24.29" fill="#cccccc" stroke="#000000" stroke-width="1.00"/>
<circle cx="289.51" cy="267.03" r="24.29" fill="#cccccc" stroke="#000000" stroke-width="1.00"/>
<circle cx="87.88" cy="274.00" r="24.29" fill="#cccccc" stroke="#000000" stroke-width="1.00"/>
<circle cx="292.60" cy="361.14" r="24.29" fill="#cccccc" stroke="#000000" stroke-width="1.00"/>
<circle cx="127.17" cy="136.00" r="24.29" fill="#cccccc" stroke="#000000" stroke-width="1.00"/>
<circle cx="338.08" cy="267.03" r="24.29" fill="#cccccc" stroke="#000000" stroke-width="1.00"/>
<circle cx="357.16" cy="360.95" r="24.29" fill="#cccccc" stroke="#000000" stroke-width="1.00"/>
<circle cx="127.17" cy="87.43" r="24.29" fill="#cccccc" stroke="#000000" stroke-width="1.00"/>
<circle cx="240.93" cy="267.03" r="24.29" fill="#cccccc" stroke="#000000" stroke-width="1.00"/>
<circle cx="83.01" cy="204.81" r="24.29" fill="#cccccc" stroke="#000000" stroke-width="1.00"/>
<circle cx="175.71" cy="89.11" r="24.29" fill="#cccccc" stroke="#000000" stroke-width="1.00"/>
<circle cx="144.65" cy="278.50" r="24.29" fill="#cccccc" stroke="#000000" stroke-width="1.00"/>
<circle cx="69.38" cy="319.08" r="24.29" fill="#cccccc" stroke="#000000" stroke-width="1.00"/>
<circle cx="119.38" cy="237.01" r="24.29" fill="#cccccc" stroke="#000000" stroke-width="1.00"/>
<polygon points="14.57,385.43 385.43,385.43 385.43,200.00 200.00,200.00 200.00,14.57 14.57,14.57" fill="none" stroke="#000000" stroke-width="1.40"/>
</svg>