<svg xmlns="http://www.w3.org/2000/svg" width="400.0" height="400.0" viewBox="0 0 400.0 400.0">
<rect width="400.0" height="400.0" fill="white"/>
<circle cx="361.53" cy="272.97" r="24.04" fill="#cccccc" stroke="#000000" stroke-width="1.00"/>
<circle cx="217.17" cy="272.13" r="24.04" fill="#cccccc" stroke="#000000" stroke-width="1.00"/>
<circle cx="43.85" cy="38.47" r="24.04" fill="#cccccc" stroke="#000000" stroke-width="1.00"/>
<circle cx="313.81" cy="355.62" r="24.04" fill="#cccccc" stroke="#000000" stroke-width="1.00"/>
<circle cx="193.95" cy="319.89" r="24.04" fill="#cccccc" stroke="#000000" stroke-width="1.00"/>
<circle cx="127.87" cy="182.73" r="24.04" fill="#cccccc" stroke="#000000" stroke-width="1.00"/>
<circle cx="85.86" cy="158.04" r="24.04" fill="#cccccc" stroke="#000000" stroke-width="1.00"/>
<circle cx="85.86" cy="109.96" r="24.04" fill="#cccccc" stroke="#000000" stroke-width="1.00"/>
<circle cx="38.47" cy="229.83" r="24.04" fill="#cccccc" stroke="#000000" stroke-width="1.00"/>
<circle cx="121.02" cy="361.53" r="24.04" fill="#cccccc" stroke="#000000" stroke-width="1.00"/>
<circle cx="265.27" cy="224.52" r="24.04" fill="#cccccc" stroke="#000000" stroke-width="1.00"/>
<circle cx="217.19" cy="224.04" r="24.04" fill="#cccccc" stroke="#000000" stroke-width="1.00"/>
<circle cx="44.21" cy="134.00" r="24.04" fill="#cccccc" stroke="#000000" stroke-width="1.00"/>
<circle cx="289.76" cy="313.98" r="24.04" fill="#cccccc" stroke="#000000" stroke-width="1.00"/>
<circle cx="313.36" cy="224.04" r="24.04" fill="#cccccc" stroke="#000000" stroke-width="1.00"/>
<circle cx="175.96" cy="134.64" r="24.04" fill="#cccccc" stroke="#000000" stroke-width="1.00"/>
<circle cx="121.42" cy="278.47" r="24.04" fill="#cccccc" stroke="#000000" stroke-width="1.00"/>
<circle cx="169.51" cy="278.47" r="24.04" fill="#cccccc" stroke="#000000" stroke-width="1.00"/>
<circle cx="218.00" cy="361.53" r="24.04" fill="#cccccc" stroke="#000000" stroke-width="1.00"/>
<circle cx="121.43" cy="230.39" r="24.04" fill="#cccccc" stroke="#000000" stroke-width="1.00"/>
<circle cx="38.47" cy="327.99" r="24.04" fill="#cccccc" stroke="#000000" stroke-width="1.00"/>
<circle cx="266.08" cy="361.53" r="24.04" fill="#cccccc" stroke="#000000" stroke-width="1.00"/>
<circle cx="313.45" cy="272.13" r="24.04" fill="#cccccc" stroke="#000000" stroke-width="1.00"/>
<circle cx="361.53" cy="361.53" r="24.04" fill="#cccccc" stroke="#000000" stroke-width="1.00"/>
<circle cx="80.11" cy="205.79" r="24.04" fill="#cccccc" stroke="#000000" stroke-width="1.00"/>
<circle cx="265.26" cy="272.60" r="24.04" fill="#cccccc" stroke="#000000" stroke-width="1.00"/>
<circle cx="169.52" cy="230.39" r="24.04" fill="#cccccc" stroke="#000000" stroke-width="1.00"/>
<circle cx="72.93" cy="361.53" r="24.04" fill="#cccccc" stroke="#000000" stroke-width="1.00"/>
<circle cx="38.47" cy="279.90" r="24.04" fill="#cccccc" stroke="#000000" stroke-width="1.00"/>
<circle cx="127.87" cy="86.56" r="24.04" fill="#cccccc" stroke="#000000" stroke-width="1.00"/>
<circle cx="175.96" cy="86.56" r="24.04" fill="#cccccc" stroke="#000000" stroke-width="1.00"/>
<circle cx="83.46" cy="308.02" r="24.04" fill="#cccccc" stroke="#000000" stroke-width="1.00"/>
<circle cx="38.47" cy="86.26" r="24.04" fill="#cccccc" stroke="#000000" stroke-width="1.00"/>
<circle cx="342.78" cy="317.25" r="24.04" fill="#cccccc" stroke="#000000" stroke-width="1.00"/>
<circle cx="145.46" cy="320.12" r="24.04" fill="#cccccc" stroke="#000000" stroke-width="1.00"/>
<circle cx="85.86" cy="61.87" r="24.04" fill="#cccccc" stroke="#000000" stroke-width="1.00"/>
<circle cx="169.91" cy="361.53" r="24.04" fill="#cccccc" stroke="#000000" stroke-width="1.00"/>
<circle cx="127.87" cy="134.64" r="24.04" fill="#cccccc" stroke="#000000" stroke-width="1.00"/>
<circle cx="361.53" cy="224.85" r="24.04" fill="#cccccc" stroke="#000000" stroke-width="1.00"/>
<circle cx="175.96" cy="182.73" r="24.04" fill="#cccccc" stroke="#000000" stroke-width="1.00"/>
<circle cx="127.87" cy="38.47" r="24.04" fill="#cccccc" stroke="#000000" stroke-width="1.00"/>
<circle cx="242.04" cy="319.89" r="24.04" fill="#cccccc" stroke="#000000" stroke-width="1.00"/>
<circle cx="79.53" cy="254.87" r="24.04" fill="#cccccc" stroke="#000000" stroke-width="1.00"/>
<circle cx="175.96" cy="38.47" r="24.04" fill="#cccccc" stroke="#000000" stroke-width="1.00"/>
<circle cx="38.47" cy="181.74" r="24.04" fill="#cccccc" stroke="#000000" stroke-width="1.00"/>
<polygon points="14.43,385.57 385.57,385.57 385.57,200.00 200.00,200.00 200.00,14.43 14.43,14.43" fill="none" stroke="#000000" stroke-width="1.40"/>
</svg>