<svg xmlns="http://www.w3.org/2000/svg" width="400.0" height="400.0" viewBox="0 0 400.0 400.0">
<rect width="400.0" height="400.0" fill="white"/>
<circle cx="37.84" cy="37.84" r="23.65" fill="#cccccc" stroke="#000000" stroke-width="1.00"/>
<circle cx="357.46" cy="273.76" r="23.65" fill="#cccccc" stroke="#000000" stroke-width="1.00"/>
<circle cx="173.39" cy="226.93" r="23.65" fill="#cccccc" stroke="#000000" stroke-width="1.00"/>
<circle cx="339.17" cy="362.16" r="23.65" fill="#cccccc" stroke="#000000" stroke-width="1.00"/>
<circle cx="37.84" cy="318.24" r="23.65" fill="#cccccc" stroke="#000000" stroke-width="1.00"/>
<circle cx="168.68" cy="273.99" r="23.65" fill="#cccccc" stroke="#000000" stroke-width="1.00"/>
<circle cx="215.87" cy="270.71" r="23.65" fill="#cccccc" stroke="#000000" stroke-width="1.00"/>
<circle cx="129.80" cy="302.29" r="23.65" fill="#cccccc" stroke="#000000" stroke-width="1.00"/>
<circle cx="85.14" cy="37.84" r="23.65" fill="#cccccc" stroke="#000000" stroke-width="1.00"/>
<circle cx="291.87" cy="361.63" r="23.65" fill="#cccccc" stroke="#000000" stroke-width="1.00"/>
<circle cx="267.77" cy="320.93" r="23.65" fill="#cccccc" stroke="#000000" stroke-width="1.00"/>
<circle cx="176.35" cy="85.12" r="23.65" fill="#cccccc" stroke="#000000" stroke-width="1.00"/>
<circle cx="95.04" cy="84.09" r="23.65" fill="#cccccc" stroke="#000000" stroke-width="1.00"/>
<circle cx="135.39" cy="108.77" r="23.65" fill="#cccccc" stroke="#000000" stroke-width="1.00"/>
<circle cx="92.97" cy="176.99" r="23.65" fill="#cccccc" stroke="#000000" stroke-width="1.00"/>
<circle cx="362.16" cy="226.69" r="23.65" fill="#cccccc" stroke="#000000" stroke-width="1.00"/>
<circle cx="176.35" cy="179.72" r="23.65" fill="#cccccc" stroke="#000000" stroke-width="1.00"/>
<circle cx="37.84" cy="270.94" r="23.65" fill="#cccccc" stroke="#000000" stroke-width="1.00"/>
<circle cx="132.42" cy="203.28" r="23.65" fill="#cccccc" stroke="#000000" stroke-width="1.00"/>
<circle cx="362.16" cy="320.82" r="23.65" fill="#cccccc" stroke="#000000" stroke-width="1.00"/>
<circle cx="127.72" cy="250.34" r="23.65" fill="#cccccc" stroke="#000000" stroke-width="1.00"/>
<circle cx="314.96" cy="317.78" r="23.65" fill="#cccccc" stroke="#000000" stroke-width="1.00"/>
<circle cx="130.14" cy="52.39" r="23.65" fill="#cccccc" stroke="#000000" stroke-width="1.00"/>
<circle cx="47.74" cy="84.09" r="23.65" fill="#cccccc" stroke="#000000" stroke-width="1.00"/>
<circle cx="149.98" cy="362.16" r="23.65" fill="#cccccc" stroke="#000000" stroke-width="1.00"/>
<circle cx="135.39" cy="156.07" r="23.65" fill="#cccccc" stroke="#000000" stroke-width="1.00"/>
<circle cx="263.06" cy="273.87" r="23.65" fill="#cccccc" stroke="#000000" stroke-width="1.00"/>
<circle cx="176.35" cy="132.42" r="23.65" fill="#cccccc" stroke="#000000" stroke-width="1.00"/>
<circle cx="220.57" cy="317.78" r="23.65" fill="#cccccc" stroke="#000000" stroke-width="1.00"/>
<circle cx="314.96" cy="223.65" r="23.65" fill="#cccccc" stroke="#000000" stroke-width="1.00"/>
<circle cx="85.14" cy="270.94" r="23.65" fill="#cccccc" stroke="#000000" stroke-width="1.00"/>
<circle cx="37.84" cy="130.34" r="23.65" fill="#cccccc" stroke="#000000" stroke-width="1.00"/>
<circle cx="244.58" cy="362.16" r="23.65" fill="#cccccc" stroke="#000000" stroke-width="1.00"/>
<circle cx="310.26" cy="270.71" r="23.65" fill="#cccccc" stroke="#000000" stroke-width="1.00"/>
<circle cx="175.15" cy="37.84" r="23.65" fill="#cccccc" stroke="#000000" stroke-width="1.00"/>
<circle cx="55.38" cy="362.16" r="23.65" fill="#cccccc" stroke="#000000" stroke-width="1.00"/>
<circle cx="85.14" cy="223.64" r="23.65" fill="#cccccc" stroke="#000000" stroke-width="1.00"/>
<circle cx="85.14" cy="130.34" r="23.65" fill="#cccccc" stroke="#000000" stroke-width="1.00"/>
<circle cx="267.77" cy="226.81" r="23.65" fill="#cccccc" stroke="#000000" stroke-width="1.00"/>
<circle cx="102.68" cy="362.16" r="23.65" fill="#cccccc" stroke="#000000" stroke-width="1.00"/>
<circle cx="220.57" cy="223.65" r="23.65" fill="#cccccc" stroke="#000000" stroke-width="1.00"/>
<circle cx="197.28" cy="361.88" r="23.65" fill="#cccccc" stroke="#000000" stroke-width="1.00"/>
<circle cx="45.67" cy="176.99" r="23.65" fill="#cccccc" stroke="#000000" stroke-width="1.00"/>
<circle cx="85.14" cy="318.24" r="23.65" fill="#cccccc" stroke="#000000" stroke-width="1.00"/>
<circle cx="173.39" cy="321.06" r="23.65" fill="#cccccc" stroke="#000000" stroke-width="1.00"/>
<circle cx="37.84" cy="223.64" r="23.65" fill="#cccccc" stroke="#000000" stroke-width="1.00"/>
<polygon points="14.19,385.81 385.81,385.81 385.81,200.00 200.00,200.00 200.00,14.19 14.19,14.19" fill="none" stroke="#000000" stroke-width="1.40"/>
</svg>