<svg xmlns="http://www.w3.org/2000/svg" width="400.0" height="400.0" viewBox="0 0 400.0 400.0">
<rect width="400.0" height="400.0" fill="white"/>
<circle cx="37.82" cy="37.82" r="23.64" fill="#cccccc" stroke="#000000" stroke-width="1.00"/>
<circle cx="356.98" cy="272.78" r="23.64" fill="#cccccc" stroke="#000000" stroke-width="1.00"/>
<circle cx="173.27" cy="225.79" r="23.64" fill="#cccccc" stroke="#000000" stroke-width="1.00"/>
<circle cx="341.28" cy="362.18" r="23.64" fill="#cccccc" stroke="#000000" stroke-width="1.00"/>
<circle cx="37.82" cy="319.34" r="23.64" fill="#cccccc" stroke="#000000" stroke-width="1.00"/>
<circle cx="168.07" cy="272.78" r="23.64" fill="#cccccc" stroke="#000000" stroke-width="1.00"/>
<circle cx="215.30" cy="270.63" r="23.64" fill="#cccccc" stroke="#000000" stroke-width="1.00"/>
<circle cx="127.95" cy="298.07" r="23.64" fill="#cccccc" stroke="#000000" stroke-width="1.00"/>
<circle cx="85.10" cy="37.82" r="23.64" fill="#cccccc" stroke="#000000" stroke-width="1.00"/>
<circle cx="294.06" cy="360.03" r="23.64" fill="#cccccc" stroke="#000000" stroke-width="1.00"/>
<circle cx="267.72" cy="319.77" r="23.64" fill="#cccccc" stroke="#000000" stroke-width="1.00"/>
<circle cx="176.36" cy="85.08" r="23.64" fill="#cccccc" stroke="#000000" stroke-width="1.00"/>
<circle cx="95.10" cy="84.03" r="23.64" fill="#cccccc" stroke="#000000" stroke-width="1.00"/>
<circle cx="135.42" cy="108.72" r="23.64" fill="#cccccc" stroke="#000000" stroke-width="1.00"/>
<circle cx="85.10" cy="177.51" r="23.64" fill="#cccccc" stroke="#000000" stroke-width="1.00"/>
<circle cx="362.18" cy="225.79" r="23.64" fill="#cccccc" stroke="#000000" stroke-width="1.00"/>
<circle cx="167.72" cy="178.84" r="23.64" fill="#cccccc" stroke="#000000" stroke-width="1.00"/>
<circle cx="37.82" cy="272.06" r="23.64" fill="#cccccc" stroke="#000000" stroke-width="1.00"/>
<circle cx="126.78" cy="202.48" r="23.64" fill="#cccccc" stroke="#000000" stroke-width="1.00"/>
<circle cx="362.18" cy="319.77" r="23.64" fill="#cccccc" stroke="#000000" stroke-width="1.00"/>
<circle cx="126.78" cy="249.75" r="23.64" fill="#cccccc" stroke="#000000" stroke-width="1.00"/>
<circle cx="314.95" cy="317.62" r="23.64" fill="#cccccc" stroke="#000000" stroke-width="1.00"/>
<circle cx="130.12" cy="52.26" r="23.64" fill="#cccccc" stroke="#000000" stroke-width="1.00"/>
<circle cx="47.83" cy="84.03" r="23.64" fill="#cccccc" stroke="#000000" stroke-width="1.00"/>
<circle cx="152.37" cy="362.18" r="23.64" fill="#cccccc" stroke="#000000" stroke-width="1.00"/>
<circle cx="126.78" cy="155.20" r="23.64" fill="#cccccc" stroke="#000000" stroke-width="1.00"/>
<circle cx="262.53" cy="272.78" r="23.64" fill="#cccccc" stroke="#000000" stroke-width="1.00"/>
<circle cx="176.36" cy="132.36" r="23.64" fill="#cccccc" stroke="#000000" stroke-width="1.00"/>
<circle cx="220.50" cy="317.62" r="23.64" fill="#cccccc" stroke="#000000" stroke-width="1.00"/>
<circle cx="314.95" cy="223.64" r="23.64" fill="#cccccc" stroke="#000000" stroke-width="1.00"/>
<circle cx="85.10" cy="272.06" r="23.64" fill="#cccccc" stroke="#000000" stroke-width="1.00"/>
<circle cx="37.82" cy="130.23" r="23.64" fill="#cccccc" stroke="#000000" stroke-width="1.00"/>
<circle cx="246.83" cy="362.18" r="23.64" fill="#cccccc" stroke="#000000" stroke-width="1.00"/>
<circle cx="309.75" cy="270.63" r="23.64" fill="#cccccc" stroke="#000000" stroke-width="1.00"/>
<circle cx="175.13" cy="37.82" r="23.64" fill="#cccccc" stroke="#000000" stroke-width="1.00"/>
<circle cx="57.82" cy="362.18" r="23.64" fill="#cccccc" stroke="#000000" stroke-width="1.00"/>
<circle cx="85.10" cy="224.79" r="23.64" fill="#cccccc" stroke="#000000" stroke-width="1.00"/>
<circle cx="85.10" cy="130.23" r="23.64" fill="#cccccc" stroke="#000000" stroke-width="1.00"/>
<circle cx="267.72" cy="225.79" r="23.64" fill="#cccccc" stroke="#000000" stroke-width="1.00"/>
<circle cx="105.10" cy="362.18" r="23.64" fill="#cccccc" stroke="#000000" stroke-width="1.00"/>
<circle cx="220.50" cy="223.64" r="23.64" fill="#cccccc" stroke="#000000" stroke-width="1.00"/>
<circle cx="199.60" cy="360.03" r="23.64" fill="#cccccc" stroke="#000000" stroke-width="1.00"/>
<circle cx="37.82" cy="177.51" r="23.64" fill="#cccccc" stroke="#000000" stroke-width="1.00"/>
<circle cx="85.10" cy="319.34" r="23.64" fill="#cccccc" stroke="#000000" stroke-width="1.00"/>
<circle cx="173.27" cy="319.77" r="23.64" fill="#cccccc" stroke="#000000" stroke-width="1.00"/>
<circle cx="37.82" cy="224.79" r="23.64" fill="#cccccc" stroke="#000000" stroke-width="1.00"/>
<polygon points="14.18,385.82 385.82,385.82 385.82,200.00 200.00,200.00 200.00,14.18 14.18,14.18" fill="none" stroke="#000000" stroke-width="1.40"/>
</svg>