<svg xmlns="http://www.w3.org/2000/svg" width="400.0" height="400.0" viewBox="0 0 400.0 400.0">
<rect width="400.0" height="400.0" fill="white"/>
<circle cx="130.62" cy="187.52" r="23.44" fill="#cccccc" stroke="#000000" stroke-width="1.00"/>
<circle cx="176.28" cy="131.28" r="23.44" fill="#cccccc" stroke="#000000" stroke-width="1.00"/>
<circle cx="37.51" cy="271.93" r="23.44" fill="#cccccc" stroke="#000000" stroke-width="1.00"/>
<circle cx="176.28" cy="271.93" r="23.44" fill="#cccccc" stroke="#000000" stroke-width="1.00"/>
<circle cx="270.02" cy="351.53" r="23.44" fill="#cccccc" stroke="#000000" stroke-width="1.00"/>
<circle cx="130.34" cy="362.49" r="23.44" fill="#cccccc" stroke="#000000" stroke-width="1.00"/>
<circle cx="83.45" cy="362.49" r="23.44" fill="#cccccc" stroke="#000000" stroke-width="1.00"/>
<circle cx="84.39" cy="37.51" r="23.44" fill="#cccccc" stroke="#000000" stroke-width="1.00"/>
<circle cx="84.39" cy="225.04" r="23.44" fill="#cccccc" stroke="#000000" stroke-width="1.00"/>
<circle cx="37.51" cy="353.14" r="23.44" fill="#cccccc" stroke="#000000" stroke-width="1.00"/>
<circle cx="37.51" cy="37.51" r="23.44" fill="#cccccc" stroke="#000000" stroke-width="1.00"/>
<circle cx="223.14" cy="223.44" r="23.44" fill="#cccccc" stroke="#000000" stroke-width="1.00"/>
<circle cx="223.14" cy="270.33" r="23.44" fill="#cccccc" stroke="#000000" stroke-width="1.00"/>
<circle cx="37.51" cy="225.04" r="23.44" fill="#cccccc" stroke="#000000" stroke-width="1.00"/>
<circle cx="362.49" cy="362.49" r="23.44" fill="#cccccc" stroke="#000000" stroke-width="1.00"/>
<circle cx="246.58" cy="310.93" r="23.44" fill="#cccccc" stroke="#000000" stroke-width="1.00"/>
<circle cx="84.67" cy="178.16" r="23.44" fill="#cccccc" stroke="#000000" stroke-width="1.00"/>
<circle cx="130.62" cy="93.75" r="23.44" fill="#cccccc" stroke="#000000" stroke-width="1.00"/>
<circle cx="130.34" cy="46.86" r="23.44" fill="#cccccc" stroke="#000000" stroke-width="1.00"/>
<circle cx="270.02" cy="270.33" r="23.44" fill="#cccccc" stroke="#000000" stroke-width="1.00"/>
<circle cx="316.91" cy="223.44" r="23.44" fill="#cccccc" stroke="#000000" stroke-width="1.00"/>
<circle cx="339.05" cy="321.89" r="23.44" fill="#cccccc" stroke="#000000" stroke-width="1.00"/>
<circle cx="176.56" cy="84.39" r="23.44" fill="#cccccc" stroke="#000000" stroke-width="1.00"/>
<circle cx="293.46" cy="310.93" r="23.44" fill="#cccccc" stroke="#000000" stroke-width="1.00"/>
<circle cx="37.79" cy="178.16" r="23.44" fill="#cccccc" stroke="#000000" stroke-width="1.00"/>
<circle cx="37.79" cy="84.39" r="23.44" fill="#cccccc" stroke="#000000" stroke-width="1.00"/>
<circle cx="362.49" cy="281.28" r="23.44" fill="#cccccc" stroke="#000000" stroke-width="1.00"/>
<circle cx="130.34" cy="281.28" r="23.44" fill="#cccccc" stroke="#000000" stroke-width="1.00"/>
<circle cx="315.61" cy="362.49" r="23.44" fill="#cccccc" stroke="#000000" stroke-width="1.00"/>
<circle cx="84.67" cy="84.39" r="23.44" fill="#cccccc" stroke="#000000" stroke-width="1.00"/>
<circle cx="199.72" cy="312.53" r="23.44" fill="#cccccc" stroke="#000000" stroke-width="1.00"/>
<circle cx="177.22" cy="362.49" r="23.44" fill="#cccccc" stroke="#000000" stroke-width="1.00"/>
<circle cx="130.34" cy="140.63" r="23.44" fill="#cccccc" stroke="#000000" stroke-width="1.00"/>
<circle cx="106.89" cy="321.89" r="23.44" fill="#cccccc" stroke="#000000" stroke-width="1.00"/>
<circle cx="316.91" cy="270.33" r="23.44" fill="#cccccc" stroke="#000000" stroke-width="1.00"/>
<circle cx="362.49" cy="234.40" r="23.44" fill="#cccccc" stroke="#000000" stroke-width="1.00"/>
<circle cx="84.39" cy="271.93" r="23.44" fill="#cccccc" stroke="#000000" stroke-width="1.00"/>
<circle cx="130.34" cy="234.40" r="23.44" fill="#cccccc" stroke="#000000" stroke-width="1.00"/>
<circle cx="223.16" cy="353.14" r="23.44" fill="#cccccc" stroke="#000000" stroke-width="1.00"/>
<circle cx="60.95" cy="312.53" r="23.44" fill="#cccccc" stroke="#000000" stroke-width="1.00"/>
<circle cx="37.51" cy="131.28" r="23.44" fill="#cccccc" stroke="#000000" stroke-width="1.00"/>
<circle cx="270.02" cy="223.44" r="23.44" fill="#cccccc" stroke="#000000" stroke-width="1.00"/>
<circle cx="176.28" cy="225.04" r="23.44" fill="#cccccc" stroke="#000000" stroke-width="1.00"/>
<circle cx="153.78" cy="321.89" r="23.44" fill="#cccccc" stroke="#000000" stroke-width="1.00"/>
<circle cx="84.39" cy="131.28" r="23.44" fill="#cccccc" stroke="#000000" stroke-width="1.00"/>
<circle cx="176.56" cy="178.16" r="23.44" fill="#cccccc" stroke="#000000" stroke-width="1.00"/>
<circle cx="176.28" cy="37.51" r="23.44" fill="#cccccc" stroke="#000000" stroke-width="1.00"/>
<polygon points="14.07,385.93 385.93,385.93 385.93,200.00 200.00,200.00 200.00,14.07 14.07,14.07" fill="none" stroke="#000000" stroke-width="1.40"/>
</svg>