<svg xmlns="http://www.w3.org/2000/svg" width="400.0" height="400.0" viewBox="0 0 400.0 400.0">
<rect width="400.0" height="400.0" fill="white"/>
<circle cx="37.25" cy="362.75" r="23.28" fill="#cccccc" stroke="#000000" stroke-width="1.00"/>
<circle cx="87.14" cy="362.75" r="23.28" fill="#cccccc" stroke="#000000" stroke-width="1.00"/>
<circle cx="137.04" cy="362.75" r="23.28" fill="#cccccc" stroke="#000000" stroke-width="1.00"/>
<circle cx="183.60" cy="362.75" r="23.28" fill="#cccccc" stroke="#000000" stroke-width="1.00"/>
<circle cx="230.16" cy="362.75" r="23.28" fill="#cccccc" stroke="#000000" stroke-width="1.00"/>
<circle cx="276.71" cy="362.75" r="23.28" fill="#cccccc" stroke="#000000" stroke-width="1.00"/>
<circle cx="319.73" cy="344.95" r="23.28" fill="#cccccc" stroke="#000000" stroke-width="1.00"/>
<circle cx="362.75" cy="362.75" r="23.28" fill="#cccccc" stroke="#000000" stroke-width="1.00"/>
<circle cx="62.20" cy="323.45" r="23.28" fill="#cccccc" stroke="#000000" stroke-width="1.00"/>
<circle cx="112.09" cy="323.45" r="23.28" fill="#cccccc" stroke="#000000" stroke-width="1.00"/>
<circle cx="158.61" cy="321.49" r="23.28" fill="#cccccc" stroke="#000000" stroke-width="1.00"/>
<circle cx="205.17" cy="321.49" r="23.28" fill="#cccccc" stroke="#000000" stroke-width="1.00"/>
<circle cx="251.72" cy="321.49" r="23.28" fill="#cccccc" stroke="#000000" stroke-width="1.00"/>
<circle cx="295.37" cy="305.28" r="23.28" fill="#cccccc" stroke="#000000" stroke-width="1.00"/>
<circle cx="356.66" cy="316.60" r="23.28" fill="#cccccc" stroke="#000000" stroke-width="1.00"/>
<circle cx="37.25" cy="284.14" r="23.28" fill="#cccccc" stroke="#000000" stroke-width="1.00"/>
<circle cx="87.14" cy="284.14" r="23.28" fill="#cccccc" stroke="#000000" stroke-width="1.00"/>
<circle cx="133.66" cy="282.19" r="23.28" fill="#cccccc" stroke="#000000" stroke-width="1.00"/>
<circle cx="180.18" cy="280.20" r="23.28" fill="#cccccc" stroke="#000000" stroke-width="1.00"/>
<circle cx="226.73" cy="280.23" r="23.28" fill="#cccccc" stroke="#000000" stroke-width="1.00"/>
<circle cx="270.11" cy="263.31" r="23.28" fill="#cccccc" stroke="#000000" stroke-width="1.00"/>
<circle cx="316.66" cy="263.88" r="23.28" fill="#cccccc" stroke="#000000" stroke-width="1.00"/>
<circle cx="362.75" cy="270.44" r="23.28" fill="#cccccc" stroke="#000000" stroke-width="1.00"/>
<circle cx="62.20" cy="244.83" r="23.28" fill="#cccccc" stroke="#000000" stroke-width="1.00"/>
<circle cx="108.71" cy="242.88" r="23.28" fill="#cccccc" stroke="#000000" stroke-width="1.00"/>
<circle cx="156.13" cy="240.34" r="23.28" fill="#cccccc" stroke="#000000" stroke-width="1.00"/>
<circle cx="202.68" cy="239.45" r="23.28" fill="#cccccc" stroke="#000000" stroke-width="1.00"/>
<circle cx="246.34" cy="223.28" r="23.28" fill="#cccccc" stroke="#000000" stroke-width="1.00"/>
<circle cx="293.87" cy="223.28" r="23.28" fill="#cccccc" stroke="#000000" stroke-width="1.00"/>
<circle cx="342.87" cy="223.45" r="23.28" fill="#cccccc" stroke="#000000" stroke-width="1.00"/>
<circle cx="37.25" cy="205.52" r="23.28" fill="#cccccc" stroke="#000000" stroke-width="1.00"/>
<circle cx="83.76" cy="203.57" r="23.28" fill="#cccccc" stroke="#000000" stroke-width="1.00"/>
<circle cx="130.28" cy="201.62" r="23.28" fill="#cccccc" stroke="#000000" stroke-width="1.00"/>
<circle cx="176.72" cy="198.35" r="23.28" fill="#cccccc" stroke="#000000" stroke-width="1.00"/>
<circle cx="58.22" cy="163.96" r="23.28" fill="#cccccc" stroke="#000000" stroke-width="1.00"/>
<circle cx="104.74" cy="162.01" r="23.28" fill="#cccccc" stroke="#000000" stroke-width="1.00"/>
<circle cx="151.22" cy="159.40" r="23.28" fill="#cccccc" stroke="#000000" stroke-width="1.00"/>
<circle cx="37.25" cy="122.39" r="23.28" fill="#cccccc" stroke="#000000" stroke-width="1.00"/>
<circle cx="83.76" cy="120.44" r="23.28" fill="#cccccc" stroke="#000000" stroke-width="1.00"/>
<circle cx="130.24" cy="117.75" r="23.28" fill="#cccccc" stroke="#000000" stroke-width="1.00"/>
<circle cx="176.72" cy="120.44" r="23.28" fill="#cccccc" stroke="#000000" stroke-width="1.00"/>
<circle cx="58.16" cy="80.80" r="23.28" fill="#cccccc" stroke="#000000" stroke-width="1.00"/>
<circle cx="104.67" cy="78.84" r="23.28" fill="#cccccc" stroke="#000000" stroke-width="1.00"/>
<circle cx="155.81" cy="78.84" r="23.28" fill="#cccccc" stroke="#000000" stroke-width="1.00"/>
<circle cx="37.25" cy="39.20" r="23.28" fill="#cccccc" stroke="#000000" stroke-width="1.00"/>
<circle cx="83.76" cy="37.25" r="23.28" fill="#cccccc" stroke="#000000" stroke-width="1.00"/>
<circle cx="130.24" cy="39.94" r="23.28" fill="#cccccc" stroke="#000000" stroke-width="1.00"/>
<circle cx="176.72" cy="37.25" r="23.28" fill="#cccccc" stroke="#000000" stroke-width="1.00"/>
<polygon points="13.97,386.03 386.03,386.03 386.03,200.00 200.00,200.00 200.00,13.97 13.97,13.97" fill="none" stroke="#000000" stroke-width="1.40"/>
</svg>