<svg xmlns="http://www.w3.org/2000/svg" width="400.0" height="400.0" viewBox="0 0 400.0 400.0">
<rect width="400.0" height="400.0" fill="white"/>
<circle cx="37.24" cy="362.76" r="23.28" fill="#cccccc" stroke="#000000" stroke-width="1.00"/>
<circle cx="83.79" cy="362.76" r="23.28" fill="#cccccc" stroke="#000000" stroke-width="1.00"/>
<circle cx="134.81" cy="362.76" r="23.28" fill="#cccccc" stroke="#000000" stroke-width="1.00"/>
<circle cx="181.36" cy="362.76" r="23.28" fill="#cccccc" stroke="#000000" stroke-width="1.00"/>
<circle cx="227.91" cy="362.76" r="23.28" fill="#cccccc" stroke="#000000" stroke-width="1.00"/>
<circle cx="274.46" cy="362.76" r="23.28" fill="#cccccc" stroke="#000000" stroke-width="1.00"/>
<circle cx="318.61" cy="347.99" r="23.28" fill="#cccccc" stroke="#000000" stroke-width="1.00"/>
<circle cx="362.76" cy="362.76" r="23.28" fill="#cccccc" stroke="#000000" stroke-width="1.00"/>
<circle cx="60.52" cy="322.44" r="23.28" fill="#cccccc" stroke="#000000" stroke-width="1.00"/>
<circle cx="109.30" cy="323.82" r="23.28" fill="#cccccc" stroke="#000000" stroke-width="1.00"/>
<circle cx="158.08" cy="322.44" r="23.28" fill="#cccccc" stroke="#000000" stroke-width="1.00"/>
<circle cx="204.64" cy="322.44" r="23.28" fill="#cccccc" stroke="#000000" stroke-width="1.00"/>
<circle cx="252.59" cy="321.63" r="23.28" fill="#cccccc" stroke="#000000" stroke-width="1.00"/>
<circle cx="296.69" cy="306.72" r="23.28" fill="#cccccc" stroke="#000000" stroke-width="1.00"/>
<circle cx="353.47" cy="317.14" r="23.28" fill="#cccccc" stroke="#000000" stroke-width="1.00"/>
<circle cx="37.24" cy="282.13" r="23.28" fill="#cccccc" stroke="#000000" stroke-width="1.00"/>
<circle cx="86.02" cy="283.50" r="23.28" fill="#cccccc" stroke="#000000" stroke-width="1.00"/>
<circle cx="132.58" cy="283.50" r="23.28" fill="#cccccc" stroke="#000000" stroke-width="1.00"/>
<circle cx="181.36" cy="282.13" r="23.28" fill="#cccccc" stroke="#000000" stroke-width="1.00"/>
<circle cx="227.91" cy="282.13" r="23.28" fill="#cccccc" stroke="#000000" stroke-width="1.00"/>
<circle cx="270.24" cy="262.74" r="23.28" fill="#cccccc" stroke="#000000" stroke-width="1.00"/>
<circle cx="316.76" cy="264.39" r="23.28" fill="#cccccc" stroke="#000000" stroke-width="1.00"/>
<circle cx="362.76" cy="271.53" r="23.28" fill="#cccccc" stroke="#000000" stroke-width="1.00"/>
<circle cx="62.75" cy="243.19" r="23.28" fill="#cccccc" stroke="#000000" stroke-width="1.00"/>
<circle cx="109.30" cy="243.19" r="23.28" fill="#cccccc" stroke="#000000" stroke-width="1.00"/>
<circle cx="155.85" cy="243.19" r="23.28" fill="#cccccc" stroke="#000000" stroke-width="1.00"/>
<circle cx="202.33" cy="240.57" r="23.28" fill="#cccccc" stroke="#000000" stroke-width="1.00"/>
<circle cx="245.55" cy="223.28" r="23.28" fill="#cccccc" stroke="#000000" stroke-width="1.00"/>
<circle cx="294.92" cy="223.28" r="23.28" fill="#cccccc" stroke="#000000" stroke-width="1.00"/>
<circle cx="347.72" cy="226.36" r="23.28" fill="#cccccc" stroke="#000000" stroke-width="1.00"/>
<circle cx="37.24" cy="204.25" r="23.28" fill="#cccccc" stroke="#000000" stroke-width="1.00"/>
<circle cx="83.68" cy="201.01" r="23.28" fill="#cccccc" stroke="#000000" stroke-width="1.00"/>
<circle cx="130.23" cy="201.61" r="23.28" fill="#cccccc" stroke="#000000" stroke-width="1.00"/>
<circle cx="176.78" cy="201.61" r="23.28" fill="#cccccc" stroke="#000000" stroke-width="1.00"/>
<circle cx="57.65" cy="162.41" r="23.28" fill="#cccccc" stroke="#000000" stroke-width="1.00"/>
<circle cx="104.50" cy="159.37" r="23.28" fill="#cccccc" stroke="#000000" stroke-width="1.00"/>
<circle cx="153.09" cy="161.06" r="23.28" fill="#cccccc" stroke="#000000" stroke-width="1.00"/>
<circle cx="37.24" cy="120.57" r="23.28" fill="#cccccc" stroke="#000000" stroke-width="1.00"/>
<circle cx="83.71" cy="117.72" r="23.28" fill="#cccccc" stroke="#000000" stroke-width="1.00"/>
<circle cx="130.17" cy="120.54" r="23.28" fill="#cccccc" stroke="#000000" stroke-width="1.00"/>
<circle cx="176.72" cy="120.95" r="23.28" fill="#cccccc" stroke="#000000" stroke-width="1.00"/>
<circle cx="58.01" cy="78.91" r="23.28" fill="#cccccc" stroke="#000000" stroke-width="1.00"/>
<circle cx="109.38" cy="78.89" r="23.28" fill="#cccccc" stroke="#000000" stroke-width="1.00"/>
<circle cx="155.93" cy="79.30" r="23.28" fill="#cccccc" stroke="#000000" stroke-width="1.00"/>
<circle cx="37.24" cy="37.24" r="23.28" fill="#cccccc" stroke="#000000" stroke-width="1.00"/>
<circle cx="83.71" cy="40.06" r="23.28" fill="#cccccc" stroke="#000000" stroke-width="1.00"/>
<circle cx="130.17" cy="37.24" r="23.28" fill="#cccccc" stroke="#000000" stroke-width="1.00"/>
<circle cx="176.72" cy="37.65" r="23.28" fill="#cccccc" stroke="#000000" stroke-width="1.00"/>
<polygon points="13.97,386.03 386.03,386.03 386.03,200.00 200.00,200.00 200.00,13.97 13.97,13.97" fill="none" stroke="#000000" stroke-width="1.40"/>
</svg>