<svg xmlns="http://www.w3.org/2000/svg" width="400.0" height="400.0" viewBox="0 0 400.0 400.0">
<rect width="400.0" height="400.0" fill="white"/>
<circle cx="36.74" cy="363.26" r="22.96" fill="#cccccc" stroke="#000000" stroke-width="1.00"/>
<circle cx="82.67" cy="363.26" r="22.96" fill="#cccccc" stroke="#000000" stroke-width="1.00"/>
<circle cx="128.60" cy="363.21" r="22.96" fill="#cccccc" stroke="#000000" stroke-width="1.00"/>
<circle cx="174.53" cy="363.26" r="22.96" fill="#cccccc" stroke="#000000" stroke-width="1.00"/>
<circle cx="220.45" cy="363.26" r="22.96" fill="#cccccc" stroke="#000000" stroke-width="1.00"/>
<circle cx="266.38" cy="363.26" r="22.96" fill="#cccccc" stroke="#000000" stroke-width="1.00"/>
<circle cx="307.38" cy="342.55" r="22.96" fill="#cccccc" stroke="#000000" stroke-width="1.00"/>
<circle cx="348.38" cy="363.26" r="22.96" fill="#cccccc" stroke="#000000" stroke-width="1.00"/>
<circle cx="50.81" cy="319.54" r="22.96" fill="#cccccc" stroke="#000000" stroke-width="1.00"/>
<circle cx="96.74" cy="319.54" r="22.96" fill="#cccccc" stroke="#000000" stroke-width="1.00"/>
<circle cx="142.67" cy="319.49" r="22.96" fill="#cccccc" stroke="#000000" stroke-width="1.00"/>
<circle cx="188.60" cy="319.54" r="22.96" fill="#cccccc" stroke="#000000" stroke-width="1.00"/>
<circle cx="234.53" cy="319.54" r="22.96" fill="#cccccc" stroke="#000000" stroke-width="1.00"/>
<circle cx="278.63" cy="306.73" r="22.96" fill="#cccccc" stroke="#000000" stroke-width="1.00"/>
<circle cx="363.26" cy="319.81" r="22.96" fill="#cccccc" stroke="#000000" stroke-width="1.00"/>
<circle cx="36.74" cy="275.82" r="22.96" fill="#cccccc" stroke="#000000" stroke-width="1.00"/>
<circle cx="82.67" cy="275.82" r="22.96" fill="#cccccc" stroke="#000000" stroke-width="1.00"/>
<circle cx="128.60" cy="275.77" r="22.96" fill="#cccccc" stroke="#000000" stroke-width="1.00"/>
<circle cx="174.53" cy="275.82" r="22.96" fill="#cccccc" stroke="#000000" stroke-width="1.00"/>
<circle cx="220.45" cy="275.82" r="22.96" fill="#cccccc" stroke="#000000" stroke-width="1.00"/>
<circle cx="264.56" cy="263.02" r="22.96" fill="#cccccc" stroke="#000000" stroke-width="1.00"/>
<circle cx="323.48" cy="250.92" r="22.96" fill="#cccccc" stroke="#000000" stroke-width="1.00"/>
<circle cx="363.26" cy="273.88" r="22.96" fill="#cccccc" stroke="#000000" stroke-width="1.00"/>
<circle cx="59.22" cy="235.77" r="22.96" fill="#cccccc" stroke="#000000" stroke-width="1.00"/>
<circle cx="105.15" cy="235.77" r="22.96" fill="#cccccc" stroke="#000000" stroke-width="1.00"/>
<circle cx="151.08" cy="235.72" r="22.96" fill="#cccccc" stroke="#000000" stroke-width="1.00"/>
<circle cx="197.00" cy="235.77" r="22.96" fill="#cccccc" stroke="#000000" stroke-width="1.00"/>
<circle cx="241.11" cy="222.96" r="22.96" fill="#cccccc" stroke="#000000" stroke-width="1.00"/>
<circle cx="287.04" cy="222.96" r="22.96" fill="#cccccc" stroke="#000000" stroke-width="1.00"/>
<circle cx="361.33" cy="223.60" r="22.96" fill="#cccccc" stroke="#000000" stroke-width="1.00"/>
<circle cx="36.74" cy="195.72" r="22.96" fill="#cccccc" stroke="#000000" stroke-width="1.00"/>
<circle cx="83.87" cy="195.06" r="22.96" fill="#cccccc" stroke="#000000" stroke-width="1.00"/>
<circle cx="131.00" cy="194.41" r="22.96" fill="#cccccc" stroke="#000000" stroke-width="1.00"/>
<circle cx="177.04" cy="194.41" r="22.96" fill="#cccccc" stroke="#000000" stroke-width="1.00"/>
<circle cx="59.76" cy="155.97" r="22.96" fill="#cccccc" stroke="#000000" stroke-width="1.00"/>
<circle cx="106.89" cy="155.32" r="22.96" fill="#cccccc" stroke="#000000" stroke-width="1.00"/>
<circle cx="154.02" cy="154.67" r="22.96" fill="#cccccc" stroke="#000000" stroke-width="1.00"/>
<circle cx="36.74" cy="116.23" r="22.96" fill="#cccccc" stroke="#000000" stroke-width="1.00"/>
<circle cx="82.78" cy="116.23" r="22.96" fill="#cccccc" stroke="#000000" stroke-width="1.00"/>
<circle cx="129.91" cy="115.58" r="22.96" fill="#cccccc" stroke="#000000" stroke-width="1.00"/>
<circle cx="177.04" cy="114.92" r="22.96" fill="#cccccc" stroke="#000000" stroke-width="1.00"/>
<circle cx="59.76" cy="76.49" r="22.96" fill="#cccccc" stroke="#000000" stroke-width="1.00"/>
<circle cx="105.79" cy="76.48" r="22.96" fill="#cccccc" stroke="#000000" stroke-width="1.00"/>
<circle cx="152.93" cy="75.83" r="22.96" fill="#cccccc" stroke="#000000" stroke-width="1.00"/>
<circle cx="36.74" cy="36.74" r="22.96" fill="#cccccc" stroke="#000000" stroke-width="1.00"/>
<circle cx="82.77" cy="36.74" r="22.96" fill="#cccccc" stroke="#000000" stroke-width="1.00"/>
<circle cx="128.82" cy="36.74" r="22.96" fill="#cccccc" stroke="#000000" stroke-width="1.00"/>
<circle cx="177.04" cy="36.74" r="22.96" fill="#cccccc" stroke="#000000" stroke-width="1.00"/>
<circle cx="323.48" cy="296.84" r="22.96" fill="#cccccc" stroke="#000000" stroke-width="1.00"/>
<polygon points="13.78,386.22 386.22,386.22 386.22,200.00 200.00,200.00 200.00,13.78 13.78,13.78" fill="none" stroke="#000000" stroke-width="1.40"/>
</svg>