<svg xmlns="http://www.w3.org/2000/svg" width="400.0" height="400.0" viewBox="0 0 400.0 400.0">
<rect width="400.0" height="400.0" fill="white"/>
<circle cx="36.28" cy="363.72" r="22.68" fill="#cccccc" stroke="#000000" stroke-width="1.00"/>
<circle cx="36.28" cy="318.37" r="22.68" fill="#cccccc" stroke="#000000" stroke-width="1.00"/>
<circle cx="79.36" cy="349.53" r="22.68" fill="#cccccc" stroke="#000000" stroke-width="1.00"/>
<circle cx="122.43" cy="363.72" r="22.68" fill="#cccccc" stroke="#000000" stroke-width="1.00"/>
<circle cx="79.36" cy="304.18" r="22.68" fill="#cccccc" stroke="#000000" stroke-width="1.00"/>
<circle cx="36.28" cy="273.01" r="22.68" fill="#cccccc" stroke="#000000" stroke-width="1.00"/>
<circle cx="122.43" cy="318.37" r="22.68" fill="#cccccc" stroke="#000000" stroke-width="1.00"/>
<circle cx="165.03" cy="348.15" r="22.68" fill="#cccccc" stroke="#000000" stroke-width="1.00"/>
<circle cx="79.36" cy="258.83" r="22.68" fill="#cccccc" stroke="#000000" stroke-width="1.00"/>
<circle cx="122.43" cy="273.01" r="22.68" fill="#cccccc" stroke="#000000" stroke-width="1.00"/>
<circle cx="36.28" cy="227.66" r="22.68" fill="#cccccc" stroke="#000000" stroke-width="1.00"/>
<circle cx="165.03" cy="302.80" r="22.68" fill="#cccccc" stroke="#000000" stroke-width="1.00"/>
<circle cx="207.63" cy="363.72" r="22.68" fill="#cccccc" stroke="#000000" stroke-width="1.00"/>
<circle cx="122.43" cy="227.66" r="22.68" fill="#cccccc" stroke="#000000" stroke-width="1.00"/>
<circle cx="79.36" cy="213.47" r="22.68" fill="#cccccc" stroke="#000000" stroke-width="1.00"/>
<circle cx="208.34" cy="316.27" r="22.68" fill="#cccccc" stroke="#000000" stroke-width="1.00"/>
<circle cx="165.03" cy="257.45" r="22.68" fill="#cccccc" stroke="#000000" stroke-width="1.00"/>
<circle cx="44.86" cy="183.13" r="22.68" fill="#cccccc" stroke="#000000" stroke-width="1.00"/>
<circle cx="208.97" cy="268.69" r="22.68" fill="#cccccc" stroke="#000000" stroke-width="1.00"/>
<circle cx="246.63" cy="340.57" r="22.68" fill="#cccccc" stroke="#000000" stroke-width="1.00"/>
<circle cx="131.50" cy="181.56" r="22.68" fill="#cccccc" stroke="#000000" stroke-width="1.00"/>
<circle cx="165.03" cy="212.10" r="22.68" fill="#cccccc" stroke="#000000" stroke-width="1.00"/>
<circle cx="87.94" cy="168.94" r="22.68" fill="#cccccc" stroke="#000000" stroke-width="1.00"/>
<circle cx="247.26" cy="292.99" r="22.68" fill="#cccccc" stroke="#000000" stroke-width="1.00"/>
<circle cx="209.13" cy="222.68" r="22.68" fill="#cccccc" stroke="#000000" stroke-width="1.00"/>
<circle cx="36.28" cy="138.59" r="22.68" fill="#cccccc" stroke="#000000" stroke-width="1.00"/>
<circle cx="248.13" cy="245.82" r="22.68" fill="#cccccc" stroke="#000000" stroke-width="1.00"/>
<circle cx="285.63" cy="363.72" r="22.68" fill="#cccccc" stroke="#000000" stroke-width="1.00"/>
<circle cx="177.32" cy="168.44" r="22.68" fill="#cccccc" stroke="#000000" stroke-width="1.00"/>
<circle cx="285.55" cy="317.29" r="22.68" fill="#cccccc" stroke="#000000" stroke-width="1.00"/>
<circle cx="122.92" cy="137.03" r="22.68" fill="#cccccc" stroke="#000000" stroke-width="1.00"/>
<circle cx="79.36" cy="124.41" r="22.68" fill="#cccccc" stroke="#000000" stroke-width="1.00"/>
<circle cx="286.43" cy="270.12" r="22.68" fill="#cccccc" stroke="#000000" stroke-width="1.00"/>
<circle cx="45.53" cy="94.20" r="22.68" fill="#cccccc" stroke="#000000" stroke-width="1.00"/>
<circle cx="324.55" cy="340.44" r="22.68" fill="#cccccc" stroke="#000000" stroke-width="1.00"/>
<circle cx="287.13" cy="222.68" r="22.68" fill="#cccccc" stroke="#000000" stroke-width="1.00"/>
<circle cx="166.48" cy="124.41" r="22.68" fill="#cccccc" stroke="#000000" stroke-width="1.00"/>
<circle cx="324.72" cy="294.43" r="22.68" fill="#cccccc" stroke="#000000" stroke-width="1.00"/>
<circle cx="133.76" cy="93.00" r="22.68" fill="#cccccc" stroke="#000000" stroke-width="1.00"/>
<circle cx="90.20" cy="80.37" r="22.68" fill="#cccccc" stroke="#000000" stroke-width="1.00"/>
<circle cx="325.43" cy="246.98" r="22.68" fill="#cccccc" stroke="#000000" stroke-width="1.00"/>
<circle cx="363.71" cy="363.36" r="22.68" fill="#cccccc" stroke="#000000" stroke-width="1.00"/>
<circle cx="36.28" cy="49.80" r="22.68" fill="#cccccc" stroke="#000000" stroke-width="1.00"/>
<circle cx="363.72" cy="317.57" r="22.68" fill="#cccccc" stroke="#000000" stroke-width="1.00"/>
<circle cx="177.32" cy="80.37" r="22.68" fill="#cccccc" stroke="#000000" stroke-width="1.00"/>
<circle cx="123.13" cy="48.91" r="22.68" fill="#cccccc" stroke="#000000" stroke-width="1.00"/>
<circle cx="363.72" cy="271.28" r="22.68" fill="#cccccc" stroke="#000000" stroke-width="1.00"/>
<circle cx="79.57" cy="36.28" r="22.68" fill="#cccccc" stroke="#000000" stroke-width="1.00"/>
<circle cx="363.72" cy="222.68" r="22.68" fill="#cccccc" stroke="#000000" stroke-width="1.00"/>
<circle cx="166.69" cy="36.28" r="22.68" fill="#cccccc" stroke="#000000" stroke-width="1.00"/>
<polygon points="13.61,386.39 386.39,386.39 386.39,200.00 200.00,200.00 200.00,13.61 13.61,13.61" fill="none" stroke="#000000" stroke-width="1.40"/>
</svg>