<svg xmlns="http://www.w3.org/2000/svg" width="400.0" height="400.0" viewBox="0 0 400.0 400.0">
<rect width="400.0" height="400.0" fill="white"/>
<circle cx="35.83" cy="363.94" r="22.39" fill="#cccccc" stroke="#000000" stroke-width="1.00"/>
<circle cx="57.72" cy="324.87" r="22.39" fill="#cccccc" stroke="#000000" stroke-width="1.00"/>
<circle cx="80.61" cy="364.17" r="22.39" fill="#cccccc" stroke="#000000" stroke-width="1.00"/>
<circle cx="102.81" cy="325.27" r="22.39" fill="#cccccc" stroke="#000000" stroke-width="1.00"/>
<circle cx="35.83" cy="285.80" r="22.39" fill="#cccccc" stroke="#000000" stroke-width="1.00"/>
<circle cx="125.40" cy="364.17" r="22.39" fill="#cccccc" stroke="#000000" stroke-width="1.00"/>
<circle cx="147.60" cy="325.27" r="22.39" fill="#cccccc" stroke="#000000" stroke-width="1.00"/>
<circle cx="80.61" cy="286.38" r="22.39" fill="#cccccc" stroke="#000000" stroke-width="1.00"/>
<circle cx="125.30" cy="283.50" r="22.39" fill="#cccccc" stroke="#000000" stroke-width="1.00"/>
<circle cx="170.19" cy="364.17" r="22.39" fill="#cccccc" stroke="#000000" stroke-width="1.00"/>
<circle cx="35.83" cy="241.02" r="22.39" fill="#cccccc" stroke="#000000" stroke-width="1.00"/>
<circle cx="192.38" cy="325.27" r="22.39" fill="#cccccc" stroke="#000000" stroke-width="1.00"/>
<circle cx="80.61" cy="241.59" r="22.39" fill="#cccccc" stroke="#000000" stroke-width="1.00"/>
<circle cx="125.30" cy="238.71" r="22.39" fill="#cccccc" stroke="#000000" stroke-width="1.00"/>
<circle cx="169.99" cy="286.49" r="22.39" fill="#cccccc" stroke="#000000" stroke-width="1.00"/>
<circle cx="214.97" cy="364.17" r="22.39" fill="#cccccc" stroke="#000000" stroke-width="1.00"/>
<circle cx="35.83" cy="196.23" r="22.39" fill="#cccccc" stroke="#000000" stroke-width="1.00"/>
<circle cx="82.29" cy="196.83" r="22.39" fill="#cccccc" stroke="#000000" stroke-width="1.00"/>
<circle cx="228.65" cy="298.99" r="22.39" fill="#cccccc" stroke="#000000" stroke-width="1.00"/>
<circle cx="169.85" cy="234.11" r="22.39" fill="#cccccc" stroke="#000000" stroke-width="1.00"/>
<circle cx="128.96" cy="194.07" r="22.39" fill="#cccccc" stroke="#000000" stroke-width="1.00"/>
<circle cx="206.25" cy="260.20" r="22.39" fill="#cccccc" stroke="#000000" stroke-width="1.00"/>
<circle cx="59.40" cy="158.15" r="22.39" fill="#cccccc" stroke="#000000" stroke-width="1.00"/>
<circle cx="251.12" cy="337.73" r="22.39" fill="#cccccc" stroke="#000000" stroke-width="1.00"/>
<circle cx="280.25" cy="303.32" r="22.39" fill="#cccccc" stroke="#000000" stroke-width="1.00"/>
<circle cx="104.17" cy="156.77" r="22.39" fill="#cccccc" stroke="#000000" stroke-width="1.00"/>
<circle cx="230.26" cy="222.39" r="22.39" fill="#cccccc" stroke="#000000" stroke-width="1.00"/>
<circle cx="177.61" cy="190.00" r="22.39" fill="#cccccc" stroke="#000000" stroke-width="1.00"/>
<circle cx="150.15" cy="154.62" r="22.39" fill="#cccccc" stroke="#000000" stroke-width="1.00"/>
<circle cx="252.65" cy="261.18" r="22.39" fill="#cccccc" stroke="#000000" stroke-width="1.00"/>
<circle cx="275.04" cy="222.39" r="22.39" fill="#cccccc" stroke="#000000" stroke-width="1.00"/>
<circle cx="177.61" cy="119.24" r="22.39" fill="#cccccc" stroke="#000000" stroke-width="1.00"/>
<circle cx="35.83" cy="120.07" r="22.39" fill="#cccccc" stroke="#000000" stroke-width="1.00"/>
<circle cx="287.26" cy="364.17" r="22.39" fill="#cccccc" stroke="#000000" stroke-width="1.00"/>
<circle cx="325.06" cy="296.43" r="22.39" fill="#cccccc" stroke="#000000" stroke-width="1.00"/>
<circle cx="80.59" cy="118.69" r="22.39" fill="#cccccc" stroke="#000000" stroke-width="1.00"/>
<circle cx="125.36" cy="117.32" r="22.39" fill="#cccccc" stroke="#000000" stroke-width="1.00"/>
<circle cx="297.44" cy="261.18" r="22.39" fill="#cccccc" stroke="#000000" stroke-width="1.00"/>
<circle cx="177.61" cy="74.45" r="22.39" fill="#cccccc" stroke="#000000" stroke-width="1.00"/>
<circle cx="319.83" cy="222.39" r="22.39" fill="#cccccc" stroke="#000000" stroke-width="1.00"/>
<circle cx="325.72" cy="341.21" r="22.39" fill="#cccccc" stroke="#000000" stroke-width="1.00"/>
<circle cx="35.83" cy="75.28" r="22.39" fill="#cccccc" stroke="#000000" stroke-width="1.00"/>
<circle cx="80.59" cy="73.91" r="22.39" fill="#cccccc" stroke="#000000" stroke-width="1.00"/>
<circle cx="364.17" cy="318.25" r="22.39" fill="#cccccc" stroke="#000000" stroke-width="1.00"/>
<circle cx="129.55" cy="72.73" r="22.39" fill="#cccccc" stroke="#000000" stroke-width="1.00"/>
<circle cx="363.51" cy="273.47" r="22.39" fill="#cccccc" stroke="#000000" stroke-width="1.00"/>
<circle cx="154.93" cy="35.83" r="22.39" fill="#cccccc" stroke="#000000" stroke-width="1.00"/>
<circle cx="364.17" cy="228.69" r="22.39" fill="#cccccc" stroke="#000000" stroke-width="1.00"/>
<circle cx="57.02" cy="35.83" r="22.39" fill="#cccccc" stroke="#000000" stroke-width="1.00"/>
<circle cx="364.17" cy="364.17" r="22.39" fill="#cccccc" stroke="#000000" stroke-width="1.00"/>
<circle cx="104.17" cy="35.83" r="22.39" fill="#cccccc" stroke="#000000" stroke-width="1.00"/>
<polygon points="13.44,386.56 386.56,386.56 386.56,200.00 200.00,200.00 200.00,13.44 13.44,13.44" fill="none" stroke="#000000" stroke-width="1.40"/>
</svg>