<svg xmlns="http://www.w3.org/2000/svg" width="400.0" height="400.0" viewBox="0 0 400.0 400.0">
<rect width="400.0" height="400.0" fill="white"/>
<circle cx="334.60" cy="331.76" r="22.18" fill="#cccccc" stroke="#000000" stroke-width="1.00"/>
<circle cx="364.51" cy="222.18" r="22.18" fill="#cccccc" stroke="#000000" stroke-width="1.00"/>
<circle cx="177.82" cy="79.85" r="22.18" fill="#cccccc" stroke="#000000" stroke-width="1.00"/>
<circle cx="177.12" cy="243.66" r="22.18" fill="#cccccc" stroke="#000000" stroke-width="1.00"/>
<circle cx="35.49" cy="139.26" r="22.18" fill="#cccccc" stroke="#000000" stroke-width="1.00"/>
<circle cx="215.94" cy="222.18" r="22.18" fill="#cccccc" stroke="#000000" stroke-width="1.00"/>
<circle cx="320.13" cy="222.18" r="22.18" fill="#cccccc" stroke="#000000" stroke-width="1.00"/>
<circle cx="282.45" cy="326.06" r="22.18" fill="#cccccc" stroke="#000000" stroke-width="1.00"/>
<circle cx="238.18" cy="323.18" r="22.18" fill="#cccccc" stroke="#000000" stroke-width="1.00"/>
<circle cx="139.40" cy="102.03" r="22.18" fill="#cccccc" stroke="#000000" stroke-width="1.00"/>
<circle cx="118.48" cy="244.19" r="22.18" fill="#cccccc" stroke="#000000" stroke-width="1.00"/>
<circle cx="127.24" cy="364.51" r="22.18" fill="#cccccc" stroke="#000000" stroke-width="1.00"/>
<circle cx="112.32" cy="183.62" r="22.18" fill="#cccccc" stroke="#000000" stroke-width="1.00"/>
<circle cx="364.51" cy="364.51" r="22.18" fill="#cccccc" stroke="#000000" stroke-width="1.00"/>
<circle cx="73.91" cy="161.44" r="22.18" fill="#cccccc" stroke="#000000" stroke-width="1.00"/>
<circle cx="139.40" cy="57.67" r="22.18" fill="#cccccc" stroke="#000000" stroke-width="1.00"/>
<circle cx="304.68" cy="364.51" r="22.18" fill="#cccccc" stroke="#000000" stroke-width="1.00"/>
<circle cx="312.40" cy="293.35" r="22.18" fill="#cccccc" stroke="#000000" stroke-width="1.00"/>
<circle cx="342.32" cy="260.59" r="22.18" fill="#cccccc" stroke="#000000" stroke-width="1.00"/>
<circle cx="35.49" cy="74.49" r="22.18" fill="#cccccc" stroke="#000000" stroke-width="1.00"/>
<circle cx="212.48" cy="270.45" r="22.18" fill="#cccccc" stroke="#000000" stroke-width="1.00"/>
<circle cx="35.49" cy="227.98" r="22.18" fill="#cccccc" stroke="#000000" stroke-width="1.00"/>
<circle cx="149.42" cy="326.09" r="22.18" fill="#cccccc" stroke="#000000" stroke-width="1.00"/>
<circle cx="364.51" cy="299.00" r="22.18" fill="#cccccc" stroke="#000000" stroke-width="1.00"/>
<circle cx="177.82" cy="178.26" r="22.18" fill="#cccccc" stroke="#000000" stroke-width="1.00"/>
<circle cx="35.49" cy="183.62" r="22.18" fill="#cccccc" stroke="#000000" stroke-width="1.00"/>
<circle cx="104.22" cy="129.05" r="22.18" fill="#cccccc" stroke="#000000" stroke-width="1.00"/>
<circle cx="100.99" cy="79.85" r="22.18" fill="#cccccc" stroke="#000000" stroke-width="1.00"/>
<circle cx="65.81" cy="106.87" r="22.18" fill="#cccccc" stroke="#000000" stroke-width="1.00"/>
<circle cx="73.91" cy="294.51" r="22.18" fill="#cccccc" stroke="#000000" stroke-width="1.00"/>
<circle cx="142.64" cy="151.23" r="22.18" fill="#cccccc" stroke="#000000" stroke-width="1.00"/>
<circle cx="74.52" cy="250.15" r="22.18" fill="#cccccc" stroke="#000000" stroke-width="1.00"/>
<circle cx="35.49" cy="320.03" r="22.18" fill="#cccccc" stroke="#000000" stroke-width="1.00"/>
<circle cx="215.96" cy="364.51" r="22.18" fill="#cccccc" stroke="#000000" stroke-width="1.00"/>
<circle cx="260.30" cy="222.18" r="22.18" fill="#cccccc" stroke="#000000" stroke-width="1.00"/>
<circle cx="177.82" cy="35.49" r="22.18" fill="#cccccc" stroke="#000000" stroke-width="1.00"/>
<circle cx="147.50" cy="210.64" r="22.18" fill="#cccccc" stroke="#000000" stroke-width="1.00"/>
<circle cx="100.99" cy="35.49" r="22.18" fill="#cccccc" stroke="#000000" stroke-width="1.00"/>
<circle cx="105.06" cy="326.09" r="22.18" fill="#cccccc" stroke="#000000" stroke-width="1.00"/>
<circle cx="35.81" cy="364.40" r="22.18" fill="#cccccc" stroke="#000000" stroke-width="1.00"/>
<circle cx="35.49" cy="272.34" r="22.18" fill="#cccccc" stroke="#000000" stroke-width="1.00"/>
<circle cx="177.82" cy="124.21" r="22.18" fill="#cccccc" stroke="#000000" stroke-width="1.00"/>
<circle cx="171.60" cy="287.68" r="22.18" fill="#cccccc" stroke="#000000" stroke-width="1.00"/>
<circle cx="171.60" cy="364.51" r="22.18" fill="#cccccc" stroke="#000000" stroke-width="1.00"/>
<circle cx="81.50" cy="364.16" r="22.18" fill="#cccccc" stroke="#000000" stroke-width="1.00"/>
<circle cx="127.24" cy="287.68" r="22.18" fill="#cccccc" stroke="#000000" stroke-width="1.00"/>
<circle cx="260.32" cy="364.51" r="22.18" fill="#cccccc" stroke="#000000" stroke-width="1.00"/>
<circle cx="255.25" cy="282.24" r="22.18" fill="#cccccc" stroke="#000000" stroke-width="1.00"/>
<circle cx="73.91" cy="205.80" r="22.18" fill="#cccccc" stroke="#000000" stroke-width="1.00"/>
<circle cx="290.21" cy="254.94" r="22.18" fill="#cccccc" stroke="#000000" stroke-width="1.00"/>
<circle cx="56.62" cy="35.49" r="22.18" fill="#cccccc" stroke="#000000" stroke-width="1.00"/>
<circle cx="193.91" cy="326.02" r="22.18" fill="#cccccc" stroke="#000000" stroke-width="1.00"/>
<polygon points="13.31,386.69 386.69,386.69 386.69,200.00 200.00,200.00 200.00,13.31 13.31,13.31" fill="none" stroke="#000000" stroke-width="1.40"/>
</svg>