<svg xmlns="http://www.w3.org/2000/svg" width="400.0" height="400.0" viewBox="0 0 400.0 400.0">
<rect width="400.0" height="400.0" fill="white"/>
<circle cx="364.81" cy="266.61" r="22.00" fill="#cccccc" stroke="#000000" stroke-width="1.00"/>
<circle cx="254.48" cy="222.00" r="22.00" fill="#cccccc" stroke="#000000" stroke-width="1.00"/>
<circle cx="243.79" cy="364.81" r="22.00" fill="#cccccc" stroke="#000000" stroke-width="1.00"/>
<circle cx="277.25" cy="259.64" r="22.00" fill="#cccccc" stroke="#000000" stroke-width="1.00"/>
<circle cx="195.46" cy="287.22" r="22.00" fill="#cccccc" stroke="#000000" stroke-width="1.00"/>
<circle cx="102.58" cy="90.02" r="22.00" fill="#cccccc" stroke="#000000" stroke-width="1.00"/>
<circle cx="224.22" cy="253.93" r="22.00" fill="#cccccc" stroke="#000000" stroke-width="1.00"/>
<circle cx="75.06" cy="214.22" r="22.00" fill="#cccccc" stroke="#000000" stroke-width="1.00"/>
<circle cx="199.80" cy="364.81" r="22.00" fill="#cccccc" stroke="#000000" stroke-width="1.00"/>
<circle cx="75.06" cy="258.21" r="22.00" fill="#cccccc" stroke="#000000" stroke-width="1.00"/>
<circle cx="178.00" cy="135.30" r="22.00" fill="#cccccc" stroke="#000000" stroke-width="1.00"/>
<circle cx="157.36" cy="353.21" r="22.00" fill="#cccccc" stroke="#000000" stroke-width="1.00"/>
<circle cx="218.23" cy="324.86" r="22.00" fill="#cccccc" stroke="#000000" stroke-width="1.00"/>
<circle cx="139.90" cy="157.30" r="22.00" fill="#cccccc" stroke="#000000" stroke-width="1.00"/>
<circle cx="35.19" cy="35.19" r="22.00" fill="#cccccc" stroke="#000000" stroke-width="1.00"/>
<circle cx="35.19" cy="276.82" r="22.00" fill="#cccccc" stroke="#000000" stroke-width="1.00"/>
<circle cx="194.67" cy="221.34" r="22.00" fill="#cccccc" stroke="#000000" stroke-width="1.00"/>
<circle cx="113.16" cy="236.22" r="22.00" fill="#cccccc" stroke="#000000" stroke-width="1.00"/>
<circle cx="364.81" cy="310.60" r="22.00" fill="#cccccc" stroke="#000000" stroke-width="1.00"/>
<circle cx="364.81" cy="362.77" r="22.00" fill="#cccccc" stroke="#000000" stroke-width="1.00"/>
<circle cx="75.06" cy="302.21" r="22.00" fill="#cccccc" stroke="#000000" stroke-width="1.00"/>
<circle cx="35.19" cy="320.81" r="22.00" fill="#cccccc" stroke="#000000" stroke-width="1.00"/>
<circle cx="178.00" cy="179.29" r="22.00" fill="#cccccc" stroke="#000000" stroke-width="1.00"/>
<circle cx="64.48" cy="112.01" r="22.00" fill="#cccccc" stroke="#000000" stroke-width="1.00"/>
<circle cx="157.36" cy="309.22" r="22.00" fill="#cccccc" stroke="#000000" stroke-width="1.00"/>
<circle cx="114.92" cy="320.81" r="22.00" fill="#cccccc" stroke="#000000" stroke-width="1.00"/>
<circle cx="126.10" cy="278.26" r="22.00" fill="#cccccc" stroke="#000000" stroke-width="1.00"/>
<circle cx="113.16" cy="192.23" r="22.00" fill="#cccccc" stroke="#000000" stroke-width="1.00"/>
<circle cx="164.20" cy="256.27" r="22.00" fill="#cccccc" stroke="#000000" stroke-width="1.00"/>
<circle cx="329.01" cy="336.17" r="22.00" fill="#cccccc" stroke="#000000" stroke-width="1.00"/>
<circle cx="295.61" cy="364.81" r="22.00" fill="#cccccc" stroke="#000000" stroke-width="1.00"/>
<circle cx="178.00" cy="44.70" r="22.00" fill="#cccccc" stroke="#000000" stroke-width="1.00"/>
<circle cx="75.06" cy="170.23" r="22.00" fill="#cccccc" stroke="#000000" stroke-width="1.00"/>
<circle cx="321.23" cy="260.54" r="22.00" fill="#cccccc" stroke="#000000" stroke-width="1.00"/>
<circle cx="35.19" cy="79.19" r="22.00" fill="#cccccc" stroke="#000000" stroke-width="1.00"/>
<circle cx="114.92" cy="364.81" r="22.00" fill="#cccccc" stroke="#000000" stroke-width="1.00"/>
<circle cx="35.19" cy="188.83" r="22.00" fill="#cccccc" stroke="#000000" stroke-width="1.00"/>
<circle cx="246.99" cy="291.57" r="22.00" fill="#cccccc" stroke="#000000" stroke-width="1.00"/>
<circle cx="101.81" cy="135.30" r="22.00" fill="#cccccc" stroke="#000000" stroke-width="1.00"/>
<circle cx="347.73" cy="222.00" r="22.00" fill="#cccccc" stroke="#000000" stroke-width="1.00"/>
<circle cx="75.06" cy="346.20" r="22.00" fill="#cccccc" stroke="#000000" stroke-width="1.00"/>
<circle cx="35.19" cy="232.83" r="22.00" fill="#cccccc" stroke="#000000" stroke-width="1.00"/>
<circle cx="35.19" cy="144.84" r="22.00" fill="#cccccc" stroke="#000000" stroke-width="1.00"/>
<circle cx="300.02" cy="222.00" r="22.00" fill="#cccccc" stroke="#000000" stroke-width="1.00"/>
<circle cx="35.19" cy="364.81" r="22.00" fill="#cccccc" stroke="#000000" stroke-width="1.00"/>
<circle cx="73.29" cy="57.19" r="22.00" fill="#cccccc" stroke="#000000" stroke-width="1.00"/>
<circle cx="178.00" cy="91.31" r="22.00" fill="#cccccc" stroke="#000000" stroke-width="1.00"/>
<circle cx="139.90" cy="113.30" r="22.00" fill="#cccccc" stroke="#000000" stroke-width="1.00"/>
<circle cx="140.68" cy="68.02" r="22.00" fill="#cccccc" stroke="#000000" stroke-width="1.00"/>
<circle cx="303.10" cy="300.62" r="22.00" fill="#cccccc" stroke="#000000" stroke-width="1.00"/>
<circle cx="269.70" cy="329.25" r="22.00" fill="#cccccc" stroke="#000000" stroke-width="1.00"/>
<circle cx="111.39" cy="35.19" r="22.00" fill="#cccccc" stroke="#000000" stroke-width="1.00"/>
<circle cx="151.26" cy="214.22" r="22.00" fill="#cccccc" stroke="#000000" stroke-width="1.00"/>
<polygon points="13.20,386.80 386.80,386.80 386.80,200.00 200.00,200.00 200.00,13.20 13.20,13.20" fill="none" stroke="#000000" stroke-width="1.40"/>
</svg>