<svg xmlns="http://www.w3.org/2000/svg" width="400.0" height="400.0" viewBox="0 0 400.0 400.0">
<rect width="400.0" height="400.0" fill="white"/>
<circle cx="365.00" cy="268.00" r="21.87" fill="#cccccc" stroke="#000000" stroke-width="1.00"/>
<circle cx="248.83" cy="221.87" r="21.87" fill="#cccccc" stroke="#000000" stroke-width="1.00"/>
<circle cx="228.55" cy="365.00" r="21.87" fill="#cccccc" stroke="#000000" stroke-width="1.00"/>
<circle cx="265.46" cy="262.34" r="21.87" fill="#cccccc" stroke="#000000" stroke-width="1.00"/>
<circle cx="190.05" cy="286.65" r="21.87" fill="#cccccc" stroke="#000000" stroke-width="1.00"/>
<circle cx="102.36" cy="89.20" r="21.87" fill="#cccccc" stroke="#000000" stroke-width="1.00"/>
<circle cx="218.81" cy="253.69" r="21.87" fill="#cccccc" stroke="#000000" stroke-width="1.00"/>
<circle cx="72.88" cy="209.01" r="21.87" fill="#cccccc" stroke="#000000" stroke-width="1.00"/>
<circle cx="184.80" cy="365.00" r="21.87" fill="#cccccc" stroke="#000000" stroke-width="1.00"/>
<circle cx="72.88" cy="252.76" r="21.87" fill="#cccccc" stroke="#000000" stroke-width="1.00"/>
<circle cx="178.13" cy="132.94" r="21.87" fill="#cccccc" stroke="#000000" stroke-width="1.00"/>
<circle cx="147.78" cy="341.69" r="21.87" fill="#cccccc" stroke="#000000" stroke-width="1.00"/>
<circle cx="206.67" cy="327.12" r="21.87" fill="#cccccc" stroke="#000000" stroke-width="1.00"/>
<circle cx="140.24" cy="154.82" r="21.87" fill="#cccccc" stroke="#000000" stroke-width="1.00"/>
<circle cx="35.00" cy="35.00" r="21.87" fill="#cccccc" stroke="#000000" stroke-width="1.00"/>
<circle cx="35.00" cy="274.63" r="21.87" fill="#cccccc" stroke="#000000" stroke-width="1.00"/>
<circle cx="190.99" cy="219.93" r="21.87" fill="#cccccc" stroke="#000000" stroke-width="1.00"/>
<circle cx="111.58" cy="232.36" r="21.87" fill="#cccccc" stroke="#000000" stroke-width="1.00"/>
<circle cx="365.00" cy="322.54" r="21.87" fill="#cccccc" stroke="#000000" stroke-width="1.00"/>
<circle cx="354.49" cy="365.00" r="21.87" fill="#cccccc" stroke="#000000" stroke-width="1.00"/>
<circle cx="72.01" cy="297.95" r="21.87" fill="#cccccc" stroke="#000000" stroke-width="1.00"/>
<circle cx="35.00" cy="321.26" r="21.87" fill="#cccccc" stroke="#000000" stroke-width="1.00"/>
<circle cx="178.12" cy="176.78" r="21.87" fill="#cccccc" stroke="#000000" stroke-width="1.00"/>
<circle cx="64.47" cy="111.07" r="21.87" fill="#cccccc" stroke="#000000" stroke-width="1.00"/>
<circle cx="147.78" cy="297.95" r="21.87" fill="#cccccc" stroke="#000000" stroke-width="1.00"/>
<circle cx="109.90" cy="319.82" r="21.87" fill="#cccccc" stroke="#000000" stroke-width="1.00"/>
<circle cx="109.90" cy="276.07" r="21.87" fill="#cccccc" stroke="#000000" stroke-width="1.00"/>
<circle cx="110.77" cy="187.14" r="21.87" fill="#cccccc" stroke="#000000" stroke-width="1.00"/>
<circle cx="160.25" cy="253.93" r="21.87" fill="#cccccc" stroke="#000000" stroke-width="1.00"/>
<circle cx="320.28" cy="337.74" r="21.87" fill="#cccccc" stroke="#000000" stroke-width="1.00"/>
<circle cx="286.08" cy="365.00" r="21.87" fill="#cccccc" stroke="#000000" stroke-width="1.00"/>
<circle cx="174.33" cy="37.45" r="21.87" fill="#cccccc" stroke="#000000" stroke-width="1.00"/>
<circle cx="72.88" cy="165.27" r="21.87" fill="#cccccc" stroke="#000000" stroke-width="1.00"/>
<circle cx="324.28" cy="252.01" r="21.87" fill="#cccccc" stroke="#000000" stroke-width="1.00"/>
<circle cx="35.00" cy="78.74" r="21.87" fill="#cccccc" stroke="#000000" stroke-width="1.00"/>
<circle cx="110.77" cy="365.00" r="21.87" fill="#cccccc" stroke="#000000" stroke-width="1.00"/>
<circle cx="35.00" cy="187.14" r="21.87" fill="#cccccc" stroke="#000000" stroke-width="1.00"/>
<circle cx="235.44" cy="294.16" r="21.87" fill="#cccccc" stroke="#000000" stroke-width="1.00"/>
<circle cx="102.36" cy="132.94" r="21.87" fill="#cccccc" stroke="#000000" stroke-width="1.00"/>
<circle cx="364.88" cy="222.23" r="21.87" fill="#cccccc" stroke="#000000" stroke-width="1.00"/>
<circle cx="72.88" cy="343.13" r="21.87" fill="#cccccc" stroke="#000000" stroke-width="1.00"/>
<circle cx="35.00" cy="230.89" r="21.87" fill="#cccccc" stroke="#000000" stroke-width="1.00"/>
<circle cx="35.00" cy="143.40" r="21.87" fill="#cccccc" stroke="#000000" stroke-width="1.00"/>
<circle cx="292.58" cy="221.87" r="21.87" fill="#cccccc" stroke="#000000" stroke-width="1.00"/>
<circle cx="35.00" cy="365.00" r="21.87" fill="#cccccc" stroke="#000000" stroke-width="1.00"/>
<circle cx="72.88" cy="56.87" r="21.87" fill="#cccccc" stroke="#000000" stroke-width="1.00"/>
<circle cx="178.13" cy="89.20" r="21.87" fill="#cccccc" stroke="#000000" stroke-width="1.00"/>
<circle cx="140.24" cy="111.07" r="21.87" fill="#cccccc" stroke="#000000" stroke-width="1.00"/>
<circle cx="140.24" cy="67.32" r="21.87" fill="#cccccc" stroke="#000000" stroke-width="1.00"/>
<circle cx="287.33" cy="300.22" r="21.87" fill="#cccccc" stroke="#000000" stroke-width="1.00"/>
<circle cx="257.31" cy="332.04" r="21.87" fill="#cccccc" stroke="#000000" stroke-width="1.00"/>
<circle cx="110.77" cy="35.00" r="21.87" fill="#cccccc" stroke="#000000" stroke-width="1.00"/>
<circle cx="148.62" cy="209.08" r="21.87" fill="#cccccc" stroke="#000000" stroke-width="1.00"/>
<circle cx="330.80" cy="295.27" r="21.87" fill="#cccccc" stroke="#000000" stroke-width="1.00"/>
<polygon points="13.12,386.88 386.88,386.88 386.88,200.00 200.00,200.00 200.00,13.12 13.12,13.12" fill="none" stroke="#000000" stroke-width="1.40"/>
</svg>