<svg xmlns="http://www.w3.org/2000/svg" width="400.0" height="400.0" viewBox="0 0 400.0 400.0">
<rect width="400.0" height="400.0" fill="white"/>
<circle cx="365.30" cy="265.07" r="21.69" fill="#cccccc" stroke="#000000" stroke-width="1.00"/>
<circle cx="235.73" cy="221.69" r="21.69" fill="#cccccc" stroke="#000000" stroke-width="1.00"/>
<circle cx="235.73" cy="365.30" r="21.69" fill="#cccccc" stroke="#000000" stroke-width="1.00"/>
<circle cx="257.42" cy="259.26" r="21.69" fill="#cccccc" stroke="#000000" stroke-width="1.00"/>
<circle cx="187.39" cy="293.49" r="21.69" fill="#cccccc" stroke="#000000" stroke-width="1.00"/>
<circle cx="103.48" cy="86.53" r="21.69" fill="#cccccc" stroke="#000000" stroke-width="1.00"/>
<circle cx="209.08" cy="255.92" r="21.69" fill="#cccccc" stroke="#000000" stroke-width="1.00"/>
<circle cx="72.27" cy="204.45" r="21.69" fill="#cccccc" stroke="#000000" stroke-width="1.00"/>
<circle cx="182.44" cy="365.30" r="21.69" fill="#cccccc" stroke="#000000" stroke-width="1.00"/>
<circle cx="72.27" cy="247.83" r="21.69" fill="#cccccc" stroke="#000000" stroke-width="1.00"/>
<circle cx="178.31" cy="130.42" r="21.69" fill="#cccccc" stroke="#000000" stroke-width="1.00"/>
<circle cx="147.57" cy="339.49" r="21.69" fill="#cccccc" stroke="#000000" stroke-width="1.00"/>
<circle cx="209.08" cy="331.06" r="21.69" fill="#cccccc" stroke="#000000" stroke-width="1.00"/>
<circle cx="140.74" cy="152.11" r="21.69" fill="#cccccc" stroke="#000000" stroke-width="1.00"/>
<circle cx="34.70" cy="34.70" r="21.69" fill="#cccccc" stroke="#000000" stroke-width="1.00"/>
<circle cx="34.70" cy="269.52" r="21.69" fill="#cccccc" stroke="#000000" stroke-width="1.00"/>
<circle cx="187.96" cy="218.04" r="21.69" fill="#cccccc" stroke="#000000" stroke-width="1.00"/>
<circle cx="112.25" cy="230.99" r="21.69" fill="#cccccc" stroke="#000000" stroke-width="1.00"/>
<circle cx="365.30" cy="321.92" r="21.69" fill="#cccccc" stroke="#000000" stroke-width="1.00"/>
<circle cx="365.30" cy="365.30" r="21.69" fill="#cccccc" stroke="#000000" stroke-width="1.00"/>
<circle cx="69.28" cy="295.72" r="21.69" fill="#cccccc" stroke="#000000" stroke-width="1.00"/>
<circle cx="34.70" cy="321.92" r="21.69" fill="#cccccc" stroke="#000000" stroke-width="1.00"/>
<circle cx="178.31" cy="174.48" r="21.69" fill="#cccccc" stroke="#000000" stroke-width="1.00"/>
<circle cx="65.91" cy="108.22" r="21.69" fill="#cccccc" stroke="#000000" stroke-width="1.00"/>
<circle cx="144.10" cy="296.25" r="21.69" fill="#cccccc" stroke="#000000" stroke-width="1.00"/>
<circle cx="106.53" cy="317.94" r="21.69" fill="#cccccc" stroke="#000000" stroke-width="1.00"/>
<circle cx="106.85" cy="274.03" r="21.69" fill="#cccccc" stroke="#000000" stroke-width="1.00"/>
<circle cx="109.54" cy="182.25" r="21.69" fill="#cccccc" stroke="#000000" stroke-width="1.00"/>
<circle cx="156.95" cy="249.37" r="21.69" fill="#cccccc" stroke="#000000" stroke-width="1.00"/>
<circle cx="322.20" cy="360.33" r="21.69" fill="#cccccc" stroke="#000000" stroke-width="1.00"/>
<circle cx="279.11" cy="365.30" r="21.69" fill="#cccccc" stroke="#000000" stroke-width="1.00"/>
<circle cx="176.67" cy="35.45" r="21.69" fill="#cccccc" stroke="#000000" stroke-width="1.00"/>
<circle cx="71.97" cy="160.56" r="21.69" fill="#cccccc" stroke="#000000" stroke-width="1.00"/>
<circle cx="322.20" cy="226.65" r="21.69" fill="#cccccc" stroke="#000000" stroke-width="1.00"/>
<circle cx="34.70" cy="78.08" r="21.69" fill="#cccccc" stroke="#000000" stroke-width="1.00"/>
<circle cx="112.70" cy="365.30" r="21.69" fill="#cccccc" stroke="#000000" stroke-width="1.00"/>
<circle cx="34.70" cy="182.76" r="21.69" fill="#cccccc" stroke="#000000" stroke-width="1.00"/>
<circle cx="230.77" cy="293.49" r="21.69" fill="#cccccc" stroke="#000000" stroke-width="1.00"/>
<circle cx="103.17" cy="130.42" r="21.69" fill="#cccccc" stroke="#000000" stroke-width="1.00"/>
<circle cx="365.30" cy="221.69" r="21.69" fill="#cccccc" stroke="#000000" stroke-width="1.00"/>
<circle cx="73.70" cy="346.29" r="21.69" fill="#cccccc" stroke="#000000" stroke-width="1.00"/>
<circle cx="34.70" cy="226.14" r="21.69" fill="#cccccc" stroke="#000000" stroke-width="1.00"/>
<circle cx="34.70" cy="138.36" r="21.69" fill="#cccccc" stroke="#000000" stroke-width="1.00"/>
<circle cx="279.11" cy="221.69" r="21.69" fill="#cccccc" stroke="#000000" stroke-width="1.00"/>
<circle cx="34.70" cy="365.30" r="21.69" fill="#cccccc" stroke="#000000" stroke-width="1.00"/>
<circle cx="72.27" cy="56.39" r="21.69" fill="#cccccc" stroke="#000000" stroke-width="1.00"/>
<circle cx="178.31" cy="87.04" r="21.69" fill="#cccccc" stroke="#000000" stroke-width="1.00"/>
<circle cx="140.74" cy="108.73" r="21.69" fill="#cccccc" stroke="#000000" stroke-width="1.00"/>
<circle cx="141.04" cy="64.84" r="21.69" fill="#cccccc" stroke="#000000" stroke-width="1.00"/>
<circle cx="300.51" cy="322.77" r="21.69" fill="#cccccc" stroke="#000000" stroke-width="1.00"/>
<circle cx="257.42" cy="327.73" r="21.69" fill="#cccccc" stroke="#000000" stroke-width="1.00"/>
<circle cx="109.84" cy="34.70" r="21.69" fill="#cccccc" stroke="#000000" stroke-width="1.00"/>
<circle cx="146.70" cy="204.63" r="21.69" fill="#cccccc" stroke="#000000" stroke-width="1.00"/>
<circle cx="332.53" cy="293.49" r="21.69" fill="#cccccc" stroke="#000000" stroke-width="1.00"/>
<circle cx="300.51" cy="264.22" r="21.69" fill="#cccccc" stroke="#000000" stroke-width="1.00"/>
<polygon points="13.01,386.99 386.99,386.99 386.99,200.00 200.00,200.00 200.00,13.01 13.01,13.01" fill="none" stroke="#000000" stroke-width="1.40"/>
</svg>