<svg xmlns="http://www.w3.org/2000/svg" width="400.0" height="400.0" viewBox="0 0 400.0 400.0">
<rect width="400.0" height="400.0" fill="white"/>
<circle cx="365.50" cy="264.68" r="21.56" fill="#cccccc" stroke="#000000" stroke-width="1.00"/>
<circle cx="230.72" cy="221.56" r="21.56" fill="#cccccc" stroke="#000000" stroke-width="1.00"/>
<circle cx="227.79" cy="365.50" r="21.56" fill="#cccccc" stroke="#000000" stroke-width="1.00"/>
<circle cx="254.99" cy="257.20" r="21.56" fill="#cccccc" stroke="#000000" stroke-width="1.00"/>
<circle cx="181.96" cy="292.52" r="21.56" fill="#cccccc" stroke="#000000" stroke-width="1.00"/>
<circle cx="103.75" cy="85.06" r="21.56" fill="#cccccc" stroke="#000000" stroke-width="1.00"/>
<circle cx="204.28" cy="255.62" r="21.56" fill="#cccccc" stroke="#000000" stroke-width="1.00"/>
<circle cx="71.84" cy="200.30" r="21.56" fill="#cccccc" stroke="#000000" stroke-width="1.00"/>
<circle cx="184.67" cy="365.50" r="21.56" fill="#cccccc" stroke="#000000" stroke-width="1.00"/>
<circle cx="71.84" cy="243.42" r="21.56" fill="#cccccc" stroke="#000000" stroke-width="1.00"/>
<circle cx="178.44" cy="128.18" r="21.56" fill="#cccccc" stroke="#000000" stroke-width="1.00"/>
<circle cx="150.92" cy="338.67" r="21.56" fill="#cccccc" stroke="#000000" stroke-width="1.00"/>
<circle cx="206.23" cy="328.16" r="21.56" fill="#cccccc" stroke="#000000" stroke-width="1.00"/>
<circle cx="141.10" cy="149.74" r="21.56" fill="#cccccc" stroke="#000000" stroke-width="1.00"/>
<circle cx="34.50" cy="34.50" r="21.56" fill="#cccccc" stroke="#000000" stroke-width="1.00"/>
<circle cx="34.50" cy="264.98" r="21.56" fill="#cccccc" stroke="#000000" stroke-width="1.00"/>
<circle cx="186.13" cy="216.51" r="21.56" fill="#cccccc" stroke="#000000" stroke-width="1.00"/>
<circle cx="112.79" cy="229.90" r="21.56" fill="#cccccc" stroke="#000000" stroke-width="1.00"/>
<circle cx="365.50" cy="315.43" r="21.56" fill="#cccccc" stroke="#000000" stroke-width="1.00"/>
<circle cx="365.50" cy="358.55" r="21.56" fill="#cccccc" stroke="#000000" stroke-width="1.00"/>
<circle cx="66.68" cy="293.68" r="21.56" fill="#cccccc" stroke="#000000" stroke-width="1.00"/>
<circle cx="34.50" cy="322.38" r="21.56" fill="#cccccc" stroke="#000000" stroke-width="1.00"/>
<circle cx="177.79" cy="173.16" r="21.56" fill="#cccccc" stroke="#000000" stroke-width="1.00"/>
<circle cx="66.41" cy="106.62" r="21.56" fill="#cccccc" stroke="#000000" stroke-width="1.00"/>
<circle cx="139.10" cy="297.20" r="21.56" fill="#cccccc" stroke="#000000" stroke-width="1.00"/>
<circle cx="101.75" cy="318.76" r="21.56" fill="#cccccc" stroke="#000000" stroke-width="1.00"/>
<circle cx="104.02" cy="272.12" r="21.56" fill="#cccccc" stroke="#000000" stroke-width="1.00"/>
<circle cx="109.18" cy="178.74" r="21.56" fill="#cccccc" stroke="#000000" stroke-width="1.00"/>
<circle cx="159.95" cy="251.26" r="21.56" fill="#cccccc" stroke="#000000" stroke-width="1.00"/>
<circle cx="322.95" cy="365.50" r="21.56" fill="#cccccc" stroke="#000000" stroke-width="1.00"/>
<circle cx="274.97" cy="364.30" r="21.56" fill="#cccccc" stroke="#000000" stroke-width="1.00"/>
<circle cx="175.99" cy="34.60" r="21.56" fill="#cccccc" stroke="#000000" stroke-width="1.00"/>
<circle cx="71.84" cy="157.18" r="21.56" fill="#cccccc" stroke="#000000" stroke-width="1.00"/>
<circle cx="322.38" cy="221.56" r="21.56" fill="#cccccc" stroke="#000000" stroke-width="1.00"/>
<circle cx="34.50" cy="77.62" r="21.56" fill="#cccccc" stroke="#000000" stroke-width="1.00"/>
<circle cx="117.16" cy="365.50" r="21.56" fill="#cccccc" stroke="#000000" stroke-width="1.00"/>
<circle cx="34.50" cy="178.74" r="21.56" fill="#cccccc" stroke="#000000" stroke-width="1.00"/>
<circle cx="228.55" cy="291.26" r="21.56" fill="#cccccc" stroke="#000000" stroke-width="1.00"/>
<circle cx="103.75" cy="128.18" r="21.56" fill="#cccccc" stroke="#000000" stroke-width="1.00"/>
<circle cx="365.50" cy="221.56" r="21.56" fill="#cccccc" stroke="#000000" stroke-width="1.00"/>
<circle cx="75.83" cy="353.22" r="21.56" fill="#cccccc" stroke="#000000" stroke-width="1.00"/>
<circle cx="34.50" cy="221.86" r="21.56" fill="#cccccc" stroke="#000000" stroke-width="1.00"/>
<circle cx="34.50" cy="135.62" r="21.56" fill="#cccccc" stroke="#000000" stroke-width="1.00"/>
<circle cx="279.26" cy="221.56" r="21.56" fill="#cccccc" stroke="#000000" stroke-width="1.00"/>
<circle cx="34.50" cy="365.50" r="21.56" fill="#cccccc" stroke="#000000" stroke-width="1.00"/>
<circle cx="71.84" cy="56.06" r="21.56" fill="#cccccc" stroke="#000000" stroke-width="1.00"/>
<circle cx="178.44" cy="85.06" r="21.56" fill="#cccccc" stroke="#000000" stroke-width="1.00"/>
<circle cx="141.10" cy="106.62" r="21.56" fill="#cccccc" stroke="#000000" stroke-width="1.00"/>
<circle cx="141.10" cy="63.50" r="21.56" fill="#cccccc" stroke="#000000" stroke-width="1.00"/>
<circle cx="306.37" cy="325.70" r="21.56" fill="#cccccc" stroke="#000000" stroke-width="1.00"/>
<circle cx="250.11" cy="328.61" r="21.56" fill="#cccccc" stroke="#000000" stroke-width="1.00"/>
<circle cx="109.18" cy="34.50" r="21.56" fill="#cccccc" stroke="#000000" stroke-width="1.00"/>
<circle cx="145.57" cy="201.88" r="21.56" fill="#cccccc" stroke="#000000" stroke-width="1.00"/>
<circle cx="330.64" cy="290.05" r="21.56" fill="#cccccc" stroke="#000000" stroke-width="1.00"/>
<circle cx="300.82" cy="258.90" r="21.56" fill="#cccccc" stroke="#000000" stroke-width="1.00"/>
<circle cx="276.55" cy="294.55" r="21.56" fill="#cccccc" stroke="#000000" stroke-width="1.00"/>
<polygon points="12.94,387.06 387.06,387.06 387.06,200.00 200.00,200.00 200.00,12.94 12.94,12.94" fill="none" stroke="#000000" stroke-width="1.40"/>
</svg>