<svg xmlns="http://www.w3.org/2000/svg" width="400.0" height="400.0" viewBox="0 0 400.0 400.0">
<rect width="400.0" height="400.0" fill="white"/>
<circle cx="142.30" cy="125.95" r="21.41" fill="#cccccc" stroke="#000000" stroke-width="1.00"/>
<circle cx="34.25" cy="152.12" r="21.41" fill="#cccccc" stroke="#000000" stroke-width="1.00"/>
<circle cx="303.46" cy="221.41" r="21.41" fill="#cccccc" stroke="#000000" stroke-width="1.00"/>
<circle cx="187.65" cy="258.42" r="21.41" fill="#cccccc" stroke="#000000" stroke-width="1.00"/>
<circle cx="111.50" cy="201.52" r="21.41" fill="#cccccc" stroke="#000000" stroke-width="1.00"/>
<circle cx="178.59" cy="148.66" r="21.41" fill="#cccccc" stroke="#000000" stroke-width="1.00"/>
<circle cx="34.25" cy="280.56" r="21.41" fill="#cccccc" stroke="#000000" stroke-width="1.00"/>
<circle cx="280.63" cy="327.94" r="21.41" fill="#cccccc" stroke="#000000" stroke-width="1.00"/>
<circle cx="34.25" cy="99.78" r="21.41" fill="#cccccc" stroke="#000000" stroke-width="1.00"/>
<circle cx="178.59" cy="103.23" r="21.41" fill="#cccccc" stroke="#000000" stroke-width="1.00"/>
<circle cx="71.33" cy="78.38" r="21.41" fill="#cccccc" stroke="#000000" stroke-width="1.00"/>
<circle cx="282.05" cy="258.49" r="21.41" fill="#cccccc" stroke="#000000" stroke-width="1.00"/>
<circle cx="111.89" cy="286.47" r="21.41" fill="#cccccc" stroke="#000000" stroke-width="1.00"/>
<circle cx="105.22" cy="147.36" r="21.41" fill="#cccccc" stroke="#000000" stroke-width="1.00"/>
<circle cx="168.85" cy="365.75" r="21.41" fill="#cccccc" stroke="#000000" stroke-width="1.00"/>
<circle cx="104.64" cy="328.66" r="21.41" fill="#cccccc" stroke="#000000" stroke-width="1.00"/>
<circle cx="107.62" cy="55.66" r="21.41" fill="#cccccc" stroke="#000000" stroke-width="1.00"/>
<circle cx="178.55" cy="191.48" r="21.41" fill="#cccccc" stroke="#000000" stroke-width="1.00"/>
<circle cx="323.42" cy="329.44" r="21.41" fill="#cccccc" stroke="#000000" stroke-width="1.00"/>
<circle cx="365.75" cy="221.41" r="21.41" fill="#cccccc" stroke="#000000" stroke-width="1.00"/>
<circle cx="83.22" cy="365.73" r="21.41" fill="#cccccc" stroke="#000000" stroke-width="1.00"/>
<circle cx="349.23" cy="364.78" r="21.41" fill="#cccccc" stroke="#000000" stroke-width="1.00"/>
<circle cx="70.54" cy="34.25" r="21.41" fill="#cccccc" stroke="#000000" stroke-width="1.00"/>
<circle cx="211.66" cy="365.75" r="21.41" fill="#cccccc" stroke="#000000" stroke-width="1.00"/>
<circle cx="76.94" cy="258.78" r="21.41" fill="#cccccc" stroke="#000000" stroke-width="1.00"/>
<circle cx="209.17" cy="221.41" r="21.41" fill="#cccccc" stroke="#000000" stroke-width="1.00"/>
<circle cx="126.03" cy="365.75" r="21.41" fill="#cccccc" stroke="#000000" stroke-width="1.00"/>
<circle cx="178.59" cy="60.42" r="21.41" fill="#cccccc" stroke="#000000" stroke-width="1.00"/>
<circle cx="117.11" cy="243.97" r="21.41" fill="#cccccc" stroke="#000000" stroke-width="1.00"/>
<circle cx="71.33" cy="173.52" r="21.41" fill="#cccccc" stroke="#000000" stroke-width="1.00"/>
<circle cx="257.92" cy="365.75" r="21.41" fill="#cccccc" stroke="#000000" stroke-width="1.00"/>
<circle cx="147.44" cy="327.96" r="21.41" fill="#cccccc" stroke="#000000" stroke-width="1.00"/>
<circle cx="71.72" cy="301.28" r="21.41" fill="#cccccc" stroke="#000000" stroke-width="1.00"/>
<circle cx="34.25" cy="56.97" r="21.41" fill="#cccccc" stroke="#000000" stroke-width="1.00"/>
<circle cx="256.31" cy="292.70" r="21.41" fill="#cccccc" stroke="#000000" stroke-width="1.00"/>
<circle cx="260.64" cy="221.41" r="21.41" fill="#cccccc" stroke="#000000" stroke-width="1.00"/>
<circle cx="71.33" cy="216.34" r="21.41" fill="#cccccc" stroke="#000000" stroke-width="1.00"/>
<circle cx="234.79" cy="329.72" r="21.41" fill="#cccccc" stroke="#000000" stroke-width="1.00"/>
<circle cx="68.14" cy="125.95" r="21.41" fill="#cccccc" stroke="#000000" stroke-width="1.00"/>
<circle cx="365.75" cy="322.98" r="21.41" fill="#cccccc" stroke="#000000" stroke-width="1.00"/>
<circle cx="190.25" cy="328.67" r="21.41" fill="#cccccc" stroke="#000000" stroke-width="1.00"/>
<circle cx="334.60" cy="250.79" r="21.41" fill="#cccccc" stroke="#000000" stroke-width="1.00"/>
<circle cx="141.51" cy="81.83" r="21.41" fill="#cccccc" stroke="#000000" stroke-width="1.00"/>
<circle cx="34.25" cy="237.75" r="21.41" fill="#cccccc" stroke="#000000" stroke-width="1.00"/>
<circle cx="365.75" cy="280.16" r="21.41" fill="#cccccc" stroke="#000000" stroke-width="1.00"/>
<circle cx="34.25" cy="323.38" r="21.41" fill="#cccccc" stroke="#000000" stroke-width="1.00"/>
<circle cx="234.91" cy="255.63" r="21.41" fill="#cccccc" stroke="#000000" stroke-width="1.00"/>
<circle cx="105.22" cy="104.54" r="21.41" fill="#cccccc" stroke="#000000" stroke-width="1.00"/>
<circle cx="40.40" cy="365.75" r="21.41" fill="#cccccc" stroke="#000000" stroke-width="1.00"/>
<circle cx="34.25" cy="194.93" r="21.41" fill="#cccccc" stroke="#000000" stroke-width="1.00"/>
<circle cx="157.03" cy="228.49" r="21.41" fill="#cccccc" stroke="#000000" stroke-width="1.00"/>
<circle cx="141.15" cy="170.64" r="21.41" fill="#cccccc" stroke="#000000" stroke-width="1.00"/>
<circle cx="313.19" cy="287.87" r="21.41" fill="#cccccc" stroke="#000000" stroke-width="1.00"/>
<circle cx="154.70" cy="285.76" r="21.41" fill="#cccccc" stroke="#000000" stroke-width="1.00"/>
<circle cx="213.38" cy="292.64" r="21.41" fill="#cccccc" stroke="#000000" stroke-width="1.00"/>
<circle cx="144.70" cy="34.25" r="21.41" fill="#cccccc" stroke="#000000" stroke-width="1.00"/>
<circle cx="300.73" cy="365.75" r="21.41" fill="#cccccc" stroke="#000000" stroke-width="1.00"/>
<polygon points="12.84,387.16 387.16,387.16 387.16,200.00 200.00,200.00 200.00,12.84 12.84,12.84" fill="none" stroke="#000000" stroke-width="1.40"/>
</svg>