<svg xmlns="http://www.w3.org/2000/svg" width="400.0" height="400.0" viewBox="0 0 400.0 400.0">
<rect width="400.0" height="400.0" fill="white"/>
<circle cx="107.99" cy="34.12" r="21.33" fill="#cccccc" stroke="#000000" stroke-width="1.00"/>
<circle cx="69.46" cy="148.41" r="21.33" fill="#cccccc" stroke="#000000" stroke-width="1.00"/>
<circle cx="69.46" cy="100.65" r="21.33" fill="#cccccc" stroke="#000000" stroke-width="1.00"/>
<circle cx="307.20" cy="221.33" r="21.33" fill="#cccccc" stroke="#000000" stroke-width="1.00"/>
<circle cx="141.74" cy="145.85" r="21.33" fill="#cccccc" stroke="#000000" stroke-width="1.00"/>
<circle cx="349.62" cy="365.88" r="21.33" fill="#cccccc" stroke="#000000" stroke-width="1.00"/>
<circle cx="280.87" cy="327.79" r="21.33" fill="#cccccc" stroke="#000000" stroke-width="1.00"/>
<circle cx="365.88" cy="325.89" r="21.33" fill="#cccccc" stroke="#000000" stroke-width="1.00"/>
<circle cx="314.15" cy="288.58" r="21.33" fill="#cccccc" stroke="#000000" stroke-width="1.00"/>
<circle cx="71.06" cy="236.26" r="21.33" fill="#cccccc" stroke="#000000" stroke-width="1.00"/>
<circle cx="183.16" cy="255.13" r="21.33" fill="#cccccc" stroke="#000000" stroke-width="1.00"/>
<circle cx="214.90" cy="365.88" r="21.33" fill="#cccccc" stroke="#000000" stroke-width="1.00"/>
<circle cx="106.40" cy="79.32" r="21.33" fill="#cccccc" stroke="#000000" stroke-width="1.00"/>
<circle cx="224.91" cy="263.87" r="21.33" fill="#cccccc" stroke="#000000" stroke-width="1.00"/>
<circle cx="71.32" cy="365.88" r="21.33" fill="#cccccc" stroke="#000000" stroke-width="1.00"/>
<circle cx="107.99" cy="214.94" r="21.33" fill="#cccccc" stroke="#000000" stroke-width="1.00"/>
<circle cx="255.78" cy="293.30" r="21.33" fill="#cccccc" stroke="#000000" stroke-width="1.00"/>
<circle cx="71.06" cy="193.61" r="21.33" fill="#cccccc" stroke="#000000" stroke-width="1.00"/>
<circle cx="178.67" cy="167.18" r="21.33" fill="#cccccc" stroke="#000000" stroke-width="1.00"/>
<circle cx="178.67" cy="124.53" r="21.33" fill="#cccccc" stroke="#000000" stroke-width="1.00"/>
<circle cx="34.12" cy="214.94" r="21.33" fill="#cccccc" stroke="#000000" stroke-width="1.00"/>
<circle cx="148.68" cy="281.60" r="21.33" fill="#cccccc" stroke="#000000" stroke-width="1.00"/>
<circle cx="300.06" cy="365.88" r="21.33" fill="#cccccc" stroke="#000000" stroke-width="1.00"/>
<circle cx="178.67" cy="34.12" r="21.33" fill="#cccccc" stroke="#000000" stroke-width="1.00"/>
<circle cx="143.33" cy="191.06" r="21.33" fill="#cccccc" stroke="#000000" stroke-width="1.00"/>
<circle cx="184.03" cy="336.45" r="21.33" fill="#cccccc" stroke="#000000" stroke-width="1.00"/>
<circle cx="107.88" cy="257.79" r="21.33" fill="#cccccc" stroke="#000000" stroke-width="1.00"/>
<circle cx="71.42" cy="323.23" r="21.33" fill="#cccccc" stroke="#000000" stroke-width="1.00"/>
<circle cx="104.80" cy="124.53" r="21.33" fill="#cccccc" stroke="#000000" stroke-width="1.00"/>
<circle cx="34.12" cy="124.53" r="21.33" fill="#cccccc" stroke="#000000" stroke-width="1.00"/>
<circle cx="70.43" cy="279.97" r="21.33" fill="#cccccc" stroke="#000000" stroke-width="1.00"/>
<circle cx="180.16" cy="212.58" r="21.33" fill="#cccccc" stroke="#000000" stroke-width="1.00"/>
<circle cx="34.12" cy="76.77" r="21.33" fill="#cccccc" stroke="#000000" stroke-width="1.00"/>
<circle cx="257.48" cy="363.46" r="21.33" fill="#cccccc" stroke="#000000" stroke-width="1.00"/>
<circle cx="227.33" cy="325.08" r="21.33" fill="#cccccc" stroke="#000000" stroke-width="1.00"/>
<circle cx="178.67" cy="81.88" r="21.33" fill="#cccccc" stroke="#000000" stroke-width="1.00"/>
<circle cx="153.16" cy="365.88" r="21.33" fill="#cccccc" stroke="#000000" stroke-width="1.00"/>
<circle cx="34.12" cy="172.28" r="21.33" fill="#cccccc" stroke="#000000" stroke-width="1.00"/>
<circle cx="323.45" cy="330.21" r="21.33" fill="#cccccc" stroke="#000000" stroke-width="1.00"/>
<circle cx="143.11" cy="324.43" r="21.33" fill="#cccccc" stroke="#000000" stroke-width="1.00"/>
<circle cx="282.47" cy="260.03" r="21.33" fill="#cccccc" stroke="#000000" stroke-width="1.00"/>
<circle cx="107.85" cy="300.44" r="21.33" fill="#cccccc" stroke="#000000" stroke-width="1.00"/>
<circle cx="264.55" cy="221.33" r="21.33" fill="#cccccc" stroke="#000000" stroke-width="1.00"/>
<circle cx="34.12" cy="34.12" r="21.33" fill="#cccccc" stroke="#000000" stroke-width="1.00"/>
<circle cx="34.12" cy="302.36" r="21.33" fill="#cccccc" stroke="#000000" stroke-width="1.00"/>
<circle cx="106.40" cy="169.73" r="21.33" fill="#cccccc" stroke="#000000" stroke-width="1.00"/>
<circle cx="365.88" cy="283.24" r="21.33" fill="#cccccc" stroke="#000000" stroke-width="1.00"/>
<circle cx="144.82" cy="236.46" r="21.33" fill="#cccccc" stroke="#000000" stroke-width="1.00"/>
<circle cx="112.24" cy="353.86" r="21.33" fill="#cccccc" stroke="#000000" stroke-width="1.00"/>
<circle cx="141.74" cy="103.20" r="21.33" fill="#cccccc" stroke="#000000" stroke-width="1.00"/>
<circle cx="221.90" cy="221.33" r="21.33" fill="#cccccc" stroke="#000000" stroke-width="1.00"/>
<circle cx="365.88" cy="221.33" r="21.33" fill="#cccccc" stroke="#000000" stroke-width="1.00"/>
<circle cx="71.06" cy="55.45" r="21.33" fill="#cccccc" stroke="#000000" stroke-width="1.00"/>
<circle cx="143.33" cy="58.00" r="21.33" fill="#cccccc" stroke="#000000" stroke-width="1.00"/>
<circle cx="336.54" cy="252.28" r="21.33" fill="#cccccc" stroke="#000000" stroke-width="1.00"/>
<circle cx="34.12" cy="345.01" r="21.33" fill="#cccccc" stroke="#000000" stroke-width="1.00"/>
<circle cx="196.47" cy="295.65" r="21.33" fill="#cccccc" stroke="#000000" stroke-width="1.00"/>
<circle cx="34.12" cy="257.59" r="21.33" fill="#cccccc" stroke="#000000" stroke-width="1.00"/>
<polygon points="12.80,387.20 387.20,387.20 387.20,200.00 200.00,200.00 200.00,12.80 12.80,12.80" fill="none" stroke="#000000" stroke-width="1.40"/>
</svg>