<svg xmlns="http://www.w3.org/2000/svg" width="400.0" height="400.0" viewBox="0 0 400.0 400.0">
<rect width="400.0" height="400.0" fill="white"/>
<circle cx="107.45" cy="33.95" r="21.22" fill="#cccccc" stroke="#000000" stroke-width="1.00"/>
<circle cx="69.61" cy="145.39" r="21.22" fill="#cccccc" stroke="#000000" stroke-width="1.00"/>
<circle cx="69.61" cy="99.39" r="21.22" fill="#cccccc" stroke="#000000" stroke-width="1.00"/>
<circle cx="298.97" cy="221.22" r="21.22" fill="#cccccc" stroke="#000000" stroke-width="1.00"/>
<circle cx="142.03" cy="143.61" r="21.22" fill="#cccccc" stroke="#000000" stroke-width="1.00"/>
<circle cx="344.83" cy="366.05" r="21.22" fill="#cccccc" stroke="#000000" stroke-width="1.00"/>
<circle cx="277.75" cy="331.37" r="21.22" fill="#cccccc" stroke="#000000" stroke-width="1.00"/>
<circle cx="366.05" cy="329.30" r="21.22" fill="#cccccc" stroke="#000000" stroke-width="1.00"/>
<circle cx="299.06" cy="294.67" r="21.22" fill="#cccccc" stroke="#000000" stroke-width="1.00"/>
<circle cx="70.70" cy="232.05" r="21.22" fill="#cccccc" stroke="#000000" stroke-width="1.00"/>
<circle cx="191.15" cy="256.92" r="21.22" fill="#cccccc" stroke="#000000" stroke-width="1.00"/>
<circle cx="210.67" cy="366.05" r="21.22" fill="#cccccc" stroke="#000000" stroke-width="1.00"/>
<circle cx="106.37" cy="78.17" r="21.22" fill="#cccccc" stroke="#000000" stroke-width="1.00"/>
<circle cx="233.54" cy="258.94" r="21.22" fill="#cccccc" stroke="#000000" stroke-width="1.00"/>
<circle cx="70.19" cy="366.05" r="21.22" fill="#cccccc" stroke="#000000" stroke-width="1.00"/>
<circle cx="107.69" cy="211.20" r="21.22" fill="#cccccc" stroke="#000000" stroke-width="1.00"/>
<circle cx="256.44" cy="294.67" r="21.22" fill="#cccccc" stroke="#000000" stroke-width="1.00"/>
<circle cx="70.70" cy="189.62" r="21.22" fill="#cccccc" stroke="#000000" stroke-width="1.00"/>
<circle cx="178.78" cy="164.83" r="21.22" fill="#cccccc" stroke="#000000" stroke-width="1.00"/>
<circle cx="178.78" cy="122.39" r="21.22" fill="#cccccc" stroke="#000000" stroke-width="1.00"/>
<circle cx="33.95" cy="210.83" r="21.22" fill="#cccccc" stroke="#000000" stroke-width="1.00"/>
<circle cx="161.76" cy="295.30" r="21.22" fill="#cccccc" stroke="#000000" stroke-width="1.00"/>
<circle cx="302.21" cy="366.05" r="21.22" fill="#cccccc" stroke="#000000" stroke-width="1.00"/>
<circle cx="178.78" cy="33.95" r="21.22" fill="#cccccc" stroke="#000000" stroke-width="1.00"/>
<circle cx="143.12" cy="187.83" r="21.22" fill="#cccccc" stroke="#000000" stroke-width="1.00"/>
<circle cx="182.83" cy="334.02" r="21.22" fill="#cccccc" stroke="#000000" stroke-width="1.00"/>
<circle cx="106.32" cy="255.12" r="21.22" fill="#cccccc" stroke="#000000" stroke-width="1.00"/>
<circle cx="71.85" cy="322.54" r="21.22" fill="#cccccc" stroke="#000000" stroke-width="1.00"/>
<circle cx="105.28" cy="122.39" r="21.22" fill="#cccccc" stroke="#000000" stroke-width="1.00"/>
<circle cx="33.95" cy="122.39" r="21.22" fill="#cccccc" stroke="#000000" stroke-width="1.00"/>
<circle cx="68.86" cy="277.40" r="21.22" fill="#cccccc" stroke="#000000" stroke-width="1.00"/>
<circle cx="171.70" cy="219.20" r="21.22" fill="#cccccc" stroke="#000000" stroke-width="1.00"/>
<circle cx="33.95" cy="76.39" r="21.22" fill="#cccccc" stroke="#000000" stroke-width="1.00"/>
<circle cx="253.29" cy="366.05" r="21.22" fill="#cccccc" stroke="#000000" stroke-width="1.00"/>
<circle cx="231.98" cy="329.35" r="21.22" fill="#cccccc" stroke="#000000" stroke-width="1.00"/>
<circle cx="178.78" cy="79.95" r="21.22" fill="#cccccc" stroke="#000000" stroke-width="1.00"/>
<circle cx="155.00" cy="366.05" r="21.22" fill="#cccccc" stroke="#000000" stroke-width="1.00"/>
<circle cx="33.95" cy="168.40" r="21.22" fill="#cccccc" stroke="#000000" stroke-width="1.00"/>
<circle cx="323.52" cy="329.35" r="21.22" fill="#cccccc" stroke="#000000" stroke-width="1.00"/>
<circle cx="135.29" cy="328.47" r="21.22" fill="#cccccc" stroke="#000000" stroke-width="1.00"/>
<circle cx="277.75" cy="257.97" r="21.22" fill="#cccccc" stroke="#000000" stroke-width="1.00"/>
<circle cx="106.20" cy="297.56" r="21.22" fill="#cccccc" stroke="#000000" stroke-width="1.00"/>
<circle cx="256.53" cy="221.22" r="21.22" fill="#cccccc" stroke="#000000" stroke-width="1.00"/>
<circle cx="33.95" cy="33.95" r="21.22" fill="#cccccc" stroke="#000000" stroke-width="1.00"/>
<circle cx="33.95" cy="301.53" r="21.22" fill="#cccccc" stroke="#000000" stroke-width="1.00"/>
<circle cx="106.37" cy="166.61" r="21.22" fill="#cccccc" stroke="#000000" stroke-width="1.00"/>
<circle cx="366.05" cy="255.90" r="21.22" fill="#cccccc" stroke="#000000" stroke-width="1.00"/>
<circle cx="148.76" cy="254.90" r="21.22" fill="#cccccc" stroke="#000000" stroke-width="1.00"/>
<circle cx="112.60" cy="364.33" r="21.22" fill="#cccccc" stroke="#000000" stroke-width="1.00"/>
<circle cx="142.03" cy="101.17" r="21.22" fill="#cccccc" stroke="#000000" stroke-width="1.00"/>
<circle cx="214.09" cy="221.22" r="21.22" fill="#cccccc" stroke="#000000" stroke-width="1.00"/>
<circle cx="341.59" cy="221.22" r="21.22" fill="#cccccc" stroke="#000000" stroke-width="1.00"/>
<circle cx="70.70" cy="55.17" r="21.22" fill="#cccccc" stroke="#000000" stroke-width="1.00"/>
<circle cx="143.12" cy="56.95" r="21.22" fill="#cccccc" stroke="#000000" stroke-width="1.00"/>
<circle cx="320.28" cy="257.92" r="21.22" fill="#cccccc" stroke="#000000" stroke-width="1.00"/>
<circle cx="33.95" cy="343.97" r="21.22" fill="#cccccc" stroke="#000000" stroke-width="1.00"/>
<circle cx="204.15" cy="297.32" r="21.22" fill="#cccccc" stroke="#000000" stroke-width="1.00"/>
<circle cx="33.95" cy="253.27" r="21.22" fill="#cccccc" stroke="#000000" stroke-width="1.00"/>
<circle cx="344.74" cy="292.60" r="21.22" fill="#cccccc" stroke="#000000" stroke-width="1.00"/>
<polygon points="12.73,387.27 387.27,387.27 387.27,200.00 200.00,200.00 200.00,12.73 12.73,12.73" fill="none" stroke="#000000" stroke-width="1.40"/>
</svg>