<svg xmlns="http://www.w3.org/2000/svg" width="400.0" height="400.0" viewBox="0 0 400.0 400.0">
<rect width="400.0" height="400.0" fill="white"/>
<circle cx="107.34" cy="33.92" r="21.20" fill="#cccccc" stroke="#000000" stroke-width="1.00"/>
<circle cx="69.64" cy="144.77" r="21.20" fill="#cccccc" stroke="#000000" stroke-width="1.00"/>
<circle cx="69.64" cy="99.13" r="21.20" fill="#cccccc" stroke="#000000" stroke-width="1.00"/>
<circle cx="299.20" cy="221.20" r="21.20" fill="#cccccc" stroke="#000000" stroke-width="1.00"/>
<circle cx="142.09" cy="143.15" r="21.20" fill="#cccccc" stroke="#000000" stroke-width="1.00"/>
<circle cx="344.89" cy="366.08" r="21.20" fill="#cccccc" stroke="#000000" stroke-width="1.00"/>
<circle cx="278.00" cy="329.86" r="21.20" fill="#cccccc" stroke="#000000" stroke-width="1.00"/>
<circle cx="366.08" cy="329.37" r="21.20" fill="#cccccc" stroke="#000000" stroke-width="1.00"/>
<circle cx="300.43" cy="293.89" r="21.20" fill="#cccccc" stroke="#000000" stroke-width="1.00"/>
<circle cx="70.63" cy="231.18" r="21.20" fill="#cccccc" stroke="#000000" stroke-width="1.00"/>
<circle cx="189.56" cy="257.64" r="21.20" fill="#cccccc" stroke="#000000" stroke-width="1.00"/>
<circle cx="211.11" cy="366.08" r="21.20" fill="#cccccc" stroke="#000000" stroke-width="1.00"/>
<circle cx="106.36" cy="77.93" r="21.20" fill="#cccccc" stroke="#000000" stroke-width="1.00"/>
<circle cx="234.37" cy="257.17" r="21.20" fill="#cccccc" stroke="#000000" stroke-width="1.00"/>
<circle cx="79.61" cy="366.08" r="21.20" fill="#cccccc" stroke="#000000" stroke-width="1.00"/>
<circle cx="108.49" cy="212.00" r="21.20" fill="#cccccc" stroke="#000000" stroke-width="1.00"/>
<circle cx="255.57" cy="293.89" r="21.20" fill="#cccccc" stroke="#000000" stroke-width="1.00"/>
<circle cx="70.63" cy="188.78" r="21.20" fill="#cccccc" stroke="#000000" stroke-width="1.00"/>
<circle cx="178.80" cy="164.34" r="21.20" fill="#cccccc" stroke="#000000" stroke-width="1.00"/>
<circle cx="178.80" cy="121.95" r="21.20" fill="#cccccc" stroke="#000000" stroke-width="1.00"/>
<circle cx="33.92" cy="209.98" r="21.20" fill="#cccccc" stroke="#000000" stroke-width="1.00"/>
<circle cx="166.56" cy="293.99" r="21.20" fill="#cccccc" stroke="#000000" stroke-width="1.00"/>
<circle cx="300.03" cy="366.08" r="21.20" fill="#cccccc" stroke="#000000" stroke-width="1.00"/>
<circle cx="178.80" cy="33.92" r="21.20" fill="#cccccc" stroke="#000000" stroke-width="1.00"/>
<circle cx="143.07" cy="187.16" r="21.20" fill="#cccccc" stroke="#000000" stroke-width="1.00"/>
<circle cx="189.92" cy="329.37" r="21.20" fill="#cccccc" stroke="#000000" stroke-width="1.00"/>
<circle cx="104.80" cy="256.28" r="21.20" fill="#cccccc" stroke="#000000" stroke-width="1.00"/>
<circle cx="58.41" cy="329.37" r="21.20" fill="#cccccc" stroke="#000000" stroke-width="1.00"/>
<circle cx="105.37" cy="121.95" r="21.20" fill="#cccccc" stroke="#000000" stroke-width="1.00"/>
<circle cx="33.92" cy="121.95" r="21.20" fill="#cccccc" stroke="#000000" stroke-width="1.00"/>
<circle cx="79.38" cy="292.47" r="21.20" fill="#cccccc" stroke="#000000" stroke-width="1.00"/>
<circle cx="169.56" cy="220.27" r="21.20" fill="#cccccc" stroke="#000000" stroke-width="1.00"/>
<circle cx="33.92" cy="76.31" r="21.20" fill="#cccccc" stroke="#000000" stroke-width="1.00"/>
<circle cx="255.98" cy="366.08" r="21.20" fill="#cccccc" stroke="#000000" stroke-width="1.00"/>
<circle cx="233.54" cy="330.11" r="21.20" fill="#cccccc" stroke="#000000" stroke-width="1.00"/>
<circle cx="178.80" cy="79.55" r="21.20" fill="#cccccc" stroke="#000000" stroke-width="1.00"/>
<circle cx="168.72" cy="366.08" r="21.20" fill="#cccccc" stroke="#000000" stroke-width="1.00"/>
<circle cx="33.92" cy="167.59" r="21.20" fill="#cccccc" stroke="#000000" stroke-width="1.00"/>
<circle cx="322.46" cy="330.11" r="21.20" fill="#cccccc" stroke="#000000" stroke-width="1.00"/>
<circle cx="145.36" cy="330.70" r="21.20" fill="#cccccc" stroke="#000000" stroke-width="1.00"/>
<circle cx="278.00" cy="257.91" r="21.20" fill="#cccccc" stroke="#000000" stroke-width="1.00"/>
<circle cx="124.17" cy="293.99" r="21.20" fill="#cccccc" stroke="#000000" stroke-width="1.00"/>
<circle cx="256.80" cy="221.20" r="21.20" fill="#cccccc" stroke="#000000" stroke-width="1.00"/>
<circle cx="33.92" cy="33.92" r="21.20" fill="#cccccc" stroke="#000000" stroke-width="1.00"/>
<circle cx="33.92" cy="294.77" r="21.20" fill="#cccccc" stroke="#000000" stroke-width="1.00"/>
<circle cx="106.36" cy="165.97" r="21.20" fill="#cccccc" stroke="#000000" stroke-width="1.00"/>
<circle cx="366.08" cy="257.42" r="21.20" fill="#cccccc" stroke="#000000" stroke-width="1.00"/>
<circle cx="147.19" cy="256.28" r="21.20" fill="#cccccc" stroke="#000000" stroke-width="1.00"/>
<circle cx="122.01" cy="366.08" r="21.20" fill="#cccccc" stroke="#000000" stroke-width="1.00"/>
<circle cx="142.09" cy="100.75" r="21.20" fill="#cccccc" stroke="#000000" stroke-width="1.00"/>
<circle cx="211.94" cy="221.20" r="21.20" fill="#cccccc" stroke="#000000" stroke-width="1.00"/>
<circle cx="344.06" cy="221.20" r="21.20" fill="#cccccc" stroke="#000000" stroke-width="1.00"/>
<circle cx="70.63" cy="55.11" r="21.20" fill="#cccccc" stroke="#000000" stroke-width="1.00"/>
<circle cx="143.07" cy="56.73" r="21.20" fill="#cccccc" stroke="#000000" stroke-width="1.00"/>
<circle cx="321.63" cy="257.17" r="21.20" fill="#cccccc" stroke="#000000" stroke-width="1.00"/>
<circle cx="33.92" cy="365.34" r="21.20" fill="#cccccc" stroke="#000000" stroke-width="1.00"/>
<circle cx="212.35" cy="293.40" r="21.20" fill="#cccccc" stroke="#000000" stroke-width="1.00"/>
<circle cx="33.92" cy="252.38" r="21.20" fill="#cccccc" stroke="#000000" stroke-width="1.00"/>
<circle cx="343.65" cy="293.40" r="21.20" fill="#cccccc" stroke="#000000" stroke-width="1.00"/>
<circle cx="100.81" cy="329.37" r="21.20" fill="#cccccc" stroke="#000000" stroke-width="1.00"/>
<polygon points="12.72,387.28 387.28,387.28 387.28,200.00 200.00,200.00 200.00,12.72 12.72,12.72" fill="none" stroke="#000000" stroke-width="1.40"/>
</svg>