<svg xmlns="http://www.w3.org/2000/svg" width="400.0" height="400.0" viewBox="0 0 400.0 400.0">
<rect width="400.0" height="400.0" fill="white"/>
<circle cx="106.34" cy="33.69" r="21.06" fill="#cccccc" stroke="#000000" stroke-width="1.00"/>
<circle cx="69.99" cy="140.42" r="21.06" fill="#cccccc" stroke="#000000" stroke-width="1.00"/>
<circle cx="69.99" cy="97.70" r="21.06" fill="#cccccc" stroke="#000000" stroke-width="1.00"/>
<circle cx="302.10" cy="221.06" r="21.06" fill="#cccccc" stroke="#000000" stroke-width="1.00"/>
<circle cx="142.62" cy="140.38" r="21.06" fill="#cccccc" stroke="#000000" stroke-width="1.00"/>
<circle cx="345.17" cy="366.31" r="21.06" fill="#cccccc" stroke="#000000" stroke-width="1.00"/>
<circle cx="280.97" cy="330.44" r="21.06" fill="#cccccc" stroke="#000000" stroke-width="1.00"/>
<circle cx="366.31" cy="329.87" r="21.06" fill="#cccccc" stroke="#000000" stroke-width="1.00"/>
<circle cx="302.03" cy="293.97" r="21.06" fill="#cccccc" stroke="#000000" stroke-width="1.00"/>
<circle cx="70.02" cy="225.74" r="21.06" fill="#cccccc" stroke="#000000" stroke-width="1.00"/>
<circle cx="191.00" cy="253.77" r="21.06" fill="#cccccc" stroke="#000000" stroke-width="1.00"/>
<circle cx="216.77" cy="366.31" r="21.06" fill="#cccccc" stroke="#000000" stroke-width="1.00"/>
<circle cx="106.32" cy="76.38" r="21.06" fill="#cccccc" stroke="#000000" stroke-width="1.00"/>
<circle cx="238.77" cy="257.53" r="21.06" fill="#cccccc" stroke="#000000" stroke-width="1.00"/>
<circle cx="75.56" cy="366.31" r="21.06" fill="#cccccc" stroke="#000000" stroke-width="1.00"/>
<circle cx="106.34" cy="204.42" r="21.06" fill="#cccccc" stroke="#000000" stroke-width="1.00"/>
<circle cx="259.91" cy="293.97" r="21.06" fill="#cccccc" stroke="#000000" stroke-width="1.00"/>
<circle cx="70.02" cy="183.10" r="21.06" fill="#cccccc" stroke="#000000" stroke-width="1.00"/>
<circle cx="178.94" cy="161.70" r="21.06" fill="#cccccc" stroke="#000000" stroke-width="1.00"/>
<circle cx="178.94" cy="119.06" r="21.06" fill="#cccccc" stroke="#000000" stroke-width="1.00"/>
<circle cx="33.69" cy="204.42" r="21.06" fill="#cccccc" stroke="#000000" stroke-width="1.00"/>
<circle cx="174.62" cy="295.44" r="21.06" fill="#cccccc" stroke="#000000" stroke-width="1.00"/>
<circle cx="303.05" cy="366.31" r="21.06" fill="#cccccc" stroke="#000000" stroke-width="1.00"/>
<circle cx="178.94" cy="33.69" r="21.06" fill="#cccccc" stroke="#000000" stroke-width="1.00"/>
<circle cx="142.64" cy="183.06" r="21.06" fill="#cccccc" stroke="#000000" stroke-width="1.00"/>
<circle cx="188.28" cy="335.28" r="21.06" fill="#cccccc" stroke="#000000" stroke-width="1.00"/>
<circle cx="106.64" cy="246.53" r="21.06" fill="#cccccc" stroke="#000000" stroke-width="1.00"/>
<circle cx="55.14" cy="325.42" r="21.06" fill="#cccccc" stroke="#000000" stroke-width="1.00"/>
<circle cx="106.29" cy="119.06" r="21.06" fill="#cccccc" stroke="#000000" stroke-width="1.00"/>
<circle cx="33.69" cy="119.06" r="21.06" fill="#cccccc" stroke="#000000" stroke-width="1.00"/>
<circle cx="70.32" cy="267.86" r="21.06" fill="#cccccc" stroke="#000000" stroke-width="1.00"/>
<circle cx="179.29" cy="203.81" r="21.06" fill="#cccccc" stroke="#000000" stroke-width="1.00"/>
<circle cx="33.69" cy="76.34" r="21.06" fill="#cccccc" stroke="#000000" stroke-width="1.00"/>
<circle cx="258.88" cy="366.31" r="21.06" fill="#cccccc" stroke="#000000" stroke-width="1.00"/>
<circle cx="237.83" cy="329.83" r="21.06" fill="#cccccc" stroke="#000000" stroke-width="1.00"/>
<circle cx="178.94" cy="76.41" r="21.06" fill="#cccccc" stroke="#000000" stroke-width="1.00"/>
<circle cx="159.79" cy="366.31" r="21.06" fill="#cccccc" stroke="#000000" stroke-width="1.00"/>
<circle cx="33.69" cy="161.78" r="21.06" fill="#cccccc" stroke="#000000" stroke-width="1.00"/>
<circle cx="324.11" cy="329.83" r="21.06" fill="#cccccc" stroke="#000000" stroke-width="1.00"/>
<circle cx="140.03" cy="324.13" r="21.06" fill="#cccccc" stroke="#000000" stroke-width="1.00"/>
<circle cx="280.97" cy="257.49" r="21.06" fill="#cccccc" stroke="#000000" stroke-width="1.00"/>
<circle cx="106.99" cy="288.65" r="21.06" fill="#cccccc" stroke="#000000" stroke-width="1.00"/>
<circle cx="259.83" cy="221.06" r="21.06" fill="#cccccc" stroke="#000000" stroke-width="1.00"/>
<circle cx="33.69" cy="33.69" r="21.06" fill="#cccccc" stroke="#000000" stroke-width="1.00"/>
<circle cx="33.69" cy="289.18" r="21.06" fill="#cccccc" stroke="#000000" stroke-width="1.00"/>
<circle cx="106.32" cy="161.74" r="21.06" fill="#cccccc" stroke="#000000" stroke-width="1.00"/>
<circle cx="366.31" cy="256.92" r="21.06" fill="#cccccc" stroke="#000000" stroke-width="1.00"/>
<circle cx="143.29" cy="267.29" r="21.06" fill="#cccccc" stroke="#000000" stroke-width="1.00"/>
<circle cx="117.68" cy="366.31" r="21.06" fill="#cccccc" stroke="#000000" stroke-width="1.00"/>
<circle cx="142.62" cy="97.73" r="21.06" fill="#cccccc" stroke="#000000" stroke-width="1.00"/>
<circle cx="217.71" cy="221.06" r="21.06" fill="#cccccc" stroke="#000000" stroke-width="1.00"/>
<circle cx="344.22" cy="221.06" r="21.06" fill="#cccccc" stroke="#000000" stroke-width="1.00"/>
<circle cx="70.02" cy="55.02" r="21.06" fill="#cccccc" stroke="#000000" stroke-width="1.00"/>
<circle cx="142.64" cy="55.05" r="21.06" fill="#cccccc" stroke="#000000" stroke-width="1.00"/>
<circle cx="323.16" cy="257.53" r="21.06" fill="#cccccc" stroke="#000000" stroke-width="1.00"/>
<circle cx="33.69" cy="361.67" r="21.06" fill="#cccccc" stroke="#000000" stroke-width="1.00"/>
<circle cx="216.69" cy="293.40" r="21.06" fill="#cccccc" stroke="#000000" stroke-width="1.00"/>
<circle cx="33.69" cy="247.06" r="21.06" fill="#cccccc" stroke="#000000" stroke-width="1.00"/>
<circle cx="345.25" cy="293.40" r="21.06" fill="#cccccc" stroke="#000000" stroke-width="1.00"/>
<circle cx="97.06" cy="329.58" r="21.06" fill="#cccccc" stroke="#000000" stroke-width="1.00"/>
<circle cx="142.99" cy="225.17" r="21.06" fill="#cccccc" stroke="#000000" stroke-width="1.00"/>
<polygon points="12.64,387.36 387.36,387.36 387.36,200.00 200.00,200.00 200.00,12.64 12.64,12.64" fill="none" stroke="#000000" stroke-width="1.40"/>
</svg>