<svg xmlns="http://www.w3.org/2000/svg" width="400.0" height="400.0" viewBox="0 0 400.0 400.0">
<rect width="400.0" height="400.0" fill="white"/>
<circle cx="106.39" cy="33.61" r="21.01" fill="#cccccc" stroke="#000000" stroke-width="1.00"/>
<circle cx="69.94" cy="139.14" r="21.01" fill="#cccccc" stroke="#000000" stroke-width="1.00"/>
<circle cx="69.89" cy="96.83" r="21.01" fill="#cccccc" stroke="#000000" stroke-width="1.00"/>
<circle cx="303.36" cy="221.01" r="21.01" fill="#cccccc" stroke="#000000" stroke-width="1.00"/>
<circle cx="142.60" cy="138.95" r="21.01" fill="#cccccc" stroke="#000000" stroke-width="1.00"/>
<circle cx="345.09" cy="366.39" r="21.01" fill="#cccccc" stroke="#000000" stroke-width="1.00"/>
<circle cx="282.06" cy="330.00" r="21.01" fill="#cccccc" stroke="#000000" stroke-width="1.00"/>
<circle cx="366.39" cy="330.17" r="21.01" fill="#cccccc" stroke="#000000" stroke-width="1.00"/>
<circle cx="303.06" cy="293.60" r="21.01" fill="#cccccc" stroke="#000000" stroke-width="1.00"/>
<circle cx="70.00" cy="223.27" r="21.01" fill="#cccccc" stroke="#000000" stroke-width="1.00"/>
<circle cx="181.53" cy="244.43" r="21.01" fill="#cccccc" stroke="#000000" stroke-width="1.00"/>
<circle cx="219.04" cy="366.39" r="21.01" fill="#cccccc" stroke="#000000" stroke-width="1.00"/>
<circle cx="106.28" cy="75.82" r="21.01" fill="#cccccc" stroke="#000000" stroke-width="1.00"/>
<circle cx="238.69" cy="256.78" r="21.01" fill="#cccccc" stroke="#000000" stroke-width="1.00"/>
<circle cx="93.40" cy="366.39" r="21.01" fill="#cccccc" stroke="#000000" stroke-width="1.00"/>
<circle cx="106.39" cy="202.27" r="21.01" fill="#cccccc" stroke="#000000" stroke-width="1.00"/>
<circle cx="261.03" cy="293.60" r="21.01" fill="#cccccc" stroke="#000000" stroke-width="1.00"/>
<circle cx="70.00" cy="181.26" r="21.01" fill="#cccccc" stroke="#000000" stroke-width="1.00"/>
<circle cx="178.99" cy="159.96" r="21.01" fill="#cccccc" stroke="#000000" stroke-width="1.00"/>
<circle cx="178.99" cy="117.94" r="21.01" fill="#cccccc" stroke="#000000" stroke-width="1.00"/>
<circle cx="33.61" cy="202.27" r="21.01" fill="#cccccc" stroke="#000000" stroke-width="1.00"/>
<circle cx="176.94" cy="289.74" r="21.01" fill="#cccccc" stroke="#000000" stroke-width="1.00"/>
<circle cx="303.07" cy="366.39" r="21.01" fill="#cccccc" stroke="#000000" stroke-width="1.00"/>
<circle cx="178.99" cy="33.62" r="21.01" fill="#cccccc" stroke="#000000" stroke-width="1.00"/>
<circle cx="142.72" cy="181.16" r="21.01" fill="#cccccc" stroke="#000000" stroke-width="1.00"/>
<circle cx="194.35" cy="328.05" r="21.01" fill="#cccccc" stroke="#000000" stroke-width="1.00"/>
<circle cx="106.39" cy="244.28" r="21.01" fill="#cccccc" stroke="#000000" stroke-width="1.00"/>
<circle cx="33.61" cy="328.32" r="21.01" fill="#cccccc" stroke="#000000" stroke-width="1.00"/>
<circle cx="106.22" cy="117.94" r="21.01" fill="#cccccc" stroke="#000000" stroke-width="1.00"/>
<circle cx="33.61" cy="118.03" r="21.01" fill="#cccccc" stroke="#000000" stroke-width="1.00"/>
<circle cx="70.00" cy="265.29" r="21.01" fill="#cccccc" stroke="#000000" stroke-width="1.00"/>
<circle cx="179.10" cy="202.16" r="21.01" fill="#cccccc" stroke="#000000" stroke-width="1.00"/>
<circle cx="33.61" cy="75.63" r="21.01" fill="#cccccc" stroke="#000000" stroke-width="1.00"/>
<circle cx="261.05" cy="366.39" r="21.01" fill="#cccccc" stroke="#000000" stroke-width="1.00"/>
<circle cx="240.05" cy="330.00" r="21.01" fill="#cccccc" stroke="#000000" stroke-width="1.00"/>
<circle cx="178.99" cy="75.92" r="21.01" fill="#cccccc" stroke="#000000" stroke-width="1.00"/>
<circle cx="177.02" cy="366.39" r="21.01" fill="#cccccc" stroke="#000000" stroke-width="1.00"/>
<circle cx="33.61" cy="160.25" r="21.01" fill="#cccccc" stroke="#000000" stroke-width="1.00"/>
<circle cx="324.08" cy="330.00" r="21.01" fill="#cccccc" stroke="#000000" stroke-width="1.00"/>
<circle cx="152.50" cy="323.92" r="21.01" fill="#cccccc" stroke="#000000" stroke-width="1.00"/>
<circle cx="282.05" cy="257.22" r="21.01" fill="#cccccc" stroke="#000000" stroke-width="1.00"/>
<circle cx="106.39" cy="286.30" r="21.01" fill="#cccccc" stroke="#000000" stroke-width="1.00"/>
<circle cx="260.73" cy="221.01" r="21.01" fill="#cccccc" stroke="#000000" stroke-width="1.00"/>
<circle cx="33.61" cy="33.61" r="21.01" fill="#cccccc" stroke="#000000" stroke-width="1.00"/>
<circle cx="33.61" cy="286.30" r="21.01" fill="#cccccc" stroke="#000000" stroke-width="1.00"/>
<circle cx="106.33" cy="160.15" r="21.01" fill="#cccccc" stroke="#000000" stroke-width="1.00"/>
<circle cx="366.39" cy="257.40" r="21.01" fill="#cccccc" stroke="#000000" stroke-width="1.00"/>
<circle cx="142.77" cy="265.29" r="21.01" fill="#cccccc" stroke="#000000" stroke-width="1.00"/>
<circle cx="135.21" cy="362.22" r="21.01" fill="#cccccc" stroke="#000000" stroke-width="1.00"/>
<circle cx="142.60" cy="96.93" r="21.01" fill="#cccccc" stroke="#000000" stroke-width="1.00"/>
<circle cx="216.66" cy="221.01" r="21.01" fill="#cccccc" stroke="#000000" stroke-width="1.00"/>
<circle cx="345.38" cy="221.01" r="21.01" fill="#cccccc" stroke="#000000" stroke-width="1.00"/>
<circle cx="70.00" cy="54.62" r="21.01" fill="#cccccc" stroke="#000000" stroke-width="1.00"/>
<circle cx="142.66" cy="54.81" r="21.01" fill="#cccccc" stroke="#000000" stroke-width="1.00"/>
<circle cx="324.37" cy="257.40" r="21.01" fill="#cccccc" stroke="#000000" stroke-width="1.00"/>
<circle cx="51.39" cy="366.39" r="21.01" fill="#cccccc" stroke="#000000" stroke-width="1.00"/>
<circle cx="218.77" cy="293.77" r="21.01" fill="#cccccc" stroke="#000000" stroke-width="1.00"/>
<circle cx="33.61" cy="244.28" r="21.01" fill="#cccccc" stroke="#000000" stroke-width="1.00"/>
<circle cx="345.38" cy="293.78" r="21.01" fill="#cccccc" stroke="#000000" stroke-width="1.00"/>
<circle cx="110.70" cy="328.09" r="21.01" fill="#cccccc" stroke="#000000" stroke-width="1.00"/>
<circle cx="142.77" cy="223.27" r="21.01" fill="#cccccc" stroke="#000000" stroke-width="1.00"/>
<circle cx="70.63" cy="308.38" r="21.01" fill="#cccccc" stroke="#000000" stroke-width="1.00"/>
<polygon points="12.60,387.40 387.40,387.40 387.40,200.00 200.00,200.00 200.00,12.60 12.60,12.60" fill="none" stroke="#000000" stroke-width="1.40"/>
</svg>