<svg xmlns="http://www.w3.org/2000/svg" width="400.0" height="400.0" viewBox="0 0 400.0 400.0">
<rect width="400.0" height="400.0" fill="white"/>
<circle cx="33.39" cy="366.61" r="20.87" fill="#cccccc" stroke="#000000" stroke-width="1.00"/>
<circle cx="38.61" cy="325.20" r="20.87" fill="#cccccc" stroke="#000000" stroke-width="1.00"/>
<circle cx="71.86" cy="350.43" r="20.87" fill="#cccccc" stroke="#000000" stroke-width="1.00"/>
<circle cx="110.33" cy="366.61" r="20.87" fill="#cccccc" stroke="#000000" stroke-width="1.00"/>
<circle cx="74.74" cy="304.31" r="20.87" fill="#cccccc" stroke="#000000" stroke-width="1.00"/>
<circle cx="33.39" cy="283.80" r="20.87" fill="#cccccc" stroke="#000000" stroke-width="1.00"/>
<circle cx="111.05" cy="324.88" r="20.87" fill="#cccccc" stroke="#000000" stroke-width="1.00"/>
<circle cx="146.83" cy="346.37" r="20.87" fill="#cccccc" stroke="#000000" stroke-width="1.00"/>
<circle cx="69.55" cy="262.90" r="20.87" fill="#cccccc" stroke="#000000" stroke-width="1.00"/>
<circle cx="112.69" cy="283.18" r="20.87" fill="#cccccc" stroke="#000000" stroke-width="1.00"/>
<circle cx="33.39" cy="242.06" r="20.87" fill="#cccccc" stroke="#000000" stroke-width="1.00"/>
<circle cx="148.73" cy="304.23" r="20.87" fill="#cccccc" stroke="#000000" stroke-width="1.00"/>
<circle cx="183.32" cy="366.61" r="20.87" fill="#cccccc" stroke="#000000" stroke-width="1.00"/>
<circle cx="105.69" cy="242.03" r="20.87" fill="#cccccc" stroke="#000000" stroke-width="1.00"/>
<circle cx="69.55" cy="221.16" r="20.87" fill="#cccccc" stroke="#000000" stroke-width="1.00"/>
<circle cx="184.98" cy="324.91" r="20.87" fill="#cccccc" stroke="#000000" stroke-width="1.00"/>
<circle cx="148.84" cy="262.31" r="20.87" fill="#cccccc" stroke="#000000" stroke-width="1.00"/>
<circle cx="33.39" cy="200.33" r="20.87" fill="#cccccc" stroke="#000000" stroke-width="1.00"/>
<circle cx="184.98" cy="283.18" r="20.87" fill="#cccccc" stroke="#000000" stroke-width="1.00"/>
<circle cx="220.27" cy="347.20" r="20.87" fill="#cccccc" stroke="#000000" stroke-width="1.00"/>
<circle cx="105.69" cy="200.30" r="20.87" fill="#cccccc" stroke="#000000" stroke-width="1.00"/>
<circle cx="141.84" cy="221.16" r="20.87" fill="#cccccc" stroke="#000000" stroke-width="1.00"/>
<circle cx="69.55" cy="179.43" r="20.87" fill="#cccccc" stroke="#000000" stroke-width="1.00"/>
<circle cx="221.29" cy="304.34" r="20.87" fill="#cccccc" stroke="#000000" stroke-width="1.00"/>
<circle cx="184.98" cy="241.44" r="20.87" fill="#cccccc" stroke="#000000" stroke-width="1.00"/>
<circle cx="33.39" cy="158.59" r="20.87" fill="#cccccc" stroke="#000000" stroke-width="1.00"/>
<circle cx="221.29" cy="262.60" r="20.87" fill="#cccccc" stroke="#000000" stroke-width="1.00"/>
<circle cx="257.21" cy="366.61" r="20.87" fill="#cccccc" stroke="#000000" stroke-width="1.00"/>
<circle cx="141.84" cy="179.43" r="20.87" fill="#cccccc" stroke="#000000" stroke-width="1.00"/>
<circle cx="257.62" cy="324.88" r="20.87" fill="#cccccc" stroke="#000000" stroke-width="1.00"/>
<circle cx="105.69" cy="158.56" r="20.87" fill="#cccccc" stroke="#000000" stroke-width="1.00"/>
<circle cx="177.98" cy="200.30" r="20.87" fill="#cccccc" stroke="#000000" stroke-width="1.00"/>
<circle cx="69.55" cy="137.69" r="20.87" fill="#cccccc" stroke="#000000" stroke-width="1.00"/>
<circle cx="257.62" cy="283.14" r="20.87" fill="#cccccc" stroke="#000000" stroke-width="1.00"/>
<circle cx="221.29" cy="220.87" r="20.87" fill="#cccccc" stroke="#000000" stroke-width="1.00"/>
<circle cx="33.39" cy="116.86" r="20.87" fill="#cccccc" stroke="#000000" stroke-width="1.00"/>
<circle cx="293.56" cy="346.10" r="20.87" fill="#cccccc" stroke="#000000" stroke-width="1.00"/>
<circle cx="257.62" cy="241.41" r="20.87" fill="#cccccc" stroke="#000000" stroke-width="1.00"/>
<circle cx="142.99" cy="137.71" r="20.87" fill="#cccccc" stroke="#000000" stroke-width="1.00"/>
<circle cx="179.13" cy="158.58" r="20.87" fill="#cccccc" stroke="#000000" stroke-width="1.00"/>
<circle cx="293.95" cy="304.34" r="20.87" fill="#cccccc" stroke="#000000" stroke-width="1.00"/>
<circle cx="106.85" cy="116.84" r="20.87" fill="#cccccc" stroke="#000000" stroke-width="1.00"/>
<circle cx="69.55" cy="95.96" r="20.87" fill="#cccccc" stroke="#000000" stroke-width="1.00"/>
<circle cx="293.95" cy="262.60" r="20.87" fill="#cccccc" stroke="#000000" stroke-width="1.00"/>
<circle cx="329.91" cy="366.61" r="20.87" fill="#cccccc" stroke="#000000" stroke-width="1.00"/>
<circle cx="33.39" cy="75.12" r="20.87" fill="#cccccc" stroke="#000000" stroke-width="1.00"/>
<circle cx="330.28" cy="324.88" r="20.87" fill="#cccccc" stroke="#000000" stroke-width="1.00"/>
<circle cx="179.13" cy="116.84" r="20.87" fill="#cccccc" stroke="#000000" stroke-width="1.00"/>
<circle cx="142.99" cy="95.97" r="20.87" fill="#cccccc" stroke="#000000" stroke-width="1.00"/>
<circle cx="293.95" cy="220.87" r="20.87" fill="#cccccc" stroke="#000000" stroke-width="1.00"/>
<circle cx="105.71" cy="75.12" r="20.87" fill="#cccccc" stroke="#000000" stroke-width="1.00"/>
<circle cx="330.28" cy="283.14" r="20.87" fill="#cccccc" stroke="#000000" stroke-width="1.00"/>
<circle cx="69.55" cy="54.22" r="20.87" fill="#cccccc" stroke="#000000" stroke-width="1.00"/>
<circle cx="330.28" cy="241.41" r="20.87" fill="#cccccc" stroke="#000000" stroke-width="1.00"/>
<circle cx="366.61" cy="346.59" r="20.87" fill="#cccccc" stroke="#000000" stroke-width="1.00"/>
<circle cx="179.13" cy="75.11" r="20.87" fill="#cccccc" stroke="#000000" stroke-width="1.00"/>
<circle cx="33.39" cy="33.39" r="20.87" fill="#cccccc" stroke="#000000" stroke-width="1.00"/>
<circle cx="366.61" cy="304.34" r="20.87" fill="#cccccc" stroke="#000000" stroke-width="1.00"/>
<circle cx="141.85" cy="54.26" r="20.87" fill="#cccccc" stroke="#000000" stroke-width="1.00"/>
<circle cx="105.71" cy="33.39" r="20.87" fill="#cccccc" stroke="#000000" stroke-width="1.00"/>
<circle cx="366.61" cy="262.60" r="20.87" fill="#cccccc" stroke="#000000" stroke-width="1.00"/>
<circle cx="366.61" cy="220.87" r="20.87" fill="#cccccc" stroke="#000000" stroke-width="1.00"/>
<circle cx="178.00" cy="33.39" r="20.87" fill="#cccccc" stroke="#000000" stroke-width="1.00"/>
<polygon points="12.52,387.48 387.48,387.48 387.48,200.00 200.00,200.00 200.00,12.52 12.52,12.52" fill="none" stroke="#000000" stroke-width="1.40"/>
</svg>