<svg xmlns="http://www.w3.org/2000/svg" width="400.0" height="400.0" viewBox="0 0 400.0 400.0">
<rect width="400.0" height="400.0" fill="white"/>
<circle cx="33.44" cy="362.49" r="20.56" fill="#cccccc" stroke="#000000" stroke-width="1.00"/>
<circle cx="32.89" cy="320.67" r="20.56" fill="#cccccc" stroke="#000000" stroke-width="1.00"/>
<circle cx="79.33" cy="367.11" r="20.56" fill="#cccccc" stroke="#000000" stroke-width="1.00"/>
<circle cx="73.60" cy="326.40" r="20.56" fill="#cccccc" stroke="#000000" stroke-width="1.00"/>
<circle cx="32.89" cy="279.55" r="20.56" fill="#cccccc" stroke="#000000" stroke-width="1.00"/>
<circle cx="120.44" cy="366.40" r="20.56" fill="#cccccc" stroke="#000000" stroke-width="1.00"/>
<circle cx="109.21" cy="305.84" r="20.56" fill="#cccccc" stroke="#000000" stroke-width="1.00"/>
<circle cx="73.60" cy="285.28" r="20.56" fill="#cccccc" stroke="#000000" stroke-width="1.00"/>
<circle cx="109.21" cy="264.73" r="20.56" fill="#cccccc" stroke="#000000" stroke-width="1.00"/>
<circle cx="32.89" cy="238.44" r="20.56" fill="#cccccc" stroke="#000000" stroke-width="1.00"/>
<circle cx="161.54" cy="367.11" r="20.56" fill="#cccccc" stroke="#000000" stroke-width="1.00"/>
<circle cx="73.60" cy="244.17" r="20.56" fill="#cccccc" stroke="#000000" stroke-width="1.00"/>
<circle cx="141.60" cy="331.15" r="20.56" fill="#cccccc" stroke="#000000" stroke-width="1.00"/>
<circle cx="109.21" cy="223.61" r="20.56" fill="#cccccc" stroke="#000000" stroke-width="1.00"/>
<circle cx="151.35" cy="289.59" r="20.56" fill="#cccccc" stroke="#000000" stroke-width="1.00"/>
<circle cx="202.66" cy="367.11" r="20.56" fill="#cccccc" stroke="#000000" stroke-width="1.00"/>
<circle cx="32.89" cy="197.33" r="20.56" fill="#cccccc" stroke="#000000" stroke-width="1.00"/>
<circle cx="182.72" cy="331.15" r="20.56" fill="#cccccc" stroke="#000000" stroke-width="1.00"/>
<circle cx="73.60" cy="203.06" r="20.56" fill="#cccccc" stroke="#000000" stroke-width="1.00"/>
<circle cx="145.96" cy="246.30" r="20.56" fill="#cccccc" stroke="#000000" stroke-width="1.00"/>
<circle cx="109.21" cy="182.50" r="20.56" fill="#cccccc" stroke="#000000" stroke-width="1.00"/>
<circle cx="202.66" cy="295.20" r="20.56" fill="#cccccc" stroke="#000000" stroke-width="1.00"/>
<circle cx="32.89" cy="156.22" r="20.56" fill="#cccccc" stroke="#000000" stroke-width="1.00"/>
<circle cx="243.77" cy="367.11" r="20.56" fill="#cccccc" stroke="#000000" stroke-width="1.00"/>
<circle cx="145.96" cy="205.19" r="20.56" fill="#cccccc" stroke="#000000" stroke-width="1.00"/>
<circle cx="185.41" cy="257.88" r="20.56" fill="#cccccc" stroke="#000000" stroke-width="1.00"/>
<circle cx="223.83" cy="331.15" r="20.56" fill="#cccccc" stroke="#000000" stroke-width="1.00"/>
<circle cx="73.60" cy="161.94" r="20.56" fill="#cccccc" stroke="#000000" stroke-width="1.00"/>
<circle cx="108.36" cy="139.99" r="20.56" fill="#cccccc" stroke="#000000" stroke-width="1.00"/>
<circle cx="243.77" cy="295.20" r="20.56" fill="#cccccc" stroke="#000000" stroke-width="1.00"/>
<circle cx="202.66" cy="220.56" r="20.56" fill="#cccccc" stroke="#000000" stroke-width="1.00"/>
<circle cx="226.52" cy="257.88" r="20.56" fill="#cccccc" stroke="#000000" stroke-width="1.00"/>
<circle cx="32.89" cy="115.10" r="20.56" fill="#cccccc" stroke="#000000" stroke-width="1.00"/>
<circle cx="143.97" cy="160.55" r="20.56" fill="#cccccc" stroke="#000000" stroke-width="1.00"/>
<circle cx="284.88" cy="367.11" r="20.56" fill="#cccccc" stroke="#000000" stroke-width="1.00"/>
<circle cx="264.94" cy="331.15" r="20.56" fill="#cccccc" stroke="#000000" stroke-width="1.00"/>
<circle cx="73.93" cy="117.52" r="20.56" fill="#cccccc" stroke="#000000" stroke-width="1.00"/>
<circle cx="284.88" cy="295.20" r="20.56" fill="#cccccc" stroke="#000000" stroke-width="1.00"/>
<circle cx="109.41" cy="96.74" r="20.56" fill="#cccccc" stroke="#000000" stroke-width="1.00"/>
<circle cx="243.77" cy="220.56" r="20.56" fill="#cccccc" stroke="#000000" stroke-width="1.00"/>
<circle cx="179.44" cy="181.33" r="20.56" fill="#cccccc" stroke="#000000" stroke-width="1.00"/>
<circle cx="143.84" cy="119.21" r="20.56" fill="#cccccc" stroke="#000000" stroke-width="1.00"/>
<circle cx="267.64" cy="257.88" r="20.56" fill="#cccccc" stroke="#000000" stroke-width="1.00"/>
<circle cx="32.89" cy="73.99" r="20.56" fill="#cccccc" stroke="#000000" stroke-width="1.00"/>
<circle cx="326.00" cy="367.11" r="20.56" fill="#cccccc" stroke="#000000" stroke-width="1.00"/>
<circle cx="73.96" cy="75.91" r="20.56" fill="#cccccc" stroke="#000000" stroke-width="1.00"/>
<circle cx="306.06" cy="331.15" r="20.56" fill="#cccccc" stroke="#000000" stroke-width="1.00"/>
<circle cx="326.00" cy="295.20" r="20.56" fill="#cccccc" stroke="#000000" stroke-width="1.00"/>
<circle cx="284.88" cy="220.56" r="20.56" fill="#cccccc" stroke="#000000" stroke-width="1.00"/>
<circle cx="179.44" cy="139.76" r="20.56" fill="#cccccc" stroke="#000000" stroke-width="1.00"/>
<circle cx="109.56" cy="55.36" r="20.56" fill="#cccccc" stroke="#000000" stroke-width="1.00"/>
<circle cx="308.75" cy="257.88" r="20.56" fill="#cccccc" stroke="#000000" stroke-width="1.00"/>
<circle cx="145.01" cy="76.18" r="20.56" fill="#cccccc" stroke="#000000" stroke-width="1.00"/>
<circle cx="34.02" cy="32.89" r="20.56" fill="#cccccc" stroke="#000000" stroke-width="1.00"/>
<circle cx="367.11" cy="367.11" r="20.56" fill="#cccccc" stroke="#000000" stroke-width="1.00"/>
<circle cx="75.13" cy="32.89" r="20.56" fill="#cccccc" stroke="#000000" stroke-width="1.00"/>
<circle cx="367.11" cy="295.20" r="20.56" fill="#cccccc" stroke="#000000" stroke-width="1.00"/>
<circle cx="179.44" cy="98.65" r="20.56" fill="#cccccc" stroke="#000000" stroke-width="1.00"/>
<circle cx="326.00" cy="220.56" r="20.56" fill="#cccccc" stroke="#000000" stroke-width="1.00"/>
<circle cx="144.00" cy="32.89" r="20.56" fill="#cccccc" stroke="#000000" stroke-width="1.00"/>
<circle cx="349.86" cy="257.88" r="20.56" fill="#cccccc" stroke="#000000" stroke-width="1.00"/>
<circle cx="179.44" cy="53.72" r="20.56" fill="#cccccc" stroke="#000000" stroke-width="1.00"/>
<circle cx="367.11" cy="220.56" r="20.56" fill="#cccccc" stroke="#000000" stroke-width="1.00"/>
<circle cx="347.17" cy="331.15" r="20.56" fill="#cccccc" stroke="#000000" stroke-width="1.00"/>
<polygon points="12.33,387.67 387.67,387.67 387.67,200.00 200.00,200.00 200.00,12.33 12.33,12.33" fill="none" stroke="#000000" stroke-width="1.40"/>
</svg>