<svg xmlns="http://www.w3.org/2000/svg" width="400.0" height="400.0" viewBox="0 0 400.0 400.0">
<rect width="400.0" height="400.0" fill="white"/>
<circle cx="41.46" cy="367.41" r="20.37" fill="#cccccc" stroke="#000000" stroke-width="1.00"/>
<circle cx="32.59" cy="327.64" r="20.37" fill="#cccccc" stroke="#000000" stroke-width="1.00"/>
<circle cx="82.20" cy="367.41" r="20.37" fill="#cccccc" stroke="#000000" stroke-width="1.00"/>
<circle cx="68.91" cy="309.17" r="20.37" fill="#cccccc" stroke="#000000" stroke-width="1.00"/>
<circle cx="34.76" cy="286.95" r="20.37" fill="#cccccc" stroke="#000000" stroke-width="1.00"/>
<circle cx="122.95" cy="367.41" r="20.37" fill="#cccccc" stroke="#000000" stroke-width="1.00"/>
<circle cx="122.95" cy="296.84" r="20.37" fill="#cccccc" stroke="#000000" stroke-width="1.00"/>
<circle cx="88.67" cy="273.54" r="20.37" fill="#cccccc" stroke="#000000" stroke-width="1.00"/>
<circle cx="125.53" cy="256.17" r="20.37" fill="#cccccc" stroke="#000000" stroke-width="1.00"/>
<circle cx="32.59" cy="246.27" r="20.37" fill="#cccccc" stroke="#000000" stroke-width="1.00"/>
<circle cx="163.69" cy="367.41" r="20.37" fill="#cccccc" stroke="#000000" stroke-width="1.00"/>
<circle cx="72.10" cy="236.31" r="20.37" fill="#cccccc" stroke="#000000" stroke-width="1.00"/>
<circle cx="143.32" cy="332.12" r="20.37" fill="#cccccc" stroke="#000000" stroke-width="1.00"/>
<circle cx="108.08" cy="216.57" r="20.37" fill="#cccccc" stroke="#000000" stroke-width="1.00"/>
<circle cx="163.21" cy="289.18" r="20.37" fill="#cccccc" stroke="#000000" stroke-width="1.00"/>
<circle cx="204.43" cy="367.41" r="20.37" fill="#cccccc" stroke="#000000" stroke-width="1.00"/>
<circle cx="32.59" cy="205.52" r="20.37" fill="#cccccc" stroke="#000000" stroke-width="1.00"/>
<circle cx="184.06" cy="332.12" r="20.37" fill="#cccccc" stroke="#000000" stroke-width="1.00"/>
<circle cx="72.10" cy="195.57" r="20.37" fill="#cccccc" stroke="#000000" stroke-width="1.00"/>
<circle cx="158.86" cy="232.75" r="20.37" fill="#cccccc" stroke="#000000" stroke-width="1.00"/>
<circle cx="107.39" cy="175.20" r="20.37" fill="#cccccc" stroke="#000000" stroke-width="1.00"/>
<circle cx="204.43" cy="296.84" r="20.37" fill="#cccccc" stroke="#000000" stroke-width="1.00"/>
<circle cx="32.59" cy="164.78" r="20.37" fill="#cccccc" stroke="#000000" stroke-width="1.00"/>
<circle cx="245.18" cy="367.41" r="20.37" fill="#cccccc" stroke="#000000" stroke-width="1.00"/>
<circle cx="142.83" cy="195.29" r="20.37" fill="#cccccc" stroke="#000000" stroke-width="1.00"/>
<circle cx="190.35" cy="258.60" r="20.37" fill="#cccccc" stroke="#000000" stroke-width="1.00"/>
<circle cx="224.80" cy="332.12" r="20.37" fill="#cccccc" stroke="#000000" stroke-width="1.00"/>
<circle cx="72.10" cy="154.82" r="20.37" fill="#cccccc" stroke="#000000" stroke-width="1.00"/>
<circle cx="107.39" cy="134.45" r="20.37" fill="#cccccc" stroke="#000000" stroke-width="1.00"/>
<circle cx="245.18" cy="296.84" r="20.37" fill="#cccccc" stroke="#000000" stroke-width="1.00"/>
<circle cx="204.43" cy="220.37" r="20.37" fill="#cccccc" stroke="#000000" stroke-width="1.00"/>
<circle cx="231.09" cy="258.60" r="20.37" fill="#cccccc" stroke="#000000" stroke-width="1.00"/>
<circle cx="32.59" cy="124.04" r="20.37" fill="#cccccc" stroke="#000000" stroke-width="1.00"/>
<circle cx="146.08" cy="154.68" r="20.37" fill="#cccccc" stroke="#000000" stroke-width="1.00"/>
<circle cx="285.92" cy="367.41" r="20.37" fill="#cccccc" stroke="#000000" stroke-width="1.00"/>
<circle cx="265.55" cy="332.12" r="20.37" fill="#cccccc" stroke="#000000" stroke-width="1.00"/>
<circle cx="72.10" cy="114.08" r="20.37" fill="#cccccc" stroke="#000000" stroke-width="1.00"/>
<circle cx="285.92" cy="296.84" r="20.37" fill="#cccccc" stroke="#000000" stroke-width="1.00"/>
<circle cx="107.39" cy="93.71" r="20.37" fill="#cccccc" stroke="#000000" stroke-width="1.00"/>
<circle cx="245.18" cy="220.37" r="20.37" fill="#cccccc" stroke="#000000" stroke-width="1.00"/>
<circle cx="179.63" cy="177.81" r="20.37" fill="#cccccc" stroke="#000000" stroke-width="1.00"/>
<circle cx="142.67" cy="114.08" r="20.37" fill="#cccccc" stroke="#000000" stroke-width="1.00"/>
<circle cx="271.84" cy="258.60" r="20.37" fill="#cccccc" stroke="#000000" stroke-width="1.00"/>
<circle cx="32.59" cy="83.29" r="20.37" fill="#cccccc" stroke="#000000" stroke-width="1.00"/>
<circle cx="326.66" cy="367.41" r="20.37" fill="#cccccc" stroke="#000000" stroke-width="1.00"/>
<circle cx="72.10" cy="73.34" r="20.37" fill="#cccccc" stroke="#000000" stroke-width="1.00"/>
<circle cx="306.29" cy="332.12" r="20.37" fill="#cccccc" stroke="#000000" stroke-width="1.00"/>
<circle cx="326.66" cy="296.84" r="20.37" fill="#cccccc" stroke="#000000" stroke-width="1.00"/>
<circle cx="285.92" cy="220.37" r="20.37" fill="#cccccc" stroke="#000000" stroke-width="1.00"/>
<circle cx="179.63" cy="131.55" r="20.37" fill="#cccccc" stroke="#000000" stroke-width="1.00"/>
<circle cx="107.54" cy="52.97" r="20.37" fill="#cccccc" stroke="#000000" stroke-width="1.00"/>
<circle cx="312.58" cy="258.60" r="20.37" fill="#cccccc" stroke="#000000" stroke-width="1.00"/>
<circle cx="142.82" cy="73.34" r="20.37" fill="#cccccc" stroke="#000000" stroke-width="1.00"/>
<circle cx="32.59" cy="42.43" r="20.37" fill="#cccccc" stroke="#000000" stroke-width="1.00"/>
<circle cx="367.41" cy="367.41" r="20.37" fill="#cccccc" stroke="#000000" stroke-width="1.00"/>
<circle cx="72.25" cy="32.59" r="20.37" fill="#cccccc" stroke="#000000" stroke-width="1.00"/>
<circle cx="367.41" cy="296.84" r="20.37" fill="#cccccc" stroke="#000000" stroke-width="1.00"/>
<circle cx="179.63" cy="90.81" r="20.37" fill="#cccccc" stroke="#000000" stroke-width="1.00"/>
<circle cx="326.66" cy="220.37" r="20.37" fill="#cccccc" stroke="#000000" stroke-width="1.00"/>
<circle cx="142.82" cy="32.59" r="20.37" fill="#cccccc" stroke="#000000" stroke-width="1.00"/>
<circle cx="353.32" cy="258.60" r="20.37" fill="#cccccc" stroke="#000000" stroke-width="1.00"/>
<circle cx="179.63" cy="50.07" r="20.37" fill="#cccccc" stroke="#000000" stroke-width="1.00"/>
<circle cx="367.41" cy="220.37" r="20.37" fill="#cccccc" stroke="#000000" stroke-width="1.00"/>
<circle cx="347.03" cy="332.12" r="20.37" fill="#cccccc" stroke="#000000" stroke-width="1.00"/>
<circle cx="102.57" cy="332.12" r="20.37" fill="#cccccc" stroke="#000000" stroke-width="1.00"/>
<polygon points="12.22,387.78 387.78,387.78 387.78,200.00 200.00,200.00 200.00,12.22 12.22,12.22" fill="none" stroke="#000000" stroke-width="1.40"/>
</svg>