<svg xmlns="http://www.w3.org/2000/svg" width="400.0" height="400.0" viewBox="0 0 400.0 400.0">
<rect width="400.0" height="400.0" fill="white"/>
<circle cx="44.33" cy="367.64" r="20.23" fill="#cccccc" stroke="#000000" stroke-width="1.00"/>
<circle cx="32.36" cy="328.99" r="20.23" fill="#cccccc" stroke="#000000" stroke-width="1.00"/>
<circle cx="84.78" cy="367.64" r="20.23" fill="#cccccc" stroke="#000000" stroke-width="1.00"/>
<circle cx="70.28" cy="314.88" r="20.23" fill="#cccccc" stroke="#000000" stroke-width="1.00"/>
<circle cx="32.36" cy="288.54" r="20.23" fill="#cccccc" stroke="#000000" stroke-width="1.00"/>
<circle cx="125.23" cy="367.64" r="20.23" fill="#cccccc" stroke="#000000" stroke-width="1.00"/>
<circle cx="119.97" cy="292.40" r="20.23" fill="#cccccc" stroke="#000000" stroke-width="1.00"/>
<circle cx="70.28" cy="274.43" r="20.23" fill="#cccccc" stroke="#000000" stroke-width="1.00"/>
<circle cx="105.52" cy="254.57" r="20.23" fill="#cccccc" stroke="#000000" stroke-width="1.00"/>
<circle cx="32.36" cy="248.09" r="20.23" fill="#cccccc" stroke="#000000" stroke-width="1.00"/>
<circle cx="165.69" cy="367.64" r="20.23" fill="#cccccc" stroke="#000000" stroke-width="1.00"/>
<circle cx="70.28" cy="233.97" r="20.23" fill="#cccccc" stroke="#000000" stroke-width="1.00"/>
<circle cx="147.64" cy="331.43" r="20.23" fill="#cccccc" stroke="#000000" stroke-width="1.00"/>
<circle cx="105.52" cy="214.12" r="20.23" fill="#cccccc" stroke="#000000" stroke-width="1.00"/>
<circle cx="166.17" cy="295.47" r="20.23" fill="#cccccc" stroke="#000000" stroke-width="1.00"/>
<circle cx="206.14" cy="367.64" r="20.23" fill="#cccccc" stroke="#000000" stroke-width="1.00"/>
<circle cx="32.36" cy="207.63" r="20.23" fill="#cccccc" stroke="#000000" stroke-width="1.00"/>
<circle cx="188.10" cy="331.43" r="20.23" fill="#cccccc" stroke="#000000" stroke-width="1.00"/>
<circle cx="70.28" cy="193.52" r="20.23" fill="#cccccc" stroke="#000000" stroke-width="1.00"/>
<circle cx="145.51" cy="260.69" r="20.23" fill="#cccccc" stroke="#000000" stroke-width="1.00"/>
<circle cx="105.52" cy="173.67" r="20.23" fill="#cccccc" stroke="#000000" stroke-width="1.00"/>
<circle cx="206.62" cy="295.47" r="20.23" fill="#cccccc" stroke="#000000" stroke-width="1.00"/>
<circle cx="32.36" cy="167.18" r="20.23" fill="#cccccc" stroke="#000000" stroke-width="1.00"/>
<circle cx="246.55" cy="365.70" r="20.23" fill="#cccccc" stroke="#000000" stroke-width="1.00"/>
<circle cx="140.60" cy="193.96" r="20.23" fill="#cccccc" stroke="#000000" stroke-width="1.00"/>
<circle cx="186.40" cy="260.44" r="20.23" fill="#cccccc" stroke="#000000" stroke-width="1.00"/>
<circle cx="228.50" cy="329.50" r="20.23" fill="#cccccc" stroke="#000000" stroke-width="1.00"/>
<circle cx="70.28" cy="153.07" r="20.23" fill="#cccccc" stroke="#000000" stroke-width="1.00"/>
<circle cx="109.66" cy="133.43" r="20.23" fill="#cccccc" stroke="#000000" stroke-width="1.00"/>
<circle cx="246.78" cy="290.58" r="20.23" fill="#cccccc" stroke="#000000" stroke-width="1.00"/>
<circle cx="205.82" cy="220.23" r="20.23" fill="#cccccc" stroke="#000000" stroke-width="1.00"/>
<circle cx="226.55" cy="255.55" r="20.23" fill="#cccccc" stroke="#000000" stroke-width="1.00"/>
<circle cx="36.51" cy="126.94" r="20.23" fill="#cccccc" stroke="#000000" stroke-width="1.00"/>
<circle cx="144.74" cy="153.72" r="20.23" fill="#cccccc" stroke="#000000" stroke-width="1.00"/>
<circle cx="286.95" cy="367.64" r="20.23" fill="#cccccc" stroke="#000000" stroke-width="1.00"/>
<circle cx="268.91" cy="331.43" r="20.23" fill="#cccccc" stroke="#000000" stroke-width="1.00"/>
<circle cx="74.42" cy="112.83" r="20.23" fill="#cccccc" stroke="#000000" stroke-width="1.00"/>
<circle cx="286.97" cy="295.23" r="20.23" fill="#cccccc" stroke="#000000" stroke-width="1.00"/>
<circle cx="109.66" cy="92.97" r="20.23" fill="#cccccc" stroke="#000000" stroke-width="1.00"/>
<circle cx="246.28" cy="220.23" r="20.23" fill="#cccccc" stroke="#000000" stroke-width="1.00"/>
<circle cx="179.10" cy="175.81" r="20.23" fill="#cccccc" stroke="#000000" stroke-width="1.00"/>
<circle cx="144.74" cy="113.27" r="20.23" fill="#cccccc" stroke="#000000" stroke-width="1.00"/>
<circle cx="267.01" cy="255.55" r="20.23" fill="#cccccc" stroke="#000000" stroke-width="1.00"/>
<circle cx="32.36" cy="86.70" r="20.23" fill="#cccccc" stroke="#000000" stroke-width="1.00"/>
<circle cx="327.41" cy="367.64" r="20.23" fill="#cccccc" stroke="#000000" stroke-width="1.00"/>
<circle cx="70.28" cy="72.59" r="20.23" fill="#cccccc" stroke="#000000" stroke-width="1.00"/>
<circle cx="309.29" cy="328.97" r="20.23" fill="#cccccc" stroke="#000000" stroke-width="1.00"/>
<circle cx="327.18" cy="290.87" r="20.23" fill="#cccccc" stroke="#000000" stroke-width="1.00"/>
<circle cx="286.73" cy="220.23" r="20.23" fill="#cccccc" stroke="#000000" stroke-width="1.00"/>
<circle cx="179.77" cy="133.50" r="20.23" fill="#cccccc" stroke="#000000" stroke-width="1.00"/>
<circle cx="109.66" cy="52.52" r="20.23" fill="#cccccc" stroke="#000000" stroke-width="1.00"/>
<circle cx="307.46" cy="255.55" r="20.23" fill="#cccccc" stroke="#000000" stroke-width="1.00"/>
<circle cx="144.74" cy="72.82" r="20.23" fill="#cccccc" stroke="#000000" stroke-width="1.00"/>
<circle cx="33.23" cy="43.58" r="20.23" fill="#cccccc" stroke="#000000" stroke-width="1.00"/>
<circle cx="367.64" cy="363.39" r="20.23" fill="#cccccc" stroke="#000000" stroke-width="1.00"/>
<circle cx="74.59" cy="32.36" r="20.23" fill="#cccccc" stroke="#000000" stroke-width="1.00"/>
<circle cx="367.64" cy="290.87" r="20.23" fill="#cccccc" stroke="#000000" stroke-width="1.00"/>
<circle cx="179.77" cy="93.04" r="20.23" fill="#cccccc" stroke="#000000" stroke-width="1.00"/>
<circle cx="327.18" cy="220.23" r="20.23" fill="#cccccc" stroke="#000000" stroke-width="1.00"/>
<circle cx="144.74" cy="32.36" r="20.23" fill="#cccccc" stroke="#000000" stroke-width="1.00"/>
<circle cx="347.91" cy="255.55" r="20.23" fill="#cccccc" stroke="#000000" stroke-width="1.00"/>
<circle cx="179.77" cy="52.59" r="20.23" fill="#cccccc" stroke="#000000" stroke-width="1.00"/>
<circle cx="367.64" cy="220.23" r="20.23" fill="#cccccc" stroke="#000000" stroke-width="1.00"/>
<circle cx="349.70" cy="327.13" r="20.23" fill="#cccccc" stroke="#000000" stroke-width="1.00"/>
<circle cx="107.19" cy="331.43" r="20.23" fill="#cccccc" stroke="#000000" stroke-width="1.00"/>
<circle cx="165.74" cy="225.66" r="20.23" fill="#cccccc" stroke="#000000" stroke-width="1.00"/>
<polygon points="12.14,387.86 387.86,387.86 387.86,200.00 200.00,200.00 200.00,12.14 12.14,12.14" fill="none" stroke="#000000" stroke-width="1.40"/>
</svg>