<svg xmlns="http://www.w3.org/2000/svg" width="400.0" height="400.0" viewBox="0 0 400.0 400.0">
<rect width="400.0" height="400.0" fill="white"/>
<circle cx="101.76" cy="152.72" r="20.09" fill="#cccccc" stroke="#000000" stroke-width="1.00"/>
<circle cx="287.51" cy="367.85" r="20.09" fill="#cccccc" stroke="#000000" stroke-width="1.00"/>
<circle cx="179.38" cy="192.91" r="20.09" fill="#cccccc" stroke="#000000" stroke-width="1.00"/>
<circle cx="32.15" cy="367.85" r="20.09" fill="#cccccc" stroke="#000000" stroke-width="1.00"/>
<circle cx="274.89" cy="260.08" r="20.09" fill="#cccccc" stroke="#000000" stroke-width="1.00"/>
<circle cx="194.59" cy="260.05" r="20.09" fill="#cccccc" stroke="#000000" stroke-width="1.00"/>
<circle cx="247.32" cy="296.86" r="20.09" fill="#cccccc" stroke="#000000" stroke-width="1.00"/>
<circle cx="32.15" cy="233.10" r="20.09" fill="#cccccc" stroke="#000000" stroke-width="1.00"/>
<circle cx="267.42" cy="333.04" r="20.09" fill="#cccccc" stroke="#000000" stroke-width="1.00"/>
<circle cx="78.07" cy="304.30" r="20.09" fill="#cccccc" stroke="#000000" stroke-width="1.00"/>
<circle cx="327.70" cy="367.85" r="20.09" fill="#cccccc" stroke="#000000" stroke-width="1.00"/>
<circle cx="113.66" cy="232.41" r="20.09" fill="#cccccc" stroke="#000000" stroke-width="1.00"/>
<circle cx="32.15" cy="32.15" r="20.09" fill="#cccccc" stroke="#000000" stroke-width="1.00"/>
<circle cx="234.74" cy="258.25" r="20.09" fill="#cccccc" stroke="#000000" stroke-width="1.00"/>
<circle cx="66.96" cy="132.63" r="20.09" fill="#cccccc" stroke="#000000" stroke-width="1.00"/>
<circle cx="165.84" cy="297.28" r="20.09" fill="#cccccc" stroke="#000000" stroke-width="1.00"/>
<circle cx="32.15" cy="72.34" r="20.09" fill="#cccccc" stroke="#000000" stroke-width="1.00"/>
<circle cx="66.96" cy="92.44" r="20.09" fill="#cccccc" stroke="#000000" stroke-width="1.00"/>
<circle cx="72.34" cy="367.85" r="20.09" fill="#cccccc" stroke="#000000" stroke-width="1.00"/>
<circle cx="66.96" cy="52.25" r="20.09" fill="#cccccc" stroke="#000000" stroke-width="1.00"/>
<circle cx="140.83" cy="41.57" r="20.09" fill="#cccccc" stroke="#000000" stroke-width="1.00"/>
<circle cx="32.15" cy="192.91" r="20.09" fill="#cccccc" stroke="#000000" stroke-width="1.00"/>
<circle cx="47.94" cy="330.89" r="20.09" fill="#cccccc" stroke="#000000" stroke-width="1.00"/>
<circle cx="140.83" cy="81.76" r="20.09" fill="#cccccc" stroke="#000000" stroke-width="1.00"/>
<circle cx="179.91" cy="112.53" r="20.09" fill="#cccccc" stroke="#000000" stroke-width="1.00"/>
<circle cx="207.13" cy="367.85" r="20.09" fill="#cccccc" stroke="#000000" stroke-width="1.00"/>
<circle cx="179.91" cy="32.15" r="20.09" fill="#cccccc" stroke="#000000" stroke-width="1.00"/>
<circle cx="32.15" cy="112.53" r="20.09" fill="#cccccc" stroke="#000000" stroke-width="1.00"/>
<circle cx="327.66" cy="296.41" r="20.09" fill="#cccccc" stroke="#000000" stroke-width="1.00"/>
<circle cx="101.76" cy="32.15" r="20.09" fill="#cccccc" stroke="#000000" stroke-width="1.00"/>
<circle cx="126.75" cy="367.85" r="20.09" fill="#cccccc" stroke="#000000" stroke-width="1.00"/>
<circle cx="119.64" cy="303.46" r="20.09" fill="#cccccc" stroke="#000000" stroke-width="1.00"/>
<circle cx="138.32" cy="267.88" r="20.09" fill="#cccccc" stroke="#000000" stroke-width="1.00"/>
<circle cx="179.91" cy="152.72" r="20.09" fill="#cccccc" stroke="#000000" stroke-width="1.00"/>
<circle cx="367.85" cy="366.02" r="20.09" fill="#cccccc" stroke="#000000" stroke-width="1.00"/>
<circle cx="140.83" cy="162.14" r="20.09" fill="#cccccc" stroke="#000000" stroke-width="1.00"/>
<circle cx="207.13" cy="298.24" r="20.09" fill="#cccccc" stroke="#000000" stroke-width="1.00"/>
<circle cx="227.23" cy="333.04" r="20.09" fill="#cccccc" stroke="#000000" stroke-width="1.00"/>
<circle cx="58.42" cy="263.51" r="20.09" fill="#cccccc" stroke="#000000" stroke-width="1.00"/>
<circle cx="32.15" cy="293.93" r="20.09" fill="#cccccc" stroke="#000000" stroke-width="1.00"/>
<circle cx="166.94" cy="367.85" r="20.09" fill="#cccccc" stroke="#000000" stroke-width="1.00"/>
<circle cx="146.85" cy="333.04" r="20.09" fill="#cccccc" stroke="#000000" stroke-width="1.00"/>
<circle cx="187.04" cy="333.04" r="20.09" fill="#cccccc" stroke="#000000" stroke-width="1.00"/>
<circle cx="140.31" cy="202.32" r="20.09" fill="#cccccc" stroke="#000000" stroke-width="1.00"/>
<circle cx="327.66" cy="220.09" r="20.09" fill="#cccccc" stroke="#000000" stroke-width="1.00"/>
<circle cx="73.83" cy="225.33" r="20.09" fill="#cccccc" stroke="#000000" stroke-width="1.00"/>
<circle cx="140.83" cy="121.95" r="20.09" fill="#cccccc" stroke="#000000" stroke-width="1.00"/>
<circle cx="66.96" cy="172.82" r="20.09" fill="#cccccc" stroke="#000000" stroke-width="1.00"/>
<circle cx="207.21" cy="221.90" r="20.09" fill="#cccccc" stroke="#000000" stroke-width="1.00"/>
<circle cx="367.85" cy="220.09" r="20.09" fill="#cccccc" stroke="#000000" stroke-width="1.00"/>
<circle cx="315.03" cy="258.25" r="20.09" fill="#cccccc" stroke="#000000" stroke-width="1.00"/>
<circle cx="179.91" cy="72.34" r="20.09" fill="#cccccc" stroke="#000000" stroke-width="1.00"/>
<circle cx="347.75" cy="331.21" r="20.09" fill="#cccccc" stroke="#000000" stroke-width="1.00"/>
<circle cx="101.76" cy="112.53" r="20.09" fill="#cccccc" stroke="#000000" stroke-width="1.00"/>
<circle cx="247.32" cy="367.85" r="20.09" fill="#cccccc" stroke="#000000" stroke-width="1.00"/>
<circle cx="355.22" cy="258.25" r="20.09" fill="#cccccc" stroke="#000000" stroke-width="1.00"/>
<circle cx="98.17" cy="269.49" r="20.09" fill="#cccccc" stroke="#000000" stroke-width="1.00"/>
<circle cx="287.51" cy="298.24" r="20.09" fill="#cccccc" stroke="#000000" stroke-width="1.00"/>
<circle cx="32.15" cy="152.72" r="20.09" fill="#cccccc" stroke="#000000" stroke-width="1.00"/>
<circle cx="367.85" cy="296.41" r="20.09" fill="#cccccc" stroke="#000000" stroke-width="1.00"/>
<circle cx="162.54" cy="235.80" r="20.09" fill="#cccccc" stroke="#000000" stroke-width="1.00"/>
<circle cx="100.93" cy="194.29" r="20.09" fill="#cccccc" stroke="#000000" stroke-width="1.00"/>
<circle cx="247.36" cy="220.09" r="20.09" fill="#cccccc" stroke="#000000" stroke-width="1.00"/>
<circle cx="287.51" cy="221.93" r="20.09" fill="#cccccc" stroke="#000000" stroke-width="1.00"/>
<circle cx="307.61" cy="333.04" r="20.09" fill="#cccccc" stroke="#000000" stroke-width="1.00"/>
<circle cx="99.55" cy="338.27" r="20.09" fill="#cccccc" stroke="#000000" stroke-width="1.00"/>
<circle cx="101.76" cy="72.34" r="20.09" fill="#cccccc" stroke="#000000" stroke-width="1.00"/>
<polygon points="12.06,387.94 387.94,387.94 387.94,200.00 200.00,200.00 200.00,12.06 12.06,12.06" fill="none" stroke="#000000" stroke-width="1.40"/>
</svg>