<svg xmlns="http://www.w3.org/2000/svg" width="400.0" height="400.0" viewBox="0 0 400.0 400.0">
<rect width="400.0" height="400.0" fill="white"/>
<circle cx="101.34" cy="152.09" r="20.01" fill="#cccccc" stroke="#000000" stroke-width="1.00"/>
<circle cx="289.11" cy="367.98" r="20.01" fill="#cccccc" stroke="#000000" stroke-width="1.00"/>
<circle cx="179.99" cy="192.12" r="20.01" fill="#cccccc" stroke="#000000" stroke-width="1.00"/>
<circle cx="32.87" cy="362.61" r="20.01" fill="#cccccc" stroke="#000000" stroke-width="1.00"/>
<circle cx="267.69" cy="259.50" r="20.01" fill="#cccccc" stroke="#000000" stroke-width="1.00"/>
<circle cx="188.73" cy="264.18" r="20.01" fill="#cccccc" stroke="#000000" stroke-width="1.00"/>
<circle cx="248.90" cy="294.84" r="20.01" fill="#cccccc" stroke="#000000" stroke-width="1.00"/>
<circle cx="32.02" cy="232.14" r="20.01" fill="#cccccc" stroke="#000000" stroke-width="1.00"/>
<circle cx="269.09" cy="333.32" r="20.01" fill="#cccccc" stroke="#000000" stroke-width="1.00"/>
<circle cx="72.01" cy="293.62" r="20.01" fill="#cccccc" stroke="#000000" stroke-width="1.00"/>
<circle cx="329.13" cy="367.98" r="20.01" fill="#cccccc" stroke="#000000" stroke-width="1.00"/>
<circle cx="114.54" cy="229.90" r="20.01" fill="#cccccc" stroke="#000000" stroke-width="1.00"/>
<circle cx="32.02" cy="32.02" r="20.01" fill="#cccccc" stroke="#000000" stroke-width="1.00"/>
<circle cx="227.84" cy="255.70" r="20.01" fill="#cccccc" stroke="#000000" stroke-width="1.00"/>
<circle cx="66.68" cy="132.08" r="20.01" fill="#cccccc" stroke="#000000" stroke-width="1.00"/>
<circle cx="168.71" cy="298.84" r="20.01" fill="#cccccc" stroke="#000000" stroke-width="1.00"/>
<circle cx="32.02" cy="72.04" r="20.01" fill="#cccccc" stroke="#000000" stroke-width="1.00"/>
<circle cx="66.68" cy="92.06" r="20.01" fill="#cccccc" stroke="#000000" stroke-width="1.00"/>
<circle cx="88.35" cy="367.98" r="20.01" fill="#cccccc" stroke="#000000" stroke-width="1.00"/>
<circle cx="66.68" cy="52.03" r="20.01" fill="#cccccc" stroke="#000000" stroke-width="1.00"/>
<circle cx="140.67" cy="39.49" r="20.01" fill="#cccccc" stroke="#000000" stroke-width="1.00"/>
<circle cx="32.02" cy="192.12" r="20.01" fill="#cccccc" stroke="#000000" stroke-width="1.00"/>
<circle cx="68.11" cy="333.45" r="20.01" fill="#cccccc" stroke="#000000" stroke-width="1.00"/>
<circle cx="140.67" cy="79.51" r="20.01" fill="#cccccc" stroke="#000000" stroke-width="1.00"/>
<circle cx="179.99" cy="112.07" r="20.01" fill="#cccccc" stroke="#000000" stroke-width="1.00"/>
<circle cx="209.06" cy="367.98" r="20.01" fill="#cccccc" stroke="#000000" stroke-width="1.00"/>
<circle cx="179.99" cy="32.02" r="20.01" fill="#cccccc" stroke="#000000" stroke-width="1.00"/>
<circle cx="32.02" cy="112.07" r="20.01" fill="#cccccc" stroke="#000000" stroke-width="1.00"/>
<circle cx="327.69" cy="289.18" r="20.01" fill="#cccccc" stroke="#000000" stroke-width="1.00"/>
<circle cx="101.34" cy="32.02" r="20.01" fill="#cccccc" stroke="#000000" stroke-width="1.00"/>
<circle cx="128.38" cy="367.98" r="20.01" fill="#cccccc" stroke="#000000" stroke-width="1.00"/>
<circle cx="128.69" cy="298.84" r="20.01" fill="#cccccc" stroke="#000000" stroke-width="1.00"/>
<circle cx="142.34" cy="261.22" r="20.01" fill="#cccccc" stroke="#000000" stroke-width="1.00"/>
<circle cx="179.99" cy="152.09" r="20.01" fill="#cccccc" stroke="#000000" stroke-width="1.00"/>
<circle cx="367.98" cy="358.36" r="20.01" fill="#cccccc" stroke="#000000" stroke-width="1.00"/>
<circle cx="140.67" cy="159.56" r="20.01" fill="#cccccc" stroke="#000000" stroke-width="1.00"/>
<circle cx="209.06" cy="298.66" r="20.01" fill="#cccccc" stroke="#000000" stroke-width="1.00"/>
<circle cx="229.07" cy="333.32" r="20.01" fill="#cccccc" stroke="#000000" stroke-width="1.00"/>
<circle cx="65.46" cy="254.13" r="20.01" fill="#cccccc" stroke="#000000" stroke-width="1.00"/>
<circle cx="32.02" cy="316.15" r="20.01" fill="#cccccc" stroke="#000000" stroke-width="1.00"/>
<circle cx="169.03" cy="367.98" r="20.01" fill="#cccccc" stroke="#000000" stroke-width="1.00"/>
<circle cx="148.70" cy="333.50" r="20.01" fill="#cccccc" stroke="#000000" stroke-width="1.00"/>
<circle cx="189.04" cy="333.32" r="20.01" fill="#cccccc" stroke="#000000" stroke-width="1.00"/>
<circle cx="140.67" cy="199.58" r="20.01" fill="#cccccc" stroke="#000000" stroke-width="1.00"/>
<circle cx="327.43" cy="220.01" r="20.01" fill="#cccccc" stroke="#000000" stroke-width="1.00"/>
<circle cx="67.81" cy="214.09" r="20.01" fill="#cccccc" stroke="#000000" stroke-width="1.00"/>
<circle cx="140.67" cy="119.53" r="20.01" fill="#cccccc" stroke="#000000" stroke-width="1.00"/>
<circle cx="66.68" cy="172.11" r="20.01" fill="#cccccc" stroke="#000000" stroke-width="1.00"/>
<circle cx="207.38" cy="221.30" r="20.01" fill="#cccccc" stroke="#000000" stroke-width="1.00"/>
<circle cx="367.98" cy="220.01" r="20.01" fill="#cccccc" stroke="#000000" stroke-width="1.00"/>
<circle cx="307.42" cy="254.67" r="20.01" fill="#cccccc" stroke="#000000" stroke-width="1.00"/>
<circle cx="179.99" cy="72.04" r="20.01" fill="#cccccc" stroke="#000000" stroke-width="1.00"/>
<circle cx="347.97" cy="323.69" r="20.01" fill="#cccccc" stroke="#000000" stroke-width="1.00"/>
<circle cx="101.34" cy="112.07" r="20.01" fill="#cccccc" stroke="#000000" stroke-width="1.00"/>
<circle cx="249.08" cy="367.98" r="20.01" fill="#cccccc" stroke="#000000" stroke-width="1.00"/>
<circle cx="347.71" cy="254.52" r="20.01" fill="#cccccc" stroke="#000000" stroke-width="1.00"/>
<circle cx="102.93" cy="268.21" r="20.01" fill="#cccccc" stroke="#000000" stroke-width="1.00"/>
<circle cx="288.76" cy="298.46" r="20.01" fill="#cccccc" stroke="#000000" stroke-width="1.00"/>
<circle cx="32.02" cy="152.09" r="20.01" fill="#cccccc" stroke="#000000" stroke-width="1.00"/>
<circle cx="367.98" cy="289.03" r="20.01" fill="#cccccc" stroke="#000000" stroke-width="1.00"/>
<circle cx="167.61" cy="230.18" r="20.01" fill="#cccccc" stroke="#000000" stroke-width="1.00"/>
<circle cx="101.34" cy="192.12" r="20.01" fill="#cccccc" stroke="#000000" stroke-width="1.00"/>
<circle cx="247.38" cy="220.01" r="20.01" fill="#cccccc" stroke="#000000" stroke-width="1.00"/>
<circle cx="287.41" cy="220.01" r="20.01" fill="#cccccc" stroke="#000000" stroke-width="1.00"/>
<circle cx="309.12" cy="333.32" r="20.01" fill="#cccccc" stroke="#000000" stroke-width="1.00"/>
<circle cx="108.13" cy="333.19" r="20.01" fill="#cccccc" stroke="#000000" stroke-width="1.00"/>
<circle cx="101.34" cy="72.04" r="20.01" fill="#cccccc" stroke="#000000" stroke-width="1.00"/>
<circle cx="32.02" cy="276.12" r="20.01" fill="#cccccc" stroke="#000000" stroke-width="1.00"/>
<polygon points="12.01,387.99 387.99,387.99 387.99,200.00 200.00,200.00 200.00,12.01 12.01,12.01" fill="none" stroke="#000000" stroke-width="1.40"/>
</svg>