<svg xmlns="http://www.w3.org/2000/svg" width="400.0" height="400.0" viewBox="0 0 400.0 400.0">
<rect width="400.0" height="400.0" fill="white"/>
<circle cx="110.69" cy="110.54" r="19.90" fill="#cccccc" stroke="#000000" stroke-width="1.00"/>
<circle cx="244.42" cy="368.16" r="19.90" fill="#cccccc" stroke="#000000" stroke-width="1.00"/>
<circle cx="169.84" cy="229.42" r="19.90" fill="#cccccc" stroke="#000000" stroke-width="1.00"/>
<circle cx="76.05" cy="90.34" r="19.90" fill="#cccccc" stroke="#000000" stroke-width="1.00"/>
<circle cx="31.84" cy="308.84" r="19.90" fill="#cccccc" stroke="#000000" stroke-width="1.00"/>
<circle cx="208.49" cy="219.90" r="19.90" fill="#cccccc" stroke="#000000" stroke-width="1.00"/>
<circle cx="348.20" cy="254.34" r="19.90" fill="#cccccc" stroke="#000000" stroke-width="1.00"/>
<circle cx="135.48" cy="368.16" r="19.90" fill="#cccccc" stroke="#000000" stroke-width="1.00"/>
<circle cx="368.16" cy="219.90" r="19.90" fill="#cccccc" stroke="#000000" stroke-width="1.00"/>
<circle cx="139.05" cy="42.80" r="19.90" fill="#cccccc" stroke="#000000" stroke-width="1.00"/>
<circle cx="284.23" cy="368.16" r="19.90" fill="#cccccc" stroke="#000000" stroke-width="1.00"/>
<circle cx="288.32" cy="219.90" r="19.90" fill="#cccccc" stroke="#000000" stroke-width="1.00"/>
<circle cx="31.84" cy="148.84" r="19.90" fill="#cccccc" stroke="#000000" stroke-width="1.00"/>
<circle cx="368.16" cy="288.78" r="19.90" fill="#cccccc" stroke="#000000" stroke-width="1.00"/>
<circle cx="248.40" cy="288.78" r="19.90" fill="#cccccc" stroke="#000000" stroke-width="1.00"/>
<circle cx="110.69" cy="70.74" r="19.90" fill="#cccccc" stroke="#000000" stroke-width="1.00"/>
<circle cx="328.24" cy="219.90" r="19.90" fill="#cccccc" stroke="#000000" stroke-width="1.00"/>
<circle cx="31.84" cy="71.65" r="19.90" fill="#cccccc" stroke="#000000" stroke-width="1.00"/>
<circle cx="180.10" cy="190.96" r="19.90" fill="#cccccc" stroke="#000000" stroke-width="1.00"/>
<circle cx="76.05" cy="130.15" r="19.90" fill="#cccccc" stroke="#000000" stroke-width="1.00"/>
<circle cx="145.17" cy="90.64" r="19.90" fill="#cccccc" stroke="#000000" stroke-width="1.00"/>
<circle cx="144.74" cy="170.39" r="19.90" fill="#cccccc" stroke="#000000" stroke-width="1.00"/>
<circle cx="179.60" cy="151.16" r="19.90" fill="#cccccc" stroke="#000000" stroke-width="1.00"/>
<circle cx="66.54" cy="368.16" r="19.90" fill="#cccccc" stroke="#000000" stroke-width="1.00"/>
<circle cx="66.32" cy="51.75" r="19.90" fill="#cccccc" stroke="#000000" stroke-width="1.00"/>
<circle cx="31.84" cy="31.84" r="19.90" fill="#cccccc" stroke="#000000" stroke-width="1.00"/>
<circle cx="328.35" cy="328.59" r="19.90" fill="#cccccc" stroke="#000000" stroke-width="1.00"/>
<circle cx="208.94" cy="328.59" r="19.90" fill="#cccccc" stroke="#000000" stroke-width="1.00"/>
<circle cx="66.54" cy="328.35" r="19.90" fill="#cccccc" stroke="#000000" stroke-width="1.00"/>
<circle cx="328.24" cy="288.78" r="19.90" fill="#cccccc" stroke="#000000" stroke-width="1.00"/>
<circle cx="101.01" cy="228.84" r="19.90" fill="#cccccc" stroke="#000000" stroke-width="1.00"/>
<circle cx="288.55" cy="328.59" r="19.90" fill="#cccccc" stroke="#000000" stroke-width="1.00"/>
<circle cx="41.58" cy="110.24" r="19.90" fill="#cccccc" stroke="#000000" stroke-width="1.00"/>
<circle cx="135.59" cy="209.13" r="19.90" fill="#cccccc" stroke="#000000" stroke-width="1.00"/>
<circle cx="66.32" cy="208.55" r="19.90" fill="#cccccc" stroke="#000000" stroke-width="1.00"/>
<circle cx="31.84" cy="228.45" r="19.90" fill="#cccccc" stroke="#000000" stroke-width="1.00"/>
<circle cx="170.05" cy="348.42" r="19.90" fill="#cccccc" stroke="#000000" stroke-width="1.00"/>
<circle cx="208.49" cy="288.78" r="19.90" fill="#cccccc" stroke="#000000" stroke-width="1.00"/>
<circle cx="308.28" cy="254.34" r="19.90" fill="#cccccc" stroke="#000000" stroke-width="1.00"/>
<circle cx="177.32" cy="31.84" r="19.90" fill="#cccccc" stroke="#000000" stroke-width="1.00"/>
<circle cx="174.09" cy="308.82" r="19.90" fill="#cccccc" stroke="#000000" stroke-width="1.00"/>
<circle cx="135.26" cy="249.14" r="19.90" fill="#cccccc" stroke="#000000" stroke-width="1.00"/>
<circle cx="31.84" cy="188.65" r="19.90" fill="#cccccc" stroke="#000000" stroke-width="1.00"/>
<circle cx="100.56" cy="268.65" r="19.90" fill="#cccccc" stroke="#000000" stroke-width="1.00"/>
<circle cx="135.48" cy="328.35" r="19.90" fill="#cccccc" stroke="#000000" stroke-width="1.00"/>
<circle cx="228.44" cy="254.34" r="19.90" fill="#cccccc" stroke="#000000" stroke-width="1.00"/>
<circle cx="66.32" cy="248.35" r="19.90" fill="#cccccc" stroke="#000000" stroke-width="1.00"/>
<circle cx="145.24" cy="130.59" r="19.90" fill="#cccccc" stroke="#000000" stroke-width="1.00"/>
<circle cx="31.84" cy="348.65" r="19.90" fill="#cccccc" stroke="#000000" stroke-width="1.00"/>
<circle cx="173.94" cy="269.01" r="19.90" fill="#cccccc" stroke="#000000" stroke-width="1.00"/>
<circle cx="268.36" cy="254.34" r="19.90" fill="#cccccc" stroke="#000000" stroke-width="1.00"/>
<circle cx="100.79" cy="31.84" r="19.90" fill="#cccccc" stroke="#000000" stroke-width="1.00"/>
<circle cx="101.01" cy="348.25" r="19.90" fill="#cccccc" stroke="#000000" stroke-width="1.00"/>
<circle cx="101.01" cy="308.45" r="19.90" fill="#cccccc" stroke="#000000" stroke-width="1.00"/>
<circle cx="101.01" cy="189.04" r="19.90" fill="#cccccc" stroke="#000000" stroke-width="1.00"/>
<circle cx="368.16" cy="328.59" r="19.90" fill="#cccccc" stroke="#000000" stroke-width="1.00"/>
<circle cx="180.10" cy="111.36" r="19.90" fill="#cccccc" stroke="#000000" stroke-width="1.00"/>
<circle cx="66.32" cy="168.74" r="19.90" fill="#cccccc" stroke="#000000" stroke-width="1.00"/>
<circle cx="324.03" cy="368.16" r="19.90" fill="#cccccc" stroke="#000000" stroke-width="1.00"/>
<circle cx="248.74" cy="328.59" r="19.90" fill="#cccccc" stroke="#000000" stroke-width="1.00"/>
<circle cx="204.62" cy="368.16" r="19.90" fill="#cccccc" stroke="#000000" stroke-width="1.00"/>
<circle cx="31.84" cy="268.26" r="19.90" fill="#cccccc" stroke="#000000" stroke-width="1.00"/>
<circle cx="288.32" cy="288.78" r="19.90" fill="#cccccc" stroke="#000000" stroke-width="1.00"/>
<circle cx="248.40" cy="219.90" r="19.90" fill="#cccccc" stroke="#000000" stroke-width="1.00"/>
<circle cx="110.35" cy="150.34" r="19.90" fill="#cccccc" stroke="#000000" stroke-width="1.00"/>
<circle cx="139.36" cy="288.74" r="19.90" fill="#cccccc" stroke="#000000" stroke-width="1.00"/>
<circle cx="66.09" cy="288.55" r="19.90" fill="#cccccc" stroke="#000000" stroke-width="1.00"/>
<circle cx="363.84" cy="368.16" r="19.90" fill="#cccccc" stroke="#000000" stroke-width="1.00"/>
<circle cx="180.10" cy="71.55" r="19.90" fill="#cccccc" stroke="#000000" stroke-width="1.00"/>
<polygon points="11.94,388.06 388.06,388.06 388.06,200.00 200.00,200.00 200.00,11.94 11.94,11.94" fill="none" stroke="#000000" stroke-width="1.40"/>
</svg>