<svg xmlns="http://www.w3.org/2000/svg" width="400.0" height="400.0" viewBox="0 0 400.0 400.0">
<rect width="400.0" height="400.0" fill="white"/>
<circle cx="112.15" cy="110.20" r="19.68" fill="#cccccc" stroke="#000000" stroke-width="1.00"/>
<circle cx="250.44" cy="368.51" r="19.68" fill="#cccccc" stroke="#000000" stroke-width="1.00"/>
<circle cx="169.23" cy="226.68" r="19.68" fill="#cccccc" stroke="#000000" stroke-width="1.00"/>
<circle cx="76.66" cy="87.86" r="19.68" fill="#cccccc" stroke="#000000" stroke-width="1.00"/>
<circle cx="31.49" cy="307.82" r="19.68" fill="#cccccc" stroke="#000000" stroke-width="1.00"/>
<circle cx="211.08" cy="219.68" r="19.68" fill="#cccccc" stroke="#000000" stroke-width="1.00"/>
<circle cx="362.31" cy="258.54" r="19.68" fill="#cccccc" stroke="#000000" stroke-width="1.00"/>
<circle cx="132.62" cy="368.51" r="19.68" fill="#cccccc" stroke="#000000" stroke-width="1.00"/>
<circle cx="368.51" cy="219.68" r="19.68" fill="#cccccc" stroke="#000000" stroke-width="1.00"/>
<circle cx="145.94" cy="50.66" r="19.68" fill="#cccccc" stroke="#000000" stroke-width="1.00"/>
<circle cx="289.80" cy="368.51" r="19.68" fill="#cccccc" stroke="#000000" stroke-width="1.00"/>
<circle cx="289.80" cy="219.68" r="19.68" fill="#cccccc" stroke="#000000" stroke-width="1.00"/>
<circle cx="31.49" cy="145.30" r="19.68" fill="#cccccc" stroke="#000000" stroke-width="1.00"/>
<circle cx="368.51" cy="297.41" r="19.68" fill="#cccccc" stroke="#000000" stroke-width="1.00"/>
<circle cx="250.44" cy="297.41" r="19.68" fill="#cccccc" stroke="#000000" stroke-width="1.00"/>
<circle cx="112.15" cy="70.84" r="19.68" fill="#cccccc" stroke="#000000" stroke-width="1.00"/>
<circle cx="329.16" cy="219.68" r="19.68" fill="#cccccc" stroke="#000000" stroke-width="1.00"/>
<circle cx="31.49" cy="69.78" r="19.68" fill="#cccccc" stroke="#000000" stroke-width="1.00"/>
<circle cx="180.32" cy="188.92" r="19.68" fill="#cccccc" stroke="#000000" stroke-width="1.00"/>
<circle cx="76.66" cy="127.22" r="19.68" fill="#cccccc" stroke="#000000" stroke-width="1.00"/>
<circle cx="146.23" cy="90.52" r="19.68" fill="#cccccc" stroke="#000000" stroke-width="1.00"/>
<circle cx="146.23" cy="169.23" r="19.68" fill="#cccccc" stroke="#000000" stroke-width="1.00"/>
<circle cx="180.32" cy="149.56" r="19.68" fill="#cccccc" stroke="#000000" stroke-width="1.00"/>
<circle cx="66.47" cy="368.51" r="19.68" fill="#cccccc" stroke="#000000" stroke-width="1.00"/>
<circle cx="76.08" cy="48.51" r="19.68" fill="#cccccc" stroke="#000000" stroke-width="1.00"/>
<circle cx="40.59" cy="31.49" r="19.68" fill="#cccccc" stroke="#000000" stroke-width="1.00"/>
<circle cx="312.27" cy="332.96" r="19.68" fill="#cccccc" stroke="#000000" stroke-width="1.00"/>
<circle cx="194.20" cy="332.96" r="19.68" fill="#cccccc" stroke="#000000" stroke-width="1.00"/>
<circle cx="64.56" cy="329.15" r="19.68" fill="#cccccc" stroke="#000000" stroke-width="1.00"/>
<circle cx="329.16" cy="297.41" r="19.68" fill="#cccccc" stroke="#000000" stroke-width="1.00"/>
<circle cx="98.05" cy="226.56" r="19.68" fill="#cccccc" stroke="#000000" stroke-width="1.00"/>
<circle cx="272.91" cy="332.96" r="19.68" fill="#cccccc" stroke="#000000" stroke-width="1.00"/>
<circle cx="42.58" cy="107.54" r="19.68" fill="#cccccc" stroke="#000000" stroke-width="1.00"/>
<circle cx="135.14" cy="207.00" r="19.68" fill="#cccccc" stroke="#000000" stroke-width="1.00"/>
<circle cx="65.57" cy="204.34" r="19.68" fill="#cccccc" stroke="#000000" stroke-width="1.00"/>
<circle cx="31.49" cy="224.02" r="19.68" fill="#cccccc" stroke="#000000" stroke-width="1.00"/>
<circle cx="171.85" cy="365.36" r="19.68" fill="#cccccc" stroke="#000000" stroke-width="1.00"/>
<circle cx="211.08" cy="297.41" r="19.68" fill="#cccccc" stroke="#000000" stroke-width="1.00"/>
<circle cx="322.96" cy="258.54" r="19.68" fill="#cccccc" stroke="#000000" stroke-width="1.00"/>
<circle cx="180.31" cy="31.49" r="19.68" fill="#cccccc" stroke="#000000" stroke-width="1.00"/>
<circle cx="166.22" cy="305.28" r="19.68" fill="#cccccc" stroke="#000000" stroke-width="1.00"/>
<circle cx="132.14" cy="246.24" r="19.68" fill="#cccccc" stroke="#000000" stroke-width="1.00"/>
<circle cx="31.49" cy="184.66" r="19.68" fill="#cccccc" stroke="#000000" stroke-width="1.00"/>
<circle cx="98.05" cy="265.92" r="19.68" fill="#cccccc" stroke="#000000" stroke-width="1.00"/>
<circle cx="134.51" cy="328.60" r="19.68" fill="#cccccc" stroke="#000000" stroke-width="1.00"/>
<circle cx="244.24" cy="258.54" r="19.68" fill="#cccccc" stroke="#000000" stroke-width="1.00"/>
<circle cx="63.97" cy="246.24" r="19.68" fill="#cccccc" stroke="#000000" stroke-width="1.00"/>
<circle cx="146.23" cy="129.88" r="19.68" fill="#cccccc" stroke="#000000" stroke-width="1.00"/>
<circle cx="31.49" cy="350.49" r="19.68" fill="#cccccc" stroke="#000000" stroke-width="1.00"/>
<circle cx="166.22" cy="265.92" r="19.68" fill="#cccccc" stroke="#000000" stroke-width="1.00"/>
<circle cx="283.60" cy="258.54" r="19.68" fill="#cccccc" stroke="#000000" stroke-width="1.00"/>
<circle cx="111.57" cy="31.49" r="19.68" fill="#cccccc" stroke="#000000" stroke-width="1.00"/>
<circle cx="99.55" cy="347.18" r="19.68" fill="#cccccc" stroke="#000000" stroke-width="1.00"/>
<circle cx="99.65" cy="307.82" r="19.68" fill="#cccccc" stroke="#000000" stroke-width="1.00"/>
<circle cx="101.06" cy="187.32" r="19.68" fill="#cccccc" stroke="#000000" stroke-width="1.00"/>
<circle cx="351.63" cy="332.96" r="19.68" fill="#cccccc" stroke="#000000" stroke-width="1.00"/>
<circle cx="180.32" cy="110.20" r="19.68" fill="#cccccc" stroke="#000000" stroke-width="1.00"/>
<circle cx="65.57" cy="164.98" r="19.68" fill="#cccccc" stroke="#000000" stroke-width="1.00"/>
<circle cx="329.16" cy="368.51" r="19.68" fill="#cccccc" stroke="#000000" stroke-width="1.00"/>
<circle cx="233.56" cy="332.96" r="19.68" fill="#cccccc" stroke="#000000" stroke-width="1.00"/>
<circle cx="211.08" cy="368.51" r="19.68" fill="#cccccc" stroke="#000000" stroke-width="1.00"/>
<circle cx="31.49" cy="268.46" r="19.68" fill="#cccccc" stroke="#000000" stroke-width="1.00"/>
<circle cx="289.80" cy="297.41" r="19.68" fill="#cccccc" stroke="#000000" stroke-width="1.00"/>
<circle cx="250.44" cy="219.68" r="19.68" fill="#cccccc" stroke="#000000" stroke-width="1.00"/>
<circle cx="112.15" cy="149.55" r="19.68" fill="#cccccc" stroke="#000000" stroke-width="1.00"/>
<circle cx="132.14" cy="285.60" r="19.68" fill="#cccccc" stroke="#000000" stroke-width="1.00"/>
<circle cx="65.57" cy="288.14" r="19.68" fill="#cccccc" stroke="#000000" stroke-width="1.00"/>
<circle cx="368.51" cy="368.51" r="19.68" fill="#cccccc" stroke="#000000" stroke-width="1.00"/>
<circle cx="180.32" cy="70.84" r="19.68" fill="#cccccc" stroke="#000000" stroke-width="1.00"/>
<circle cx="204.88" cy="258.54" r="19.68" fill="#cccccc" stroke="#000000" stroke-width="1.00"/>
<polygon points="11.81,388.19 388.19,388.19 388.19,200.00 200.00,200.00 200.00,11.81 11.81,11.81" fill="none" stroke="#000000" stroke-width="1.40"/>
</svg>