<svg xmlns="http://www.w3.org/2000/svg" width="400.0" height="400.0" viewBox="0 0 400.0 400.0">
<rect width="400.0" height="400.0" fill="white"/>
<circle cx="111.84" cy="107.06" r="19.52" fill="#cccccc" stroke="#000000" stroke-width="1.00"/>
<circle cx="252.62" cy="368.77" r="19.52" fill="#cccccc" stroke="#000000" stroke-width="1.00"/>
<circle cx="167.47" cy="223.84" r="19.52" fill="#cccccc" stroke="#000000" stroke-width="1.00"/>
<circle cx="78.04" cy="87.54" r="19.52" fill="#cccccc" stroke="#000000" stroke-width="1.00"/>
<circle cx="31.23" cy="299.98" r="19.52" fill="#cccccc" stroke="#000000" stroke-width="1.00"/>
<circle cx="212.69" cy="219.52" r="19.52" fill="#cccccc" stroke="#000000" stroke-width="1.00"/>
<circle cx="360.05" cy="257.56" r="19.52" fill="#cccccc" stroke="#000000" stroke-width="1.00"/>
<circle cx="135.53" cy="368.77" r="19.52" fill="#cccccc" stroke="#000000" stroke-width="1.00"/>
<circle cx="368.77" cy="219.52" r="19.52" fill="#cccccc" stroke="#000000" stroke-width="1.00"/>
<circle cx="137.20" cy="38.36" r="19.52" fill="#cccccc" stroke="#000000" stroke-width="1.00"/>
<circle cx="291.36" cy="364.05" r="19.52" fill="#cccccc" stroke="#000000" stroke-width="1.00"/>
<circle cx="290.71" cy="219.52" r="19.52" fill="#cccccc" stroke="#000000" stroke-width="1.00"/>
<circle cx="31.23" cy="143.85" r="19.52" fill="#cccccc" stroke="#000000" stroke-width="1.00"/>
<circle cx="368.77" cy="295.61" r="19.52" fill="#cccccc" stroke="#000000" stroke-width="1.00"/>
<circle cx="251.70" cy="296.81" r="19.52" fill="#cccccc" stroke="#000000" stroke-width="1.00"/>
<circle cx="111.84" cy="68.02" r="19.52" fill="#cccccc" stroke="#000000" stroke-width="1.00"/>
<circle cx="329.74" cy="219.52" r="19.52" fill="#cccccc" stroke="#000000" stroke-width="1.00"/>
<circle cx="31.23" cy="70.26" r="19.52" fill="#cccccc" stroke="#000000" stroke-width="1.00"/>
<circle cx="180.48" cy="187.04" r="19.52" fill="#cccccc" stroke="#000000" stroke-width="1.00"/>
<circle cx="78.04" cy="126.57" r="19.52" fill="#cccccc" stroke="#000000" stroke-width="1.00"/>
<circle cx="145.64" cy="87.54" r="19.52" fill="#cccccc" stroke="#000000" stroke-width="1.00"/>
<circle cx="145.64" cy="165.60" r="19.52" fill="#cccccc" stroke="#000000" stroke-width="1.00"/>
<circle cx="180.48" cy="148.01" r="19.52" fill="#cccccc" stroke="#000000" stroke-width="1.00"/>
<circle cx="56.48" cy="368.77" r="19.52" fill="#cccccc" stroke="#000000" stroke-width="1.00"/>
<circle cx="65.03" cy="50.74" r="19.52" fill="#cccccc" stroke="#000000" stroke-width="1.00"/>
<circle cx="31.23" cy="31.23" r="19.52" fill="#cccccc" stroke="#000000" stroke-width="1.00"/>
<circle cx="310.47" cy="329.54" r="19.52" fill="#cccccc" stroke="#000000" stroke-width="1.00"/>
<circle cx="193.58" cy="334.63" r="19.52" fill="#cccccc" stroke="#000000" stroke-width="1.00"/>
<circle cx="70.26" cy="329.35" r="19.52" fill="#cccccc" stroke="#000000" stroke-width="1.00"/>
<circle cx="329.74" cy="295.61" r="19.52" fill="#cccccc" stroke="#000000" stroke-width="1.00"/>
<circle cx="98.83" cy="221.92" r="19.52" fill="#cccccc" stroke="#000000" stroke-width="1.00"/>
<circle cx="271.45" cy="330.48" r="19.52" fill="#cccccc" stroke="#000000" stroke-width="1.00"/>
<circle cx="44.24" cy="107.06" r="19.52" fill="#cccccc" stroke="#000000" stroke-width="1.00"/>
<circle cx="132.63" cy="202.40" r="19.52" fill="#cccccc" stroke="#000000" stroke-width="1.00"/>
<circle cx="65.03" cy="202.40" r="19.52" fill="#cccccc" stroke="#000000" stroke-width="1.00"/>
<circle cx="31.23" cy="221.92" r="19.52" fill="#cccccc" stroke="#000000" stroke-width="1.00"/>
<circle cx="174.56" cy="368.77" r="19.52" fill="#cccccc" stroke="#000000" stroke-width="1.00"/>
<circle cx="212.69" cy="295.61" r="19.52" fill="#cccccc" stroke="#000000" stroke-width="1.00"/>
<circle cx="321.02" cy="257.56" r="19.52" fill="#cccccc" stroke="#000000" stroke-width="1.00"/>
<circle cx="175.58" cy="31.23" r="19.52" fill="#cccccc" stroke="#000000" stroke-width="1.00"/>
<circle cx="174.01" cy="300.86" r="19.52" fill="#cccccc" stroke="#000000" stroke-width="1.00"/>
<circle cx="132.63" cy="241.43" r="19.52" fill="#cccccc" stroke="#000000" stroke-width="1.00"/>
<circle cx="31.23" cy="182.89" r="19.52" fill="#cccccc" stroke="#000000" stroke-width="1.00"/>
<circle cx="98.83" cy="260.95" r="19.52" fill="#cccccc" stroke="#000000" stroke-width="1.00"/>
<circle cx="115.52" cy="335.26" r="19.52" fill="#cccccc" stroke="#000000" stroke-width="1.00"/>
<circle cx="242.98" cy="258.76" r="19.52" fill="#cccccc" stroke="#000000" stroke-width="1.00"/>
<circle cx="65.03" cy="241.43" r="19.52" fill="#cccccc" stroke="#000000" stroke-width="1.00"/>
<circle cx="145.64" cy="126.57" r="19.52" fill="#cccccc" stroke="#000000" stroke-width="1.00"/>
<circle cx="31.23" cy="339.01" r="19.52" fill="#cccccc" stroke="#000000" stroke-width="1.00"/>
<circle cx="165.29" cy="262.81" r="19.52" fill="#cccccc" stroke="#000000" stroke-width="1.00"/>
<circle cx="281.99" cy="257.56" r="19.52" fill="#cccccc" stroke="#000000" stroke-width="1.00"/>
<circle cx="98.83" cy="31.23" r="19.52" fill="#cccccc" stroke="#000000" stroke-width="1.00"/>
<circle cx="95.51" cy="368.77" r="19.52" fill="#cccccc" stroke="#000000" stroke-width="1.00"/>
<circle cx="98.83" cy="299.98" r="19.52" fill="#cccccc" stroke="#000000" stroke-width="1.00"/>
<circle cx="98.83" cy="182.89" r="19.52" fill="#cccccc" stroke="#000000" stroke-width="1.00"/>
<circle cx="349.50" cy="329.54" r="19.52" fill="#cccccc" stroke="#000000" stroke-width="1.00"/>
<circle cx="180.48" cy="108.98" r="19.52" fill="#cccccc" stroke="#000000" stroke-width="1.00"/>
<circle cx="65.03" cy="163.37" r="19.52" fill="#cccccc" stroke="#000000" stroke-width="1.00"/>
<circle cx="330.10" cy="368.77" r="19.52" fill="#cccccc" stroke="#000000" stroke-width="1.00"/>
<circle cx="232.42" cy="330.75" r="19.52" fill="#cccccc" stroke="#000000" stroke-width="1.00"/>
<circle cx="213.59" cy="368.14" r="19.52" fill="#cccccc" stroke="#000000" stroke-width="1.00"/>
<circle cx="31.23" cy="260.95" r="19.52" fill="#cccccc" stroke="#000000" stroke-width="1.00"/>
<circle cx="290.71" cy="295.61" r="19.52" fill="#cccccc" stroke="#000000" stroke-width="1.00"/>
<circle cx="251.70" cy="220.72" r="19.52" fill="#cccccc" stroke="#000000" stroke-width="1.00"/>
<circle cx="111.84" cy="146.09" r="19.52" fill="#cccccc" stroke="#000000" stroke-width="1.00"/>
<circle cx="136.48" cy="289.69" r="19.52" fill="#cccccc" stroke="#000000" stroke-width="1.00"/>
<circle cx="65.03" cy="280.47" r="19.52" fill="#cccccc" stroke="#000000" stroke-width="1.00"/>
<circle cx="368.77" cy="363.48" r="19.52" fill="#cccccc" stroke="#000000" stroke-width="1.00"/>
<circle cx="180.48" cy="69.95" r="19.52" fill="#cccccc" stroke="#000000" stroke-width="1.00"/>
<circle cx="203.97" cy="257.56" r="19.52" fill="#cccccc" stroke="#000000" stroke-width="1.00"/>
<circle cx="154.55" cy="334.69" r="19.52" fill="#cccccc" stroke="#000000" stroke-width="1.00"/>
<polygon points="11.71,388.29 388.29,388.29 388.29,200.00 200.00,200.00 200.00,11.71 11.71,11.71" fill="none" stroke="#000000" stroke-width="1.40"/>
</svg>