<svg xmlns="http://www.w3.org/2000/svg" width="400.0" height="400.0" viewBox="0 0 400.0 400.0">
<rect width="400.0" height="400.0" fill="white"/>
<circle cx="30.79" cy="329.19" r="19.24" fill="#cccccc" stroke="#000000" stroke-width="1.00"/>
<circle cx="369.20" cy="369.21" r="19.24" fill="#cccccc" stroke="#000000" stroke-width="1.00"/>
<circle cx="69.48" cy="30.79" r="19.24" fill="#cccccc" stroke="#000000" stroke-width="1.00"/>
<circle cx="215.26" cy="219.24" r="19.24" fill="#cccccc" stroke="#000000" stroke-width="1.00"/>
<circle cx="149.09" cy="302.55" r="19.24" fill="#cccccc" stroke="#000000" stroke-width="1.00"/>
<circle cx="105.18" cy="135.54" r="19.24" fill="#cccccc" stroke="#000000" stroke-width="1.00"/>
<circle cx="178.83" cy="231.69" r="19.24" fill="#cccccc" stroke="#000000" stroke-width="1.00"/>
<circle cx="226.07" cy="302.55" r="19.24" fill="#cccccc" stroke="#000000" stroke-width="1.00"/>
<circle cx="71.68" cy="183.90" r="19.24" fill="#cccccc" stroke="#000000" stroke-width="1.00"/>
<circle cx="129.85" cy="335.88" r="19.24" fill="#cccccc" stroke="#000000" stroke-width="1.00"/>
<circle cx="369.21" cy="219.66" r="19.24" fill="#cccccc" stroke="#000000" stroke-width="1.00"/>
<circle cx="141.82" cy="116.30" r="19.24" fill="#cccccc" stroke="#000000" stroke-width="1.00"/>
<circle cx="147.35" cy="30.79" r="19.24" fill="#cccccc" stroke="#000000" stroke-width="1.00"/>
<circle cx="110.60" cy="369.21" r="19.24" fill="#cccccc" stroke="#000000" stroke-width="1.00"/>
<circle cx="108.84" cy="212.35" r="19.24" fill="#cccccc" stroke="#000000" stroke-width="1.00"/>
<circle cx="317.90" cy="255.53" r="19.24" fill="#cccccc" stroke="#000000" stroke-width="1.00"/>
<circle cx="30.79" cy="289.44" r="19.24" fill="#cccccc" stroke="#000000" stroke-width="1.00"/>
<circle cx="264.56" cy="369.21" r="19.24" fill="#cccccc" stroke="#000000" stroke-width="1.00"/>
<circle cx="30.79" cy="30.79" r="19.24" fill="#cccccc" stroke="#000000" stroke-width="1.00"/>
<circle cx="204.50" cy="267.97" r="19.24" fill="#cccccc" stroke="#000000" stroke-width="1.00"/>
<circle cx="168.33" cy="335.88" r="19.24" fill="#cccccc" stroke="#000000" stroke-width="1.00"/>
<circle cx="70.65" cy="368.32" r="19.24" fill="#cccccc" stroke="#000000" stroke-width="1.00"/>
<circle cx="108.41" cy="97.19" r="19.24" fill="#cccccc" stroke="#000000" stroke-width="1.00"/>
<circle cx="91.36" cy="335.88" r="19.24" fill="#cccccc" stroke="#000000" stroke-width="1.00"/>
<circle cx="30.79" cy="97.34" r="19.24" fill="#cccccc" stroke="#000000" stroke-width="1.00"/>
<circle cx="101.29" cy="298.69" r="19.24" fill="#cccccc" stroke="#000000" stroke-width="1.00"/>
<circle cx="30.79" cy="250.95" r="19.24" fill="#cccccc" stroke="#000000" stroke-width="1.00"/>
<circle cx="330.72" cy="330.31" r="19.24" fill="#cccccc" stroke="#000000" stroke-width="1.00"/>
<circle cx="140.44" cy="234.32" r="19.24" fill="#cccccc" stroke="#000000" stroke-width="1.00"/>
<circle cx="142.27" cy="193.28" r="19.24" fill="#cccccc" stroke="#000000" stroke-width="1.00"/>
<circle cx="161.06" cy="82.97" r="19.24" fill="#cccccc" stroke="#000000" stroke-width="1.00"/>
<circle cx="30.79" cy="369.21" r="19.24" fill="#cccccc" stroke="#000000" stroke-width="1.00"/>
<circle cx="166.01" cy="267.97" r="19.24" fill="#cccccc" stroke="#000000" stroke-width="1.00"/>
<circle cx="369.21" cy="292.23" r="19.24" fill="#cccccc" stroke="#000000" stroke-width="1.00"/>
<circle cx="226.07" cy="369.21" r="19.24" fill="#cccccc" stroke="#000000" stroke-width="1.00"/>
<circle cx="30.79" cy="212.46" r="19.24" fill="#cccccc" stroke="#000000" stroke-width="1.00"/>
<circle cx="107.96" cy="30.79" r="19.24" fill="#cccccc" stroke="#000000" stroke-width="1.00"/>
<circle cx="96.01" cy="248.64" r="19.24" fill="#cccccc" stroke="#000000" stroke-width="1.00"/>
<circle cx="187.58" cy="369.21" r="19.24" fill="#cccccc" stroke="#000000" stroke-width="1.00"/>
<circle cx="108.84" cy="173.86" r="19.24" fill="#cccccc" stroke="#000000" stroke-width="1.00"/>
<circle cx="30.79" cy="135.83" r="19.24" fill="#cccccc" stroke="#000000" stroke-width="1.00"/>
<circle cx="149.09" cy="369.21" r="19.24" fill="#cccccc" stroke="#000000" stroke-width="1.00"/>
<circle cx="68.02" cy="145.59" r="19.24" fill="#cccccc" stroke="#000000" stroke-width="1.00"/>
<circle cx="254.12" cy="330.72" r="19.24" fill="#cccccc" stroke="#000000" stroke-width="1.00"/>
<circle cx="253.75" cy="219.24" r="19.24" fill="#cccccc" stroke="#000000" stroke-width="1.00"/>
<circle cx="68.02" cy="222.21" r="19.24" fill="#cccccc" stroke="#000000" stroke-width="1.00"/>
<circle cx="180.76" cy="49.90" r="19.24" fill="#cccccc" stroke="#000000" stroke-width="1.00"/>
<circle cx="64.12" cy="308.68" r="19.24" fill="#cccccc" stroke="#000000" stroke-width="1.00"/>
<circle cx="50.13" cy="64.07" r="19.24" fill="#cccccc" stroke="#000000" stroke-width="1.00"/>
<circle cx="296.16" cy="347.24" r="19.24" fill="#cccccc" stroke="#000000" stroke-width="1.00"/>
<circle cx="206.82" cy="335.88" r="19.24" fill="#cccccc" stroke="#000000" stroke-width="1.00"/>
<circle cx="127.66" cy="63.86" r="19.24" fill="#cccccc" stroke="#000000" stroke-width="1.00"/>
<circle cx="127.61" cy="270.61" r="19.24" fill="#cccccc" stroke="#000000" stroke-width="1.00"/>
<circle cx="180.76" cy="154.53" r="19.24" fill="#cccccc" stroke="#000000" stroke-width="1.00"/>
<circle cx="180.76" cy="116.04" r="19.24" fill="#cccccc" stroke="#000000" stroke-width="1.00"/>
<circle cx="262.49" cy="290.10" r="19.24" fill="#cccccc" stroke="#000000" stroke-width="1.00"/>
<circle cx="240.92" cy="255.53" r="19.24" fill="#cccccc" stroke="#000000" stroke-width="1.00"/>
<circle cx="296.16" cy="308.75" r="19.24" fill="#cccccc" stroke="#000000" stroke-width="1.00"/>
<circle cx="330.72" cy="219.24" r="19.24" fill="#cccccc" stroke="#000000" stroke-width="1.00"/>
<circle cx="187.58" cy="302.55" r="19.24" fill="#cccccc" stroke="#000000" stroke-width="1.00"/>
<circle cx="369.21" cy="330.72" r="19.24" fill="#cccccc" stroke="#000000" stroke-width="1.00"/>
<circle cx="142.27" cy="154.79" r="19.24" fill="#cccccc" stroke="#000000" stroke-width="1.00"/>
<circle cx="64.12" cy="270.19" r="19.24" fill="#cccccc" stroke="#000000" stroke-width="1.00"/>
<circle cx="330.72" cy="291.82" r="19.24" fill="#cccccc" stroke="#000000" stroke-width="1.00"/>
<circle cx="279.41" cy="255.53" r="19.24" fill="#cccccc" stroke="#000000" stroke-width="1.00"/>
<circle cx="292.23" cy="219.24" r="19.24" fill="#cccccc" stroke="#000000" stroke-width="1.00"/>
<circle cx="88.62" cy="64.18" r="19.24" fill="#cccccc" stroke="#000000" stroke-width="1.00"/>
<circle cx="34.45" cy="174.14" r="19.24" fill="#cccccc" stroke="#000000" stroke-width="1.00"/>
<circle cx="330.71" cy="369.21" r="19.24" fill="#cccccc" stroke="#000000" stroke-width="1.00"/>
<circle cx="356.38" cy="255.94" r="19.24" fill="#cccccc" stroke="#000000" stroke-width="1.00"/>
<circle cx="69.09" cy="102.06" r="19.24" fill="#cccccc" stroke="#000000" stroke-width="1.00"/>
<circle cx="180.76" cy="193.02" r="19.24" fill="#cccccc" stroke="#000000" stroke-width="1.00"/>
<polygon points="11.55,388.45 388.45,388.45 388.45,200.00 200.00,200.00 200.00,11.55 11.55,11.55" fill="none" stroke="#000000" stroke-width="1.40"/>
</svg>