<svg xmlns="http://www.w3.org/2000/svg" width="400.0" height="400.0" viewBox="0 0 400.0 400.0">
<rect width="400.0" height="400.0" fill="white"/>
<circle cx="106.87" cy="81.26" r="19.22" fill="#cccccc" stroke="#000000" stroke-width="1.00"/>
<circle cx="70.36" cy="184.51" r="19.22" fill="#cccccc" stroke="#000000" stroke-width="1.00"/>
<circle cx="105.72" cy="158.14" r="19.22" fill="#cccccc" stroke="#000000" stroke-width="1.00"/>
<circle cx="314.18" cy="253.60" r="19.22" fill="#cccccc" stroke="#000000" stroke-width="1.00"/>
<circle cx="143.38" cy="184.51" r="19.22" fill="#cccccc" stroke="#000000" stroke-width="1.00"/>
<circle cx="369.24" cy="369.24" r="19.22" fill="#cccccc" stroke="#000000" stroke-width="1.00"/>
<circle cx="296.00" cy="352.87" r="19.22" fill="#cccccc" stroke="#000000" stroke-width="1.00"/>
<circle cx="369.24" cy="302.64" r="19.22" fill="#cccccc" stroke="#000000" stroke-width="1.00"/>
<circle cx="294.95" cy="286.90" r="19.22" fill="#cccccc" stroke="#000000" stroke-width="1.00"/>
<circle cx="86.52" cy="268.35" r="19.22" fill="#cccccc" stroke="#000000" stroke-width="1.00"/>
<circle cx="237.28" cy="253.60" r="19.22" fill="#cccccc" stroke="#000000" stroke-width="1.00"/>
<circle cx="222.76" cy="369.24" r="19.22" fill="#cccccc" stroke="#000000" stroke-width="1.00"/>
<circle cx="105.72" cy="119.69" r="19.22" fill="#cccccc" stroke="#000000" stroke-width="1.00"/>
<circle cx="221.01" cy="301.70" r="19.22" fill="#cccccc" stroke="#000000" stroke-width="1.00"/>
<circle cx="68.96" cy="369.24" r="19.22" fill="#cccccc" stroke="#000000" stroke-width="1.00"/>
<circle cx="50.04" cy="256.21" r="19.22" fill="#cccccc" stroke="#000000" stroke-width="1.00"/>
<circle cx="256.50" cy="286.90" r="19.22" fill="#cccccc" stroke="#000000" stroke-width="1.00"/>
<circle cx="30.76" cy="222.94" r="19.22" fill="#cccccc" stroke="#000000" stroke-width="1.00"/>
<circle cx="180.78" cy="193.43" r="19.22" fill="#cccccc" stroke="#000000" stroke-width="1.00"/>
<circle cx="143.38" cy="146.06" r="19.22" fill="#cccccc" stroke="#000000" stroke-width="1.00"/>
<circle cx="67.22" cy="301.70" r="19.22" fill="#cccccc" stroke="#000000" stroke-width="1.00"/>
<circle cx="292.95" cy="219.22" r="19.22" fill="#cccccc" stroke="#000000" stroke-width="1.00"/>
<circle cx="163.38" cy="266.66" r="19.22" fill="#cccccc" stroke="#000000" stroke-width="1.00"/>
<circle cx="330.79" cy="369.24" r="19.22" fill="#cccccc" stroke="#000000" stroke-width="1.00"/>
<circle cx="180.77" cy="36.51" r="19.22" fill="#cccccc" stroke="#000000" stroke-width="1.00"/>
<circle cx="105.83" cy="235.01" r="19.22" fill="#cccccc" stroke="#000000" stroke-width="1.00"/>
<circle cx="201.79" cy="335.00" r="19.22" fill="#cccccc" stroke="#000000" stroke-width="1.00"/>
<circle cx="105.67" cy="301.70" r="19.22" fill="#cccccc" stroke="#000000" stroke-width="1.00"/>
<circle cx="179.62" cy="116.55" r="19.22" fill="#cccccc" stroke="#000000" stroke-width="1.00"/>
<circle cx="107.41" cy="369.24" r="19.22" fill="#cccccc" stroke="#000000" stroke-width="1.00"/>
<circle cx="106.87" cy="196.57" r="19.22" fill="#cccccc" stroke="#000000" stroke-width="1.00"/>
<circle cx="30.76" cy="146.07" r="19.22" fill="#cccccc" stroke="#000000" stroke-width="1.00"/>
<circle cx="124.89" cy="335.00" r="19.22" fill="#cccccc" stroke="#000000" stroke-width="1.00"/>
<circle cx="201.79" cy="268.40" r="19.22" fill="#cccccc" stroke="#000000" stroke-width="1.00"/>
<circle cx="30.76" cy="107.62" r="19.22" fill="#cccccc" stroke="#000000" stroke-width="1.00"/>
<circle cx="261.21" cy="369.24" r="19.22" fill="#cccccc" stroke="#000000" stroke-width="1.00"/>
<circle cx="240.24" cy="335.00" r="19.22" fill="#cccccc" stroke="#000000" stroke-width="1.00"/>
<circle cx="180.78" cy="78.11" r="19.22" fill="#cccccc" stroke="#000000" stroke-width="1.00"/>
<circle cx="184.31" cy="369.24" r="19.22" fill="#cccccc" stroke="#000000" stroke-width="1.00"/>
<circle cx="31.91" cy="184.51" r="19.22" fill="#cccccc" stroke="#000000" stroke-width="1.00"/>
<circle cx="315.22" cy="319.58" r="19.22" fill="#cccccc" stroke="#000000" stroke-width="1.00"/>
<circle cx="163.34" cy="335.00" r="19.22" fill="#cccccc" stroke="#000000" stroke-width="1.00"/>
<circle cx="275.73" cy="253.60" r="19.22" fill="#cccccc" stroke="#000000" stroke-width="1.00"/>
<circle cx="144.11" cy="301.70" r="19.22" fill="#cccccc" stroke="#000000" stroke-width="1.00"/>
<circle cx="331.39" cy="219.22" r="19.22" fill="#cccccc" stroke="#000000" stroke-width="1.00"/>
<circle cx="31.91" cy="69.19" r="19.22" fill="#cccccc" stroke="#000000" stroke-width="1.00"/>
<circle cx="86.44" cy="335.00" r="19.22" fill="#cccccc" stroke="#000000" stroke-width="1.00"/>
<circle cx="69.32" cy="222.94" r="19.22" fill="#cccccc" stroke="#000000" stroke-width="1.00"/>
<circle cx="334.45" cy="286.28" r="19.22" fill="#cccccc" stroke="#000000" stroke-width="1.00"/>
<circle cx="180.78" cy="154.98" r="19.22" fill="#cccccc" stroke="#000000" stroke-width="1.00"/>
<circle cx="124.97" cy="268.35" r="19.22" fill="#cccccc" stroke="#000000" stroke-width="1.00"/>
<circle cx="145.86" cy="369.24" r="19.22" fill="#cccccc" stroke="#000000" stroke-width="1.00"/>
<circle cx="142.22" cy="107.62" r="19.22" fill="#cccccc" stroke="#000000" stroke-width="1.00"/>
<circle cx="254.50" cy="219.22" r="19.22" fill="#cccccc" stroke="#000000" stroke-width="1.00"/>
<circle cx="369.24" cy="226.01" r="19.22" fill="#cccccc" stroke="#000000" stroke-width="1.00"/>
<circle cx="69.21" cy="107.62" r="19.22" fill="#cccccc" stroke="#000000" stroke-width="1.00"/>
<circle cx="143.38" cy="69.19" r="19.22" fill="#cccccc" stroke="#000000" stroke-width="1.00"/>
<circle cx="366.02" cy="264.33" r="19.22" fill="#cccccc" stroke="#000000" stroke-width="1.00"/>
<circle cx="30.76" cy="364.84" r="19.22" fill="#cccccc" stroke="#000000" stroke-width="1.00"/>
<circle cx="182.56" cy="301.70" r="19.22" fill="#cccccc" stroke="#000000" stroke-width="1.00"/>
<circle cx="38.40" cy="327.16" r="19.22" fill="#cccccc" stroke="#000000" stroke-width="1.00"/>
<circle cx="275.73" cy="320.20" r="19.22" fill="#cccccc" stroke="#000000" stroke-width="1.00"/>
<circle cx="105.72" cy="42.83" r="19.22" fill="#cccccc" stroke="#000000" stroke-width="1.00"/>
<circle cx="30.76" cy="289.48" r="19.22" fill="#cccccc" stroke="#000000" stroke-width="1.00"/>
<circle cx="69.21" cy="146.07" r="19.22" fill="#cccccc" stroke="#000000" stroke-width="1.00"/>
<circle cx="30.76" cy="30.76" r="19.22" fill="#cccccc" stroke="#000000" stroke-width="1.00"/>
<circle cx="70.36" cy="69.19" r="19.22" fill="#cccccc" stroke="#000000" stroke-width="1.00"/>
<circle cx="216.05" cy="219.22" r="19.22" fill="#cccccc" stroke="#000000" stroke-width="1.00"/>
<circle cx="179.73" cy="231.86" r="19.22" fill="#cccccc" stroke="#000000" stroke-width="1.00"/>
<circle cx="142.22" cy="30.76" r="19.22" fill="#cccccc" stroke="#000000" stroke-width="1.00"/>
<circle cx="142.33" cy="222.94" r="19.22" fill="#cccccc" stroke="#000000" stroke-width="1.00"/>
<circle cx="350.02" cy="335.94" r="19.22" fill="#cccccc" stroke="#000000" stroke-width="1.00"/>
<circle cx="69.21" cy="30.76" r="19.22" fill="#cccccc" stroke="#000000" stroke-width="1.00"/>
<polygon points="11.53,388.47 388.47,388.47 388.47,200.00 200.00,200.00 200.00,11.53 11.53,11.53" fill="none" stroke="#000000" stroke-width="1.40"/>
</svg>