<svg xmlns="http://www.w3.org/2000/svg" width="400.0" height="400.0" viewBox="0 0 400.0 400.0">
<rect width="400.0" height="400.0" fill="white"/>
<circle cx="30.46" cy="369.54" r="19.04" fill="#cccccc" stroke="#000000" stroke-width="1.00"/>
<circle cx="71.93" cy="369.54" r="19.04" fill="#cccccc" stroke="#000000" stroke-width="1.00"/>
<circle cx="51.19" cy="337.62" r="19.04" fill="#cccccc" stroke="#000000" stroke-width="1.00"/>
<circle cx="30.46" cy="305.69" r="19.04" fill="#cccccc" stroke="#000000" stroke-width="1.00"/>
<circle cx="90.97" cy="336.57" r="19.04" fill="#cccccc" stroke="#000000" stroke-width="1.00"/>
<circle cx="110.00" cy="369.54" r="19.04" fill="#cccccc" stroke="#000000" stroke-width="1.00"/>
<circle cx="70.23" cy="304.65" r="19.04" fill="#cccccc" stroke="#000000" stroke-width="1.00"/>
<circle cx="49.49" cy="272.72" r="19.04" fill="#cccccc" stroke="#000000" stroke-width="1.00"/>
<circle cx="129.04" cy="336.57" r="19.04" fill="#cccccc" stroke="#000000" stroke-width="1.00"/>
<circle cx="110.00" cy="303.60" r="19.04" fill="#cccccc" stroke="#000000" stroke-width="1.00"/>
<circle cx="148.07" cy="369.54" r="19.04" fill="#cccccc" stroke="#000000" stroke-width="1.00"/>
<circle cx="89.26" cy="271.68" r="19.04" fill="#cccccc" stroke="#000000" stroke-width="1.00"/>
<circle cx="30.46" cy="239.75" r="19.04" fill="#cccccc" stroke="#000000" stroke-width="1.00"/>
<circle cx="148.07" cy="303.60" r="19.04" fill="#cccccc" stroke="#000000" stroke-width="1.00"/>
<circle cx="167.11" cy="336.57" r="19.04" fill="#cccccc" stroke="#000000" stroke-width="1.00"/>
<circle cx="68.53" cy="239.75" r="19.04" fill="#cccccc" stroke="#000000" stroke-width="1.00"/>
<circle cx="129.04" cy="270.63" r="19.04" fill="#cccccc" stroke="#000000" stroke-width="1.00"/>
<circle cx="186.14" cy="369.54" r="19.04" fill="#cccccc" stroke="#000000" stroke-width="1.00"/>
<circle cx="108.30" cy="238.71" r="19.04" fill="#cccccc" stroke="#000000" stroke-width="1.00"/>
<circle cx="49.49" cy="206.78" r="19.04" fill="#cccccc" stroke="#000000" stroke-width="1.00"/>
<circle cx="186.14" cy="303.60" r="19.04" fill="#cccccc" stroke="#000000" stroke-width="1.00"/>
<circle cx="167.11" cy="270.63" r="19.04" fill="#cccccc" stroke="#000000" stroke-width="1.00"/>
<circle cx="205.18" cy="336.57" r="19.04" fill="#cccccc" stroke="#000000" stroke-width="1.00"/>
<circle cx="87.56" cy="206.78" r="19.04" fill="#cccccc" stroke="#000000" stroke-width="1.00"/>
<circle cx="148.14" cy="237.62" r="19.04" fill="#cccccc" stroke="#000000" stroke-width="1.00"/>
<circle cx="224.21" cy="369.54" r="19.04" fill="#cccccc" stroke="#000000" stroke-width="1.00"/>
<circle cx="127.34" cy="205.74" r="19.04" fill="#cccccc" stroke="#000000" stroke-width="1.00"/>
<circle cx="30.46" cy="173.81" r="19.04" fill="#cccccc" stroke="#000000" stroke-width="1.00"/>
<circle cx="202.22" cy="255.93" r="19.04" fill="#cccccc" stroke="#000000" stroke-width="1.00"/>
<circle cx="68.53" cy="173.81" r="19.04" fill="#cccccc" stroke="#000000" stroke-width="1.00"/>
<circle cx="221.26" cy="288.90" r="19.04" fill="#cccccc" stroke="#000000" stroke-width="1.00"/>
<circle cx="195.41" cy="218.47" r="19.04" fill="#cccccc" stroke="#000000" stroke-width="1.00"/>
<circle cx="240.29" cy="321.87" r="19.04" fill="#cccccc" stroke="#000000" stroke-width="1.00"/>
<circle cx="106.60" cy="173.81" r="19.04" fill="#cccccc" stroke="#000000" stroke-width="1.00"/>
<circle cx="164.28" cy="196.55" r="19.04" fill="#cccccc" stroke="#000000" stroke-width="1.00"/>
<circle cx="259.33" cy="354.84" r="19.04" fill="#cccccc" stroke="#000000" stroke-width="1.00"/>
<circle cx="49.49" cy="140.84" r="19.04" fill="#cccccc" stroke="#000000" stroke-width="1.00"/>
<circle cx="142.89" cy="162.33" r="19.04" fill="#cccccc" stroke="#000000" stroke-width="1.00"/>
<circle cx="241.01" cy="256.35" r="19.04" fill="#cccccc" stroke="#000000" stroke-width="1.00"/>
<circle cx="233.47" cy="219.04" r="19.04" fill="#cccccc" stroke="#000000" stroke-width="1.00"/>
<circle cx="87.56" cy="140.84" r="19.04" fill="#cccccc" stroke="#000000" stroke-width="1.00"/>
<circle cx="260.04" cy="289.32" r="19.04" fill="#cccccc" stroke="#000000" stroke-width="1.00"/>
<circle cx="279.30" cy="322.43" r="19.04" fill="#cccccc" stroke="#000000" stroke-width="1.00"/>
<circle cx="123.86" cy="129.37" r="19.04" fill="#cccccc" stroke="#000000" stroke-width="1.00"/>
<circle cx="180.96" cy="162.33" r="19.04" fill="#cccccc" stroke="#000000" stroke-width="1.00"/>
<circle cx="30.46" cy="107.87" r="19.04" fill="#cccccc" stroke="#000000" stroke-width="1.00"/>
<circle cx="294.44" cy="369.54" r="19.04" fill="#cccccc" stroke="#000000" stroke-width="1.00"/>
<circle cx="68.53" cy="107.87" r="19.04" fill="#cccccc" stroke="#000000" stroke-width="1.00"/>
<circle cx="271.54" cy="219.04" r="19.04" fill="#cccccc" stroke="#000000" stroke-width="1.00"/>
<circle cx="279.08" cy="256.35" r="19.04" fill="#cccccc" stroke="#000000" stroke-width="1.00"/>
<circle cx="161.93" cy="129.37" r="19.04" fill="#cccccc" stroke="#000000" stroke-width="1.00"/>
<circle cx="298.11" cy="289.32" r="19.04" fill="#cccccc" stroke="#000000" stroke-width="1.00"/>
<circle cx="104.82" cy="96.40" r="19.04" fill="#cccccc" stroke="#000000" stroke-width="1.00"/>
<circle cx="315.65" cy="333.77" r="19.04" fill="#cccccc" stroke="#000000" stroke-width="1.00"/>
<circle cx="142.89" cy="96.40" r="19.04" fill="#cccccc" stroke="#000000" stroke-width="1.00"/>
<circle cx="49.49" cy="74.90" r="19.04" fill="#cccccc" stroke="#000000" stroke-width="1.00"/>
<circle cx="307.63" cy="231.17" r="19.04" fill="#cccccc" stroke="#000000" stroke-width="1.00"/>
<circle cx="332.51" cy="369.54" r="19.04" fill="#cccccc" stroke="#000000" stroke-width="1.00"/>
<circle cx="85.79" cy="63.43" r="19.04" fill="#cccccc" stroke="#000000" stroke-width="1.00"/>
<circle cx="330.27" cy="262.36" r="19.04" fill="#cccccc" stroke="#000000" stroke-width="1.00"/>
<circle cx="180.96" cy="96.40" r="19.04" fill="#cccccc" stroke="#000000" stroke-width="1.00"/>
<circle cx="334.60" cy="300.19" r="19.04" fill="#cccccc" stroke="#000000" stroke-width="1.00"/>
<circle cx="123.86" cy="63.43" r="19.04" fill="#cccccc" stroke="#000000" stroke-width="1.00"/>
<circle cx="365.16" cy="322.89" r="19.04" fill="#cccccc" stroke="#000000" stroke-width="1.00"/>
<circle cx="30.46" cy="41.93" r="19.04" fill="#cccccc" stroke="#000000" stroke-width="1.00"/>
<circle cx="161.93" cy="63.43" r="19.04" fill="#cccccc" stroke="#000000" stroke-width="1.00"/>
<circle cx="66.75" cy="30.46" r="19.04" fill="#cccccc" stroke="#000000" stroke-width="1.00"/>
<circle cx="343.71" cy="219.04" r="19.04" fill="#cccccc" stroke="#000000" stroke-width="1.00"/>
<circle cx="104.82" cy="30.46" r="19.04" fill="#cccccc" stroke="#000000" stroke-width="1.00"/>
<circle cx="369.54" cy="360.71" r="19.04" fill="#cccccc" stroke="#000000" stroke-width="1.00"/>
<circle cx="369.54" cy="247.00" r="19.04" fill="#cccccc" stroke="#000000" stroke-width="1.00"/>
<circle cx="369.54" cy="285.07" r="19.04" fill="#cccccc" stroke="#000000" stroke-width="1.00"/>
<circle cx="142.89" cy="30.46" r="19.04" fill="#cccccc" stroke="#000000" stroke-width="1.00"/>
<circle cx="180.96" cy="30.46" r="19.04" fill="#cccccc" stroke="#000000" stroke-width="1.00"/>
<polygon points="11.42,388.58 388.58,388.58 388.58,200.00 200.00,200.00 200.00,11.42 11.42,11.42" fill="none" stroke="#000000" stroke-width="1.40"/>
</svg>