<svg xmlns="http://www.w3.org/2000/svg" width="400.0" height="400.0" viewBox="0 0 400.0 400.0">
<rect width="400.0" height="400.0" fill="white"/>
<circle cx="30.44" cy="369.56" r="19.03" fill="#cccccc" stroke="#000000" stroke-width="1.00"/>
<circle cx="30.44" cy="328.92" r="19.03" fill="#cccccc" stroke="#000000" stroke-width="1.00"/>
<circle cx="62.61" cy="349.24" r="19.03" fill="#cccccc" stroke="#000000" stroke-width="1.00"/>
<circle cx="94.79" cy="369.56" r="19.03" fill="#cccccc" stroke="#000000" stroke-width="1.00"/>
<circle cx="63.39" cy="309.89" r="19.03" fill="#cccccc" stroke="#000000" stroke-width="1.00"/>
<circle cx="30.44" cy="290.87" r="19.03" fill="#cccccc" stroke="#000000" stroke-width="1.00"/>
<circle cx="95.57" cy="330.21" r="19.03" fill="#cccccc" stroke="#000000" stroke-width="1.00"/>
<circle cx="127.74" cy="350.53" r="19.03" fill="#cccccc" stroke="#000000" stroke-width="1.00"/>
<circle cx="63.39" cy="271.83" r="19.03" fill="#cccccc" stroke="#000000" stroke-width="1.00"/>
<circle cx="96.34" cy="290.85" r="19.03" fill="#cccccc" stroke="#000000" stroke-width="1.00"/>
<circle cx="30.44" cy="252.79" r="19.03" fill="#cccccc" stroke="#000000" stroke-width="1.00"/>
<circle cx="128.51" cy="311.17" r="19.03" fill="#cccccc" stroke="#000000" stroke-width="1.00"/>
<circle cx="160.69" cy="369.56" r="19.03" fill="#cccccc" stroke="#000000" stroke-width="1.00"/>
<circle cx="96.34" cy="252.80" r="19.03" fill="#cccccc" stroke="#000000" stroke-width="1.00"/>
<circle cx="63.40" cy="233.76" r="19.03" fill="#cccccc" stroke="#000000" stroke-width="1.00"/>
<circle cx="160.68" cy="331.49" r="19.03" fill="#cccccc" stroke="#000000" stroke-width="1.00"/>
<circle cx="129.29" cy="271.83" r="19.03" fill="#cccccc" stroke="#000000" stroke-width="1.00"/>
<circle cx="30.44" cy="214.73" r="19.03" fill="#cccccc" stroke="#000000" stroke-width="1.00"/>
<circle cx="161.47" cy="292.15" r="19.03" fill="#cccccc" stroke="#000000" stroke-width="1.00"/>
<circle cx="193.64" cy="350.52" r="19.03" fill="#cccccc" stroke="#000000" stroke-width="1.00"/>
<circle cx="96.35" cy="214.73" r="19.03" fill="#cccccc" stroke="#000000" stroke-width="1.00"/>
<circle cx="129.29" cy="233.78" r="19.03" fill="#cccccc" stroke="#000000" stroke-width="1.00"/>
<circle cx="63.40" cy="195.71" r="19.03" fill="#cccccc" stroke="#000000" stroke-width="1.00"/>
<circle cx="193.64" cy="312.47" r="19.03" fill="#cccccc" stroke="#000000" stroke-width="1.00"/>
<circle cx="164.35" cy="254.20" r="19.03" fill="#cccccc" stroke="#000000" stroke-width="1.00"/>
<circle cx="30.44" cy="176.68" r="19.03" fill="#cccccc" stroke="#000000" stroke-width="1.00"/>
<circle cx="200.65" cy="265.60" r="19.03" fill="#cccccc" stroke="#000000" stroke-width="1.00"/>
<circle cx="226.58" cy="369.56" r="19.03" fill="#cccccc" stroke="#000000" stroke-width="1.00"/>
<circle cx="129.31" cy="195.72" r="19.03" fill="#cccccc" stroke="#000000" stroke-width="1.00"/>
<circle cx="226.59" cy="331.49" r="19.03" fill="#cccccc" stroke="#000000" stroke-width="1.00"/>
<circle cx="96.35" cy="176.68" r="19.03" fill="#cccccc" stroke="#000000" stroke-width="1.00"/>
<circle cx="163.03" cy="216.18" r="19.03" fill="#cccccc" stroke="#000000" stroke-width="1.00"/>
<circle cx="63.81" cy="156.96" r="19.03" fill="#cccccc" stroke="#000000" stroke-width="1.00"/>
<circle cx="226.59" cy="293.44" r="19.03" fill="#cccccc" stroke="#000000" stroke-width="1.00"/>
<circle cx="199.33" cy="227.57" r="19.03" fill="#cccccc" stroke="#000000" stroke-width="1.00"/>
<circle cx="30.44" cy="138.63" r="19.03" fill="#cccccc" stroke="#000000" stroke-width="1.00"/>
<circle cx="259.54" cy="350.53" r="19.03" fill="#cccccc" stroke="#000000" stroke-width="1.00"/>
<circle cx="237.73" cy="257.05" r="19.03" fill="#cccccc" stroke="#000000" stroke-width="1.00"/>
<circle cx="147.23" cy="162.16" r="19.03" fill="#cccccc" stroke="#000000" stroke-width="1.00"/>
<circle cx="180.97" cy="182.62" r="19.03" fill="#cccccc" stroke="#000000" stroke-width="1.00"/>
<circle cx="259.55" cy="312.47" r="19.03" fill="#cccccc" stroke="#000000" stroke-width="1.00"/>
<circle cx="114.27" cy="143.11" r="19.03" fill="#cccccc" stroke="#000000" stroke-width="1.00"/>
<circle cx="79.76" cy="122.37" r="19.03" fill="#cccccc" stroke="#000000" stroke-width="1.00"/>
<circle cx="270.68" cy="276.08" r="19.03" fill="#cccccc" stroke="#000000" stroke-width="1.00"/>
<circle cx="236.41" cy="219.03" r="19.03" fill="#cccccc" stroke="#000000" stroke-width="1.00"/>
<circle cx="292.49" cy="369.56" r="19.03" fill="#cccccc" stroke="#000000" stroke-width="1.00"/>
<circle cx="44.58" cy="103.30" r="19.03" fill="#cccccc" stroke="#000000" stroke-width="1.00"/>
<circle cx="292.49" cy="331.51" r="19.03" fill="#cccccc" stroke="#000000" stroke-width="1.00"/>
<circle cx="180.97" cy="144.57" r="19.03" fill="#cccccc" stroke="#000000" stroke-width="1.00"/>
<circle cx="147.23" cy="124.10" r="19.03" fill="#cccccc" stroke="#000000" stroke-width="1.00"/>
<circle cx="270.01" cy="236.90" r="19.03" fill="#cccccc" stroke="#000000" stroke-width="1.00"/>
<circle cx="114.27" cy="105.06" r="19.03" fill="#cccccc" stroke="#000000" stroke-width="1.00"/>
<circle cx="303.65" cy="295.13" r="19.03" fill="#cccccc" stroke="#000000" stroke-width="1.00"/>
<circle cx="68.10" cy="73.40" r="19.03" fill="#cccccc" stroke="#000000" stroke-width="1.00"/>
<circle cx="303.65" cy="257.08" r="19.03" fill="#cccccc" stroke="#000000" stroke-width="1.00"/>
<circle cx="325.44" cy="350.53" r="19.03" fill="#cccccc" stroke="#000000" stroke-width="1.00"/>
<circle cx="180.97" cy="106.52" r="19.03" fill="#cccccc" stroke="#000000" stroke-width="1.00"/>
<circle cx="30.44" cy="67.97" r="19.03" fill="#cccccc" stroke="#000000" stroke-width="1.00"/>
<circle cx="336.60" cy="314.15" r="19.03" fill="#cccccc" stroke="#000000" stroke-width="1.00"/>
<circle cx="147.23" cy="86.05" r="19.03" fill="#cccccc" stroke="#000000" stroke-width="1.00"/>
<circle cx="303.60" cy="219.03" r="19.03" fill="#cccccc" stroke="#000000" stroke-width="1.00"/>
<circle cx="105.77" cy="67.97" r="19.03" fill="#cccccc" stroke="#000000" stroke-width="1.00"/>
<circle cx="336.60" cy="276.10" r="19.03" fill="#cccccc" stroke="#000000" stroke-width="1.00"/>
<circle cx="74.38" cy="35.87" r="19.03" fill="#cccccc" stroke="#000000" stroke-width="1.00"/>
<circle cx="358.40" cy="369.56" r="19.03" fill="#cccccc" stroke="#000000" stroke-width="1.00"/>
<circle cx="336.60" cy="238.04" r="19.03" fill="#cccccc" stroke="#000000" stroke-width="1.00"/>
<circle cx="369.56" cy="333.18" r="19.03" fill="#cccccc" stroke="#000000" stroke-width="1.00"/>
<circle cx="180.97" cy="68.47" r="19.03" fill="#cccccc" stroke="#000000" stroke-width="1.00"/>
<circle cx="369.56" cy="295.13" r="19.03" fill="#cccccc" stroke="#000000" stroke-width="1.00"/>
<circle cx="36.71" cy="30.44" r="19.03" fill="#cccccc" stroke="#000000" stroke-width="1.00"/>
<circle cx="145.78" cy="48.03" r="19.03" fill="#cccccc" stroke="#000000" stroke-width="1.00"/>
<circle cx="112.04" cy="30.44" r="19.03" fill="#cccccc" stroke="#000000" stroke-width="1.00"/>
<circle cx="369.56" cy="257.08" r="19.03" fill="#cccccc" stroke="#000000" stroke-width="1.00"/>
<circle cx="369.56" cy="219.03" r="19.03" fill="#cccccc" stroke="#000000" stroke-width="1.00"/>
<circle cx="179.53" cy="30.44" r="19.03" fill="#cccccc" stroke="#000000" stroke-width="1.00"/>
<polygon points="11.42,388.58 388.58,388.58 388.58,200.00 200.00,200.00 200.00,11.42 11.42,11.42" fill="none" stroke="#000000" stroke-width="1.40"/>
</svg>