<svg xmlns="http://www.w3.org/2000/svg" width="400.0" height="400.0" viewBox="0 0 400.0 400.0">
<rect width="400.0" height="400.0" fill="white"/>
<circle cx="369.76" cy="266.47" r="18.90" fill="#cccccc" stroke="#000000" stroke-width="1.00"/>
<circle cx="30.24" cy="204.30" r="18.90" fill="#cccccc" stroke="#000000" stroke-width="1.00"/>
<circle cx="207.71" cy="270.50" r="18.90" fill="#cccccc" stroke="#000000" stroke-width="1.00"/>
<circle cx="181.10" cy="199.01" r="18.90" fill="#cccccc" stroke="#000000" stroke-width="1.00"/>
<circle cx="257.62" cy="218.90" r="18.90" fill="#cccccc" stroke="#000000" stroke-width="1.00"/>
<circle cx="181.10" cy="95.73" r="18.90" fill="#cccccc" stroke="#000000" stroke-width="1.00"/>
<circle cx="331.95" cy="369.76" r="18.90" fill="#cccccc" stroke="#000000" stroke-width="1.00"/>
<circle cx="68.05" cy="101.02" r="18.90" fill="#cccccc" stroke="#000000" stroke-width="1.00"/>
<circle cx="369.76" cy="228.66" r="18.90" fill="#cccccc" stroke="#000000" stroke-width="1.00"/>
<circle cx="49.15" cy="274.85" r="18.90" fill="#cccccc" stroke="#000000" stroke-width="1.00"/>
<circle cx="148.90" cy="369.76" r="18.90" fill="#cccccc" stroke="#000000" stroke-width="1.00"/>
<circle cx="30.24" cy="166.50" r="18.90" fill="#cccccc" stroke="#000000" stroke-width="1.00"/>
<circle cx="51.77" cy="338.67" r="18.90" fill="#cccccc" stroke="#000000" stroke-width="1.00"/>
<circle cx="318.21" cy="317.94" r="18.90" fill="#cccccc" stroke="#000000" stroke-width="1.00"/>
<circle cx="295.42" cy="218.91" r="18.90" fill="#cccccc" stroke="#000000" stroke-width="1.00"/>
<circle cx="73.29" cy="369.76" r="18.90" fill="#cccccc" stroke="#000000" stroke-width="1.00"/>
<circle cx="207.87" cy="335.90" r="18.90" fill="#cccccc" stroke="#000000" stroke-width="1.00"/>
<circle cx="30.24" cy="369.76" r="18.90" fill="#cccccc" stroke="#000000" stroke-width="1.00"/>
<circle cx="191.05" cy="369.76" r="18.90" fill="#cccccc" stroke="#000000" stroke-width="1.00"/>
<circle cx="245.68" cy="335.90" r="18.90" fill="#cccccc" stroke="#000000" stroke-width="1.00"/>
<circle cx="105.48" cy="30.24" r="18.90" fill="#cccccc" stroke="#000000" stroke-width="1.00"/>
<circle cx="105.86" cy="166.50" r="18.90" fill="#cccccc" stroke="#000000" stroke-width="1.00"/>
<circle cx="186.33" cy="236.46" r="18.90" fill="#cccccc" stroke="#000000" stroke-width="1.00"/>
<circle cx="162.19" cy="128.47" r="18.90" fill="#cccccc" stroke="#000000" stroke-width="1.00"/>
<circle cx="30.24" cy="35.53" r="18.90" fill="#cccccc" stroke="#000000" stroke-width="1.00"/>
<circle cx="86.58" cy="62.99" r="18.90" fill="#cccccc" stroke="#000000" stroke-width="1.00"/>
<circle cx="130.00" cy="337.01" r="18.90" fill="#cccccc" stroke="#000000" stroke-width="1.00"/>
<circle cx="124.39" cy="62.99" r="18.90" fill="#cccccc" stroke="#000000" stroke-width="1.00"/>
<circle cx="316.81" cy="252.96" r="18.90" fill="#cccccc" stroke="#000000" stroke-width="1.00"/>
<circle cx="30.24" cy="307.59" r="18.90" fill="#cccccc" stroke="#000000" stroke-width="1.00"/>
<circle cx="279.01" cy="252.97" r="18.90" fill="#cccccc" stroke="#000000" stroke-width="1.00"/>
<circle cx="68.05" cy="166.50" r="18.90" fill="#cccccc" stroke="#000000" stroke-width="1.00"/>
<circle cx="30.24" cy="101.02" r="18.90" fill="#cccccc" stroke="#000000" stroke-width="1.00"/>
<circle cx="67.68" cy="30.24" r="18.90" fill="#cccccc" stroke="#000000" stroke-width="1.00"/>
<circle cx="336.82" cy="285.03" r="18.90" fill="#cccccc" stroke="#000000" stroke-width="1.00"/>
<circle cx="105.48" cy="95.73" r="18.90" fill="#cccccc" stroke="#000000" stroke-width="1.00"/>
<circle cx="143.29" cy="30.24" r="18.90" fill="#cccccc" stroke="#000000" stroke-width="1.00"/>
<circle cx="162.19" cy="62.99" r="18.90" fill="#cccccc" stroke="#000000" stroke-width="1.00"/>
<circle cx="110.65" cy="241.80" r="18.90" fill="#cccccc" stroke="#000000" stroke-width="1.00"/>
<circle cx="68.05" cy="242.11" r="18.90" fill="#cccccc" stroke="#000000" stroke-width="1.00"/>
<circle cx="241.20" cy="252.96" r="18.90" fill="#cccccc" stroke="#000000" stroke-width="1.00"/>
<circle cx="219.81" cy="218.90" r="18.90" fill="#cccccc" stroke="#000000" stroke-width="1.00"/>
<circle cx="86.95" cy="133.76" r="18.90" fill="#cccccc" stroke="#000000" stroke-width="1.00"/>
<circle cx="151.07" cy="305.63" r="18.90" fill="#cccccc" stroke="#000000" stroke-width="1.00"/>
<circle cx="369.76" cy="369.76" r="18.90" fill="#cccccc" stroke="#000000" stroke-width="1.00"/>
<circle cx="68.05" cy="204.30" r="18.90" fill="#cccccc" stroke="#000000" stroke-width="1.00"/>
<circle cx="111.10" cy="304.27" r="18.90" fill="#cccccc" stroke="#000000" stroke-width="1.00"/>
<circle cx="49.15" cy="133.76" r="18.90" fill="#cccccc" stroke="#000000" stroke-width="1.00"/>
<circle cx="169.98" cy="338.37" r="18.90" fill="#cccccc" stroke="#000000" stroke-width="1.00"/>
<circle cx="89.57" cy="273.19" r="18.90" fill="#cccccc" stroke="#000000" stroke-width="1.00"/>
<circle cx="333.23" cy="218.90" r="18.90" fill="#cccccc" stroke="#000000" stroke-width="1.00"/>
<circle cx="124.39" cy="128.47" r="18.90" fill="#cccccc" stroke="#000000" stroke-width="1.00"/>
<circle cx="369.76" cy="304.27" r="18.90" fill="#cccccc" stroke="#000000" stroke-width="1.00"/>
<circle cx="260.39" cy="285.87" r="18.90" fill="#cccccc" stroke="#000000" stroke-width="1.00"/>
<circle cx="143.29" cy="161.21" r="18.90" fill="#cccccc" stroke="#000000" stroke-width="1.00"/>
<circle cx="105.86" cy="204.30" r="18.90" fill="#cccccc" stroke="#000000" stroke-width="1.00"/>
<circle cx="111.10" cy="369.76" r="18.90" fill="#cccccc" stroke="#000000" stroke-width="1.00"/>
<circle cx="228.86" cy="369.76" r="18.90" fill="#cccccc" stroke="#000000" stroke-width="1.00"/>
<circle cx="70.67" cy="305.93" r="18.90" fill="#cccccc" stroke="#000000" stroke-width="1.00"/>
<circle cx="132.17" cy="272.89" r="18.90" fill="#cccccc" stroke="#000000" stroke-width="1.00"/>
<circle cx="49.15" cy="68.27" r="18.90" fill="#cccccc" stroke="#000000" stroke-width="1.00"/>
<circle cx="143.29" cy="199.01" r="18.90" fill="#cccccc" stroke="#000000" stroke-width="1.00"/>
<circle cx="169.90" cy="270.51" r="18.90" fill="#cccccc" stroke="#000000" stroke-width="1.00"/>
<circle cx="181.10" cy="30.24" r="18.90" fill="#cccccc" stroke="#000000" stroke-width="1.00"/>
<circle cx="266.66" cy="369.76" r="18.90" fill="#cccccc" stroke="#000000" stroke-width="1.00"/>
<circle cx="181.10" cy="161.21" r="18.90" fill="#cccccc" stroke="#000000" stroke-width="1.00"/>
<circle cx="298.20" cy="285.87" r="18.90" fill="#cccccc" stroke="#000000" stroke-width="1.00"/>
<circle cx="299.31" cy="350.68" r="18.90" fill="#cccccc" stroke="#000000" stroke-width="1.00"/>
<circle cx="226.76" cy="303.15" r="18.90" fill="#cccccc" stroke="#000000" stroke-width="1.00"/>
<circle cx="188.81" cy="303.25" r="18.90" fill="#cccccc" stroke="#000000" stroke-width="1.00"/>
<circle cx="279.30" cy="318.61" r="18.90" fill="#cccccc" stroke="#000000" stroke-width="1.00"/>
<circle cx="92.19" cy="337.01" r="18.90" fill="#cccccc" stroke="#000000" stroke-width="1.00"/>
<circle cx="143.29" cy="95.73" r="18.90" fill="#cccccc" stroke="#000000" stroke-width="1.00"/>
<circle cx="148.31" cy="238.23" r="18.90" fill="#cccccc" stroke="#000000" stroke-width="1.00"/>
<circle cx="30.24" cy="242.11" r="18.90" fill="#cccccc" stroke="#000000" stroke-width="1.00"/>
<circle cx="350.85" cy="337.01" r="18.90" fill="#cccccc" stroke="#000000" stroke-width="1.00"/>
<polygon points="11.34,388.66 388.66,388.66 388.66,200.00 200.00,200.00 200.00,11.34 11.34,11.34" fill="none" stroke="#000000" stroke-width="1.40"/>
</svg>