<svg xmlns="http://www.w3.org/2000/svg" width="400.0" height="400.0" viewBox="0 0 400.0 400.0">
<rect width="400.0" height="400.0" fill="white"/>
<circle cx="30.12" cy="369.88" r="18.83" fill="#cccccc" stroke="#000000" stroke-width="1.00"/>
<circle cx="33.70" cy="332.40" r="18.83" fill="#cccccc" stroke="#000000" stroke-width="1.00"/>
<circle cx="64.37" cy="354.24" r="18.83" fill="#cccccc" stroke="#000000" stroke-width="1.00"/>
<circle cx="98.62" cy="369.88" r="18.83" fill="#cccccc" stroke="#000000" stroke-width="1.00"/>
<circle cx="66.31" cy="313.57" r="18.83" fill="#cccccc" stroke="#000000" stroke-width="1.00"/>
<circle cx="30.12" cy="294.91" r="18.83" fill="#cccccc" stroke="#000000" stroke-width="1.00"/>
<circle cx="99.02" cy="332.23" r="18.83" fill="#cccccc" stroke="#000000" stroke-width="1.00"/>
<circle cx="131.43" cy="351.39" r="18.83" fill="#cccccc" stroke="#000000" stroke-width="1.00"/>
<circle cx="62.73" cy="276.09" r="18.83" fill="#cccccc" stroke="#000000" stroke-width="1.00"/>
<circle cx="99.05" cy="294.57" r="18.83" fill="#cccccc" stroke="#000000" stroke-width="1.00"/>
<circle cx="30.12" cy="257.26" r="18.83" fill="#cccccc" stroke="#000000" stroke-width="1.00"/>
<circle cx="131.64" cy="313.43" r="18.83" fill="#cccccc" stroke="#000000" stroke-width="1.00"/>
<circle cx="164.23" cy="369.88" r="18.83" fill="#cccccc" stroke="#000000" stroke-width="1.00"/>
<circle cx="95.43" cy="257.10" r="18.83" fill="#cccccc" stroke="#000000" stroke-width="1.00"/>
<circle cx="62.73" cy="238.43" r="18.83" fill="#cccccc" stroke="#000000" stroke-width="1.00"/>
<circle cx="164.27" cy="332.23" r="18.83" fill="#cccccc" stroke="#000000" stroke-width="1.00"/>
<circle cx="131.66" cy="275.75" r="18.83" fill="#cccccc" stroke="#000000" stroke-width="1.00"/>
<circle cx="30.12" cy="219.61" r="18.83" fill="#cccccc" stroke="#000000" stroke-width="1.00"/>
<circle cx="164.27" cy="294.57" r="18.83" fill="#cccccc" stroke="#000000" stroke-width="1.00"/>
<circle cx="201.88" cy="369.88" r="18.83" fill="#cccccc" stroke="#000000" stroke-width="1.00"/>
<circle cx="95.43" cy="219.44" r="18.83" fill="#cccccc" stroke="#000000" stroke-width="1.00"/>
<circle cx="128.04" cy="238.27" r="18.83" fill="#cccccc" stroke="#000000" stroke-width="1.00"/>
<circle cx="62.73" cy="200.78" r="18.83" fill="#cccccc" stroke="#000000" stroke-width="1.00"/>
<circle cx="201.92" cy="332.23" r="18.83" fill="#cccccc" stroke="#000000" stroke-width="1.00"/>
<circle cx="164.27" cy="256.92" r="18.83" fill="#cccccc" stroke="#000000" stroke-width="1.00"/>
<circle cx="30.12" cy="181.96" r="18.83" fill="#cccccc" stroke="#000000" stroke-width="1.00"/>
<circle cx="201.92" cy="294.57" r="18.83" fill="#cccccc" stroke="#000000" stroke-width="1.00"/>
<circle cx="239.53" cy="369.88" r="18.83" fill="#cccccc" stroke="#000000" stroke-width="1.00"/>
<circle cx="128.04" cy="200.62" r="18.83" fill="#cccccc" stroke="#000000" stroke-width="1.00"/>
<circle cx="239.57" cy="332.00" r="18.83" fill="#cccccc" stroke="#000000" stroke-width="1.00"/>
<circle cx="95.43" cy="181.79" r="18.83" fill="#cccccc" stroke="#000000" stroke-width="1.00"/>
<circle cx="160.65" cy="219.44" r="18.83" fill="#cccccc" stroke="#000000" stroke-width="1.00"/>
<circle cx="62.73" cy="163.13" r="18.83" fill="#cccccc" stroke="#000000" stroke-width="1.00"/>
<circle cx="239.57" cy="294.35" r="18.83" fill="#cccccc" stroke="#000000" stroke-width="1.00"/>
<circle cx="201.92" cy="256.92" r="18.83" fill="#cccccc" stroke="#000000" stroke-width="1.00"/>
<circle cx="30.12" cy="144.30" r="18.83" fill="#cccccc" stroke="#000000" stroke-width="1.00"/>
<circle cx="272.10" cy="350.97" r="18.83" fill="#cccccc" stroke="#000000" stroke-width="1.00"/>
<circle cx="239.57" cy="256.70" r="18.83" fill="#cccccc" stroke="#000000" stroke-width="1.00"/>
<circle cx="128.04" cy="162.96" r="18.83" fill="#cccccc" stroke="#000000" stroke-width="1.00"/>
<circle cx="181.17" cy="187.87" r="18.83" fill="#cccccc" stroke="#000000" stroke-width="1.00"/>
<circle cx="272.18" cy="313.18" r="18.83" fill="#cccccc" stroke="#000000" stroke-width="1.00"/>
<circle cx="95.43" cy="144.14" r="18.83" fill="#cccccc" stroke="#000000" stroke-width="1.00"/>
<circle cx="201.96" cy="219.27" r="18.83" fill="#cccccc" stroke="#000000" stroke-width="1.00"/>
<circle cx="62.73" cy="125.48" r="18.83" fill="#cccccc" stroke="#000000" stroke-width="1.00"/>
<circle cx="272.18" cy="275.53" r="18.83" fill="#cccccc" stroke="#000000" stroke-width="1.00"/>
<circle cx="239.61" cy="218.83" r="18.83" fill="#cccccc" stroke="#000000" stroke-width="1.00"/>
<circle cx="304.66" cy="369.88" r="18.83" fill="#cccccc" stroke="#000000" stroke-width="1.00"/>
<circle cx="30.12" cy="106.65" r="18.83" fill="#cccccc" stroke="#000000" stroke-width="1.00"/>
<circle cx="304.71" cy="332.15" r="18.83" fill="#cccccc" stroke="#000000" stroke-width="1.00"/>
<circle cx="164.62" cy="154.05" r="18.83" fill="#cccccc" stroke="#000000" stroke-width="1.00"/>
<circle cx="128.04" cy="125.31" r="18.83" fill="#cccccc" stroke="#000000" stroke-width="1.00"/>
<circle cx="272.14" cy="237.80" r="18.83" fill="#cccccc" stroke="#000000" stroke-width="1.00"/>
<circle cx="95.81" cy="105.85" r="18.83" fill="#cccccc" stroke="#000000" stroke-width="1.00"/>
<circle cx="304.79" cy="294.35" r="18.83" fill="#cccccc" stroke="#000000" stroke-width="1.00"/>
<circle cx="62.73" cy="87.82" r="18.83" fill="#cccccc" stroke="#000000" stroke-width="1.00"/>
<circle cx="304.74" cy="256.62" r="18.83" fill="#cccccc" stroke="#000000" stroke-width="1.00"/>
<circle cx="337.27" cy="351.05" r="18.83" fill="#cccccc" stroke="#000000" stroke-width="1.00"/>
<circle cx="181.17" cy="120.23" r="18.83" fill="#cccccc" stroke="#000000" stroke-width="1.00"/>
<circle cx="30.12" cy="67.78" r="18.83" fill="#cccccc" stroke="#000000" stroke-width="1.00"/>
<circle cx="337.31" cy="313.32" r="18.83" fill="#cccccc" stroke="#000000" stroke-width="1.00"/>
<circle cx="152.08" cy="96.33" r="18.83" fill="#cccccc" stroke="#000000" stroke-width="1.00"/>
<circle cx="304.66" cy="218.83" r="18.83" fill="#cccccc" stroke="#000000" stroke-width="1.00"/>
<circle cx="130.62" cy="65.39" r="18.83" fill="#cccccc" stroke="#000000" stroke-width="1.00"/>
<circle cx="337.35" cy="275.45" r="18.83" fill="#cccccc" stroke="#000000" stroke-width="1.00"/>
<circle cx="92.97" cy="65.39" r="18.83" fill="#cccccc" stroke="#000000" stroke-width="1.00"/>
<circle cx="369.88" cy="369.88" r="18.83" fill="#cccccc" stroke="#000000" stroke-width="1.00"/>
<circle cx="337.27" cy="237.65" r="18.83" fill="#cccccc" stroke="#000000" stroke-width="1.00"/>
<circle cx="369.88" cy="332.23" r="18.83" fill="#cccccc" stroke="#000000" stroke-width="1.00"/>
<circle cx="181.17" cy="72.43" r="18.83" fill="#cccccc" stroke="#000000" stroke-width="1.00"/>
<circle cx="369.88" cy="294.42" r="18.83" fill="#cccccc" stroke="#000000" stroke-width="1.00"/>
<circle cx="30.12" cy="30.12" r="18.83" fill="#cccccc" stroke="#000000" stroke-width="1.00"/>
<circle cx="143.81" cy="30.12" r="18.83" fill="#cccccc" stroke="#000000" stroke-width="1.00"/>
<circle cx="106.16" cy="30.12" r="18.83" fill="#cccccc" stroke="#000000" stroke-width="1.00"/>
<circle cx="369.88" cy="256.48" r="18.83" fill="#cccccc" stroke="#000000" stroke-width="1.00"/>
<circle cx="68.49" cy="30.12" r="18.83" fill="#cccccc" stroke="#000000" stroke-width="1.00"/>
<circle cx="369.88" cy="218.83" r="18.83" fill="#cccccc" stroke="#000000" stroke-width="1.00"/>
<circle cx="181.17" cy="34.78" r="18.83" fill="#cccccc" stroke="#000000" stroke-width="1.00"/>
<polygon points="11.30,388.70 388.70,388.70 388.70,200.00 200.00,200.00 200.00,11.30 11.30,11.30" fill="none" stroke="#000000" stroke-width="1.40"/>
</svg>