<svg xmlns="http://www.w3.org/2000/svg" width="400.0" height="400.0" viewBox="0 0 400.0 400.0">
<rect width="400.0" height="400.0" fill="white"/>
<circle cx="119.78" cy="247.33" r="18.53" fill="#cccccc" stroke="#000000" stroke-width="1.00"/>
<circle cx="333.30" cy="370.36" r="18.53" fill="#cccccc" stroke="#000000" stroke-width="1.00"/>
<circle cx="199.08" cy="239.71" r="18.53" fill="#cccccc" stroke="#000000" stroke-width="1.00"/>
<circle cx="136.32" cy="280.49" r="18.53" fill="#cccccc" stroke="#000000" stroke-width="1.00"/>
<circle cx="182.65" cy="206.50" r="18.53" fill="#cccccc" stroke="#000000" stroke-width="1.00"/>
<circle cx="370.36" cy="296.25" r="18.53" fill="#cccccc" stroke="#000000" stroke-width="1.00"/>
<circle cx="85.21" cy="150.94" r="18.53" fill="#cccccc" stroke="#000000" stroke-width="1.00"/>
<circle cx="29.64" cy="333.30" r="18.53" fill="#cccccc" stroke="#000000" stroke-width="1.00"/>
<circle cx="126.73" cy="353.33" r="18.53" fill="#cccccc" stroke="#000000" stroke-width="1.00"/>
<circle cx="85.21" cy="113.89" r="18.53" fill="#cccccc" stroke="#000000" stroke-width="1.00"/>
<circle cx="82.73" cy="247.19" r="18.53" fill="#cccccc" stroke="#000000" stroke-width="1.00"/>
<circle cx="29.64" cy="66.70" r="18.53" fill="#cccccc" stroke="#000000" stroke-width="1.00"/>
<circle cx="61.73" cy="277.72" r="18.53" fill="#cccccc" stroke="#000000" stroke-width="1.00"/>
<circle cx="270.20" cy="331.56" r="18.53" fill="#cccccc" stroke="#000000" stroke-width="1.00"/>
<circle cx="333.48" cy="255.58" r="18.53" fill="#cccccc" stroke="#000000" stroke-width="1.00"/>
<circle cx="233.19" cy="333.32" r="18.53" fill="#cccccc" stroke="#000000" stroke-width="1.00"/>
<circle cx="168.10" cy="261.44" r="18.53" fill="#cccccc" stroke="#000000" stroke-width="1.00"/>
<circle cx="61.73" cy="85.22" r="18.53" fill="#cccccc" stroke="#000000" stroke-width="1.00"/>
<circle cx="158.00" cy="29.64" r="18.53" fill="#cccccc" stroke="#000000" stroke-width="1.00"/>
<circle cx="82.73" cy="210.14" r="18.53" fill="#cccccc" stroke="#000000" stroke-width="1.00"/>
<circle cx="119.78" cy="210.28" r="18.53" fill="#cccccc" stroke="#000000" stroke-width="1.00"/>
<circle cx="29.64" cy="29.64" r="18.53" fill="#cccccc" stroke="#000000" stroke-width="1.00"/>
<circle cx="117.30" cy="132.42" r="18.53" fill="#cccccc" stroke="#000000" stroke-width="1.00"/>
<circle cx="117.30" cy="95.36" r="18.53" fill="#cccccc" stroke="#000000" stroke-width="1.00"/>
<circle cx="233.32" cy="296.27" r="18.53" fill="#cccccc" stroke="#000000" stroke-width="1.00"/>
<circle cx="93.82" cy="333.30" r="18.53" fill="#cccccc" stroke="#000000" stroke-width="1.00"/>
<circle cx="93.82" cy="66.70" r="18.53" fill="#cccccc" stroke="#000000" stroke-width="1.00"/>
<circle cx="152.39" cy="227.88" r="18.53" fill="#cccccc" stroke="#000000" stroke-width="1.00"/>
<circle cx="93.82" cy="370.36" r="18.53" fill="#cccccc" stroke="#000000" stroke-width="1.00"/>
<circle cx="232.48" cy="255.77" r="18.53" fill="#cccccc" stroke="#000000" stroke-width="1.00"/>
<circle cx="269.13" cy="370.36" r="18.53" fill="#cccccc" stroke="#000000" stroke-width="1.00"/>
<circle cx="159.64" cy="370.36" r="18.53" fill="#cccccc" stroke="#000000" stroke-width="1.00"/>
<circle cx="93.82" cy="29.64" r="18.53" fill="#cccccc" stroke="#000000" stroke-width="1.00"/>
<circle cx="266.53" cy="218.53" r="18.53" fill="#cccccc" stroke="#000000" stroke-width="1.00"/>
<circle cx="149.38" cy="150.94" r="18.53" fill="#cccccc" stroke="#000000" stroke-width="1.00"/>
<circle cx="300.01" cy="234.41" r="18.53" fill="#cccccc" stroke="#000000" stroke-width="1.00"/>
<circle cx="333.30" cy="333.30" r="18.53" fill="#cccccc" stroke="#000000" stroke-width="1.00"/>
<circle cx="370.36" cy="370.36" r="18.53" fill="#cccccc" stroke="#000000" stroke-width="1.00"/>
<circle cx="50.64" cy="228.67" r="18.53" fill="#cccccc" stroke="#000000" stroke-width="1.00"/>
<circle cx="301.22" cy="351.83" r="18.53" fill="#cccccc" stroke="#000000" stroke-width="1.00"/>
<circle cx="94.61" cy="295.01" r="18.53" fill="#cccccc" stroke="#000000" stroke-width="1.00"/>
<circle cx="171.80" cy="298.30" r="18.53" fill="#cccccc" stroke="#000000" stroke-width="1.00"/>
<circle cx="181.47" cy="95.36" r="18.53" fill="#cccccc" stroke="#000000" stroke-width="1.00"/>
<circle cx="269.53" cy="255.48" r="18.53" fill="#cccccc" stroke="#000000" stroke-width="1.00"/>
<circle cx="125.91" cy="48.17" r="18.53" fill="#cccccc" stroke="#000000" stroke-width="1.00"/>
<circle cx="181.47" cy="58.31" r="18.53" fill="#cccccc" stroke="#000000" stroke-width="1.00"/>
<circle cx="229.48" cy="218.53" r="18.53" fill="#cccccc" stroke="#000000" stroke-width="1.00"/>
<circle cx="333.48" cy="218.53" r="18.53" fill="#cccccc" stroke="#000000" stroke-width="1.00"/>
<circle cx="370.36" cy="333.30" r="18.53" fill="#cccccc" stroke="#000000" stroke-width="1.00"/>
<circle cx="181.47" cy="169.47" r="18.53" fill="#cccccc" stroke="#000000" stroke-width="1.00"/>
<circle cx="370.36" cy="259.20" r="18.53" fill="#cccccc" stroke="#000000" stroke-width="1.00"/>
<circle cx="370.36" cy="222.15" r="18.53" fill="#cccccc" stroke="#000000" stroke-width="1.00"/>
<circle cx="201.88" cy="276.66" r="18.53" fill="#cccccc" stroke="#000000" stroke-width="1.00"/>
<circle cx="61.73" cy="314.78" r="18.53" fill="#cccccc" stroke="#000000" stroke-width="1.00"/>
<circle cx="29.64" cy="198.14" r="18.53" fill="#cccccc" stroke="#000000" stroke-width="1.00"/>
<circle cx="270.32" cy="294.30" r="18.53" fill="#cccccc" stroke="#000000" stroke-width="1.00"/>
<circle cx="61.73" cy="351.83" r="18.53" fill="#cccccc" stroke="#000000" stroke-width="1.00"/>
<circle cx="181.47" cy="132.42" r="18.53" fill="#cccccc" stroke="#000000" stroke-width="1.00"/>
<circle cx="61.73" cy="48.17" r="18.53" fill="#cccccc" stroke="#000000" stroke-width="1.00"/>
<circle cx="29.64" cy="370.36" r="18.53" fill="#cccccc" stroke="#000000" stroke-width="1.00"/>
<circle cx="29.64" cy="296.25" r="18.53" fill="#cccccc" stroke="#000000" stroke-width="1.00"/>
<circle cx="126.73" cy="316.28" r="18.53" fill="#cccccc" stroke="#000000" stroke-width="1.00"/>
<circle cx="195.86" cy="362.53" r="18.53" fill="#cccccc" stroke="#000000" stroke-width="1.00"/>
<circle cx="196.97" cy="325.49" r="18.53" fill="#cccccc" stroke="#000000" stroke-width="1.00"/>
<circle cx="232.07" cy="370.36" r="18.53" fill="#cccccc" stroke="#000000" stroke-width="1.00"/>
<circle cx="149.38" cy="76.84" r="18.53" fill="#cccccc" stroke="#000000" stroke-width="1.00"/>
<circle cx="61.73" cy="179.61" r="18.53" fill="#cccccc" stroke="#000000" stroke-width="1.00"/>
<circle cx="29.64" cy="103.75" r="18.53" fill="#cccccc" stroke="#000000" stroke-width="1.00"/>
<circle cx="29.64" cy="259.20" r="18.53" fill="#cccccc" stroke="#000000" stroke-width="1.00"/>
<circle cx="159.64" cy="333.30" r="18.53" fill="#cccccc" stroke="#000000" stroke-width="1.00"/>
<circle cx="149.38" cy="113.89" r="18.53" fill="#cccccc" stroke="#000000" stroke-width="1.00"/>
<circle cx="302.29" cy="313.03" r="18.53" fill="#cccccc" stroke="#000000" stroke-width="1.00"/>
<circle cx="116.53" cy="170.74" r="18.53" fill="#cccccc" stroke="#000000" stroke-width="1.00"/>
<circle cx="53.12" cy="132.42" r="18.53" fill="#cccccc" stroke="#000000" stroke-width="1.00"/>
<circle cx="301.48" cy="274.25" r="18.53" fill="#cccccc" stroke="#000000" stroke-width="1.00"/>
<circle cx="333.45" cy="292.98" r="18.53" fill="#cccccc" stroke="#000000" stroke-width="1.00"/>
<circle cx="29.64" cy="161.08" r="18.53" fill="#cccccc" stroke="#000000" stroke-width="1.00"/>
<circle cx="149.38" cy="188.00" r="18.53" fill="#cccccc" stroke="#000000" stroke-width="1.00"/>
<polygon points="11.12,388.88 388.88,388.88 388.88,200.00 200.00,200.00 200.00,11.12 11.12,11.12" fill="none" stroke="#000000" stroke-width="1.40"/>
</svg>