<svg xmlns="http://www.w3.org/2000/svg" width="400.0" height="400.0" viewBox="0 0 400.0 400.0">
<rect width="400.0" height="400.0" fill="white"/>
<circle cx="370.46" cy="255.38" r="18.46" fill="#cccccc" stroke="#000000" stroke-width="1.00"/>
<circle cx="237.35" cy="218.46" r="18.46" fill="#cccccc" stroke="#000000" stroke-width="1.00"/>
<circle cx="223.04" cy="370.46" r="18.46" fill="#cccccc" stroke="#000000" stroke-width="1.00"/>
<circle cx="237.18" cy="256.96" r="18.46" fill="#cccccc" stroke="#000000" stroke-width="1.00"/>
<circle cx="164.36" cy="276.69" r="18.46" fill="#cccccc" stroke="#000000" stroke-width="1.00"/>
<circle cx="116.64" cy="82.82" r="18.46" fill="#cccccc" stroke="#000000" stroke-width="1.00"/>
<circle cx="205.75" cy="237.57" r="18.46" fill="#cccccc" stroke="#000000" stroke-width="1.00"/>
<circle cx="62.95" cy="208.15" r="18.46" fill="#cccccc" stroke="#000000" stroke-width="1.00"/>
<circle cx="186.12" cy="370.46" r="18.46" fill="#cccccc" stroke="#000000" stroke-width="1.00"/>
<circle cx="95.37" cy="227.40" r="18.46" fill="#cccccc" stroke="#000000" stroke-width="1.00"/>
<circle cx="181.54" cy="171.28" r="18.46" fill="#cccccc" stroke="#000000" stroke-width="1.00"/>
<circle cx="94.50" cy="338.09" r="18.46" fill="#cccccc" stroke="#000000" stroke-width="1.00"/>
<circle cx="204.58" cy="338.49" r="18.46" fill="#cccccc" stroke="#000000" stroke-width="1.00"/>
<circle cx="149.54" cy="189.70" r="18.46" fill="#cccccc" stroke="#000000" stroke-width="1.00"/>
<circle cx="29.54" cy="29.65" r="18.46" fill="#cccccc" stroke="#000000" stroke-width="1.00"/>
<circle cx="62.95" cy="245.07" r="18.46" fill="#cccccc" stroke="#000000" stroke-width="1.00"/>
<circle cx="164.36" cy="239.77" r="18.46" fill="#cccccc" stroke="#000000" stroke-width="1.00"/>
<circle cx="95.37" cy="190.48" r="18.46" fill="#cccccc" stroke="#000000" stroke-width="1.00"/>
<circle cx="297.12" cy="303.27" r="18.46" fill="#cccccc" stroke="#000000" stroke-width="1.00"/>
<circle cx="296.88" cy="370.46" r="18.46" fill="#cccccc" stroke="#000000" stroke-width="1.00"/>
<circle cx="62.95" cy="282.00" r="18.46" fill="#cccccc" stroke="#000000" stroke-width="1.00"/>
<circle cx="29.54" cy="260.78" r="18.46" fill="#cccccc" stroke="#000000" stroke-width="1.00"/>
<circle cx="183.44" cy="208.15" r="18.46" fill="#cccccc" stroke="#000000" stroke-width="1.00"/>
<circle cx="29.54" cy="103.47" r="18.46" fill="#cccccc" stroke="#000000" stroke-width="1.00"/>
<circle cx="133.12" cy="296.37" r="18.46" fill="#cccccc" stroke="#000000" stroke-width="1.00"/>
<circle cx="96.52" cy="301.23" r="18.46" fill="#cccccc" stroke="#000000" stroke-width="1.00"/>
<circle cx="95.37" cy="264.32" r="18.46" fill="#cccccc" stroke="#000000" stroke-width="1.00"/>
<circle cx="89.79" cy="145.87" r="18.46" fill="#cccccc" stroke="#000000" stroke-width="1.00"/>
<circle cx="131.92" cy="259.07" r="18.46" fill="#cccccc" stroke="#000000" stroke-width="1.00"/>
<circle cx="271.22" cy="271.26" r="18.46" fill="#cccccc" stroke="#000000" stroke-width="1.00"/>
<circle cx="241.50" cy="338.49" r="18.46" fill="#cccccc" stroke="#000000" stroke-width="1.00"/>
<circle cx="181.51" cy="46.22" r="18.46" fill="#cccccc" stroke="#000000" stroke-width="1.00"/>
<circle cx="62.95" cy="171.23" r="18.46" fill="#cccccc" stroke="#000000" stroke-width="1.00"/>
<circle cx="270.68" cy="234.34" r="18.46" fill="#cccccc" stroke="#000000" stroke-width="1.00"/>
<circle cx="61.89" cy="85.68" r="18.46" fill="#cccccc" stroke="#000000" stroke-width="1.00"/>
<circle cx="149.19" cy="370.46" r="18.46" fill="#cccccc" stroke="#000000" stroke-width="1.00"/>
<circle cx="58.20" cy="126.75" r="18.46" fill="#cccccc" stroke="#000000" stroke-width="1.00"/>
<circle cx="186.22" cy="306.45" r="18.46" fill="#cccccc" stroke="#000000" stroke-width="1.00"/>
<circle cx="122.10" cy="165.00" r="18.46" fill="#cccccc" stroke="#000000" stroke-width="1.00"/>
<circle cx="337.51" cy="272.03" r="18.46" fill="#cccccc" stroke="#000000" stroke-width="1.00"/>
<circle cx="112.27" cy="370.46" r="18.46" fill="#cccccc" stroke="#000000" stroke-width="1.00"/>
<circle cx="29.54" cy="223.86" r="18.46" fill="#cccccc" stroke="#000000" stroke-width="1.00"/>
<circle cx="29.54" cy="150.02" r="18.46" fill="#cccccc" stroke="#000000" stroke-width="1.00"/>
<circle cx="304.02" cy="218.46" r="18.46" fill="#cccccc" stroke="#000000" stroke-width="1.00"/>
<circle cx="38.44" cy="370.46" r="18.46" fill="#cccccc" stroke="#000000" stroke-width="1.00"/>
<circle cx="109.48" cy="29.54" r="18.46" fill="#cccccc" stroke="#000000" stroke-width="1.00"/>
<circle cx="181.54" cy="84.96" r="18.46" fill="#cccccc" stroke="#000000" stroke-width="1.00"/>
<circle cx="154.09" cy="146.58" r="18.46" fill="#cccccc" stroke="#000000" stroke-width="1.00"/>
<circle cx="149.67" cy="66.32" r="18.46" fill="#cccccc" stroke="#000000" stroke-width="1.00"/>
<circle cx="204.68" cy="274.48" r="18.46" fill="#cccccc" stroke="#000000" stroke-width="1.00"/>
<circle cx="223.14" cy="306.45" r="18.46" fill="#cccccc" stroke="#000000" stroke-width="1.00"/>
<circle cx="146.41" cy="29.54" r="18.46" fill="#cccccc" stroke="#000000" stroke-width="1.00"/>
<circle cx="131.92" cy="222.15" r="18.46" fill="#cccccc" stroke="#000000" stroke-width="1.00"/>
<circle cx="259.96" cy="370.46" r="18.46" fill="#cccccc" stroke="#000000" stroke-width="1.00"/>
<circle cx="90.56" cy="108.95" r="18.46" fill="#cccccc" stroke="#000000" stroke-width="1.00"/>
<circle cx="260.06" cy="306.45" r="18.46" fill="#cccccc" stroke="#000000" stroke-width="1.00"/>
<circle cx="370.46" cy="292.30" r="18.46" fill="#cccccc" stroke="#000000" stroke-width="1.00"/>
<circle cx="75.36" cy="369.66" r="18.46" fill="#cccccc" stroke="#000000" stroke-width="1.00"/>
<circle cx="368.41" cy="329.17" r="18.46" fill="#cccccc" stroke="#000000" stroke-width="1.00"/>
<circle cx="87.97" cy="59.55" r="18.46" fill="#cccccc" stroke="#000000" stroke-width="1.00"/>
<circle cx="29.54" cy="186.94" r="18.46" fill="#cccccc" stroke="#000000" stroke-width="1.00"/>
<circle cx="131.11" cy="333.24" r="18.46" fill="#cccccc" stroke="#000000" stroke-width="1.00"/>
<circle cx="181.54" cy="121.88" r="18.46" fill="#cccccc" stroke="#000000" stroke-width="1.00"/>
<circle cx="66.46" cy="29.54" r="18.46" fill="#cccccc" stroke="#000000" stroke-width="1.00"/>
<circle cx="29.54" cy="334.63" r="18.46" fill="#cccccc" stroke="#000000" stroke-width="1.00"/>
<circle cx="30.31" cy="66.56" r="18.46" fill="#cccccc" stroke="#000000" stroke-width="1.00"/>
<circle cx="315.34" cy="338.49" r="18.46" fill="#cccccc" stroke="#000000" stroke-width="1.00"/>
<circle cx="62.95" cy="318.92" r="18.46" fill="#cccccc" stroke="#000000" stroke-width="1.00"/>
<circle cx="304.55" cy="255.38" r="18.46" fill="#cccccc" stroke="#000000" stroke-width="1.00"/>
<circle cx="337.51" cy="308.96" r="18.46" fill="#cccccc" stroke="#000000" stroke-width="1.00"/>
<circle cx="333.81" cy="370.46" r="18.46" fill="#cccccc" stroke="#000000" stroke-width="1.00"/>
<circle cx="122.14" cy="128.08" r="18.46" fill="#cccccc" stroke="#000000" stroke-width="1.00"/>
<circle cx="336.97" cy="235.11" r="18.46" fill="#cccccc" stroke="#000000" stroke-width="1.00"/>
<circle cx="370.46" cy="366.03" r="18.46" fill="#cccccc" stroke="#000000" stroke-width="1.00"/>
<circle cx="149.46" cy="103.24" r="18.46" fill="#cccccc" stroke="#000000" stroke-width="1.00"/>
<circle cx="278.42" cy="338.49" r="18.46" fill="#cccccc" stroke="#000000" stroke-width="1.00"/>
<circle cx="369.93" cy="218.46" r="18.46" fill="#cccccc" stroke="#000000" stroke-width="1.00"/>
<circle cx="29.54" cy="297.71" r="18.46" fill="#cccccc" stroke="#000000" stroke-width="1.00"/>
<circle cx="167.65" cy="338.49" r="18.46" fill="#cccccc" stroke="#000000" stroke-width="1.00"/>
<polygon points="11.08,388.92 388.92,388.92 388.92,200.00 200.00,200.00 200.00,11.08 11.08,11.08" fill="none" stroke="#000000" stroke-width="1.40"/>
</svg>