<svg xmlns="http://www.w3.org/2000/svg" width="400.0" height="400.0" viewBox="0 0 400.0 400.0">
<rect width="400.0" height="400.0" fill="white"/>
<circle cx="352.01" cy="338.75" r="18.32" fill="#cccccc" stroke="#000000" stroke-width="1.00"/>
<circle cx="370.68" cy="233.93" r="18.32" fill="#cccccc" stroke="#000000" stroke-width="1.00"/>
<circle cx="181.68" cy="90.86" r="18.32" fill="#cccccc" stroke="#000000" stroke-width="1.00"/>
<circle cx="181.68" cy="200.80" r="18.32" fill="#cccccc" stroke="#000000" stroke-width="1.00"/>
<circle cx="29.32" cy="102.19" r="18.32" fill="#cccccc" stroke="#000000" stroke-width="1.00"/>
<circle cx="213.86" cy="218.32" r="18.32" fill="#cccccc" stroke="#000000" stroke-width="1.00"/>
<circle cx="305.80" cy="236.66" r="18.32" fill="#cccccc" stroke="#000000" stroke-width="1.00"/>
<circle cx="148.00" cy="349.67" r="18.32" fill="#cccccc" stroke="#000000" stroke-width="1.00"/>
<circle cx="128.06" cy="318.92" r="18.32" fill="#cccccc" stroke="#000000" stroke-width="1.00"/>
<circle cx="93.92" cy="100.06" r="18.32" fill="#cccccc" stroke="#000000" stroke-width="1.00"/>
<circle cx="118.61" cy="201.48" r="18.32" fill="#cccccc" stroke="#000000" stroke-width="1.00"/>
<circle cx="44.69" cy="370.68" r="18.32" fill="#cccccc" stroke="#000000" stroke-width="1.00"/>
<circle cx="61.05" cy="209.16" r="18.32" fill="#cccccc" stroke="#000000" stroke-width="1.00"/>
<circle cx="370.68" cy="370.27" r="18.32" fill="#cccccc" stroke="#000000" stroke-width="1.00"/>
<circle cx="55.14" cy="164.83" r="18.32" fill="#cccccc" stroke="#000000" stroke-width="1.00"/>
<circle cx="125.66" cy="81.74" r="18.32" fill="#cccccc" stroke="#000000" stroke-width="1.00"/>
<circle cx="274.35" cy="342.19" r="18.32" fill="#cccccc" stroke="#000000" stroke-width="1.00"/>
<circle cx="292.32" cy="310.25" r="18.32" fill="#cccccc" stroke="#000000" stroke-width="1.00"/>
<circle cx="332.17" cy="305.95" r="18.32" fill="#cccccc" stroke="#000000" stroke-width="1.00"/>
<circle cx="29.32" cy="65.54" r="18.32" fill="#cccccc" stroke="#000000" stroke-width="1.00"/>
<circle cx="210.88" cy="260.58" r="18.32" fill="#cccccc" stroke="#000000" stroke-width="1.00"/>
<circle cx="29.32" cy="190.84" r="18.32" fill="#cccccc" stroke="#000000" stroke-width="1.00"/>
<circle cx="92.79" cy="300.77" r="18.32" fill="#cccccc" stroke="#000000" stroke-width="1.00"/>
<circle cx="370.68" cy="307.22" r="18.32" fill="#cccccc" stroke="#000000" stroke-width="1.00"/>
<circle cx="181.68" cy="164.15" r="18.32" fill="#cccccc" stroke="#000000" stroke-width="1.00"/>
<circle cx="29.32" cy="138.83" r="18.32" fill="#cccccc" stroke="#000000" stroke-width="1.00"/>
<circle cx="62.19" cy="118.39" r="18.32" fill="#cccccc" stroke="#000000" stroke-width="1.00"/>
<circle cx="93.92" cy="63.42" r="18.32" fill="#cccccc" stroke="#000000" stroke-width="1.00"/>
<circle cx="62.19" cy="81.74" r="18.32" fill="#cccccc" stroke="#000000" stroke-width="1.00"/>
<circle cx="61.05" cy="245.80" r="18.32" fill="#cccccc" stroke="#000000" stroke-width="1.00"/>
<circle cx="118.21" cy="164.15" r="18.32" fill="#cccccc" stroke="#000000" stroke-width="1.00"/>
<circle cx="92.79" cy="227.48" r="18.32" fill="#cccccc" stroke="#000000" stroke-width="1.00"/>
<circle cx="29.32" cy="300.77" r="18.32" fill="#cccccc" stroke="#000000" stroke-width="1.00"/>
<circle cx="117.98" cy="370.68" r="18.32" fill="#cccccc" stroke="#000000" stroke-width="1.00"/>
<circle cx="274.07" cy="218.32" r="18.32" fill="#cccccc" stroke="#000000" stroke-width="1.00"/>
<circle cx="181.12" cy="35.25" r="18.32" fill="#cccccc" stroke="#000000" stroke-width="1.00"/>
<circle cx="149.94" cy="182.48" r="18.32" fill="#cccccc" stroke="#000000" stroke-width="1.00"/>
<circle cx="71.09" cy="34.75" r="18.32" fill="#cccccc" stroke="#000000" stroke-width="1.00"/>
<circle cx="61.27" cy="319.48" r="18.32" fill="#cccccc" stroke="#000000" stroke-width="1.00"/>
<circle cx="29.32" cy="337.42" r="18.32" fill="#cccccc" stroke="#000000" stroke-width="1.00"/>
<circle cx="29.32" cy="264.13" r="18.32" fill="#cccccc" stroke="#000000" stroke-width="1.00"/>
<circle cx="181.68" cy="127.51" r="18.32" fill="#cccccc" stroke="#000000" stroke-width="1.00"/>
<circle cx="150.34" cy="219.80" r="18.32" fill="#cccccc" stroke="#000000" stroke-width="1.00"/>
<circle cx="96.33" cy="337.25" r="18.32" fill="#cccccc" stroke="#000000" stroke-width="1.00"/>
<circle cx="61.05" cy="282.45" r="18.32" fill="#cccccc" stroke="#000000" stroke-width="1.00"/>
<circle cx="92.79" cy="264.13" r="18.32" fill="#cccccc" stroke="#000000" stroke-width="1.00"/>
<circle cx="214.67" cy="370.68" r="18.32" fill="#cccccc" stroke="#000000" stroke-width="1.00"/>
<circle cx="244.18" cy="275.86" r="18.32" fill="#cccccc" stroke="#000000" stroke-width="1.00"/>
<circle cx="29.32" cy="227.48" r="18.32" fill="#cccccc" stroke="#000000" stroke-width="1.00"/>
<circle cx="308.32" cy="277.29" r="18.32" fill="#cccccc" stroke="#000000" stroke-width="1.00"/>
<circle cx="34.85" cy="29.32" r="18.32" fill="#cccccc" stroke="#000000" stroke-width="1.00"/>
<circle cx="185.05" cy="286.59" r="18.32" fill="#cccccc" stroke="#000000" stroke-width="1.00"/>
<circle cx="315.36" cy="338.75" r="18.32" fill="#cccccc" stroke="#000000" stroke-width="1.00"/>
<circle cx="255.68" cy="310.66" r="18.32" fill="#cccccc" stroke="#000000" stroke-width="1.00"/>
<circle cx="124.52" cy="282.45" r="18.32" fill="#cccccc" stroke="#000000" stroke-width="1.00"/>
<circle cx="337.53" cy="218.32" r="18.32" fill="#cccccc" stroke="#000000" stroke-width="1.00"/>
<circle cx="124.52" cy="245.80" r="18.32" fill="#cccccc" stroke="#000000" stroke-width="1.00"/>
<circle cx="337.47" cy="255.08" r="18.32" fill="#cccccc" stroke="#000000" stroke-width="1.00"/>
<circle cx="149.94" cy="145.83" r="18.32" fill="#cccccc" stroke="#000000" stroke-width="1.00"/>
<circle cx="156.65" cy="263.44" r="18.32" fill="#cccccc" stroke="#000000" stroke-width="1.00"/>
<circle cx="178.02" cy="370.68" r="18.32" fill="#cccccc" stroke="#000000" stroke-width="1.00"/>
<circle cx="118.21" cy="127.51" r="18.32" fill="#cccccc" stroke="#000000" stroke-width="1.00"/>
<circle cx="164.66" cy="317.03" r="18.32" fill="#cccccc" stroke="#000000" stroke-width="1.00"/>
<circle cx="334.04" cy="370.68" r="18.32" fill="#cccccc" stroke="#000000" stroke-width="1.00"/>
<circle cx="143.98" cy="29.32" r="18.32" fill="#cccccc" stroke="#000000" stroke-width="1.00"/>
<circle cx="107.33" cy="29.32" r="18.32" fill="#cccccc" stroke="#000000" stroke-width="1.00"/>
<circle cx="243.96" cy="239.22" r="18.32" fill="#cccccc" stroke="#000000" stroke-width="1.00"/>
<circle cx="297.40" cy="370.68" r="18.32" fill="#cccccc" stroke="#000000" stroke-width="1.00"/>
<circle cx="182.47" cy="237.43" r="18.32" fill="#cccccc" stroke="#000000" stroke-width="1.00"/>
<circle cx="194.68" cy="338.04" r="18.32" fill="#cccccc" stroke="#000000" stroke-width="1.00"/>
<circle cx="86.87" cy="183.16" r="18.32" fill="#cccccc" stroke="#000000" stroke-width="1.00"/>
<circle cx="149.94" cy="109.18" r="18.32" fill="#cccccc" stroke="#000000" stroke-width="1.00"/>
<circle cx="157.39" cy="63.42" r="18.32" fill="#cccccc" stroke="#000000" stroke-width="1.00"/>
<circle cx="81.33" cy="370.68" r="18.32" fill="#cccccc" stroke="#000000" stroke-width="1.00"/>
<circle cx="251.31" cy="370.68" r="18.32" fill="#cccccc" stroke="#000000" stroke-width="1.00"/>
<circle cx="86.47" cy="145.83" r="18.32" fill="#cccccc" stroke="#000000" stroke-width="1.00"/>
<circle cx="231.32" cy="338.04" r="18.32" fill="#cccccc" stroke="#000000" stroke-width="1.00"/>
<circle cx="370.68" cy="270.57" r="18.32" fill="#cccccc" stroke="#000000" stroke-width="1.00"/>
<circle cx="218.37" cy="301.91" r="18.32" fill="#cccccc" stroke="#000000" stroke-width="1.00"/>
<circle cx="276.65" cy="258.86" r="18.32" fill="#cccccc" stroke="#000000" stroke-width="1.00"/>
<polygon points="10.99,389.01 389.01,389.01 389.01,200.00 200.00,200.00 200.00,10.99 10.99,10.99" fill="none" stroke="#000000" stroke-width="1.40"/>
</svg>