<svg xmlns="http://www.w3.org/2000/svg" width="400.0" height="400.0" viewBox="0 0 400.0 400.0">
<rect width="400.0" height="400.0" fill="white"/>
<circle cx="348.20" cy="342.00" r="18.28" fill="#cccccc" stroke="#000000" stroke-width="1.00"/>
<circle cx="370.76" cy="249.93" r="18.28" fill="#cccccc" stroke="#000000" stroke-width="1.00"/>
<circle cx="181.72" cy="88.62" r="18.28" fill="#cccccc" stroke="#000000" stroke-width="1.00"/>
<circle cx="181.77" cy="201.36" r="18.28" fill="#cccccc" stroke="#000000" stroke-width="1.00"/>
<circle cx="29.24" cy="102.20" r="18.28" fill="#cccccc" stroke="#000000" stroke-width="1.00"/>
<circle cx="214.18" cy="218.28" r="18.28" fill="#cccccc" stroke="#000000" stroke-width="1.00"/>
<circle cx="315.93" cy="218.28" r="18.28" fill="#cccccc" stroke="#000000" stroke-width="1.00"/>
<circle cx="142.12" cy="365.06" r="18.28" fill="#cccccc" stroke="#000000" stroke-width="1.00"/>
<circle cx="125.19" cy="326.46" r="18.28" fill="#cccccc" stroke="#000000" stroke-width="1.00"/>
<circle cx="93.64" cy="100.23" r="18.28" fill="#cccccc" stroke="#000000" stroke-width="1.00"/>
<circle cx="118.72" cy="201.27" r="18.28" fill="#cccccc" stroke="#000000" stroke-width="1.00"/>
<circle cx="33.16" cy="370.76" r="18.28" fill="#cccccc" stroke="#000000" stroke-width="1.00"/>
<circle cx="60.90" cy="206.49" r="18.28" fill="#cccccc" stroke="#000000" stroke-width="1.00"/>
<circle cx="370.76" cy="370.76" r="18.28" fill="#cccccc" stroke="#000000" stroke-width="1.00"/>
<circle cx="56.16" cy="163.48" r="18.28" fill="#cccccc" stroke="#000000" stroke-width="1.00"/>
<circle cx="124.55" cy="80.72" r="18.28" fill="#cccccc" stroke="#000000" stroke-width="1.00"/>
<circle cx="270.81" cy="339.10" r="18.28" fill="#cccccc" stroke="#000000" stroke-width="1.00"/>
<circle cx="289.09" cy="307.45" r="18.28" fill="#cccccc" stroke="#000000" stroke-width="1.00"/>
<circle cx="329.92" cy="310.34" r="18.28" fill="#cccccc" stroke="#000000" stroke-width="1.00"/>
<circle cx="29.24" cy="65.65" r="18.28" fill="#cccccc" stroke="#000000" stroke-width="1.00"/>
<circle cx="196.69" cy="271.37" r="18.28" fill="#cccccc" stroke="#000000" stroke-width="1.00"/>
<circle cx="29.24" cy="188.21" r="18.28" fill="#cccccc" stroke="#000000" stroke-width="1.00"/>
<circle cx="96.56" cy="301.68" r="18.28" fill="#cccccc" stroke="#000000" stroke-width="1.00"/>
<circle cx="370.76" cy="313.24" r="18.28" fill="#cccccc" stroke="#000000" stroke-width="1.00"/>
<circle cx="181.72" cy="164.19" r="18.28" fill="#cccccc" stroke="#000000" stroke-width="1.00"/>
<circle cx="29.24" cy="138.75" r="18.28" fill="#cccccc" stroke="#000000" stroke-width="1.00"/>
<circle cx="61.29" cy="119.77" r="18.28" fill="#cccccc" stroke="#000000" stroke-width="1.00"/>
<circle cx="92.20" cy="63.71" r="18.28" fill="#cccccc" stroke="#000000" stroke-width="1.00"/>
<circle cx="61.29" cy="83.22" r="18.28" fill="#cccccc" stroke="#000000" stroke-width="1.00"/>
<circle cx="60.90" cy="243.04" r="18.28" fill="#cccccc" stroke="#000000" stroke-width="1.00"/>
<circle cx="119.37" cy="163.31" r="18.28" fill="#cccccc" stroke="#000000" stroke-width="1.00"/>
<circle cx="94.49" cy="228.63" r="18.28" fill="#cccccc" stroke="#000000" stroke-width="1.00"/>
<circle cx="29.24" cy="297.87" r="18.28" fill="#cccccc" stroke="#000000" stroke-width="1.00"/>
<circle cx="106.02" cy="370.76" r="18.28" fill="#cccccc" stroke="#000000" stroke-width="1.00"/>
<circle cx="270.81" cy="218.28" r="18.28" fill="#cccccc" stroke="#000000" stroke-width="1.00"/>
<circle cx="180.04" cy="29.24" r="18.28" fill="#cccccc" stroke="#000000" stroke-width="1.00"/>
<circle cx="150.28" cy="182.82" r="18.28" fill="#cccccc" stroke="#000000" stroke-width="1.00"/>
<circle cx="68.44" cy="35.94" r="18.28" fill="#cccccc" stroke="#000000" stroke-width="1.00"/>
<circle cx="60.90" cy="316.14" r="18.28" fill="#cccccc" stroke="#000000" stroke-width="1.00"/>
<circle cx="29.24" cy="334.42" r="18.28" fill="#cccccc" stroke="#000000" stroke-width="1.00"/>
<circle cx="29.24" cy="261.31" r="18.28" fill="#cccccc" stroke="#000000" stroke-width="1.00"/>
<circle cx="181.72" cy="125.17" r="18.28" fill="#cccccc" stroke="#000000" stroke-width="1.00"/>
<circle cx="150.22" cy="219.81" r="18.28" fill="#cccccc" stroke="#000000" stroke-width="1.00"/>
<circle cx="90.41" cy="337.71" r="18.28" fill="#cccccc" stroke="#000000" stroke-width="1.00"/>
<circle cx="60.90" cy="279.59" r="18.28" fill="#cccccc" stroke="#000000" stroke-width="1.00"/>
<circle cx="94.49" cy="265.19" r="18.28" fill="#cccccc" stroke="#000000" stroke-width="1.00"/>
<circle cx="215.98" cy="370.76" r="18.28" fill="#cccccc" stroke="#000000" stroke-width="1.00"/>
<circle cx="232.86" cy="276.65" r="18.28" fill="#cccccc" stroke="#000000" stroke-width="1.00"/>
<circle cx="29.24" cy="224.76" r="18.28" fill="#cccccc" stroke="#000000" stroke-width="1.00"/>
<circle cx="311.65" cy="278.69" r="18.28" fill="#cccccc" stroke="#000000" stroke-width="1.00"/>
<circle cx="32.50" cy="29.24" r="18.28" fill="#cccccc" stroke="#000000" stroke-width="1.00"/>
<circle cx="173.05" cy="299.25" r="18.28" fill="#cccccc" stroke="#000000" stroke-width="1.00"/>
<circle cx="307.36" cy="339.10" r="18.28" fill="#cccccc" stroke="#000000" stroke-width="1.00"/>
<circle cx="252.53" cy="307.45" r="18.28" fill="#cccccc" stroke="#000000" stroke-width="1.00"/>
<circle cx="131.34" cy="290.43" r="18.28" fill="#cccccc" stroke="#000000" stroke-width="1.00"/>
<circle cx="352.48" cy="218.28" r="18.28" fill="#cccccc" stroke="#000000" stroke-width="1.00"/>
<circle cx="126.58" cy="247.69" r="18.28" fill="#cccccc" stroke="#000000" stroke-width="1.00"/>
<circle cx="334.21" cy="249.93" r="18.28" fill="#cccccc" stroke="#000000" stroke-width="1.00"/>
<circle cx="150.82" cy="144.68" r="18.28" fill="#cccccc" stroke="#000000" stroke-width="1.00"/>
<circle cx="158.34" cy="265.79" r="18.28" fill="#cccccc" stroke="#000000" stroke-width="1.00"/>
<circle cx="178.23" cy="370.76" r="18.28" fill="#cccccc" stroke="#000000" stroke-width="1.00"/>
<circle cx="119.16" cy="126.40" r="18.28" fill="#cccccc" stroke="#000000" stroke-width="1.00"/>
<circle cx="161.00" cy="333.76" r="18.28" fill="#cccccc" stroke="#000000" stroke-width="1.00"/>
<circle cx="325.64" cy="370.76" r="18.28" fill="#cccccc" stroke="#000000" stroke-width="1.00"/>
<circle cx="140.92" cy="29.24" r="18.28" fill="#cccccc" stroke="#000000" stroke-width="1.00"/>
<circle cx="104.37" cy="29.24" r="18.28" fill="#cccccc" stroke="#000000" stroke-width="1.00"/>
<circle cx="242.49" cy="241.39" r="18.28" fill="#cccccc" stroke="#000000" stroke-width="1.00"/>
<circle cx="289.09" cy="370.76" r="18.28" fill="#cccccc" stroke="#000000" stroke-width="1.00"/>
<circle cx="181.98" cy="237.91" r="18.28" fill="#cccccc" stroke="#000000" stroke-width="1.00"/>
<circle cx="197.11" cy="339.46" r="18.28" fill="#cccccc" stroke="#000000" stroke-width="1.00"/>
<circle cx="87.81" cy="181.76" r="18.28" fill="#cccccc" stroke="#000000" stroke-width="1.00"/>
<circle cx="150.07" cy="106.89" r="18.28" fill="#cccccc" stroke="#000000" stroke-width="1.00"/>
<circle cx="156.21" cy="62.44" r="18.28" fill="#cccccc" stroke="#000000" stroke-width="1.00"/>
<circle cx="69.59" cy="367.75" r="18.28" fill="#cccccc" stroke="#000000" stroke-width="1.00"/>
<circle cx="252.53" cy="370.76" r="18.28" fill="#cccccc" stroke="#000000" stroke-width="1.00"/>
<circle cx="87.71" cy="145.03" r="18.28" fill="#cccccc" stroke="#000000" stroke-width="1.00"/>
<circle cx="233.65" cy="338.75" r="18.28" fill="#cccccc" stroke="#000000" stroke-width="1.00"/>
<circle cx="352.48" cy="281.59" r="18.28" fill="#cccccc" stroke="#000000" stroke-width="1.00"/>
<circle cx="210.20" cy="305.33" r="18.28" fill="#cccccc" stroke="#000000" stroke-width="1.00"/>
<circle cx="293.37" cy="247.03" r="18.28" fill="#cccccc" stroke="#000000" stroke-width="1.00"/>
<circle cx="270.76" cy="275.77" r="18.28" fill="#cccccc" stroke="#000000" stroke-width="1.00"/>
<polygon points="10.97,389.03 389.03,389.03 389.03,200.00 200.00,200.00 200.00,10.97 10.97,10.97" fill="none" stroke="#000000" stroke-width="1.40"/>
</svg>