<svg xmlns="http://www.w3.org/2000/svg" width="400.0" height="400.0" viewBox="0 0 400.0 400.0">
<rect width="400.0" height="400.0" fill="white"/>
<circle cx="29.18" cy="370.59" r="18.22" fill="#cccccc" stroke="#000000" stroke-width="1.00"/>
<circle cx="29.15" cy="332.77" r="18.22" fill="#cccccc" stroke="#000000" stroke-width="1.00"/>
<circle cx="60.71" cy="350.99" r="18.22" fill="#cccccc" stroke="#000000" stroke-width="1.00"/>
<circle cx="91.26" cy="370.85" r="18.22" fill="#cccccc" stroke="#000000" stroke-width="1.00"/>
<circle cx="60.71" cy="314.55" r="18.22" fill="#cccccc" stroke="#000000" stroke-width="1.00"/>
<circle cx="29.15" cy="296.33" r="18.22" fill="#cccccc" stroke="#000000" stroke-width="1.00"/>
<circle cx="92.27" cy="332.77" r="18.22" fill="#cccccc" stroke="#000000" stroke-width="1.00"/>
<circle cx="122.82" cy="352.63" r="18.22" fill="#cccccc" stroke="#000000" stroke-width="1.00"/>
<circle cx="58.74" cy="275.06" r="18.22" fill="#cccccc" stroke="#000000" stroke-width="1.00"/>
<circle cx="90.30" cy="293.28" r="18.22" fill="#cccccc" stroke="#000000" stroke-width="1.00"/>
<circle cx="29.15" cy="253.78" r="18.22" fill="#cccccc" stroke="#000000" stroke-width="1.00"/>
<circle cx="121.86" cy="311.50" r="18.22" fill="#cccccc" stroke="#000000" stroke-width="1.00"/>
<circle cx="154.38" cy="370.85" r="18.22" fill="#cccccc" stroke="#000000" stroke-width="1.00"/>
<circle cx="90.30" cy="256.84" r="18.22" fill="#cccccc" stroke="#000000" stroke-width="1.00"/>
<circle cx="60.71" cy="235.56" r="18.22" fill="#cccccc" stroke="#000000" stroke-width="1.00"/>
<circle cx="152.41" cy="331.36" r="18.22" fill="#cccccc" stroke="#000000" stroke-width="1.00"/>
<circle cx="121.86" cy="275.06" r="18.22" fill="#cccccc" stroke="#000000" stroke-width="1.00"/>
<circle cx="29.15" cy="217.34" r="18.22" fill="#cccccc" stroke="#000000" stroke-width="1.00"/>
<circle cx="153.41" cy="293.28" r="18.22" fill="#cccccc" stroke="#000000" stroke-width="1.00"/>
<circle cx="183.97" cy="349.58" r="18.22" fill="#cccccc" stroke="#000000" stroke-width="1.00"/>
<circle cx="92.27" cy="217.34" r="18.22" fill="#cccccc" stroke="#000000" stroke-width="1.00"/>
<circle cx="121.86" cy="238.62" r="18.22" fill="#cccccc" stroke="#000000" stroke-width="1.00"/>
<circle cx="60.71" cy="199.12" r="18.22" fill="#cccccc" stroke="#000000" stroke-width="1.00"/>
<circle cx="183.97" cy="313.14" r="18.22" fill="#cccccc" stroke="#000000" stroke-width="1.00"/>
<circle cx="153.41" cy="256.84" r="18.22" fill="#cccccc" stroke="#000000" stroke-width="1.00"/>
<circle cx="29.15" cy="180.90" r="18.22" fill="#cccccc" stroke="#000000" stroke-width="1.00"/>
<circle cx="185.33" cy="274.42" r="18.22" fill="#cccccc" stroke="#000000" stroke-width="1.00"/>
<circle cx="213.55" cy="370.85" r="18.22" fill="#cccccc" stroke="#000000" stroke-width="1.00"/>
<circle cx="125.46" cy="195.95" r="18.22" fill="#cccccc" stroke="#000000" stroke-width="1.00"/>
<circle cx="215.52" cy="331.36" r="18.22" fill="#cccccc" stroke="#000000" stroke-width="1.00"/>
<circle cx="92.27" cy="180.90" r="18.22" fill="#cccccc" stroke="#000000" stroke-width="1.00"/>
<circle cx="153.04" cy="219.76" r="18.22" fill="#cccccc" stroke="#000000" stroke-width="1.00"/>
<circle cx="60.71" cy="162.68" r="18.22" fill="#cccccc" stroke="#000000" stroke-width="1.00"/>
<circle cx="215.49" cy="294.87" r="18.22" fill="#cccccc" stroke="#000000" stroke-width="1.00"/>
<circle cx="184.60" cy="237.98" r="18.22" fill="#cccccc" stroke="#000000" stroke-width="1.00"/>
<circle cx="29.15" cy="144.46" r="18.22" fill="#cccccc" stroke="#000000" stroke-width="1.00"/>
<circle cx="245.11" cy="352.63" r="18.22" fill="#cccccc" stroke="#000000" stroke-width="1.00"/>
<circle cx="216.97" cy="254.71" r="18.22" fill="#cccccc" stroke="#000000" stroke-width="1.00"/>
<circle cx="121.90" cy="159.69" r="18.22" fill="#cccccc" stroke="#000000" stroke-width="1.00"/>
<circle cx="156.50" cy="171.12" r="18.22" fill="#cccccc" stroke="#000000" stroke-width="1.00"/>
<circle cx="247.05" cy="313.09" r="18.22" fill="#cccccc" stroke="#000000" stroke-width="1.00"/>
<circle cx="90.34" cy="141.47" r="18.22" fill="#cccccc" stroke="#000000" stroke-width="1.00"/>
<circle cx="181.78" cy="197.36" r="18.22" fill="#cccccc" stroke="#000000" stroke-width="1.00"/>
<circle cx="58.78" cy="123.25" r="18.22" fill="#cccccc" stroke="#000000" stroke-width="1.00"/>
<circle cx="246.62" cy="275.91" r="18.22" fill="#cccccc" stroke="#000000" stroke-width="1.00"/>
<circle cx="215.21" cy="218.22" r="18.22" fill="#cccccc" stroke="#000000" stroke-width="1.00"/>
<circle cx="276.67" cy="370.85" r="18.22" fill="#cccccc" stroke="#000000" stroke-width="1.00"/>
<circle cx="29.15" cy="102.03" r="18.22" fill="#cccccc" stroke="#000000" stroke-width="1.00"/>
<circle cx="276.64" cy="334.36" r="18.22" fill="#cccccc" stroke="#000000" stroke-width="1.00"/>
<circle cx="181.78" cy="144.87" r="18.22" fill="#cccccc" stroke="#000000" stroke-width="1.00"/>
<circle cx="147.18" cy="133.45" r="18.22" fill="#cccccc" stroke="#000000" stroke-width="1.00"/>
<circle cx="247.59" cy="234.95" r="18.22" fill="#cccccc" stroke="#000000" stroke-width="1.00"/>
<circle cx="115.62" cy="115.23" r="18.22" fill="#cccccc" stroke="#000000" stroke-width="1.00"/>
<circle cx="278.17" cy="294.13" r="18.22" fill="#cccccc" stroke="#000000" stroke-width="1.00"/>
<circle cx="84.06" cy="97.01" r="18.22" fill="#cccccc" stroke="#000000" stroke-width="1.00"/>
<circle cx="277.23" cy="256.14" r="18.22" fill="#cccccc" stroke="#000000" stroke-width="1.00"/>
<circle cx="308.20" cy="352.58" r="18.22" fill="#cccccc" stroke="#000000" stroke-width="1.00"/>
<circle cx="181.78" cy="108.43" r="18.22" fill="#cccccc" stroke="#000000" stroke-width="1.00"/>
<circle cx="29.15" cy="65.59" r="18.22" fill="#cccccc" stroke="#000000" stroke-width="1.00"/>
<circle cx="307.76" cy="315.40" r="18.22" fill="#cccccc" stroke="#000000" stroke-width="1.00"/>
<circle cx="147.18" cy="97.01" r="18.22" fill="#cccccc" stroke="#000000" stroke-width="1.00"/>
<circle cx="279.96" cy="218.22" r="18.22" fill="#cccccc" stroke="#000000" stroke-width="1.00"/>
<circle cx="115.62" cy="78.79" r="18.22" fill="#cccccc" stroke="#000000" stroke-width="1.00"/>
<circle cx="309.70" cy="275.86" r="18.22" fill="#cccccc" stroke="#000000" stroke-width="1.00"/>
<circle cx="65.59" cy="65.59" r="18.22" fill="#cccccc" stroke="#000000" stroke-width="1.00"/>
<circle cx="339.73" cy="370.85" r="18.22" fill="#cccccc" stroke="#000000" stroke-width="1.00"/>
<circle cx="309.60" cy="239.42" r="18.22" fill="#cccccc" stroke="#000000" stroke-width="1.00"/>
<circle cx="339.32" cy="333.62" r="18.22" fill="#cccccc" stroke="#000000" stroke-width="1.00"/>
<circle cx="181.78" cy="71.99" r="18.22" fill="#cccccc" stroke="#000000" stroke-width="1.00"/>
<circle cx="339.29" cy="297.13" r="18.22" fill="#cccccc" stroke="#000000" stroke-width="1.00"/>
<circle cx="29.15" cy="29.15" r="18.22" fill="#cccccc" stroke="#000000" stroke-width="1.00"/>
<circle cx="147.18" cy="60.57" r="18.22" fill="#cccccc" stroke="#000000" stroke-width="1.00"/>
<circle cx="97.15" cy="47.37" r="18.22" fill="#cccccc" stroke="#000000" stroke-width="1.00"/>
<circle cx="341.26" cy="257.64" r="18.22" fill="#cccccc" stroke="#000000" stroke-width="1.00"/>
<circle cx="370.85" cy="351.89" r="18.22" fill="#cccccc" stroke="#000000" stroke-width="1.00"/>
<circle cx="65.59" cy="29.15" r="18.22" fill="#cccccc" stroke="#000000" stroke-width="1.00"/>
<circle cx="339.25" cy="218.22" r="18.22" fill="#cccccc" stroke="#000000" stroke-width="1.00"/>
<circle cx="370.85" cy="315.35" r="18.22" fill="#cccccc" stroke="#000000" stroke-width="1.00"/>
<circle cx="176.31" cy="30.86" r="18.22" fill="#cccccc" stroke="#000000" stroke-width="1.00"/>
<circle cx="370.85" cy="278.91" r="18.22" fill="#cccccc" stroke="#000000" stroke-width="1.00"/>
<circle cx="128.71" cy="29.15" r="18.22" fill="#cccccc" stroke="#000000" stroke-width="1.00"/>
<circle cx="370.85" cy="236.36" r="18.22" fill="#cccccc" stroke="#000000" stroke-width="1.00"/>
<polygon points="10.93,389.07 389.07,389.07 389.07,200.00 200.00,200.00 200.00,10.93 10.93,10.93" fill="none" stroke="#000000" stroke-width="1.40"/>
</svg>