<svg xmlns="http://www.w3.org/2000/svg" width="400.0" height="400.0" viewBox="0 0 400.0 400.0">
<rect width="400.0" height="400.0" fill="white"/>
<circle cx="29.13" cy="370.87" r="18.20" fill="#cccccc" stroke="#000000" stroke-width="1.00"/>
<circle cx="29.13" cy="334.26" r="18.20" fill="#cccccc" stroke="#000000" stroke-width="1.00"/>
<circle cx="60.60" cy="352.57" r="18.20" fill="#cccccc" stroke="#000000" stroke-width="1.00"/>
<circle cx="92.07" cy="370.87" r="18.20" fill="#cccccc" stroke="#000000" stroke-width="1.00"/>
<circle cx="60.66" cy="316.05" r="18.20" fill="#cccccc" stroke="#000000" stroke-width="1.00"/>
<circle cx="29.13" cy="297.85" r="18.20" fill="#cccccc" stroke="#000000" stroke-width="1.00"/>
<circle cx="92.13" cy="334.36" r="18.20" fill="#cccccc" stroke="#000000" stroke-width="1.00"/>
<circle cx="123.60" cy="352.67" r="18.20" fill="#cccccc" stroke="#000000" stroke-width="1.00"/>
<circle cx="60.66" cy="279.65" r="18.20" fill="#cccccc" stroke="#000000" stroke-width="1.00"/>
<circle cx="92.19" cy="297.85" r="18.20" fill="#cccccc" stroke="#000000" stroke-width="1.00"/>
<circle cx="29.13" cy="261.44" r="18.20" fill="#cccccc" stroke="#000000" stroke-width="1.00"/>
<circle cx="123.66" cy="316.16" r="18.20" fill="#cccccc" stroke="#000000" stroke-width="1.00"/>
<circle cx="155.13" cy="370.87" r="18.20" fill="#cccccc" stroke="#000000" stroke-width="1.00"/>
<circle cx="92.19" cy="261.44" r="18.20" fill="#cccccc" stroke="#000000" stroke-width="1.00"/>
<circle cx="60.66" cy="243.24" r="18.20" fill="#cccccc" stroke="#000000" stroke-width="1.00"/>
<circle cx="155.13" cy="334.46" r="18.20" fill="#cccccc" stroke="#000000" stroke-width="1.00"/>
<circle cx="123.72" cy="279.65" r="18.20" fill="#cccccc" stroke="#000000" stroke-width="1.00"/>
<circle cx="29.13" cy="225.03" r="18.20" fill="#cccccc" stroke="#000000" stroke-width="1.00"/>
<circle cx="155.19" cy="297.95" r="18.20" fill="#cccccc" stroke="#000000" stroke-width="1.00"/>
<circle cx="186.66" cy="352.67" r="18.20" fill="#cccccc" stroke="#000000" stroke-width="1.00"/>
<circle cx="87.81" cy="218.98" r="18.20" fill="#cccccc" stroke="#000000" stroke-width="1.00"/>
<circle cx="119.34" cy="237.18" r="18.20" fill="#cccccc" stroke="#000000" stroke-width="1.00"/>
<circle cx="56.27" cy="200.77" r="18.20" fill="#cccccc" stroke="#000000" stroke-width="1.00"/>
<circle cx="186.66" cy="316.26" r="18.20" fill="#cccccc" stroke="#000000" stroke-width="1.00"/>
<circle cx="150.87" cy="255.39" r="18.20" fill="#cccccc" stroke="#000000" stroke-width="1.00"/>
<circle cx="29.13" cy="176.51" r="18.20" fill="#cccccc" stroke="#000000" stroke-width="1.00"/>
<circle cx="182.34" cy="273.69" r="18.20" fill="#cccccc" stroke="#000000" stroke-width="1.00"/>
<circle cx="218.19" cy="370.87" r="18.20" fill="#cccccc" stroke="#000000" stroke-width="1.00"/>
<circle cx="119.34" cy="200.77" r="18.20" fill="#cccccc" stroke="#000000" stroke-width="1.00"/>
<circle cx="218.19" cy="334.46" r="18.20" fill="#cccccc" stroke="#000000" stroke-width="1.00"/>
<circle cx="87.81" cy="182.57" r="18.20" fill="#cccccc" stroke="#000000" stroke-width="1.00"/>
<circle cx="150.87" cy="218.98" r="18.20" fill="#cccccc" stroke="#000000" stroke-width="1.00"/>
<circle cx="60.66" cy="158.31" r="18.20" fill="#cccccc" stroke="#000000" stroke-width="1.00"/>
<circle cx="213.81" cy="292.00" r="18.20" fill="#cccccc" stroke="#000000" stroke-width="1.00"/>
<circle cx="182.40" cy="237.18" r="18.20" fill="#cccccc" stroke="#000000" stroke-width="1.00"/>
<circle cx="29.13" cy="140.10" r="18.20" fill="#cccccc" stroke="#000000" stroke-width="1.00"/>
<circle cx="250.11" cy="353.36" r="18.20" fill="#cccccc" stroke="#000000" stroke-width="1.00"/>
<circle cx="213.87" cy="255.49" r="18.20" fill="#cccccc" stroke="#000000" stroke-width="1.00"/>
<circle cx="118.73" cy="163.36" r="18.20" fill="#cccccc" stroke="#000000" stroke-width="1.00"/>
<circle cx="150.27" cy="181.57" r="18.20" fill="#cccccc" stroke="#000000" stroke-width="1.00"/>
<circle cx="245.34" cy="310.20" r="18.20" fill="#cccccc" stroke="#000000" stroke-width="1.00"/>
<circle cx="91.59" cy="139.10" r="18.20" fill="#cccccc" stroke="#000000" stroke-width="1.00"/>
<circle cx="181.80" cy="199.77" r="18.20" fill="#cccccc" stroke="#000000" stroke-width="1.00"/>
<circle cx="60.06" cy="120.90" r="18.20" fill="#cccccc" stroke="#000000" stroke-width="1.00"/>
<circle cx="245.34" cy="273.80" r="18.20" fill="#cccccc" stroke="#000000" stroke-width="1.00"/>
<circle cx="213.47" cy="218.20" r="18.20" fill="#cccccc" stroke="#000000" stroke-width="1.00"/>
<circle cx="282.03" cy="370.87" r="18.20" fill="#cccccc" stroke="#000000" stroke-width="1.00"/>
<circle cx="29.13" cy="101.69" r="18.20" fill="#cccccc" stroke="#000000" stroke-width="1.00"/>
<circle cx="276.95" cy="328.76" r="18.20" fill="#cccccc" stroke="#000000" stroke-width="1.00"/>
<circle cx="181.80" cy="163.36" r="18.20" fill="#cccccc" stroke="#000000" stroke-width="1.00"/>
<circle cx="150.27" cy="145.16" r="18.20" fill="#cccccc" stroke="#000000" stroke-width="1.00"/>
<circle cx="244.94" cy="236.51" r="18.20" fill="#cccccc" stroke="#000000" stroke-width="1.00"/>
<circle cx="123.12" cy="120.90" r="18.20" fill="#cccccc" stroke="#000000" stroke-width="1.00"/>
<circle cx="277.07" cy="292.35" r="18.20" fill="#cccccc" stroke="#000000" stroke-width="1.00"/>
<circle cx="95.28" cy="97.39" r="18.20" fill="#cccccc" stroke="#000000" stroke-width="1.00"/>
<circle cx="276.41" cy="254.82" r="18.20" fill="#cccccc" stroke="#000000" stroke-width="1.00"/>
<circle cx="309.56" cy="347.05" r="18.20" fill="#cccccc" stroke="#000000" stroke-width="1.00"/>
<circle cx="181.79" cy="126.90" r="18.20" fill="#cccccc" stroke="#000000" stroke-width="1.00"/>
<circle cx="29.13" cy="65.28" r="18.20" fill="#cccccc" stroke="#000000" stroke-width="1.00"/>
<circle cx="308.54" cy="310.66" r="18.20" fill="#cccccc" stroke="#000000" stroke-width="1.00"/>
<circle cx="145.42" cy="92.12" r="18.20" fill="#cccccc" stroke="#000000" stroke-width="1.00"/>
<circle cx="276.41" cy="218.20" r="18.20" fill="#cccccc" stroke="#000000" stroke-width="1.00"/>
<circle cx="125.81" cy="61.45" r="18.20" fill="#cccccc" stroke="#000000" stroke-width="1.00"/>
<circle cx="307.93" cy="273.04" r="18.20" fill="#cccccc" stroke="#000000" stroke-width="1.00"/>
<circle cx="89.40" cy="61.45" r="18.20" fill="#cccccc" stroke="#000000" stroke-width="1.00"/>
<circle cx="337.09" cy="370.87" r="18.20" fill="#cccccc" stroke="#000000" stroke-width="1.00"/>
<circle cx="307.88" cy="236.51" r="18.20" fill="#cccccc" stroke="#000000" stroke-width="1.00"/>
<circle cx="343.34" cy="333.48" r="18.20" fill="#cccccc" stroke="#000000" stroke-width="1.00"/>
<circle cx="181.80" cy="90.47" r="18.20" fill="#cccccc" stroke="#000000" stroke-width="1.00"/>
<circle cx="339.40" cy="291.34" r="18.20" fill="#cccccc" stroke="#000000" stroke-width="1.00"/>
<circle cx="33.42" cy="29.13" r="18.20" fill="#cccccc" stroke="#000000" stroke-width="1.00"/>
<circle cx="162.18" cy="59.80" r="18.20" fill="#cccccc" stroke="#000000" stroke-width="1.00"/>
<circle cx="106.16" cy="29.13" r="18.20" fill="#cccccc" stroke="#000000" stroke-width="1.00"/>
<circle cx="339.40" cy="254.73" r="18.20" fill="#cccccc" stroke="#000000" stroke-width="1.00"/>
<circle cx="370.87" cy="357.30" r="18.20" fill="#cccccc" stroke="#000000" stroke-width="1.00"/>
<circle cx="69.79" cy="30.78" r="18.20" fill="#cccccc" stroke="#000000" stroke-width="1.00"/>
<circle cx="339.35" cy="218.20" r="18.20" fill="#cccccc" stroke="#000000" stroke-width="1.00"/>
<circle cx="370.87" cy="309.65" r="18.20" fill="#cccccc" stroke="#000000" stroke-width="1.00"/>
<circle cx="181.80" cy="29.13" r="18.20" fill="#cccccc" stroke="#000000" stroke-width="1.00"/>
<circle cx="370.87" cy="273.04" r="18.20" fill="#cccccc" stroke="#000000" stroke-width="1.00"/>
<circle cx="142.57" cy="29.13" r="18.20" fill="#cccccc" stroke="#000000" stroke-width="1.00"/>
<circle cx="370.87" cy="236.42" r="18.20" fill="#cccccc" stroke="#000000" stroke-width="1.00"/>
<circle cx="61.23" cy="84.51" r="18.20" fill="#cccccc" stroke="#000000" stroke-width="1.00"/>
<polygon points="10.92,389.08 389.08,389.08 389.08,200.00 200.00,200.00 200.00,10.92 10.92,10.92" fill="none" stroke="#000000" stroke-width="1.40"/>
</svg>