<svg xmlns="http://www.w3.org/2000/svg" width="400.0" height="400.0" viewBox="0 0 400.0 400.0">
<rect width="400.0" height="400.0" fill="white"/>
<circle cx="178.59" cy="371.17" r="18.02" fill="#cccccc" stroke="#000000" stroke-width="1.00"/>
<circle cx="160.50" cy="215.14" r="18.02" fill="#cccccc" stroke="#000000" stroke-width="1.00"/>
<circle cx="28.83" cy="312.22" r="18.02" fill="#cccccc" stroke="#000000" stroke-width="1.00"/>
<circle cx="82.97" cy="218.62" r="18.02" fill="#cccccc" stroke="#000000" stroke-width="1.00"/>
<circle cx="304.03" cy="254.06" r="18.02" fill="#cccccc" stroke="#000000" stroke-width="1.00"/>
<circle cx="28.83" cy="151.41" r="18.02" fill="#cccccc" stroke="#000000" stroke-width="1.00"/>
<circle cx="122.41" cy="60.05" r="18.02" fill="#cccccc" stroke="#000000" stroke-width="1.00"/>
<circle cx="46.85" cy="120.20" r="18.02" fill="#cccccc" stroke="#000000" stroke-width="1.00"/>
<circle cx="302.99" cy="327.78" r="18.02" fill="#cccccc" stroke="#000000" stroke-width="1.00"/>
<circle cx="28.83" cy="88.98" r="18.02" fill="#cccccc" stroke="#000000" stroke-width="1.00"/>
<circle cx="28.83" cy="187.45" r="18.02" fill="#cccccc" stroke="#000000" stroke-width="1.00"/>
<circle cx="178.59" cy="308.74" r="18.02" fill="#cccccc" stroke="#000000" stroke-width="1.00"/>
<circle cx="143.19" cy="89.50" r="18.02" fill="#cccccc" stroke="#000000" stroke-width="1.00"/>
<circle cx="142.55" cy="308.74" r="18.02" fill="#cccccc" stroke="#000000" stroke-width="1.00"/>
<circle cx="236.95" cy="218.02" r="18.02" fill="#cccccc" stroke="#000000" stroke-width="1.00"/>
<circle cx="264.05" cy="304.21" r="18.02" fill="#cccccc" stroke="#000000" stroke-width="1.00"/>
<circle cx="104.39" cy="91.26" r="18.02" fill="#cccccc" stroke="#000000" stroke-width="1.00"/>
<circle cx="142.55" cy="371.17" r="18.02" fill="#cccccc" stroke="#000000" stroke-width="1.00"/>
<circle cx="370.40" cy="369.52" r="18.02" fill="#cccccc" stroke="#000000" stroke-width="1.00"/>
<circle cx="297.59" cy="291.02" r="18.02" fill="#cccccc" stroke="#000000" stroke-width="1.00"/>
<circle cx="371.17" cy="218.02" r="18.02" fill="#cccccc" stroke="#000000" stroke-width="1.00"/>
<circle cx="125.17" cy="120.71" r="18.02" fill="#cccccc" stroke="#000000" stroke-width="1.00"/>
<circle cx="214.63" cy="308.74" r="18.02" fill="#cccccc" stroke="#000000" stroke-width="1.00"/>
<circle cx="250.67" cy="371.17" r="18.02" fill="#cccccc" stroke="#000000" stroke-width="1.00"/>
<circle cx="181.98" cy="87.74" r="18.02" fill="#cccccc" stroke="#000000" stroke-width="1.00"/>
<circle cx="64.95" cy="249.84" r="18.02" fill="#cccccc" stroke="#000000" stroke-width="1.00"/>
<circle cx="270.49" cy="231.21" r="18.02" fill="#cccccc" stroke="#000000" stroke-width="1.00"/>
<circle cx="68.29" cy="91.22" r="18.02" fill="#cccccc" stroke="#000000" stroke-width="1.00"/>
<circle cx="304.03" cy="218.02" r="18.02" fill="#cccccc" stroke="#000000" stroke-width="1.00"/>
<circle cx="365.75" cy="289.69" r="18.02" fill="#cccccc" stroke="#000000" stroke-width="1.00"/>
<circle cx="214.63" cy="371.17" r="18.02" fill="#cccccc" stroke="#000000" stroke-width="1.00"/>
<circle cx="181.98" cy="150.16" r="18.02" fill="#cccccc" stroke="#000000" stroke-width="1.00"/>
<circle cx="140.43" cy="28.83" r="18.02" fill="#cccccc" stroke="#000000" stroke-width="1.00"/>
<circle cx="86.37" cy="60.05" r="18.02" fill="#cccccc" stroke="#000000" stroke-width="1.00"/>
<circle cx="46.85" cy="218.66" r="18.02" fill="#cccccc" stroke="#000000" stroke-width="1.00"/>
<circle cx="28.88" cy="28.83" r="18.02" fill="#cccccc" stroke="#000000" stroke-width="1.00"/>
<circle cx="286.71" cy="371.17" r="18.02" fill="#cccccc" stroke="#000000" stroke-width="1.00"/>
<circle cx="236.95" cy="280.45" r="18.02" fill="#cccccc" stroke="#000000" stroke-width="1.00"/>
<circle cx="68.35" cy="28.83" r="18.02" fill="#cccccc" stroke="#000000" stroke-width="1.00"/>
<circle cx="103.71" cy="248.10" r="18.02" fill="#cccccc" stroke="#000000" stroke-width="1.00"/>
<circle cx="70.32" cy="371.17" r="18.02" fill="#cccccc" stroke="#000000" stroke-width="1.00"/>
<circle cx="85.69" cy="279.31" r="18.02" fill="#cccccc" stroke="#000000" stroke-width="1.00"/>
<circle cx="200.91" cy="218.02" r="18.02" fill="#cccccc" stroke="#000000" stroke-width="1.00"/>
<circle cx="163.96" cy="118.95" r="18.02" fill="#cccccc" stroke="#000000" stroke-width="1.00"/>
<circle cx="139.75" cy="185.67" r="18.02" fill="#cccccc" stroke="#000000" stroke-width="1.00"/>
<circle cx="49.58" cy="341.69" r="18.02" fill="#cccccc" stroke="#000000" stroke-width="1.00"/>
<circle cx="46.93" cy="281.05" r="18.02" fill="#cccccc" stroke="#000000" stroke-width="1.00"/>
<circle cx="88.41" cy="340.00" r="18.02" fill="#cccccc" stroke="#000000" stroke-width="1.00"/>
<circle cx="64.87" cy="187.45" r="18.02" fill="#cccccc" stroke="#000000" stroke-width="1.00"/>
<circle cx="331.67" cy="302.74" r="18.02" fill="#cccccc" stroke="#000000" stroke-width="1.00"/>
<circle cx="142.47" cy="246.36" r="18.02" fill="#cccccc" stroke="#000000" stroke-width="1.00"/>
<circle cx="371.17" cy="254.06" r="18.02" fill="#cccccc" stroke="#000000" stroke-width="1.00"/>
<circle cx="218.93" cy="249.23" r="18.02" fill="#cccccc" stroke="#000000" stroke-width="1.00"/>
<circle cx="268.69" cy="339.95" r="18.02" fill="#cccccc" stroke="#000000" stroke-width="1.00"/>
<circle cx="121.73" cy="216.88" r="18.02" fill="#cccccc" stroke="#000000" stroke-width="1.00"/>
<circle cx="67.67" cy="310.52" r="18.02" fill="#cccccc" stroke="#000000" stroke-width="1.00"/>
<circle cx="322.75" cy="371.17" r="18.02" fill="#cccccc" stroke="#000000" stroke-width="1.00"/>
<circle cx="100.99" cy="187.41" r="18.02" fill="#cccccc" stroke="#000000" stroke-width="1.00"/>
<circle cx="232.65" cy="339.95" r="18.02" fill="#cccccc" stroke="#000000" stroke-width="1.00"/>
<circle cx="371.17" cy="325.33" r="18.02" fill="#cccccc" stroke="#000000" stroke-width="1.00"/>
<circle cx="160.57" cy="277.53" r="18.02" fill="#cccccc" stroke="#000000" stroke-width="1.00"/>
<circle cx="28.83" cy="371.17" r="18.02" fill="#cccccc" stroke="#000000" stroke-width="1.00"/>
<circle cx="104.39" cy="28.83" r="18.02" fill="#cccccc" stroke="#000000" stroke-width="1.00"/>
<circle cx="64.87" cy="151.41" r="18.02" fill="#cccccc" stroke="#000000" stroke-width="1.00"/>
<circle cx="124.53" cy="339.95" r="18.02" fill="#cccccc" stroke="#000000" stroke-width="1.00"/>
<circle cx="107.08" cy="151.89" r="18.02" fill="#cccccc" stroke="#000000" stroke-width="1.00"/>
<circle cx="196.61" cy="277.53" r="18.02" fill="#cccccc" stroke="#000000" stroke-width="1.00"/>
<circle cx="86.31" cy="122.44" r="18.02" fill="#cccccc" stroke="#000000" stroke-width="1.00"/>
<circle cx="106.43" cy="308.78" r="18.02" fill="#cccccc" stroke="#000000" stroke-width="1.00"/>
<circle cx="160.57" cy="339.95" r="18.02" fill="#cccccc" stroke="#000000" stroke-width="1.00"/>
<circle cx="337.60" cy="267.19" r="18.02" fill="#cccccc" stroke="#000000" stroke-width="1.00"/>
<circle cx="106.51" cy="371.17" r="18.02" fill="#cccccc" stroke="#000000" stroke-width="1.00"/>
<circle cx="28.83" cy="249.88" r="18.02" fill="#cccccc" stroke="#000000" stroke-width="1.00"/>
<circle cx="181.98" cy="186.21" r="18.02" fill="#cccccc" stroke="#000000" stroke-width="1.00"/>
<circle cx="145.94" cy="150.16" r="18.02" fill="#cccccc" stroke="#000000" stroke-width="1.00"/>
<circle cx="337.54" cy="338.30" r="18.02" fill="#cccccc" stroke="#000000" stroke-width="1.00"/>
<circle cx="337.60" cy="231.15" r="18.02" fill="#cccccc" stroke="#000000" stroke-width="1.00"/>
<circle cx="270.49" cy="267.25" r="18.02" fill="#cccccc" stroke="#000000" stroke-width="1.00"/>
<circle cx="50.27" cy="60.01" r="18.02" fill="#cccccc" stroke="#000000" stroke-width="1.00"/>
<circle cx="181.98" cy="28.83" r="18.02" fill="#cccccc" stroke="#000000" stroke-width="1.00"/>
<circle cx="161.21" cy="58.29" r="18.02" fill="#cccccc" stroke="#000000" stroke-width="1.00"/>
<circle cx="178.59" cy="246.32" r="18.02" fill="#cccccc" stroke="#000000" stroke-width="1.00"/>
<circle cx="196.61" cy="339.95" r="18.02" fill="#cccccc" stroke="#000000" stroke-width="1.00"/>
<circle cx="124.45" cy="277.57" r="18.02" fill="#cccccc" stroke="#000000" stroke-width="1.00"/>
<polygon points="10.81,389.19 389.19,389.19 389.19,200.00 200.00,200.00 200.00,10.81 10.81,10.81" fill="none" stroke="#000000" stroke-width="1.40"/>
</svg>