<svg xmlns="http://www.w3.org/2000/svg" width="400.0" height="400.0" viewBox="0 0 400.0 400.0">
<rect width="400.0" height="400.0" fill="white"/>
<circle cx="176.26" cy="371.24" r="17.98" fill="#cccccc" stroke="#000000" stroke-width="1.00"/>
<circle cx="158.05" cy="215.86" r="17.98" fill="#cccccc" stroke="#000000" stroke-width="1.00"/>
<circle cx="28.76" cy="310.31" r="17.98" fill="#cccccc" stroke="#000000" stroke-width="1.00"/>
<circle cx="83.42" cy="217.32" r="17.98" fill="#cccccc" stroke="#000000" stroke-width="1.00"/>
<circle cx="306.04" cy="253.93" r="17.98" fill="#cccccc" stroke="#000000" stroke-width="1.00"/>
<circle cx="28.76" cy="150.24" r="17.98" fill="#cccccc" stroke="#000000" stroke-width="1.00"/>
<circle cx="123.50" cy="59.90" r="17.98" fill="#cccccc" stroke="#000000" stroke-width="1.00"/>
<circle cx="46.74" cy="119.11" r="17.98" fill="#cccccc" stroke="#000000" stroke-width="1.00"/>
<circle cx="302.40" cy="340.10" r="17.98" fill="#cccccc" stroke="#000000" stroke-width="1.00"/>
<circle cx="28.76" cy="87.97" r="17.98" fill="#cccccc" stroke="#000000" stroke-width="1.00"/>
<circle cx="28.76" cy="186.20" r="17.98" fill="#cccccc" stroke="#000000" stroke-width="1.00"/>
<circle cx="176.06" cy="309.26" r="17.98" fill="#cccccc" stroke="#000000" stroke-width="1.00"/>
<circle cx="143.77" cy="89.60" r="17.98" fill="#cccccc" stroke="#000000" stroke-width="1.00"/>
<circle cx="139.59" cy="309.38" r="17.98" fill="#cccccc" stroke="#000000" stroke-width="1.00"/>
<circle cx="233.43" cy="217.98" r="17.98" fill="#cccccc" stroke="#000000" stroke-width="1.00"/>
<circle cx="257.66" cy="305.24" r="17.98" fill="#cccccc" stroke="#000000" stroke-width="1.00"/>
<circle cx="105.53" cy="91.04" r="17.98" fill="#cccccc" stroke="#000000" stroke-width="1.00"/>
<circle cx="139.60" cy="371.24" r="17.98" fill="#cccccc" stroke="#000000" stroke-width="1.00"/>
<circle cx="365.48" cy="367.31" r="17.98" fill="#cccccc" stroke="#000000" stroke-width="1.00"/>
<circle cx="296.84" cy="304.58" r="17.98" fill="#cccccc" stroke="#000000" stroke-width="1.00"/>
<circle cx="371.24" cy="217.98" r="17.98" fill="#cccccc" stroke="#000000" stroke-width="1.00"/>
<circle cx="125.80" cy="120.73" r="17.98" fill="#cccccc" stroke="#000000" stroke-width="1.00"/>
<circle cx="212.36" cy="309.05" r="17.98" fill="#cccccc" stroke="#000000" stroke-width="1.00"/>
<circle cx="248.47" cy="371.24" r="17.98" fill="#cccccc" stroke="#000000" stroke-width="1.00"/>
<circle cx="182.02" cy="88.15" r="17.98" fill="#cccccc" stroke="#000000" stroke-width="1.00"/>
<circle cx="65.09" cy="248.25" r="17.98" fill="#cccccc" stroke="#000000" stroke-width="1.00"/>
<circle cx="270.09" cy="217.98" r="17.98" fill="#cccccc" stroke="#000000" stroke-width="1.00"/>
<circle cx="67.35" cy="89.65" r="17.98" fill="#cccccc" stroke="#000000" stroke-width="1.00"/>
<circle cx="306.04" cy="217.98" r="17.98" fill="#cccccc" stroke="#000000" stroke-width="1.00"/>
<circle cx="368.08" cy="289.75" r="17.98" fill="#cccccc" stroke="#000000" stroke-width="1.00"/>
<circle cx="212.51" cy="371.24" r="17.98" fill="#cccccc" stroke="#000000" stroke-width="1.00"/>
<circle cx="182.02" cy="150.43" r="17.98" fill="#cccccc" stroke="#000000" stroke-width="1.00"/>
<circle cx="141.48" cy="28.76" r="17.98" fill="#cccccc" stroke="#000000" stroke-width="1.00"/>
<circle cx="87.55" cy="59.90" r="17.98" fill="#cccccc" stroke="#000000" stroke-width="1.00"/>
<circle cx="47.11" cy="217.12" r="17.98" fill="#cccccc" stroke="#000000" stroke-width="1.00"/>
<circle cx="28.76" cy="28.77" r="17.98" fill="#cccccc" stroke="#000000" stroke-width="1.00"/>
<circle cx="284.42" cy="371.24" r="17.98" fill="#cccccc" stroke="#000000" stroke-width="1.00"/>
<circle cx="232.67" cy="279.38" r="17.98" fill="#cccccc" stroke="#000000" stroke-width="1.00"/>
<circle cx="69.57" cy="28.76" r="17.98" fill="#cccccc" stroke="#000000" stroke-width="1.00"/>
<circle cx="102.52" cy="247.79" r="17.98" fill="#cccccc" stroke="#000000" stroke-width="1.00"/>
<circle cx="66.96" cy="371.24" r="17.98" fill="#cccccc" stroke="#000000" stroke-width="1.00"/>
<circle cx="84.19" cy="278.72" r="17.98" fill="#cccccc" stroke="#000000" stroke-width="1.00"/>
<circle cx="196.00" cy="217.53" r="17.98" fill="#cccccc" stroke="#000000" stroke-width="1.00"/>
<circle cx="164.05" cy="119.29" r="17.98" fill="#cccccc" stroke="#000000" stroke-width="1.00"/>
<circle cx="138.63" cy="185.60" r="17.98" fill="#cccccc" stroke="#000000" stroke-width="1.00"/>
<circle cx="47.86" cy="340.77" r="17.98" fill="#cccccc" stroke="#000000" stroke-width="1.00"/>
<circle cx="46.75" cy="279.18" r="17.98" fill="#cccccc" stroke="#000000" stroke-width="1.00"/>
<circle cx="85.08" cy="340.01" r="17.98" fill="#cccccc" stroke="#000000" stroke-width="1.00"/>
<circle cx="65.44" cy="186.19" r="17.98" fill="#cccccc" stroke="#000000" stroke-width="1.00"/>
<circle cx="332.79" cy="304.58" r="17.98" fill="#cccccc" stroke="#000000" stroke-width="1.00"/>
<circle cx="139.74" cy="247.02" r="17.98" fill="#cccccc" stroke="#000000" stroke-width="1.00"/>
<circle cx="371.24" cy="253.93" r="17.98" fill="#cccccc" stroke="#000000" stroke-width="1.00"/>
<circle cx="214.34" cy="248.45" r="17.98" fill="#cccccc" stroke="#000000" stroke-width="1.00"/>
<circle cx="266.44" cy="340.10" r="17.98" fill="#cccccc" stroke="#000000" stroke-width="1.00"/>
<circle cx="120.50" cy="216.65" r="17.98" fill="#cccccc" stroke="#000000" stroke-width="1.00"/>
<circle cx="65.84" cy="309.64" r="17.98" fill="#cccccc" stroke="#000000" stroke-width="1.00"/>
<circle cx="320.38" cy="371.24" r="17.98" fill="#cccccc" stroke="#000000" stroke-width="1.00"/>
<circle cx="101.40" cy="186.19" r="17.98" fill="#cccccc" stroke="#000000" stroke-width="1.00"/>
<circle cx="230.49" cy="340.10" r="17.98" fill="#cccccc" stroke="#000000" stroke-width="1.00"/>
<circle cx="371.24" cy="325.56" r="17.98" fill="#cccccc" stroke="#000000" stroke-width="1.00"/>
<circle cx="157.71" cy="278.33" r="17.98" fill="#cccccc" stroke="#000000" stroke-width="1.00"/>
<circle cx="28.76" cy="371.24" r="17.98" fill="#cccccc" stroke="#000000" stroke-width="1.00"/>
<circle cx="105.53" cy="28.76" r="17.98" fill="#cccccc" stroke="#000000" stroke-width="1.00"/>
<circle cx="64.72" cy="150.24" r="17.98" fill="#cccccc" stroke="#000000" stroke-width="1.00"/>
<circle cx="121.26" cy="340.31" r="17.98" fill="#cccccc" stroke="#000000" stroke-width="1.00"/>
<circle cx="105.60" cy="150.48" r="17.98" fill="#cccccc" stroke="#000000" stroke-width="1.00"/>
<circle cx="194.03" cy="278.12" r="17.98" fill="#cccccc" stroke="#000000" stroke-width="1.00"/>
<circle cx="85.33" cy="120.78" r="17.98" fill="#cccccc" stroke="#000000" stroke-width="1.00"/>
<circle cx="103.43" cy="309.09" r="17.98" fill="#cccccc" stroke="#000000" stroke-width="1.00"/>
<circle cx="157.93" cy="340.31" r="17.98" fill="#cccccc" stroke="#000000" stroke-width="1.00"/>
<circle cx="338.64" cy="269.10" r="17.98" fill="#cccccc" stroke="#000000" stroke-width="1.00"/>
<circle cx="102.91" cy="371.24" r="17.98" fill="#cccccc" stroke="#000000" stroke-width="1.00"/>
<circle cx="28.76" cy="248.04" r="17.98" fill="#cccccc" stroke="#000000" stroke-width="1.00"/>
<circle cx="178.36" cy="186.20" r="17.98" fill="#cccccc" stroke="#000000" stroke-width="1.00"/>
<circle cx="146.07" cy="150.43" r="17.98" fill="#cccccc" stroke="#000000" stroke-width="1.00"/>
<circle cx="338.35" cy="340.10" r="17.98" fill="#cccccc" stroke="#000000" stroke-width="1.00"/>
<circle cx="338.64" cy="233.15" r="17.98" fill="#cccccc" stroke="#000000" stroke-width="1.00"/>
<circle cx="276.74" cy="274.76" r="17.98" fill="#cccccc" stroke="#000000" stroke-width="1.00"/>
<circle cx="49.37" cy="58.51" r="17.98" fill="#cccccc" stroke="#000000" stroke-width="1.00"/>
<circle cx="182.02" cy="28.76" r="17.98" fill="#cccccc" stroke="#000000" stroke-width="1.00"/>
<circle cx="161.75" cy="58.46" r="17.98" fill="#cccccc" stroke="#000000" stroke-width="1.00"/>
<circle cx="175.69" cy="247.20" r="17.98" fill="#cccccc" stroke="#000000" stroke-width="1.00"/>
<circle cx="194.39" cy="340.19" r="17.98" fill="#cccccc" stroke="#000000" stroke-width="1.00"/>
<circle cx="121.76" cy="278.16" r="17.98" fill="#cccccc" stroke="#000000" stroke-width="1.00"/>
<circle cx="251.76" cy="248.91" r="17.98" fill="#cccccc" stroke="#000000" stroke-width="1.00"/>
<polygon points="10.79,389.21 389.21,389.21 389.21,200.00 200.00,200.00 200.00,10.79 10.79,10.79" fill="none" stroke="#000000" stroke-width="1.40"/>
</svg>