<svg xmlns="http://www.w3.org/2000/svg" width="400.0" height="400.0" viewBox="0 0 400.0 400.0">
<rect width="400.0" height="400.0" fill="white"/>
<circle cx="173.15" cy="371.30" r="17.94" fill="#cccccc" stroke="#000000" stroke-width="1.00"/>
<circle cx="155.17" cy="215.97" r="17.94" fill="#cccccc" stroke="#000000" stroke-width="1.00"/>
<circle cx="28.70" cy="309.65" r="17.94" fill="#cccccc" stroke="#000000" stroke-width="1.00"/>
<circle cx="82.56" cy="216.46" r="17.94" fill="#cccccc" stroke="#000000" stroke-width="1.00"/>
<circle cx="299.45" cy="253.72" r="17.94" fill="#cccccc" stroke="#000000" stroke-width="1.00"/>
<circle cx="28.70" cy="149.54" r="17.94" fill="#cccccc" stroke="#000000" stroke-width="1.00"/>
<circle cx="123.79" cy="59.77" r="17.94" fill="#cccccc" stroke="#000000" stroke-width="1.00"/>
<circle cx="46.64" cy="118.47" r="17.94" fill="#cccccc" stroke="#000000" stroke-width="1.00"/>
<circle cx="306.73" cy="336.82" r="17.94" fill="#cccccc" stroke="#000000" stroke-width="1.00"/>
<circle cx="28.70" cy="87.40" r="17.94" fill="#cccccc" stroke="#000000" stroke-width="1.00"/>
<circle cx="28.70" cy="185.42" r="17.94" fill="#cccccc" stroke="#000000" stroke-width="1.00"/>
<circle cx="173.15" cy="309.16" r="17.94" fill="#cccccc" stroke="#000000" stroke-width="1.00"/>
<circle cx="143.96" cy="89.45" r="17.94" fill="#cccccc" stroke="#000000" stroke-width="1.00"/>
<circle cx="137.27" cy="309.16" r="17.94" fill="#cccccc" stroke="#000000" stroke-width="1.00"/>
<circle cx="230.07" cy="217.94" r="17.94" fill="#cccccc" stroke="#000000" stroke-width="1.00"/>
<circle cx="246.78" cy="308.15" r="17.94" fill="#cccccc" stroke="#000000" stroke-width="1.00"/>
<circle cx="106.06" cy="90.99" r="17.94" fill="#cccccc" stroke="#000000" stroke-width="1.00"/>
<circle cx="137.27" cy="371.30" r="17.94" fill="#cccccc" stroke="#000000" stroke-width="1.00"/>
<circle cx="371.30" cy="365.51" r="17.94" fill="#cccccc" stroke="#000000" stroke-width="1.00"/>
<circle cx="310.59" cy="287.83" r="17.94" fill="#cccccc" stroke="#000000" stroke-width="1.00"/>
<circle cx="371.30" cy="217.94" r="17.94" fill="#cccccc" stroke="#000000" stroke-width="1.00"/>
<circle cx="126.28" cy="120.67" r="17.94" fill="#cccccc" stroke="#000000" stroke-width="1.00"/>
<circle cx="209.03" cy="309.16" r="17.94" fill="#cccccc" stroke="#000000" stroke-width="1.00"/>
<circle cx="244.91" cy="371.30" r="17.94" fill="#cccccc" stroke="#000000" stroke-width="1.00"/>
<circle cx="182.06" cy="88.05" r="17.94" fill="#cccccc" stroke="#000000" stroke-width="1.00"/>
<circle cx="64.63" cy="247.53" r="17.94" fill="#cccccc" stroke="#000000" stroke-width="1.00"/>
<circle cx="265.96" cy="217.94" r="17.94" fill="#cccccc" stroke="#000000" stroke-width="1.00"/>
<circle cx="67.28" cy="89.12" r="17.94" fill="#cccccc" stroke="#000000" stroke-width="1.00"/>
<circle cx="302.04" cy="217.94" r="17.94" fill="#cccccc" stroke="#000000" stroke-width="1.00"/>
<circle cx="368.80" cy="289.61" r="17.94" fill="#cccccc" stroke="#000000" stroke-width="1.00"/>
<circle cx="209.03" cy="371.30" r="17.94" fill="#cccccc" stroke="#000000" stroke-width="1.00"/>
<circle cx="182.06" cy="150.20" r="17.94" fill="#cccccc" stroke="#000000" stroke-width="1.00"/>
<circle cx="141.73" cy="28.70" r="17.94" fill="#cccccc" stroke="#000000" stroke-width="1.00"/>
<circle cx="87.92" cy="59.77" r="17.94" fill="#cccccc" stroke="#000000" stroke-width="1.00"/>
<circle cx="46.64" cy="216.49" r="17.94" fill="#cccccc" stroke="#000000" stroke-width="1.00"/>
<circle cx="28.70" cy="28.70" r="17.94" fill="#cccccc" stroke="#000000" stroke-width="1.00"/>
<circle cx="280.78" cy="371.30" r="17.94" fill="#cccccc" stroke="#000000" stroke-width="1.00"/>
<circle cx="227.09" cy="278.15" r="17.94" fill="#cccccc" stroke="#000000" stroke-width="1.00"/>
<circle cx="69.98" cy="28.70" r="17.94" fill="#cccccc" stroke="#000000" stroke-width="1.00"/>
<circle cx="100.93" cy="247.29" r="17.94" fill="#cccccc" stroke="#000000" stroke-width="1.00"/>
<circle cx="65.43" cy="371.30" r="17.94" fill="#cccccc" stroke="#000000" stroke-width="1.00"/>
<circle cx="82.99" cy="278.36" r="17.94" fill="#cccccc" stroke="#000000" stroke-width="1.00"/>
<circle cx="191.55" cy="215.82" r="17.94" fill="#cccccc" stroke="#000000" stroke-width="1.00"/>
<circle cx="164.12" cy="119.12" r="17.94" fill="#cccccc" stroke="#000000" stroke-width="1.00"/>
<circle cx="136.80" cy="185.15" r="17.94" fill="#cccccc" stroke="#000000" stroke-width="1.00"/>
<circle cx="47.06" cy="340.47" r="17.94" fill="#cccccc" stroke="#000000" stroke-width="1.00"/>
<circle cx="46.69" cy="278.61" r="17.94" fill="#cccccc" stroke="#000000" stroke-width="1.00"/>
<circle cx="83.41" cy="340.25" r="17.94" fill="#cccccc" stroke="#000000" stroke-width="1.00"/>
<circle cx="64.58" cy="185.42" r="17.94" fill="#cccccc" stroke="#000000" stroke-width="1.00"/>
<circle cx="339.05" cy="309.66" r="17.94" fill="#cccccc" stroke="#000000" stroke-width="1.00"/>
<circle cx="137.23" cy="247.04" r="17.94" fill="#cccccc" stroke="#000000" stroke-width="1.00"/>
<circle cx="371.30" cy="253.82" r="17.94" fill="#cccccc" stroke="#000000" stroke-width="1.00"/>
<circle cx="209.15" cy="247.08" r="17.94" fill="#cccccc" stroke="#000000" stroke-width="1.00"/>
<circle cx="262.84" cy="340.23" r="17.94" fill="#cccccc" stroke="#000000" stroke-width="1.00"/>
<circle cx="118.87" cy="216.22" r="17.94" fill="#cccccc" stroke="#000000" stroke-width="1.00"/>
<circle cx="65.05" cy="309.43" r="17.94" fill="#cccccc" stroke="#000000" stroke-width="1.00"/>
<circle cx="316.66" cy="371.30" r="17.94" fill="#cccccc" stroke="#000000" stroke-width="1.00"/>
<circle cx="100.50" cy="185.39" r="17.94" fill="#cccccc" stroke="#000000" stroke-width="1.00"/>
<circle cx="226.97" cy="340.23" r="17.94" fill="#cccccc" stroke="#000000" stroke-width="1.00"/>
<circle cx="371.30" cy="325.40" r="17.94" fill="#cccccc" stroke="#000000" stroke-width="1.00"/>
<circle cx="155.21" cy="278.08" r="17.94" fill="#cccccc" stroke="#000000" stroke-width="1.00"/>
<circle cx="28.70" cy="371.30" r="17.94" fill="#cccccc" stroke="#000000" stroke-width="1.00"/>
<circle cx="105.86" cy="28.70" r="17.94" fill="#cccccc" stroke="#000000" stroke-width="1.00"/>
<circle cx="64.58" cy="149.54" r="17.94" fill="#cccccc" stroke="#000000" stroke-width="1.00"/>
<circle cx="119.33" cy="340.23" r="17.94" fill="#cccccc" stroke="#000000" stroke-width="1.00"/>
<circle cx="105.41" cy="149.85" r="17.94" fill="#cccccc" stroke="#000000" stroke-width="1.00"/>
<circle cx="191.09" cy="278.08" r="17.94" fill="#cccccc" stroke="#000000" stroke-width="1.00"/>
<circle cx="85.22" cy="120.19" r="17.94" fill="#cccccc" stroke="#000000" stroke-width="1.00"/>
<circle cx="101.35" cy="309.18" r="17.94" fill="#cccccc" stroke="#000000" stroke-width="1.00"/>
<circle cx="155.21" cy="340.23" r="17.94" fill="#cccccc" stroke="#000000" stroke-width="1.00"/>
<circle cx="336.67" cy="263.19" r="17.94" fill="#cccccc" stroke="#000000" stroke-width="1.00"/>
<circle cx="101.39" cy="371.30" r="17.94" fill="#cccccc" stroke="#000000" stroke-width="1.00"/>
<circle cx="28.70" cy="247.56" r="17.94" fill="#cccccc" stroke="#000000" stroke-width="1.00"/>
<circle cx="173.23" cy="184.97" r="17.94" fill="#cccccc" stroke="#000000" stroke-width="1.00"/>
<circle cx="146.18" cy="150.52" r="17.94" fill="#cccccc" stroke="#000000" stroke-width="1.00"/>
<circle cx="341.55" cy="345.46" r="17.94" fill="#cccccc" stroke="#000000" stroke-width="1.00"/>
<circle cx="336.67" cy="227.31" r="17.94" fill="#cccccc" stroke="#000000" stroke-width="1.00"/>
<circle cx="271.46" cy="276.17" r="17.94" fill="#cccccc" stroke="#000000" stroke-width="1.00"/>
<circle cx="49.34" cy="58.05" r="17.94" fill="#cccccc" stroke="#000000" stroke-width="1.00"/>
<circle cx="182.06" cy="28.70" r="17.94" fill="#cccccc" stroke="#000000" stroke-width="1.00"/>
<circle cx="161.90" cy="58.38" r="17.94" fill="#cccccc" stroke="#000000" stroke-width="1.00"/>
<circle cx="173.27" cy="246.94" r="17.94" fill="#cccccc" stroke="#000000" stroke-width="1.00"/>
<circle cx="191.09" cy="340.23" r="17.94" fill="#cccccc" stroke="#000000" stroke-width="1.00"/>
<circle cx="119.29" cy="278.11" r="17.94" fill="#cccccc" stroke="#000000" stroke-width="1.00"/>
<circle cx="248.01" cy="249.01" r="17.94" fill="#cccccc" stroke="#000000" stroke-width="1.00"/>
<circle cx="282.59" cy="310.27" r="17.94" fill="#cccccc" stroke="#000000" stroke-width="1.00"/>
<polygon points="10.76,389.24 389.24,389.24 389.24,200.00 200.00,200.00 200.00,10.76 10.76,10.76" fill="none" stroke="#000000" stroke-width="1.40"/>
</svg>