<svg xmlns="http://www.w3.org/2000/svg" width="400.0" height="400.0" viewBox="0 0 400.0 400.0">
<rect width="400.0" height="400.0" fill="white"/>
<circle cx="36.62" cy="371.40" r="17.87" fill="#cccccc" stroke="#000000" stroke-width="1.00"/>
<circle cx="28.60" cy="336.56" r="17.87" fill="#cccccc" stroke="#000000" stroke-width="1.00"/>
<circle cx="67.58" cy="353.53" r="17.87" fill="#cccccc" stroke="#000000" stroke-width="1.00"/>
<circle cx="98.54" cy="371.40" r="17.87" fill="#cccccc" stroke="#000000" stroke-width="1.00"/>
<circle cx="59.56" cy="318.69" r="17.87" fill="#cccccc" stroke="#000000" stroke-width="1.00"/>
<circle cx="28.60" cy="300.81" r="17.87" fill="#cccccc" stroke="#000000" stroke-width="1.00"/>
<circle cx="98.54" cy="335.65" r="17.87" fill="#cccccc" stroke="#000000" stroke-width="1.00"/>
<circle cx="129.50" cy="353.53" r="17.87" fill="#cccccc" stroke="#000000" stroke-width="1.00"/>
<circle cx="59.56" cy="282.94" r="17.87" fill="#cccccc" stroke="#000000" stroke-width="1.00"/>
<circle cx="90.52" cy="300.81" r="17.87" fill="#cccccc" stroke="#000000" stroke-width="1.00"/>
<circle cx="28.60" cy="265.06" r="17.87" fill="#cccccc" stroke="#000000" stroke-width="1.00"/>
<circle cx="129.50" cy="317.78" r="17.87" fill="#cccccc" stroke="#000000" stroke-width="1.00"/>
<circle cx="160.46" cy="371.40" r="17.87" fill="#cccccc" stroke="#000000" stroke-width="1.00"/>
<circle cx="90.52" cy="265.06" r="17.87" fill="#cccccc" stroke="#000000" stroke-width="1.00"/>
<circle cx="59.56" cy="247.19" r="17.87" fill="#cccccc" stroke="#000000" stroke-width="1.00"/>
<circle cx="160.46" cy="335.65" r="17.87" fill="#cccccc" stroke="#000000" stroke-width="1.00"/>
<circle cx="121.48" cy="282.94" r="17.87" fill="#cccccc" stroke="#000000" stroke-width="1.00"/>
<circle cx="28.60" cy="229.31" r="17.87" fill="#cccccc" stroke="#000000" stroke-width="1.00"/>
<circle cx="160.46" cy="299.90" r="17.87" fill="#cccccc" stroke="#000000" stroke-width="1.00"/>
<circle cx="191.42" cy="353.53" r="17.87" fill="#cccccc" stroke="#000000" stroke-width="1.00"/>
<circle cx="90.52" cy="229.31" r="17.87" fill="#cccccc" stroke="#000000" stroke-width="1.00"/>
<circle cx="121.48" cy="247.19" r="17.87" fill="#cccccc" stroke="#000000" stroke-width="1.00"/>
<circle cx="59.56" cy="211.44" r="17.87" fill="#cccccc" stroke="#000000" stroke-width="1.00"/>
<circle cx="191.42" cy="317.78" r="17.87" fill="#cccccc" stroke="#000000" stroke-width="1.00"/>
<circle cx="152.44" cy="265.06" r="17.87" fill="#cccccc" stroke="#000000" stroke-width="1.00"/>
<circle cx="28.60" cy="193.56" r="17.87" fill="#cccccc" stroke="#000000" stroke-width="1.00"/>
<circle cx="191.40" cy="281.99" r="17.87" fill="#cccccc" stroke="#000000" stroke-width="1.00"/>
<circle cx="222.38" cy="371.40" r="17.87" fill="#cccccc" stroke="#000000" stroke-width="1.00"/>
<circle cx="121.48" cy="211.44" r="17.87" fill="#cccccc" stroke="#000000" stroke-width="1.00"/>
<circle cx="222.38" cy="335.65" r="17.87" fill="#cccccc" stroke="#000000" stroke-width="1.00"/>
<circle cx="90.52" cy="193.56" r="17.87" fill="#cccccc" stroke="#000000" stroke-width="1.00"/>
<circle cx="152.44" cy="229.31" r="17.87" fill="#cccccc" stroke="#000000" stroke-width="1.00"/>
<circle cx="59.56" cy="175.69" r="17.87" fill="#cccccc" stroke="#000000" stroke-width="1.00"/>
<circle cx="222.36" cy="299.87" r="17.87" fill="#cccccc" stroke="#000000" stroke-width="1.00"/>
<circle cx="183.43" cy="247.14" r="17.87" fill="#cccccc" stroke="#000000" stroke-width="1.00"/>
<circle cx="28.60" cy="157.81" r="17.87" fill="#cccccc" stroke="#000000" stroke-width="1.00"/>
<circle cx="253.34" cy="353.53" r="17.87" fill="#cccccc" stroke="#000000" stroke-width="1.00"/>
<circle cx="218.58" cy="253.62" r="17.87" fill="#cccccc" stroke="#000000" stroke-width="1.00"/>
<circle cx="121.48" cy="175.69" r="17.87" fill="#cccccc" stroke="#000000" stroke-width="1.00"/>
<circle cx="152.44" cy="193.56" r="17.87" fill="#cccccc" stroke="#000000" stroke-width="1.00"/>
<circle cx="253.32" cy="317.74" r="17.87" fill="#cccccc" stroke="#000000" stroke-width="1.00"/>
<circle cx="90.52" cy="157.81" r="17.87" fill="#cccccc" stroke="#000000" stroke-width="1.00"/>
<circle cx="183.43" cy="211.39" r="17.87" fill="#cccccc" stroke="#000000" stroke-width="1.00"/>
<circle cx="59.56" cy="139.94" r="17.87" fill="#cccccc" stroke="#000000" stroke-width="1.00"/>
<circle cx="247.58" cy="274.53" r="17.87" fill="#cccccc" stroke="#000000" stroke-width="1.00"/>
<circle cx="218.58" cy="217.87" r="17.87" fill="#cccccc" stroke="#000000" stroke-width="1.00"/>
<circle cx="284.30" cy="371.40" r="17.87" fill="#cccccc" stroke="#000000" stroke-width="1.00"/>
<circle cx="28.60" cy="122.06" r="17.87" fill="#cccccc" stroke="#000000" stroke-width="1.00"/>
<circle cx="284.28" cy="335.61" r="17.87" fill="#cccccc" stroke="#000000" stroke-width="1.00"/>
<circle cx="151.17" cy="155.77" r="17.87" fill="#cccccc" stroke="#000000" stroke-width="1.00"/>
<circle cx="120.21" cy="137.89" r="17.87" fill="#cccccc" stroke="#000000" stroke-width="1.00"/>
<circle cx="249.72" cy="235.45" r="17.87" fill="#cccccc" stroke="#000000" stroke-width="1.00"/>
<circle cx="182.13" cy="173.64" r="17.87" fill="#cccccc" stroke="#000000" stroke-width="1.00"/>
<circle cx="89.25" cy="120.02" r="17.87" fill="#cccccc" stroke="#000000" stroke-width="1.00"/>
<circle cx="278.54" cy="292.41" r="17.87" fill="#cccccc" stroke="#000000" stroke-width="1.00"/>
<circle cx="58.29" cy="102.14" r="17.87" fill="#cccccc" stroke="#000000" stroke-width="1.00"/>
<circle cx="278.52" cy="256.62" r="17.87" fill="#cccccc" stroke="#000000" stroke-width="1.00"/>
<circle cx="315.24" cy="353.49" r="17.87" fill="#cccccc" stroke="#000000" stroke-width="1.00"/>
<circle cx="151.17" cy="120.02" r="17.87" fill="#cccccc" stroke="#000000" stroke-width="1.00"/>
<circle cx="182.13" cy="137.89" r="17.87" fill="#cccccc" stroke="#000000" stroke-width="1.00"/>
<circle cx="28.60" cy="82.22" r="17.87" fill="#cccccc" stroke="#000000" stroke-width="1.00"/>
<circle cx="309.50" cy="310.28" r="17.87" fill="#cccccc" stroke="#000000" stroke-width="1.00"/>
<circle cx="120.21" cy="102.14" r="17.87" fill="#cccccc" stroke="#000000" stroke-width="1.00"/>
<circle cx="280.85" cy="217.87" r="17.87" fill="#cccccc" stroke="#000000" stroke-width="1.00"/>
<circle cx="89.25" cy="84.27" r="17.87" fill="#cccccc" stroke="#000000" stroke-width="1.00"/>
<circle cx="309.48" cy="274.50" r="17.87" fill="#cccccc" stroke="#000000" stroke-width="1.00"/>
<circle cx="59.56" cy="64.35" r="17.87" fill="#cccccc" stroke="#000000" stroke-width="1.00"/>
<circle cx="346.17" cy="371.40" r="17.87" fill="#cccccc" stroke="#000000" stroke-width="1.00"/>
<circle cx="309.87" cy="238.75" r="17.87" fill="#cccccc" stroke="#000000" stroke-width="1.00"/>
<circle cx="340.46" cy="328.16" r="17.87" fill="#cccccc" stroke="#000000" stroke-width="1.00"/>
<circle cx="182.13" cy="102.14" r="17.87" fill="#cccccc" stroke="#000000" stroke-width="1.00"/>
<circle cx="151.17" cy="84.27" r="17.87" fill="#cccccc" stroke="#000000" stroke-width="1.00"/>
<circle cx="340.44" cy="292.37" r="17.87" fill="#cccccc" stroke="#000000" stroke-width="1.00"/>
<circle cx="28.60" cy="46.47" r="17.87" fill="#cccccc" stroke="#000000" stroke-width="1.00"/>
<circle cx="120.21" cy="66.39" r="17.87" fill="#cccccc" stroke="#000000" stroke-width="1.00"/>
<circle cx="90.52" cy="46.47" r="17.87" fill="#cccccc" stroke="#000000" stroke-width="1.00"/>
<circle cx="342.38" cy="253.62" r="17.87" fill="#cccccc" stroke="#000000" stroke-width="1.00"/>
<circle cx="371.40" cy="346.07" r="17.87" fill="#cccccc" stroke="#000000" stroke-width="1.00"/>
<circle cx="59.56" cy="28.60" r="17.87" fill="#cccccc" stroke="#000000" stroke-width="1.00"/>
<circle cx="338.89" cy="217.87" r="17.87" fill="#cccccc" stroke="#000000" stroke-width="1.00"/>
<circle cx="182.13" cy="66.39" r="17.87" fill="#cccccc" stroke="#000000" stroke-width="1.00"/>
<circle cx="371.40" cy="310.25" r="17.87" fill="#cccccc" stroke="#000000" stroke-width="1.00"/>
<circle cx="151.17" cy="48.52" r="17.87" fill="#cccccc" stroke="#000000" stroke-width="1.00"/>
<circle cx="371.40" cy="274.50" r="17.87" fill="#cccccc" stroke="#000000" stroke-width="1.00"/>
<circle cx="121.48" cy="28.60" r="17.87" fill="#cccccc" stroke="#000000" stroke-width="1.00"/>
<circle cx="371.40" cy="232.75" r="17.87" fill="#cccccc" stroke="#000000" stroke-width="1.00"/>
<circle cx="182.12" cy="29.41" r="17.87" fill="#cccccc" stroke="#000000" stroke-width="1.00"/>
<polygon points="10.72,389.28 389.28,389.28 389.28,200.00 200.00,200.00 200.00,10.72 10.72,10.72" fill="none" stroke="#000000" stroke-width="1.40"/>
</svg>