<svg xmlns="http://www.w3.org/2000/svg" width="400.0" height="400.0" viewBox="0 0 400.0 400.0">
<rect width="400.0" height="400.0" fill="white"/>
<circle cx="28.56" cy="371.44" r="17.85" fill="#cccccc" stroke="#000000" stroke-width="1.00"/>
<circle cx="28.56" cy="335.13" r="17.85" fill="#cccccc" stroke="#000000" stroke-width="1.00"/>
<circle cx="59.29" cy="353.29" r="17.85" fill="#cccccc" stroke="#000000" stroke-width="1.00"/>
<circle cx="90.02" cy="371.44" r="17.85" fill="#cccccc" stroke="#000000" stroke-width="1.00"/>
<circle cx="59.47" cy="317.29" r="17.85" fill="#cccccc" stroke="#000000" stroke-width="1.00"/>
<circle cx="28.56" cy="299.44" r="17.85" fill="#cccccc" stroke="#000000" stroke-width="1.00"/>
<circle cx="90.20" cy="335.44" r="17.85" fill="#cccccc" stroke="#000000" stroke-width="1.00"/>
<circle cx="120.94" cy="353.60" r="17.85" fill="#cccccc" stroke="#000000" stroke-width="1.00"/>
<circle cx="59.47" cy="281.59" r="17.85" fill="#cccccc" stroke="#000000" stroke-width="1.00"/>
<circle cx="90.38" cy="299.44" r="17.85" fill="#cccccc" stroke="#000000" stroke-width="1.00"/>
<circle cx="28.56" cy="263.74" r="17.85" fill="#cccccc" stroke="#000000" stroke-width="1.00"/>
<circle cx="121.12" cy="317.59" r="17.85" fill="#cccccc" stroke="#000000" stroke-width="1.00"/>
<circle cx="151.85" cy="371.44" r="17.85" fill="#cccccc" stroke="#000000" stroke-width="1.00"/>
<circle cx="90.38" cy="263.74" r="17.85" fill="#cccccc" stroke="#000000" stroke-width="1.00"/>
<circle cx="59.47" cy="245.90" r="17.85" fill="#cccccc" stroke="#000000" stroke-width="1.00"/>
<circle cx="151.85" cy="335.75" r="17.85" fill="#cccccc" stroke="#000000" stroke-width="1.00"/>
<circle cx="121.30" cy="281.59" r="17.85" fill="#cccccc" stroke="#000000" stroke-width="1.00"/>
<circle cx="28.56" cy="228.05" r="17.85" fill="#cccccc" stroke="#000000" stroke-width="1.00"/>
<circle cx="152.03" cy="299.75" r="17.85" fill="#cccccc" stroke="#000000" stroke-width="1.00"/>
<circle cx="182.76" cy="353.60" r="17.85" fill="#cccccc" stroke="#000000" stroke-width="1.00"/>
<circle cx="90.38" cy="228.05" r="17.85" fill="#cccccc" stroke="#000000" stroke-width="1.00"/>
<circle cx="121.30" cy="245.90" r="17.85" fill="#cccccc" stroke="#000000" stroke-width="1.00"/>
<circle cx="59.47" cy="210.20" r="17.85" fill="#cccccc" stroke="#000000" stroke-width="1.00"/>
<circle cx="182.76" cy="317.90" r="17.85" fill="#cccccc" stroke="#000000" stroke-width="1.00"/>
<circle cx="152.21" cy="263.74" r="17.85" fill="#cccccc" stroke="#000000" stroke-width="1.00"/>
<circle cx="28.56" cy="192.35" r="17.85" fill="#cccccc" stroke="#000000" stroke-width="1.00"/>
<circle cx="182.94" cy="281.90" r="17.85" fill="#cccccc" stroke="#000000" stroke-width="1.00"/>
<circle cx="213.68" cy="371.44" r="17.85" fill="#cccccc" stroke="#000000" stroke-width="1.00"/>
<circle cx="121.30" cy="210.20" r="17.85" fill="#cccccc" stroke="#000000" stroke-width="1.00"/>
<circle cx="213.68" cy="335.75" r="17.85" fill="#cccccc" stroke="#000000" stroke-width="1.00"/>
<circle cx="90.38" cy="192.35" r="17.85" fill="#cccccc" stroke="#000000" stroke-width="1.00"/>
<circle cx="152.21" cy="228.05" r="17.85" fill="#cccccc" stroke="#000000" stroke-width="1.00"/>
<circle cx="59.47" cy="174.50" r="17.85" fill="#cccccc" stroke="#000000" stroke-width="1.00"/>
<circle cx="213.68" cy="300.05" r="17.85" fill="#cccccc" stroke="#000000" stroke-width="1.00"/>
<circle cx="184.02" cy="244.24" r="17.85" fill="#cccccc" stroke="#000000" stroke-width="1.00"/>
<circle cx="28.56" cy="156.66" r="17.85" fill="#cccccc" stroke="#000000" stroke-width="1.00"/>
<circle cx="245.58" cy="355.43" r="17.85" fill="#cccccc" stroke="#000000" stroke-width="1.00"/>
<circle cx="213.79" cy="263.94" r="17.85" fill="#cccccc" stroke="#000000" stroke-width="1.00"/>
<circle cx="121.30" cy="174.50" r="17.85" fill="#cccccc" stroke="#000000" stroke-width="1.00"/>
<circle cx="152.21" cy="192.35" r="17.85" fill="#cccccc" stroke="#000000" stroke-width="1.00"/>
<circle cx="245.58" cy="319.74" r="17.85" fill="#cccccc" stroke="#000000" stroke-width="1.00"/>
<circle cx="90.38" cy="156.66" r="17.85" fill="#cccccc" stroke="#000000" stroke-width="1.00"/>
<circle cx="184.33" cy="208.55" r="17.85" fill="#cccccc" stroke="#000000" stroke-width="1.00"/>
<circle cx="59.47" cy="138.81" r="17.85" fill="#cccccc" stroke="#000000" stroke-width="1.00"/>
<circle cx="245.58" cy="284.04" r="17.85" fill="#cccccc" stroke="#000000" stroke-width="1.00"/>
<circle cx="222.87" cy="220.65" r="17.85" fill="#cccccc" stroke="#000000" stroke-width="1.00"/>
<circle cx="277.48" cy="371.44" r="17.85" fill="#cccccc" stroke="#000000" stroke-width="1.00"/>
<circle cx="28.56" cy="120.96" r="17.85" fill="#cccccc" stroke="#000000" stroke-width="1.00"/>
<circle cx="277.48" cy="335.75" r="17.85" fill="#cccccc" stroke="#000000" stroke-width="1.00"/>
<circle cx="151.24" cy="155.07" r="17.85" fill="#cccccc" stroke="#000000" stroke-width="1.00"/>
<circle cx="120.33" cy="137.23" r="17.85" fill="#cccccc" stroke="#000000" stroke-width="1.00"/>
<circle cx="245.90" cy="248.35" r="17.85" fill="#cccccc" stroke="#000000" stroke-width="1.00"/>
<circle cx="182.15" cy="172.92" r="17.85" fill="#cccccc" stroke="#000000" stroke-width="1.00"/>
<circle cx="89.41" cy="119.38" r="17.85" fill="#cccccc" stroke="#000000" stroke-width="1.00"/>
<circle cx="277.48" cy="300.05" r="17.85" fill="#cccccc" stroke="#000000" stroke-width="1.00"/>
<circle cx="58.50" cy="101.53" r="17.85" fill="#cccccc" stroke="#000000" stroke-width="1.00"/>
<circle cx="283.56" cy="258.26" r="17.85" fill="#cccccc" stroke="#000000" stroke-width="1.00"/>
<circle cx="264.45" cy="217.85" r="17.85" fill="#cccccc" stroke="#000000" stroke-width="1.00"/>
<circle cx="309.01" cy="354.70" r="17.85" fill="#cccccc" stroke="#000000" stroke-width="1.00"/>
<circle cx="151.24" cy="119.38" r="17.85" fill="#cccccc" stroke="#000000" stroke-width="1.00"/>
<circle cx="182.15" cy="137.23" r="17.85" fill="#cccccc" stroke="#000000" stroke-width="1.00"/>
<circle cx="28.56" cy="82.10" r="17.85" fill="#cccccc" stroke="#000000" stroke-width="1.00"/>
<circle cx="309.01" cy="319.00" r="17.85" fill="#cccccc" stroke="#000000" stroke-width="1.00"/>
<circle cx="120.33" cy="101.53" r="17.85" fill="#cccccc" stroke="#000000" stroke-width="1.00"/>
<circle cx="300.14" cy="217.85" r="17.85" fill="#cccccc" stroke="#000000" stroke-width="1.00"/>
<circle cx="89.41" cy="83.68" r="17.85" fill="#cccccc" stroke="#000000" stroke-width="1.00"/>
<circle cx="309.01" cy="283.31" r="17.85" fill="#cccccc" stroke="#000000" stroke-width="1.00"/>
<circle cx="59.47" cy="64.25" r="17.85" fill="#cccccc" stroke="#000000" stroke-width="1.00"/>
<circle cx="340.53" cy="371.44" r="17.85" fill="#cccccc" stroke="#000000" stroke-width="1.00"/>
<circle cx="317.99" cy="248.76" r="17.85" fill="#cccccc" stroke="#000000" stroke-width="1.00"/>
<circle cx="340.53" cy="335.75" r="17.85" fill="#cccccc" stroke="#000000" stroke-width="1.00"/>
<circle cx="182.15" cy="101.53" r="17.85" fill="#cccccc" stroke="#000000" stroke-width="1.00"/>
<circle cx="151.24" cy="83.68" r="17.85" fill="#cccccc" stroke="#000000" stroke-width="1.00"/>
<circle cx="340.53" cy="300.05" r="17.85" fill="#cccccc" stroke="#000000" stroke-width="1.00"/>
<circle cx="28.56" cy="46.40" r="17.85" fill="#cccccc" stroke="#000000" stroke-width="1.00"/>
<circle cx="120.33" cy="65.84" r="17.85" fill="#cccccc" stroke="#000000" stroke-width="1.00"/>
<circle cx="335.84" cy="217.85" r="17.85" fill="#cccccc" stroke="#000000" stroke-width="1.00"/>
<circle cx="121.30" cy="28.56" r="17.85" fill="#cccccc" stroke="#000000" stroke-width="1.00"/>
<circle cx="353.60" cy="251.29" r="17.85" fill="#cccccc" stroke="#000000" stroke-width="1.00"/>
<circle cx="371.44" cy="353.60" r="17.85" fill="#cccccc" stroke="#000000" stroke-width="1.00"/>
<circle cx="90.38" cy="46.40" r="17.85" fill="#cccccc" stroke="#000000" stroke-width="1.00"/>
<circle cx="371.44" cy="220.38" r="17.85" fill="#cccccc" stroke="#000000" stroke-width="1.00"/>
<circle cx="182.15" cy="65.84" r="17.85" fill="#cccccc" stroke="#000000" stroke-width="1.00"/>
<circle cx="371.44" cy="317.90" r="17.85" fill="#cccccc" stroke="#000000" stroke-width="1.00"/>
<circle cx="182.15" cy="28.56" r="17.85" fill="#cccccc" stroke="#000000" stroke-width="1.00"/>
<circle cx="371.44" cy="282.21" r="17.85" fill="#cccccc" stroke="#000000" stroke-width="1.00"/>
<circle cx="151.24" cy="47.99" r="17.85" fill="#cccccc" stroke="#000000" stroke-width="1.00"/>
<circle cx="59.47" cy="28.56" r="17.85" fill="#cccccc" stroke="#000000" stroke-width="1.00"/>
<polygon points="10.71,389.29 389.29,389.29 389.29,200.00 200.00,200.00 200.00,10.71 10.71,10.71" fill="none" stroke="#000000" stroke-width="1.40"/>
</svg>