<svg xmlns="http://www.w3.org/2000/svg" width="400.0" height="400.0" viewBox="0 0 400.0 400.0">
<rect width="400.0" height="400.0" fill="white"/>
<circle cx="353.21" cy="248.38" r="17.81" fill="#cccccc" stroke="#000000" stroke-width="1.00"/>
<circle cx="182.19" cy="226.33" r="17.81" fill="#cccccc" stroke="#000000" stroke-width="1.00"/>
<circle cx="206.68" cy="371.50" r="17.81" fill="#cccccc" stroke="#000000" stroke-width="1.00"/>
<circle cx="245.66" cy="248.78" r="17.81" fill="#cccccc" stroke="#000000" stroke-width="1.00"/>
<circle cx="151.89" cy="279.76" r="17.81" fill="#cccccc" stroke="#000000" stroke-width="1.00"/>
<circle cx="120.77" cy="82.41" r="17.81" fill="#cccccc" stroke="#000000" stroke-width="1.00"/>
<circle cx="210.04" cy="248.54" r="17.81" fill="#cccccc" stroke="#000000" stroke-width="1.00"/>
<circle cx="59.35" cy="262.90" r="17.81" fill="#cccccc" stroke="#000000" stroke-width="1.00"/>
<circle cx="169.47" cy="371.50" r="17.81" fill="#cccccc" stroke="#000000" stroke-width="1.00"/>
<circle cx="89.92" cy="244.61" r="17.81" fill="#cccccc" stroke="#000000" stroke-width="1.00"/>
<circle cx="151.34" cy="172.89" r="17.81" fill="#cccccc" stroke="#000000" stroke-width="1.00"/>
<circle cx="182.19" cy="155.08" r="17.81" fill="#cccccc" stroke="#000000" stroke-width="1.00"/>
<circle cx="116.15" cy="340.59" r="17.81" fill="#cccccc" stroke="#000000" stroke-width="1.00"/>
<circle cx="188.08" cy="341.12" r="17.81" fill="#cccccc" stroke="#000000" stroke-width="1.00"/>
<circle cx="151.34" cy="208.52" r="17.81" fill="#cccccc" stroke="#000000" stroke-width="1.00"/>
<circle cx="28.50" cy="28.50" r="17.81" fill="#cccccc" stroke="#000000" stroke-width="1.00"/>
<circle cx="28.50" cy="208.52" r="17.81" fill="#cccccc" stroke="#000000" stroke-width="1.00"/>
<circle cx="120.49" cy="190.70" r="17.81" fill="#cccccc" stroke="#000000" stroke-width="1.00"/>
<circle cx="89.64" cy="208.52" r="17.81" fill="#cccccc" stroke="#000000" stroke-width="1.00"/>
<circle cx="317.59" cy="310.08" r="17.81" fill="#cccccc" stroke="#000000" stroke-width="1.00"/>
<circle cx="281.49" cy="371.50" r="17.81" fill="#cccccc" stroke="#000000" stroke-width="1.00"/>
<circle cx="58.23" cy="300.33" r="17.81" fill="#cccccc" stroke="#000000" stroke-width="1.00"/>
<circle cx="28.50" cy="245.09" r="17.81" fill="#cccccc" stroke="#000000" stroke-width="1.00"/>
<circle cx="182.19" cy="190.70" r="17.81" fill="#cccccc" stroke="#000000" stroke-width="1.00"/>
<circle cx="59.35" cy="118.51" r="17.81" fill="#cccccc" stroke="#000000" stroke-width="1.00"/>
<circle cx="187.86" cy="278.47" r="17.81" fill="#cccccc" stroke="#000000" stroke-width="1.00"/>
<circle cx="90.06" cy="316.34" r="17.81" fill="#cccccc" stroke="#000000" stroke-width="1.00"/>
<circle cx="90.20" cy="280.71" r="17.81" fill="#cccccc" stroke="#000000" stroke-width="1.00"/>
<circle cx="59.07" cy="190.23" r="17.81" fill="#cccccc" stroke="#000000" stroke-width="1.00"/>
<circle cx="120.77" cy="262.43" r="17.81" fill="#cccccc" stroke="#000000" stroke-width="1.00"/>
<circle cx="281.23" cy="310.51" r="17.81" fill="#cccccc" stroke="#000000" stroke-width="1.00"/>
<circle cx="245.49" cy="310.14" r="17.81" fill="#cccccc" stroke="#000000" stroke-width="1.00"/>
<circle cx="182.19" cy="46.31" r="17.81" fill="#cccccc" stroke="#000000" stroke-width="1.00"/>
<circle cx="59.07" cy="226.80" r="17.81" fill="#cccccc" stroke="#000000" stroke-width="1.00"/>
<circle cx="228.06" cy="217.81" r="17.81" fill="#cccccc" stroke="#000000" stroke-width="1.00"/>
<circle cx="281.49" cy="248.66" r="17.81" fill="#cccccc" stroke="#000000" stroke-width="1.00"/>
<circle cx="59.35" cy="82.88" r="17.81" fill="#cccccc" stroke="#000000" stroke-width="1.00"/>
<circle cx="133.85" cy="371.50" r="17.81" fill="#cccccc" stroke="#000000" stroke-width="1.00"/>
<circle cx="90.20" cy="136.32" r="17.81" fill="#cccccc" stroke="#000000" stroke-width="1.00"/>
<circle cx="205.99" cy="310.34" r="17.81" fill="#cccccc" stroke="#000000" stroke-width="1.00"/>
<circle cx="89.92" cy="172.42" r="17.81" fill="#cccccc" stroke="#000000" stroke-width="1.00"/>
<circle cx="317.12" cy="248.66" r="17.81" fill="#cccccc" stroke="#000000" stroke-width="1.00"/>
<circle cx="98.23" cy="371.38" r="17.81" fill="#cccccc" stroke="#000000" stroke-width="1.00"/>
<circle cx="28.50" cy="171.94" r="17.81" fill="#cccccc" stroke="#000000" stroke-width="1.00"/>
<circle cx="28.50" cy="136.32" r="17.81" fill="#cccccc" stroke="#000000" stroke-width="1.00"/>
<circle cx="299.30" cy="279.51" r="17.81" fill="#cccccc" stroke="#000000" stroke-width="1.00"/>
<circle cx="28.58" cy="360.15" r="17.81" fill="#cccccc" stroke="#000000" stroke-width="1.00"/>
<circle cx="89.64" cy="28.50" r="17.81" fill="#cccccc" stroke="#000000" stroke-width="1.00"/>
<circle cx="151.34" cy="64.12" r="17.81" fill="#cccccc" stroke="#000000" stroke-width="1.00"/>
<circle cx="151.62" cy="136.79" r="17.81" fill="#cccccc" stroke="#000000" stroke-width="1.00"/>
<circle cx="120.49" cy="46.31" r="17.81" fill="#cccccc" stroke="#000000" stroke-width="1.00"/>
<circle cx="225.59" cy="280.59" r="17.81" fill="#cccccc" stroke="#000000" stroke-width="1.00"/>
<circle cx="225.89" cy="339.88" r="17.81" fill="#cccccc" stroke="#000000" stroke-width="1.00"/>
<circle cx="151.34" cy="28.50" r="17.81" fill="#cccccc" stroke="#000000" stroke-width="1.00"/>
<circle cx="120.49" cy="226.33" r="17.81" fill="#cccccc" stroke="#000000" stroke-width="1.00"/>
<circle cx="242.30" cy="371.50" r="17.81" fill="#cccccc" stroke="#000000" stroke-width="1.00"/>
<circle cx="90.20" cy="100.70" r="17.81" fill="#cccccc" stroke="#000000" stroke-width="1.00"/>
<circle cx="263.68" cy="279.51" r="17.81" fill="#cccccc" stroke="#000000" stroke-width="1.00"/>
<circle cx="371.50" cy="278.95" r="17.81" fill="#cccccc" stroke="#000000" stroke-width="1.00"/>
<circle cx="62.61" cy="371.50" r="17.81" fill="#cccccc" stroke="#000000" stroke-width="1.00"/>
<circle cx="335.88" cy="340.65" r="17.81" fill="#cccccc" stroke="#000000" stroke-width="1.00"/>
<circle cx="89.92" cy="64.60" r="17.81" fill="#cccccc" stroke="#000000" stroke-width="1.00"/>
<circle cx="59.35" cy="154.13" r="17.81" fill="#cccccc" stroke="#000000" stroke-width="1.00"/>
<circle cx="121.35" cy="298.79" r="17.81" fill="#cccccc" stroke="#000000" stroke-width="1.00"/>
<circle cx="182.19" cy="81.93" r="17.81" fill="#cccccc" stroke="#000000" stroke-width="1.00"/>
<circle cx="59.07" cy="46.79" r="17.81" fill="#cccccc" stroke="#000000" stroke-width="1.00"/>
<circle cx="28.50" cy="319.95" r="17.81" fill="#cccccc" stroke="#000000" stroke-width="1.00"/>
<circle cx="28.50" cy="100.70" r="17.81" fill="#cccccc" stroke="#000000" stroke-width="1.00"/>
<circle cx="299.78" cy="340.93" r="17.81" fill="#cccccc" stroke="#000000" stroke-width="1.00"/>
<circle cx="60.32" cy="335.95" r="17.81" fill="#cccccc" stroke="#000000" stroke-width="1.00"/>
<circle cx="263.68" cy="217.81" r="17.81" fill="#cccccc" stroke="#000000" stroke-width="1.00"/>
<circle cx="335.40" cy="279.23" r="17.81" fill="#cccccc" stroke="#000000" stroke-width="1.00"/>
<circle cx="318.07" cy="371.50" r="17.81" fill="#cccccc" stroke="#000000" stroke-width="1.00"/>
<circle cx="120.77" cy="154.61" r="17.81" fill="#cccccc" stroke="#000000" stroke-width="1.00"/>
<circle cx="299.30" cy="217.81" r="17.81" fill="#cccccc" stroke="#000000" stroke-width="1.00"/>
<circle cx="371.50" cy="340.65" r="17.81" fill="#cccccc" stroke="#000000" stroke-width="1.00"/>
<circle cx="121.05" cy="118.51" r="17.81" fill="#cccccc" stroke="#000000" stroke-width="1.00"/>
<circle cx="182.19" cy="118.51" r="17.81" fill="#cccccc" stroke="#000000" stroke-width="1.00"/>
<circle cx="261.90" cy="341.75" r="17.81" fill="#cccccc" stroke="#000000" stroke-width="1.00"/>
<circle cx="334.93" cy="217.81" r="17.81" fill="#cccccc" stroke="#000000" stroke-width="1.00"/>
<circle cx="28.50" cy="280.71" r="17.81" fill="#cccccc" stroke="#000000" stroke-width="1.00"/>
<circle cx="151.77" cy="340.59" r="17.81" fill="#cccccc" stroke="#000000" stroke-width="1.00"/>
<circle cx="371.50" cy="217.81" r="17.81" fill="#cccccc" stroke="#000000" stroke-width="1.00"/>
<circle cx="151.34" cy="244.14" r="17.81" fill="#cccccc" stroke="#000000" stroke-width="1.00"/>
<circle cx="151.62" cy="100.22" r="17.81" fill="#cccccc" stroke="#000000" stroke-width="1.00"/>
<circle cx="353.69" cy="309.80" r="17.81" fill="#cccccc" stroke="#000000" stroke-width="1.00"/>
<circle cx="28.50" cy="65.07" r="17.81" fill="#cccccc" stroke="#000000" stroke-width="1.00"/>
<circle cx="170.37" cy="310.21" r="17.81" fill="#cccccc" stroke="#000000" stroke-width="1.00"/>
<circle cx="353.69" cy="371.50" r="17.81" fill="#cccccc" stroke="#000000" stroke-width="1.00"/>
<polygon points="10.69,389.31 389.31,389.31 389.31,200.00 200.00,200.00 200.00,10.69 10.69,10.69" fill="none" stroke="#000000" stroke-width="1.40"/>
</svg>