<svg xmlns="http://www.w3.org/2000/svg" width="400.0" height="400.0" viewBox="0 0 400.0 400.0">
<rect width="400.0" height="400.0" fill="white"/>
<circle cx="354.04" cy="248.30" r="17.68" fill="#cccccc" stroke="#000000" stroke-width="1.00"/>
<circle cx="194.95" cy="218.67" r="17.68" fill="#cccccc" stroke="#000000" stroke-width="1.00"/>
<circle cx="212.57" cy="371.72" r="17.68" fill="#cccccc" stroke="#000000" stroke-width="1.00"/>
<circle cx="247.97" cy="248.30" r="17.68" fill="#cccccc" stroke="#000000" stroke-width="1.00"/>
<circle cx="155.09" cy="283.43" r="17.68" fill="#cccccc" stroke="#000000" stroke-width="1.00"/>
<circle cx="120.14" cy="81.32" r="17.68" fill="#cccccc" stroke="#000000" stroke-width="1.00"/>
<circle cx="212.56" cy="249.33" r="17.68" fill="#cccccc" stroke="#000000" stroke-width="1.00"/>
<circle cx="58.90" cy="258.10" r="17.68" fill="#cccccc" stroke="#000000" stroke-width="1.00"/>
<circle cx="170.24" cy="371.72" r="17.68" fill="#cccccc" stroke="#000000" stroke-width="1.00"/>
<circle cx="92.84" cy="245.39" r="17.68" fill="#cccccc" stroke="#000000" stroke-width="1.00"/>
<circle cx="150.76" cy="169.71" r="17.68" fill="#cccccc" stroke="#000000" stroke-width="1.00"/>
<circle cx="182.32" cy="150.29" r="17.68" fill="#cccccc" stroke="#000000" stroke-width="1.00"/>
<circle cx="115.77" cy="341.97" r="17.68" fill="#cccccc" stroke="#000000" stroke-width="1.00"/>
<circle cx="191.40" cy="343.39" r="17.68" fill="#cccccc" stroke="#000000" stroke-width="1.00"/>
<circle cx="153.53" cy="210.54" r="17.68" fill="#cccccc" stroke="#000000" stroke-width="1.00"/>
<circle cx="28.28" cy="28.28" r="17.68" fill="#cccccc" stroke="#000000" stroke-width="1.00"/>
<circle cx="28.28" cy="205.07" r="17.68" fill="#cccccc" stroke="#000000" stroke-width="1.00"/>
<circle cx="120.14" cy="187.39" r="17.68" fill="#cccccc" stroke="#000000" stroke-width="1.00"/>
<circle cx="89.52" cy="205.07" r="17.68" fill="#cccccc" stroke="#000000" stroke-width="1.00"/>
<circle cx="318.70" cy="309.55" r="17.68" fill="#cccccc" stroke="#000000" stroke-width="1.00"/>
<circle cx="283.43" cy="371.72" r="17.68" fill="#cccccc" stroke="#000000" stroke-width="1.00"/>
<circle cx="54.29" cy="299.73" r="17.68" fill="#cccccc" stroke="#000000" stroke-width="1.00"/>
<circle cx="28.28" cy="240.42" r="17.68" fill="#cccccc" stroke="#000000" stroke-width="1.00"/>
<circle cx="182.32" cy="185.65" r="17.68" fill="#cccccc" stroke="#000000" stroke-width="1.00"/>
<circle cx="58.90" cy="116.68" r="17.68" fill="#cccccc" stroke="#000000" stroke-width="1.00"/>
<circle cx="194.42" cy="280.14" r="17.68" fill="#cccccc" stroke="#000000" stroke-width="1.00"/>
<circle cx="90.82" cy="316.91" r="17.68" fill="#cccccc" stroke="#000000" stroke-width="1.00"/>
<circle cx="84.91" cy="282.06" r="17.68" fill="#cccccc" stroke="#000000" stroke-width="1.00"/>
<circle cx="58.90" cy="187.39" r="17.68" fill="#cccccc" stroke="#000000" stroke-width="1.00"/>
<circle cx="120.08" cy="278.48" r="17.68" fill="#cccccc" stroke="#000000" stroke-width="1.00"/>
<circle cx="283.35" cy="309.55" r="17.68" fill="#cccccc" stroke="#000000" stroke-width="1.00"/>
<circle cx="248.00" cy="310.52" r="17.68" fill="#cccccc" stroke="#000000" stroke-width="1.00"/>
<circle cx="182.32" cy="44.22" r="17.68" fill="#cccccc" stroke="#000000" stroke-width="1.00"/>
<circle cx="58.90" cy="222.74" r="17.68" fill="#cccccc" stroke="#000000" stroke-width="1.00"/>
<circle cx="230.29" cy="217.68" r="17.68" fill="#cccccc" stroke="#000000" stroke-width="1.00"/>
<circle cx="283.32" cy="248.30" r="17.68" fill="#cccccc" stroke="#000000" stroke-width="1.00"/>
<circle cx="58.90" cy="81.32" r="17.68" fill="#cccccc" stroke="#000000" stroke-width="1.00"/>
<circle cx="134.88" cy="371.72" r="17.68" fill="#cccccc" stroke="#000000" stroke-width="1.00"/>
<circle cx="89.52" cy="134.35" r="17.68" fill="#cccccc" stroke="#000000" stroke-width="1.00"/>
<circle cx="212.55" cy="310.49" r="17.68" fill="#cccccc" stroke="#000000" stroke-width="1.00"/>
<circle cx="89.52" cy="169.71" r="17.68" fill="#cccccc" stroke="#000000" stroke-width="1.00"/>
<circle cx="318.68" cy="248.30" r="17.68" fill="#cccccc" stroke="#000000" stroke-width="1.00"/>
<circle cx="96.65" cy="371.72" r="17.68" fill="#cccccc" stroke="#000000" stroke-width="1.00"/>
<circle cx="28.28" cy="169.71" r="17.68" fill="#cccccc" stroke="#000000" stroke-width="1.00"/>
<circle cx="28.28" cy="134.35" r="17.68" fill="#cccccc" stroke="#000000" stroke-width="1.00"/>
<circle cx="301.00" cy="278.92" r="17.68" fill="#cccccc" stroke="#000000" stroke-width="1.00"/>
<circle cx="28.28" cy="359.05" r="17.68" fill="#cccccc" stroke="#000000" stroke-width="1.00"/>
<circle cx="89.52" cy="28.28" r="17.68" fill="#cccccc" stroke="#000000" stroke-width="1.00"/>
<circle cx="150.76" cy="63.64" r="17.68" fill="#cccccc" stroke="#000000" stroke-width="1.00"/>
<circle cx="150.76" cy="134.35" r="17.68" fill="#cccccc" stroke="#000000" stroke-width="1.00"/>
<circle cx="120.14" cy="45.96" r="17.68" fill="#cccccc" stroke="#000000" stroke-width="1.00"/>
<circle cx="230.30" cy="279.91" r="17.68" fill="#cccccc" stroke="#000000" stroke-width="1.00"/>
<circle cx="230.25" cy="341.10" r="17.68" fill="#cccccc" stroke="#000000" stroke-width="1.00"/>
<circle cx="150.76" cy="28.28" r="17.68" fill="#cccccc" stroke="#000000" stroke-width="1.00"/>
<circle cx="120.14" cy="222.74" r="17.68" fill="#cccccc" stroke="#000000" stroke-width="1.00"/>
<circle cx="247.93" cy="371.72" r="17.68" fill="#cccccc" stroke="#000000" stroke-width="1.00"/>
<circle cx="89.52" cy="99.00" r="17.68" fill="#cccccc" stroke="#000000" stroke-width="1.00"/>
<circle cx="265.65" cy="278.92" r="17.68" fill="#cccccc" stroke="#000000" stroke-width="1.00"/>
<circle cx="371.72" cy="278.92" r="17.68" fill="#cccccc" stroke="#000000" stroke-width="1.00"/>
<circle cx="61.29" cy="371.72" r="17.68" fill="#cccccc" stroke="#000000" stroke-width="1.00"/>
<circle cx="336.37" cy="341.04" r="17.68" fill="#cccccc" stroke="#000000" stroke-width="1.00"/>
<circle cx="89.52" cy="63.64" r="17.68" fill="#cccccc" stroke="#000000" stroke-width="1.00"/>
<circle cx="58.90" cy="152.03" r="17.68" fill="#cccccc" stroke="#000000" stroke-width="1.00"/>
<circle cx="133.30" cy="311.27" r="17.68" fill="#cccccc" stroke="#000000" stroke-width="1.00"/>
<circle cx="182.32" cy="79.58" r="17.68" fill="#cccccc" stroke="#000000" stroke-width="1.00"/>
<circle cx="58.90" cy="45.96" r="17.68" fill="#cccccc" stroke="#000000" stroke-width="1.00"/>
<circle cx="28.28" cy="323.69" r="17.68" fill="#cccccc" stroke="#000000" stroke-width="1.00"/>
<circle cx="28.28" cy="99.00" r="17.68" fill="#cccccc" stroke="#000000" stroke-width="1.00"/>
<circle cx="301.02" cy="340.17" r="17.68" fill="#cccccc" stroke="#000000" stroke-width="1.00"/>
<circle cx="61.29" cy="336.36" r="17.68" fill="#cccccc" stroke="#000000" stroke-width="1.00"/>
<circle cx="265.65" cy="217.68" r="17.68" fill="#cccccc" stroke="#000000" stroke-width="1.00"/>
<circle cx="336.36" cy="278.92" r="17.68" fill="#cccccc" stroke="#000000" stroke-width="1.00"/>
<circle cx="318.79" cy="371.72" r="17.68" fill="#cccccc" stroke="#000000" stroke-width="1.00"/>
<circle cx="120.14" cy="152.03" r="17.68" fill="#cccccc" stroke="#000000" stroke-width="1.00"/>
<circle cx="301.00" cy="217.68" r="17.68" fill="#cccccc" stroke="#000000" stroke-width="1.00"/>
<circle cx="371.72" cy="340.18" r="17.68" fill="#cccccc" stroke="#000000" stroke-width="1.00"/>
<circle cx="120.14" cy="116.68" r="17.68" fill="#cccccc" stroke="#000000" stroke-width="1.00"/>
<circle cx="182.32" cy="114.94" r="17.68" fill="#cccccc" stroke="#000000" stroke-width="1.00"/>
<circle cx="265.68" cy="341.14" r="17.68" fill="#cccccc" stroke="#000000" stroke-width="1.00"/>
<circle cx="336.36" cy="217.68" r="17.68" fill="#cccccc" stroke="#000000" stroke-width="1.00"/>
<circle cx="28.28" cy="275.78" r="17.68" fill="#cccccc" stroke="#000000" stroke-width="1.00"/>
<circle cx="155.52" cy="339.54" r="17.68" fill="#cccccc" stroke="#000000" stroke-width="1.00"/>
<circle cx="371.72" cy="217.68" r="17.68" fill="#cccccc" stroke="#000000" stroke-width="1.00"/>
<circle cx="141.87" cy="250.63" r="17.68" fill="#cccccc" stroke="#000000" stroke-width="1.00"/>
<circle cx="150.76" cy="99.00" r="17.68" fill="#cccccc" stroke="#000000" stroke-width="1.00"/>
<circle cx="354.06" cy="309.55" r="17.68" fill="#cccccc" stroke="#000000" stroke-width="1.00"/>
<circle cx="28.28" cy="63.64" r="17.68" fill="#cccccc" stroke="#000000" stroke-width="1.00"/>
<circle cx="177.20" cy="311.02" r="17.68" fill="#cccccc" stroke="#000000" stroke-width="1.00"/>
<circle cx="354.48" cy="371.72" r="17.68" fill="#cccccc" stroke="#000000" stroke-width="1.00"/>
<circle cx="177.20" cy="249.25" r="17.68" fill="#cccccc" stroke="#000000" stroke-width="1.00"/>
<polygon points="10.61,389.39 389.39,389.39 389.39,200.00 200.00,200.00 200.00,10.61 10.61,10.61" fill="none" stroke="#000000" stroke-width="1.40"/>
</svg>