<svg xmlns="http://www.w3.org/2000/svg" width="400.0" height="400.0" viewBox="0 0 400.0 400.0">
<rect width="400.0" height="400.0" fill="white"/>
<circle cx="354.09" cy="248.29" r="17.67" fill="#cccccc" stroke="#000000" stroke-width="1.00"/>
<circle cx="195.06" cy="218.28" r="17.67" fill="#cccccc" stroke="#000000" stroke-width="1.00"/>
<circle cx="213.53" cy="371.73" r="17.67" fill="#cccccc" stroke="#000000" stroke-width="1.00"/>
<circle cx="248.08" cy="248.29" r="17.67" fill="#cccccc" stroke="#000000" stroke-width="1.00"/>
<circle cx="156.69" cy="282.43" r="17.67" fill="#cccccc" stroke="#000000" stroke-width="1.00"/>
<circle cx="120.07" cy="81.27" r="17.67" fill="#cccccc" stroke="#000000" stroke-width="1.00"/>
<circle cx="212.75" cy="248.87" r="17.67" fill="#cccccc" stroke="#000000" stroke-width="1.00"/>
<circle cx="58.87" cy="257.95" r="17.67" fill="#cccccc" stroke="#000000" stroke-width="1.00"/>
<circle cx="174.92" cy="371.73" r="17.67" fill="#cccccc" stroke="#000000" stroke-width="1.00"/>
<circle cx="89.87" cy="240.97" r="17.67" fill="#cccccc" stroke="#000000" stroke-width="1.00"/>
<circle cx="150.68" cy="169.61" r="17.67" fill="#cccccc" stroke="#000000" stroke-width="1.00"/>
<circle cx="182.33" cy="149.98" r="17.67" fill="#cccccc" stroke="#000000" stroke-width="1.00"/>
<circle cx="119.63" cy="342.57" r="17.67" fill="#cccccc" stroke="#000000" stroke-width="1.00"/>
<circle cx="194.23" cy="342.13" r="17.67" fill="#cccccc" stroke="#000000" stroke-width="1.00"/>
<circle cx="152.45" cy="204.91" r="17.67" fill="#cccccc" stroke="#000000" stroke-width="1.00"/>
<circle cx="28.27" cy="28.27" r="17.67" fill="#cccccc" stroke="#000000" stroke-width="1.00"/>
<circle cx="28.27" cy="204.95" r="17.67" fill="#cccccc" stroke="#000000" stroke-width="1.00"/>
<circle cx="120.07" cy="187.28" r="17.67" fill="#cccccc" stroke="#000000" stroke-width="1.00"/>
<circle cx="89.47" cy="204.95" r="17.67" fill="#cccccc" stroke="#000000" stroke-width="1.00"/>
<circle cx="318.74" cy="309.51" r="17.67" fill="#cccccc" stroke="#000000" stroke-width="1.00"/>
<circle cx="284.20" cy="371.16" r="17.67" fill="#cccccc" stroke="#000000" stroke-width="1.00"/>
<circle cx="63.52" cy="307.66" r="17.67" fill="#cccccc" stroke="#000000" stroke-width="1.00"/>
<circle cx="28.27" cy="240.29" r="17.67" fill="#cccccc" stroke="#000000" stroke-width="1.00"/>
<circle cx="182.33" cy="185.32" r="17.67" fill="#cccccc" stroke="#000000" stroke-width="1.00"/>
<circle cx="58.87" cy="116.61" r="17.67" fill="#cccccc" stroke="#000000" stroke-width="1.00"/>
<circle cx="194.22" cy="279.98" r="17.67" fill="#cccccc" stroke="#000000" stroke-width="1.00"/>
<circle cx="101.96" cy="311.97" r="17.67" fill="#cccccc" stroke="#000000" stroke-width="1.00"/>
<circle cx="86.21" cy="280.34" r="17.67" fill="#cccccc" stroke="#000000" stroke-width="1.00"/>
<circle cx="58.87" cy="187.28" r="17.67" fill="#cccccc" stroke="#000000" stroke-width="1.00"/>
<circle cx="121.52" cy="278.97" r="17.67" fill="#cccccc" stroke="#000000" stroke-width="1.00"/>
<circle cx="283.40" cy="309.51" r="17.67" fill="#cccccc" stroke="#000000" stroke-width="1.00"/>
<circle cx="248.07" cy="310.08" r="17.67" fill="#cccccc" stroke="#000000" stroke-width="1.00"/>
<circle cx="182.33" cy="43.97" r="17.67" fill="#cccccc" stroke="#000000" stroke-width="1.00"/>
<circle cx="58.87" cy="222.62" r="17.67" fill="#cccccc" stroke="#000000" stroke-width="1.00"/>
<circle cx="230.39" cy="217.67" r="17.67" fill="#cccccc" stroke="#000000" stroke-width="1.00"/>
<circle cx="283.42" cy="248.29" r="17.67" fill="#cccccc" stroke="#000000" stroke-width="1.00"/>
<circle cx="58.87" cy="81.27" r="17.67" fill="#cccccc" stroke="#000000" stroke-width="1.00"/>
<circle cx="139.59" cy="371.73" r="17.67" fill="#cccccc" stroke="#000000" stroke-width="1.00"/>
<circle cx="89.47" cy="134.28" r="17.67" fill="#cccccc" stroke="#000000" stroke-width="1.00"/>
<circle cx="212.72" cy="310.09" r="17.67" fill="#cccccc" stroke="#000000" stroke-width="1.00"/>
<circle cx="89.47" cy="169.61" r="17.67" fill="#cccccc" stroke="#000000" stroke-width="1.00"/>
<circle cx="318.75" cy="248.29" r="17.67" fill="#cccccc" stroke="#000000" stroke-width="1.00"/>
<circle cx="99.67" cy="371.73" r="17.67" fill="#cccccc" stroke="#000000" stroke-width="1.00"/>
<circle cx="28.27" cy="169.61" r="17.67" fill="#cccccc" stroke="#000000" stroke-width="1.00"/>
<circle cx="28.27" cy="134.28" r="17.67" fill="#cccccc" stroke="#000000" stroke-width="1.00"/>
<circle cx="301.06" cy="278.90" r="17.67" fill="#cccccc" stroke="#000000" stroke-width="1.00"/>
<circle cx="28.91" cy="371.73" r="17.67" fill="#cccccc" stroke="#000000" stroke-width="1.00"/>
<circle cx="89.47" cy="28.27" r="17.67" fill="#cccccc" stroke="#000000" stroke-width="1.00"/>
<circle cx="150.68" cy="63.60" r="17.67" fill="#cccccc" stroke="#000000" stroke-width="1.00"/>
<circle cx="150.68" cy="134.28" r="17.67" fill="#cccccc" stroke="#000000" stroke-width="1.00"/>
<circle cx="120.07" cy="45.94" r="17.67" fill="#cccccc" stroke="#000000" stroke-width="1.00"/>
<circle cx="230.39" cy="279.48" r="17.67" fill="#cccccc" stroke="#000000" stroke-width="1.00"/>
<circle cx="230.40" cy="340.68" r="17.67" fill="#cccccc" stroke="#000000" stroke-width="1.00"/>
<circle cx="150.68" cy="28.27" r="17.67" fill="#cccccc" stroke="#000000" stroke-width="1.00"/>
<circle cx="120.07" cy="222.62" r="17.67" fill="#cccccc" stroke="#000000" stroke-width="1.00"/>
<circle cx="248.86" cy="371.73" r="17.67" fill="#cccccc" stroke="#000000" stroke-width="1.00"/>
<circle cx="89.47" cy="98.94" r="17.67" fill="#cccccc" stroke="#000000" stroke-width="1.00"/>
<circle cx="265.72" cy="278.90" r="17.67" fill="#cccccc" stroke="#000000" stroke-width="1.00"/>
<circle cx="371.73" cy="278.90" r="17.67" fill="#cccccc" stroke="#000000" stroke-width="1.00"/>
<circle cx="64.33" cy="371.73" r="17.67" fill="#cccccc" stroke="#000000" stroke-width="1.00"/>
<circle cx="336.40" cy="340.68" r="17.67" fill="#cccccc" stroke="#000000" stroke-width="1.00"/>
<circle cx="89.47" cy="63.60" r="17.67" fill="#cccccc" stroke="#000000" stroke-width="1.00"/>
<circle cx="58.87" cy="151.94" r="17.67" fill="#cccccc" stroke="#000000" stroke-width="1.00"/>
<circle cx="137.30" cy="311.97" r="17.67" fill="#cccccc" stroke="#000000" stroke-width="1.00"/>
<circle cx="182.33" cy="79.31" r="17.67" fill="#cccccc" stroke="#000000" stroke-width="1.00"/>
<circle cx="58.87" cy="45.94" r="17.67" fill="#cccccc" stroke="#000000" stroke-width="1.00"/>
<circle cx="28.27" cy="310.96" r="17.67" fill="#cccccc" stroke="#000000" stroke-width="1.00"/>
<circle cx="28.27" cy="98.94" r="17.67" fill="#cccccc" stroke="#000000" stroke-width="1.00"/>
<circle cx="301.07" cy="340.11" r="17.67" fill="#cccccc" stroke="#000000" stroke-width="1.00"/>
<circle cx="46.66" cy="341.13" r="17.67" fill="#cccccc" stroke="#000000" stroke-width="1.00"/>
<circle cx="265.72" cy="217.67" r="17.67" fill="#cccccc" stroke="#000000" stroke-width="1.00"/>
<circle cx="336.40" cy="278.90" r="17.67" fill="#cccccc" stroke="#000000" stroke-width="1.00"/>
<circle cx="319.53" cy="371.73" r="17.67" fill="#cccccc" stroke="#000000" stroke-width="1.00"/>
<circle cx="120.07" cy="151.94" r="17.67" fill="#cccccc" stroke="#000000" stroke-width="1.00"/>
<circle cx="301.06" cy="217.67" r="17.67" fill="#cccccc" stroke="#000000" stroke-width="1.00"/>
<circle cx="371.73" cy="340.12" r="17.67" fill="#cccccc" stroke="#000000" stroke-width="1.00"/>
<circle cx="120.07" cy="116.61" r="17.67" fill="#cccccc" stroke="#000000" stroke-width="1.00"/>
<circle cx="182.33" cy="114.64" r="17.67" fill="#cccccc" stroke="#000000" stroke-width="1.00"/>
<circle cx="265.74" cy="340.68" r="17.67" fill="#cccccc" stroke="#000000" stroke-width="1.00"/>
<circle cx="336.40" cy="217.67" r="17.67" fill="#cccccc" stroke="#000000" stroke-width="1.00"/>
<circle cx="28.27" cy="275.62" r="17.67" fill="#cccccc" stroke="#000000" stroke-width="1.00"/>
<circle cx="157.57" cy="340.92" r="17.67" fill="#cccccc" stroke="#000000" stroke-width="1.00"/>
<circle cx="371.73" cy="217.67" r="17.67" fill="#cccccc" stroke="#000000" stroke-width="1.00"/>
<circle cx="142.11" cy="250.24" r="17.67" fill="#cccccc" stroke="#000000" stroke-width="1.00"/>
<circle cx="150.68" cy="98.94" r="17.67" fill="#cccccc" stroke="#000000" stroke-width="1.00"/>
<circle cx="354.07" cy="309.51" r="17.67" fill="#cccccc" stroke="#000000" stroke-width="1.00"/>
<circle cx="28.27" cy="63.60" r="17.67" fill="#cccccc" stroke="#000000" stroke-width="1.00"/>
<circle cx="177.40" cy="311.06" r="17.67" fill="#cccccc" stroke="#000000" stroke-width="1.00"/>
<circle cx="355.34" cy="371.73" r="17.67" fill="#cccccc" stroke="#000000" stroke-width="1.00"/>
<circle cx="177.42" cy="248.90" r="17.67" fill="#cccccc" stroke="#000000" stroke-width="1.00"/>
<circle cx="82.00" cy="341.13" r="17.67" fill="#cccccc" stroke="#000000" stroke-width="1.00"/>
<polygon points="10.60,389.40 389.40,389.40 389.40,200.00 200.00,200.00 200.00,10.60 10.60,10.60" fill="none" stroke="#000000" stroke-width="1.40"/>
</svg>