<svg xmlns="http://www.w3.org/2000/svg" width="400.0" height="400.0" viewBox="0 0 400.0 400.0">
<rect width="400.0" height="400.0" fill="white"/>
<circle cx="354.49" cy="247.75" r="17.49" fill="#cccccc" stroke="#000000" stroke-width="1.00"/>
<circle cx="196.59" cy="217.38" r="17.49" fill="#cccccc" stroke="#000000" stroke-width="1.00"/>
<circle cx="221.89" cy="372.02" r="17.49" fill="#cccccc" stroke="#000000" stroke-width="1.00"/>
<circle cx="249.24" cy="247.71" r="17.49" fill="#cccccc" stroke="#000000" stroke-width="1.00"/>
<circle cx="161.27" cy="277.88" r="17.49" fill="#cccccc" stroke="#000000" stroke-width="1.00"/>
<circle cx="121.93" cy="80.44" r="17.49" fill="#cccccc" stroke="#000000" stroke-width="1.00"/>
<circle cx="214.02" cy="247.71" r="17.49" fill="#cccccc" stroke="#000000" stroke-width="1.00"/>
<circle cx="59.81" cy="252.32" r="17.49" fill="#cccccc" stroke="#000000" stroke-width="1.00"/>
<circle cx="186.91" cy="372.02" r="17.49" fill="#cccccc" stroke="#000000" stroke-width="1.00"/>
<circle cx="91.64" cy="237.83" r="17.49" fill="#cccccc" stroke="#000000" stroke-width="1.00"/>
<circle cx="152.22" cy="167.88" r="17.49" fill="#cccccc" stroke="#000000" stroke-width="1.00"/>
<circle cx="182.51" cy="150.39" r="17.49" fill="#cccccc" stroke="#000000" stroke-width="1.00"/>
<circle cx="122.71" cy="337.52" r="17.49" fill="#cccccc" stroke="#000000" stroke-width="1.00"/>
<circle cx="196.41" cy="338.36" r="17.49" fill="#cccccc" stroke="#000000" stroke-width="1.00"/>
<circle cx="154.00" cy="205.71" r="17.49" fill="#cccccc" stroke="#000000" stroke-width="1.00"/>
<circle cx="27.98" cy="27.98" r="17.49" fill="#cccccc" stroke="#000000" stroke-width="1.00"/>
<circle cx="27.98" cy="202.85" r="17.49" fill="#cccccc" stroke="#000000" stroke-width="1.00"/>
<circle cx="121.93" cy="185.37" r="17.49" fill="#cccccc" stroke="#000000" stroke-width="1.00"/>
<circle cx="91.64" cy="202.85" r="17.49" fill="#cccccc" stroke="#000000" stroke-width="1.00"/>
<circle cx="319.43" cy="308.28" r="17.49" fill="#cccccc" stroke="#000000" stroke-width="1.00"/>
<circle cx="291.84" cy="372.02" r="17.49" fill="#cccccc" stroke="#000000" stroke-width="1.00"/>
<circle cx="70.90" cy="320.47" r="17.49" fill="#cccccc" stroke="#000000" stroke-width="1.00"/>
<circle cx="27.98" cy="237.83" r="17.49" fill="#cccccc" stroke="#000000" stroke-width="1.00"/>
<circle cx="182.51" cy="185.37" r="17.49" fill="#cccccc" stroke="#000000" stroke-width="1.00"/>
<circle cx="59.81" cy="112.42" r="17.49" fill="#cccccc" stroke="#000000" stroke-width="1.00"/>
<circle cx="196.47" cy="277.96" r="17.49" fill="#cccccc" stroke="#000000" stroke-width="1.00"/>
<circle cx="103.36" cy="306.95" r="17.49" fill="#cccccc" stroke="#000000" stroke-width="1.00"/>
<circle cx="91.64" cy="272.80" r="17.49" fill="#cccccc" stroke="#000000" stroke-width="1.00"/>
<circle cx="59.81" cy="182.37" r="17.49" fill="#cccccc" stroke="#000000" stroke-width="1.00"/>
<circle cx="126.30" cy="277.55" r="17.49" fill="#cccccc" stroke="#000000" stroke-width="1.00"/>
<circle cx="284.30" cy="308.24" r="17.49" fill="#cccccc" stroke="#000000" stroke-width="1.00"/>
<circle cx="249.18" cy="308.18" r="17.49" fill="#cccccc" stroke="#000000" stroke-width="1.00"/>
<circle cx="182.51" cy="45.47" r="17.49" fill="#cccccc" stroke="#000000" stroke-width="1.00"/>
<circle cx="59.81" cy="217.34" r="17.49" fill="#cccccc" stroke="#000000" stroke-width="1.00"/>
<circle cx="231.63" cy="217.49" r="17.49" fill="#cccccc" stroke="#000000" stroke-width="1.00"/>
<circle cx="284.40" cy="247.74" r="17.49" fill="#cccccc" stroke="#000000" stroke-width="1.00"/>
<circle cx="59.81" cy="77.44" r="17.49" fill="#cccccc" stroke="#000000" stroke-width="1.00"/>
<circle cx="151.94" cy="372.02" r="17.49" fill="#cccccc" stroke="#000000" stroke-width="1.00"/>
<circle cx="91.64" cy="132.90" r="17.49" fill="#cccccc" stroke="#000000" stroke-width="1.00"/>
<circle cx="214.08" cy="308.18" r="17.49" fill="#cccccc" stroke="#000000" stroke-width="1.00"/>
<circle cx="91.64" cy="167.88" r="17.49" fill="#cccccc" stroke="#000000" stroke-width="1.00"/>
<circle cx="319.46" cy="247.77" r="17.49" fill="#cccccc" stroke="#000000" stroke-width="1.00"/>
<circle cx="116.96" cy="372.02" r="17.49" fill="#cccccc" stroke="#000000" stroke-width="1.00"/>
<circle cx="27.98" cy="167.88" r="17.49" fill="#cccccc" stroke="#000000" stroke-width="1.00"/>
<circle cx="27.98" cy="132.90" r="17.49" fill="#cccccc" stroke="#000000" stroke-width="1.00"/>
<circle cx="301.91" cy="278.02" r="17.49" fill="#cccccc" stroke="#000000" stroke-width="1.00"/>
<circle cx="27.98" cy="372.02" r="17.49" fill="#cccccc" stroke="#000000" stroke-width="1.00"/>
<circle cx="91.64" cy="27.98" r="17.49" fill="#cccccc" stroke="#000000" stroke-width="1.00"/>
<circle cx="152.22" cy="62.95" r="17.49" fill="#cccccc" stroke="#000000" stroke-width="1.00"/>
<circle cx="152.22" cy="132.90" r="17.49" fill="#cccccc" stroke="#000000" stroke-width="1.00"/>
<circle cx="121.93" cy="45.47" r="17.49" fill="#cccccc" stroke="#000000" stroke-width="1.00"/>
<circle cx="231.63" cy="277.92" r="17.49" fill="#cccccc" stroke="#000000" stroke-width="1.00"/>
<circle cx="231.63" cy="338.43" r="17.49" fill="#cccccc" stroke="#000000" stroke-width="1.00"/>
<circle cx="152.22" cy="27.98" r="17.49" fill="#cccccc" stroke="#000000" stroke-width="1.00"/>
<circle cx="121.93" cy="220.34" r="17.49" fill="#cccccc" stroke="#000000" stroke-width="1.00"/>
<circle cx="256.86" cy="372.02" r="17.49" fill="#cccccc" stroke="#000000" stroke-width="1.00"/>
<circle cx="91.64" cy="97.93" r="17.49" fill="#cccccc" stroke="#000000" stroke-width="1.00"/>
<circle cx="266.79" cy="277.96" r="17.49" fill="#cccccc" stroke="#000000" stroke-width="1.00"/>
<circle cx="372.02" cy="278.02" r="17.49" fill="#cccccc" stroke="#000000" stroke-width="1.00"/>
<circle cx="62.95" cy="372.02" r="17.49" fill="#cccccc" stroke="#000000" stroke-width="1.00"/>
<circle cx="336.96" cy="338.55" r="17.49" fill="#cccccc" stroke="#000000" stroke-width="1.00"/>
<circle cx="91.64" cy="62.95" r="17.49" fill="#cccccc" stroke="#000000" stroke-width="1.00"/>
<circle cx="59.81" cy="147.39" r="17.49" fill="#cccccc" stroke="#000000" stroke-width="1.00"/>
<circle cx="142.38" cy="308.60" r="17.49" fill="#cccccc" stroke="#000000" stroke-width="1.00"/>
<circle cx="182.51" cy="80.44" r="17.49" fill="#cccccc" stroke="#000000" stroke-width="1.00"/>
<circle cx="59.81" cy="42.47" r="17.49" fill="#cccccc" stroke="#000000" stroke-width="1.00"/>
<circle cx="27.98" cy="307.78" r="17.49" fill="#cccccc" stroke="#000000" stroke-width="1.00"/>
<circle cx="27.98" cy="97.93" r="17.49" fill="#cccccc" stroke="#000000" stroke-width="1.00"/>
<circle cx="301.82" cy="338.50" r="17.49" fill="#cccccc" stroke="#000000" stroke-width="1.00"/>
<circle cx="41.82" cy="339.90" r="17.49" fill="#cccccc" stroke="#000000" stroke-width="1.00"/>
<circle cx="266.85" cy="217.49" r="17.49" fill="#cccccc" stroke="#000000" stroke-width="1.00"/>
<circle cx="336.99" cy="278.03" r="17.49" fill="#cccccc" stroke="#000000" stroke-width="1.00"/>
<circle cx="326.81" cy="372.02" r="17.49" fill="#cccccc" stroke="#000000" stroke-width="1.00"/>
<circle cx="121.93" cy="150.39" r="17.49" fill="#cccccc" stroke="#000000" stroke-width="1.00"/>
<circle cx="301.95" cy="217.49" r="17.49" fill="#cccccc" stroke="#000000" stroke-width="1.00"/>
<circle cx="372.02" cy="338.58" r="17.49" fill="#cccccc" stroke="#000000" stroke-width="1.00"/>
<circle cx="121.93" cy="115.42" r="17.49" fill="#cccccc" stroke="#000000" stroke-width="1.00"/>
<circle cx="182.51" cy="115.42" r="17.49" fill="#cccccc" stroke="#000000" stroke-width="1.00"/>
<circle cx="266.69" cy="338.45" r="17.49" fill="#cccccc" stroke="#000000" stroke-width="1.00"/>
<circle cx="336.97" cy="217.49" r="17.49" fill="#cccccc" stroke="#000000" stroke-width="1.00"/>
<circle cx="27.98" cy="272.80" r="17.49" fill="#cccccc" stroke="#000000" stroke-width="1.00"/>
<circle cx="160.97" cy="338.23" r="17.49" fill="#cccccc" stroke="#000000" stroke-width="1.00"/>
<circle cx="372.02" cy="217.49" r="17.49" fill="#cccccc" stroke="#000000" stroke-width="1.00"/>
<circle cx="144.07" cy="247.42" r="17.49" fill="#cccccc" stroke="#000000" stroke-width="1.00"/>
<circle cx="152.22" cy="97.93" r="17.49" fill="#cccccc" stroke="#000000" stroke-width="1.00"/>
<circle cx="354.51" cy="308.30" r="17.49" fill="#cccccc" stroke="#000000" stroke-width="1.00"/>
<circle cx="27.98" cy="62.95" r="17.49" fill="#cccccc" stroke="#000000" stroke-width="1.00"/>
<circle cx="178.80" cy="308.14" r="17.49" fill="#cccccc" stroke="#000000" stroke-width="1.00"/>
<circle cx="361.79" cy="372.02" r="17.49" fill="#cccccc" stroke="#000000" stroke-width="1.00"/>
<circle cx="179.04" cy="247.64" r="17.49" fill="#cccccc" stroke="#000000" stroke-width="1.00"/>
<circle cx="89.96" cy="349.79" r="17.49" fill="#cccccc" stroke="#000000" stroke-width="1.00"/>
<circle cx="59.81" cy="287.29" r="17.49" fill="#cccccc" stroke="#000000" stroke-width="1.00"/>
<polygon points="10.49,389.51 389.51,389.51 389.51,200.00 200.00,200.00 200.00,10.49 10.49,10.49" fill="none" stroke="#000000" stroke-width="1.40"/>
</svg>