<svg xmlns="http://www.w3.org/2000/svg" width="400.0" height="400.0" viewBox="0 0 400.0 400.0">
<rect width="400.0" height="400.0" fill="white"/>
<circle cx="356.78" cy="248.57" r="17.39" fill="#cccccc" stroke="#000000" stroke-width="1.00"/>
<circle cx="198.28" cy="217.31" r="17.39" fill="#cccccc" stroke="#000000" stroke-width="1.00"/>
<circle cx="219.88" cy="372.18" r="17.39" fill="#cccccc" stroke="#000000" stroke-width="1.00"/>
<circle cx="252.44" cy="248.57" r="17.39" fill="#cccccc" stroke="#000000" stroke-width="1.00"/>
<circle cx="157.33" cy="276.34" r="17.39" fill="#cccccc" stroke="#000000" stroke-width="1.00"/>
<circle cx="121.38" cy="78.08" r="17.39" fill="#cccccc" stroke="#000000" stroke-width="1.00"/>
<circle cx="217.66" cy="248.57" r="17.39" fill="#cccccc" stroke="#000000" stroke-width="1.00"/>
<circle cx="58.01" cy="253.64" r="17.39" fill="#cccccc" stroke="#000000" stroke-width="1.00"/>
<circle cx="185.10" cy="372.18" r="17.39" fill="#cccccc" stroke="#000000" stroke-width="1.00"/>
<circle cx="88.13" cy="236.25" r="17.39" fill="#cccccc" stroke="#000000" stroke-width="1.00"/>
<circle cx="150.43" cy="166.81" r="17.39" fill="#cccccc" stroke="#000000" stroke-width="1.00"/>
<circle cx="182.61" cy="149.49" r="17.39" fill="#cccccc" stroke="#000000" stroke-width="1.00"/>
<circle cx="128.73" cy="339.99" r="17.39" fill="#cccccc" stroke="#000000" stroke-width="1.00"/>
<circle cx="198.28" cy="339.99" r="17.39" fill="#cccccc" stroke="#000000" stroke-width="1.00"/>
<circle cx="152.42" cy="201.54" r="17.39" fill="#cccccc" stroke="#000000" stroke-width="1.00"/>
<circle cx="27.82" cy="27.82" r="17.39" fill="#cccccc" stroke="#000000" stroke-width="1.00"/>
<circle cx="27.82" cy="201.59" r="17.39" fill="#cccccc" stroke="#000000" stroke-width="1.00"/>
<circle cx="119.31" cy="182.35" r="17.39" fill="#cccccc" stroke="#000000" stroke-width="1.00"/>
<circle cx="90.19" cy="201.54" r="17.39" fill="#cccccc" stroke="#000000" stroke-width="1.00"/>
<circle cx="320.01" cy="309.87" r="17.39" fill="#cccccc" stroke="#000000" stroke-width="1.00"/>
<circle cx="289.44" cy="372.18" r="17.39" fill="#cccccc" stroke="#000000" stroke-width="1.00"/>
<circle cx="68.50" cy="321.58" r="17.39" fill="#cccccc" stroke="#000000" stroke-width="1.00"/>
<circle cx="27.82" cy="236.37" r="17.39" fill="#cccccc" stroke="#000000" stroke-width="1.00"/>
<circle cx="182.61" cy="184.27" r="17.39" fill="#cccccc" stroke="#000000" stroke-width="1.00"/>
<circle cx="60.07" cy="114.59" r="17.39" fill="#cccccc" stroke="#000000" stroke-width="1.00"/>
<circle cx="198.28" cy="279.76" r="17.39" fill="#cccccc" stroke="#000000" stroke-width="1.00"/>
<circle cx="102.93" cy="316.67" r="17.39" fill="#cccccc" stroke="#000000" stroke-width="1.00"/>
<circle cx="88.53" cy="271.47" r="17.39" fill="#cccccc" stroke="#000000" stroke-width="1.00"/>
<circle cx="58.01" cy="184.09" r="17.39" fill="#cccccc" stroke="#000000" stroke-width="1.00"/>
<circle cx="120.31" cy="286.55" r="17.39" fill="#cccccc" stroke="#000000" stroke-width="1.00"/>
<circle cx="285.23" cy="309.87" r="17.39" fill="#cccccc" stroke="#000000" stroke-width="1.00"/>
<circle cx="250.45" cy="309.87" r="17.39" fill="#cccccc" stroke="#000000" stroke-width="1.00"/>
<circle cx="182.46" cy="41.88" r="17.39" fill="#cccccc" stroke="#000000" stroke-width="1.00"/>
<circle cx="58.01" cy="218.86" r="17.39" fill="#cccccc" stroke="#000000" stroke-width="1.00"/>
<circle cx="233.06" cy="217.39" r="17.39" fill="#cccccc" stroke="#000000" stroke-width="1.00"/>
<circle cx="287.22" cy="248.57" r="17.39" fill="#cccccc" stroke="#000000" stroke-width="1.00"/>
<circle cx="60.07" cy="79.81" r="17.39" fill="#cccccc" stroke="#000000" stroke-width="1.00"/>
<circle cx="150.32" cy="372.18" r="17.39" fill="#cccccc" stroke="#000000" stroke-width="1.00"/>
<circle cx="90.26" cy="132.10" r="17.39" fill="#cccccc" stroke="#000000" stroke-width="1.00"/>
<circle cx="215.67" cy="309.87" r="17.39" fill="#cccccc" stroke="#000000" stroke-width="1.00"/>
<circle cx="88.20" cy="166.81" r="17.39" fill="#cccccc" stroke="#000000" stroke-width="1.00"/>
<circle cx="322.00" cy="248.57" r="17.39" fill="#cccccc" stroke="#000000" stroke-width="1.00"/>
<circle cx="115.54" cy="372.18" r="17.39" fill="#cccccc" stroke="#000000" stroke-width="1.00"/>
<circle cx="27.82" cy="166.81" r="17.39" fill="#cccccc" stroke="#000000" stroke-width="1.00"/>
<circle cx="27.82" cy="132.04" r="17.39" fill="#cccccc" stroke="#000000" stroke-width="1.00"/>
<circle cx="302.62" cy="279.76" r="17.39" fill="#cccccc" stroke="#000000" stroke-width="1.00"/>
<circle cx="27.82" cy="372.18" r="17.39" fill="#cccccc" stroke="#000000" stroke-width="1.00"/>
<circle cx="88.20" cy="27.82" r="17.39" fill="#cccccc" stroke="#000000" stroke-width="1.00"/>
<circle cx="152.49" cy="62.54" r="17.39" fill="#cccccc" stroke="#000000" stroke-width="1.00"/>
<circle cx="152.49" cy="132.10" r="17.39" fill="#cccccc" stroke="#000000" stroke-width="1.00"/>
<circle cx="119.31" cy="43.36" r="17.39" fill="#cccccc" stroke="#000000" stroke-width="1.00"/>
<circle cx="233.06" cy="279.76" r="17.39" fill="#cccccc" stroke="#000000" stroke-width="1.00"/>
<circle cx="233.06" cy="339.99" r="17.39" fill="#cccccc" stroke="#000000" stroke-width="1.00"/>
<circle cx="150.43" cy="27.82" r="17.39" fill="#cccccc" stroke="#000000" stroke-width="1.00"/>
<circle cx="121.31" cy="217.07" r="17.39" fill="#cccccc" stroke="#000000" stroke-width="1.00"/>
<circle cx="254.66" cy="372.18" r="17.39" fill="#cccccc" stroke="#000000" stroke-width="1.00"/>
<circle cx="90.26" cy="97.32" r="17.39" fill="#cccccc" stroke="#000000" stroke-width="1.00"/>
<circle cx="267.84" cy="279.76" r="17.39" fill="#cccccc" stroke="#000000" stroke-width="1.00"/>
<circle cx="372.18" cy="279.76" r="17.39" fill="#cccccc" stroke="#000000" stroke-width="1.00"/>
<circle cx="62.60" cy="372.18" r="17.39" fill="#cccccc" stroke="#000000" stroke-width="1.00"/>
<circle cx="337.40" cy="339.99" r="17.39" fill="#cccccc" stroke="#000000" stroke-width="1.00"/>
<circle cx="90.26" cy="62.54" r="17.39" fill="#cccccc" stroke="#000000" stroke-width="1.00"/>
<circle cx="58.01" cy="149.31" r="17.39" fill="#cccccc" stroke="#000000" stroke-width="1.00"/>
<circle cx="146.12" cy="309.87" r="17.39" fill="#cccccc" stroke="#000000" stroke-width="1.00"/>
<circle cx="182.61" cy="79.93" r="17.39" fill="#cccccc" stroke="#000000" stroke-width="1.00"/>
<circle cx="58.01" cy="45.09" r="17.39" fill="#cccccc" stroke="#000000" stroke-width="1.00"/>
<circle cx="27.82" cy="305.93" r="17.39" fill="#cccccc" stroke="#000000" stroke-width="1.00"/>
<circle cx="29.89" cy="97.32" r="17.39" fill="#cccccc" stroke="#000000" stroke-width="1.00"/>
<circle cx="302.62" cy="339.99" r="17.39" fill="#cccccc" stroke="#000000" stroke-width="1.00"/>
<circle cx="38.42" cy="339.05" r="17.39" fill="#cccccc" stroke="#000000" stroke-width="1.00"/>
<circle cx="267.84" cy="217.39" r="17.39" fill="#cccccc" stroke="#000000" stroke-width="1.00"/>
<circle cx="337.40" cy="279.76" r="17.39" fill="#cccccc" stroke="#000000" stroke-width="1.00"/>
<circle cx="324.22" cy="372.18" r="17.39" fill="#cccccc" stroke="#000000" stroke-width="1.00"/>
<circle cx="121.38" cy="147.64" r="17.39" fill="#cccccc" stroke="#000000" stroke-width="1.00"/>
<circle cx="302.62" cy="217.39" r="17.39" fill="#cccccc" stroke="#000000" stroke-width="1.00"/>
<circle cx="372.18" cy="339.99" r="17.39" fill="#cccccc" stroke="#000000" stroke-width="1.00"/>
<circle cx="121.38" cy="112.86" r="17.39" fill="#cccccc" stroke="#000000" stroke-width="1.00"/>
<circle cx="182.61" cy="114.71" r="17.39" fill="#cccccc" stroke="#000000" stroke-width="1.00"/>
<circle cx="267.84" cy="339.99" r="17.39" fill="#cccccc" stroke="#000000" stroke-width="1.00"/>
<circle cx="337.40" cy="217.39" r="17.39" fill="#cccccc" stroke="#000000" stroke-width="1.00"/>
<circle cx="27.82" cy="271.15" r="17.39" fill="#cccccc" stroke="#000000" stroke-width="1.00"/>
<circle cx="163.51" cy="339.99" r="17.39" fill="#cccccc" stroke="#000000" stroke-width="1.00"/>
<circle cx="372.18" cy="217.39" r="17.39" fill="#cccccc" stroke="#000000" stroke-width="1.00"/>
<circle cx="150.36" cy="236.25" r="17.39" fill="#cccccc" stroke="#000000" stroke-width="1.00"/>
<circle cx="152.49" cy="97.32" r="17.39" fill="#cccccc" stroke="#000000" stroke-width="1.00"/>
<circle cx="354.79" cy="309.87" r="17.39" fill="#cccccc" stroke="#000000" stroke-width="1.00"/>
<circle cx="27.82" cy="62.60" r="17.39" fill="#cccccc" stroke="#000000" stroke-width="1.00"/>
<circle cx="180.89" cy="309.87" r="17.39" fill="#cccccc" stroke="#000000" stroke-width="1.00"/>
<circle cx="358.99" cy="372.18" r="17.39" fill="#cccccc" stroke="#000000" stroke-width="1.00"/>
<circle cx="182.88" cy="248.57" r="17.39" fill="#cccccc" stroke="#000000" stroke-width="1.00"/>
<circle cx="89.07" cy="349.62" r="17.39" fill="#cccccc" stroke="#000000" stroke-width="1.00"/>
<circle cx="58.01" cy="288.42" r="17.39" fill="#cccccc" stroke="#000000" stroke-width="1.00"/>
<circle cx="119.24" cy="251.79" r="17.39" fill="#cccccc" stroke="#000000" stroke-width="1.00"/>
<polygon points="10.43,389.57 389.57,389.57 389.57,200.00 200.00,200.00 200.00,10.43 10.43,10.43" fill="none" stroke="#000000" stroke-width="1.40"/>
</svg>