<svg xmlns="http://www.w3.org/2000/svg" width="400.0" height="400.0" viewBox="0 0 400.0 400.0">
<rect width="400.0" height="400.0" fill="white"/>
<circle cx="355.91" cy="247.72" r="17.28" fill="#cccccc" stroke="#000000" stroke-width="1.00"/>
<circle cx="198.52" cy="217.82" r="17.28" fill="#cccccc" stroke="#000000" stroke-width="1.00"/>
<circle cx="218.14" cy="372.35" r="17.28" fill="#cccccc" stroke="#000000" stroke-width="1.00"/>
<circle cx="251.38" cy="247.23" r="17.28" fill="#cccccc" stroke="#000000" stroke-width="1.00"/>
<circle cx="165.30" cy="281.97" r="17.28" fill="#cccccc" stroke="#000000" stroke-width="1.00"/>
<circle cx="120.89" cy="76.25" r="17.28" fill="#cccccc" stroke="#000000" stroke-width="1.00"/>
<circle cx="216.81" cy="247.23" r="17.28" fill="#cccccc" stroke="#000000" stroke-width="1.00"/>
<circle cx="58.48" cy="250.69" r="17.28" fill="#cccccc" stroke="#000000" stroke-width="1.00"/>
<circle cx="183.58" cy="372.35" r="17.28" fill="#cccccc" stroke="#000000" stroke-width="1.00"/>
<circle cx="89.30" cy="235.04" r="17.28" fill="#cccccc" stroke="#000000" stroke-width="1.00"/>
<circle cx="152.48" cy="165.92" r="17.28" fill="#cccccc" stroke="#000000" stroke-width="1.00"/>
<circle cx="182.72" cy="148.11" r="17.28" fill="#cccccc" stroke="#000000" stroke-width="1.00"/>
<circle cx="131.53" cy="342.30" r="17.28" fill="#cccccc" stroke="#000000" stroke-width="1.00"/>
<circle cx="200.66" cy="342.30" r="17.28" fill="#cccccc" stroke="#000000" stroke-width="1.00"/>
<circle cx="153.09" cy="200.48" r="17.28" fill="#cccccc" stroke="#000000" stroke-width="1.00"/>
<circle cx="27.65" cy="27.65" r="17.28" fill="#cccccc" stroke="#000000" stroke-width="1.00"/>
<circle cx="28.26" cy="200.48" r="17.28" fill="#cccccc" stroke="#000000" stroke-width="1.00"/>
<circle cx="120.89" cy="179.95" r="17.28" fill="#cccccc" stroke="#000000" stroke-width="1.00"/>
<circle cx="89.90" cy="200.48" r="17.28" fill="#cccccc" stroke="#000000" stroke-width="1.00"/>
<circle cx="321.11" cy="307.44" r="17.28" fill="#cccccc" stroke="#000000" stroke-width="1.00"/>
<circle cx="287.28" cy="372.35" r="17.28" fill="#cccccc" stroke="#000000" stroke-width="1.00"/>
<circle cx="79.48" cy="312.71" r="17.28" fill="#cccccc" stroke="#000000" stroke-width="1.00"/>
<circle cx="27.65" cy="235.04" r="17.28" fill="#cccccc" stroke="#000000" stroke-width="1.00"/>
<circle cx="182.72" cy="182.67" r="17.28" fill="#cccccc" stroke="#000000" stroke-width="1.00"/>
<circle cx="58.48" cy="112.43" r="17.28" fill="#cccccc" stroke="#000000" stroke-width="1.00"/>
<circle cx="199.86" cy="281.97" r="17.28" fill="#cccccc" stroke="#000000" stroke-width="1.00"/>
<circle cx="114.05" cy="312.48" r="17.28" fill="#cccccc" stroke="#000000" stroke-width="1.00"/>
<circle cx="90.70" cy="270.26" r="17.28" fill="#cccccc" stroke="#000000" stroke-width="1.00"/>
<circle cx="58.48" cy="181.57" r="17.28" fill="#cccccc" stroke="#000000" stroke-width="1.00"/>
<circle cx="130.73" cy="282.20" r="17.28" fill="#cccccc" stroke="#000000" stroke-width="1.00"/>
<circle cx="286.54" cy="307.44" r="17.28" fill="#cccccc" stroke="#000000" stroke-width="1.00"/>
<circle cx="251.98" cy="307.44" r="17.28" fill="#cccccc" stroke="#000000" stroke-width="1.00"/>
<circle cx="182.72" cy="44.41" r="17.28" fill="#cccccc" stroke="#000000" stroke-width="1.00"/>
<circle cx="59.08" cy="216.13" r="17.28" fill="#cccccc" stroke="#000000" stroke-width="1.00"/>
<circle cx="234.08" cy="217.28" r="17.28" fill="#cccccc" stroke="#000000" stroke-width="1.00"/>
<circle cx="285.94" cy="247.23" r="17.28" fill="#cccccc" stroke="#000000" stroke-width="1.00"/>
<circle cx="58.48" cy="77.87" r="17.28" fill="#cccccc" stroke="#000000" stroke-width="1.00"/>
<circle cx="149.01" cy="372.35" r="17.28" fill="#cccccc" stroke="#000000" stroke-width="1.00"/>
<circle cx="89.30" cy="131.35" r="17.28" fill="#cccccc" stroke="#000000" stroke-width="1.00"/>
<circle cx="217.75" cy="312.25" r="17.28" fill="#cccccc" stroke="#000000" stroke-width="1.00"/>
<circle cx="89.30" cy="165.92" r="17.28" fill="#cccccc" stroke="#000000" stroke-width="1.00"/>
<circle cx="320.51" cy="247.23" r="17.28" fill="#cccccc" stroke="#000000" stroke-width="1.00"/>
<circle cx="114.45" cy="372.35" r="17.28" fill="#cccccc" stroke="#000000" stroke-width="1.00"/>
<circle cx="27.65" cy="165.92" r="17.28" fill="#cccccc" stroke="#000000" stroke-width="1.00"/>
<circle cx="27.65" cy="131.35" r="17.28" fill="#cccccc" stroke="#000000" stroke-width="1.00"/>
<circle cx="303.23" cy="277.16" r="17.28" fill="#cccccc" stroke="#000000" stroke-width="1.00"/>
<circle cx="41.44" cy="370.51" r="17.28" fill="#cccccc" stroke="#000000" stroke-width="1.00"/>
<circle cx="89.30" cy="27.65" r="17.28" fill="#cccccc" stroke="#000000" stroke-width="1.00"/>
<circle cx="152.48" cy="62.22" r="17.28" fill="#cccccc" stroke="#000000" stroke-width="1.00"/>
<circle cx="152.48" cy="131.35" r="17.28" fill="#cccccc" stroke="#000000" stroke-width="1.00"/>
<circle cx="120.89" cy="41.68" r="17.28" fill="#cccccc" stroke="#000000" stroke-width="1.00"/>
<circle cx="234.09" cy="277.16" r="17.28" fill="#cccccc" stroke="#000000" stroke-width="1.00"/>
<circle cx="235.23" cy="342.30" r="17.28" fill="#cccccc" stroke="#000000" stroke-width="1.00"/>
<circle cx="152.48" cy="27.65" r="17.28" fill="#cccccc" stroke="#000000" stroke-width="1.00"/>
<circle cx="121.50" cy="214.51" r="17.28" fill="#cccccc" stroke="#000000" stroke-width="1.00"/>
<circle cx="252.71" cy="372.35" r="17.28" fill="#cccccc" stroke="#000000" stroke-width="1.00"/>
<circle cx="89.30" cy="96.79" r="17.28" fill="#cccccc" stroke="#000000" stroke-width="1.00"/>
<circle cx="268.66" cy="277.16" r="17.28" fill="#cccccc" stroke="#000000" stroke-width="1.00"/>
<circle cx="372.35" cy="278.13" r="17.28" fill="#cccccc" stroke="#000000" stroke-width="1.00"/>
<circle cx="79.48" cy="372.35" r="17.28" fill="#cccccc" stroke="#000000" stroke-width="1.00"/>
<circle cx="338.03" cy="337.58" r="17.28" fill="#cccccc" stroke="#000000" stroke-width="1.00"/>
<circle cx="89.30" cy="62.22" r="17.28" fill="#cccccc" stroke="#000000" stroke-width="1.00"/>
<circle cx="58.48" cy="147.00" r="17.28" fill="#cccccc" stroke="#000000" stroke-width="1.00"/>
<circle cx="148.61" cy="312.25" r="17.28" fill="#cccccc" stroke="#000000" stroke-width="1.00"/>
<circle cx="182.72" cy="78.97" r="17.28" fill="#cccccc" stroke="#000000" stroke-width="1.00"/>
<circle cx="58.48" cy="43.30" r="17.28" fill="#cccccc" stroke="#000000" stroke-width="1.00"/>
<circle cx="29.51" cy="304.12" r="17.28" fill="#cccccc" stroke="#000000" stroke-width="1.00"/>
<circle cx="27.65" cy="96.79" r="17.28" fill="#cccccc" stroke="#000000" stroke-width="1.00"/>
<circle cx="303.74" cy="341.95" r="17.28" fill="#cccccc" stroke="#000000" stroke-width="1.00"/>
<circle cx="27.65" cy="338.64" r="17.28" fill="#cccccc" stroke="#000000" stroke-width="1.00"/>
<circle cx="268.65" cy="217.28" r="17.28" fill="#cccccc" stroke="#000000" stroke-width="1.00"/>
<circle cx="337.79" cy="277.16" r="17.28" fill="#cccccc" stroke="#000000" stroke-width="1.00"/>
<circle cx="321.83" cy="371.40" r="17.28" fill="#cccccc" stroke="#000000" stroke-width="1.00"/>
<circle cx="120.89" cy="145.38" r="17.28" fill="#cccccc" stroke="#000000" stroke-width="1.00"/>
<circle cx="303.21" cy="217.28" r="17.28" fill="#cccccc" stroke="#000000" stroke-width="1.00"/>
<circle cx="372.35" cy="341.69" r="17.28" fill="#cccccc" stroke="#000000" stroke-width="1.00"/>
<circle cx="120.89" cy="110.81" r="17.28" fill="#cccccc" stroke="#000000" stroke-width="1.00"/>
<circle cx="182.72" cy="113.54" r="17.28" fill="#cccccc" stroke="#000000" stroke-width="1.00"/>
<circle cx="269.46" cy="337.48" r="17.28" fill="#cccccc" stroke="#000000" stroke-width="1.00"/>
<circle cx="337.78" cy="217.28" r="17.28" fill="#cccccc" stroke="#000000" stroke-width="1.00"/>
<circle cx="27.65" cy="269.61" r="17.28" fill="#cccccc" stroke="#000000" stroke-width="1.00"/>
<circle cx="166.10" cy="342.30" r="17.28" fill="#cccccc" stroke="#000000" stroke-width="1.00"/>
<circle cx="372.35" cy="217.31" r="17.28" fill="#cccccc" stroke="#000000" stroke-width="1.00"/>
<circle cx="152.48" cy="235.04" r="17.28" fill="#cccccc" stroke="#000000" stroke-width="1.00"/>
<circle cx="152.48" cy="96.79" r="17.28" fill="#cccccc" stroke="#000000" stroke-width="1.00"/>
<circle cx="358.74" cy="309.91" r="17.28" fill="#cccccc" stroke="#000000" stroke-width="1.00"/>
<circle cx="27.65" cy="62.22" r="17.28" fill="#cccccc" stroke="#000000" stroke-width="1.00"/>
<circle cx="183.18" cy="312.25" r="17.28" fill="#cccccc" stroke="#000000" stroke-width="1.00"/>
<circle cx="356.38" cy="372.35" r="17.28" fill="#cccccc" stroke="#000000" stroke-width="1.00"/>
<circle cx="182.58" cy="252.04" r="17.28" fill="#cccccc" stroke="#000000" stroke-width="1.00"/>
<circle cx="96.96" cy="342.53" r="17.28" fill="#cccccc" stroke="#000000" stroke-width="1.00"/>
<circle cx="58.48" cy="285.26" r="17.28" fill="#cccccc" stroke="#000000" stroke-width="1.00"/>
<circle cx="120.89" cy="249.07" r="17.28" fill="#cccccc" stroke="#000000" stroke-width="1.00"/>
<circle cx="62.00" cy="342.53" r="17.28" fill="#cccccc" stroke="#000000" stroke-width="1.00"/>
<polygon points="10.37,389.63 389.63,389.63 389.63,200.00 200.00,200.00 200.00,10.37 10.37,10.37" fill="none" stroke="#000000" stroke-width="1.40"/>
</svg>