<svg xmlns="http://www.w3.org/2000/svg" width="400.0" height="400.0" viewBox="0 0 400.0 400.0">
<rect width="400.0" height="400.0" fill="white"/>
<circle cx="355.42" cy="246.85" r="17.15" fill="#cccccc" stroke="#000000" stroke-width="1.00"/>
<circle cx="201.09" cy="217.15" r="17.15" fill="#cccccc" stroke="#000000" stroke-width="1.00"/>
<circle cx="222.61" cy="372.56" r="17.15" fill="#cccccc" stroke="#000000" stroke-width="1.00"/>
<circle cx="252.54" cy="246.85" r="17.15" fill="#cccccc" stroke="#000000" stroke-width="1.00"/>
<circle cx="166.80" cy="276.55" r="17.15" fill="#cccccc" stroke="#000000" stroke-width="1.00"/>
<circle cx="119.15" cy="75.24" r="17.15" fill="#cccccc" stroke="#000000" stroke-width="1.00"/>
<circle cx="218.24" cy="246.85" r="17.15" fill="#cccccc" stroke="#000000" stroke-width="1.00"/>
<circle cx="57.13" cy="250.31" r="17.15" fill="#cccccc" stroke="#000000" stroke-width="1.00"/>
<circle cx="188.32" cy="372.56" r="17.15" fill="#cccccc" stroke="#000000" stroke-width="1.00"/>
<circle cx="86.83" cy="233.16" r="17.15" fill="#cccccc" stroke="#000000" stroke-width="1.00"/>
<circle cx="150.67" cy="164.60" r="17.15" fill="#cccccc" stroke="#000000" stroke-width="1.00"/>
<circle cx="182.85" cy="142.14" r="17.15" fill="#cccccc" stroke="#000000" stroke-width="1.00"/>
<circle cx="132.51" cy="340.74" r="17.15" fill="#cccccc" stroke="#000000" stroke-width="1.00"/>
<circle cx="201.09" cy="340.74" r="17.15" fill="#cccccc" stroke="#000000" stroke-width="1.00"/>
<circle cx="159.44" cy="201.50" r="17.15" fill="#cccccc" stroke="#000000" stroke-width="1.00"/>
<circle cx="27.44" cy="27.44" r="17.15" fill="#cccccc" stroke="#000000" stroke-width="1.00"/>
<circle cx="27.44" cy="198.87" r="17.15" fill="#cccccc" stroke="#000000" stroke-width="1.00"/>
<circle cx="119.15" cy="178.13" r="17.15" fill="#cccccc" stroke="#000000" stroke-width="1.00"/>
<circle cx="89.70" cy="198.83" r="17.15" fill="#cccccc" stroke="#000000" stroke-width="1.00"/>
<circle cx="326.19" cy="308.64" r="17.15" fill="#cccccc" stroke="#000000" stroke-width="1.00"/>
<circle cx="291.20" cy="372.56" r="17.15" fill="#cccccc" stroke="#000000" stroke-width="1.00"/>
<circle cx="86.83" cy="301.75" r="17.15" fill="#cccccc" stroke="#000000" stroke-width="1.00"/>
<circle cx="27.44" cy="233.16" r="17.15" fill="#cccccc" stroke="#000000" stroke-width="1.00"/>
<circle cx="182.85" cy="176.44" r="17.15" fill="#cccccc" stroke="#000000" stroke-width="1.00"/>
<circle cx="57.93" cy="113.14" r="17.15" fill="#cccccc" stroke="#000000" stroke-width="1.00"/>
<circle cx="201.09" cy="276.55" r="17.15" fill="#cccccc" stroke="#000000" stroke-width="1.00"/>
<circle cx="120.43" cy="308.64" r="17.15" fill="#cccccc" stroke="#000000" stroke-width="1.00"/>
<circle cx="91.12" cy="267.30" r="17.15" fill="#cccccc" stroke="#000000" stroke-width="1.00"/>
<circle cx="57.93" cy="181.73" r="17.15" fill="#cccccc" stroke="#000000" stroke-width="1.00"/>
<circle cx="132.51" cy="276.55" r="17.15" fill="#cccccc" stroke="#000000" stroke-width="1.00"/>
<circle cx="291.90" cy="308.64" r="17.15" fill="#cccccc" stroke="#000000" stroke-width="1.00"/>
<circle cx="257.61" cy="308.64" r="17.15" fill="#cccccc" stroke="#000000" stroke-width="1.00"/>
<circle cx="182.85" cy="37.10" r="17.15" fill="#cccccc" stroke="#000000" stroke-width="1.00"/>
<circle cx="57.13" cy="216.02" r="17.15" fill="#cccccc" stroke="#000000" stroke-width="1.00"/>
<circle cx="235.39" cy="217.15" r="17.15" fill="#cccccc" stroke="#000000" stroke-width="1.00"/>
<circle cx="286.83" cy="246.85" r="17.15" fill="#cccccc" stroke="#000000" stroke-width="1.00"/>
<circle cx="57.93" cy="78.85" r="17.15" fill="#cccccc" stroke="#000000" stroke-width="1.00"/>
<circle cx="154.02" cy="372.56" r="17.15" fill="#cccccc" stroke="#000000" stroke-width="1.00"/>
<circle cx="87.64" cy="130.31" r="17.15" fill="#cccccc" stroke="#000000" stroke-width="1.00"/>
<circle cx="223.31" cy="308.64" r="17.15" fill="#cccccc" stroke="#000000" stroke-width="1.00"/>
<circle cx="87.64" cy="164.60" r="17.15" fill="#cccccc" stroke="#000000" stroke-width="1.00"/>
<circle cx="321.12" cy="246.85" r="17.15" fill="#cccccc" stroke="#000000" stroke-width="1.00"/>
<circle cx="119.73" cy="372.56" r="17.15" fill="#cccccc" stroke="#000000" stroke-width="1.00"/>
<circle cx="28.23" cy="164.58" r="17.15" fill="#cccccc" stroke="#000000" stroke-width="1.00"/>
<circle cx="27.44" cy="130.30" r="17.15" fill="#cccccc" stroke="#000000" stroke-width="1.00"/>
<circle cx="303.98" cy="276.55" r="17.15" fill="#cccccc" stroke="#000000" stroke-width="1.00"/>
<circle cx="27.52" cy="370.52" r="17.15" fill="#cccccc" stroke="#000000" stroke-width="1.00"/>
<circle cx="86.86" cy="27.44" r="17.15" fill="#cccccc" stroke="#000000" stroke-width="1.00"/>
<circle cx="150.67" cy="61.72" r="17.15" fill="#cccccc" stroke="#000000" stroke-width="1.00"/>
<circle cx="150.67" cy="130.31" r="17.15" fill="#cccccc" stroke="#000000" stroke-width="1.00"/>
<circle cx="118.37" cy="40.96" r="17.15" fill="#cccccc" stroke="#000000" stroke-width="1.00"/>
<circle cx="235.39" cy="276.55" r="17.15" fill="#cccccc" stroke="#000000" stroke-width="1.00"/>
<circle cx="235.39" cy="340.74" r="17.15" fill="#cccccc" stroke="#000000" stroke-width="1.00"/>
<circle cx="149.88" cy="27.44" r="17.15" fill="#cccccc" stroke="#000000" stroke-width="1.00"/>
<circle cx="126.67" cy="211.59" r="17.15" fill="#cccccc" stroke="#000000" stroke-width="1.00"/>
<circle cx="256.90" cy="372.56" r="17.15" fill="#cccccc" stroke="#000000" stroke-width="1.00"/>
<circle cx="87.64" cy="96.01" r="17.15" fill="#cccccc" stroke="#000000" stroke-width="1.00"/>
<circle cx="269.68" cy="276.55" r="17.15" fill="#cccccc" stroke="#000000" stroke-width="1.00"/>
<circle cx="372.56" cy="276.55" r="17.15" fill="#cccccc" stroke="#000000" stroke-width="1.00"/>
<circle cx="85.43" cy="372.56" r="17.15" fill="#cccccc" stroke="#000000" stroke-width="1.00"/>
<circle cx="338.27" cy="340.74" r="17.15" fill="#cccccc" stroke="#000000" stroke-width="1.00"/>
<circle cx="87.64" cy="61.72" r="17.15" fill="#cccccc" stroke="#000000" stroke-width="1.00"/>
<circle cx="57.93" cy="147.44" r="17.15" fill="#cccccc" stroke="#000000" stroke-width="1.00"/>
<circle cx="154.72" cy="308.64" r="17.15" fill="#cccccc" stroke="#000000" stroke-width="1.00"/>
<circle cx="182.85" cy="73.56" r="17.15" fill="#cccccc" stroke="#000000" stroke-width="1.00"/>
<circle cx="57.15" cy="44.56" r="17.15" fill="#cccccc" stroke="#000000" stroke-width="1.00"/>
<circle cx="27.44" cy="301.75" r="17.15" fill="#cccccc" stroke="#000000" stroke-width="1.00"/>
<circle cx="28.22" cy="96.01" r="17.15" fill="#cccccc" stroke="#000000" stroke-width="1.00"/>
<circle cx="303.98" cy="340.74" r="17.15" fill="#cccccc" stroke="#000000" stroke-width="1.00"/>
<circle cx="27.44" cy="336.05" r="17.15" fill="#cccccc" stroke="#000000" stroke-width="1.00"/>
<circle cx="269.68" cy="217.15" r="17.15" fill="#cccccc" stroke="#000000" stroke-width="1.00"/>
<circle cx="338.27" cy="276.55" r="17.15" fill="#cccccc" stroke="#000000" stroke-width="1.00"/>
<circle cx="325.49" cy="372.56" r="17.15" fill="#cccccc" stroke="#000000" stroke-width="1.00"/>
<circle cx="119.15" cy="143.83" r="17.15" fill="#cccccc" stroke="#000000" stroke-width="1.00"/>
<circle cx="303.98" cy="217.15" r="17.15" fill="#cccccc" stroke="#000000" stroke-width="1.00"/>
<circle cx="372.56" cy="340.74" r="17.15" fill="#cccccc" stroke="#000000" stroke-width="1.00"/>
<circle cx="119.15" cy="109.54" r="17.15" fill="#cccccc" stroke="#000000" stroke-width="1.00"/>
<circle cx="182.85" cy="107.85" r="17.15" fill="#cccccc" stroke="#000000" stroke-width="1.00"/>
<circle cx="269.68" cy="340.74" r="17.15" fill="#cccccc" stroke="#000000" stroke-width="1.00"/>
<circle cx="338.27" cy="217.15" r="17.15" fill="#cccccc" stroke="#000000" stroke-width="1.00"/>
<circle cx="27.44" cy="267.46" r="17.15" fill="#cccccc" stroke="#000000" stroke-width="1.00"/>
<circle cx="166.80" cy="340.74" r="17.15" fill="#cccccc" stroke="#000000" stroke-width="1.00"/>
<circle cx="372.56" cy="217.15" r="17.15" fill="#cccccc" stroke="#000000" stroke-width="1.00"/>
<circle cx="151.79" cy="234.93" r="17.15" fill="#cccccc" stroke="#000000" stroke-width="1.00"/>
<circle cx="150.67" cy="96.01" r="17.15" fill="#cccccc" stroke="#000000" stroke-width="1.00"/>
<circle cx="360.49" cy="308.64" r="17.15" fill="#cccccc" stroke="#000000" stroke-width="1.00"/>
<circle cx="27.44" cy="61.73" r="17.15" fill="#cccccc" stroke="#000000" stroke-width="1.00"/>
<circle cx="189.02" cy="308.64" r="17.15" fill="#cccccc" stroke="#000000" stroke-width="1.00"/>
<circle cx="359.79" cy="372.56" r="17.15" fill="#cccccc" stroke="#000000" stroke-width="1.00"/>
<circle cx="183.95" cy="246.85" r="17.15" fill="#cccccc" stroke="#000000" stroke-width="1.00"/>
<circle cx="92.74" cy="336.26" r="17.15" fill="#cccccc" stroke="#000000" stroke-width="1.00"/>
<circle cx="57.13" cy="284.60" r="17.15" fill="#cccccc" stroke="#000000" stroke-width="1.00"/>
<circle cx="119.01" cy="245.02" r="17.15" fill="#cccccc" stroke="#000000" stroke-width="1.00"/>
<circle cx="57.13" cy="353.19" r="17.15" fill="#cccccc" stroke="#000000" stroke-width="1.00"/>
<circle cx="57.13" cy="318.90" r="17.15" fill="#cccccc" stroke="#000000" stroke-width="1.00"/>
<polygon points="10.29,389.71 389.71,389.71 389.71,200.00 200.00,200.00 200.00,10.29 10.29,10.29" fill="none" stroke="#000000" stroke-width="1.40"/>
</svg>