<svg xmlns="http://www.w3.org/2000/svg" width="400.0" height="400.0" viewBox="0 0 400.0 400.0">
<rect width="400.0" height="400.0" fill="white"/>
<circle cx="355.63" cy="246.80" r="17.11" fill="#cccccc" stroke="#000000" stroke-width="1.00"/>
<circle cx="201.55" cy="217.11" r="17.11" fill="#cccccc" stroke="#000000" stroke-width="1.00"/>
<circle cx="221.50" cy="370.14" r="17.11" fill="#cccccc" stroke="#000000" stroke-width="1.00"/>
<circle cx="252.98" cy="246.80" r="17.11" fill="#cccccc" stroke="#000000" stroke-width="1.00"/>
<circle cx="167.61" cy="279.58" r="17.11" fill="#cccccc" stroke="#000000" stroke-width="1.00"/>
<circle cx="116.27" cy="44.48" r="17.11" fill="#cccccc" stroke="#000000" stroke-width="1.00"/>
<circle cx="218.77" cy="246.80" r="17.11" fill="#cccccc" stroke="#000000" stroke-width="1.00"/>
<circle cx="57.00" cy="249.77" r="17.11" fill="#cccccc" stroke="#000000" stroke-width="1.00"/>
<circle cx="187.38" cy="372.63" r="17.11" fill="#cccccc" stroke="#000000" stroke-width="1.00"/>
<circle cx="86.63" cy="232.66" r="17.11" fill="#cccccc" stroke="#000000" stroke-width="1.00"/>
<circle cx="148.93" cy="157.31" r="17.11" fill="#cccccc" stroke="#000000" stroke-width="1.00"/>
<circle cx="182.89" cy="153.16" r="17.11" fill="#cccccc" stroke="#000000" stroke-width="1.00"/>
<circle cx="133.85" cy="341.83" r="17.11" fill="#cccccc" stroke="#000000" stroke-width="1.00"/>
<circle cx="202.28" cy="341.83" r="17.11" fill="#cccccc" stroke="#000000" stroke-width="1.00"/>
<circle cx="167.48" cy="220.27" r="17.11" fill="#cccccc" stroke="#000000" stroke-width="1.00"/>
<circle cx="27.37" cy="27.37" r="17.11" fill="#cccccc" stroke="#000000" stroke-width="1.00"/>
<circle cx="27.37" cy="198.45" r="17.11" fill="#cccccc" stroke="#000000" stroke-width="1.00"/>
<circle cx="116.27" cy="181.34" r="17.11" fill="#cccccc" stroke="#000000" stroke-width="1.00"/>
<circle cx="86.63" cy="198.45" r="17.11" fill="#cccccc" stroke="#000000" stroke-width="1.00"/>
<circle cx="324.15" cy="310.57" r="17.11" fill="#cccccc" stroke="#000000" stroke-width="1.00"/>
<circle cx="289.74" cy="370.02" r="17.11" fill="#cccccc" stroke="#000000" stroke-width="1.00"/>
<circle cx="86.58" cy="301.19" r="17.11" fill="#cccccc" stroke="#000000" stroke-width="1.00"/>
<circle cx="27.37" cy="232.66" r="17.11" fill="#cccccc" stroke="#000000" stroke-width="1.00"/>
<circle cx="182.89" cy="187.37" r="17.11" fill="#cccccc" stroke="#000000" stroke-width="1.00"/>
<circle cx="57.00" cy="112.91" r="17.11" fill="#cccccc" stroke="#000000" stroke-width="1.00"/>
<circle cx="201.82" cy="279.58" r="17.11" fill="#cccccc" stroke="#000000" stroke-width="1.00"/>
<circle cx="119.41" cy="310.81" r="17.11" fill="#cccccc" stroke="#000000" stroke-width="1.00"/>
<circle cx="86.69" cy="266.97" r="17.11" fill="#cccccc" stroke="#000000" stroke-width="1.00"/>
<circle cx="57.00" cy="181.34" r="17.11" fill="#cccccc" stroke="#000000" stroke-width="1.00"/>
<circle cx="133.21" cy="279.50" r="17.11" fill="#cccccc" stroke="#000000" stroke-width="1.00"/>
<circle cx="290.07" cy="307.54" r="17.11" fill="#cccccc" stroke="#000000" stroke-width="1.00"/>
<circle cx="256.00" cy="310.68" r="17.11" fill="#cccccc" stroke="#000000" stroke-width="1.00"/>
<circle cx="182.41" cy="28.62" r="17.11" fill="#cccccc" stroke="#000000" stroke-width="1.00"/>
<circle cx="57.00" cy="215.56" r="17.11" fill="#cccccc" stroke="#000000" stroke-width="1.00"/>
<circle cx="235.77" cy="217.11" r="17.11" fill="#cccccc" stroke="#000000" stroke-width="1.00"/>
<circle cx="287.20" cy="246.80" r="17.11" fill="#cccccc" stroke="#000000" stroke-width="1.00"/>
<circle cx="86.63" cy="95.80" r="17.11" fill="#cccccc" stroke="#000000" stroke-width="1.00"/>
<circle cx="153.16" cy="372.63" r="17.11" fill="#cccccc" stroke="#000000" stroke-width="1.00"/>
<circle cx="86.63" cy="130.02" r="17.11" fill="#cccccc" stroke="#000000" stroke-width="1.00"/>
<circle cx="221.92" cy="307.67" r="17.11" fill="#cccccc" stroke="#000000" stroke-width="1.00"/>
<circle cx="86.63" cy="164.23" r="17.11" fill="#cccccc" stroke="#000000" stroke-width="1.00"/>
<circle cx="321.41" cy="246.80" r="17.11" fill="#cccccc" stroke="#000000" stroke-width="1.00"/>
<circle cx="118.95" cy="372.63" r="17.11" fill="#cccccc" stroke="#000000" stroke-width="1.00"/>
<circle cx="27.37" cy="164.23" r="17.11" fill="#cccccc" stroke="#000000" stroke-width="1.00"/>
<circle cx="27.37" cy="130.02" r="17.11" fill="#cccccc" stroke="#000000" stroke-width="1.00"/>
<circle cx="304.30" cy="276.43" r="17.11" fill="#cccccc" stroke="#000000" stroke-width="1.00"/>
<circle cx="27.37" cy="372.63" r="17.11" fill="#cccccc" stroke="#000000" stroke-width="1.00"/>
<circle cx="57.00" cy="44.48" r="17.11" fill="#cccccc" stroke="#000000" stroke-width="1.00"/>
<circle cx="162.32" cy="57.39" r="17.11" fill="#cccccc" stroke="#000000" stroke-width="1.00"/>
<circle cx="148.93" cy="123.09" r="17.11" fill="#cccccc" stroke="#000000" stroke-width="1.00"/>
<circle cx="86.63" cy="27.37" r="17.11" fill="#cccccc" stroke="#000000" stroke-width="1.00"/>
<circle cx="235.90" cy="276.44" r="17.11" fill="#cccccc" stroke="#000000" stroke-width="1.00"/>
<circle cx="236.35" cy="338.69" r="17.11" fill="#cccccc" stroke="#000000" stroke-width="1.00"/>
<circle cx="145.90" cy="27.37" r="17.11" fill="#cccccc" stroke="#000000" stroke-width="1.00"/>
<circle cx="117.37" cy="215.54" r="17.11" fill="#cccccc" stroke="#000000" stroke-width="1.00"/>
<circle cx="255.62" cy="372.63" r="17.11" fill="#cccccc" stroke="#000000" stroke-width="1.00"/>
<circle cx="116.27" cy="78.69" r="17.11" fill="#cccccc" stroke="#000000" stroke-width="1.00"/>
<circle cx="270.13" cy="279.36" r="17.11" fill="#cccccc" stroke="#000000" stroke-width="1.00"/>
<circle cx="372.63" cy="276.49" r="17.11" fill="#cccccc" stroke="#000000" stroke-width="1.00"/>
<circle cx="84.73" cy="372.63" r="17.11" fill="#cccccc" stroke="#000000" stroke-width="1.00"/>
<circle cx="338.56" cy="341.73" r="17.11" fill="#cccccc" stroke="#000000" stroke-width="1.00"/>
<circle cx="86.63" cy="61.59" r="17.11" fill="#cccccc" stroke="#000000" stroke-width="1.00"/>
<circle cx="57.00" cy="147.12" r="17.11" fill="#cccccc" stroke="#000000" stroke-width="1.00"/>
<circle cx="153.63" cy="310.81" r="17.11" fill="#cccccc" stroke="#000000" stroke-width="1.00"/>
<circle cx="182.89" cy="84.73" r="17.11" fill="#cccccc" stroke="#000000" stroke-width="1.00"/>
<circle cx="27.37" cy="61.59" r="17.11" fill="#cccccc" stroke="#000000" stroke-width="1.00"/>
<circle cx="27.37" cy="301.09" r="17.11" fill="#cccccc" stroke="#000000" stroke-width="1.00"/>
<circle cx="27.37" cy="95.80" r="17.11" fill="#cccccc" stroke="#000000" stroke-width="1.00"/>
<circle cx="304.49" cy="338.57" r="17.11" fill="#cccccc" stroke="#000000" stroke-width="1.00"/>
<circle cx="27.37" cy="335.31" r="17.11" fill="#cccccc" stroke="#000000" stroke-width="1.00"/>
<circle cx="269.98" cy="217.11" r="17.11" fill="#cccccc" stroke="#000000" stroke-width="1.00"/>
<circle cx="338.48" cy="278.70" r="17.11" fill="#cccccc" stroke="#000000" stroke-width="1.00"/>
<circle cx="323.86" cy="372.63" r="17.11" fill="#cccccc" stroke="#000000" stroke-width="1.00"/>
<circle cx="116.27" cy="147.12" r="17.11" fill="#cccccc" stroke="#000000" stroke-width="1.00"/>
<circle cx="304.20" cy="217.11" r="17.11" fill="#cccccc" stroke="#000000" stroke-width="1.00"/>
<circle cx="372.63" cy="338.57" r="17.11" fill="#cccccc" stroke="#000000" stroke-width="1.00"/>
<circle cx="116.27" cy="112.91" r="17.11" fill="#cccccc" stroke="#000000" stroke-width="1.00"/>
<circle cx="182.89" cy="118.94" r="17.11" fill="#cccccc" stroke="#000000" stroke-width="1.00"/>
<circle cx="270.43" cy="341.78" r="17.11" fill="#cccccc" stroke="#000000" stroke-width="1.00"/>
<circle cx="338.41" cy="217.11" r="17.11" fill="#cccccc" stroke="#000000" stroke-width="1.00"/>
<circle cx="27.37" cy="266.88" r="17.11" fill="#cccccc" stroke="#000000" stroke-width="1.00"/>
<circle cx="168.06" cy="341.83" r="17.11" fill="#cccccc" stroke="#000000" stroke-width="1.00"/>
<circle cx="372.63" cy="217.11" r="17.11" fill="#cccccc" stroke="#000000" stroke-width="1.00"/>
<circle cx="150.48" cy="249.96" r="17.11" fill="#cccccc" stroke="#000000" stroke-width="1.00"/>
<circle cx="148.93" cy="88.88" r="17.11" fill="#cccccc" stroke="#000000" stroke-width="1.00"/>
<circle cx="358.23" cy="307.53" r="17.11" fill="#cccccc" stroke="#000000" stroke-width="1.00"/>
<circle cx="57.00" cy="78.69" r="17.11" fill="#cccccc" stroke="#000000" stroke-width="1.00"/>
<circle cx="187.84" cy="310.81" r="17.11" fill="#cccccc" stroke="#000000" stroke-width="1.00"/>
<circle cx="358.25" cy="372.50" r="17.11" fill="#cccccc" stroke="#000000" stroke-width="1.00"/>
<circle cx="184.70" cy="249.94" r="17.11" fill="#cccccc" stroke="#000000" stroke-width="1.00"/>
<circle cx="88.16" cy="337.17" r="17.11" fill="#cccccc" stroke="#000000" stroke-width="1.00"/>
<circle cx="57.00" cy="283.99" r="17.11" fill="#cccccc" stroke="#000000" stroke-width="1.00"/>
<circle cx="116.27" cy="249.77" r="17.11" fill="#cccccc" stroke="#000000" stroke-width="1.00"/>
<circle cx="56.05" cy="353.97" r="17.11" fill="#cccccc" stroke="#000000" stroke-width="1.00"/>
<circle cx="57.87" cy="319.80" r="17.11" fill="#cccccc" stroke="#000000" stroke-width="1.00"/>
<circle cx="148.93" cy="191.52" r="17.11" fill="#cccccc" stroke="#000000" stroke-width="1.00"/>
<polygon points="10.26,389.74 389.74,389.74 389.74,200.00 200.00,200.00 200.00,10.26 10.26,10.26" fill="none" stroke="#000000" stroke-width="1.40"/>
</svg>