<svg xmlns="http://www.w3.org/2000/svg" width="400.0" height="400.0" viewBox="0 0 400.0 400.0">
<rect width="400.0" height="400.0" fill="white"/>
<circle cx="120.16" cy="94.96" r="16.97" fill="#cccccc" stroke="#000000" stroke-width="1.00"/>
<circle cx="213.25" cy="343.45" r="16.97" fill="#cccccc" stroke="#000000" stroke-width="1.00"/>
<circle cx="183.03" cy="196.78" r="16.97" fill="#cccccc" stroke="#000000" stroke-width="1.00"/>
<circle cx="56.83" cy="78.45" r="16.97" fill="#cccccc" stroke="#000000" stroke-width="1.00"/>
<circle cx="27.15" cy="298.57" r="16.97" fill="#cccccc" stroke="#000000" stroke-width="1.00"/>
<circle cx="212.24" cy="216.97" r="16.97" fill="#cccccc" stroke="#000000" stroke-width="1.00"/>
<circle cx="343.45" cy="267.88" r="16.97" fill="#cccccc" stroke="#000000" stroke-width="1.00"/>
<circle cx="94.45" cy="372.85" r="16.97" fill="#cccccc" stroke="#000000" stroke-width="1.00"/>
<circle cx="372.85" cy="250.91" r="16.97" fill="#cccccc" stroke="#000000" stroke-width="1.00"/>
<circle cx="183.03" cy="27.15" r="16.97" fill="#cccccc" stroke="#000000" stroke-width="1.00"/>
<circle cx="264.16" cy="372.85" r="16.97" fill="#cccccc" stroke="#000000" stroke-width="1.00"/>
<circle cx="314.06" cy="216.97" r="16.97" fill="#cccccc" stroke="#000000" stroke-width="1.00"/>
<circle cx="27.15" cy="162.81" r="16.97" fill="#cccccc" stroke="#000000" stroke-width="1.00"/>
<circle cx="372.85" cy="284.85" r="16.97" fill="#cccccc" stroke="#000000" stroke-width="1.00"/>
<circle cx="245.61" cy="283.81" r="16.97" fill="#cccccc" stroke="#000000" stroke-width="1.00"/>
<circle cx="88.42" cy="61.55" r="16.97" fill="#cccccc" stroke="#000000" stroke-width="1.00"/>
<circle cx="372.85" cy="216.97" r="16.97" fill="#cccccc" stroke="#000000" stroke-width="1.00"/>
<circle cx="27.15" cy="60.98" r="16.97" fill="#cccccc" stroke="#000000" stroke-width="1.00"/>
<circle cx="149.27" cy="213.27" r="16.97" fill="#cccccc" stroke="#000000" stroke-width="1.00"/>
<circle cx="56.83" cy="112.39" r="16.97" fill="#cccccc" stroke="#000000" stroke-width="1.00"/>
<circle cx="122.36" cy="61.09" r="16.97" fill="#cccccc" stroke="#000000" stroke-width="1.00"/>
<circle cx="124.11" cy="162.61" r="16.97" fill="#cccccc" stroke="#000000" stroke-width="1.00"/>
<circle cx="183.03" cy="162.84" r="16.97" fill="#cccccc" stroke="#000000" stroke-width="1.00"/>
<circle cx="80.35" cy="340.67" r="16.97" fill="#cccccc" stroke="#000000" stroke-width="1.00"/>
<circle cx="59.03" cy="44.58" r="16.97" fill="#cccccc" stroke="#000000" stroke-width="1.00"/>
<circle cx="88.15" cy="27.15" r="16.97" fill="#cccccc" stroke="#000000" stroke-width="1.00"/>
<circle cx="281.13" cy="343.45" r="16.97" fill="#cccccc" stroke="#000000" stroke-width="1.00"/>
<circle cx="145.37" cy="343.45" r="16.97" fill="#cccccc" stroke="#000000" stroke-width="1.00"/>
<circle cx="54.45" cy="318.74" r="16.97" fill="#cccccc" stroke="#000000" stroke-width="1.00"/>
<circle cx="298.42" cy="314.25" r="16.97" fill="#cccccc" stroke="#000000" stroke-width="1.00"/>
<circle cx="119.88" cy="196.29" r="16.97" fill="#cccccc" stroke="#000000" stroke-width="1.00"/>
<circle cx="279.56" cy="283.81" r="16.97" fill="#cccccc" stroke="#000000" stroke-width="1.00"/>
<circle cx="27.15" cy="128.86" r="16.97" fill="#cccccc" stroke="#000000" stroke-width="1.00"/>
<circle cx="153.51" cy="145.65" r="16.97" fill="#cccccc" stroke="#000000" stroke-width="1.00"/>
<circle cx="85.94" cy="196.75" r="16.97" fill="#cccccc" stroke="#000000" stroke-width="1.00"/>
<circle cx="27.15" cy="230.69" r="16.97" fill="#cccccc" stroke="#000000" stroke-width="1.00"/>
<circle cx="128.40" cy="372.85" r="16.97" fill="#cccccc" stroke="#000000" stroke-width="1.00"/>
<circle cx="196.28" cy="314.06" r="16.97" fill="#cccccc" stroke="#000000" stroke-width="1.00"/>
<circle cx="343.45" cy="233.94" r="16.97" fill="#cccccc" stroke="#000000" stroke-width="1.00"/>
<circle cx="181.42" cy="61.06" r="16.97" fill="#cccccc" stroke="#000000" stroke-width="1.00"/>
<circle cx="147.90" cy="283.34" r="16.97" fill="#cccccc" stroke="#000000" stroke-width="1.00"/>
<circle cx="153.51" cy="179.59" r="16.97" fill="#cccccc" stroke="#000000" stroke-width="1.00"/>
<circle cx="27.15" cy="196.75" r="16.97" fill="#cccccc" stroke="#000000" stroke-width="1.00"/>
<circle cx="85.94" cy="230.69" r="16.97" fill="#cccccc" stroke="#000000" stroke-width="1.00"/>
<circle cx="117.65" cy="298.75" r="16.97" fill="#cccccc" stroke="#000000" stroke-width="1.00"/>
<circle cx="239.98" cy="250.34" r="16.97" fill="#cccccc" stroke="#000000" stroke-width="1.00"/>
<circle cx="56.55" cy="213.72" r="16.97" fill="#cccccc" stroke="#000000" stroke-width="1.00"/>
<circle cx="183.03" cy="94.96" r="16.97" fill="#cccccc" stroke="#000000" stroke-width="1.00"/>
<circle cx="27.15" cy="338.91" r="16.97" fill="#cccccc" stroke="#000000" stroke-width="1.00"/>
<circle cx="206.04" cy="250.34" r="16.97" fill="#cccccc" stroke="#000000" stroke-width="1.00"/>
<circle cx="273.92" cy="250.34" r="16.97" fill="#cccccc" stroke="#000000" stroke-width="1.00"/>
<circle cx="152.49" cy="42.30" r="16.97" fill="#cccccc" stroke="#000000" stroke-width="1.00"/>
<circle cx="113.27" cy="332.41" r="16.97" fill="#cccccc" stroke="#000000" stroke-width="1.00"/>
<circle cx="85.94" cy="264.63" r="16.97" fill="#cccccc" stroke="#000000" stroke-width="1.00"/>
<circle cx="90.17" cy="163.07" r="16.97" fill="#cccccc" stroke="#000000" stroke-width="1.00"/>
<circle cx="349.33" cy="343.27" r="16.97" fill="#cccccc" stroke="#000000" stroke-width="1.00"/>
<circle cx="183.03" cy="128.90" r="16.97" fill="#cccccc" stroke="#000000" stroke-width="1.00"/>
<circle cx="60.78" cy="146.10" r="16.97" fill="#cccccc" stroke="#000000" stroke-width="1.00"/>
<circle cx="298.10" cy="372.85" r="16.97" fill="#cccccc" stroke="#000000" stroke-width="1.00"/>
<circle cx="247.19" cy="343.45" r="16.97" fill="#cccccc" stroke="#000000" stroke-width="1.00"/>
<circle cx="196.28" cy="372.85" r="16.97" fill="#cccccc" stroke="#000000" stroke-width="1.00"/>
<circle cx="27.15" cy="264.63" r="16.97" fill="#cccccc" stroke="#000000" stroke-width="1.00"/>
<circle cx="307.94" cy="250.35" r="16.97" fill="#cccccc" stroke="#000000" stroke-width="1.00"/>
<circle cx="246.18" cy="216.97" r="16.97" fill="#cccccc" stroke="#000000" stroke-width="1.00"/>
<circle cx="86.22" cy="95.42" r="16.97" fill="#cccccc" stroke="#000000" stroke-width="1.00"/>
<circle cx="119.88" cy="264.19" r="16.97" fill="#cccccc" stroke="#000000" stroke-width="1.00"/>
<circle cx="56.55" cy="247.66" r="16.97" fill="#cccccc" stroke="#000000" stroke-width="1.00"/>
<circle cx="369.57" cy="371.15" r="16.97" fill="#cccccc" stroke="#000000" stroke-width="1.00"/>
<circle cx="151.90" cy="77.81" r="16.97" fill="#cccccc" stroke="#000000" stroke-width="1.00"/>
<circle cx="124.11" cy="128.67" r="16.97" fill="#cccccc" stroke="#000000" stroke-width="1.00"/>
<circle cx="162.34" cy="372.85" r="16.97" fill="#cccccc" stroke="#000000" stroke-width="1.00"/>
<circle cx="150.48" cy="249.50" r="16.97" fill="#cccccc" stroke="#000000" stroke-width="1.00"/>
<circle cx="230.22" cy="372.85" r="16.97" fill="#cccccc" stroke="#000000" stroke-width="1.00"/>
<circle cx="372.85" cy="318.79" r="16.97" fill="#cccccc" stroke="#000000" stroke-width="1.00"/>
<circle cx="29.90" cy="27.15" r="16.97" fill="#cccccc" stroke="#000000" stroke-width="1.00"/>
<circle cx="162.34" cy="314.06" r="16.97" fill="#cccccc" stroke="#000000" stroke-width="1.00"/>
<circle cx="153.51" cy="111.71" r="16.97" fill="#cccccc" stroke="#000000" stroke-width="1.00"/>
<circle cx="56.55" cy="179.78" r="16.97" fill="#cccccc" stroke="#000000" stroke-width="1.00"/>
<circle cx="27.15" cy="94.92" r="16.97" fill="#cccccc" stroke="#000000" stroke-width="1.00"/>
<circle cx="178.55" cy="230.43" r="16.97" fill="#cccccc" stroke="#000000" stroke-width="1.00"/>
<circle cx="211.67" cy="283.81" r="16.97" fill="#cccccc" stroke="#000000" stroke-width="1.00"/>
<circle cx="313.50" cy="283.84" r="16.97" fill="#cccccc" stroke="#000000" stroke-width="1.00"/>
<circle cx="179.31" cy="343.45" r="16.97" fill="#cccccc" stroke="#000000" stroke-width="1.00"/>
<circle cx="315.39" cy="343.64" r="16.97" fill="#cccccc" stroke="#000000" stroke-width="1.00"/>
<circle cx="56.55" cy="281.60" r="16.97" fill="#cccccc" stroke="#000000" stroke-width="1.00"/>
<circle cx="280.12" cy="216.97" r="16.97" fill="#cccccc" stroke="#000000" stroke-width="1.00"/>
<circle cx="119.88" cy="230.24" r="16.97" fill="#cccccc" stroke="#000000" stroke-width="1.00"/>
<circle cx="341.16" cy="306.54" r="16.97" fill="#cccccc" stroke="#000000" stroke-width="1.00"/>
<circle cx="60.80" cy="368.42" r="16.97" fill="#cccccc" stroke="#000000" stroke-width="1.00"/>
<circle cx="83.85" cy="301.77" r="16.97" fill="#cccccc" stroke="#000000" stroke-width="1.00"/>
<circle cx="90.17" cy="129.13" r="16.97" fill="#cccccc" stroke="#000000" stroke-width="1.00"/>
<circle cx="122.09" cy="27.15" r="16.97" fill="#cccccc" stroke="#000000" stroke-width="1.00"/>
<circle cx="230.22" cy="314.06" r="16.97" fill="#cccccc" stroke="#000000" stroke-width="1.00"/>
<circle cx="332.68" cy="372.85" r="16.97" fill="#cccccc" stroke="#000000" stroke-width="1.00"/>
<circle cx="264.16" cy="314.06" r="16.97" fill="#cccccc" stroke="#000000" stroke-width="1.00"/>
<circle cx="27.15" cy="372.85" r="16.97" fill="#cccccc" stroke="#000000" stroke-width="1.00"/>
<circle cx="179.87" cy="271.96" r="16.97" fill="#cccccc" stroke="#000000" stroke-width="1.00"/>
<polygon points="10.18,389.82 389.82,389.82 389.82,200.00 200.00,200.00 200.00,10.18 10.18,10.18" fill="none" stroke="#000000" stroke-width="1.40"/>
</svg>