<svg xmlns="http://www.w3.org/2000/svg" width="400.0" height="400.0" viewBox="0 0 400.0 400.0">
<rect width="400.0" height="400.0" fill="white"/>
<circle cx="27.05" cy="372.95" r="16.91" fill="#cccccc" stroke="#000000" stroke-width="1.00"/>
<circle cx="60.86" cy="372.95" r="16.91" fill="#cccccc" stroke="#000000" stroke-width="1.00"/>
<circle cx="43.95" cy="343.67" r="16.91" fill="#cccccc" stroke="#000000" stroke-width="1.00"/>
<circle cx="27.05" cy="314.39" r="16.91" fill="#cccccc" stroke="#000000" stroke-width="1.00"/>
<circle cx="82.52" cy="346.99" r="16.91" fill="#cccccc" stroke="#000000" stroke-width="1.00"/>
<circle cx="104.19" cy="372.95" r="16.91" fill="#cccccc" stroke="#000000" stroke-width="1.00"/>
<circle cx="65.62" cy="317.71" r="16.91" fill="#cccccc" stroke="#000000" stroke-width="1.00"/>
<circle cx="48.71" cy="288.43" r="16.91" fill="#cccccc" stroke="#000000" stroke-width="1.00"/>
<circle cx="121.09" cy="343.67" r="16.91" fill="#cccccc" stroke="#000000" stroke-width="1.00"/>
<circle cx="99.43" cy="317.71" r="16.91" fill="#cccccc" stroke="#000000" stroke-width="1.00"/>
<circle cx="138.00" cy="372.95" r="16.91" fill="#cccccc" stroke="#000000" stroke-width="1.00"/>
<circle cx="82.52" cy="288.43" r="16.91" fill="#cccccc" stroke="#000000" stroke-width="1.00"/>
<circle cx="27.05" cy="262.47" r="16.91" fill="#cccccc" stroke="#000000" stroke-width="1.00"/>
<circle cx="138.00" cy="314.39" r="16.91" fill="#cccccc" stroke="#000000" stroke-width="1.00"/>
<circle cx="154.90" cy="343.67" r="16.91" fill="#cccccc" stroke="#000000" stroke-width="1.00"/>
<circle cx="64.56" cy="258.56" r="16.91" fill="#cccccc" stroke="#000000" stroke-width="1.00"/>
<circle cx="116.33" cy="288.43" r="16.91" fill="#cccccc" stroke="#000000" stroke-width="1.00"/>
<circle cx="171.81" cy="372.95" r="16.91" fill="#cccccc" stroke="#000000" stroke-width="1.00"/>
<circle cx="98.57" cy="258.67" r="16.91" fill="#cccccc" stroke="#000000" stroke-width="1.00"/>
<circle cx="42.90" cy="232.60" r="16.91" fill="#cccccc" stroke="#000000" stroke-width="1.00"/>
<circle cx="171.81" cy="314.39" r="16.91" fill="#cccccc" stroke="#000000" stroke-width="1.00"/>
<circle cx="154.32" cy="284.77" r="16.91" fill="#cccccc" stroke="#000000" stroke-width="1.00"/>
<circle cx="188.71" cy="343.67" r="16.91" fill="#cccccc" stroke="#000000" stroke-width="1.00"/>
<circle cx="81.66" cy="229.39" r="16.91" fill="#cccccc" stroke="#000000" stroke-width="1.00"/>
<circle cx="132.39" cy="258.67" r="16.91" fill="#cccccc" stroke="#000000" stroke-width="1.00"/>
<circle cx="205.62" cy="372.95" r="16.91" fill="#cccccc" stroke="#000000" stroke-width="1.00"/>
<circle cx="115.48" cy="229.39" r="16.91" fill="#cccccc" stroke="#000000" stroke-width="1.00"/>
<circle cx="27.05" cy="202.74" r="16.91" fill="#cccccc" stroke="#000000" stroke-width="1.00"/>
<circle cx="188.33" cy="284.89" r="16.91" fill="#cccccc" stroke="#000000" stroke-width="1.00"/>
<circle cx="60.86" cy="202.74" r="16.91" fill="#cccccc" stroke="#000000" stroke-width="1.00"/>
<circle cx="205.62" cy="314.39" r="16.91" fill="#cccccc" stroke="#000000" stroke-width="1.00"/>
<circle cx="171.42" cy="255.61" r="16.91" fill="#cccccc" stroke="#000000" stroke-width="1.00"/>
<circle cx="222.53" cy="343.67" r="16.91" fill="#cccccc" stroke="#000000" stroke-width="1.00"/>
<circle cx="98.57" cy="200.11" r="16.91" fill="#cccccc" stroke="#000000" stroke-width="1.00"/>
<circle cx="149.75" cy="229.66" r="16.91" fill="#cccccc" stroke="#000000" stroke-width="1.00"/>
<circle cx="239.43" cy="372.95" r="16.91" fill="#cccccc" stroke="#000000" stroke-width="1.00"/>
<circle cx="43.95" cy="173.46" r="16.91" fill="#cccccc" stroke="#000000" stroke-width="1.00"/>
<circle cx="132.84" cy="200.38" r="16.91" fill="#cccccc" stroke="#000000" stroke-width="1.00"/>
<circle cx="222.14" cy="284.89" r="16.91" fill="#cccccc" stroke="#000000" stroke-width="1.00"/>
<circle cx="205.23" cy="255.61" r="16.91" fill="#cccccc" stroke="#000000" stroke-width="1.00"/>
<circle cx="77.77" cy="173.46" r="16.91" fill="#cccccc" stroke="#000000" stroke-width="1.00"/>
<circle cx="239.43" cy="314.39" r="16.91" fill="#cccccc" stroke="#000000" stroke-width="1.00"/>
<circle cx="188.33" cy="226.32" r="16.91" fill="#cccccc" stroke="#000000" stroke-width="1.00"/>
<circle cx="258.04" cy="342.62" r="16.91" fill="#cccccc" stroke="#000000" stroke-width="1.00"/>
<circle cx="115.47" cy="170.83" r="16.91" fill="#cccccc" stroke="#000000" stroke-width="1.00"/>
<circle cx="166.65" cy="200.38" r="16.91" fill="#cccccc" stroke="#000000" stroke-width="1.00"/>
<circle cx="27.05" cy="144.17" r="16.91" fill="#cccccc" stroke="#000000" stroke-width="1.00"/>
<circle cx="273.24" cy="372.82" r="16.91" fill="#cccccc" stroke="#000000" stroke-width="1.00"/>
<circle cx="60.86" cy="144.17" r="16.91" fill="#cccccc" stroke="#000000" stroke-width="1.00"/>
<circle cx="237.71" cy="246.19" r="16.91" fill="#cccccc" stroke="#000000" stroke-width="1.00"/>
<circle cx="254.61" cy="275.47" r="16.91" fill="#cccccc" stroke="#000000" stroke-width="1.00"/>
<circle cx="149.28" cy="170.83" r="16.91" fill="#cccccc" stroke="#000000" stroke-width="1.00"/>
<circle cx="220.80" cy="216.91" r="16.91" fill="#cccccc" stroke="#000000" stroke-width="1.00"/>
<circle cx="271.90" cy="304.97" r="16.91" fill="#cccccc" stroke="#000000" stroke-width="1.00"/>
<circle cx="94.67" cy="144.17" r="16.91" fill="#cccccc" stroke="#000000" stroke-width="1.00"/>
<circle cx="291.85" cy="342.75" r="16.91" fill="#cccccc" stroke="#000000" stroke-width="1.00"/>
<circle cx="132.38" cy="141.55" r="16.91" fill="#cccccc" stroke="#000000" stroke-width="1.00"/>
<circle cx="183.09" cy="170.83" r="16.91" fill="#cccccc" stroke="#000000" stroke-width="1.00"/>
<circle cx="43.95" cy="114.89" r="16.91" fill="#cccccc" stroke="#000000" stroke-width="1.00"/>
<circle cx="271.52" cy="246.19" r="16.91" fill="#cccccc" stroke="#000000" stroke-width="1.00"/>
<circle cx="254.61" cy="216.91" r="16.91" fill="#cccccc" stroke="#000000" stroke-width="1.00"/>
<circle cx="307.05" cy="372.95" r="16.91" fill="#cccccc" stroke="#000000" stroke-width="1.00"/>
<circle cx="77.77" cy="114.89" r="16.91" fill="#cccccc" stroke="#000000" stroke-width="1.00"/>
<circle cx="288.42" cy="275.47" r="16.91" fill="#cccccc" stroke="#000000" stroke-width="1.00"/>
<circle cx="166.19" cy="141.55" r="16.91" fill="#cccccc" stroke="#000000" stroke-width="1.00"/>
<circle cx="305.63" cy="307.31" r="16.91" fill="#cccccc" stroke="#000000" stroke-width="1.00"/>
<circle cx="111.58" cy="114.89" r="16.91" fill="#cccccc" stroke="#000000" stroke-width="1.00"/>
<circle cx="324.80" cy="335.16" r="16.91" fill="#cccccc" stroke="#000000" stroke-width="1.00"/>
<circle cx="27.05" cy="85.61" r="16.91" fill="#cccccc" stroke="#000000" stroke-width="1.00"/>
<circle cx="149.28" cy="112.27" r="16.91" fill="#cccccc" stroke="#000000" stroke-width="1.00"/>
<circle cx="60.86" cy="85.61" r="16.91" fill="#cccccc" stroke="#000000" stroke-width="1.00"/>
<circle cx="288.42" cy="216.91" r="16.91" fill="#cccccc" stroke="#000000" stroke-width="1.00"/>
<circle cx="305.33" cy="246.19" r="16.91" fill="#cccccc" stroke="#000000" stroke-width="1.00"/>
<circle cx="94.67" cy="85.61" r="16.91" fill="#cccccc" stroke="#000000" stroke-width="1.00"/>
<circle cx="340.00" cy="365.36" r="16.91" fill="#cccccc" stroke="#000000" stroke-width="1.00"/>
<circle cx="322.23" cy="275.47" r="16.91" fill="#cccccc" stroke="#000000" stroke-width="1.00"/>
<circle cx="183.09" cy="112.27" r="16.91" fill="#cccccc" stroke="#000000" stroke-width="1.00"/>
<circle cx="339.34" cy="304.63" r="16.91" fill="#cccccc" stroke="#000000" stroke-width="1.00"/>
<circle cx="128.48" cy="85.61" r="16.91" fill="#cccccc" stroke="#000000" stroke-width="1.00"/>
<circle cx="43.95" cy="56.33" r="16.91" fill="#cccccc" stroke="#000000" stroke-width="1.00"/>
<circle cx="363.05" cy="340.62" r="16.91" fill="#cccccc" stroke="#000000" stroke-width="1.00"/>
<circle cx="166.19" cy="82.99" r="16.91" fill="#cccccc" stroke="#000000" stroke-width="1.00"/>
<circle cx="322.23" cy="216.91" r="16.91" fill="#cccccc" stroke="#000000" stroke-width="1.00"/>
<circle cx="77.77" cy="56.33" r="16.91" fill="#cccccc" stroke="#000000" stroke-width="1.00"/>
<circle cx="339.14" cy="246.19" r="16.91" fill="#cccccc" stroke="#000000" stroke-width="1.00"/>
<circle cx="111.58" cy="56.33" r="16.91" fill="#cccccc" stroke="#000000" stroke-width="1.00"/>
<circle cx="359.31" cy="277.36" r="16.91" fill="#cccccc" stroke="#000000" stroke-width="1.00"/>
<circle cx="372.95" cy="372.95" r="16.91" fill="#cccccc" stroke="#000000" stroke-width="1.00"/>
<circle cx="372.95" cy="308.29" r="16.91" fill="#cccccc" stroke="#000000" stroke-width="1.00"/>
<circle cx="145.39" cy="56.33" r="16.91" fill="#cccccc" stroke="#000000" stroke-width="1.00"/>
<circle cx="27.05" cy="27.05" r="16.91" fill="#cccccc" stroke="#000000" stroke-width="1.00"/>
<circle cx="60.86" cy="27.05" r="16.91" fill="#cccccc" stroke="#000000" stroke-width="1.00"/>
<circle cx="356.30" cy="216.91" r="16.91" fill="#cccccc" stroke="#000000" stroke-width="1.00"/>
<circle cx="94.67" cy="27.05" r="16.91" fill="#cccccc" stroke="#000000" stroke-width="1.00"/>
<circle cx="183.09" cy="53.70" r="16.91" fill="#cccccc" stroke="#000000" stroke-width="1.00"/>
<circle cx="372.95" cy="246.42" r="16.91" fill="#cccccc" stroke="#000000" stroke-width="1.00"/>
<circle cx="128.48" cy="27.05" r="16.91" fill="#cccccc" stroke="#000000" stroke-width="1.00"/>
<circle cx="162.29" cy="27.05" r="16.91" fill="#cccccc" stroke="#000000" stroke-width="1.00"/>
<polygon points="10.14,389.86 389.86,389.86 389.86,200.00 200.00,200.00 200.00,10.14 10.14,10.14" fill="none" stroke="#000000" stroke-width="1.40"/>
</svg>