<svg xmlns="http://www.w3.org/2000/svg" width="400.0" height="400.0" viewBox="0 0 400.0 400.0">
<rect width="400.0" height="400.0" fill="white"/>
<circle cx="125.10" cy="75.30" r="16.78" fill="#cccccc" stroke="#000000" stroke-width="1.00"/>
<circle cx="26.84" cy="190.86" r="16.78" fill="#cccccc" stroke="#000000" stroke-width="1.00"/>
<circle cx="314.36" cy="282.66" r="16.78" fill="#cccccc" stroke="#000000" stroke-width="1.00"/>
<circle cx="26.84" cy="291.53" r="16.78" fill="#cccccc" stroke="#000000" stroke-width="1.00"/>
<circle cx="55.90" cy="241.19" r="16.78" fill="#cccccc" stroke="#000000" stroke-width="1.00"/>
<circle cx="247.92" cy="216.78" r="16.78" fill="#cccccc" stroke="#000000" stroke-width="1.00"/>
<circle cx="274.75" cy="249.65" r="16.78" fill="#cccccc" stroke="#000000" stroke-width="1.00"/>
<circle cx="84.96" cy="257.97" r="16.78" fill="#cccccc" stroke="#000000" stroke-width="1.00"/>
<circle cx="344.10" cy="233.56" r="16.78" fill="#cccccc" stroke="#000000" stroke-width="1.00"/>
<circle cx="302.26" cy="313.96" r="16.78" fill="#cccccc" stroke="#000000" stroke-width="1.00"/>
<circle cx="26.84" cy="325.08" r="16.78" fill="#cccccc" stroke="#000000" stroke-width="1.00"/>
<circle cx="143.08" cy="257.97" r="16.78" fill="#cccccc" stroke="#000000" stroke-width="1.00"/>
<circle cx="183.22" cy="75.30" r="16.78" fill="#cccccc" stroke="#000000" stroke-width="1.00"/>
<circle cx="174.31" cy="245.69" r="16.78" fill="#cccccc" stroke="#000000" stroke-width="1.00"/>
<circle cx="150.57" cy="343.41" r="16.78" fill="#cccccc" stroke="#000000" stroke-width="1.00"/>
<circle cx="26.84" cy="157.30" r="16.78" fill="#cccccc" stroke="#000000" stroke-width="1.00"/>
<circle cx="315.04" cy="216.78" r="16.78" fill="#cccccc" stroke="#000000" stroke-width="1.00"/>
<circle cx="281.48" cy="216.78" r="16.78" fill="#cccccc" stroke="#000000" stroke-width="1.00"/>
<circle cx="114.02" cy="274.75" r="16.78" fill="#cccccc" stroke="#000000" stroke-width="1.00"/>
<circle cx="55.90" cy="174.08" r="16.78" fill="#cccccc" stroke="#000000" stroke-width="1.00"/>
<circle cx="68.01" cy="373.16" r="16.78" fill="#cccccc" stroke="#000000" stroke-width="1.00"/>
<circle cx="373.16" cy="317.44" r="16.78" fill="#cccccc" stroke="#000000" stroke-width="1.00"/>
<circle cx="214.37" cy="216.78" r="16.78" fill="#cccccc" stroke="#000000" stroke-width="1.00"/>
<circle cx="66.98" cy="108.85" r="16.78" fill="#cccccc" stroke="#000000" stroke-width="1.00"/>
<circle cx="251.23" cy="343.41" r="16.78" fill="#cccccc" stroke="#000000" stroke-width="1.00"/>
<circle cx="143.08" cy="26.84" r="16.78" fill="#cccccc" stroke="#000000" stroke-width="1.00"/>
<circle cx="351.90" cy="343.41" r="16.78" fill="#cccccc" stroke="#000000" stroke-width="1.00"/>
<circle cx="168.59" cy="373.16" r="16.78" fill="#cccccc" stroke="#000000" stroke-width="1.00"/>
<circle cx="338.63" cy="307.78" r="16.78" fill="#cccccc" stroke="#000000" stroke-width="1.00"/>
<circle cx="84.96" cy="26.84" r="16.78" fill="#cccccc" stroke="#000000" stroke-width="1.00"/>
<circle cx="181.05" cy="212.82" r="16.78" fill="#cccccc" stroke="#000000" stroke-width="1.00"/>
<circle cx="26.84" cy="257.97" r="16.78" fill="#cccccc" stroke="#000000" stroke-width="1.00"/>
<circle cx="154.16" cy="192.74" r="16.78" fill="#cccccc" stroke="#000000" stroke-width="1.00"/>
<circle cx="29.76" cy="371.71" r="16.78" fill="#cccccc" stroke="#000000" stroke-width="1.00"/>
<circle cx="143.08" cy="291.53" r="16.78" fill="#cccccc" stroke="#000000" stroke-width="1.00"/>
<circle cx="125.10" cy="175.96" r="16.78" fill="#cccccc" stroke="#000000" stroke-width="1.00"/>
<circle cx="84.96" cy="60.40" r="16.78" fill="#cccccc" stroke="#000000" stroke-width="1.00"/>
<circle cx="370.77" cy="373.16" r="16.78" fill="#cccccc" stroke="#000000" stroke-width="1.00"/>
<circle cx="66.98" cy="142.41" r="16.78" fill="#cccccc" stroke="#000000" stroke-width="1.00"/>
<circle cx="318.34" cy="343.41" r="16.78" fill="#cccccc" stroke="#000000" stroke-width="1.00"/>
<circle cx="84.96" cy="224.42" r="16.78" fill="#cccccc" stroke="#000000" stroke-width="1.00"/>
<circle cx="55.90" cy="43.62" r="16.78" fill="#cccccc" stroke="#000000" stroke-width="1.00"/>
<circle cx="302.82" cy="373.16" r="16.78" fill="#cccccc" stroke="#000000" stroke-width="1.00"/>
<circle cx="125.10" cy="142.41" r="16.78" fill="#cccccc" stroke="#000000" stroke-width="1.00"/>
<circle cx="235.15" cy="313.96" r="16.78" fill="#cccccc" stroke="#000000" stroke-width="1.00"/>
<circle cx="183.22" cy="30.30" r="16.78" fill="#cccccc" stroke="#000000" stroke-width="1.00"/>
<circle cx="55.90" cy="77.18" r="16.78" fill="#cccccc" stroke="#000000" stroke-width="1.00"/>
<circle cx="84.96" cy="190.86" r="16.78" fill="#cccccc" stroke="#000000" stroke-width="1.00"/>
<circle cx="184.12" cy="343.41" r="16.78" fill="#cccccc" stroke="#000000" stroke-width="1.00"/>
<circle cx="26.84" cy="26.84" r="16.78" fill="#cccccc" stroke="#000000" stroke-width="1.00"/>
<circle cx="280.80" cy="282.66" r="16.78" fill="#cccccc" stroke="#000000" stroke-width="1.00"/>
<circle cx="179.19" cy="281.89" r="16.78" fill="#cccccc" stroke="#000000" stroke-width="1.00"/>
<circle cx="344.10" cy="267.11" r="16.78" fill="#cccccc" stroke="#000000" stroke-width="1.00"/>
<circle cx="96.04" cy="125.63" r="16.78" fill="#cccccc" stroke="#000000" stroke-width="1.00"/>
<circle cx="183.22" cy="108.85" r="16.78" fill="#cccccc" stroke="#000000" stroke-width="1.00"/>
<circle cx="26.84" cy="224.42" r="16.78" fill="#cccccc" stroke="#000000" stroke-width="1.00"/>
<circle cx="168.04" cy="313.96" r="16.78" fill="#cccccc" stroke="#000000" stroke-width="1.00"/>
<circle cx="183.22" cy="175.96" r="16.78" fill="#cccccc" stroke="#000000" stroke-width="1.00"/>
<circle cx="114.02" cy="308.30" r="16.78" fill="#cccccc" stroke="#000000" stroke-width="1.00"/>
<circle cx="268.71" cy="313.96" r="16.78" fill="#cccccc" stroke="#000000" stroke-width="1.00"/>
<circle cx="55.90" cy="207.64" r="16.78" fill="#cccccc" stroke="#000000" stroke-width="1.00"/>
<circle cx="373.16" cy="283.89" r="16.78" fill="#cccccc" stroke="#000000" stroke-width="1.00"/>
<circle cx="117.05" cy="341.72" r="16.78" fill="#cccccc" stroke="#000000" stroke-width="1.00"/>
<circle cx="26.84" cy="93.96" r="16.78" fill="#cccccc" stroke="#000000" stroke-width="1.00"/>
<circle cx="125.10" cy="108.85" r="16.78" fill="#cccccc" stroke="#000000" stroke-width="1.00"/>
<circle cx="135.04" cy="373.16" r="16.78" fill="#cccccc" stroke="#000000" stroke-width="1.00"/>
<circle cx="336.37" cy="373.16" r="16.78" fill="#cccccc" stroke="#000000" stroke-width="1.00"/>
<circle cx="241.19" cy="249.65" r="16.78" fill="#cccccc" stroke="#000000" stroke-width="1.00"/>
<circle cx="143.08" cy="224.42" r="16.78" fill="#cccccc" stroke="#000000" stroke-width="1.00"/>
<circle cx="235.70" cy="373.16" r="16.78" fill="#cccccc" stroke="#000000" stroke-width="1.00"/>
<circle cx="284.79" cy="343.41" r="16.78" fill="#cccccc" stroke="#000000" stroke-width="1.00"/>
<circle cx="114.02" cy="43.62" r="16.78" fill="#cccccc" stroke="#000000" stroke-width="1.00"/>
<circle cx="154.16" cy="125.63" r="16.78" fill="#cccccc" stroke="#000000" stroke-width="1.00"/>
<circle cx="308.30" cy="249.65" r="16.78" fill="#cccccc" stroke="#000000" stroke-width="1.00"/>
<circle cx="26.84" cy="60.40" r="16.78" fill="#cccccc" stroke="#000000" stroke-width="1.00"/>
<circle cx="373.16" cy="250.33" r="16.78" fill="#cccccc" stroke="#000000" stroke-width="1.00"/>
<circle cx="114.02" cy="241.19" r="16.78" fill="#cccccc" stroke="#000000" stroke-width="1.00"/>
<circle cx="96.04" cy="159.19" r="16.78" fill="#cccccc" stroke="#000000" stroke-width="1.00"/>
<circle cx="213.69" cy="282.66" r="16.78" fill="#cccccc" stroke="#000000" stroke-width="1.00"/>
<circle cx="55.90" cy="341.86" r="16.78" fill="#cccccc" stroke="#000000" stroke-width="1.00"/>
<circle cx="202.15" cy="373.16" r="16.78" fill="#cccccc" stroke="#000000" stroke-width="1.00"/>
<circle cx="85.67" cy="326.26" r="16.78" fill="#cccccc" stroke="#000000" stroke-width="1.00"/>
<circle cx="114.02" cy="207.64" r="16.78" fill="#cccccc" stroke="#000000" stroke-width="1.00"/>
<circle cx="183.22" cy="142.41" r="16.78" fill="#cccccc" stroke="#000000" stroke-width="1.00"/>
<circle cx="373.16" cy="216.78" r="16.78" fill="#cccccc" stroke="#000000" stroke-width="1.00"/>
<circle cx="247.25" cy="282.66" r="16.78" fill="#cccccc" stroke="#000000" stroke-width="1.00"/>
<circle cx="55.90" cy="308.30" r="16.78" fill="#cccccc" stroke="#000000" stroke-width="1.00"/>
<circle cx="84.96" cy="291.53" r="16.78" fill="#cccccc" stroke="#000000" stroke-width="1.00"/>
<circle cx="154.16" cy="58.52" r="16.78" fill="#cccccc" stroke="#000000" stroke-width="1.00"/>
<circle cx="207.63" cy="249.65" r="16.78" fill="#cccccc" stroke="#000000" stroke-width="1.00"/>
<circle cx="217.68" cy="343.41" r="16.78" fill="#cccccc" stroke="#000000" stroke-width="1.00"/>
<circle cx="269.26" cy="373.16" r="16.78" fill="#cccccc" stroke="#000000" stroke-width="1.00"/>
<circle cx="201.60" cy="313.96" r="16.78" fill="#cccccc" stroke="#000000" stroke-width="1.00"/>
<circle cx="96.04" cy="92.07" r="16.78" fill="#cccccc" stroke="#000000" stroke-width="1.00"/>
<circle cx="55.90" cy="274.75" r="16.78" fill="#cccccc" stroke="#000000" stroke-width="1.00"/>
<circle cx="37.92" cy="125.63" r="16.78" fill="#cccccc" stroke="#000000" stroke-width="1.00"/>
<circle cx="154.16" cy="159.19" r="16.78" fill="#cccccc" stroke="#000000" stroke-width="1.00"/>
<circle cx="101.52" cy="371.47" r="16.78" fill="#cccccc" stroke="#000000" stroke-width="1.00"/>
<circle cx="154.16" cy="92.07" r="16.78" fill="#cccccc" stroke="#000000" stroke-width="1.00"/>
<polygon points="10.07,389.93 389.93,389.93 389.93,200.00 200.00,200.00 200.00,10.07 10.07,10.07" fill="none" stroke="#000000" stroke-width="1.40"/>
</svg>