<svg xmlns="http://www.w3.org/2000/svg" width="400.0" height="400.0" viewBox="0 0 400.0 400.0">
<rect width="400.0" height="400.0" fill="white"/>
<circle cx="164.30" cy="57.12" r="35.70" fill="#cccccc" stroke="#000000" stroke-width="1.00"/>
<circle cx="342.88" cy="235.70" r="35.70" fill="#cccccc" stroke="#000000" stroke-width="1.00"/>
<circle cx="201.33" cy="289.29" r="35.70" fill="#cccccc" stroke="#000000" stroke-width="1.00"/>
<circle cx="126.06" cy="277.23" r="35.70" fill="#cccccc" stroke="#000000" stroke-width="1.00"/>
<circle cx="70.97" cy="342.88" r="35.70" fill="#cccccc" stroke="#000000" stroke-width="1.00"/>
<circle cx="248.51" cy="342.88" r="35.70" fill="#cccccc" stroke="#000000" stroke-width="1.00"/>
<circle cx="164.30" cy="152.80" r="35.70" fill="#cccccc" stroke="#000000" stroke-width="1.00"/>
<circle cx="57.12" cy="258.65" r="35.70" fill="#cccccc" stroke="#000000" stroke-width="1.00"/>
<circle cx="104.31" cy="205.06" r="35.70" fill="#cccccc" stroke="#000000" stroke-width="1.00"/>
<circle cx="342.88" cy="342.88" r="35.70" fill="#cccccc" stroke="#000000" stroke-width="1.00"/>
<circle cx="58.29" cy="57.12" r="35.70" fill="#cccccc" stroke="#000000" stroke-width="1.00"/>
<circle cx="173.25" cy="223.64" r="35.70" fill="#cccccc" stroke="#000000" stroke-width="1.00"/>
<circle cx="154.14" cy="342.88" r="35.70" fill="#cccccc" stroke="#000000" stroke-width="1.00"/>
<circle cx="57.12" cy="151.47" r="35.70" fill="#cccccc" stroke="#000000" stroke-width="1.00"/>
<circle cx="295.69" cy="289.29" r="35.70" fill="#cccccc" stroke="#000000" stroke-width="1.00"/>
<circle cx="111.29" cy="104.96" r="35.70" fill="#cccccc" stroke="#000000" stroke-width="1.00"/>
<circle cx="248.51" cy="235.70" r="35.70" fill="#cccccc" stroke="#000000" stroke-width="1.00"/>
<polygon points="21.42,378.58 378.58,378.58 378.58,200.00 200.00,200.00 200.00,21.42 21.42,21.42" fill="none" stroke="#000000" stroke-width="1.40"/>
</svg>