<svg xmlns="http://www.w3.org/2000/svg" width="400.0" height="400.0" viewBox="0 0 400.0 400.0">
<rect width="400.0" height="400.0" fill="white"/>
<circle cx="257.70" cy="234.86" r="34.86" fill="#cccccc" stroke="#000000" stroke-width="1.00"/>
<circle cx="101.45" cy="344.22" r="34.86" fill="#cccccc" stroke="#000000" stroke-width="1.00"/>
<circle cx="344.22" cy="344.22" r="34.86" fill="#cccccc" stroke="#000000" stroke-width="1.00"/>
<circle cx="55.78" cy="221.82" r="34.86" fill="#cccccc" stroke="#000000" stroke-width="1.00"/>
<circle cx="165.12" cy="55.82" r="34.86" fill="#cccccc" stroke="#000000" stroke-width="1.00"/>
<circle cx="257.70" cy="344.22" r="34.86" fill="#cccccc" stroke="#000000" stroke-width="1.00"/>
<circle cx="214.44" cy="289.54" r="34.86" fill="#cccccc" stroke="#000000" stroke-width="1.00"/>
<circle cx="55.78" cy="152.09" r="34.86" fill="#cccccc" stroke="#000000" stroke-width="1.00"/>
<circle cx="55.78" cy="55.78" r="34.86" fill="#cccccc" stroke="#000000" stroke-width="1.00"/>
<circle cx="106.20" cy="103.94" r="34.86" fill="#cccccc" stroke="#000000" stroke-width="1.00"/>
<circle cx="300.96" cy="289.54" r="34.86" fill="#cccccc" stroke="#000000" stroke-width="1.00"/>
<circle cx="55.78" cy="291.54" r="34.86" fill="#cccccc" stroke="#000000" stroke-width="1.00"/>
<circle cx="119.77" cy="194.13" r="34.86" fill="#cccccc" stroke="#000000" stroke-width="1.00"/>
<circle cx="171.18" cy="344.22" r="34.86" fill="#cccccc" stroke="#000000" stroke-width="1.00"/>
<circle cx="165.14" cy="141.19" r="34.86" fill="#cccccc" stroke="#000000" stroke-width="1.00"/>
<circle cx="344.22" cy="234.86" r="34.86" fill="#cccccc" stroke="#000000" stroke-width="1.00"/>
<circle cx="180.29" cy="228.75" r="34.86" fill="#cccccc" stroke="#000000" stroke-width="1.00"/>
<circle cx="120.96" cy="266.18" r="34.86" fill="#cccccc" stroke="#000000" stroke-width="1.00"/>
<polygon points="20.92,379.08 379.08,379.08 379.08,200.00 200.00,200.00 200.00,20.92 20.92,20.92" fill="none" stroke="#000000" stroke-width="1.40"/>
</svg>