<svg xmlns="http://www.w3.org/2000/svg" width="400.0" height="400.0" viewBox="0 0 400.0 400.0">
<rect width="400.0" height="400.0" fill="white"/>
<circle cx="345.84" cy="344.98" r="33.85" fill="#cccccc" stroke="#000000" stroke-width="1.00"/>
<circle cx="149.94" cy="284.23" r="33.85" fill="#cccccc" stroke="#000000" stroke-width="1.00"/>
<circle cx="82.24" cy="284.23" r="33.85" fill="#cccccc" stroke="#000000" stroke-width="1.00"/>
<circle cx="98.45" cy="54.16" r="33.85" fill="#cccccc" stroke="#000000" stroke-width="1.00"/>
<circle cx="265.48" cy="233.85" r="33.85" fill="#cccccc" stroke="#000000" stroke-width="1.00"/>
<circle cx="166.15" cy="54.16" r="33.85" fill="#cccccc" stroke="#000000" stroke-width="1.00"/>
<circle cx="229.74" cy="291.35" r="33.85" fill="#cccccc" stroke="#000000" stroke-width="1.00"/>
<circle cx="132.30" cy="112.79" r="33.85" fill="#cccccc" stroke="#000000" stroke-width="1.00"/>
<circle cx="121.86" cy="345.84" r="33.85" fill="#cccccc" stroke="#000000" stroke-width="1.00"/>
<circle cx="269.92" cy="345.84" r="33.85" fill="#cccccc" stroke="#000000" stroke-width="1.00"/>
<circle cx="54.16" cy="222.63" r="33.85" fill="#cccccc" stroke="#000000" stroke-width="1.00"/>
<circle cx="194.69" cy="233.43" r="33.85" fill="#cccccc" stroke="#000000" stroke-width="1.00"/>
<circle cx="88.01" cy="164.00" r="33.85" fill="#cccccc" stroke="#000000" stroke-width="1.00"/>
<circle cx="54.16" cy="345.84" r="33.85" fill="#cccccc" stroke="#000000" stroke-width="1.00"/>
<circle cx="189.56" cy="345.84" r="33.85" fill="#cccccc" stroke="#000000" stroke-width="1.00"/>
<circle cx="345.84" cy="233.85" r="33.85" fill="#cccccc" stroke="#000000" stroke-width="1.00"/>
<circle cx="305.66" cy="288.34" r="33.85" fill="#cccccc" stroke="#000000" stroke-width="1.00"/>
<circle cx="166.15" cy="171.42" r="33.85" fill="#cccccc" stroke="#000000" stroke-width="1.00"/>
<circle cx="54.16" cy="105.37" r="33.85" fill="#cccccc" stroke="#000000" stroke-width="1.00"/>
<circle cx="121.86" cy="222.63" r="33.85" fill="#cccccc" stroke="#000000" stroke-width="1.00"/>
<polygon points="20.31,379.69 379.69,379.69 379.69,200.00 200.00,200.00 200.00,20.31 20.31,20.31" fill="none" stroke="#000000" stroke-width="1.40"/>
</svg>