<svg xmlns="http://www.w3.org/2000/svg" width="400.0" height="400.0" viewBox="0 0 400.0 400.0">
<rect width="400.0" height="400.0" fill="white"/>
<circle cx="346.78" cy="233.26" r="33.26" fill="#cccccc" stroke="#000000" stroke-width="1.00"/>
<circle cx="99.95" cy="169.96" r="33.26" fill="#cccccc" stroke="#000000" stroke-width="1.00"/>
<circle cx="68.53" cy="282.04" r="33.26" fill="#cccccc" stroke="#000000" stroke-width="1.00"/>
<circle cx="117.89" cy="331.12" r="33.26" fill="#cccccc" stroke="#000000" stroke-width="1.00"/>
<circle cx="53.22" cy="53.22" r="33.26" fill="#cccccc" stroke="#000000" stroke-width="1.00"/>
<circle cx="116.94" cy="236.41" r="33.26" fill="#cccccc" stroke="#000000" stroke-width="1.00"/>
<circle cx="312.08" cy="290.02" r="33.26" fill="#cccccc" stroke="#000000" stroke-width="1.00"/>
<circle cx="53.22" cy="217.30" r="33.26" fill="#cccccc" stroke="#000000" stroke-width="1.00"/>
<circle cx="166.74" cy="53.22" r="33.26" fill="#cccccc" stroke="#000000" stroke-width="1.00"/>
<circle cx="166.74" cy="122.61" r="33.26" fill="#cccccc" stroke="#000000" stroke-width="1.00"/>
<circle cx="53.22" cy="122.61" r="33.26" fill="#cccccc" stroke="#000000" stroke-width="1.00"/>
<circle cx="210.91" cy="235.91" r="33.26" fill="#cccccc" stroke="#000000" stroke-width="1.00"/>
<circle cx="230.65" cy="299.44" r="33.26" fill="#cccccc" stroke="#000000" stroke-width="1.00"/>
<circle cx="53.22" cy="346.78" r="33.26" fill="#cccccc" stroke="#000000" stroke-width="1.00"/>
<circle cx="183.92" cy="346.78" r="33.26" fill="#cccccc" stroke="#000000" stroke-width="1.00"/>
<circle cx="109.98" cy="87.92" r="33.26" fill="#cccccc" stroke="#000000" stroke-width="1.00"/>
<circle cx="164.18" cy="283.25" r="33.26" fill="#cccccc" stroke="#000000" stroke-width="1.00"/>
<circle cx="346.78" cy="346.78" r="33.26" fill="#cccccc" stroke="#000000" stroke-width="1.00"/>
<circle cx="277.39" cy="346.78" r="33.26" fill="#cccccc" stroke="#000000" stroke-width="1.00"/>
<circle cx="163.67" cy="189.07" r="33.26" fill="#cccccc" stroke="#000000" stroke-width="1.00"/>
<circle cx="277.39" cy="233.26" r="33.26" fill="#cccccc" stroke="#000000" stroke-width="1.00"/>
<polygon points="19.96,380.04 380.04,380.04 380.04,200.00 200.00,200.00 200.00,19.96 19.96,19.96" fill="none" stroke="#000000" stroke-width="1.40"/>
</svg>