<svg xmlns="http://www.w3.org/2000/svg" width="400.0" height="400.0" viewBox="0 0 400.0 400.0">
<rect width="400.0" height="400.0" fill="white"/>
<circle cx="51.54" cy="51.54" r="32.21" fill="#cccccc" stroke="#000000" stroke-width="1.00"/>
<circle cx="284.23" cy="343.46" r="32.21" fill="#cccccc" stroke="#000000" stroke-width="1.00"/>
<circle cx="167.79" cy="180.39" r="32.21" fill="#cccccc" stroke="#000000" stroke-width="1.00"/>
<circle cx="348.46" cy="232.21" r="32.21" fill="#cccccc" stroke="#000000" stroke-width="1.00"/>
<circle cx="102.97" cy="283.61" r="32.21" fill="#cccccc" stroke="#000000" stroke-width="1.00"/>
<circle cx="51.54" cy="180.39" r="32.21" fill="#cccccc" stroke="#000000" stroke-width="1.00"/>
<circle cx="110.46" cy="348.46" r="32.21" fill="#cccccc" stroke="#000000" stroke-width="1.00"/>
<circle cx="109.66" cy="143.75" r="32.21" fill="#cccccc" stroke="#000000" stroke-width="1.00"/>
<circle cx="320.68" cy="290.34" r="32.21" fill="#cccccc" stroke="#000000" stroke-width="1.00"/>
<circle cx="51.54" cy="115.96" r="32.21" fill="#cccccc" stroke="#000000" stroke-width="1.00"/>
<circle cx="284.23" cy="237.21" r="32.21" fill="#cccccc" stroke="#000000" stroke-width="1.00"/>
<circle cx="51.54" cy="244.81" r="32.21" fill="#cccccc" stroke="#000000" stroke-width="1.00"/>
<circle cx="167.79" cy="51.54" r="32.21" fill="#cccccc" stroke="#000000" stroke-width="1.00"/>
<circle cx="165.23" cy="314.54" r="32.21" fill="#cccccc" stroke="#000000" stroke-width="1.00"/>
<circle cx="51.54" cy="322.41" r="32.21" fill="#cccccc" stroke="#000000" stroke-width="1.00"/>
<circle cx="220.00" cy="348.46" r="32.21" fill="#cccccc" stroke="#000000" stroke-width="1.00"/>
<circle cx="109.66" cy="79.32" r="32.21" fill="#cccccc" stroke="#000000" stroke-width="1.00"/>
<circle cx="348.46" cy="348.46" r="32.21" fill="#cccccc" stroke="#000000" stroke-width="1.00"/>
<circle cx="158.23" cy="250.50" r="32.21" fill="#cccccc" stroke="#000000" stroke-width="1.00"/>
<circle cx="109.66" cy="208.17" r="32.21" fill="#cccccc" stroke="#000000" stroke-width="1.00"/>
<circle cx="247.79" cy="290.34" r="32.21" fill="#cccccc" stroke="#000000" stroke-width="1.00"/>
<circle cx="167.79" cy="115.96" r="32.21" fill="#cccccc" stroke="#000000" stroke-width="1.00"/>
<circle cx="220.00" cy="232.21" r="32.21" fill="#cccccc" stroke="#000000" stroke-width="1.00"/>
<polygon points="19.33,380.67 380.67,380.67 380.67,200.00 200.00,200.00 200.00,19.33 19.33,19.33" fill="none" stroke="#000000" stroke-width="1.40"/>
</svg>