<svg xmlns="http://www.w3.org/2000/svg" width="400.0" height="400.0" viewBox="0 0 400.0 400.0">
<rect width="400.0" height="400.0" fill="white"/>
<circle cx="50.74" cy="50.74" r="31.72" fill="#cccccc" stroke="#000000" stroke-width="1.00"/>
<circle cx="168.28" cy="50.74" r="31.72" fill="#cccccc" stroke="#000000" stroke-width="1.00"/>
<circle cx="55.26" cy="240.87" r="31.72" fill="#cccccc" stroke="#000000" stroke-width="1.00"/>
<circle cx="349.26" cy="349.26" r="31.72" fill="#cccccc" stroke="#000000" stroke-width="1.00"/>
<circle cx="349.26" cy="231.72" r="31.72" fill="#cccccc" stroke="#000000" stroke-width="1.00"/>
<circle cx="109.51" cy="74.61" r="31.72" fill="#cccccc" stroke="#000000" stroke-width="1.00"/>
<circle cx="222.39" cy="231.72" r="31.72" fill="#cccccc" stroke="#000000" stroke-width="1.00"/>
<circle cx="198.53" cy="290.49" r="31.72" fill="#cccccc" stroke="#000000" stroke-width="1.00"/>
<circle cx="168.28" cy="114.17" r="31.72" fill="#cccccc" stroke="#000000" stroke-width="1.00"/>
<circle cx="95.56" cy="349.26" r="31.72" fill="#cccccc" stroke="#000000" stroke-width="1.00"/>
<circle cx="285.83" cy="349.26" r="31.72" fill="#cccccc" stroke="#000000" stroke-width="1.00"/>
<circle cx="261.96" cy="290.49" r="31.72" fill="#cccccc" stroke="#000000" stroke-width="1.00"/>
<circle cx="50.76" cy="304.35" r="31.72" fill="#cccccc" stroke="#000000" stroke-width="1.00"/>
<circle cx="50.74" cy="177.61" r="31.72" fill="#cccccc" stroke="#000000" stroke-width="1.00"/>
<circle cx="222.39" cy="349.26" r="31.72" fill="#cccccc" stroke="#000000" stroke-width="1.00"/>
<circle cx="285.83" cy="231.72" r="31.72" fill="#cccccc" stroke="#000000" stroke-width="1.00"/>
<circle cx="168.28" cy="177.61" r="31.72" fill="#cccccc" stroke="#000000" stroke-width="1.00"/>
<circle cx="109.51" cy="201.47" r="31.72" fill="#cccccc" stroke="#000000" stroke-width="1.00"/>
<circle cx="117.69" cy="288.11" r="31.72" fill="#cccccc" stroke="#000000" stroke-width="1.00"/>
<circle cx="50.74" cy="114.17" r="31.72" fill="#cccccc" stroke="#000000" stroke-width="1.00"/>
<circle cx="159.57" cy="240.43" r="31.72" fill="#cccccc" stroke="#000000" stroke-width="1.00"/>
<circle cx="109.51" cy="138.04" r="31.72" fill="#cccccc" stroke="#000000" stroke-width="1.00"/>
<circle cx="325.39" cy="290.49" r="31.72" fill="#cccccc" stroke="#000000" stroke-width="1.00"/>
<circle cx="158.98" cy="347.94" r="31.72" fill="#cccccc" stroke="#000000" stroke-width="1.00"/>
<polygon points="19.03,380.97 380.97,380.97 380.97,200.00 200.00,200.00 200.00,19.03 19.03,19.03" fill="none" stroke="#000000" stroke-width="1.40"/>
</svg>