<svg xmlns="http://www.w3.org/2000/svg" width="400.0" height="400.0" viewBox="0 0 400.0 400.0">
<rect width="400.0" height="400.0" fill="white"/>
<circle cx="288.48" cy="288.48" r="30.98" fill="#cccccc" stroke="#000000" stroke-width="1.00"/>
<circle cx="107.36" cy="49.56" r="30.98" fill="#cccccc" stroke="#000000" stroke-width="1.00"/>
<circle cx="164.94" cy="281.74" r="30.98" fill="#cccccc" stroke="#000000" stroke-width="1.00"/>
<circle cx="226.53" cy="350.44" r="30.98" fill="#cccccc" stroke="#000000" stroke-width="1.00"/>
<circle cx="107.36" cy="173.47" r="30.98" fill="#cccccc" stroke="#000000" stroke-width="1.00"/>
<circle cx="288.48" cy="350.44" r="30.98" fill="#cccccc" stroke="#000000" stroke-width="1.00"/>
<circle cx="265.43" cy="230.98" r="30.98" fill="#cccccc" stroke="#000000" stroke-width="1.00"/>
<circle cx="49.56" cy="195.79" r="30.98" fill="#cccccc" stroke="#000000" stroke-width="1.00"/>
<circle cx="164.94" cy="343.70" r="30.98" fill="#cccccc" stroke="#000000" stroke-width="1.00"/>
<circle cx="103.35" cy="350.44" r="30.98" fill="#cccccc" stroke="#000000" stroke-width="1.00"/>
<circle cx="128.31" cy="231.78" r="30.98" fill="#cccccc" stroke="#000000" stroke-width="1.00"/>
<circle cx="203.47" cy="230.98" r="30.98" fill="#cccccc" stroke="#000000" stroke-width="1.00"/>
<circle cx="49.56" cy="133.83" r="30.98" fill="#cccccc" stroke="#000000" stroke-width="1.00"/>
<circle cx="350.44" cy="288.48" r="30.98" fill="#cccccc" stroke="#000000" stroke-width="1.00"/>
<circle cx="107.36" cy="111.52" r="30.98" fill="#cccccc" stroke="#000000" stroke-width="1.00"/>
<circle cx="49.56" cy="257.74" r="30.98" fill="#cccccc" stroke="#000000" stroke-width="1.00"/>
<circle cx="169.02" cy="179.48" r="30.98" fill="#cccccc" stroke="#000000" stroke-width="1.00"/>
<circle cx="169.02" cy="55.57" r="30.98" fill="#cccccc" stroke="#000000" stroke-width="1.00"/>
<circle cx="350.44" cy="350.44" r="30.98" fill="#cccccc" stroke="#000000" stroke-width="1.00"/>
<circle cx="169.02" cy="117.53" r="30.98" fill="#cccccc" stroke="#000000" stroke-width="1.00"/>
<circle cx="226.53" cy="288.48" r="30.98" fill="#cccccc" stroke="#000000" stroke-width="1.00"/>
<circle cx="49.56" cy="71.88" r="30.98" fill="#cccccc" stroke="#000000" stroke-width="1.00"/>
<circle cx="103.35" cy="288.48" r="30.98" fill="#cccccc" stroke="#000000" stroke-width="1.00"/>
<circle cx="327.38" cy="230.98" r="30.98" fill="#cccccc" stroke="#000000" stroke-width="1.00"/>
<circle cx="49.56" cy="319.69" r="30.98" fill="#cccccc" stroke="#000000" stroke-width="1.00"/>
<polygon points="18.59,381.41 381.41,381.41 381.41,200.00 200.00,200.00 200.00,18.59 18.59,18.59" fill="none" stroke="#000000" stroke-width="1.40"/>
</svg>