<svg xmlns="http://www.w3.org/2000/svg" width="400.0" height="400.0" viewBox="0 0 400.0 400.0">
<rect width="400.0" height="400.0" fill="white"/>
<circle cx="351.52" cy="290.91" r="30.30" fill="#cccccc" stroke="#000000" stroke-width="1.00"/>
<circle cx="109.09" cy="290.91" r="30.30" fill="#cccccc" stroke="#000000" stroke-width="1.00"/>
<circle cx="230.30" cy="290.91" r="30.30" fill="#cccccc" stroke="#000000" stroke-width="1.00"/>
<circle cx="169.70" cy="169.70" r="30.30" fill="#cccccc" stroke="#000000" stroke-width="1.00"/>
<circle cx="109.09" cy="109.09" r="30.30" fill="#cccccc" stroke="#000000" stroke-width="1.00"/>
<circle cx="351.52" cy="351.52" r="30.30" fill="#cccccc" stroke="#000000" stroke-width="1.00"/>
<circle cx="169.70" cy="290.91" r="30.30" fill="#cccccc" stroke="#000000" stroke-width="1.00"/>
<circle cx="290.91" cy="290.91" r="30.30" fill="#cccccc" stroke="#000000" stroke-width="1.00"/>
<circle cx="48.48" cy="351.52" r="30.30" fill="#cccccc" stroke="#000000" stroke-width="1.00"/>
<circle cx="230.30" cy="351.52" r="30.30" fill="#cccccc" stroke="#000000" stroke-width="1.00"/>
<circle cx="290.91" cy="351.52" r="30.30" fill="#cccccc" stroke="#000000" stroke-width="1.00"/>
<circle cx="169.70" cy="351.52" r="30.30" fill="#cccccc" stroke="#000000" stroke-width="1.00"/>
<circle cx="290.91" cy="230.30" r="30.30" fill="#cccccc" stroke="#000000" stroke-width="1.00"/>
<circle cx="169.70" cy="230.30" r="30.30" fill="#cccccc" stroke="#000000" stroke-width="1.00"/>
<circle cx="230.30" cy="230.30" r="30.30" fill="#cccccc" stroke="#000000" stroke-width="1.00"/>
<circle cx="109.09" cy="230.30" r="30.30" fill="#cccccc" stroke="#000000" stroke-width="1.00"/>
<circle cx="169.70" cy="48.48" r="30.30" fill="#cccccc" stroke="#000000" stroke-width="1.00"/>
<circle cx="351.52" cy="230.30" r="30.30" fill="#cccccc" stroke="#000000" stroke-width="1.00"/>
<circle cx="109.09" cy="351.52" r="30.30" fill="#cccccc" stroke="#000000" stroke-width="1.00"/>
<circle cx="109.09" cy="169.70" r="30.30" fill="#cccccc" stroke="#000000" stroke-width="1.00"/>
<circle cx="109.09" cy="48.48" r="30.30" fill="#cccccc" stroke="#000000" stroke-width="1.00"/>
<circle cx="48.48" cy="290.91" r="30.30" fill="#cccccc" stroke="#000000" stroke-width="1.00"/>
<circle cx="48.48" cy="109.09" r="30.30" fill="#cccccc" stroke="#000000" stroke-width="1.00"/>
<circle cx="48.48" cy="169.70" r="30.30" fill="#cccccc" stroke="#000000" stroke-width="1.00"/>
<circle cx="169.70" cy="109.09" r="30.30" fill="#cccccc" stroke="#000000" stroke-width="1.00"/>
<circle cx="48.48" cy="230.30" r="30.30" fill="#cccccc" stroke="#000000" stroke-width="1.00"/>
<circle cx="48.48" cy="48.48" r="30.30" fill="#cccccc" stroke="#000000" stroke-width="1.00"/>
<polygon points="18.18,381.82 381.82,381.82 381.82,200.00 200.00,200.00 200.00,18.18 18.18,18.18" fill="none" stroke="#000000" stroke-width="1.40"/>
</svg>