<svg xmlns="http://www.w3.org/2000/svg" width="400.0" height="400.0" viewBox="0 0 400.0 400.0">
<rect width="400.0" height="400.0" fill="white"/>
<circle cx="255.59" cy="353.27" r="29.20" fill="#cccccc" stroke="#000000" stroke-width="1.00"/>
<circle cx="351.44" cy="229.22" r="29.20" fill="#cccccc" stroke="#000000" stroke-width="1.00"/>
<circle cx="138.77" cy="353.27" r="29.20" fill="#cccccc" stroke="#000000" stroke-width="1.00"/>
<circle cx="46.73" cy="304.95" r="29.20" fill="#cccccc" stroke="#000000" stroke-width="1.00"/>
<circle cx="108.76" cy="145.71" r="29.20" fill="#cccccc" stroke="#000000" stroke-width="1.00"/>
<circle cx="253.43" cy="229.20" r="29.20" fill="#cccccc" stroke="#000000" stroke-width="1.00"/>
<circle cx="304.43" cy="321.24" r="29.20" fill="#cccccc" stroke="#000000" stroke-width="1.00"/>
<circle cx="79.53" cy="353.27" r="29.20" fill="#cccccc" stroke="#000000" stroke-width="1.00"/>
<circle cx="138.36" cy="252.35" r="29.20" fill="#cccccc" stroke="#000000" stroke-width="1.00"/>
<circle cx="250.94" cy="293.81" r="29.20" fill="#cccccc" stroke="#000000" stroke-width="1.00"/>
<circle cx="109.15" cy="302.93" r="29.20" fill="#cccccc" stroke="#000000" stroke-width="1.00"/>
<circle cx="46.73" cy="46.73" r="29.20" fill="#cccccc" stroke="#000000" stroke-width="1.00"/>
<circle cx="167.98" cy="302.69" r="29.20" fill="#cccccc" stroke="#000000" stroke-width="1.00"/>
<circle cx="46.73" cy="145.86" r="29.20" fill="#cccccc" stroke="#000000" stroke-width="1.00"/>
<circle cx="353.27" cy="353.27" r="29.20" fill="#cccccc" stroke="#000000" stroke-width="1.00"/>
<circle cx="170.80" cy="46.73" r="29.20" fill="#cccccc" stroke="#000000" stroke-width="1.00"/>
<circle cx="108.51" cy="46.73" r="29.20" fill="#cccccc" stroke="#000000" stroke-width="1.00"/>
<circle cx="170.80" cy="145.55" r="29.20" fill="#cccccc" stroke="#000000" stroke-width="1.00"/>
<circle cx="105.55" cy="204.03" r="29.20" fill="#cccccc" stroke="#000000" stroke-width="1.00"/>
<circle cx="200.69" cy="254.30" r="29.20" fill="#cccccc" stroke="#000000" stroke-width="1.00"/>
<circle cx="76.35" cy="254.61" r="29.20" fill="#cccccc" stroke="#000000" stroke-width="1.00"/>
<circle cx="77.62" cy="96.29" r="29.20" fill="#cccccc" stroke="#000000" stroke-width="1.00"/>
<circle cx="197.18" cy="353.27" r="29.20" fill="#cccccc" stroke="#000000" stroke-width="1.00"/>
<circle cx="139.66" cy="96.14" r="29.20" fill="#cccccc" stroke="#000000" stroke-width="1.00"/>
<circle cx="46.73" cy="204.27" r="29.20" fill="#cccccc" stroke="#000000" stroke-width="1.00"/>
<circle cx="353.27" cy="289.21" r="29.20" fill="#cccccc" stroke="#000000" stroke-width="1.00"/>
<circle cx="171.07" cy="203.96" r="29.20" fill="#cccccc" stroke="#000000" stroke-width="1.00"/>
<circle cx="301.11" cy="262.93" r="29.20" fill="#cccccc" stroke="#000000" stroke-width="1.00"/>
<polygon points="17.52,382.48 382.48,382.48 382.48,200.00 200.00,200.00 200.00,17.52 17.52,17.52" fill="none" stroke="#000000" stroke-width="1.40"/>
</svg>