<svg xmlns="http://www.w3.org/2000/svg" width="400.0" height="400.0" viewBox="0 0 400.0 400.0">
<rect width="400.0" height="400.0" fill="white"/>
<circle cx="72.77" cy="307.05" r="27.93" fill="#cccccc" stroke="#000000" stroke-width="1.00"/>
<circle cx="156.38" cy="151.88" r="27.93" fill="#cccccc" stroke="#000000" stroke-width="1.00"/>
<circle cx="172.59" cy="205.33" r="27.93" fill="#cccccc" stroke="#000000" stroke-width="1.00"/>
<circle cx="157.69" cy="355.32" r="27.93" fill="#cccccc" stroke="#000000" stroke-width="1.00"/>
<circle cx="100.53" cy="44.68" r="27.93" fill="#cccccc" stroke="#000000" stroke-width="1.00"/>
<circle cx="302.69" cy="264.16" r="27.93" fill="#cccccc" stroke="#000000" stroke-width="1.00"/>
<circle cx="214.46" cy="355.32" r="27.93" fill="#cccccc" stroke="#000000" stroke-width="1.00"/>
<circle cx="156.38" cy="44.68" r="27.93" fill="#cccccc" stroke="#000000" stroke-width="1.00"/>
<circle cx="116.22" cy="98.28" r="27.93" fill="#cccccc" stroke="#000000" stroke-width="1.00"/>
<circle cx="260.19" cy="227.93" r="27.93" fill="#cccccc" stroke="#000000" stroke-width="1.00"/>
<circle cx="355.32" cy="355.32" r="27.93" fill="#cccccc" stroke="#000000" stroke-width="1.00"/>
<circle cx="116.74" cy="205.33" r="27.93" fill="#cccccc" stroke="#000000" stroke-width="1.00"/>
<circle cx="100.85" cy="355.32" r="27.93" fill="#cccccc" stroke="#000000" stroke-width="1.00"/>
<circle cx="355.32" cy="282.86" r="27.93" fill="#cccccc" stroke="#000000" stroke-width="1.00"/>
<circle cx="44.68" cy="151.88" r="27.93" fill="#cccccc" stroke="#000000" stroke-width="1.00"/>
<circle cx="101.18" cy="258.97" r="27.93" fill="#cccccc" stroke="#000000" stroke-width="1.00"/>
<circle cx="172.07" cy="98.28" r="27.93" fill="#cccccc" stroke="#000000" stroke-width="1.00"/>
<circle cx="100.53" cy="151.88" r="27.93" fill="#cccccc" stroke="#000000" stroke-width="1.00"/>
<circle cx="44.68" cy="258.77" r="27.93" fill="#cccccc" stroke="#000000" stroke-width="1.00"/>
<circle cx="44.68" cy="44.68" r="27.93" fill="#cccccc" stroke="#000000" stroke-width="1.00"/>
<circle cx="129.27" cy="307.24" r="27.93" fill="#cccccc" stroke="#000000" stroke-width="1.00"/>
<circle cx="157.66" cy="259.14" r="27.93" fill="#cccccc" stroke="#000000" stroke-width="1.00"/>
<circle cx="60.37" cy="98.28" r="27.93" fill="#cccccc" stroke="#000000" stroke-width="1.00"/>
<circle cx="44.68" cy="355.32" r="27.93" fill="#cccccc" stroke="#000000" stroke-width="1.00"/>
<circle cx="270.31" cy="355.32" r="27.93" fill="#cccccc" stroke="#000000" stroke-width="1.00"/>
<circle cx="256.67" cy="299.04" r="27.93" fill="#cccccc" stroke="#000000" stroke-width="1.00"/>
<circle cx="213.51" cy="258.57" r="27.93" fill="#cccccc" stroke="#000000" stroke-width="1.00"/>
<circle cx="312.82" cy="319.09" r="27.93" fill="#cccccc" stroke="#000000" stroke-width="1.00"/>
<circle cx="60.89" cy="205.33" r="27.93" fill="#cccccc" stroke="#000000" stroke-width="1.00"/>
<circle cx="186.07" cy="307.22" r="27.93" fill="#cccccc" stroke="#000000" stroke-width="1.00"/>
<circle cx="345.19" cy="227.93" r="27.93" fill="#cccccc" stroke="#000000" stroke-width="1.00"/>
<polygon points="16.76,383.24 383.24,383.24 383.24,200.00 200.00,200.00 200.00,16.76 16.76,16.76" fill="none" stroke="#000000" stroke-width="1.40"/>
</svg>