<svg xmlns="http://www.w3.org/2000/svg" width="400.0" height="400.0" viewBox="0 0 400.0 400.0">
<rect width="400.0" height="400.0" fill="white"/>
<circle cx="199.94" cy="355.87" r="27.58" fill="#cccccc" stroke="#000000" stroke-width="1.00"/>
<circle cx="44.13" cy="355.87" r="27.58" fill="#cccccc" stroke="#000000" stroke-width="1.00"/>
<circle cx="251.92" cy="337.40" r="27.58" fill="#cccccc" stroke="#000000" stroke-width="1.00"/>
<circle cx="44.13" cy="99.29" r="27.58" fill="#cccccc" stroke="#000000" stroke-width="1.00"/>
<circle cx="298.61" cy="300.96" r="27.58" fill="#cccccc" stroke="#000000" stroke-width="1.00"/>
<circle cx="194.66" cy="300.96" r="27.58" fill="#cccccc" stroke="#000000" stroke-width="1.00"/>
<circle cx="172.42" cy="143.68" r="27.58" fill="#cccccc" stroke="#000000" stroke-width="1.00"/>
<circle cx="246.64" cy="282.49" r="27.58" fill="#cccccc" stroke="#000000" stroke-width="1.00"/>
<circle cx="171.43" cy="198.83" r="27.58" fill="#cccccc" stroke="#000000" stroke-width="1.00"/>
<circle cx="44.13" cy="44.13" r="27.58" fill="#cccccc" stroke="#000000" stroke-width="1.00"/>
<circle cx="141.12" cy="244.94" r="27.58" fill="#cccccc" stroke="#000000" stroke-width="1.00"/>
<circle cx="144.78" cy="355.87" r="27.58" fill="#cccccc" stroke="#000000" stroke-width="1.00"/>
<circle cx="172.42" cy="88.52" r="27.58" fill="#cccccc" stroke="#000000" stroke-width="1.00"/>
<circle cx="199.94" cy="246.05" r="27.58" fill="#cccccc" stroke="#000000" stroke-width="1.00"/>
<circle cx="303.89" cy="355.87" r="27.58" fill="#cccccc" stroke="#000000" stroke-width="1.00"/>
<circle cx="91.90" cy="71.71" r="27.58" fill="#cccccc" stroke="#000000" stroke-width="1.00"/>
<circle cx="92.56" cy="216.82" r="27.58" fill="#cccccc" stroke="#000000" stroke-width="1.00"/>
<circle cx="251.92" cy="227.58" r="27.58" fill="#cccccc" stroke="#000000" stroke-width="1.00"/>
<circle cx="350.59" cy="282.49" r="27.58" fill="#cccccc" stroke="#000000" stroke-width="1.00"/>
<circle cx="44.13" cy="245.58" r="27.58" fill="#cccccc" stroke="#000000" stroke-width="1.00"/>
<circle cx="45.49" cy="300.73" r="27.58" fill="#cccccc" stroke="#000000" stroke-width="1.00"/>
<circle cx="123.66" cy="171.25" r="27.58" fill="#cccccc" stroke="#000000" stroke-width="1.00"/>
<circle cx="303.89" cy="246.05" r="27.58" fill="#cccccc" stroke="#000000" stroke-width="1.00"/>
<circle cx="94.22" cy="332.49" r="27.58" fill="#cccccc" stroke="#000000" stroke-width="1.00"/>
<circle cx="92.56" cy="271.98" r="27.58" fill="#cccccc" stroke="#000000" stroke-width="1.00"/>
<circle cx="139.50" cy="300.96" r="27.58" fill="#cccccc" stroke="#000000" stroke-width="1.00"/>
<circle cx="355.87" cy="337.40" r="27.58" fill="#cccccc" stroke="#000000" stroke-width="1.00"/>
<circle cx="124.65" cy="116.10" r="27.58" fill="#cccccc" stroke="#000000" stroke-width="1.00"/>
<circle cx="355.87" cy="227.58" r="27.58" fill="#cccccc" stroke="#000000" stroke-width="1.00"/>
<circle cx="44.13" cy="190.42" r="27.58" fill="#cccccc" stroke="#000000" stroke-width="1.00"/>
<circle cx="139.67" cy="44.13" r="27.58" fill="#cccccc" stroke="#000000" stroke-width="1.00"/>
<circle cx="75.22" cy="144.86" r="27.58" fill="#cccccc" stroke="#000000" stroke-width="1.00"/>
<polygon points="16.55,383.45 383.45,383.45 383.45,200.00 200.00,200.00 200.00,16.55 16.55,16.55" fill="none" stroke="#000000" stroke-width="1.40"/>
</svg>