<svg xmlns="http://www.w3.org/2000/svg" width="400.0" height="400.0" viewBox="0 0 400.0 400.0">
<rect width="400.0" height="400.0" fill="white"/>
<circle cx="64.23" cy="43.45" r="27.15" fill="#cccccc" stroke="#000000" stroke-width="1.00"/>
<circle cx="356.55" cy="302.42" r="27.15" fill="#cccccc" stroke="#000000" stroke-width="1.00"/>
<circle cx="355.38" cy="247.69" r="27.15" fill="#cccccc" stroke="#000000" stroke-width="1.00"/>
<circle cx="64.23" cy="143.80" r="27.15" fill="#cccccc" stroke="#000000" stroke-width="1.00"/>
<circle cx="252.12" cy="356.55" r="27.15" fill="#cccccc" stroke="#000000" stroke-width="1.00"/>
<circle cx="152.07" cy="193.98" r="27.15" fill="#cccccc" stroke="#000000" stroke-width="1.00"/>
<circle cx="156.44" cy="302.42" r="27.15" fill="#cccccc" stroke="#000000" stroke-width="1.00"/>
<circle cx="118.54" cy="143.80" r="27.15" fill="#cccccc" stroke="#000000" stroke-width="1.00"/>
<circle cx="306.52" cy="281.29" r="27.15" fill="#cccccc" stroke="#000000" stroke-width="1.00"/>
<circle cx="43.45" cy="93.62" r="27.15" fill="#cccccc" stroke="#000000" stroke-width="1.00"/>
<circle cx="102.13" cy="302.42" r="27.15" fill="#cccccc" stroke="#000000" stroke-width="1.00"/>
<circle cx="118.54" cy="43.45" r="27.15" fill="#cccccc" stroke="#000000" stroke-width="1.00"/>
<circle cx="352.18" cy="356.55" r="27.15" fill="#cccccc" stroke="#000000" stroke-width="1.00"/>
<circle cx="152.07" cy="356.55" r="27.15" fill="#cccccc" stroke="#000000" stroke-width="1.00"/>
<circle cx="43.45" cy="356.55" r="27.15" fill="#cccccc" stroke="#000000" stroke-width="1.00"/>
<circle cx="97.76" cy="356.55" r="27.15" fill="#cccccc" stroke="#000000" stroke-width="1.00"/>
<circle cx="172.85" cy="43.45" r="27.15" fill="#cccccc" stroke="#000000" stroke-width="1.00"/>
<circle cx="97.76" cy="248.29" r="27.15" fill="#cccccc" stroke="#000000" stroke-width="1.00"/>
<circle cx="43.45" cy="248.29" r="27.15" fill="#cccccc" stroke="#000000" stroke-width="1.00"/>
<circle cx="256.49" cy="302.42" r="27.15" fill="#cccccc" stroke="#000000" stroke-width="1.00"/>
<circle cx="172.85" cy="143.80" r="27.15" fill="#cccccc" stroke="#000000" stroke-width="1.00"/>
<circle cx="302.15" cy="335.42" r="27.15" fill="#cccccc" stroke="#000000" stroke-width="1.00"/>
<circle cx="97.76" cy="93.62" r="27.15" fill="#cccccc" stroke="#000000" stroke-width="1.00"/>
<circle cx="252.12" cy="248.29" r="27.15" fill="#cccccc" stroke="#000000" stroke-width="1.00"/>
<circle cx="152.07" cy="248.29" r="27.15" fill="#cccccc" stroke="#000000" stroke-width="1.00"/>
<circle cx="302.15" cy="227.15" r="27.15" fill="#cccccc" stroke="#000000" stroke-width="1.00"/>
<circle cx="206.46" cy="281.29" r="27.15" fill="#cccccc" stroke="#000000" stroke-width="1.00"/>
<circle cx="152.07" cy="93.62" r="27.15" fill="#cccccc" stroke="#000000" stroke-width="1.00"/>
<circle cx="202.10" cy="227.15" r="27.15" fill="#cccccc" stroke="#000000" stroke-width="1.00"/>
<circle cx="97.76" cy="193.98" r="27.15" fill="#cccccc" stroke="#000000" stroke-width="1.00"/>
<circle cx="47.82" cy="302.42" r="27.15" fill="#cccccc" stroke="#000000" stroke-width="1.00"/>
<circle cx="43.45" cy="193.98" r="27.15" fill="#cccccc" stroke="#000000" stroke-width="1.00"/>
<circle cx="202.10" cy="335.42" r="27.15" fill="#cccccc" stroke="#000000" stroke-width="1.00"/>
<polygon points="16.29,383.71 383.71,383.71 383.71,200.00 200.00,200.00 200.00,16.29 16.29,16.29" fill="none" stroke="#000000" stroke-width="1.40"/>
</svg>