<svg xmlns="http://www.w3.org/2000/svg" width="400.0" height="400.0" viewBox="0 0 400.0 400.0">
<rect width="400.0" height="400.0" fill="white"/>
<circle cx="173.20" cy="188.43" r="26.80" fill="#cccccc" stroke="#000000" stroke-width="1.00"/>
<circle cx="265.18" cy="319.65" r="26.80" fill="#cccccc" stroke="#000000" stroke-width="1.00"/>
<circle cx="42.88" cy="280.37" r="26.80" fill="#cccccc" stroke="#000000" stroke-width="1.00"/>
<circle cx="42.88" cy="96.49" r="26.80" fill="#cccccc" stroke="#000000" stroke-width="1.00"/>
<circle cx="173.20" cy="81.22" r="26.80" fill="#cccccc" stroke="#000000" stroke-width="1.00"/>
<circle cx="42.88" cy="173.16" r="26.80" fill="#cccccc" stroke="#000000" stroke-width="1.00"/>
<circle cx="126.78" cy="108.02" r="26.80" fill="#cccccc" stroke="#000000" stroke-width="1.00"/>
<circle cx="318.78" cy="226.80" r="26.80" fill="#cccccc" stroke="#000000" stroke-width="1.00"/>
<circle cx="164.33" cy="357.12" r="26.80" fill="#cccccc" stroke="#000000" stroke-width="1.00"/>
<circle cx="357.12" cy="357.12" r="26.80" fill="#cccccc" stroke="#000000" stroke-width="1.00"/>
<circle cx="195.59" cy="313.57" r="26.80" fill="#cccccc" stroke="#000000" stroke-width="1.00"/>
<circle cx="173.20" cy="134.82" r="26.80" fill="#cccccc" stroke="#000000" stroke-width="1.00"/>
<circle cx="357.12" cy="264.27" r="26.80" fill="#cccccc" stroke="#000000" stroke-width="1.00"/>
<circle cx="142.26" cy="308.13" r="26.80" fill="#cccccc" stroke="#000000" stroke-width="1.00"/>
<circle cx="291.98" cy="273.22" r="26.80" fill="#cccccc" stroke="#000000" stroke-width="1.00"/>
<circle cx="42.88" cy="226.76" r="26.80" fill="#cccccc" stroke="#000000" stroke-width="1.00"/>
<circle cx="89.97" cy="254.68" r="26.80" fill="#cccccc" stroke="#000000" stroke-width="1.00"/>
<circle cx="126.78" cy="161.62" r="26.80" fill="#cccccc" stroke="#000000" stroke-width="1.00"/>
<circle cx="211.57" cy="226.80" r="26.80" fill="#cccccc" stroke="#000000" stroke-width="1.00"/>
<circle cx="80.35" cy="134.82" r="26.80" fill="#cccccc" stroke="#000000" stroke-width="1.00"/>
<circle cx="135.73" cy="226.76" r="26.80" fill="#cccccc" stroke="#000000" stroke-width="1.00"/>
<circle cx="43.48" cy="356.03" r="26.80" fill="#cccccc" stroke="#000000" stroke-width="1.00"/>
<circle cx="173.63" cy="264.67" r="26.80" fill="#cccccc" stroke="#000000" stroke-width="1.00"/>
<circle cx="110.72" cy="357.12" r="26.80" fill="#cccccc" stroke="#000000" stroke-width="1.00"/>
<circle cx="42.88" cy="42.88" r="26.80" fill="#cccccc" stroke="#000000" stroke-width="1.00"/>
<circle cx="330.31" cy="310.69" r="26.80" fill="#cccccc" stroke="#000000" stroke-width="1.00"/>
<circle cx="88.65" cy="308.27" r="26.80" fill="#cccccc" stroke="#000000" stroke-width="1.00"/>
<circle cx="226.84" cy="357.12" r="26.80" fill="#cccccc" stroke="#000000" stroke-width="1.00"/>
<circle cx="265.18" cy="226.80" r="26.80" fill="#cccccc" stroke="#000000" stroke-width="1.00"/>
<circle cx="89.31" cy="69.69" r="26.80" fill="#cccccc" stroke="#000000" stroke-width="1.00"/>
<circle cx="135.73" cy="42.88" r="26.80" fill="#cccccc" stroke="#000000" stroke-width="1.00"/>
<circle cx="303.51" cy="357.12" r="26.80" fill="#cccccc" stroke="#000000" stroke-width="1.00"/>
<circle cx="89.31" cy="199.96" r="26.80" fill="#cccccc" stroke="#000000" stroke-width="1.00"/>
<circle cx="237.74" cy="273.60" r="26.80" fill="#cccccc" stroke="#000000" stroke-width="1.00"/>
<polygon points="16.08,383.92 383.92,383.92 383.92,200.00 200.00,200.00 200.00,16.08 16.08,16.08" fill="none" stroke="#000000" stroke-width="1.40"/>
</svg>