<svg xmlns="http://www.w3.org/2000/svg" width="400.0" height="400.0" viewBox="0 0 400.0 400.0">
<rect width="400.0" height="400.0" fill="white"/>
<circle cx="42.26" cy="358.20" r="26.13" fill="#cccccc" stroke="#000000" stroke-width="1.00"/>
<circle cx="223.10" cy="305.64" r="26.13" fill="#cccccc" stroke="#000000" stroke-width="1.00"/>
<circle cx="313.12" cy="304.81" r="26.13" fill="#cccccc" stroke="#000000" stroke-width="1.00"/>
<circle cx="87.51" cy="332.07" r="26.13" fill="#cccccc" stroke="#000000" stroke-width="1.00"/>
<circle cx="178.02" cy="332.07" r="26.13" fill="#cccccc" stroke="#000000" stroke-width="1.00"/>
<circle cx="358.20" cy="331.25" r="26.13" fill="#cccccc" stroke="#000000" stroke-width="1.00"/>
<circle cx="41.80" cy="201.43" r="26.13" fill="#cccccc" stroke="#000000" stroke-width="1.00"/>
<circle cx="267.69" cy="226.13" r="26.13" fill="#cccccc" stroke="#000000" stroke-width="1.00"/>
<circle cx="132.76" cy="358.20" r="26.13" fill="#cccccc" stroke="#000000" stroke-width="1.00"/>
<circle cx="92.59" cy="105.78" r="26.13" fill="#cccccc" stroke="#000000" stroke-width="1.00"/>
<circle cx="41.80" cy="305.94" r="26.13" fill="#cccccc" stroke="#000000" stroke-width="1.00"/>
<circle cx="101.82" cy="41.80" r="26.13" fill="#cccccc" stroke="#000000" stroke-width="1.00"/>
<circle cx="132.31" cy="201.43" r="26.13" fill="#cccccc" stroke="#000000" stroke-width="1.00"/>
<circle cx="132.31" cy="253.69" r="26.13" fill="#cccccc" stroke="#000000" stroke-width="1.00"/>
<circle cx="41.80" cy="145.75" r="26.13" fill="#cccccc" stroke="#000000" stroke-width="1.00"/>
<circle cx="137.84" cy="79.65" r="26.13" fill="#cccccc" stroke="#000000" stroke-width="1.00"/>
<circle cx="87.06" cy="175.31" r="26.13" fill="#cccccc" stroke="#000000" stroke-width="1.00"/>
<circle cx="87.06" cy="227.56" r="26.13" fill="#cccccc" stroke="#000000" stroke-width="1.00"/>
<circle cx="180.52" cy="221.59" r="26.13" fill="#cccccc" stroke="#000000" stroke-width="1.00"/>
<circle cx="358.20" cy="226.13" r="26.13" fill="#cccccc" stroke="#000000" stroke-width="1.00"/>
<circle cx="128.62" cy="143.63" r="26.13" fill="#cccccc" stroke="#000000" stroke-width="1.00"/>
<circle cx="223.27" cy="358.20" r="26.13" fill="#cccccc" stroke="#000000" stroke-width="1.00"/>
<circle cx="173.87" cy="117.50" r="26.13" fill="#cccccc" stroke="#000000" stroke-width="1.00"/>
<circle cx="173.87" cy="169.76" r="26.13" fill="#cccccc" stroke="#000000" stroke-width="1.00"/>
<circle cx="312.94" cy="252.25" r="26.13" fill="#cccccc" stroke="#000000" stroke-width="1.00"/>
<circle cx="358.20" cy="278.38" r="26.13" fill="#cccccc" stroke="#000000" stroke-width="1.00"/>
<circle cx="313.43" cy="358.20" r="26.13" fill="#cccccc" stroke="#000000" stroke-width="1.00"/>
<circle cx="87.06" cy="279.82" r="26.13" fill="#cccccc" stroke="#000000" stroke-width="1.00"/>
<circle cx="132.76" cy="305.94" r="26.13" fill="#cccccc" stroke="#000000" stroke-width="1.00"/>
<circle cx="267.87" cy="278.69" r="26.13" fill="#cccccc" stroke="#000000" stroke-width="1.00"/>
<circle cx="49.56" cy="41.80" r="26.13" fill="#cccccc" stroke="#000000" stroke-width="1.00"/>
<circle cx="268.35" cy="331.76" r="26.13" fill="#cccccc" stroke="#000000" stroke-width="1.00"/>
<circle cx="222.61" cy="252.56" r="26.13" fill="#cccccc" stroke="#000000" stroke-width="1.00"/>
<circle cx="41.80" cy="253.69" r="26.13" fill="#cccccc" stroke="#000000" stroke-width="1.00"/>
<circle cx="41.80" cy="93.48" r="26.13" fill="#cccccc" stroke="#000000" stroke-width="1.00"/>
<circle cx="177.84" cy="279.51" r="26.13" fill="#cccccc" stroke="#000000" stroke-width="1.00"/>
<circle cx="173.87" cy="41.80" r="26.13" fill="#cccccc" stroke="#000000" stroke-width="1.00"/>
<polygon points="15.68,384.32 384.32,384.32 384.32,200.00 200.00,200.00 200.00,15.68 15.68,15.68" fill="none" stroke="#000000" stroke-width="1.40"/>
</svg>