<svg xmlns="http://www.w3.org/2000/svg" width="400.0" height="400.0" viewBox="0 0 400.0 400.0">
<rect width="400.0" height="400.0" fill="white"/>
<circle cx="251.70" cy="270.79" r="25.91" fill="#cccccc" stroke="#000000" stroke-width="1.00"/>
<circle cx="174.09" cy="131.22" r="25.91" fill="#cccccc" stroke="#000000" stroke-width="1.00"/>
<circle cx="41.46" cy="174.19" r="25.91" fill="#cccccc" stroke="#000000" stroke-width="1.00"/>
<circle cx="119.20" cy="219.05" r="25.91" fill="#cccccc" stroke="#000000" stroke-width="1.00"/>
<circle cx="41.46" cy="358.54" r="25.91" fill="#cccccc" stroke="#000000" stroke-width="1.00"/>
<circle cx="96.35" cy="86.34" r="25.91" fill="#cccccc" stroke="#000000" stroke-width="1.00"/>
<circle cx="65.87" cy="310.36" r="25.91" fill="#cccccc" stroke="#000000" stroke-width="1.00"/>
<circle cx="196.67" cy="358.54" r="25.91" fill="#cccccc" stroke="#000000" stroke-width="1.00"/>
<circle cx="170.76" cy="313.66" r="25.91" fill="#cccccc" stroke="#000000" stroke-width="1.00"/>
<circle cx="358.54" cy="268.78" r="25.91" fill="#cccccc" stroke="#000000" stroke-width="1.00"/>
<circle cx="358.54" cy="358.54" r="25.91" fill="#cccccc" stroke="#000000" stroke-width="1.00"/>
<circle cx="225.79" cy="225.91" r="25.91" fill="#cccccc" stroke="#000000" stroke-width="1.00"/>
<circle cx="41.46" cy="84.42" r="25.91" fill="#cccccc" stroke="#000000" stroke-width="1.00"/>
<circle cx="174.09" cy="41.46" r="25.91" fill="#cccccc" stroke="#000000" stroke-width="1.00"/>
<circle cx="145.08" cy="263.95" r="25.91" fill="#cccccc" stroke="#000000" stroke-width="1.00"/>
<circle cx="303.52" cy="270.79" r="25.91" fill="#cccccc" stroke="#000000" stroke-width="1.00"/>
<circle cx="93.27" cy="265.11" r="25.91" fill="#cccccc" stroke="#000000" stroke-width="1.00"/>
<circle cx="67.38" cy="219.06" r="25.91" fill="#cccccc" stroke="#000000" stroke-width="1.00"/>
<circle cx="196.67" cy="268.78" r="25.91" fill="#cccccc" stroke="#000000" stroke-width="1.00"/>
<circle cx="67.36" cy="129.30" r="25.91" fill="#cccccc" stroke="#000000" stroke-width="1.00"/>
<circle cx="277.61" cy="315.67" r="25.91" fill="#cccccc" stroke="#000000" stroke-width="1.00"/>
<circle cx="222.58" cy="313.66" r="25.91" fill="#cccccc" stroke="#000000" stroke-width="1.00"/>
<circle cx="248.49" cy="358.54" r="25.91" fill="#cccccc" stroke="#000000" stroke-width="1.00"/>
<circle cx="144.85" cy="358.54" r="25.91" fill="#cccccc" stroke="#000000" stroke-width="1.00"/>
<circle cx="119.07" cy="310.05" r="25.91" fill="#cccccc" stroke="#000000" stroke-width="1.00"/>
<circle cx="148.31" cy="176.18" r="25.91" fill="#cccccc" stroke="#000000" stroke-width="1.00"/>
<circle cx="329.43" cy="225.91" r="25.91" fill="#cccccc" stroke="#000000" stroke-width="1.00"/>
<circle cx="93.28" cy="174.17" r="25.91" fill="#cccccc" stroke="#000000" stroke-width="1.00"/>
<circle cx="41.46" cy="263.93" r="25.91" fill="#cccccc" stroke="#000000" stroke-width="1.00"/>
<circle cx="122.27" cy="41.46" r="25.91" fill="#cccccc" stroke="#000000" stroke-width="1.00"/>
<circle cx="122.27" cy="131.22" r="25.91" fill="#cccccc" stroke="#000000" stroke-width="1.00"/>
<circle cx="174.19" cy="221.08" r="25.91" fill="#cccccc" stroke="#000000" stroke-width="1.00"/>
<circle cx="277.61" cy="225.91" r="25.91" fill="#cccccc" stroke="#000000" stroke-width="1.00"/>
<circle cx="332.63" cy="313.66" r="25.91" fill="#cccccc" stroke="#000000" stroke-width="1.00"/>
<circle cx="148.18" cy="86.34" r="25.91" fill="#cccccc" stroke="#000000" stroke-width="1.00"/>
<circle cx="70.44" cy="41.46" r="25.91" fill="#cccccc" stroke="#000000" stroke-width="1.00"/>
<circle cx="93.15" cy="354.93" r="25.91" fill="#cccccc" stroke="#000000" stroke-width="1.00"/>
<circle cx="306.72" cy="358.54" r="25.91" fill="#cccccc" stroke="#000000" stroke-width="1.00"/>
<polygon points="15.55,384.45 384.45,384.45 384.45,200.00 200.00,200.00 200.00,15.55 15.55,15.55" fill="none" stroke="#000000" stroke-width="1.40"/>
</svg>