<svg xmlns="http://www.w3.org/2000/svg" width="400.0" height="400.0" viewBox="0 0 400.0 400.0">
<rect width="400.0" height="400.0" fill="white"/>
<circle cx="130.33" cy="200.27" r="25.80" fill="#cccccc" stroke="#000000" stroke-width="1.00"/>
<circle cx="305.29" cy="270.47" r="25.80" fill="#cccccc" stroke="#000000" stroke-width="1.00"/>
<circle cx="85.96" cy="67.07" r="25.80" fill="#cccccc" stroke="#000000" stroke-width="1.00"/>
<circle cx="174.44" cy="314.05" r="25.80" fill="#cccccc" stroke="#000000" stroke-width="1.00"/>
<circle cx="279.49" cy="225.80" r="25.80" fill="#cccccc" stroke="#000000" stroke-width="1.00"/>
<circle cx="85.65" cy="226.07" r="25.80" fill="#cccccc" stroke="#000000" stroke-width="1.00"/>
<circle cx="251.86" cy="358.72" r="25.80" fill="#cccccc" stroke="#000000" stroke-width="1.00"/>
<circle cx="279.49" cy="315.15" r="25.80" fill="#cccccc" stroke="#000000" stroke-width="1.00"/>
<circle cx="129.52" cy="94.72" r="25.80" fill="#cccccc" stroke="#000000" stroke-width="1.00"/>
<circle cx="86.26" cy="277.66" r="25.80" fill="#cccccc" stroke="#000000" stroke-width="1.00"/>
<circle cx="84.84" cy="120.51" r="25.80" fill="#cccccc" stroke="#000000" stroke-width="1.00"/>
<circle cx="253.68" cy="270.47" r="25.80" fill="#cccccc" stroke="#000000" stroke-width="1.00"/>
<circle cx="41.28" cy="148.16" r="25.80" fill="#cccccc" stroke="#000000" stroke-width="1.00"/>
<circle cx="227.87" cy="225.80" r="25.80" fill="#cccccc" stroke="#000000" stroke-width="1.00"/>
<circle cx="42.01" cy="304.55" r="25.80" fill="#cccccc" stroke="#000000" stroke-width="1.00"/>
<circle cx="41.28" cy="92.87" r="25.80" fill="#cccccc" stroke="#000000" stroke-width="1.00"/>
<circle cx="85.96" cy="173.95" r="25.80" fill="#cccccc" stroke="#000000" stroke-width="1.00"/>
<circle cx="174.20" cy="172.11" r="25.80" fill="#cccccc" stroke="#000000" stroke-width="1.00"/>
<circle cx="358.72" cy="358.72" r="25.80" fill="#cccccc" stroke="#000000" stroke-width="1.00"/>
<circle cx="200.25" cy="269.37" r="25.80" fill="#cccccc" stroke="#000000" stroke-width="1.00"/>
<circle cx="41.28" cy="199.75" r="25.80" fill="#cccccc" stroke="#000000" stroke-width="1.00"/>
<circle cx="358.72" cy="269.37" r="25.80" fill="#cccccc" stroke="#000000" stroke-width="1.00"/>
<circle cx="122.85" cy="314.04" r="25.80" fill="#cccccc" stroke="#000000" stroke-width="1.00"/>
<circle cx="41.28" cy="252.39" r="25.80" fill="#cccccc" stroke="#000000" stroke-width="1.00"/>
<circle cx="130.64" cy="41.28" r="25.80" fill="#cccccc" stroke="#000000" stroke-width="1.00"/>
<circle cx="136.09" cy="256.49" r="25.80" fill="#cccccc" stroke="#000000" stroke-width="1.00"/>
<circle cx="41.28" cy="41.28" r="25.80" fill="#cccccc" stroke="#000000" stroke-width="1.00"/>
<circle cx="148.63" cy="358.72" r="25.80" fill="#cccccc" stroke="#000000" stroke-width="1.00"/>
<circle cx="174.20" cy="120.51" r="25.80" fill="#cccccc" stroke="#000000" stroke-width="1.00"/>
<circle cx="331.10" cy="225.80" r="25.80" fill="#cccccc" stroke="#000000" stroke-width="1.00"/>
<circle cx="41.28" cy="358.72" r="25.80" fill="#cccccc" stroke="#000000" stroke-width="1.00"/>
<circle cx="332.92" cy="314.05" r="25.80" fill="#cccccc" stroke="#000000" stroke-width="1.00"/>
<circle cx="174.20" cy="68.92" r="25.80" fill="#cccccc" stroke="#000000" stroke-width="1.00"/>
<circle cx="200.25" cy="358.72" r="25.80" fill="#cccccc" stroke="#000000" stroke-width="1.00"/>
<circle cx="176.32" cy="223.66" r="25.80" fill="#cccccc" stroke="#000000" stroke-width="1.00"/>
<circle cx="226.05" cy="314.05" r="25.80" fill="#cccccc" stroke="#000000" stroke-width="1.00"/>
<circle cx="129.52" cy="146.31" r="25.80" fill="#cccccc" stroke="#000000" stroke-width="1.00"/>
<circle cx="307.11" cy="358.72" r="25.80" fill="#cccccc" stroke="#000000" stroke-width="1.00"/>
<circle cx="93.58" cy="358.60" r="25.80" fill="#cccccc" stroke="#000000" stroke-width="1.00"/>
<polygon points="15.48,384.52 384.52,384.52 384.52,200.00 200.00,200.00 200.00,15.48 15.48,15.48" fill="none" stroke="#000000" stroke-width="1.40"/>
</svg>